<svg xmlns="http://www.w3.org/2000/svg" width="112" height="106" fill="none"><path fill="#FFACD4" d="M59.75 93.318 62 84l.772 2.06a27.9 27.9 0 0 0 5.27 8.738L70 97l1.882 1.882a22.8 22.8 0 0 0 9.423 5.673l2.183.672a13.026 13.026 0 0 0 9.656-.799l.337-.169a15 15 0 0 0 4.413-3.343l1.012-1.113a11.24 11.24 0 0 0 2.792-9.267l-.18-1.17a17.9 17.9 0 0 0-2.234-6.308l-.166-.284a19.7 19.7 0 0 0-4.035-4.89l-.31-.27a22 22 0 0 0-2.7-2.022l-1.237-.787a41.5 41.5 0 0 0-5.925-3.129L84.5 71.5l-3-1.5-5.254-2.388c-.027-.013-.013-.054.016-.046 1.157.289 2.334.494 3.52.612L83 68.5h3.019a27.5 27.5 0 0 0 10.839-2.225l.767-.329a27 27 0 0 0 6.242-3.74l.714-.57a18.027 18.027 0 0 0 4.853-6.003l.803-1.607a11.95 11.95 0 0 0 1.263-5.35v-.775a9.05 9.05 0 0 0-3.253-6.945l-.405-.338a12 12 0 0 0-2.947-1.806l-.654-.28a17 17 0 0 0-2.55-.86l-.268-.066a20.3 20.3 0 0 0-4.92-.606h-.41c-1.724 0-3.442.189-5.124.562L89 38a89 89 0 0 0-11.657 4.828L77 43l-4.5 2.5 3-3.5 4-4.5 3-4.5 1.592-3.183a28.6 28.6 0 0 0 2.766-9.005l.322-2.408c.212-1.597.23-3.213.052-4.814l-.051-.464a15.4 15.4 0 0 0-.698-3.178l-.082-.245a14.2 14.2 0 0 0-2.777-4.847l-.05-.057a13.7 13.7 0 0 0-3.664-2.96l-.178-.099A12.7 12.7 0 0 0 71.064.387l-.191.038A14 14 0 0 0 65.6 2.68l-.315.22A15.8 15.8 0 0 0 61.4 6.785l-.723 1.034a23 23 0 0 0-2.037 3.544l-.433.938a34.5 34.5 0 0 0-2.506 7.694L55 23.5l-.5 7v6a66 66 0 0 0-2.91-10.754l-.09-.246-2-5L47 15l-1.346-2.154a19.1 19.1 0 0 0-4.74-5.161L39.32 6.49a18.3 18.3 0 0 0-5.958-2.959l-.569-.162a15 15 0 0 0-2.633-.504l-.182-.018a14.28 14.28 0 0 0-9.99 2.785l-.447.335a13.7 13.7 0 0 0-5.067 7.632l-.336 1.344a21.4 21.4 0 0 0 .115 10.82l.108.398c.424 1.555 1.001 3.064 1.722 4.506L17 32.5a41.4 41.4 0 0 0 5.835 7.335L23 40l3.5 3.5.105.09A36.3 36.3 0 0 0 34 48.5h-3l-5 .5-3.313.765a40 40 0 0 0-6.211 1.98l-2.394.986a22.42 22.42 0 0 0-10.56 8.983l-.991 1.61a13.7 13.7 0 0 0-1.549 3.574l-.27.99a9.93 9.93 0 0 0 3.04 10.083l.216.188a10.9 10.9 0 0 0 3.445 2.037l.92.334c1.765.642 3.627.97 5.505.97h2.107a28 28 0 0 0 8.876-1.44l1.268-.423a36.3 36.3 0 0 0 6.532-2.92L40 72.5a41 41 0 0 0-5.147 7.58l-1.956 3.716a20.7 20.7 0 0 0-1.463 3.545l-.602 1.953a12 12 0 0 0-.367 5.498l.054.323a10.8 10.8 0 0 0 3.734 6.513l.274.228a14.7 14.7 0 0 0 4.387 2.522l.136.049a14.05 14.05 0 0 0 10.62-.413l1.992-.906a14.491 14.491 0 0 0 8.089-9.79"/><circle cx="55" cy="52" r="15" fill="#FFE483"/></svg>