<svg xmlns="http://www.w3.org/2000/svg" width="166" height="56" fill="none"><path fill="#fff" fill-opacity=".8" fill-rule="evenodd" d="M24.07 49.507a5.03 5.03 0 0 1-3.583-1.503 5.17 5.17 0 0 1-1.483-3.63v-.819l-2.427 3.673a5.1 5.1 0 0 1-1.824 1.673 5 5 0 0 1-2.386.606h-7.3c-.919 0-1.82-.253-2.608-.732a5.1 5.1 0 0 1-1.864-1.988 5.19 5.19 0 0 1 .267-5.277l6.224-9.378a21.7 21.7 0 0 1-3.324-3.98C1.84 25.145.892 21.76.892 17.836c0-5.035 1.768-9.712 5.565-13.06C10.171 1.5 15.252 0 21.005 0h9.808c1.343 0 2.632.54 3.582 1.503a5.17 5.17 0 0 1 1.484 3.63v5.733a5 5 0 0 1 .506-.025h6.632c.904 0 1.791.245 2.57.71a5.1 5.1 0 0 1 1.86 1.933 5.1 5.1 0 0 1 1.86-1.933 5 5 0 0 1 2.57-.71h6.632c1.522 0 2.887.68 3.817 1.758a5.03 5.03 0 0 1 3.817-1.758H85.48c1.145 0 2.256.391 3.152 1.112a5.14 5.14 0 0 1 1.785 2.858c2.93-2.941 6.9-4.535 11.558-4.535 3.795 0 7.655.975 10.69 3.755a5.1 5.1 0 0 1 1.866-2.32 5 5 0 0 1 2.825-.87h6.631c.975 0 1.929.284 2.748.82a5.1 5.1 0 0 1 1.87 2.198l.641-.896a5.1 5.1 0 0 1 1.8-1.561 5 5 0 0 1 2.303-.561h6.688c.79 0 1.57.187 2.276.546s1.32.882 1.792 1.525c2.745-1.735 6.041-2.636 9.696-2.636 3.688 0 7.135.606 9.608 2.01a5.1 5.1 0 0 1 1.895 1.883c.456.787.696 1.683.696 2.595v5.703c0 .916-.242 1.816-.701 2.605a5.1 5.1 0 0 1-1.909 1.884 5.01 5.01 0 0 1-5.141-.137 6.5 6.5 0 0 0-1.487-.62 8 8 0 0 0-2.237-.35 1.8 1.8 0 0 0-.757.113c-.04.02-.091.046-.177.165-.228.315-.742 1.378-.742 3.906 0 2.515.445 3.736.734 4.183.101.154.15.172.155.175.017.007.21.107.732.107 1.785 0 2.771-.433 3.559-.993a5.011 5.011 0 0 1 5.245-.348 5.1 5.1 0 0 1 1.992 1.891c.48.803.734 1.724.734 2.663v5.477a5.2 5.2 0 0 1-.554 2.334 5.1 5.1 0 0 1-1.541 1.824c-2.819 2.069-6.206 2.726-9.825 2.726-3.362 0-6.503-.63-9.216-2.033a5.03 5.03 0 0 1-3.546 1.468h-7.523a5 5 0 0 1-2.321-.57 5.1 5.1 0 0 1-1.805-1.586l-.899-1.278a5.13 5.13 0 0 1-1.852 2.489 5.02 5.02 0 0 1-2.931.945h-6.631c-.709 0-1.41-.15-2.058-.442a5.1 5.1 0 0 1-1.701-1.252c-2.721 1.386-6.199 2.258-10.284 2.258-3.531 0-6.91-.692-9.813-2.335v3.131a5.17 5.17 0 0 1-1.484 3.63A5.03 5.03 0 0 1 88.434 56h-6.13a5.03 5.03 0 0 1-3.582-1.503 5.17 5.17 0 0 1-1.484-3.63v-1.36H72.49v1.36a5.17 5.17 0 0 1-1.484 3.63A5.03 5.03 0 0 1 67.425 56h-6.13a5.03 5.03 0 0 1-3.582-1.503 5.17 5.17 0 0 1-1.484-3.63v-1.36h-4.352a5 5 0 0 1-2.57-.71 5.1 5.1 0 0 1-1.86-1.934 5.1 5.1 0 0 1-1.86 1.934 5 5 0 0 1-2.57.71h-6.632a5 5 0 0 1-2.786-.847 5 5 0 0 1-2.786.847zm34.439-5.133v-28.4h-6.632v11.235h-8.86V15.974h-6.632v28.4h6.632V32.517h8.86v11.857zm2.786 6.493h6.13v-6.493h14.879v6.493h6.13v-11.8H85.48V15.973H66.143V18.4c0 6.725-.418 15.353-2.568 20.198q-.104.236-.218.468h-2.062zm17.554-11.8V21.28h-7.022v.847c0 3.295-.228 7.861-.93 11.806-.344 1.935-.805 3.721-1.41 5.133zm11.512-4.748q.084.487.185.957.47 2.132 1.368 3.79.677 1.252 1.586 2.233c2.257 2.438 5.572 3.64 9.813 3.64 2.794 0 5.101-.49 6.91-1.214.842-.334 1.645-.76 2.396-1.27v-5.477q-.586.403-1.218.728-.743.39-1.52.698-1.14.454-2.328.75c-1.201.297-2.457.477-3.683.477-2.541 0-4.255-.636-5.352-1.925-.97-1.142-1.457-2.792-1.604-4.968l-.01-.165h15.994v-3.557q0-.814-.038-1.575a21.7 21.7 0 0 0-.57-4.102c-1.404-5.669-5.15-7.93-10.315-7.93-6.408 0-10.155 3.945-11.429 9.858a23.8 23.8 0 0 0-.496 4.992q.002 2.194.311 4.06m7.89-11.847c-.8 1.13-1.24 2.795-1.342 4.968l-.005.165h9.251v-.565c0-1.817-.261-3.426-.955-4.568-.666-1.094-1.728-1.756-3.336-1.756-1.591 0-2.789.596-3.612 1.756m19.105 21.902h6.631V30.428l9.808 13.946h7.523l-10.644-15.301 9.363-13.1h-6.688l-9.362 13.1v-13.1h-6.631zm24.185-8.59c.626 2.523 1.73 4.553 3.326 6.057q.601.564 1.294 1.029c2.034 1.36 4.669 2.069 7.919 2.069 2.056 0 3.713-.257 5.066-.78a7.7 7.7 0 0 0 1.788-.97v-5.477a10 10 0 0 1-3.402 1.568c-.519.13-1.071.225-1.664.284a14 14 0 0 1-1.398.067c-4.737 0-6.687-3.726-6.687-9.598 0-6.155 2.396-9.317 6.742-9.317.451 0 .902.026 1.343.077 2.067.24 3.964.976 5.066 1.674v-5.703c-1.393-.79-3.845-1.355-7.133-1.355-8.47 0-12.873 6.154-12.873 14.793 0 2.066.203 3.93.613 5.582m-127.67-4.679c-5.07-3.67-7.913-7.227-7.913-13.268 0-7.566 5.183-12.704 15.047-12.704h9.808v39.241H24.07V10.44h-3.01c-.732 0-1.418.052-2.056.147-4.18.626-6.358 3.23-6.358 6.855 0 4.742 2.006 6.944 6.13 9.767l3.399 2.316-9.808 14.849h-7.3z" clip-rule="evenodd"/><path fill="#000" d="M112.617 42.454v-5.477c-2.062 1.412-5.517 2.654-8.749 2.654-4.849 0-6.687-2.315-6.966-7.058h15.993v-3.557c0-9.88-4.291-13.607-10.922-13.607-8.08 0-11.925 6.267-11.925 14.85 0 9.88 4.792 14.68 13.262 14.68 4.236 0 7.356-1.13 9.307-2.485m41.46 2.484c3.065 0 5.239-.564 6.855-1.75v-5.477c-1.672 1.186-3.678 1.92-6.465 1.92-4.736 0-6.687-3.727-6.687-9.599 0-6.154 2.396-9.316 6.743-9.316 2.563 0 5.071.903 6.409 1.75v-5.702c-1.394-.79-3.846-1.355-7.133-1.355-8.471 0-12.873 6.154-12.873 14.793 0 9.485 4.291 14.736 13.151 14.736M51.875 15.973V27.21h-8.86V15.973h-6.632v28.4h6.631V32.518h8.86v11.857h6.632v-28.4zM88.43 39.066h-2.953V15.973H66.14v2.428c0 6.945-.446 15.922-2.787 20.665h-2.061v11.8h6.13v-6.492h14.879v6.493h6.13zm45.362 5.308h7.523l-10.644-15.301 9.362-13.1h-6.687l-9.362 13.1v-13.1h-6.632v28.4h6.632V30.429zm-31.932-23.658c3.288 0 4.291 2.767 4.291 6.324v.565h-9.25c.167-4.518 1.783-6.889 4.959-6.889m-23.015 18.35h-9.362c1.84-4.29 2.34-12.026 2.34-16.938v-.847h7.022z"/><path fill="#FC3F1D" d="M30.812 44.374H24.07V10.44h-3.01c-5.516 0-8.414 2.823-8.414 7.002 0 4.742 2.006 6.944 6.13 9.767l3.4 2.315-9.808 14.85h-7.3l8.804-13.269c-5.07-3.67-7.913-7.227-7.913-13.268 0-7.566 5.183-12.704 15.046-12.704h9.808z"/></svg>