<svg width="816" height="180" viewBox="0 0 816 180" fill="none" xmlns="http://www.w3.org/2000/svg">
<g clip-path="url(#clip0_5769_2200)">
<path fill-rule="evenodd" clip-rule="evenodd" d="M176.76 162.67C181.15 162.32 184.92 161.83 188.42 161.21C183.33 160.91 179.34 160.85 175.06 157.06C173.44 155.63 171.27 153.57 171.95 151.59C173.59 146.82 175.45 140.55 176.66 137.98C178.14 134.52 178.45 133.95 180.28 130.66C181.23 128.95 182.23 127.3 183.77 126.13C187.21 123.51 185.01 136.13 184.82 138.33C184.48 142.18 183.95 147.34 185.58 150.82C187.45 154.79 194.54 157.74 194.67 158.92C194.71 159.32 194.7 159.66 194.65 159.95C198.71 159.02 202.71 157.93 207.31 156.68C217.21 154.01 218.78 154.57 228.75 154.24C235.57 154.01 242.38 153.79 249.16 153.76C261.24 153.71 273.29 153.62 285.38 153.55C286.96 153.55 288.81 153.95 288.16 151.44C287.42 148.52 284.36 141.53 283.01 138.78C279.27 129.43 276.3 119.94 272.79 110.61C267.7 97.11 257.17 82.51 249.07 71.25C247.68 69.32 246.32 67.37 244.91 65.13C242.62 61.94 237.17 53.04 235.25 49.66C232.39 44.64 229.59 38.71 226.48 37.67C223.9 36.8 221.11 37.67 219.89 39.07C218.1 41.14 217.29 42.3 215.55 42.94C212.27 44.16 210.1 43.05 208.18 37.66C205.84 31.11 199.9 23.98 199.17 17.25C198.84 14.23 197.69 13.1 193.4 8.75C191.48 6.83 189.06 5.73 186.43 5.46C181.98 5 176.24 -2.04 171.6 0.569997C164.8 4.4 149.4 17.48 142.82 21.09C138.25 23.6 130.09 27.05 125.61 34.08C118.09 45.88 113.4 41.44 92.92 67.09C81.12 81.86 76.78 79.44 63.97 95.08C61.85 97.67 55.07 92.37 52.35 96.32C46.38 105.01 38.34 123.7 32.16 128.74C28.81 131.46 24.81 141.55 21.74 144.42C18.9 147.08 12.62 151.01 10.96 153.75C8.83005 157.29 3.82005 169.58 3.25005 171.61C2.08005 175.78 -4.41995 177.04 5.00005 177.07C8.20005 177.07 11.51 176.98 14.49 176.97C33.01 176.89 48.77 178 65.35 178.08C62.77 176.04 63.09 173.25 64.42 170.71C65.31 169.03 67.56 164.3 68.36 161.81C68.59 161.1 68.83 160.38 69.07 159.66C70.45 155.51 71.34 150.77 73.16 145.87C76.2801 137.49 80.48 128.62 82.41 121.32C83.6401 116.68 83.61 112.56 89.02 106.32C109.63 82.57 141.71 80.34 170.3 71.67C174.32 70.45 178.32 69.16 182.11 67.62C184.64 66.59 188.2 65.08 188.48 64.61C189.22 63.38 188.39 63.19 190.08 62.11C191.13 61.44 193.13 60.38 194.36 60.75C195.99 61.24 198.18 64.53 199.68 65.68C201.04 66.72 205.01 67.7 206.63 68.89C208.66 70.39 210.06 72.15 211.81 73.24L214.09 74.71C215.15 75.48 216.94 76.22 217.39 77.58C218.06 79.61 219.58 82.31 221.42 83.46C223.01 84.45 224.97 86.4 227.05 87.76C229.75 89.53 229.56 90.21 228.01 92.41C227.73 92.81 227.43 93.22 227.14 93.61C224.94 96.6 223.84 96.84 219.97 97.59C216.27 98.49 212.43 98.88 208.87 99.46C205.55 100 202.75 100.4 200.31 100.95C193.81 102.41 194.22 102.72 191.27 108.04C186.85 115.99 181.71 122.94 177.72 131.2C175.49 135.82 173.15 140.56 171.01 146.88C168.68 153.72 166.61 154.27 171.47 157.21C174.29 158.92 174.11 158.48 176.53 160.46C177.58 161.32 177.43 162.09 176.76 162.69V162.67ZM185.1 178.06C218.23 178.74 266.6 179.67 297.97 179.06C300.54 179.01 302.33 179.8 301.31 177.31C300.54 175.44 297.46 170.65 295.99 168.24C294.62 165.99 293.7 163.25 292.38 161.34C291.33 159.82 290.64 158.54 288.85 158.14C287.94 157.93 285.81 158.92 284.77 159.11C281.54 159.7 280.77 161.09 277.17 162.29C268.59 165.14 254.14 166.14 248.73 166.54C226.04 168.25 205.95 169.3 183.94 174.32C170.91 177.29 171.4 177.77 185.1 178.06ZM91.58 177.12C92.65 177.03 93.73 176.93 94.82 176.83C99.07 176.42 101.98 176.59 104.86 176.7C104.65 175.99 104.71 174.97 104.32 173.61C103.89 172.11 102.48 168.9 102.22 167.48C101.56 163.78 101.63 159.38 98.7 161.96C97.94 162.62 97.14 163.41 96.45 164.11C94.41 166.18 90.88 168.62 87.93 170.52C83.49 173.39 85.19 172.57 90.01 174.3C91.46 174.82 92.41 176.22 91.59 177.11L91.58 177.12ZM130.78 171.77C143.71 166.67 135.35 163.45 156.09 163.33C150.39 160.34 149.38 147.43 148.54 142.22C148.06 139.22 147.85 137.99 145.48 139.41C142.02 141.48 138.11 144.56 133.87 146.64C130.96 148.07 127.63 148.35 125.29 150.21C124.13 151.13 123.8 152.69 123.83 154.08C123.86 155.7 123.83 157.92 123.72 159.52C123.55 162.17 122.17 164.39 122.57 166.28C122.81 167.44 123.84 168.25 125.04 168.86C126.04 169.36 130.68 169.7 130.79 171.79L130.78 171.77Z" fill="url(#paint0_linear_5769_2200)"/>
<path d="M354.41 87.7C354.41 97.82 349.89 101.08 342.48 101.08H336.51V119.16H341.39C350.43 119.16 354.41 123.5 354.41 135.25V145.2C354.41 156.41 350.43 159.48 344.1 159.48C337.77 159.48 333.79 156.04 333.79 147V131.81H314.99V145.73C314.99 165.98 325.11 177.55 344.64 177.55C364.17 177.55 374.29 165.98 374.29 145.73V135.78C374.29 122.94 370.31 113.54 360.37 109.2C369.95 105.22 374.29 96.73 374.29 83.16V79.91C374.29 59.66 364.17 48.09 344.64 48.09C325.11 48.09 315.35 59.3 315.35 79.55V88.95H333.61V78.64C333.61 69.6 337.77 66.17 344.1 66.17C350.43 66.17 354.41 69.25 354.41 80.64V87.69V87.7ZM405.94 78.66C405.94 69.62 409.92 66.19 416.25 66.19C422.58 66.19 426.56 69.63 426.56 78.66V147.01C426.56 156.05 422.58 159.49 416.25 159.49C409.92 159.49 405.94 156.05 405.94 147.01V78.65V78.66ZM386.05 145.74C386.05 165.99 396.72 177.56 416.24 177.56C435.76 177.56 446.43 165.99 446.43 145.74V79.92C446.43 59.67 435.76 48.1 416.24 48.1C396.72 48.1 386.05 59.67 386.05 79.92V145.73V145.74ZM477.54 78.66C477.54 69.62 481.52 66.19 487.85 66.19C494.18 66.19 498.16 69.63 498.16 78.66V147.01C498.16 156.05 494.18 159.49 487.85 159.49C481.52 159.49 477.54 156.05 477.54 147.01V78.65V78.66ZM457.65 145.74C457.65 165.99 468.32 177.56 487.84 177.56C507.36 177.56 518.03 165.99 518.03 145.74V79.92C518.03 59.67 507.36 48.1 487.84 48.1C468.32 48.1 457.65 59.67 457.65 79.92V145.73V145.74ZM550.76 67.63H573.36V176.11H593.61V49.55H530.87V176.11H550.76V67.63ZM652.19 49.55H623.08L602.83 176.11H618.36L626.91 147.47L621.61 148.23L632.03 118.84L627.1 119.43L637.63 73.68L648.16 119.43L643.23 118.84L653.65 148.23L648.35 147.47L656.9 176.11H672.44L652.19 49.55ZM710.95 49.55H681.66V176.11H701.55V128.56H710.95C730.84 128.56 740.6 117.53 740.6 97.28V80.83C740.6 60.58 730.84 49.55 710.95 49.55ZM710.95 67.63C717.28 67.63 720.71 70.52 720.71 79.56V98.54C720.71 107.58 717.27 110.47 710.95 110.47H701.55V67.62H710.95V67.63ZM795.2 176.11H815.63L787.97 105.96L815.63 49.55H795.74L769.7 104.7V49.55H749.81V176.11H769.7V137.24L775.85 125.67L795.2 176.11Z" fill="url(#paint1_linear_5769_2200)"/>
<path d="M336.51 104.75V119.16H341.39C350.43 119.16 354.41 123.5 354.41 135.25V145.2C354.41 156.41 350.43 159.48 344.1 159.48C337.77 159.48 333.79 156.04 333.79 147V131.81H314.99V145.73C314.99 165.98 325.11 177.55 344.64 177.55C364.17 177.55 374.29 165.98 374.29 145.73V135.78C374.29 122.99 370.34 113.61 360.48 109.25C352.32 107.83 344.34 106.32 336.51 104.74V104.75ZM787.98 105.97C775.65 108.37 762.92 110.58 749.83 112.58V176.11H769.72V137.24L775.87 125.67L795.21 176.11H815.64L787.98 105.97ZM737.33 114.4C719.37 116.92 700.79 119.06 681.67 120.79V176.11H701.56V128.56H710.96C724.21 128.56 732.96 123.66 737.33 114.41V114.4ZM663.83 122.26C657.58 122.73 651.26 123.15 644.91 123.54L653.66 148.22L648.36 147.46L656.91 176.1H672.45L663.84 122.26H663.83ZM630.08 124.35C623.76 124.66 617.39 124.92 610.99 125.14L602.84 176.11H618.37L626.92 147.47L621.62 148.23L630.08 124.36V124.35ZM593.61 125.61C586.9 125.75 580.15 125.84 573.36 125.88V176.1H593.61V125.61ZM550.76 125.83C544.09 125.76 537.46 125.65 530.87 125.48V176.11H550.76V125.83ZM518.03 125.08C511.36 124.84 504.72 124.57 498.14 124.23V146.99C498.14 156.03 494.16 159.47 487.83 159.47C481.5 159.47 477.52 156.03 477.52 146.99V123.02C470.83 122.57 464.2 122.08 457.63 121.53V145.72C457.63 165.97 468.3 177.54 487.82 177.54C507.34 177.54 518.01 165.97 518.01 145.72V125.07L518.03 125.08ZM446.43 120.56C439.73 119.94 433.1 119.27 426.54 118.56V147C426.54 156.04 422.56 159.48 416.23 159.48C409.9 159.48 405.92 156.04 405.92 147V116.11C399.21 115.25 392.58 114.33 386.03 113.37V145.74C386.03 165.99 396.7 177.56 416.22 177.56C435.74 177.56 446.41 165.99 446.41 145.74V120.57L446.43 120.56Z" fill="url(#paint2_linear_5769_2200)"/>
<path d="M356.91 33.4V8.83H352.15V20.05C351.15 20.26 348.97 20.57 347.49 20.57C345.76 20.57 344.42 19.78 344.42 17.64V8.83H339.62V18.87C339.62 22.94 342.76 24.84 345.9 24.84C348.52 24.84 350.87 24.39 352.15 24.18V33.39H356.91V33.4ZM399.29 33.4V29.12H387.9V23.15H397.6V18.87H387.9V13.11H399.29V8.83H383.1V33.4H399.29ZM442.32 33.4V8.83H427.03V19.98C427.03 27.68 425.27 29.13 422.82 29.13H422.13V33.41H424.03C429.14 33.41 431.66 30.58 431.66 20.26V13.12H437.53V33.41H442.33L442.32 33.4ZM476.48 24.15H480.41V33.4H485.21V8.83H475.68C470.95 8.83 467.6 11.8 467.6 16.49C467.6 19.6 469.22 22.01 471.81 23.19L466.74 33.41H472.43L476.47 24.16L476.48 24.15ZM480.41 19.9H475.92C473.78 19.9 472.37 18.42 472.37 16.41C472.37 14.4 473.78 13.03 475.92 13.03H480.41V19.9ZM529.17 25.73C529.17 21.24 526.13 18.07 521.2 18.07H516.16V13.1H527.62V8.82H511.37V33.39H521.21C526.18 33.39 529.18 30.21 529.18 25.73H529.17ZM524.37 25.73C524.37 27.77 523.09 29.11 520.95 29.11H516.15V22.35H520.95C523.09 22.35 524.37 23.73 524.37 25.73ZM572.99 33.39V8.83H568.71L559.15 24.57V8.83H554.35V33.4H558.63L568.19 17.63V33.4H572.99V33.39ZM617.06 33.39V8.83H612.26V18.87H603.94V8.83H599.14V33.4H603.94V23.12H612.26V33.4H617.06V33.39ZM660.47 25.83H655.6C655.12 27.8 653.87 29.32 651.46 29.32C650.15 29.32 649.08 28.84 648.39 28.04C647.46 27 647.18 25.83 647.18 21.1C647.18 16.37 647.46 15.2 648.39 14.16C649.08 13.37 650.15 12.88 651.46 12.88C653.88 12.88 655.12 14.4 655.6 16.37H660.47C659.61 11.23 656.02 8.6 651.43 8.6C648.74 8.6 646.53 9.57 644.8 11.29C642.32 13.77 642.38 16.85 642.38 21.09C642.38 25.33 642.31 28.41 644.8 30.89C646.53 32.62 648.73 33.58 651.43 33.58C655.99 33.58 659.61 30.96 660.47 25.81V25.83ZM689.91 33.39V20.55L698.54 33.39H704.41L695.33 20.35L703.58 8.82H697.85L689.91 20.48V8.83H685.11V33.4H689.91V33.39ZM746.2 33.39V8.83H741.92L732.36 24.57V8.83H727.56V33.4H731.84L741.4 17.63V33.4H746.2V33.39ZM787.3 2.57H783.92C783.82 4.09 782.95 4.71 781.71 4.71C780.47 4.71 779.6 4.09 779.5 2.57H776.12C776.26 6.3 778.98 7.5 781.71 7.5C784.44 7.5 787.16 6.29 787.3 2.57ZM790.99 33.39V8.83H786.71L777.15 24.57V8.83H772.35V33.4H776.63L786.19 17.63V33.4H790.99V33.39Z" fill="url(#paint3_linear_5769_2200)"/>
</g>
<defs>
<linearGradient id="paint0_linear_5769_2200" x1="131.691" y1="132.509" x2="77.8717" y2="13.3176" gradientUnits="userSpaceOnUse">
<stop stop-color="#0D8144"/>
<stop offset="1" stop-color="#B0CB21"/>
</linearGradient>
<linearGradient id="paint1_linear_5769_2200" x1="553.999" y1="100.075" x2="563.476" y2="-13.2208" gradientUnits="userSpaceOnUse">
<stop stop-color="#0D8144"/>
<stop offset="1" stop-color="#B0CB21"/>
</linearGradient>
<linearGradient id="paint2_linear_5769_2200" x1="551.877" y1="41.8559" x2="551.879" y2="144.335" gradientUnits="userSpaceOnUse">
<stop stop-color="#1C1B18"/>
<stop offset="1" stop-color="#108244"/>
</linearGradient>
<linearGradient id="paint3_linear_5769_2200" x1="551.878" y1="58.9891" x2="551.879" y2="13.3246" gradientUnits="userSpaceOnUse">
<stop stop-color="#1C1B18"/>
<stop offset="1" stop-color="#108244"/>
</linearGradient>
<clipPath id="clip0_5769_2200">
<rect width="815.64" height="179.25" fill="white"/>
</clipPath>
</defs>
</svg>
