<svg width="302" height="180" viewBox="0 0 302 180" fill="none" xmlns="http://www.w3.org/2000/svg">
<path fill-rule="evenodd" clip-rule="evenodd" d="M176.76 162.67C181.15 162.32 184.92 161.83 188.42 161.21C183.33 160.91 179.34 160.85 175.06 157.06C173.44 155.63 171.27 153.57 171.95 151.59C173.59 146.82 175.45 140.55 176.66 137.98C178.14 134.52 178.45 133.95 180.28 130.66C181.23 128.95 182.23 127.3 183.77 126.13C187.21 123.51 185.01 136.13 184.82 138.33C184.48 142.18 183.95 147.34 185.58 150.82C187.45 154.79 194.54 157.74 194.67 158.92C194.71 159.32 194.7 159.66 194.65 159.95C198.71 159.02 202.71 157.93 207.31 156.68C217.21 154.01 218.78 154.57 228.75 154.24C235.57 154.01 242.38 153.79 249.16 153.76C261.24 153.71 273.29 153.62 285.38 153.55C286.96 153.55 288.81 153.95 288.16 151.44C287.42 148.52 284.36 141.53 283.01 138.78C279.27 129.43 276.3 119.94 272.79 110.61C267.7 97.11 257.17 82.51 249.07 71.25C247.68 69.32 246.32 67.37 244.91 65.13C242.62 61.94 237.17 53.04 235.25 49.66C232.39 44.64 229.59 38.71 226.48 37.67C223.9 36.8 221.11 37.67 219.89 39.07C218.1 41.14 217.29 42.3 215.55 42.94C212.27 44.16 210.1 43.05 208.18 37.66C205.84 31.11 199.9 23.98 199.17 17.25C198.84 14.23 197.69 13.1 193.4 8.75C191.48 6.83 189.06 5.73 186.43 5.46C181.98 5 176.24 -2.04 171.6 0.569997C164.8 4.4 149.4 17.48 142.82 21.09C138.25 23.6 130.09 27.05 125.61 34.08C118.09 45.88 113.4 41.44 92.92 67.09C81.12 81.86 76.78 79.44 63.97 95.08C61.85 97.67 55.07 92.37 52.35 96.32C46.38 105.01 38.34 123.7 32.16 128.74C28.81 131.46 24.81 141.55 21.74 144.42C18.9 147.08 12.62 151.01 10.96 153.75C8.83005 157.29 3.82005 169.58 3.25005 171.61C2.08005 175.78 -4.41995 177.04 5.00005 177.07C8.20005 177.07 11.51 176.98 14.49 176.97C33.01 176.89 48.77 178 65.35 178.08C62.77 176.04 63.09 173.25 64.42 170.71C65.31 169.03 67.56 164.3 68.36 161.81C68.59 161.1 68.83 160.38 69.07 159.66C70.45 155.51 71.34 150.77 73.16 145.87C76.2801 137.49 80.48 128.62 82.41 121.32C83.6401 116.68 83.61 112.56 89.02 106.32C109.63 82.57 141.71 80.34 170.3 71.67C174.32 70.45 178.32 69.16 182.11 67.62C184.64 66.59 188.2 65.08 188.48 64.61C189.22 63.38 188.39 63.19 190.08 62.11C191.13 61.44 193.13 60.38 194.36 60.75C195.99 61.24 198.18 64.53 199.68 65.68C201.04 66.72 205.01 67.7 206.63 68.89C208.66 70.39 210.06 72.15 211.81 73.24L214.09 74.71C215.15 75.48 216.94 76.22 217.39 77.58C218.06 79.61 219.58 82.31 221.42 83.46C223.01 84.45 224.97 86.4 227.05 87.76C229.75 89.53 229.56 90.21 228.01 92.41C227.73 92.81 227.43 93.22 227.14 93.61C224.94 96.6 223.84 96.84 219.97 97.59C216.27 98.49 212.43 98.88 208.87 99.46C205.55 100 202.75 100.4 200.31 100.95C193.81 102.41 194.22 102.72 191.27 108.04C186.85 115.99 181.71 122.94 177.72 131.2C175.49 135.82 173.15 140.56 171.01 146.88C168.68 153.72 166.61 154.27 171.47 157.21C174.29 158.92 174.11 158.48 176.53 160.46C177.58 161.32 177.43 162.09 176.76 162.69V162.67ZM185.1 178.06C218.23 178.74 266.6 179.67 297.97 179.06C300.54 179.01 302.33 179.8 301.31 177.31C300.54 175.44 297.46 170.65 295.99 168.24C294.62 165.99 293.7 163.25 292.38 161.34C291.33 159.82 290.64 158.54 288.85 158.14C287.94 157.93 285.81 158.92 284.77 159.11C281.54 159.7 280.77 161.09 277.17 162.29C268.59 165.14 254.14 166.14 248.73 166.54C226.04 168.25 205.95 169.3 183.94 174.32C170.91 177.29 171.4 177.77 185.1 178.06ZM91.58 177.12C92.65 177.03 93.73 176.93 94.82 176.83C99.07 176.42 101.98 176.59 104.86 176.7C104.65 175.99 104.71 174.97 104.32 173.61C103.89 172.11 102.48 168.9 102.22 167.48C101.56 163.78 101.63 159.38 98.7 161.96C97.94 162.62 97.14 163.41 96.45 164.11C94.41 166.18 90.88 168.62 87.93 170.52C83.49 173.39 85.19 172.57 90.01 174.3C91.46 174.82 92.41 176.22 91.59 177.11L91.58 177.12ZM130.78 171.77C143.71 166.67 135.35 163.45 156.09 163.33C150.39 160.34 149.38 147.43 148.54 142.22C148.06 139.22 147.85 137.99 145.48 139.41C142.02 141.48 138.11 144.56 133.87 146.64C130.96 148.07 127.63 148.35 125.29 150.21C124.13 151.13 123.8 152.69 123.83 154.08C123.86 155.7 123.83 157.92 123.72 159.52C123.55 162.17 122.17 164.39 122.57 166.28C122.81 167.44 123.84 168.25 125.04 168.86C126.04 169.36 130.68 169.7 130.79 171.79L130.78 171.77Z" fill="url(#paint0_linear_5769_2203)"/>
<defs>
<linearGradient id="paint0_linear_5769_2203" x1="131.691" y1="132.509" x2="77.8717" y2="13.3176" gradientUnits="userSpaceOnUse">
<stop stop-color="#0D8144"/>
<stop offset="1" stop-color="#B0CB21"/>
</linearGradient>
</defs>
</svg>
