<svg width="592" height="574" viewBox="0 0 592 574" fill="none" xmlns="http://www.w3.org/2000/svg">
<path d="M41.6506 435.624L41.6117 435.718L41.5826 435.816L2.46378 567.647C1.89318 569.57 3.33398 571.5 5.33983 571.5H416.448C418.165 571.5 419.531 570.063 419.445 568.349L417.004 519.917L419.139 493.866C419.145 493.8 419.163 493.768 419.179 493.748C419.198 493.722 419.232 493.693 419.28 493.674C419.327 493.654 419.371 493.65 419.404 493.655C419.429 493.658 419.465 493.668 419.515 493.71C422.099 495.896 426.076 494.313 426.45 490.949L433.488 427.606L433.5 427.496V427.385V252.04C433.5 251.484 433.45 250.93 433.351 250.383L430.532 234.882C432.741 236.57 436.04 235.417 436.646 232.618L441.856 208.57C442.302 206.514 442.382 204.396 442.094 202.312L438.301 174.924C438.117 173.593 438.138 172.242 438.363 170.918L441.866 150.289C441.895 150.117 442.096 150.036 442.237 150.139C445.338 152.414 449.622 149.71 448.902 145.931L446.715 134.453C449.233 135.383 451.971 133.409 451.777 130.638L450.116 106.967C450.09 106.596 450.26 106.238 450.564 106.024L461.336 98.4195C470.218 92.15 475.5 81.9562 475.5 71.0846C475.5 47.3471 451.469 31.1587 429.47 40.077L420.547 43.6947C419.008 44.3186 417.271 44.2259 415.807 43.4418L404.981 37.642L392.515 30.2823C373.139 18.8434 351.771 11.1779 329.543 7.69099C300.83 3.18705 271.451 5.77498 243.968 15.2292L227.458 20.9086C225.124 21.7114 222.552 21.4038 220.473 20.0734L209.235 12.8809C195.456 4.06259 177.432 5.81958 165.616 17.1329C162.464 20.1505 159.897 23.7241 158.043 27.6741L155.487 33.1183C151.263 42.1177 151.699 52.6128 156.654 61.2313C159.529 66.2308 163.765 70.311 168.868 72.9969L177.081 77.3193C177.861 77.7301 178.103 78.7336 177.594 79.4545L163.283 99.7571C160.282 104.014 163.327 109.885 168.535 109.885C170.494 109.885 171.645 112.087 170.527 113.695L154.858 136.244L154.856 136.247C151.783 140.686 149.196 145.442 147.141 150.434L146.651 151.624L146.649 151.628L142.149 162.628L142.099 162.749L142.066 162.876L140.822 167.603C139.853 171.284 142.63 174.885 146.436 174.885C147.874 174.885 148.734 176.483 147.944 177.684L125.13 212.311C124.193 213.734 123.399 215.245 122.759 216.824L95.3787 284.361C94.3516 286.895 96.4858 289.268 98.8244 289.072L79.7773 321.369L79.7472 321.42L79.7201 321.473L59.2201 361.473L59.1776 361.556L59.143 361.642L49.143 386.642L49.0994 386.752L49.0688 386.865L45.5688 399.865L45.5401 399.972L45.5233 400.081L44.1026 409.315C43.6102 412.516 46.6129 415.143 49.7198 414.229C50.0589 414.129 50.3625 414.466 50.228 414.793L41.6506 435.624Z" fill="white" stroke="url(#paint0_linear_6749_753)" stroke-width="4"/>
<path d="M305 151.885V151.885C308.799 154.735 313.673 155.737 318.289 154.618L327.5 152.385" stroke="black" stroke-width="4" stroke-linecap="round"/>
<path d="M332.018 113.643L333.26 110.912L332.018 113.643L332.236 113.742C334.559 114.799 337.052 115.432 339.598 115.614L341.394 115.743C342.322 115.809 343.252 115.823 344.18 115.787C343.878 116.203 343.62 116.656 343.413 117.139L342.743 118.703L342.693 118.818L342.654 118.937L341.654 121.937L341.633 121.998L341.615 122.061L339.668 128.878L338.175 132.361C337.356 134.272 336.228 136.036 334.837 137.581L337.067 139.588L334.837 137.581L334.762 137.665C334.762 137.665 334.762 137.665 334.762 137.665C333.628 138.925 332.323 140.021 330.885 140.92C330.042 141.446 329.158 141.903 328.241 142.285L327.658 142.528C325.392 143.472 323.004 144.089 320.564 144.36L319.668 144.459C317.237 144.729 314.783 144.721 312.354 144.436L310.899 144.264C309.114 144.054 307.362 143.629 305.68 142.999L302.766 141.906C301.709 141.51 300.749 140.891 299.95 140.093L297.829 142.214L299.95 140.093C299.551 139.693 299.195 139.252 298.89 138.777L297.874 137.196C296.189 134.575 295 131.667 294.368 128.616L293.829 126.013C293.61 124.958 293.5 123.883 293.5 122.805C293.5 120.562 293.154 118.331 292.473 116.193L290.256 109.225C290.306 109.239 290.356 109.252 290.405 109.266L292.662 109.978C294.478 110.551 296.348 110.935 298.243 111.124C300.076 111.308 301.924 111.308 303.757 111.124L304.264 111.074C305.808 110.919 307.334 110.617 308.821 110.171L310.083 109.793C311.547 109.353 312.938 108.699 314.21 107.851L314.933 107.369C316.857 106.086 318.384 104.291 319.34 102.186L319.558 101.707C320.094 100.528 320.412 99.2726 320.507 97.9999C320.536 98.6792 320.66 99.3516 320.875 99.9976L321.681 102.416C322.058 103.546 322.546 104.637 323.137 105.672C324.136 107.419 325.418 108.988 326.933 110.313L327.157 110.509C328.615 111.785 330.253 112.841 332.018 113.643ZM319.556 92.0757C318.877 89.532 316.849 87.5784 314.296 86.9882L310.233 85.6341C308.521 85.0632 306.938 84.0805 305.653 82.7956C304.342 81.4846 303.353 79.8587 302.804 78.1009L302.424 76.8847L299.561 77.7795L302.424 76.8847C301.93 75.3038 301.964 73.6051 302.521 72.0453C303.126 70.353 304.308 68.9286 305.86 68.0231L305.958 67.9662L304.446 65.3749L305.958 67.9662C307.171 67.2583 308.551 66.8853 309.956 66.8853H310.344C311.176 66.8853 312.005 66.9963 312.808 67.2153L316.711 68.2795L316.741 68.2879L316.772 68.2957L319.342 68.9382C321.946 69.5891 324.65 69.736 327.308 69.3714L332.816 69.0042C333.703 68.945 334.594 69.0456 335.446 69.3012L336.005 69.469L336.864 66.6066L336.005 69.469C337.121 69.8036 338.104 70.4773 338.819 71.3965C339.584 72.3804 340 73.5913 340 74.8377V75.0187C340 76.061 339.734 77.086 339.228 77.997L341.851 79.454L339.228 77.997L338.755 78.8495C338.308 79.6533 337.752 80.3909 337.101 81.0411L335.115 83.0272C333.974 84.1688 332.582 85.029 331.05 85.5395L329.793 85.9587C325.94 87.2429 322.864 90.1828 321.406 93.9731L320.987 95.0613C320.751 95.676 320.599 96.3189 320.535 96.9723C320.518 96.1001 320.396 95.2275 320.168 94.3732L319.556 92.0757Z" fill="black" stroke="black" stroke-width="6"/>
<path d="M176.5 50.8853L175.162 46.8718C175.054 46.5481 174.976 46.2153 174.927 45.8775L174.597 43.5656C174.282 41.3592 175.994 39.3853 178.223 39.3853V39.3853C178.735 39.3853 179.242 39.4928 179.71 39.7009L183.392 41.3374C183.464 41.3692 183.533 41.4071 183.598 41.4506V41.4506C184.641 42.146 185.998 41.2083 185.716 39.9869L185.065 37.1665C185.022 36.9796 185 36.7884 185 36.5966V36.2711C185 34.4682 185.901 32.7845 187.401 31.7845L187.874 31.4692C188.934 30.7624 190.18 30.3853 191.454 30.3853H192.709C194.852 30.3853 196.946 31.0354 198.712 32.2499L204 35.8853" stroke="black" stroke-width="4" stroke-linecap="round"/>
<path d="M426.5 82.8853L431.017 79.6591C432.586 78.5383 434.58 78.1939 436.434 78.7236L436.854 78.8436C436.951 78.8713 437.045 78.9079 437.136 78.953L437.468 79.1191C438.522 79.646 439.728 78.7548 439.535 77.5926V77.5926C439.512 77.4551 439.509 77.315 439.526 77.1767L439.585 76.7042C439.834 74.7168 441.312 73.1041 443.271 72.6844L443.5 72.6353L443.976 72.5332C445.966 72.1069 448.026 72.1418 450 72.6353V72.6353L453 73.3853" stroke="black" stroke-width="4" stroke-linecap="round"/>
<ellipse cx="362.917" cy="58.3744" rx="7" ry="9.5" transform="rotate(9.11704 362.917 58.3744)" fill="black"/>
<ellipse cx="276.194" cy="50.1371" rx="7" ry="9.5" transform="rotate(21.5773 276.194 50.1371)" fill="black"/>
<g opacity="0.1" filter="url(#filter0_f_6749_753)">
<ellipse cx="375" cy="86.8853" rx="14.5" ry="7" fill="#FF00BB"/>
</g>
<g opacity="0.1" filter="url(#filter1_f_6749_753)">
<ellipse cx="261.113" cy="80.2905" rx="14.306" ry="6.88806" transform="rotate(15.2346 261.113 80.2905)" fill="#FF00BB"/>
</g>
<path d="M393 277.885L388 285.885L320.5 439.385L407 444.885L415 433.885L432 419.385L471.5 391.385L496 373.885L517 355.385L529 339.385L536.5 324.385L537 331.885L540 329.385L549.5 311.385L555.5 298.385L563 278.885L568 264.385L575.5 259.385L576 256.385L569 255.885L576.5 246.885L581 237.885L583.5 225.385V213.885L587 205.385L583 209.385V207.385L581 200.885V197.385L585 195.385V191.885L583 187.385L579.5 188.885L580 187.385L581 180.885L582 174.885L581 169.885L578 163.385L575.5 158.385L571.5 153.885L567 152.885L561 156.885L562 153.885L563.5 147.885L562 143.385L557.5 138.385H550.5L545 140.885L545.5 136.885L544 131.885L540 126.885L533 125.885L525.5 128.885L520 136.385L520.5 129.885L517 125.385L509.5 126.885L502 138.385V134.885L499.5 131.885H493.5L480.5 141.385L472.5 159.385L467.5 157.885L470.5 179.885L465 185.385L470.5 183.885L461 202.385L468.5 200.385L467.5 202.385L459 216.385L449 232.385L444 241.385L416 266.385L413.5 261.885L395.5 281.385L393 277.885Z" fill="white"/>
<path d="M386.304 284.825C385.719 285.762 386.003 286.996 386.94 287.581C387.877 288.167 389.111 287.882 389.696 286.945L386.304 284.825ZM449 232.385L447.304 231.325L447.277 231.369L447.252 231.414L449 232.385ZM459 216.385L460.696 217.445L460.703 217.434L460.71 217.423L459 216.385ZM578 163.385L579.816 162.547L579.803 162.519L579.789 162.491L578 163.385ZM581 180.885L579.027 180.556L579.025 180.569L579.023 180.581L581 180.885ZM563 278.885L564.867 279.603L564.879 279.57L564.891 279.537L563 278.885ZM555.5 298.385L557.316 299.223L557.343 299.164L557.367 299.103L555.5 298.385ZM549.5 311.385L551.269 312.319L551.294 312.272L551.316 312.223L549.5 311.385ZM496 373.885L497.162 375.513L497.245 375.453L497.322 375.386L496 373.885ZM471.5 391.385L472.657 393.017L472.662 393.013L471.5 391.385ZM432 419.385L430.843 417.754L430.77 417.805L430.702 417.864L432 419.385ZM404.005 274.702C404.733 273.871 404.648 272.607 403.817 271.88C402.986 271.153 401.722 271.237 400.995 272.068L404.005 274.702ZM406.427 267.65C405.745 268.518 405.896 269.775 406.764 270.458C407.633 271.14 408.89 270.989 409.573 270.121L406.427 267.65ZM484.289 136.907L485.816 138.199L484.289 136.907ZM488.325 133.617L487.367 131.861L488.325 133.617ZM523.396 346.857L521.796 345.657L523.396 346.857ZM509.001 362.432L507.679 360.931L509.001 362.432ZM529.179 339.027L530.968 339.921L529.179 339.027ZM528.76 339.706L527.16 338.506L528.76 339.706ZM540.167 329.069L541.936 330.003L540.167 329.069ZM539.725 329.614L538.445 328.078L539.725 329.614ZM571.283 262.196L572.393 263.86L571.283 262.196ZM566.714 268.116L568.604 268.768L566.714 268.116ZM574.784 259.862L575.894 261.527L574.784 259.862ZM573.824 256.23L573.682 258.225L573.824 256.23ZM571.874 252.436L573.411 253.717L571.874 252.436ZM573.478 256.205L573.336 258.2L573.478 256.205ZM576.794 246.297L578.583 247.191L576.794 246.297ZM576.079 247.391L577.615 248.671L576.079 247.391ZM582.057 232.599L584.018 232.992L582.057 232.599ZM578.589 242.707L580.378 243.601L578.589 242.707ZM582.925 228.26L580.964 227.868L582.925 228.26ZM589.195 204.62L587.975 203.035L589.195 204.62ZM589.294 204.711L587.603 203.643L589.294 204.711ZM583.867 193.324L582.119 192.352L583.867 193.324ZM580.939 188.406L581.571 190.303L580.939 188.406ZM580.01 187.322L581.987 187.626L580.01 187.322ZM581.49 177.944L579.517 177.616L581.49 177.944ZM580.163 168.072L578.347 168.91L580.163 168.072ZM574.696 157.481L576.191 156.152L574.696 157.481ZM576.041 159.467L574.252 160.362L576.041 159.467ZM573.577 156.222L572.082 157.55L573.577 156.222ZM567.009 154.609L566.181 152.788L567.009 154.609ZM564.531 155.735L565.358 157.556L564.531 155.735ZM562.053 153.671L563.994 154.157L562.053 153.671ZM562.83 150.567L564.77 151.052L562.83 150.567ZM560.676 141.914L562.163 140.576L560.676 141.914ZM549.906 138.655L550.733 140.476L549.906 138.655ZM548.283 139.393L547.455 137.572L548.283 139.393ZM545.378 136.478L547.293 135.903L545.378 136.478ZM542.685 130.241L541.123 131.491L542.685 130.241ZM544.605 133.902L542.689 134.477L544.605 133.902ZM542.542 130.063L544.104 128.813L542.542 130.063ZM520.021 129.269L521.6 128.041L520.021 129.269ZM513.561 126.073L513.169 124.112L513.561 126.073ZM519.153 128.154L517.574 129.381L519.153 128.154ZM507.968 129.235L506.293 128.142L507.968 129.235ZM512.25 126.335L511.858 124.374L512.25 126.335ZM504.09 135.181L502.414 134.089L504.09 135.181ZM499.868 134.727L498.332 136.008L499.868 134.727ZM499.604 134.411L498.068 135.691L499.604 134.411ZM489.643 132.898L490.601 134.654L489.643 132.898ZM482.277 139.285L483.804 140.577L482.277 139.285ZM461.058 202.37L461.573 204.302L461.058 202.37ZM461.027 202.332L462.807 203.245L461.027 202.332ZM466.339 200.961L466.855 202.894L466.339 200.961ZM584.523 208.214L583.304 206.628L584.523 208.214ZM419.805 262.988L418.473 261.496L419.805 262.988ZM467.509 157.955L465.528 158.225L467.509 157.955ZM530.267 127.127L529.439 125.307L530.267 127.127ZM413.471 261.922L415.043 263.158L413.471 261.922ZM469.507 172.604L471.489 172.333L469.507 172.604ZM527.012 128.906L528.471 130.274L527.012 128.906ZM528.15 128.09L528.978 129.911L528.15 128.09ZM398.307 278.178L399.812 279.495L398.307 278.178ZM465.051 185.334L463.637 183.92L465.051 185.334ZM523.925 132.199L522.466 130.831L523.925 132.199ZM583.3 194.344L585.049 195.316L583.3 194.344ZM392.979 277.918L394.675 278.978L392.979 277.918ZM389.696 286.945L394.675 278.978L391.283 276.858L386.304 284.825L389.696 286.945ZM421.137 264.48L441.999 245.853L439.334 242.87L418.473 261.496L421.137 264.48ZM447.919 238.45L450.748 233.357L447.252 231.414L444.422 236.507L447.919 238.45ZM450.696 233.445L460.696 217.445L457.304 215.325L447.304 231.325L450.696 233.445ZM460.71 217.423L469.21 203.423L465.79 201.347L457.29 215.347L460.71 217.423ZM465.824 199.029L460.543 200.437L461.573 204.302L466.855 202.894L465.824 199.029ZM462.807 203.245L469.708 189.806L466.149 187.979L459.248 201.418L462.807 203.245ZM466.465 186.749L466.718 186.496L463.889 183.668L463.637 183.92L466.465 186.749ZM471.489 172.333L469.491 157.684L465.528 158.225L467.525 172.874L471.489 172.333ZM476.419 155.491L481.21 144.712L477.555 143.087L472.764 153.867L476.419 155.491ZM493.615 133.885H494.213V129.885H493.615V133.885ZM498.068 135.691L498.332 136.008L501.405 133.447L501.141 133.13L498.068 135.691ZM505.765 136.274L509.643 130.327L506.293 128.142L502.414 134.089L505.765 136.274ZM512.643 128.296L513.953 128.034L513.169 124.112L511.858 124.374L512.643 128.296ZM517.574 129.381L518.442 130.497L521.6 128.041L520.732 126.926L517.574 129.381ZM525.384 133.566L528.471 130.274L525.553 127.538L522.466 130.831L525.384 133.566ZM528.978 129.911L531.095 128.948L529.439 125.307L527.322 126.269L528.978 129.911ZM540.98 131.312L541.123 131.491L544.246 128.992L544.104 128.813L540.98 131.312ZM542.689 134.477L543.462 137.053L547.293 135.903L546.521 133.327L542.689 134.477ZM549.11 141.214L550.733 140.476L549.078 136.835L547.455 137.572L549.11 141.214ZM551.153 140.385H552.918V136.385H551.153V140.385ZM559.079 143.129L559.189 143.252L562.163 140.576L562.052 140.453L559.079 143.129ZM560.889 150.082L560.113 153.186L563.994 154.157L564.77 151.052L560.889 150.082ZM565.358 157.556L567.836 156.429L566.181 152.788L563.703 153.914L565.358 157.556ZM568.283 156.303L568.646 156.258L568.15 152.288L567.787 152.334L568.283 156.303ZM572.082 157.55L573.202 158.81L576.191 156.152L575.072 154.893L572.082 157.55ZM574.252 160.362L576.211 164.28L579.789 162.491L577.83 158.573L574.252 160.362ZM576.184 164.223L578.347 168.91L581.979 167.233L579.816 162.547L576.184 164.223ZM579.517 177.616L579.027 180.556L582.973 181.214L583.463 178.273L579.517 177.616ZM579.023 180.581L578.033 187.018L581.987 187.626L582.977 181.189L579.023 180.581ZM581.571 190.303L586.101 188.793L584.836 184.999L580.307 186.508L581.571 190.303ZM583.5 186.919V187.024H587.5V186.919H583.5ZM582.119 192.352L581.552 193.373L585.049 195.316L585.616 194.295L582.119 192.352ZM579 199.968V200.885H583V199.968H579ZM579 200.885V206.479H583V200.885H579ZM585.743 209.799L590.414 206.205L587.975 203.035L583.304 206.628L585.743 209.799ZM587.603 203.643L586.384 205.573L589.766 207.709L590.985 205.779L587.603 203.643ZM580.964 227.868L580.096 232.207L584.018 232.992L584.886 228.653L580.964 227.868ZM576.8 241.812L575.005 245.402L578.583 247.191L580.378 243.601L576.8 241.812ZM574.542 246.11L570.338 251.156L573.411 253.717L577.615 248.671L574.542 246.11ZM573.336 258.2L573.682 258.225L573.967 254.235L573.621 254.21L573.336 258.2ZM573.675 258.198L570.174 260.532L572.393 263.86L575.894 261.527L573.675 258.198ZM564.823 267.464L561.109 278.233L564.891 279.537L568.604 268.768L564.823 267.464ZM561.133 278.167L553.633 297.667L557.367 299.103L564.867 279.603L561.133 278.167ZM553.684 297.547L547.684 310.547L551.316 312.223L557.316 299.223L553.684 297.547ZM547.731 310.452L538.398 328.136L541.936 330.003L551.269 312.319L547.731 310.452ZM538.445 328.078L537.727 328.676L540.287 331.749L541.006 331.151L538.445 328.078ZM532.518 327.877L527.39 338.132L530.968 339.921L536.096 329.666L532.518 327.877ZM527.16 338.506L521.796 345.657L524.996 348.057L530.36 340.906L527.16 338.506ZM507.679 360.931L494.678 372.385L497.322 375.386L510.323 363.933L507.679 360.931ZM494.838 372.258L470.338 389.758L472.662 393.013L497.162 375.513L494.838 372.258ZM470.343 389.754L430.843 417.754L433.157 421.017L472.657 393.017L470.343 389.754ZM430.702 417.864L424.051 423.537L426.646 426.58L433.298 420.907L430.702 417.864ZM399.812 279.495L404.005 274.702L400.995 272.068L396.802 276.86L399.812 279.495ZM411.898 260.687L406.427 267.65L409.573 270.121L415.043 263.158L411.898 260.687ZM483.804 140.577L485.816 138.199L482.763 135.615L480.75 137.993L483.804 140.577ZM489.283 135.373L490.601 134.654L488.686 131.142L487.367 131.861L489.283 135.373ZM485.816 138.199C486.787 137.051 487.963 136.093 489.283 135.373L487.367 131.861C485.614 132.818 484.053 134.09 482.763 135.615L485.816 138.199ZM424.051 423.537C417.056 429.503 410.79 436.274 405.383 443.709L408.617 446.062C413.84 438.881 419.891 432.342 426.646 426.58L424.051 423.537ZM521.796 345.657C517.625 351.218 512.895 356.336 507.679 360.931L510.323 363.933C515.744 359.157 520.661 353.837 524.996 348.057L521.796 345.657ZM527.39 338.132C527.325 338.264 527.248 338.389 527.16 338.506L530.36 340.906C530.592 340.597 530.795 340.267 530.968 339.921L527.39 338.132ZM538.822 329.145C538.596 325.756 534.037 324.839 532.518 327.877L536.096 329.666C536.041 329.776 535.925 329.9 535.761 329.974C535.613 330.04 535.475 330.044 535.366 330.022C535.257 330.001 535.131 329.943 535.021 329.825C534.898 329.694 534.839 329.534 534.831 329.411L538.822 329.145ZM537.727 328.676C538.146 328.327 538.785 328.6 538.822 329.145L534.831 329.411C535.012 332.127 538.197 333.492 540.287 331.749L537.727 328.676ZM538.398 328.136C538.41 328.113 538.426 328.094 538.445 328.078L541.006 331.151C541.388 330.832 541.704 330.442 541.936 330.003L538.398 328.136ZM570.174 260.532C567.68 262.195 565.8 264.63 564.823 267.464L568.604 268.768C569.296 266.762 570.627 265.038 572.393 263.86L570.174 260.532ZM573.669 258.208C573.669 258.204 573.672 258.201 573.675 258.198L575.894 261.527C576.81 260.915 577.433 259.952 577.614 258.866L573.669 258.208ZM573.682 258.225C573.684 258.225 573.684 258.225 573.682 258.224C573.68 258.224 573.677 258.223 573.675 258.222C573.672 258.22 573.671 258.219 573.672 258.219C573.672 258.22 573.671 258.219 573.67 258.215C573.669 258.213 573.669 258.21 573.669 258.208C573.669 258.206 573.669 258.206 573.669 258.208L577.614 258.866C578 256.549 576.31 254.402 573.967 254.235L573.682 258.225ZM570.338 251.156C568.094 253.848 569.84 257.95 573.336 258.2L573.621 254.21C573.54 254.204 573.495 254.181 573.464 254.158C573.427 254.131 573.39 254.087 573.365 254.028C573.34 253.968 573.334 253.911 573.339 253.866C573.344 253.828 573.359 253.779 573.411 253.717L570.338 251.156ZM575.005 245.402C574.879 245.655 574.723 245.893 574.542 246.11L577.615 248.671C577.994 248.217 578.319 247.72 578.583 247.191L575.005 245.402ZM580.096 232.207C579.429 235.541 578.321 238.771 576.8 241.812L580.378 243.601C582.058 240.242 583.282 236.674 584.018 232.992L580.096 232.207ZM581.5 222.453C581.5 224.271 581.32 226.085 580.964 227.868L584.886 228.653C585.294 226.611 585.5 224.535 585.5 222.453H581.5ZM586.384 205.573C583.194 210.625 581.5 216.478 581.5 222.453H585.5C585.5 217.234 586.979 212.122 589.766 207.709L586.384 205.573ZM590.414 206.205C588.704 207.521 586.451 205.468 587.603 203.643L590.985 205.779C592.219 203.825 589.807 201.626 587.975 203.035L590.414 206.205ZM583.5 187.024C583.5 188.888 583.025 190.722 582.119 192.352L585.616 194.295C586.852 192.071 587.5 189.568 587.5 187.024H583.5ZM586.101 188.793C584.821 189.22 583.5 188.267 583.5 186.919H587.5C587.5 185.537 586.146 184.562 584.836 184.999L586.101 188.793ZM578.082 186.814C577.363 188.97 579.415 191.022 581.571 190.303L580.307 186.508C581.277 186.185 582.201 187.108 581.877 188.079L578.082 186.814ZM578.033 187.018C578.044 186.948 578.06 186.88 578.082 186.814L581.877 188.079C581.926 187.931 581.963 187.78 581.987 187.626L578.033 187.018ZM579.431 172.236C579.785 174.009 579.815 175.832 579.517 177.616L583.463 178.273C583.84 176.012 583.803 173.7 583.353 171.452L579.431 172.236ZM578.347 168.91C578.837 169.972 579.201 171.089 579.431 172.236L583.353 171.452C583.062 169.997 582.601 168.581 581.979 167.233L578.347 168.91ZM573.202 158.81C573.618 159.279 573.972 159.801 574.252 160.362L577.83 158.573C577.392 157.698 576.841 156.884 576.191 156.152L573.202 158.81ZM568.646 156.258C569.934 156.097 571.219 156.58 572.082 157.55L575.072 154.893C573.334 152.938 570.745 151.964 568.15 152.288L568.646 156.258ZM567.836 156.429C567.978 156.365 568.129 156.322 568.283 156.303L567.787 152.334C567.232 152.403 566.691 152.556 566.181 152.788L567.836 156.429ZM560 154.106C560 156.862 562.849 158.696 565.358 157.556L563.703 153.914C563.842 153.851 564 153.953 564 154.106H560ZM560.113 153.186C560.038 153.487 560 153.796 560 154.106H564C564 154.123 563.998 154.14 563.994 154.157L560.113 153.186ZM560.728 145.895C561.179 147.247 561.235 148.7 560.889 150.082L564.77 151.052C565.3 148.932 565.214 146.704 564.523 144.63L560.728 145.895ZM559.189 143.252C559.879 144.018 560.403 144.918 560.728 145.895L564.523 144.63C564.023 143.131 563.22 141.751 562.163 140.576L559.189 143.252ZM552.918 140.385C555.268 140.385 557.507 141.382 559.079 143.129L562.052 140.453C559.721 137.864 556.402 136.385 552.918 136.385V140.385ZM550.733 140.476C550.865 140.416 551.008 140.385 551.153 140.385V136.385C550.437 136.385 549.73 136.538 549.078 136.835L550.733 140.476ZM543.463 137.059C543.073 140.176 546.251 142.514 549.11 141.214L547.455 137.572C547.449 137.575 547.444 137.577 547.443 137.577C547.441 137.578 547.441 137.578 547.442 137.578C547.444 137.577 547.447 137.577 547.45 137.577C547.452 137.578 547.452 137.578 547.449 137.577C547.447 137.576 547.443 137.574 547.438 137.571C547.434 137.568 547.431 137.564 547.429 137.562C547.427 137.56 547.428 137.56 547.429 137.562C547.43 137.564 547.431 137.567 547.431 137.57C547.431 137.571 547.431 137.57 547.431 137.568C547.431 137.567 547.431 137.562 547.432 137.555L543.463 137.059ZM543.462 137.053C543.463 137.055 543.463 137.057 543.463 137.059L547.432 137.555C547.501 137.001 547.454 136.438 547.293 135.903L543.462 137.053ZM541.123 131.491C541.832 132.376 542.363 133.39 542.689 134.477L546.521 133.327C546.047 131.75 545.275 130.278 544.246 128.992L541.123 131.491ZM535.689 128.29C537.773 128.587 539.665 129.668 540.98 131.312L544.104 128.813C542.153 126.375 539.346 124.772 536.255 124.33L535.689 128.29ZM518.442 130.497C518.445 130.501 518.446 130.505 518.446 130.51L522.434 130.817C522.511 129.82 522.213 128.83 521.6 128.041L518.442 130.497ZM513.953 128.034C515.318 127.761 516.72 128.283 517.574 129.381L520.732 126.926C518.947 124.631 516.019 123.542 513.169 124.112L513.953 128.034ZM509.643 130.327C510.329 129.275 511.41 128.543 512.643 128.296L511.858 124.374C509.572 124.831 507.566 126.189 506.293 128.142L509.643 130.327ZM498.366 136.056C499.975 138.872 503.993 138.991 505.765 136.274L502.414 134.089C502.277 134.3 501.964 134.291 501.839 134.072L498.366 136.056ZM498.332 136.008C498.344 136.023 498.356 136.039 498.366 136.056L501.839 134.072C501.713 133.851 501.567 133.642 501.405 133.447L498.332 136.008ZM494.213 133.885C495.702 133.885 497.115 134.547 498.068 135.691L501.141 133.13C499.427 131.074 496.889 129.885 494.213 129.885V133.885ZM493.615 129.885C491.893 129.885 490.198 130.317 488.686 131.142L490.601 134.654C491.526 134.15 492.562 133.885 493.615 133.885V129.885ZM481.21 144.712C481.874 143.217 482.748 141.825 483.804 140.577L480.75 137.993C479.449 139.531 478.373 141.246 477.555 143.087L481.21 144.712ZM466.992 159.821C470.777 160.956 474.815 159.102 476.419 155.491L472.764 153.867C471.977 155.637 469.997 156.546 468.142 155.99L466.992 159.821ZM469.708 189.806C471.487 186.341 468.302 182.412 464.543 183.437L465.596 187.296C465.999 187.186 466.34 187.607 466.149 187.979L469.708 189.806ZM460.543 200.437C462.195 199.997 463.588 201.724 462.807 203.245L459.248 201.418C458.446 202.981 459.876 204.755 461.573 204.302L460.543 200.437ZM469.289 203.28C470.448 200.962 468.328 198.361 465.824 199.029L466.855 202.894C466.028 203.114 465.329 202.256 465.711 201.491L469.289 203.28ZM580.227 209.441C581.715 210.928 584.075 211.082 585.743 209.799L583.304 206.628C583.229 206.686 583.122 206.679 583.055 206.612L580.227 209.441ZM441.999 245.853C444.372 243.734 446.373 241.232 447.919 238.45L444.422 236.507C443.094 238.898 441.374 241.048 439.334 242.87L441.999 245.853ZM579 206.479C579 207.59 579.441 208.655 580.227 209.441L583.055 206.612C583.02 206.577 583 206.529 583 206.479H579ZM411.775 262.898C413.667 266.304 418.23 267.075 421.137 264.48L418.473 261.496C417.479 262.384 415.918 262.12 415.271 260.955L411.775 262.898ZM469.491 157.684C469.683 159.093 468.354 160.23 466.992 159.821L468.142 155.99C466.717 155.562 465.327 156.751 465.528 158.225L469.491 157.684ZM531.095 128.948C532.532 128.295 534.126 128.066 535.689 128.29L536.255 124.33C533.936 123.999 531.572 124.338 529.439 125.307L531.095 128.948ZM415.271 260.955C414.566 259.686 412.795 259.545 411.898 260.687L415.043 263.158C414.174 264.265 412.458 264.128 411.775 262.898L415.271 260.955ZM466.718 186.496C470.434 182.78 472.199 177.54 471.489 172.333L467.525 172.874C468.067 176.842 466.721 180.836 463.889 183.668L466.718 186.496ZM528.471 130.274C528.614 130.121 528.787 129.997 528.978 129.911L527.322 126.269C526.655 126.572 526.054 127.004 525.553 127.538L528.471 130.274ZM581.052 194.119C579.724 195.779 579 197.842 579 199.968H583C583 198.75 583.414 197.569 584.175 196.618L581.052 194.119ZM391.395 279.079C393.41 281.9 397.529 282.103 399.812 279.495L396.802 276.86C396.218 277.527 395.165 277.475 394.65 276.754L391.395 279.079ZM464.543 183.437C466.503 182.902 467.901 185.312 466.465 186.749L463.637 183.92C462.173 185.384 463.598 187.841 465.596 187.296L464.543 183.437ZM518.446 130.51C518.155 134.294 522.788 136.335 525.384 133.566L522.466 130.831C522.456 130.841 522.45 130.846 522.447 130.848C522.445 130.85 522.444 130.85 522.446 130.849C522.449 130.848 522.452 130.846 522.456 130.845C522.459 130.844 522.463 130.843 522.466 130.842C522.472 130.841 522.472 130.842 522.468 130.842C522.463 130.841 522.455 130.839 522.445 130.835C522.436 130.831 522.429 130.826 522.425 130.823C522.421 130.82 522.423 130.82 522.426 130.825C522.427 130.827 522.429 130.83 522.431 130.834C522.432 130.838 522.433 130.841 522.434 130.843C522.434 130.846 522.434 130.846 522.434 130.842C522.434 130.839 522.433 130.831 522.434 130.817L518.446 130.51ZM581.552 193.373C581.406 193.635 581.239 193.885 581.052 194.119L584.175 196.618C584.502 196.209 584.795 195.773 585.049 195.316L581.552 193.373ZM394.675 278.978C393.93 280.171 392.212 280.224 391.395 279.079L394.65 276.754C393.811 275.58 392.048 275.634 391.283 276.858L394.675 278.978Z" fill="black"/>
<path d="M563.59 179.65L564.052 179.727C564.679 179.832 565.319 179.821 565.943 179.697C566.958 179.494 567.891 178.995 568.623 178.262L568.666 178.219C569.216 177.67 569.641 177.009 569.914 176.281L570.424 174.92C570.806 173.901 571.05 172.836 571.148 171.753L571.267 170.443C571.419 168.777 571.065 167.103 570.253 165.64L569.989 165.166C569.345 164.006 568.365 163.068 567.178 162.474L566.959 162.365C565.695 161.733 564.246 161.574 562.875 161.916C561.657 162.221 560.567 162.905 559.763 163.87L559.463 164.23C558.827 164.992 558.353 165.875 558.068 166.826L557.639 168.254C557.218 169.66 557.094 171.137 557.276 172.593L557.337 173.08C557.445 173.944 557.699 174.783 558.088 175.562L558.108 175.602C558.693 176.771 559.572 177.767 560.659 178.491C561.543 179.081 562.542 179.476 563.59 179.65Z" fill="black" stroke="black" stroke-width="0.8"/>
<path d="M509.579 141.151L510.965 141.025C511.958 140.935 512.953 141.187 513.783 141.74C514.87 142.465 515.575 143.639 515.705 144.939L515.81 145.987C515.934 147.227 515.704 148.477 515.147 149.592L514.51 150.865C514.171 151.544 513.766 152.187 513.3 152.785L512 154.457C511.024 155.711 509.682 156.631 508.16 157.087L507.176 157.383C506.093 157.707 504.931 157.641 503.892 157.196C502.683 156.678 501.739 155.689 501.277 154.458L501.146 154.108C500.726 152.988 500.669 151.764 500.984 150.61L501.499 148.722C501.831 147.505 502.357 146.35 503.056 145.301L503.312 144.917C503.768 144.233 504.321 143.618 504.953 143.091L505.011 143.043C506.306 141.963 507.899 141.303 509.579 141.151Z" fill="black" stroke="black" stroke-width="0.8"/>
<path d="M527.369 158.885H527.303C526.442 158.885 525.589 158.721 524.79 158.401C523.939 158.061 523.166 157.551 522.518 156.903L522.468 156.853C521.829 156.214 521.317 155.458 520.961 154.627L520.926 154.546C520.323 153.139 520.161 151.582 520.461 150.08L520.543 149.67C520.843 148.172 521.522 146.776 522.516 145.616L522.787 145.301C523.586 144.369 524.582 143.627 525.703 143.128L526.205 142.905C527.686 142.247 529.354 142.141 530.906 142.607L531.181 142.689C532.67 143.136 533.93 144.138 534.701 145.488C535.225 146.404 535.5 147.44 535.5 148.495V149.532C535.5 151.08 535.14 152.606 534.448 153.99L534.228 154.429C533.748 155.39 533.08 156.245 532.264 156.945L531.997 157.173C530.708 158.278 529.067 158.885 527.369 158.885Z" fill="black" stroke="black" stroke-width="0.8"/>
<path d="M542.447 167.372L542.296 167.334C541.129 167.043 540.085 166.387 539.315 165.463C538.465 164.443 538 163.159 538 161.832V160.733C538 159.515 538.256 158.31 538.75 157.197L539.147 156.304C539.711 155.036 540.503 153.882 541.484 152.901L541.987 152.398C542.98 151.405 544.204 150.674 545.549 150.27L546.343 150.032C547.736 149.614 549.233 149.699 550.57 150.273L550.774 150.36C551.579 150.705 552.286 151.243 552.833 151.927C553.589 152.871 554 154.044 554 155.253V155.878C554 156.872 553.791 157.855 553.388 158.763L552.615 160.501C552.206 161.421 551.695 162.292 551.091 163.097L550.272 164.19C549.438 165.302 548.333 166.182 547.063 166.746L546.434 167.026C545.181 167.583 543.777 167.705 542.447 167.372Z" fill="black" stroke="black" stroke-width="0.8"/>
<path d="M495.002 157.882L496.306 155.927C496.767 155.234 497.156 154.496 497.465 153.723L497.66 153.235C497.886 152.671 498.043 152.081 498.129 151.479L498.176 151.151C498.386 149.682 498.101 148.186 497.365 146.898L497.123 146.476C496.715 145.761 496.129 145.163 495.423 144.739C494.501 144.186 493.42 143.958 492.354 144.091L491.625 144.182C490.556 144.316 489.534 144.696 488.638 145.293L487.695 145.922C486.25 146.885 485.036 148.158 484.143 149.648L483.439 150.82C482.818 151.856 482.379 152.991 482.142 154.175L481.826 155.753C481.614 156.816 481.729 157.919 482.156 158.915C482.698 160.18 483.705 161.188 484.97 161.73L485.087 161.779C486.012 162.176 487.027 162.319 488.026 162.195L488.568 162.127C489.836 161.968 491.045 161.496 492.084 160.754L492.53 160.435C493.502 159.741 494.339 158.876 495.002 157.882Z" fill="black" stroke="black" stroke-width="0.8"/>
<path d="M494.009 199.14L495.459 199.865C498.746 201.508 502.446 202.142 506.092 201.686L509.5 201.26L511.616 202.892C514.199 204.883 516.969 206.62 519.886 208.078L520.429 208.35C523.136 209.703 525.973 210.778 528.898 211.558L529.421 211.697C531.138 212.155 532.886 212.489 534.651 212.697L536.746 212.944C539.233 213.236 541.751 213.135 544.207 212.644L545.241 212.437C547.069 212.072 548.825 211.414 550.443 210.489L551.727 209.755C553.861 208.536 555.587 206.712 556.686 204.514L556.882 204.121C557.617 202.651 558 201.029 558 199.385C558 197.741 557.617 196.12 556.882 194.649L555.914 192.713C554.977 190.84 553.745 189.13 552.265 187.65C551.423 186.809 550.507 186.046 549.526 185.372L547 183.635C544.339 181.806 541.851 179.736 539.568 177.453L539 176.885L533.199 171.81C531.738 170.531 530.137 169.42 528.427 168.5L527.358 167.924C525.467 166.906 523.415 166.218 521.292 165.892C519.114 165.557 516.895 165.606 514.734 166.038L514.211 166.143C511.755 166.634 509.402 167.544 507.255 168.832L500.5 172.885L492.627 177.18C490.591 178.29 488.944 179.997 487.907 182.071C486.986 183.913 486.583 185.969 486.741 188.022L486.773 188.44C486.923 190.378 487.524 192.283 488.504 193.963C489.793 196.174 491.719 197.995 494.009 199.14Z" fill="black"/>
<path d="M512.5 200.885L509.5 201.26M509.5 201.26L506.092 201.686C502.446 202.142 498.746 201.508 495.459 199.865L494.009 199.14C491.719 197.995 489.793 196.174 488.504 193.963V193.963C487.524 192.283 486.923 190.378 486.773 188.44L486.741 188.022C486.583 185.969 486.986 183.913 487.907 182.071V182.071C488.944 179.997 490.591 178.29 492.627 177.18L500.5 172.885L507.255 168.832C509.402 167.544 511.755 166.634 514.211 166.143L514.734 166.038C516.895 165.606 519.114 165.557 521.292 165.892V165.892C523.415 166.218 525.467 166.906 527.358 167.924L528.427 168.5C530.137 169.42 531.738 170.531 533.199 171.81L539 176.885L539.568 177.453C541.851 179.736 544.339 181.806 547 183.635L549.526 185.372C550.507 186.046 551.423 186.809 552.265 187.65V187.65C553.745 189.13 554.977 190.84 555.914 192.713L556.882 194.649C557.617 196.12 558 197.741 558 199.385V199.385C558 201.029 557.617 202.651 556.882 204.121L556.686 204.514C555.587 206.712 553.861 208.536 551.727 209.755L550.443 210.489C548.825 211.414 547.069 212.072 545.241 212.437L544.207 212.644C541.751 213.135 539.233 213.236 536.746 212.944L534.651 212.697C532.886 212.489 531.138 212.155 529.421 211.697L528.898 211.558C525.973 210.778 523.136 209.703 520.429 208.35L519.886 208.078C516.969 206.62 514.199 204.883 511.616 202.892L509.5 201.26Z" stroke="black" stroke-width="0.8"/>
<path d="M186.215 386.088L182.24 410.613C180.793 419.538 180.564 428.619 181.558 437.606L183.19 452.373C183.353 453.839 183.381 455.317 183.275 456.789L182.397 469.002C182.28 470.636 184.633 471.017 185.037 469.429C185.408 467.975 187.521 468.131 187.674 469.624L189.307 485.601" stroke="black" stroke-width="4" stroke-linecap="round"/>
<path d="M209.869 348.685L194.31 363.121" stroke="black" stroke-width="4" stroke-linecap="round"/>
<path d="M212.334 357.194C208.935 359.645 207.152 363.761 207.689 367.917L207.787 368.676" stroke="black" stroke-width="4" stroke-linecap="round"/>
<path d="M301.806 135.677L303.797 136.424C303.931 136.474 304.074 136.5 304.217 136.5H304.286C304.427 136.5 304.565 136.467 304.691 136.405C305.138 136.181 305.319 135.638 305.095 135.191L305.015 135.029C305.01 135.02 305.02 135.01 305.029 135.015L305.244 135.122C305.747 135.373 306.272 135.578 306.813 135.732L309.5 136.5L312.5 137L313.034 137.089C314.675 137.363 316.336 137.5 318 137.5H319C319.276 137.5 319.5 137.724 319.5 138V138.342C319.5 138.729 319.763 139.066 320.138 139.16L320.957 139.364C321.312 139.453 321.684 139.439 322.031 139.323L322.328 139.224C322.77 139.077 323.171 138.829 323.501 138.499L323.986 138.014C324.327 137.673 324.709 137.374 325.123 137.126L327 136L329.469 134.942C330.15 134.65 330.769 134.231 331.293 133.707L332.47 132.53C332.809 132.191 333 131.73 333 131.25V131.207C333 130.754 332.82 130.32 332.5 130C332.18 129.68 331.746 129.5 331.293 129.5H330.635C330.215 129.5 329.8 129.58 329.411 129.736L327.5 130.5L324.944 131.778C324.649 131.926 324.34 132.046 324.023 132.136L321.399 132.886C321.153 132.956 320.888 132.888 320.707 132.707L320.623 132.623C320.544 132.544 320.5 132.438 320.5 132.327C320.5 132.135 320.369 131.967 320.183 131.921L318.901 131.6C318.636 131.534 318.361 131.52 318.091 131.558L315.833 131.881C315.278 131.96 314.719 132 314.158 132C313.058 132 311.963 131.847 310.905 131.544L309 131L305.5 129.5L303.459 128.275C303.153 128.092 302.834 127.934 302.504 127.801L301.531 127.412C300.861 127.144 300.123 127.094 299.423 127.269L299.22 127.32C298.749 127.438 298.319 127.681 297.975 128.025C297.363 128.637 297.084 129.507 297.227 130.36L297.327 130.965C297.44 131.643 297.732 132.278 298.172 132.806L298.765 133.518C299.575 134.489 300.622 135.233 301.806 135.677Z" fill="white" stroke="white" stroke-width="0.6"/>
<defs>
<filter id="filter0_f_6749_753" x="344.5" y="63.8853" width="61" height="46" filterUnits="userSpaceOnUse" color-interpolation-filters="sRGB">
<feFlood flood-opacity="0" result="BackgroundImageFix"/>
<feBlend mode="normal" in="SourceGraphic" in2="BackgroundImageFix" result="shape"/>
<feGaussianBlur stdDeviation="8" result="effect1_foregroundBlur_6749_753"/>
</filter>
<filter id="filter1_f_6749_753" x="231.19" y="56.6538" width="59.8459" height="47.2734" filterUnits="userSpaceOnUse" color-interpolation-filters="sRGB">
<feFlood flood-opacity="0" result="BackgroundImageFix"/>
<feBlend mode="normal" in="SourceGraphic" in2="BackgroundImageFix" result="shape"/>
<feGaussianBlur stdDeviation="8" result="effect1_foregroundBlur_6749_753"/>
</filter>
<linearGradient id="paint0_linear_6749_753" x1="238.75" y1="0.385254" x2="238.75" y2="569.5" gradientUnits="userSpaceOnUse">
<stop offset="0.993128"/>
<stop offset="1" stop-color="white"/>
</linearGradient>
</defs>
</svg>
