<svg width="600" height="697" viewBox="0 0 600 697" fill="none" xmlns="http://www.w3.org/2000/svg">
<path d="M163.358 136.244L163.356 136.247C160.283 140.686 157.696 145.442 155.641 150.434L155.151 151.624L155.149 151.628L150.649 162.628L150.599 162.749L150.566 162.876L149.322 167.603C148.353 171.284 151.13 174.885 154.936 174.885C156.374 174.885 157.234 176.483 156.444 177.684L133.63 212.311C132.693 213.734 131.899 215.245 131.259 216.824L103.879 284.361C102.852 286.895 104.986 289.268 107.324 289.072L88.2773 321.369L88.2472 321.42L88.2201 321.473L67.7201 361.473L67.6776 361.556L67.643 361.642L57.643 386.642L57.5994 386.752L57.5688 386.865L54.0688 399.865L54.0401 399.972L54.0233 400.081L52.6026 409.315C52.1102 412.516 55.1129 415.143 58.2198 414.229C58.5589 414.129 58.8625 414.466 58.728 414.793L50.1564 435.61C50.1554 435.612 50.1544 435.615 50.1534 435.617C18.3712 511.178 2 592.443 2 674.416C2 675.806 3.08908 676.956 4.48195 677.027L349.291 694.492C349.291 694.492 349.292 694.492 349.292 694.492C349.921 694.524 350.535 694.29 350.982 693.847C378.437 666.723 399.107 633.504 411.311 596.89L414.397 587.632L414.439 587.507L414.464 587.377L421.464 550.877L421.48 550.795L421.489 550.712L427.537 493.842C427.545 493.772 427.566 493.734 427.586 493.709C427.61 493.679 427.648 493.648 427.7 493.627C427.753 493.606 427.802 493.602 427.84 493.607C427.872 493.612 427.913 493.624 427.967 493.67C430.571 495.873 434.58 494.277 434.957 490.887L441.988 427.606L442 427.496V427.385V252.04C442 251.484 441.95 250.93 441.851 250.383L439.032 234.882C441.241 236.57 444.54 235.417 445.146 232.618L450.356 208.57C450.802 206.514 450.882 204.396 450.594 202.312L446.801 174.924C446.617 173.593 446.638 172.242 446.863 170.918L450.366 150.289C450.395 150.117 450.596 150.036 450.737 150.139C453.838 152.414 458.122 149.71 457.402 145.931L455.215 134.453C457.733 135.383 460.471 133.409 460.277 130.638L458.616 106.967C458.59 106.596 458.76 106.238 459.064 106.024L469.836 98.4195C478.718 92.15 484 81.9562 484 71.0846C484 47.3471 459.969 31.1587 437.97 40.077L429.047 43.6947C427.508 44.3186 425.771 44.2259 424.307 43.4418L413.481 37.642L401.015 30.2823C381.639 18.8434 360.271 11.1779 338.043 7.69099C309.33 3.18705 279.951 5.77498 252.468 15.2292L235.958 20.9086C233.624 21.7114 231.052 21.4038 228.973 20.0734L217.735 12.8809C203.956 4.06259 185.932 5.81958 174.116 17.1329C170.964 20.1505 168.397 23.7241 166.543 27.6741L163.987 33.1183C159.763 42.1177 160.199 52.6128 165.154 61.2313C168.029 66.2308 172.265 70.311 177.368 72.9969L185.581 77.3193C186.361 77.7301 186.603 78.7336 186.094 79.4545L171.783 99.7571C168.782 104.014 171.827 109.885 177.035 109.885C178.994 109.885 180.145 112.087 179.027 113.695L163.358 136.244Z" fill="white" stroke="url(#paint0_linear_6749_753)" stroke-width="4"/>
<path d="M313.5 151.885V151.885C317.299 154.735 322.173 155.737 326.789 154.618L336 152.385" stroke="black" stroke-width="4" stroke-linecap="round"/>
<path d="M340.518 113.643L341.76 110.912L340.518 113.643L340.736 113.742C343.059 114.799 345.552 115.432 348.098 115.614L349.894 115.743C350.822 115.809 351.752 115.823 352.68 115.787C352.378 116.203 352.12 116.656 351.913 117.139L351.243 118.703L351.193 118.818L351.154 118.937L350.154 121.937L350.133 121.998L350.115 122.061L348.168 128.878L346.675 132.361C345.856 134.272 344.728 136.036 343.337 137.581L345.567 139.588L343.337 137.581L343.262 137.665C343.262 137.665 343.262 137.665 343.262 137.665C342.128 138.925 340.823 140.021 339.385 140.92C338.542 141.446 337.658 141.903 336.741 142.285L336.158 142.528C333.892 143.472 331.504 144.089 329.064 144.36L328.168 144.459C325.737 144.729 323.283 144.721 320.854 144.436L319.399 144.264C317.614 144.054 315.862 143.629 314.18 142.999L311.266 141.906C310.209 141.51 309.249 140.891 308.45 140.093L306.329 142.214L308.45 140.093C308.051 139.693 307.695 139.252 307.39 138.777L306.374 137.196C304.689 134.575 303.5 131.667 302.868 128.616L302.329 126.013C302.11 124.958 302 123.883 302 122.805C302 120.562 301.654 118.331 300.973 116.193L298.756 109.225C298.806 109.239 298.856 109.252 298.905 109.266L301.162 109.978C302.978 110.551 304.848 110.935 306.743 111.124C308.576 111.308 310.424 111.308 312.257 111.124L312.764 111.074C314.308 110.919 315.834 110.617 317.321 110.171L318.583 109.793C320.047 109.353 321.438 108.699 322.71 107.851L323.433 107.369C325.357 106.086 326.884 104.291 327.84 102.186L328.058 101.707C328.594 100.528 328.912 99.2726 329.007 97.9999C329.036 98.6792 329.16 99.3516 329.375 99.9976L330.181 102.416C330.558 103.546 331.046 104.637 331.637 105.672C332.636 107.419 333.918 108.988 335.433 110.313L335.657 110.509C337.115 111.785 338.753 112.841 340.518 113.643ZM328.056 92.0757C327.377 89.532 325.349 87.5784 322.796 86.9882L318.733 85.6341C317.021 85.0632 315.438 84.0805 314.153 82.7956C312.842 81.4846 311.853 79.8587 311.304 78.1009L310.924 76.8847L308.061 77.7795L310.924 76.8847C310.43 75.3038 310.464 73.6051 311.021 72.0453C311.626 70.353 312.808 68.9286 314.36 68.0231L314.458 67.9662L312.946 65.3749L314.458 67.9662C315.671 67.2583 317.051 66.8853 318.456 66.8853H318.844C319.676 66.8853 320.505 66.9963 321.308 67.2153L325.211 68.2795L325.241 68.2879L325.272 68.2957L327.842 68.9382C330.446 69.5891 333.15 69.736 335.808 69.3714L341.316 69.0042C342.203 68.945 343.094 69.0456 343.946 69.3012L344.505 69.469L345.364 66.6066L344.505 69.469C345.621 69.8036 346.604 70.4773 347.319 71.3965C348.084 72.3804 348.5 73.5913 348.5 74.8377V75.0187C348.5 76.061 348.234 77.086 347.728 77.997L350.351 79.454L347.728 77.997L347.255 78.8495C346.808 79.6533 346.252 80.3909 345.601 81.0411L343.615 83.0272C342.474 84.1688 341.082 85.029 339.55 85.5395L338.293 85.9587C334.44 87.2429 331.364 90.1828 329.906 93.9731L329.487 95.0613C329.251 95.676 329.099 96.3189 329.035 96.9723C329.018 96.1001 328.896 95.2275 328.668 94.3732L328.056 92.0757Z" fill="black" stroke="black" stroke-width="6"/>
<path d="M185 50.8853L183.662 46.8718C183.554 46.5481 183.476 46.2153 183.427 45.8775L183.097 43.5656C182.782 41.3592 184.494 39.3853 186.723 39.3853V39.3853C187.235 39.3853 187.742 39.4928 188.21 39.7009L191.892 41.3374C191.964 41.3692 192.033 41.4071 192.098 41.4506V41.4506C193.141 42.146 194.498 41.2083 194.216 39.9869L193.565 37.1665C193.522 36.9796 193.5 36.7884 193.5 36.5966V36.2711C193.5 34.4682 194.401 32.7845 195.901 31.7845L196.374 31.4692C197.434 30.7624 198.68 30.3853 199.954 30.3853H201.209C203.352 30.3853 205.446 31.0354 207.212 32.2499L212.5 35.8853" stroke="black" stroke-width="4" stroke-linecap="round"/>
<path d="M435 82.8853L439.517 79.6591C441.086 78.5383 443.08 78.1939 444.934 78.7236L445.354 78.8436C445.451 78.8713 445.545 78.9079 445.636 78.953L445.968 79.1191C447.022 79.646 448.228 78.7548 448.035 77.5926V77.5926C448.012 77.4551 448.009 77.315 448.026 77.1767L448.085 76.7042C448.334 74.7168 449.812 73.1041 451.771 72.6844L452 72.6353L452.476 72.5332C454.466 72.1069 456.526 72.1418 458.5 72.6353V72.6353L461.5 73.3853" stroke="black" stroke-width="4" stroke-linecap="round"/>
<ellipse cx="371.417" cy="58.3744" rx="7" ry="9.5" transform="rotate(9.11704 371.417 58.3744)" fill="black"/>
<ellipse cx="284.694" cy="50.1371" rx="7" ry="9.5" transform="rotate(21.5773 284.694 50.1371)" fill="black"/>
<g opacity="0.1" filter="url(#filter0_f_6749_753)">
<ellipse cx="383.5" cy="86.8853" rx="14.5" ry="7" fill="#FF00BB"/>
</g>
<g opacity="0.1" filter="url(#filter1_f_6749_753)">
<ellipse cx="269.613" cy="80.2905" rx="14.306" ry="6.88806" transform="rotate(15.2346 269.613 80.2905)" fill="#FF00BB"/>
</g>
<path d="M401.5 277.885L396.5 285.885L329 439.385L415.5 444.885L423.5 433.885L440.5 419.385L480 391.385L504.5 373.885L525.5 355.385L537.5 339.385L545 324.385L545.5 331.885L548.5 329.385L558 311.385L564 298.385L571.5 278.885L576.5 264.385L584 259.385L584.5 256.385L577.5 255.885L585 246.885L589.5 237.885L592 225.385V213.885L595.5 205.385L591.5 209.385V207.385L589.5 200.885V197.385L593.5 195.385V191.885L591.5 187.385L588 188.885L588.5 187.385L589.5 180.885L590.5 174.885L589.5 169.885L586.5 163.385L584 158.385L580 153.885L575.5 152.885L569.5 156.885L570.5 153.885L572 147.885L570.5 143.385L566 138.385H559L553.5 140.885L554 136.885L552.5 131.885L548.5 126.885L541.5 125.885L534 128.885L528.5 136.385L529 129.885L525.5 125.385L518 126.885L510.5 138.385V134.885L508 131.885H502L489 141.385L481 159.385L476 157.885L479 179.885L473.5 185.385L479 183.885L469.5 202.385L477 200.385L476 202.385L467.5 216.385L457.5 232.385L452.5 241.385L424.5 266.385L422 261.885L404 281.385L401.5 277.885Z" fill="white"/>
<path d="M394.804 284.825C394.219 285.762 394.503 286.996 395.44 287.581C396.377 288.167 397.611 287.882 398.196 286.945L394.804 284.825ZM457.5 232.385L455.804 231.325L455.777 231.369L455.752 231.414L457.5 232.385ZM467.5 216.385L469.196 217.445L469.203 217.434L469.21 217.423L467.5 216.385ZM586.5 163.385L588.316 162.547L588.303 162.519L588.289 162.491L586.5 163.385ZM589.5 180.885L587.527 180.556L587.525 180.569L587.523 180.581L589.5 180.885ZM571.5 278.885L573.367 279.603L573.379 279.57L573.391 279.537L571.5 278.885ZM564 298.385L565.816 299.223L565.843 299.164L565.867 299.103L564 298.385ZM558 311.385L559.769 312.319L559.794 312.272L559.816 312.223L558 311.385ZM504.5 373.885L505.662 375.513L505.745 375.453L505.822 375.386L504.5 373.885ZM480 391.385L481.157 393.017L481.162 393.013L480 391.385ZM440.5 419.385L439.343 417.754L439.27 417.805L439.202 417.864L440.5 419.385ZM412.505 274.702C413.233 273.871 413.148 272.607 412.317 271.88C411.486 271.153 410.222 271.237 409.495 272.068L412.505 274.702ZM414.927 267.65C414.245 268.518 414.396 269.775 415.264 270.458C416.133 271.14 417.39 270.989 418.073 270.121L414.927 267.65ZM492.789 136.907L494.316 138.199L492.789 136.907ZM496.825 133.617L495.867 131.861L496.825 133.617ZM531.896 346.857L530.296 345.657L531.896 346.857ZM517.501 362.432L516.179 360.931L517.501 362.432ZM537.679 339.027L539.468 339.921L537.679 339.027ZM537.26 339.706L535.66 338.506L537.26 339.706ZM548.667 329.069L550.436 330.003L548.667 329.069ZM548.225 329.614L546.945 328.078L548.225 329.614ZM579.783 262.196L580.893 263.86L579.783 262.196ZM575.214 268.116L577.104 268.768L575.214 268.116ZM583.284 259.862L584.394 261.527L583.284 259.862ZM582.324 256.23L582.182 258.225L582.324 256.23ZM580.374 252.436L581.911 253.717L580.374 252.436ZM581.978 256.205L581.836 258.2L581.978 256.205ZM585.294 246.297L587.083 247.191L585.294 246.297ZM584.579 247.391L586.115 248.671L584.579 247.391ZM590.557 232.599L592.518 232.992L590.557 232.599ZM587.089 242.707L588.878 243.601L587.089 242.707ZM591.425 228.26L589.464 227.868L591.425 228.26ZM597.695 204.62L596.475 203.035L597.695 204.62ZM597.794 204.711L596.103 203.643L597.794 204.711ZM592.367 193.324L590.619 192.352L592.367 193.324ZM589.439 188.406L590.071 190.303L589.439 188.406ZM588.51 187.322L590.487 187.626L588.51 187.322ZM589.99 177.944L588.017 177.616L589.99 177.944ZM588.663 168.072L586.847 168.91L588.663 168.072ZM583.196 157.481L584.691 156.152L583.196 157.481ZM584.541 159.467L582.752 160.362L584.541 159.467ZM582.077 156.222L580.582 157.55L582.077 156.222ZM575.509 154.609L574.681 152.788L575.509 154.609ZM573.031 155.735L573.858 157.556L573.031 155.735ZM570.553 153.671L572.494 154.157L570.553 153.671ZM571.33 150.567L573.27 151.052L571.33 150.567ZM569.176 141.914L570.663 140.576L569.176 141.914ZM558.406 138.655L559.233 140.476L558.406 138.655ZM556.783 139.393L555.955 137.572L556.783 139.393ZM553.878 136.478L555.793 135.903L553.878 136.478ZM551.185 130.241L549.623 131.491L551.185 130.241ZM553.105 133.902L551.189 134.477L553.105 133.902ZM551.042 130.063L552.604 128.813L551.042 130.063ZM528.521 129.269L530.1 128.041L528.521 129.269ZM522.061 126.073L521.669 124.112L522.061 126.073ZM527.653 128.154L526.074 129.381L527.653 128.154ZM516.468 129.235L514.793 128.142L516.468 129.235ZM520.75 126.335L520.358 124.374L520.75 126.335ZM512.59 135.181L510.914 134.089L512.59 135.181ZM508.368 134.727L506.832 136.008L508.368 134.727ZM508.104 134.411L506.568 135.691L508.104 134.411ZM498.143 132.898L499.101 134.654L498.143 132.898ZM490.777 139.285L492.304 140.577L490.777 139.285ZM469.558 202.37L470.073 204.302L469.558 202.37ZM469.527 202.332L471.307 203.245L469.527 202.332ZM474.839 200.961L475.355 202.894L474.839 200.961ZM593.023 208.214L591.804 206.628L593.023 208.214ZM428.305 262.988L426.973 261.496L428.305 262.988ZM476.009 157.955L474.028 158.225L476.009 157.955ZM538.767 127.127L537.939 125.307L538.767 127.127ZM421.971 261.922L423.543 263.158L421.971 261.922ZM478.007 172.604L479.989 172.333L478.007 172.604ZM535.512 128.906L536.971 130.274L535.512 128.906ZM536.65 128.09L537.478 129.911L536.65 128.09ZM406.807 278.178L408.312 279.495L406.807 278.178ZM473.551 185.334L472.137 183.92L473.551 185.334ZM532.425 132.199L530.966 130.831L532.425 132.199ZM591.8 194.344L593.549 195.316L591.8 194.344ZM401.479 277.918L403.175 278.978L401.479 277.918ZM398.196 286.945L403.175 278.978L399.783 276.858L394.804 284.825L398.196 286.945ZM429.637 264.48L450.499 245.853L447.834 242.87L426.973 261.496L429.637 264.48ZM456.419 238.45L459.248 233.357L455.752 231.414L452.922 236.507L456.419 238.45ZM459.196 233.445L469.196 217.445L465.804 215.325L455.804 231.325L459.196 233.445ZM469.21 217.423L477.71 203.423L474.29 201.347L465.79 215.347L469.21 217.423ZM474.324 199.029L469.043 200.437L470.073 204.302L475.355 202.894L474.324 199.029ZM471.307 203.245L478.208 189.806L474.649 187.979L467.748 201.418L471.307 203.245ZM474.965 186.749L475.218 186.496L472.389 183.668L472.137 183.92L474.965 186.749ZM479.989 172.333L477.991 157.684L474.028 158.225L476.025 172.874L479.989 172.333ZM484.919 155.491L489.71 144.712L486.055 143.087L481.264 153.867L484.919 155.491ZM502.115 133.885H502.713V129.885H502.115V133.885ZM506.568 135.691L506.832 136.008L509.905 133.447L509.641 133.13L506.568 135.691ZM514.265 136.274L518.143 130.327L514.793 128.142L510.914 134.089L514.265 136.274ZM521.143 128.296L522.453 128.034L521.669 124.112L520.358 124.374L521.143 128.296ZM526.074 129.381L526.942 130.497L530.1 128.041L529.232 126.926L526.074 129.381ZM533.884 133.566L536.971 130.274L534.053 127.538L530.966 130.831L533.884 133.566ZM537.478 129.911L539.595 128.948L537.939 125.307L535.822 126.269L537.478 129.911ZM549.48 131.312L549.623 131.491L552.746 128.992L552.604 128.813L549.48 131.312ZM551.189 134.477L551.962 137.053L555.793 135.903L555.021 133.327L551.189 134.477ZM557.61 141.214L559.233 140.476L557.578 136.835L555.955 137.572L557.61 141.214ZM559.653 140.385H561.418V136.385H559.653V140.385ZM567.579 143.129L567.689 143.252L570.663 140.576L570.552 140.453L567.579 143.129ZM569.389 150.082L568.613 153.186L572.494 154.157L573.27 151.052L569.389 150.082ZM573.858 157.556L576.336 156.429L574.681 152.788L572.203 153.914L573.858 157.556ZM576.783 156.303L577.146 156.258L576.65 152.288L576.287 152.334L576.783 156.303ZM580.582 157.55L581.702 158.81L584.691 156.152L583.572 154.893L580.582 157.55ZM582.752 160.362L584.711 164.28L588.289 162.491L586.33 158.573L582.752 160.362ZM584.684 164.223L586.847 168.91L590.479 167.233L588.316 162.547L584.684 164.223ZM588.017 177.616L587.527 180.556L591.473 181.214L591.963 178.273L588.017 177.616ZM587.523 180.581L586.533 187.018L590.487 187.626L591.477 181.189L587.523 180.581ZM590.071 190.303L594.601 188.793L593.336 184.999L588.807 186.508L590.071 190.303ZM592 186.919V187.024H596V186.919H592ZM590.619 192.352L590.052 193.373L593.549 195.316L594.116 194.295L590.619 192.352ZM587.5 199.968V200.885H591.5V199.968H587.5ZM587.5 200.885V206.479H591.5V200.885H587.5ZM594.243 209.799L598.914 206.205L596.475 203.035L591.804 206.628L594.243 209.799ZM596.103 203.643L594.884 205.573L598.266 207.709L599.485 205.779L596.103 203.643ZM589.464 227.868L588.596 232.207L592.518 232.992L593.386 228.653L589.464 227.868ZM585.3 241.812L583.505 245.402L587.083 247.191L588.878 243.601L585.3 241.812ZM583.042 246.11L578.838 251.156L581.911 253.717L586.115 248.671L583.042 246.11ZM581.836 258.2L582.182 258.225L582.467 254.235L582.121 254.21L581.836 258.2ZM582.175 258.198L578.674 260.532L580.893 263.86L584.394 261.527L582.175 258.198ZM573.323 267.464L569.609 278.233L573.391 279.537L577.104 268.768L573.323 267.464ZM569.633 278.167L562.133 297.667L565.867 299.103L573.367 279.603L569.633 278.167ZM562.184 297.547L556.184 310.547L559.816 312.223L565.816 299.223L562.184 297.547ZM556.231 310.452L546.898 328.136L550.436 330.003L559.769 312.319L556.231 310.452ZM546.945 328.078L546.227 328.676L548.787 331.749L549.506 331.151L546.945 328.078ZM541.018 327.877L535.89 338.132L539.468 339.921L544.596 329.666L541.018 327.877ZM535.66 338.506L530.296 345.657L533.496 348.057L538.86 340.906L535.66 338.506ZM516.179 360.931L503.178 372.385L505.822 375.386L518.823 363.933L516.179 360.931ZM503.338 372.258L478.838 389.758L481.162 393.013L505.662 375.513L503.338 372.258ZM478.843 389.754L439.343 417.754L441.657 421.017L481.157 393.017L478.843 389.754ZM439.202 417.864L432.551 423.537L435.146 426.58L441.798 420.907L439.202 417.864ZM408.312 279.495L412.505 274.702L409.495 272.068L405.302 276.86L408.312 279.495ZM420.398 260.687L414.927 267.65L418.073 270.121L423.543 263.158L420.398 260.687ZM492.304 140.577L494.316 138.199L491.263 135.615L489.25 137.993L492.304 140.577ZM497.783 135.373L499.101 134.654L497.186 131.142L495.867 131.861L497.783 135.373ZM494.316 138.199C495.287 137.051 496.463 136.093 497.783 135.373L495.867 131.861C494.114 132.818 492.553 134.09 491.263 135.615L494.316 138.199ZM432.551 423.537C425.556 429.503 419.29 436.274 413.883 443.709L417.117 446.062C422.34 438.881 428.391 432.342 435.146 426.58L432.551 423.537ZM530.296 345.657C526.125 351.218 521.395 356.336 516.179 360.931L518.823 363.933C524.244 359.157 529.161 353.837 533.496 348.057L530.296 345.657ZM535.89 338.132C535.825 338.264 535.748 338.389 535.66 338.506L538.86 340.906C539.092 340.597 539.295 340.267 539.468 339.921L535.89 338.132ZM547.322 329.145C547.096 325.756 542.537 324.839 541.018 327.877L544.596 329.666C544.541 329.776 544.425 329.9 544.261 329.974C544.113 330.04 543.975 330.044 543.866 330.022C543.757 330.001 543.631 329.943 543.521 329.825C543.398 329.694 543.339 329.534 543.331 329.411L547.322 329.145ZM546.227 328.676C546.646 328.327 547.285 328.6 547.322 329.145L543.331 329.411C543.512 332.127 546.697 333.492 548.787 331.749L546.227 328.676ZM546.898 328.136C546.91 328.113 546.926 328.094 546.945 328.078L549.506 331.151C549.888 330.832 550.204 330.442 550.436 330.003L546.898 328.136ZM578.674 260.532C576.18 262.195 574.3 264.63 573.323 267.464L577.104 268.768C577.796 266.762 579.127 265.038 580.893 263.86L578.674 260.532ZM582.169 258.208C582.169 258.204 582.172 258.201 582.175 258.198L584.394 261.527C585.31 260.915 585.933 259.952 586.114 258.866L582.169 258.208ZM582.182 258.225C582.184 258.225 582.184 258.225 582.182 258.224C582.18 258.224 582.177 258.223 582.175 258.222C582.172 258.22 582.171 258.219 582.172 258.219C582.172 258.22 582.171 258.219 582.17 258.215C582.169 258.213 582.169 258.21 582.169 258.208C582.169 258.206 582.169 258.206 582.169 258.208L586.114 258.866C586.5 256.549 584.81 254.402 582.467 254.235L582.182 258.225ZM578.838 251.156C576.594 253.848 578.34 257.95 581.836 258.2L582.121 254.21C582.04 254.204 581.995 254.181 581.964 254.158C581.927 254.131 581.89 254.087 581.865 254.028C581.84 253.968 581.834 253.911 581.839 253.866C581.844 253.828 581.859 253.779 581.911 253.717L578.838 251.156ZM583.505 245.402C583.379 245.655 583.223 245.893 583.042 246.11L586.115 248.671C586.494 248.217 586.819 247.72 587.083 247.191L583.505 245.402ZM588.596 232.207C587.929 235.541 586.821 238.771 585.3 241.812L588.878 243.601C590.558 240.242 591.782 236.674 592.518 232.992L588.596 232.207ZM590 222.453C590 224.271 589.82 226.085 589.464 227.868L593.386 228.653C593.794 226.611 594 224.535 594 222.453H590ZM594.884 205.573C591.694 210.625 590 216.478 590 222.453H594C594 217.234 595.479 212.122 598.266 207.709L594.884 205.573ZM598.914 206.205C597.204 207.521 594.951 205.468 596.103 203.643L599.485 205.779C600.719 203.825 598.307 201.626 596.475 203.035L598.914 206.205ZM592 187.024C592 188.888 591.525 190.722 590.619 192.352L594.116 194.295C595.352 192.071 596 189.568 596 187.024H592ZM594.601 188.793C593.321 189.22 592 188.267 592 186.919H596C596 185.537 594.646 184.562 593.336 184.999L594.601 188.793ZM586.582 186.814C585.863 188.97 587.915 191.022 590.071 190.303L588.807 186.508C589.777 186.185 590.701 187.108 590.377 188.079L586.582 186.814ZM586.533 187.018C586.544 186.948 586.56 186.88 586.582 186.814L590.377 188.079C590.426 187.931 590.463 187.78 590.487 187.626L586.533 187.018ZM587.931 172.236C588.285 174.009 588.315 175.832 588.017 177.616L591.963 178.273C592.34 176.012 592.303 173.7 591.853 171.452L587.931 172.236ZM586.847 168.91C587.337 169.972 587.701 171.089 587.931 172.236L591.853 171.452C591.562 169.997 591.101 168.581 590.479 167.233L586.847 168.91ZM581.702 158.81C582.118 159.279 582.472 159.801 582.752 160.362L586.33 158.573C585.892 157.698 585.341 156.884 584.691 156.152L581.702 158.81ZM577.146 156.258C578.434 156.097 579.719 156.58 580.582 157.55L583.572 154.893C581.834 152.938 579.245 151.964 576.65 152.288L577.146 156.258ZM576.336 156.429C576.478 156.365 576.629 156.322 576.783 156.303L576.287 152.334C575.732 152.403 575.191 152.556 574.681 152.788L576.336 156.429ZM568.5 154.106C568.5 156.862 571.349 158.696 573.858 157.556L572.203 153.914C572.342 153.851 572.5 153.953 572.5 154.106H568.5ZM568.613 153.186C568.538 153.487 568.5 153.796 568.5 154.106H572.5C572.5 154.123 572.498 154.14 572.494 154.157L568.613 153.186ZM569.228 145.895C569.679 147.247 569.735 148.7 569.389 150.082L573.27 151.052C573.8 148.932 573.714 146.704 573.023 144.63L569.228 145.895ZM567.689 143.252C568.379 144.018 568.903 144.918 569.228 145.895L573.023 144.63C572.523 143.131 571.72 141.751 570.663 140.576L567.689 143.252ZM561.418 140.385C563.768 140.385 566.007 141.382 567.579 143.129L570.552 140.453C568.221 137.864 564.902 136.385 561.418 136.385V140.385ZM559.233 140.476C559.365 140.416 559.508 140.385 559.653 140.385V136.385C558.937 136.385 558.23 136.538 557.578 136.835L559.233 140.476ZM551.963 137.059C551.573 140.176 554.751 142.514 557.61 141.214L555.955 137.572C555.949 137.575 555.944 137.577 555.943 137.577C555.941 137.578 555.941 137.578 555.942 137.578C555.944 137.577 555.947 137.577 555.95 137.577C555.952 137.578 555.952 137.578 555.949 137.577C555.947 137.576 555.943 137.574 555.938 137.571C555.934 137.568 555.931 137.564 555.929 137.562C555.927 137.56 555.928 137.56 555.929 137.562C555.93 137.564 555.931 137.567 555.931 137.57C555.931 137.571 555.931 137.57 555.931 137.568C555.931 137.567 555.931 137.562 555.932 137.555L551.963 137.059ZM551.962 137.053C551.963 137.055 551.963 137.057 551.963 137.059L555.932 137.555C556.001 137.001 555.954 136.438 555.793 135.903L551.962 137.053ZM549.623 131.491C550.332 132.376 550.863 133.39 551.189 134.477L555.021 133.327C554.547 131.75 553.775 130.278 552.746 128.992L549.623 131.491ZM544.189 128.29C546.273 128.587 548.165 129.668 549.48 131.312L552.604 128.813C550.653 126.375 547.846 124.772 544.755 124.33L544.189 128.29ZM526.942 130.497C526.945 130.501 526.946 130.505 526.946 130.51L530.934 130.817C531.011 129.82 530.713 128.83 530.1 128.041L526.942 130.497ZM522.453 128.034C523.818 127.761 525.22 128.283 526.074 129.381L529.232 126.926C527.447 124.631 524.519 123.542 521.669 124.112L522.453 128.034ZM518.143 130.327C518.829 129.275 519.91 128.543 521.143 128.296L520.358 124.374C518.072 124.831 516.066 126.189 514.793 128.142L518.143 130.327ZM506.866 136.056C508.475 138.872 512.493 138.991 514.265 136.274L510.914 134.089C510.777 134.3 510.464 134.291 510.339 134.072L506.866 136.056ZM506.832 136.008C506.844 136.023 506.856 136.039 506.866 136.056L510.339 134.072C510.213 133.851 510.067 133.642 509.905 133.447L506.832 136.008ZM502.713 133.885C504.202 133.885 505.615 134.547 506.568 135.691L509.641 133.13C507.927 131.074 505.389 129.885 502.713 129.885V133.885ZM502.115 129.885C500.393 129.885 498.698 130.317 497.186 131.142L499.101 134.654C500.026 134.15 501.062 133.885 502.115 133.885V129.885ZM489.71 144.712C490.374 143.217 491.248 141.825 492.304 140.577L489.25 137.993C487.949 139.531 486.873 141.246 486.055 143.087L489.71 144.712ZM475.492 159.821C479.277 160.956 483.315 159.102 484.919 155.491L481.264 153.867C480.477 155.637 478.497 156.546 476.642 155.99L475.492 159.821ZM478.208 189.806C479.987 186.341 476.802 182.412 473.043 183.437L474.096 187.296C474.499 187.186 474.84 187.607 474.649 187.979L478.208 189.806ZM469.043 200.437C470.695 199.997 472.088 201.724 471.307 203.245L467.748 201.418C466.946 202.981 468.376 204.755 470.073 204.302L469.043 200.437ZM477.789 203.28C478.948 200.962 476.828 198.361 474.324 199.029L475.355 202.894C474.528 203.114 473.829 202.256 474.211 201.491L477.789 203.28ZM588.727 209.441C590.215 210.928 592.575 211.082 594.243 209.799L591.804 206.628C591.729 206.686 591.622 206.679 591.555 206.612L588.727 209.441ZM450.499 245.853C452.872 243.734 454.873 241.232 456.419 238.45L452.922 236.507C451.594 238.898 449.874 241.048 447.834 242.87L450.499 245.853ZM587.5 206.479C587.5 207.59 587.941 208.655 588.727 209.441L591.555 206.612C591.52 206.577 591.5 206.529 591.5 206.479H587.5ZM420.275 262.898C422.167 266.304 426.73 267.075 429.637 264.48L426.973 261.496C425.979 262.384 424.418 262.12 423.771 260.955L420.275 262.898ZM477.991 157.684C478.183 159.093 476.854 160.23 475.492 159.821L476.642 155.99C475.217 155.562 473.827 156.751 474.028 158.225L477.991 157.684ZM539.595 128.948C541.032 128.295 542.626 128.066 544.189 128.29L544.755 124.33C542.436 123.999 540.072 124.338 537.939 125.307L539.595 128.948ZM423.771 260.955C423.066 259.686 421.295 259.545 420.398 260.687L423.543 263.158C422.674 264.265 420.958 264.128 420.275 262.898L423.771 260.955ZM475.218 186.496C478.934 182.78 480.699 177.54 479.989 172.333L476.025 172.874C476.567 176.842 475.221 180.836 472.389 183.668L475.218 186.496ZM536.971 130.274C537.114 130.121 537.287 129.997 537.478 129.911L535.822 126.269C535.155 126.572 534.554 127.004 534.053 127.538L536.971 130.274ZM589.552 194.119C588.224 195.779 587.5 197.842 587.5 199.968H591.5C591.5 198.75 591.914 197.569 592.675 196.618L589.552 194.119ZM399.895 279.079C401.91 281.9 406.029 282.103 408.312 279.495L405.302 276.86C404.718 277.527 403.665 277.475 403.15 276.754L399.895 279.079ZM473.043 183.437C475.003 182.902 476.401 185.312 474.965 186.749L472.137 183.92C470.673 185.384 472.098 187.841 474.096 187.296L473.043 183.437ZM526.946 130.51C526.655 134.294 531.288 136.335 533.884 133.566L530.966 130.831C530.956 130.841 530.95 130.846 530.947 130.848C530.945 130.85 530.944 130.85 530.946 130.849C530.949 130.848 530.952 130.846 530.956 130.845C530.959 130.844 530.963 130.843 530.966 130.842C530.972 130.841 530.972 130.842 530.968 130.842C530.963 130.841 530.955 130.839 530.945 130.835C530.936 130.831 530.929 130.826 530.925 130.823C530.921 130.82 530.923 130.82 530.926 130.825C530.927 130.827 530.929 130.83 530.931 130.834C530.932 130.838 530.933 130.841 530.934 130.843C530.934 130.846 530.934 130.846 530.934 130.842C530.934 130.839 530.933 130.831 530.934 130.817L526.946 130.51ZM590.052 193.373C589.906 193.635 589.739 193.885 589.552 194.119L592.675 196.618C593.002 196.209 593.295 195.773 593.549 195.316L590.052 193.373ZM403.175 278.978C402.43 280.171 400.712 280.224 399.895 279.079L403.15 276.754C402.311 275.58 400.548 275.634 399.783 276.858L403.175 278.978Z" fill="black"/>
<path d="M572.09 179.65L572.552 179.727C573.179 179.832 573.819 179.821 574.443 179.697C575.458 179.494 576.391 178.995 577.123 178.262L577.166 178.219C577.716 177.67 578.141 177.009 578.414 176.281L578.924 174.92C579.306 173.901 579.55 172.836 579.648 171.753L579.767 170.443C579.919 168.777 579.565 167.103 578.753 165.64L578.489 165.166C577.845 164.006 576.865 163.068 575.678 162.474L575.459 162.365C574.195 161.733 572.746 161.574 571.375 161.916C570.157 162.221 569.067 162.905 568.263 163.87L567.963 164.23C567.327 164.992 566.853 165.875 566.568 166.826L566.139 168.254C565.718 169.66 565.594 171.137 565.776 172.593L565.837 173.08C565.945 173.944 566.199 174.783 566.588 175.562L566.608 175.602C567.193 176.771 568.072 177.767 569.159 178.491C570.043 179.081 571.042 179.476 572.09 179.65Z" fill="black" stroke="black" stroke-width="0.8"/>
<path d="M518.079 141.151L519.465 141.025C520.458 140.935 521.453 141.187 522.283 141.74C523.37 142.465 524.075 143.639 524.205 144.939L524.31 145.987C524.434 147.227 524.204 148.477 523.647 149.592L523.01 150.865C522.671 151.544 522.266 152.187 521.8 152.785L520.5 154.457C519.524 155.711 518.182 156.631 516.66 157.087L515.676 157.383C514.593 157.707 513.431 157.641 512.392 157.196C511.183 156.678 510.239 155.689 509.777 154.458L509.646 154.108C509.226 152.988 509.169 151.764 509.484 150.61L509.999 148.722C510.331 147.505 510.857 146.35 511.556 145.301L511.812 144.917C512.268 144.233 512.821 143.618 513.453 143.091L513.511 143.043C514.806 141.963 516.399 141.303 518.079 141.151Z" fill="black" stroke="black" stroke-width="0.8"/>
<path d="M535.869 158.885H535.803C534.942 158.885 534.089 158.721 533.29 158.401C532.439 158.061 531.666 157.551 531.018 156.903L530.968 156.853C530.329 156.214 529.817 155.458 529.461 154.627L529.426 154.546C528.823 153.139 528.661 151.582 528.961 150.08L529.043 149.67C529.343 148.172 530.022 146.776 531.016 145.616L531.287 145.301C532.086 144.369 533.082 143.627 534.203 143.128L534.705 142.905C536.186 142.247 537.854 142.141 539.406 142.607L539.681 142.689C541.17 143.136 542.43 144.138 543.201 145.488C543.725 146.404 544 147.44 544 148.495V149.532C544 151.08 543.64 152.606 542.948 153.99L542.728 154.429C542.248 155.39 541.58 156.245 540.764 156.945L540.497 157.173C539.208 158.278 537.567 158.885 535.869 158.885Z" fill="black" stroke="black" stroke-width="0.8"/>
<path d="M550.947 167.372L550.796 167.334C549.629 167.043 548.585 166.387 547.815 165.463C546.965 164.443 546.5 163.159 546.5 161.832V160.733C546.5 159.515 546.756 158.31 547.25 157.197L547.647 156.304C548.211 155.036 549.003 153.882 549.984 152.901L550.487 152.398C551.48 151.405 552.704 150.674 554.049 150.27L554.843 150.032C556.236 149.614 557.733 149.699 559.07 150.273L559.274 150.36C560.079 150.705 560.786 151.243 561.333 151.927C562.089 152.871 562.5 154.044 562.5 155.253V155.878C562.5 156.872 562.291 157.855 561.888 158.763L561.115 160.501C560.706 161.421 560.195 162.292 559.591 163.097L558.772 164.19C557.938 165.302 556.833 166.182 555.563 166.746L554.934 167.026C553.681 167.583 552.277 167.705 550.947 167.372Z" fill="black" stroke="black" stroke-width="0.8"/>
<path d="M503.502 157.882L504.806 155.927C505.267 155.234 505.656 154.496 505.965 153.723L506.16 153.235C506.386 152.671 506.543 152.081 506.629 151.479L506.676 151.151C506.886 149.682 506.601 148.186 505.865 146.898L505.623 146.476C505.215 145.761 504.629 145.163 503.923 144.739C503.001 144.186 501.92 143.958 500.854 144.091L500.125 144.182C499.056 144.316 498.034 144.696 497.138 145.293L496.195 145.922C494.75 146.885 493.536 148.158 492.643 149.648L491.939 150.82C491.318 151.856 490.879 152.991 490.642 154.175L490.326 155.753C490.114 156.816 490.229 157.919 490.656 158.915C491.198 160.18 492.205 161.188 493.47 161.73L493.587 161.779C494.512 162.176 495.527 162.319 496.526 162.195L497.068 162.127C498.336 161.968 499.545 161.496 500.584 160.754L501.03 160.435C502.002 159.741 502.839 158.876 503.502 157.882Z" fill="black" stroke="black" stroke-width="0.8"/>
<path d="M502.509 199.14L503.959 199.865C507.246 201.508 510.946 202.142 514.592 201.686L518 201.26L520.116 202.892C522.699 204.883 525.469 206.62 528.386 208.078L528.929 208.35C531.636 209.703 534.473 210.778 537.398 211.558L537.921 211.697C539.638 212.155 541.386 212.489 543.151 212.697L545.246 212.944C547.733 213.236 550.251 213.135 552.707 212.644L553.741 212.437C555.569 212.072 557.325 211.414 558.943 210.489L560.227 209.755C562.361 208.536 564.087 206.712 565.186 204.514L565.382 204.121C566.117 202.651 566.5 201.029 566.5 199.385C566.5 197.741 566.117 196.12 565.382 194.649L564.414 192.713C563.477 190.84 562.245 189.13 560.765 187.65C559.923 186.809 559.007 186.046 558.026 185.372L555.5 183.635C552.839 181.806 550.351 179.736 548.068 177.453L547.5 176.885L541.699 171.81C540.238 170.531 538.637 169.42 536.927 168.5L535.858 167.924C533.967 166.906 531.915 166.218 529.792 165.892C527.614 165.557 525.395 165.606 523.234 166.038L522.711 166.143C520.255 166.634 517.902 167.544 515.755 168.832L509 172.885L501.127 177.18C499.091 178.29 497.444 179.997 496.407 182.071C495.486 183.913 495.083 185.969 495.241 188.022L495.273 188.44C495.423 190.378 496.024 192.283 497.004 193.963C498.293 196.174 500.219 197.995 502.509 199.14Z" fill="black"/>
<path d="M521 200.885L518 201.26M518 201.26L514.592 201.686C510.946 202.142 507.246 201.508 503.959 199.865L502.509 199.14C500.219 197.995 498.293 196.174 497.004 193.963V193.963C496.024 192.283 495.423 190.378 495.273 188.44L495.241 188.022C495.083 185.969 495.486 183.913 496.407 182.071V182.071C497.444 179.997 499.091 178.29 501.127 177.18L509 172.885L515.755 168.832C517.902 167.544 520.255 166.634 522.711 166.143L523.234 166.038C525.395 165.606 527.614 165.557 529.792 165.892V165.892C531.915 166.218 533.967 166.906 535.858 167.924L536.927 168.5C538.637 169.42 540.238 170.531 541.699 171.81L547.5 176.885L548.068 177.453C550.351 179.736 552.839 181.806 555.5 183.635L558.026 185.372C559.007 186.046 559.923 186.809 560.765 187.65V187.65C562.245 189.13 563.477 190.84 564.414 192.713L565.382 194.649C566.117 196.12 566.5 197.741 566.5 199.385V199.385C566.5 201.029 566.117 202.651 565.382 204.121L565.186 204.514C564.087 206.712 562.361 208.536 560.227 209.755L558.943 210.489C557.325 211.414 555.569 212.072 553.741 212.437L552.707 212.644C550.251 213.135 547.733 213.236 545.246 212.944L543.151 212.697C541.386 212.489 539.638 212.155 537.921 211.697L537.398 211.558C534.473 210.778 531.636 209.703 528.929 208.35L528.386 208.078C525.469 206.62 522.699 204.883 520.116 202.892L518 201.26Z" stroke="black" stroke-width="0.8"/>
<path d="M194.715 386.088L190.74 410.613C189.293 419.538 189.064 428.619 190.058 437.606L191.69 452.373C191.853 453.839 191.881 455.317 191.775 456.789L190.897 469.002C190.78 470.636 193.133 471.017 193.537 469.429C193.908 467.975 196.021 468.131 196.174 469.624L197.807 485.601" stroke="black" stroke-width="4" stroke-linecap="round"/>
<path d="M218.369 348.685L202.81 363.121" stroke="black" stroke-width="4" stroke-linecap="round"/>
<path d="M220.834 357.194C217.435 359.645 215.652 363.761 216.189 367.917L216.287 368.676" stroke="black" stroke-width="4" stroke-linecap="round"/>
<path d="M310.306 135.677L312.297 136.424C312.431 136.474 312.574 136.5 312.717 136.5H312.786C312.927 136.5 313.065 136.467 313.191 136.405C313.638 136.181 313.819 135.638 313.595 135.191L313.515 135.029C313.51 135.02 313.52 135.01 313.529 135.015L313.744 135.122C314.247 135.373 314.772 135.578 315.313 135.732L318 136.5L321 137L321.534 137.089C323.175 137.363 324.836 137.5 326.5 137.5H327.5C327.776 137.5 328 137.724 328 138V138.342C328 138.729 328.263 139.066 328.638 139.16L329.457 139.364C329.812 139.453 330.184 139.439 330.531 139.323L330.828 139.224C331.27 139.077 331.671 138.829 332.001 138.499L332.486 138.014C332.827 137.673 333.209 137.374 333.623 137.126L335.5 136L337.969 134.942C338.65 134.65 339.269 134.231 339.793 133.707L340.97 132.53C341.309 132.191 341.5 131.73 341.5 131.25V131.207C341.5 130.754 341.32 130.32 341 130C340.68 129.68 340.246 129.5 339.793 129.5H339.135C338.715 129.5 338.3 129.58 337.911 129.736L336 130.5L333.444 131.778C333.149 131.926 332.84 132.046 332.523 132.136L329.899 132.886C329.653 132.956 329.388 132.888 329.207 132.707L329.123 132.623C329.044 132.544 329 132.438 329 132.327C329 132.135 328.869 131.967 328.683 131.921L327.401 131.6C327.136 131.534 326.861 131.52 326.591 131.558L324.333 131.881C323.778 131.96 323.219 132 322.658 132C321.558 132 320.463 131.847 319.405 131.544L317.5 131L314 129.5L311.959 128.275C311.653 128.092 311.334 127.934 311.004 127.801L310.031 127.412C309.361 127.144 308.623 127.094 307.923 127.269L307.72 127.32C307.249 127.438 306.819 127.681 306.475 128.025C305.863 128.637 305.584 129.507 305.727 130.36L305.827 130.965C305.94 131.643 306.232 132.278 306.672 132.806L307.265 133.518C308.075 134.489 309.122 135.233 310.306 135.677Z" fill="white" stroke="white" stroke-width="0.6"/>
<defs>
<filter id="filter0_f_6749_753" x="353" y="63.8853" width="61" height="46" filterUnits="userSpaceOnUse" color-interpolation-filters="sRGB">
<feFlood flood-opacity="0" result="BackgroundImageFix"/>
<feBlend mode="normal" in="SourceGraphic" in2="BackgroundImageFix" result="shape"/>
<feGaussianBlur stdDeviation="8" result="effect1_foregroundBlur_6749_753"/>
</filter>
<filter id="filter1_f_6749_753" x="239.69" y="56.6538" width="59.8459" height="47.2734" filterUnits="userSpaceOnUse" color-interpolation-filters="sRGB">
<feFlood flood-opacity="0" result="BackgroundImageFix"/>
<feBlend mode="normal" in="SourceGraphic" in2="BackgroundImageFix" result="shape"/>
<feGaussianBlur stdDeviation="8" result="effect1_foregroundBlur_6749_753"/>
</filter>
<linearGradient id="paint0_linear_6749_753" x1="247.25" y1="0.385257" x2="188.5" y2="679" gradientUnits="userSpaceOnUse">
<stop offset="0.984252"/>
<stop offset="1" stop-color="white"/>
</linearGradient>
</defs>
</svg>
