<svg xmlns="http://www.w3.org/2000/svg" width="240" height="240" fill="none"><path fill="#E31F25" fill-rule="evenodd" d="M120 240c66.274 0 120-53.726 120-120S186.274 0 120 0 0 53.726 0 120s53.726 120 120 120" clip-rule="evenodd"/><path fill="#fff" fill-rule="evenodd" d="M120 221.344c55.971 0 101.344-45.374 101.344-101.344S175.971 18.656 120 18.656 18.656 64.029 18.656 120 64.03 221.344 120 221.344" clip-rule="evenodd"/><path fill="#fff" fill-rule="evenodd" d="m42.261 62.5 20.24-20.239L197.739 177.5 177.5 197.739z" clip-rule="evenodd"/><path fill="#094025" fill-rule="evenodd" d="m121.285 73.426 11.462-7.59 13.115-27.221 10.606-20.763-.551-5.472c-.196-1.945 3.003-2.856 4.794-2.071l10.842 4.753 10.61 4.677c1.789.79 3.174 3.633 1.715 4.933l-4.375 3.898-7.94 20.752-10.869 28.837 2.12 12.567c.651 3.855 2.593 13.908.073 19.639l-50.934 115.861c-1.574 3.579-5.603 4.33-9.39 3.355-15.418-3.969-31.437-10.272-42.779-18.806-3.124-2.351-5.326-5.553-3.752-9.133l50.935-115.86c1.448-3.294 10.474-9.81 14.318-12.356" clip-rule="evenodd"/><path fill="#204926" fill-rule="evenodd" d="m133.429 66.747 13.044-25.972L157.57 18.01l-.678-4.634c-.278-1.899 1.723-2.894 3.383-1.943 3.428 1.963 6.511 4.72 10.284 5.89l10.705 3.322c1.827.567 2.907 2.456 1.476 3.735l-4.288 3.834-8.143 22.163-10.761 28.066c1.926 8.31 6.028 24.455 2.666 32.101l-50.046 113.841c-1.546 3.517-5.492 4.261-9.197 3.309-15.087-3.872-30.758-10.035-41.847-18.396-3.055-2.303-5.204-5.444-3.658-8.961l50.229-114.255c2.19-4.984 19.506-15.447 25.734-19.335" clip-rule="evenodd"/><mask id="a" width="21" height="12" x="157" y="11" maskUnits="userSpaceOnUse" style="mask-type:luminance"><path fill="#fff" d="M166.647 16.882c3.911 1.799 22.32 8.028 1.733 3.57-1.294-.28-14.728-7.75-10.158-8.553.545.718 5.312 3.552 8.425 4.983"/></mask><g fill-rule="evenodd" clip-rule="evenodd" mask="url(#a)"><path fill="#fff" d="M62.939-82.653h209.359V116.58H62.939z"/><path fill="#fff" d="M120 245.518c69.322 0 125.518-56.197 125.518-125.518C245.518 50.678 189.322-5.518 120-5.518 50.679-5.518-5.518 50.678-5.518 120c0 69.321 56.197 125.518 125.518 125.518"/><path fill="#F39A7D" d="M120 240c66.274 0 120-53.726 120-120S186.274 0 120 0 0 53.726 0 120s53.726 120 120 120"/><path fill="#fff" d="M120 221.344c55.971 0 101.344-45.374 101.344-101.344S175.971 18.656 120 18.656 18.656 64.029 18.656 120 64.03 221.344 120 221.344"/><path fill="#6E8B6F" d="m121.285 73.426 11.462-7.59 13.115-27.221 10.606-20.763-.551-5.472c-.196-1.945 3.003-2.856 4.794-2.071l10.842 4.753 10.61 4.677c1.789.79 3.174 3.633 1.715 4.933l-4.375 3.898-7.94 20.752-10.869 28.837 2.12 12.567c.651 3.855 2.593 13.908.073 19.639l-50.934 115.861c-1.574 3.579-5.603 4.33-9.39 3.355-15.418-3.969-31.437-10.272-42.779-18.806-3.124-2.351-5.326-5.553-3.752-9.133l50.935-115.86c1.448-3.294 10.474-9.81 14.318-12.356"/><path fill="#7E9472" d="m133.43 66.747 13.043-25.973L157.57 18.01l-.678-4.633c-.278-1.9 1.724-2.894 3.383-1.944 3.429 1.964 6.512 4.72 10.284 5.891l10.706 3.322c1.827.567 2.906 2.456 1.476 3.735l-4.289 3.834-8.142 22.162-10.762 28.066c1.927 8.312 6.028 24.456 2.667 32.102l-50.046 113.84c-1.547 3.518-5.493 4.261-9.198 3.31-15.086-3.873-30.757-10.036-41.847-18.396-3.054-2.304-5.204-5.444-3.657-8.962l50.228-114.255c2.191-4.983 19.506-15.446 25.735-19.334"/></g><mask id="b" width="102" height="140" x="59" y="84" maskUnits="userSpaceOnUse" style="mask-type:luminance"><path fill="#fff" d="M111.292 85.278c5.527-2.907 38.435 13.335 46.184 18.144.945.586 2.112 1.727 2.872 2.816l-51.959 117.427c-2.679-.193-4.359-1.415-10.076-1.977-6.703-.66-26.331-8.586-31.135-13.24-.43-.416-6.788-5.425-7.277-5.641z"/></mask><g fill-rule="evenodd" clip-rule="evenodd" mask="url(#b)"><path fill="#E6CFB8" d="M-34.437-9.62h289.123v327.836H-34.438z"/><path fill="#E6CFB8" d="M120 245.518c69.322 0 125.518-56.196 125.518-125.518S189.322-5.518 120-5.518C50.679-5.518-5.518 50.678-5.518 120S50.679 245.518 120 245.518"/><path fill="#D75535" d="M120 240c66.274 0 120-53.726 120-120S186.274 0 120 0 0 53.726 0 120s53.726 120 120 120"/><path fill="#E6CFB8" d="M120 221.344c55.971 0 101.344-45.373 101.344-101.344S175.971 18.656 120 18.656 18.656 64.03 18.656 120 64.03 221.344 120 221.344"/><path fill="#E6CFB8" d="m42.261 62.5 20.24-20.239L197.739 177.5 177.5 197.739z"/><path fill="#4B6036" d="m121.285 73.426 11.462-7.59 13.115-27.22 10.606-20.764-.551-5.472c-.196-1.945 3.003-2.856 4.794-2.071l10.842 4.753 10.61 4.678c1.789.788 3.174 3.632 1.715 4.932l-4.375 3.898-7.94 20.753-10.869 28.837 2.12 12.567c.651 3.855 2.593 13.907.073 19.639l-50.934 115.86c-1.574 3.579-5.603 4.331-9.39 3.356-15.418-3.97-31.437-10.273-42.779-18.807-3.124-2.351-5.326-5.553-3.752-9.133l50.935-115.86c1.448-3.294 10.474-9.81 14.318-12.356"/><path fill="#5A6836" d="m133.43 66.747 13.043-25.973L157.57 18.01l-.678-4.633c-.278-1.9 1.724-2.894 3.383-1.944 3.429 1.964 6.512 4.72 10.284 5.891l10.706 3.322c1.827.567 2.906 2.456 1.476 3.735l-4.289 3.834-8.142 22.162-10.762 28.066c1.927 8.312 6.028 24.456 2.667 32.102l-50.046 113.84c-1.547 3.518-5.493 4.261-9.198 3.31-15.086-3.873-30.757-10.036-41.847-18.396-3.054-2.304-5.204-5.444-3.657-8.962l50.228-114.255c2.191-4.983 19.506-15.446 25.735-19.334"/></g><mask id="c" width="68" height="139" x="60" y="84" maskUnits="userSpaceOnUse" style="mask-type:luminance"><path fill="#fff" d="M111.654 85.13a69 69 0 0 0-2.256 4.48L61.802 198.457c-.141 2.293-1.183 3.542-1.082 4.917 1.85 1.368 6.109 4.735 6.457 5.073 4.133 4.004 19.237 10.429 27.644 12.566 1.13.229 2.276.453 3.37.66l.122.014c2.411.237 4.104.591 5.457.936 1.729.224 1.559.013-2.545-1.024-11.746-2.967-9.97-4.073-20.136-9.071-4.423-2.175-11.1-5.236-6.258-9.746l.418-.509 46.132-105.073c.064-5.986 9.598 1.372 4.16-3.273-5.828-4.98-1.39-3.368-1.159-5.434a5 5 0 0 1 .122-.69c-5.852-2.139-10.724-3.372-12.85-2.673"/></mask><g fill-rule="evenodd" clip-rule="evenodd" mask="url(#c)"><path fill="#F1E4D7" d="M-33.72-10.12h259.037V317.4H-33.719z"/><path fill="#F1E4D7" d="M120 245.518c69.322 0 125.518-56.196 125.518-125.518S189.322-5.518 120-5.518C50.679-5.518-5.518 50.678-5.518 120S50.679 245.518 120 245.518"/><path fill="#EAA484" d="M120 240c66.274 0 120-53.726 120-120S186.274 0 120 0 0 53.726 0 120s53.726 120 120 120"/><path fill="#F1E4D7" d="M120 221.344c55.971 0 101.344-45.373 101.344-101.344S175.971 18.656 120 18.656 18.656 64.03 18.656 120 64.03 221.344 120 221.344"/><path fill="#F1E4D7" d="m42.261 62.5 20.24-20.239L197.739 177.5 177.5 197.739z"/><path fill="#919B7B" d="m121.285 73.426 11.462-7.59 13.115-27.22 10.606-20.764-.551-5.472c-.196-1.945 3.003-2.856 4.794-2.071l10.842 4.753 10.61 4.678c1.789.788 3.174 3.632 1.715 4.932l-4.375 3.898-7.94 20.753-10.869 28.837 2.12 12.567c.651 3.855 2.593 13.907.073 19.639l-50.934 115.86c-1.574 3.579-5.603 4.331-9.39 3.356-15.418-3.97-31.437-10.273-42.779-18.807-3.124-2.351-5.326-5.553-3.752-9.133l50.935-115.86c1.448-3.294 10.474-9.81 14.318-12.356"/><path fill="#9CA17D" d="m133.43 66.747 13.043-25.972L157.57 18.01l-.678-4.634c-.278-1.899 1.724-2.894 3.383-1.943 3.429 1.963 6.512 4.72 10.284 5.89l10.706 3.322c1.827.567 2.906 2.456 1.476 3.735l-4.289 3.834-8.142 22.163-10.762 28.066c1.927 8.31 6.028 24.455 2.667 32.101l-50.046 113.841c-1.547 3.517-5.493 4.261-9.198 3.309-15.086-3.872-30.757-10.035-41.847-18.396-3.054-2.303-5.204-5.444-3.657-8.961l50.228-114.255c2.191-4.984 19.506-15.447 25.735-19.335"/></g><mask id="d" width="24" height="12" x="157" y="14" maskUnits="userSpaceOnUse" style="mask-type:luminance"><path fill="#fff" d="M157.849 14.794c1.47 4.177 15.494 9.634 19.305 9.891.912.062 2.331.73 3.536.661.805-.046-2.633.269-3.478-.032-1.71-.609-2.405-.694-4.346-1.547-1.906-.838-2.6-1.277-4.714-1.648-.772-.135-6.306-2.355-6.619-2.585-.617-.455-3.954-3.288-3.914-3.579.045-.325.142-1.41.23-1.161"/></mask><g fill-rule="evenodd" clip-rule="evenodd" mask="url(#d)"><path fill="#89A088" d="M63.28-79.794h211.87v199.792H63.28z"/><path fill="#89A088" d="M120 245.518c69.322 0 125.519-56.196 125.519-125.518S189.322-5.518 120-5.518C50.679-5.518-5.518 50.678-5.518 120S50.68 245.518 120 245.518"/><path fill="#895328" d="M120 240c66.275 0 120-53.726 120-120S186.275 0 120 0C53.727 0 0 53.726 0 120s53.727 120 120 120"/><path fill="#89A088" d="M120 221.344c55.971 0 101.345-45.373 101.345-101.344S175.971 18.656 120 18.656 18.657 64.03 18.657 120 64.03 221.344 120 221.344"/><path fill="#094025" d="m121.286 73.426 11.462-7.59 13.114-27.22 10.607-20.764-.551-5.472c-.196-1.945 3.003-2.856 4.794-2.071l10.842 4.753 10.609 4.678c1.789.788 3.174 3.632 1.715 4.932l-4.374 3.898-7.941 20.753-10.869 28.837 2.12 12.567c.651 3.855 2.593 13.907.074 19.639l-50.934 115.86c-1.574 3.579-5.604 4.331-9.39 3.356-15.418-3.97-31.437-10.273-42.78-18.807-3.124-2.351-5.325-5.553-3.751-9.133l50.934-115.86c1.448-3.294 10.474-9.81 14.319-12.356"/><path fill="#174526" d="m133.43 66.747 13.044-25.973 11.097-22.765-.678-4.633c-.278-1.9 1.723-2.894 3.383-1.944 3.428 1.964 6.511 4.72 10.284 5.891l10.705 3.322c1.827.567 2.907 2.456 1.476 3.735l-4.288 3.834-8.143 22.162-10.761 28.066c1.926 8.312 6.028 24.456 2.666 32.102l-50.046 113.84c-1.546 3.518-5.492 4.261-9.197 3.31-15.087-3.873-30.758-10.036-41.847-18.396-3.055-2.304-5.204-5.444-3.658-8.962l50.229-114.255c2.19-4.983 19.506-15.446 25.734-19.334"/></g><mask id="e" width="35" height="22" x="74" y="202" maskUnits="userSpaceOnUse" style="mask-type:luminance"><path fill="#fff" d="M78.703 203.498c3.66 1.969 4.463 2.071 8.587 4.254 3.102 1.642 5.535 2.843 9.338 5.966 3.163 2.596 6.154 2.792 9.543 6.991.229.284 3.364 3.605 1.843 2.782-1.12-.605.135-2.022-3.465-3.888-1.719-.891-5.733-3.611-9.691-5.862-.748-.426-8.337-6.236-12.732-6.818-1.008-.134-10.4-5.294-6.019-3.741.558.198.694-.395.96-.404.198-.007 1.23 1.249 1.636.72"/></mask><g fill-rule="evenodd" clip-rule="evenodd" mask="url(#e)"><path fill="#89A088" d="M-19.39 108.226h222.157v209.947H-19.389z"/><path fill="#89A088" d="M120 245.518c69.322 0 125.518-56.196 125.518-125.518S189.322-5.518 120-5.518C50.679-5.518-5.518 50.678-5.518 120S50.679 245.518 120 245.518"/><path fill="#895328" d="M120 240c66.274 0 120-53.726 120-120S186.274 0 120 0 0 53.726 0 120s53.726 120 120 120"/><path fill="#89A088" d="M120 221.344c55.971 0 101.344-45.373 101.344-101.344S175.971 18.656 120 18.656 18.656 64.03 18.656 120 64.03 221.344 120 221.344"/><path fill="#094025" d="m121.285 73.426 11.462-7.59 13.115-27.221 10.606-20.763-.551-5.472c-.196-1.945 3.003-2.856 4.794-2.071l10.842 4.753 10.61 4.677c1.789.79 3.174 3.633 1.715 4.933l-4.375 3.898-7.94 20.752-10.869 28.837 2.12 12.567c.651 3.855 2.593 13.908.073 19.639l-50.934 115.861c-1.574 3.579-5.603 4.33-9.39 3.355-15.418-3.969-31.437-10.272-42.779-18.806-3.124-2.351-5.326-5.553-3.752-9.133l50.935-115.86c1.448-3.294 10.474-9.81 14.318-12.356"/><path fill="#174526" d="m133.43 66.747 13.043-25.973L157.57 18.01l-.678-4.633c-.278-1.9 1.724-2.894 3.383-1.944 3.429 1.964 6.512 4.72 10.284 5.891l10.706 3.322c1.827.567 2.906 2.456 1.476 3.735l-4.289 3.834-8.142 22.162-10.762 28.066c1.927 8.312 6.028 24.456 2.667 32.102l-50.046 113.84c-1.547 3.518-5.493 4.261-9.198 3.31-15.086-3.873-30.757-10.036-41.847-18.396-3.054-2.304-5.204-5.444-3.657-8.962l50.228-114.255c2.191-4.983 19.506-15.446 25.735-19.334"/></g><mask id="f" width="35" height="22" x="74" y="202" maskUnits="userSpaceOnUse" style="mask-type:luminance"><path fill="#fff" d="M78.703 203.498c3.66 1.969 4.463 2.071 8.587 4.254 3.102 1.642 5.535 2.843 9.338 5.966 3.163 2.596 6.154 2.792 9.543 6.991.229.284 3.364 3.605 1.843 2.782-1.12-.605.135-2.022-3.465-3.888-1.719-.891-5.733-3.611-9.691-5.862-.748-.426-8.337-6.236-12.732-6.818-1.008-.134-10.4-5.294-6.019-3.741.558.198.694-.395.96-.404.198-.007 1.23 1.249 1.636.72"/></mask><g fill-rule="evenodd" clip-rule="evenodd" mask="url(#f)"><path fill="#7F8C69" d="M-22.612 107.077h226.485v211.788H-22.612z"/><path fill="#7F8C69" d="M120 245.518c69.322 0 125.518-56.196 125.518-125.518S189.322-5.518 120-5.518C50.679-5.518-5.518 50.678-5.518 120S50.679 245.518 120 245.518"/><path fill="#816031" d="M120 240c66.274 0 120-53.726 120-120S186.274 0 120 0 0 53.726 0 120s53.726 120 120 120"/><path fill="#7F8C69" d="M120 221.344c55.971 0 101.344-45.373 101.344-101.344S175.971 18.656 120 18.656 18.656 64.03 18.656 120 64.03 221.344 120 221.344"/><path fill="#30532F" d="m121.285 73.426 11.462-7.59 13.115-27.221 10.606-20.763-.551-5.472c-.196-1.945 3.003-2.856 4.794-2.071l10.842 4.753 10.61 4.677c1.789.79 3.174 3.633 1.715 4.933l-4.375 3.898-7.94 20.752-10.869 28.837 2.12 12.567c.651 3.855 2.593 13.908.073 19.639l-50.934 115.861c-1.574 3.579-5.603 4.33-9.39 3.355-15.418-3.969-31.437-10.272-42.779-18.806-3.124-2.351-5.326-5.553-3.752-9.133l50.935-115.86c1.448-3.294 10.474-9.81 14.318-12.356"/><path fill="#39572F" d="m133.43 66.747 13.043-25.973L157.57 18.01l-.678-4.633c-.278-1.9 1.724-2.894 3.383-1.944 3.429 1.964 6.512 4.72 10.284 5.891l10.706 3.322c1.827.567 2.906 2.456 1.476 3.735l-4.289 3.834-8.142 22.162-10.762 28.066c1.927 8.312 6.028 24.456 2.667 32.102l-50.046 113.84c-1.547 3.518-5.493 4.261-9.198 3.31-15.086-3.873-30.757-10.036-41.847-18.396-3.054-2.304-5.204-5.444-3.657-8.962l50.228-114.255c2.191-4.983 19.506-15.446 25.735-19.334"/></g><mask id="g" width="49" height="24" x="111" y="84" maskUnits="userSpaceOnUse" style="mask-type:luminance"><path fill="#fff" d="M136.88 92.965c13.407 5.894 23.688 12.008 22.963 13.657s-12.181-1.793-25.588-7.687-23.688-12.008-22.963-13.657 12.181 1.793 25.588 7.687"/></mask><g fill-rule="evenodd" clip-rule="evenodd" mask="url(#g)"><path fill="#E9D5C1" d="M16.918-9.686h237.3v211.272h-237.3z"/><path fill="#E9D5C1" d="M120 245.518c69.322 0 125.518-56.196 125.518-125.518S189.322-5.518 120-5.518C50.679-5.518-5.518 50.678-5.518 120S50.679 245.518 120 245.518"/><path fill="#D85033" d="M120 240c66.274 0 120-53.726 120-120S186.274 0 120 0 0 53.726 0 120s53.726 120 120 120"/><path fill="#E9D5C1" d="M120 221.344c55.971 0 101.344-45.373 101.344-101.344S175.971 18.656 120 18.656 18.656 64.03 18.656 120 64.03 221.344 120 221.344"/><path fill="#E9D5C1" d="m42.261 62.5 20.24-20.239L197.739 177.5 177.5 197.739z"/><path fill="#425C33" d="m121.285 73.426 11.462-7.59 13.115-27.221 10.606-20.763-.551-5.472c-.196-1.945 3.003-2.856 4.794-2.071l10.842 4.753 10.61 4.677c1.789.79 3.174 3.633 1.715 4.933l-4.375 3.898-7.94 20.752-10.869 28.837 2.12 12.567c.651 3.855 2.593 13.908.073 19.639l-50.934 115.861c-1.574 3.579-5.603 4.33-9.39 3.355-15.418-3.969-31.437-10.272-42.779-18.806-3.124-2.351-5.326-5.553-3.752-9.133l50.935-115.86c1.448-3.294 10.474-9.81 14.318-12.356"/><path fill="#526433" d="m133.43 66.747 13.043-25.973L157.57 18.01l-.678-4.633c-.278-1.9 1.724-2.894 3.383-1.944 3.429 1.964 6.512 4.72 10.284 5.891l10.706 3.322c1.827.567 2.906 2.456 1.476 3.735l-4.289 3.834-8.142 22.162-10.762 28.066c1.927 8.312 6.028 24.456 2.667 32.102l-50.046 113.84c-1.547 3.518-5.493 4.261-9.198 3.31-15.086-3.873-30.757-10.036-41.847-18.396-3.054-2.304-5.204-5.444-3.657-8.962l50.228-114.255c2.191-4.983 19.506-15.446 25.735-19.334"/></g><mask id="h" width="49" height="24" x="111" y="84" maskUnits="userSpaceOnUse" style="mask-type:luminance"><path fill="#fff" d="M136.88 92.964q1.306.575 2.568 1.15a287 287 0 0 1 9.05 4.405c7.227 3.786 11.838 6.98 11.345 8.103-.725 1.649-12.181-1.793-25.588-7.687s-23.688-12.008-22.963-13.657c.543-.286 1.354-.384 2.377-.329 4.137.534 13.122 3.58 23.211 8.015"/></mask><g fill-rule="evenodd" clip-rule="evenodd" mask="url(#h)"><path fill="#DAB795" d="M16.229-9.658h238.446v212.48H16.229z"/><path fill="#DAB795" d="M120 245.518c69.322 0 125.518-56.197 125.518-125.518C245.518 50.678 189.322-5.518 120-5.518 50.679-5.518-5.518 50.678-5.518 120c0 69.321 56.197 125.518 125.518 125.518"/><path fill="#D06B40" d="M120 240c66.274 0 120-53.726 120-120S186.274 0 120 0 0 53.726 0 120s53.726 120 120 120"/><path fill="#DAB795" d="M120 221.344c55.971 0 101.344-45.374 101.344-101.344S175.971 18.656 120 18.656 18.656 64.029 18.656 120 64.03 221.344 120 221.344"/><path fill="#DAB795" d="m42.261 62.5 20.24-20.239 135.238 135.238-20.239 20.24z"/><path fill="#727040" d="m121.285 73.426 11.462-7.59 13.115-27.221 10.606-20.763-.551-5.472c-.196-1.945 3.003-2.856 4.794-2.071l10.842 4.753 10.61 4.677c1.789.79 3.174 3.633 1.715 4.933l-4.375 3.898-7.94 20.752-10.869 28.837 2.12 12.567c.651 3.855 2.593 13.908.073 19.639l-50.934 115.861c-1.574 3.579-5.603 4.33-9.39 3.355-15.418-3.969-31.437-10.272-42.779-18.806-3.124-2.351-5.326-5.553-3.752-9.133l50.935-115.86c1.448-3.294 10.474-9.81 14.318-12.356"/><path fill="#7D7640" d="m133.43 66.747 13.043-25.973L157.57 18.01l-.678-4.633c-.278-1.9 1.724-2.894 3.383-1.944 3.429 1.964 6.512 4.72 10.284 5.891l10.706 3.322c1.827.567 2.906 2.456 1.476 3.735l-4.289 3.834-8.142 22.162-10.762 28.066c1.927 8.312 6.028 24.456 2.667 32.102l-50.046 113.84c-1.547 3.518-5.493 4.261-9.198 3.31-15.086-3.873-30.757-10.036-41.847-18.396-3.054-2.304-5.204-5.444-3.657-8.962l50.228-114.255c2.191-4.983 19.506-15.446 25.735-19.334"/></g><mask id="i" width="17" height="12" x="111" y="84" maskUnits="userSpaceOnUse" style="mask-type:luminance"><path fill="#fff" d="M126.789 95.478c-8.616-4.207-14.775-8.047-15.468-9.731l.429-.794c1.5-.43 6.296.752 12.71 3.037q-.045.215-.078.504c-.231 2.066-4.669.455 1.159 5.434 1.909 1.63 1.972 1.782 1.248 1.55"/></mask><g fill-rule="evenodd" clip-rule="evenodd" mask="url(#i)"><path fill="#E9D5C1" d="M16.983-10.028h204.868v200.289H16.983z"/><path fill="#E9D5C1" d="M120 245.518c69.322 0 125.518-56.196 125.518-125.518S189.322-5.518 120-5.518C50.679-5.518-5.518 50.678-5.518 120S50.679 245.518 120 245.518"/><path fill="#E18F6A" d="M120 240c66.274 0 120-53.726 120-120S186.274 0 120 0 0 53.726 0 120s53.726 120 120 120"/><path fill="#E9D5C1" d="M120 221.344c55.971 0 101.344-45.373 101.344-101.344S175.971 18.656 120 18.656 18.656 64.03 18.656 120 64.03 221.344 120 221.344"/><path fill="#E9D5C1" d="m42.261 62.5 20.24-20.239L197.739 177.5 177.5 197.739z"/><path fill="#858A64" d="m121.285 73.426 11.462-7.59 13.115-27.22 10.606-20.764-.551-5.472c-.196-1.945 3.003-2.856 4.794-2.071l10.842 4.753 10.61 4.678c1.789.788 3.174 3.632 1.715 4.932l-4.375 3.898-7.94 20.753-10.869 28.837 2.12 12.567c.651 3.855 2.593 13.907.073 19.639l-50.934 115.86c-1.574 3.579-5.603 4.331-9.39 3.356-15.418-3.97-31.437-10.273-42.779-18.807-3.124-2.351-5.326-5.553-3.752-9.133l50.935-115.86c1.448-3.294 10.474-9.81 14.318-12.356"/><path fill="#909166" d="m133.43 66.747 13.043-25.973L157.57 18.01l-.678-4.633c-.278-1.9 1.724-2.894 3.383-1.944 3.429 1.964 6.512 4.72 10.284 5.891l10.706 3.322c1.827.567 2.906 2.456 1.476 3.735l-4.289 3.834-8.142 22.162-10.762 28.066c1.927 8.312 6.028 24.456 2.667 32.102l-50.046 113.84c-1.547 3.518-5.493 4.261-9.198 3.31-15.086-3.873-30.757-10.036-41.847-18.396-3.054-2.304-5.204-5.444-3.657-8.962l50.228-114.255c2.191-4.983 19.506-15.446 25.735-19.334"/></g><mask id="j" width="17" height="12" x="111" y="84" maskUnits="userSpaceOnUse" style="mask-type:luminance"><path fill="#fff" d="M126.789 95.478c-8.616-4.207-14.775-8.047-15.468-9.731l.333-.616c.516-.17 1.195-.226 2.011-.182 2.306.297 6.121 1.375 10.795 3.041q-.045.215-.078.504c-.231 2.066-4.669.455 1.159 5.434 1.909 1.63 1.972 1.782 1.248 1.55"/></mask><g fill-rule="evenodd" clip-rule="evenodd" mask="url(#j)"><path fill="#E1C4A9" d="M16.983-9.646h204.868V190.26H16.983z"/><path fill="#E1C4A9" d="M120 245.518c69.322 0 125.518-56.197 125.518-125.518C245.518 50.678 189.322-5.518 120-5.518 50.679-5.518-5.518 50.678-5.518 120c0 69.321 56.197 125.518 125.518 125.518"/><path fill="#DC9B75" d="M120 240c66.274 0 120-53.726 120-120S186.274 0 120 0 0 53.726 0 120s53.726 120 120 120"/><path fill="#E1C4A9" d="M120 221.344c55.971 0 101.344-45.374 101.344-101.344S175.971 18.656 120 18.656 18.656 64.029 18.656 120 64.03 221.344 120 221.344"/><path fill="#E1C4A9" d="m42.261 62.5 20.24-20.239 135.238 135.238-20.239 20.24z"/><path fill="#A49971" d="m121.285 73.426 11.462-7.59 13.115-27.221 10.606-20.763-.551-5.472c-.196-1.945 3.003-2.856 4.794-2.071l10.842 4.753 10.61 4.677c1.789.79 3.174 3.633 1.715 4.933l-4.375 3.898-7.94 20.752-10.869 28.837 2.12 12.567c.651 3.855 2.593 13.908.073 19.639l-50.934 115.861c-1.574 3.579-5.603 4.33-9.39 3.355-15.418-3.969-31.437-10.272-42.779-18.806-3.124-2.351-5.326-5.553-3.752-9.133l50.935-115.86c1.448-3.294 10.474-9.81 14.318-12.356"/><path fill="#AB9D72" d="m133.43 66.747 13.043-25.973L157.57 18.01l-.678-4.633c-.278-1.9 1.724-2.894 3.383-1.944 3.429 1.964 6.512 4.72 10.284 5.891l10.706 3.322c1.827.567 2.906 2.456 1.476 3.735l-4.289 3.834-8.142 22.162-10.762 28.066c1.927 8.312 6.028 24.456 2.667 32.102l-50.046 113.84c-1.547 3.518-5.493 4.261-9.198 3.31-15.086-3.873-30.757-10.036-41.847-18.396-3.054-2.304-5.204-5.444-3.657-8.962l50.228-114.255c2.191-4.983 19.506-15.446 25.735-19.334"/></g><path fill="#094025" fill-rule="evenodd" d="M101.867 97.38c2.737 4.16 18.246 11.545 44.28 21.216l-42.844 97.458c-17.568-5.779-34.83-12.758-44.28-21.216z" clip-rule="evenodd"/><path fill="#EAE7E7" fill-rule="evenodd" d="M100.962 101.396c9.837 6.578 14.244 9.559 42.775 20.061-1.769 4.021-1.128 2.579-1.883 4.169-17.933-5.097-31.753-11.503-43.044-19.333zM62.466 188.965c9.836 6.578 14.243 9.559 42.774 20.061-1.769 4.021-1.128 2.579-1.883 4.169-17.933-5.097-31.753-11.503-43.044-19.334z" clip-rule="evenodd"/><path fill="#EAE7E7" fill-rule="evenodd" d="M97.95 108.249c9.981 6.74 14.378 10.113 43.006 19.535-.885 2.01-.562 1.29-.963 2.074-17.811-5.149-31.688-11.426-43.12-19.161zM64.325 184.735c9.982 6.739 14.378 10.113 43.006 19.534-.885 2.01-.561 1.291-.962 2.075-17.811-5.149-31.689-11.427-43.12-19.161z" clip-rule="evenodd"/><path fill="#9C6D41" fill-rule="evenodd" d="M106.394 120.105c8.483 3.729 8.76 21.766.618 40.286s-21.968 30.169-30.101 26.781c-4.713-1.963-7.117-9.132-6.503-18.231 7.328-16.669 9.44-21.475 18.194-41.384 6.055-6.729 12.895-9.605 17.792-7.452" clip-rule="evenodd"/><path fill="#2B2B2A" d="M105.203 121.223c3.97 1.745 5.918 8.843 6.021 15.512.1 6.521-2.077 14.744-5.706 23-3.576 8.134-9.069 14.987-13.907 19.291-5.09 4.528-11.032 7.695-14.897 6.086-2.217-.924-3.61-4.968-4.65-7.883-.715-2.006-1.363-6.072-1.458-8.736.402-.103.613-1.922.952-2.167.056 2.741.86 8.503 1.58 10.523.931 2.612 2.111 6.421 4.017 7.215 3.43 1.428 8.94-1.653 13.7-5.887 4.72-4.2 10.107-10.915 13.619-18.902 3.565-8.11 5.711-16.161 5.613-22.524-.095-6.215-1.817-12.934-5.343-14.484-2.014-.885-6.16.912-8.733 1.989-2.021.847-5.18 3.055-7.247 4.889-.137.121-1.418 1.433-1.545 1.557.293-.667 1.187-2.08.95-2.293-.021-.027.535-.419.512-.446 2.267-2.196 4.62-3.805 6.891-4.757 2.865-1.199 7.32-2.999 9.631-1.983"/><path fill="#E31F25" fill-rule="evenodd" d="m33.091 46.283 160.626 160.625 13.191-13.192L46.283 33.092z" clip-rule="evenodd"/></svg>