<svg xmlns="http://www.w3.org/2000/svg" width="240" height="240" fill="none"><path fill="#fff" fill-rule="evenodd" d="M120 221.3a101.3 101.3 0 1 0 0-202.6 101.3 101.3 0 0 0 0 202.6" clip-rule="evenodd"/><path fill="#2B2B2A" fill-rule="evenodd" stroke="#2B2B2A" stroke-miterlimit="22.9" stroke-width=".8" d="M18.7 129.6h202.6v5.1h-20.7v51a95 95 0 0 1-2.8 3.2v-54.2h-22v71.7a103 103 0 0 1-2.8 1.6v-73.3h-22V217l-2.8.8v-83.1h-22v86.5h-2.8v-86.5h-22v85.1l-2.8-.5v-84.6h-22v78l-2.7-1.3v-76.7h-22v63.2a97 97 0 0 1-2.8-2.4v-60.8H27V167a84 84 0 0 1-2.8-6.4v-26h-5.6a82 82 0 0 1 0-3.8v-1.3Z" clip-rule="evenodd"/><path fill="#E31F25" fill-rule="evenodd" d="M120 240a120 120 0 1 0 0-240 120 120 0 0 0 0 240M54.3 42.8 198 184.6A101.3 101.3 0 0 0 54.3 42.9M183 199.2 39.7 58.2A101.3 101.3 0 0 0 183 199.4" clip-rule="evenodd"/><path fill="#1C1613" fill-rule="evenodd" d="M133.5 190.9c-1.4.3-4 .9-5.3 0-1.6-.3-2-1.2-1.9-2.9.1-.3-.2-.3.2-.3.5-.8.9-.8 1.2-1.6 1 .2 1.4 2.2 5.6 1.8 3.9-.2 7.3-3.2 9-6.3 1-2 1.7-5 2.1-5.4.6 2.1-.4 3.3-1.3 4.7-1.7 2.9-2.7 6.6-4.8 8.1-1.2 1-3 1.6-4.8 1.9m-28.8-15c-2.2 1.2-5 .7-6.1-1-.4-1-.4-1.3-.2-2.5.2-.8.2-.9.7-1.2.5-1.4 2.3-2.3 2.6-2.9-2.2 6 4.6 5.8 9.2 1 1.9-2.2 5.7-8.5 6.2-12.5 1 3.3.6 3.7-.8 6.2-1.7 3-3.3 7.4-6.2 10-1 1-3.5 2.6-5.4 3m69.9-39.6c1-.2 1-.8 1.4-1.3.6-.5 2.8-1 3.7-1.4 0 .8-1.8 3.9-1.7 5.3 0 1 1 2.2 2.7-1 1.2-2.1 2.2-1.1 4-3.3 2.3-2.6 1.2-5.4-.7-6.7-6-4-5.3-3.8-7.4-12.5-1.3-5-2.2-11.9-2.8-17.1 2.8-1 5.6-4.8 6-7.3 0 3-1.6 5.4-2.8 7.2 2.7.3 4.4-.8 5.5-2.5 1.3-2 1.6-3.9 1.8-6.5.5.4 1.3 1.2 2.4 1.3 1.6.2 2.1-.4 3-1-2-.1-2.7-.6-3.3-2-.6-1.4-.7-3-.7-4.6 0-9.6-1.7-19.5-2-30.1-.1-7.8-2-30.2-12.4-30.3a8 8 0 0 0-2.6-2.9l-3.9-2c-4.5-1.7-8-1.7-9.4-2.2h-6.2c-1.7.8-8 .5-14 6.3-3.7 3.7-.3 1.2-5.7 4.3a23.7 23.7 0 0 0-10.3 9.7c-2 4-1.7 11.3.8 14l1.4 1.3c1 .8.5 1.2 2.3 2.9 1.9 1.8 2.4.7 3.7 1.4-.6.2-.2 0-.5 0l-.6.2c.7.2.6 0 .9.6h-1.4l1.3.8.3.4.3-1.6v-.6l.2-.2.2-.2c.5-.7 1-1.5 2.3-1.3 1 .2 1.4 1 1.9 2 1 1.8 1.1 3.8.8 6-.3 1.7-1 3.6-2.3 3.9-1.6.3-2.8-1.8-3.1-3.1l-.1-.6-.8-3.9c-.1 5.2.5 10.3 3.2 14.5 3.2 5 4 2.7 4.8 7 .4 1.6.7 3.4.8 5.2.3 4.7-.2 6.2-2.3 8.8l-.3.4c1.3 0 2-.5 2.9-.9l-4.8 7.9a39 39 0 0 1-5.6-5.4c-2.7-3.6-3.5-7.3-5-11.3-1.2-3-2-3.5-3.2-7.7-.5-1.4-.5-3.7-2.2-3.2-1.5.9.5 5.8.4 6.3-.1.6-.5.8-.6 2-1.3 0-.8-.1-2 .3-2.3.8-2.1-1-2.6 2.4-2.1.8-1.8 1.2-.8 4.4.4 1.7.8 4 2.7 4.2l.5-1.1c4.2 7.4 5.2 1.9 8 5.3 1 1.1 2 3 2.7 4.3l2.9 4c2.2 3 5.2 5.2 8.2 1.4l1.5-1.8 1.5-2.1 2.7-4.2c1 1.5.8 2.2 2.2 3.8.8 1 .5 1 .6 3 .2 3.3.3 6.2.9 9.3-5.8-1.2-7.5-2.6-14-1.3l.6.3c.8.1 7.5-1.4 11 2.3 2.5 2.7 2.8 10-3 8.2-4.5-1.4-6.9-6-9.7-2-4.4 5.9-2.5 11.5-7.8 22l-5.3 9.6c-.5 2 0 4.6-1.8 5.6-1.4.7-1.1.2-2 1.8l-1.1 2.7c-1.2 2.6-4 7.9-8 6.7-1-.6-.2-2 .1-2.8.5-1 .4-.4 0-.8-1.3.6-4.7 3.7-5 5.8-1.1 5.6 7.7 5.6 13.2-.2 2.6-2.7 4.2-7.2 6-10.2.9-1.3 1.1-2.6.7-4.4-.5-2.2-1.3-2-.1-3.8 3.1-5 7.6-12.5 10-17.7.9 1.2 1.1 4 1.8 5.4h.3c-.4-2.5-1.7-5-2-7.4-.4-2.3-.5-6.4 1.6-7.3 3.5-1.6 6.2 8.4 7.1 11.5 1.8 6.2 4.7 28.3 2.2 33.6-1.4-.2-1.2-1.3-1.9-4.1l-1.3-5.2c-.3-1.4-1-3-1.4-4.6l-1.1-4.9-1.2-4.9c-.4-1.7-1-3-1.2-4.7l-.1-.1c-.4 0-.1-1-.3.1l4.8 18.9c2 7.5 3.1 9.1.2 13.6-.6.8-1.9 3-2.6 3.4-.4 1.2-1.3 1.4-1.7 2.6l.4-.3 1.8-2.4 1-1 1.1-1.3c1-.3 1.4-1.2 2.8-1.1 2 3.3-.8 8.9-4.4 10-1.6.6-5.7.7-3.7-2.2.7-.9 1.3-.8.5-1-.4 0-.2 0-.6.5l-1.7 2-.3.6c-1.1.3-2.3 2-2.2 3 .1 1.4 1.7 2.2 3 2.5a16 16 0 0 0 8.8-1.6c1.6-.8 1.9-1 2.8-2.4 1-1.6 2.3-5 3.6-7 .9-1.4 1.3-2 1.1-4.2-.3-1.9-1.5-2.8-2.4-3.8-1-1-.7-4.1-.8-5.7-.4-7.8-1.2-21.6-3.2-28.7-.5-1.6-1.3-3.4-1.6-4.8l1.1.1c3.3.5 6.8 1 10.1 1.3 5.8.6 16.1 1.8 20.8-1.7 3.9-2.8 3.8-6.5 3-11.3-1.3-7-3.3-9-5.2-14a8.3 8.3 0 0 1-.4-4.3c.2-.9.8-3.1 1.2-3.7 1.3 5.4 1.8 10.9 3.6 16.2a87 87 0 0 0 2.9 7.2c.4.9 1.2 2.7 1.3 3.7.1 1.6-1.7 2.2-1.5 4.5.2 1.8-2 5.7.8 5m1.5-2c.2-1 .2-2.2.7-3 1 0 2.9.5 3.1 1.4-.6.8-2.4 1.4-3.8 1.6m-2.1-32v.5l1.1 7.3c.5 2.5 1.2 5 1.5 7.4l1.5 5.6 1.2 2 1.9 1.4c2 1.6 4.7 2.3 4.3 5.8 0-1 0-1.6-.6-2.3 0 1.6 0 3-.8 4.4l-.8.9c1-2 1.5-2.8 0-5 .3 3.2 1 3.7-1.5 5.9.6-1.4 1.2-1.3.6-3.5l-.4.9c.5 1.4-.5 2.4-1.1 3.4-.8 1-1 2.4-2.4 2.4-.6-2 .5-2.2 1.1-3.2.7-1 .3-2.1.7-3.4v-.2a1.3 1.3 0 0 1 .1-.1c-.3-.9-2-2.3-2-2h-.2c-3.6.6-1.4 2.4-2.8 4.6-.3.4-1 1.1-1.6.7-.3-.3-.3.6-.1-.6.1-.7.4-.7.5-3.1.1-2 0-2.4 1-3.6 1.3-2-.7-5.2-1.5-7a93 93 0 0 1-2.6-7c-.6-1.9-3.5-14.8-3.4-16.2 1.5-.4 1.7-.2 2.4-1.4l.1.1c.1.3 1.5.5 1.9.7h.2l-1.4.9c.8.3 1.6-.1 2.5 0zm-32-19c.5-.6.9-.8 2-.8.5.7.7 1.5 1.3 2.3 3 4 11.7 3 14.3-2.4 1.3-2.8-.1-2.4 2.3-2.8h1.2c.9.3.8.3 1 .8 1.3.4 1.3 12.1 1 13.7a8 8 0 0 1-.5 2c-.4.8-.8 1-1 1.4 2.2.4 2.5-.4 3.9-1.2-.3 1.5-.7.5-.5 1.8 0 .1.1-.2.1.5.1 1-1.3 3.7-1.3 5.8-.1 3 1.6 5.6 2.6 8 1.8 4 5 12.4 2.8 17.4-2.3 5.2-9.4 5.3-16.2 5-5.7-.3-11.5-1-17-1.8-1.3-.2-1.2-.2-1.5-1.3 3.5-.2 6.2.2 8.4-2.1 2.8-3 2.3-8.7.7-12.5-.6-1.3-1.3-2.2-1.5-3.8-.6-2.8-.7-7-.8-10 1 .2.9.6 2 .9 1 .2 1.6 0 2.4 0-1-.5-4.5 0-5.5-3-1.8-1.5-3.3-7 0-11.1-.7-1.6-2.1-2-3-3.6.4-1 1.8-2.6 2.8-3.1m-14.4-34.2.4-2.7c.2-1.2.8-2.5 1.8-2.8l4 .6c1.4 0 2.6 0 4-.4 1.3-.4 2.7-.4 4.1-.6 2.4-.5 4.8-1.4 6.7-2.5 2.5-1.3 3.6-2.5 5.3-4.1 1.3 11.6 2.4 11.4 6 20.7.5 1.1 2 6.3 2.2 6.7 1.3-.5.4-2.8.5-4.4a7.6 7.6 0 0 1 .5-2.2c.3-.9.5-1.1 1.3-1.4 2.1-.8 3.5 2 3.7 3.9.3 2.5-.3 5-1.4 6.7-1.2 1.3-1.7.7-3 .3-1 2.6-3.6 5.9-5 7.6-2.5 3-4.6 3.5-6.8 4.8l-.5.4c1 0 1.9-.8 3-1.1l.3.8c.2-1.9 0-.7 2.5-3l4.2-4.8 1.7-2.5 1.4 10.6c-.8-.2-3-1.1-4.6 0-.4.3-.2 0-.2 1v.1c-.6 1.4-1 2.4-1.8 3.3-.9.9-2.2 1.7-3.7 2-4.5 1.8-8.7-.2-9.7-3.8l2.6.2h1v-.3c-3.6-.4-4.8-.8-7.1 1.4-3 2.9-1.5 2-2.5 4.2-.3.5-.5 1.2-.8 1.5.7 0 0-.7.6.3.5-.7 1-1.2 1.2-2 1.1.7 1.3 1.4 2.3 2-.5 1.3-1.2 1.8-1.6 3.4-1.3 4.7 2.2 2.3-4 10.5-.8 1.2-3.2 4.7-5.1 4.6-1.2 0-2.7-1.3-3.2-1.8-.4-.3-1.9-2.4-2.2-3v.2a39 39 0 0 1-3.2-4.8c-.5-1-.8-1.4-1.5-2.3-.7-1-1-1.4-2.9-1.3-2.3.5-4.4-2.1-5-4l-.6-1.4c.8.1 1.4.4 2.2 0-3.6 0-2.8-2.7-4-4.9 0 4.4 2.7 4.5 1.1 7.3-1.2-.6-2.8-5.5-2.6-7.3a6 6 0 0 1 1.5-.6c.1-1 0-1.2.3-2 1-.3 1 0 2-.3 1.3-.5 1-.3 2.4 0-.1-1.2 0-2 .6-2.5v-.3c-.7-1.6-1.8-4.8-.5-6 1 .6 1.5 4.3 2.8 7 1 2.3 2.4 4.8 3 7.4-.5-.5-.8-1.1-1.2-1.7-.5-.7-.9-1.1-1.3-1.9-.6-1-1.7-3.3-1.9-4.4-.8 2 3.4 6.9 4.4 9.3.3.8.2.4.4.3.2 0-.5-1.4 1 1.7.7 1.6 2.3 4.6 3.5 5.8l4.9 4.6v-.2l.4-.4c.2-.3-.1-.1.4-.5.7-1.5 2-3.5 2.9-4.9.8-1.3 2-3.5 3-4.5l-.1-.3c-.7-1 0 1.3-3.5 2.3.7-.4.6-.9 1.2-1.6.2-1.5.6-2.1.7-3.8v-4.6c-.4-.6-.5-2-.6-3-.3-1.2-.6-2-.3-2.7l-1.4-1.1c-3.6-2.9-6.6-9-6.4-13.5.2 1.2 1 2.4 2 2.8l-1 .9c1-.3 1.6-.7 2.9-.3v-.2c.5-.7 1.4-1 2-3.3.6-2.3.2-3.4 0-5.6l.6 1c0-1.5-.5-2.2-1-3.5 0 0 0-.1 0 0l-1-.9c-.2-.2-.8-.6-1.3-.6-.9-.1-1.6.1-2.1.7l-.7.7c-.1-1.3.3-1.6 0-3.2l.2-.7-.2.4-.2.7v2.3c-.2 1.6.2.6-.5 1l-.4-.6c-.7-.4-1.8-2.4-2.2-3.7-.5-1.9-.4-3.6-.1-5.4.3-2 .6-2.3 1.3-3.7l3.7 2c-.5.7-2 1.4-2 4.8v1.5c.3.7.1.3.3.5zm-8.6-2.5c-.3-1.3-.6-2-.6-3.6v-4a18.5 18.5 0 0 1 4.6-8c1.2-1 5.5-4.6 7.6-5 1.2-1.3 2-.8 4.6-3.6 5.6-6.3 14.7-7.5 23-6.2 1.5.2 3 .9 4.4 1a21 21 0 0 1 7 3.5l.8.9.4 1.1c2.5.5 2.6.2 4.4 1.5 3.8 3.8 5 7.6 6.4 13.2 1.6 6 1.7 11.9 1.8 18 .2 6.2 1 12.2 1.5 18.3.2 3.6 0 11.2 1 13.7 1 2 1 1.4 2.5 2.4-3.8 1.1-5-2.6-5.3-5.4l.1-.5c-1.5 1 1.8 3.7.1 9-.4 1.3-1 2.5-1.8 3.3-.9 1-2 1.6-3.8 1.6 1-2 2.6-3.7 2.7-7.2l.2-4.6c0-1-.5-4.3-.4-4.4-.5 5 1.2 7-2.5 12.8a8.4 8.4 0 0 1-5.5 3.8c.3-.6 2.8-2.8 3.2-4.3-1.6.6-1.9 3.1-4.4 3-.8-1.6 2-3.6 2.3-9.4v-.9l-.2-.5a.8.8 0 0 0-.1-.2l-.2 3.3c-.8 3-1 5.2-3 7.6-.4.5-1.3 1.1-2.4.8 1.2-1.6 2.2-3.4 2.4-6 .2-2.4.7-5.4.3-7.8-.3 3.3-.1 12.8-5.6 13.3 2-3.9 1.2-10.4.6-15L163.8 71c-.3-2-.4-1.6 0-3.5 5.3 1.6 5.2-7.2 4-9.7-.8-1.8-2.8-3.5-4.6-1.3-1.5 1.9-.8 4.5-.8 6.9v-.2l-.4-.7-.2-1-1.7-5c-3.2-7.5-5.5-11.4-6-21-.3.4-1.3 2-2.4 2.8-1 .8-2 1.5-3.2 2.2-1.7 1-5.6 2.4-8 2.6-.3-.7 0 .5 0-.2v-.2c-3 1.5-8.3 1.8-11.7-.2l-1.5-.8c-.6-.4-.8-.7-1.7-.8-1.5 2.5-2 3.6-1.9 7.1 0 1.9.6 3.7 1.6 5.1.5.7.7.8 1 1.5-1.3 0-1.9-.4-2.6-1.2-.8-.9-.9-1.2-1.5-2.3-.8-1.3-.9 0-2-1.8a9.6 9.6 0 0 1-1.2-2.6" clip-rule="evenodd"/><path fill="#F8CFA3" fill-rule="evenodd" d="M148.6 72.8c-.6 1.6-1.2 2.7-2.7 3.2-2 .7-3 0-4-1-3.3-3.8-5.6-1.3-7-3 1.5.5 3 .5 4.3-.4.5-.5.8-.5 1.6-.8 2-.6 4.1-.2 6.3-.1 1.2 0 3-.2 2.2-1.8 1.4.8.2.8-.2 2.2a19 19 0 0 0-.5 1.7m-15-6.8c1.5-1.3.9-.2 2-1.1l.2-.3c-.2 1.2-.3.5.3 1.5-2.8-.9-2.9.3-1.5 2.2-.8-.5-1.2-1-1-2.3m19-13.5c.8.3.3 0 .7.4-.9.4-.5 0-.8.7h1.2l-.9.7c-.3-.2-.5 0-.6-.7.9 2.5 1.7 5.6 0 8h1.7c-2 1-1.6-.2-4 2.5 0 1.3-.3.7-1.2 1.3l.3-1.1-.1-.1-.5-.1c-2.6-.6-4.8-2.9-5-5.5l-.7-.2c-.4-.3-.2.1-.4-.5-.4-1.1.3-6.1.9-7.2a4.5 4.5 0 0 1 1.7-1.7l.4-.3c1.5-.6 3.3-.4 4.6.8.6.6 1.2.9 1.7 1.6 1 1 .7 1.4 1 1.4m-5.2-8.2c1.7.5 3.6 1.8 4.1 3.4-1.3-.5-2.7-2.3-5-2.4-2.5 0-3 1.8-4 3.5 0-2 .6-3 1.6-4-1.5 0-3.5 1.3-8.6 1.1-4.5-.1-5.4-1.5-7.3.4l-.2.3-.4 2.7c.9-.4 1.5-1 2.7-.2.9.7.9 1 1.5 2.2l-.2.5c.3 0 .6.1.9.6.8 1.4 0 1 0 1l.5 1c.4 1.3.9 2 1 3.5l-.7-1c.2 2.2.6 3.3 0 5.6s-1.5 2.6-2 3.3v.2c-1.3-.4-1.9 0-3 .3l1-1c-.8-.3-1.7-1.5-2-2.7a19.2 19.2 0 0 0 6.5 13.5c.4.3 1 .6 1.4 1.1 1.6.6 3.8 2.2 5.6 2.3 4.8 1.1 7.3 1.2 11.8-1 2.8-1.4 5.4-4.1 6.6-7.4 2.8-7.8-2-13.6-4.3-22-2.8-11-6.7-5.7-9.4-5.1 1 0 1-.2 1.9.3" clip-rule="evenodd"/><path fill="#B98D5E" fill-rule="evenodd" d="M167.3 70.1c1.3.6 1 2.4 2 2.6l.2-3.1c.4.2.4-.3.9 1.6a56 56 0 0 1 1.3 15.4c-1.4-1-.3-8.8-2.2-10.3-1 3 .3 9.7-1.5 11.8-.7-1.4-.4-7.1-.5-9.3-.2-2.4-1-7-.2-8.7m2-35.1c1 .4 1.5 1.5 2 2.6 1.1 2 .8 2.6 2 3l-1-7.7c1 .2.6 0 1.1.8 1.9 2.7 3.6 7.7 4.1 8.4.8-2-.4-7 .3-8.7.8.4 1.2 2.2 1.4 3 1.7 6.3 2 13.9 1.4 20.4a48 48 0 0 1-.5 4c-.3 1.6-.4 2.5-1.5 2.8-1-1.5-1.3-4.3-1.4-6.7 0-1.2 0-2.5-.2-3.8 0-.5 0-1.2-.2-1.7-.2-1.3-.6-1.2-.6-1.2-1.1 1.5-.5 3.5-.9 5.1-1.1-1-1-3.4-2.5-4.3-.1 1.8.2 6.3-.2 7.5-1.2-.9-1.6-7-2.7-7.4-.5 1.2-.1 1.5-1 2.3-1.9-.7-3.9-6.2-4.6-8.3-.8-2.3-2.6-7.8-2.3-10.2.9-.1 1.6 1.5 2 2.3l1.3 3c1 2.7 1.4 5.8 2.6 6.3 3-1.5.2-10 1.4-11.5m3.5 54.4.2-3.3c-.2-.9 0-3.1.5-3.7 1.7 4.5-1.7 11.3-.7 12.4 1.4-.6 2.6-3.8 3-6-.7-.6-.5-1.8-.5-3 0-3.5-.2-7.1-.6-10.5-.2-2-2-11.7-1.6-12.6 1.6 1 1.8 5.6 2.7 7.2 0-3.3-1.8-12.3-1.8-15.2.5.5.5.2.8 2.2l.3 2c.6 3.5 1.6 10.4 1.8 13.5 0 2.8.9 5.7 1.2 8.8.1 1.6.3 3.3.2 5 0 1.6-.6 3.3-.3 4.9 3-2.8.4-19.2.4-24 1 .8 1 1.6 1.2 3.5l.4 3.7c.1 2.4.5 4.7.8 7.3.3 3 .7 8 .1 11-.3 1.3-.8 2.3-1 3.5 1.7-.9 3-3.5 3.1-6.1 0-3-1-4.8-.2-8.2l.4 2.3-.1.5c1.2 1.5-.1 2 2.7 4.4.4.4.3 0 .3.3.2-.7-1-2.5-1.2-3.4-.4-1.3-.4-3-.4-4.4a158 158 0 0 0-1.7-18c-.5-3.2-.4-6-.4-9.3 0-10-1.4-26.2-9.8-29.3.5.9 1.6 1.8 2.4 3.9.7 1.6 1 3.5.7 5.4-.7-.2-1.2-1.4-1.7-2.1-1-1.6-4.4-5.7-5.8-6 .8 2.7 2.3 3.8 2.5 7.4l-.3-.2-.3-.3c-3.3-3.4-2.5-2.1-5.9-4.4 1.2 2.1 2.2 3 3 5.9.9 2.7 1.3 5.3.9 8.2-1.2-.4-1.2-1.2-2.3-3.2l-1.6-3.5c-1-2-2.5-5.5-5.3-5-2.2 2.7-2.6 7.7-1.8 12 .4 2 1 4 1.7 5.8.4 1.2 1.1 4.4 2.3 5 0-1.2-.5-3-.1-4 .8.4 1.4 1.6 2.1 2.3 1 .8 1.7.8 2.8 1.4 2.1 1.2 2.2 2.7 3.1 5.4 1-.9.7-3 1.2-4.3 1 .8.6 4 .3 5-.7 2.2-.6 2.7-.9 5-.5 4.6-3.6 2.8-3.7 8-.2 4 .8 11 .6 16.7 0 1-.5 4.4-.1 5 1.5-.4 2.3-3.5 2.8-5.5.7-3 .4-5 .7-8 .3.5.4.6.5 1.6l.1 1.5c.3 4.2-.6 8.6-.3 9.9 1.4-.7 2-3.4 2.3-5 .4.3.5-.5.3.6" clip-rule="evenodd"/><path fill="#95693D" fill-rule="evenodd" d="M130.6 26.1c1.6-.2 2.8-.7 4.7-1 1.9-.3 3.6-.1 5.3-.3-.5-1.3-2.8-.6-4-1.2-1.5-1.3 4.3-4.6 5-5 2.3-1.2 5-1.9 8-2 8.6-.5 12.3 5.9 10.5 8.7-1.2.2-1.7-.4-2.4-.9-1.7-1-5.5-2.2-7.1-.8 1.3.7 5.2 1.1 5.5 3.2-1.5.4-5.8-1-9-.3-3.7.8-6.2 3.5-5 4.5.6.6 3.6-1.4 6.8-1.7 2.6-.3 6.4.6 5.1 3.4-1 2.6-7.2 8.2-9.3 8.3.5-1 1.7-3 1.1-4.3-1.6.2-1.7 2.6-6.1 4.6-8 3.7-12.7-5.4-15.6 0a15.8 15.8 0 0 0-1.1 9.5c-.8-.6-.9-1-1.2-2.1l-.5-2.4c0-1.5.3-4 .6-5.1-1.7 1-2 3.4-2.4 5.7 0 0-.1.1-.5-.1a9.6 9.6 0 0 0 1.2 2.6c1.1 1.7 1.2.5 2 1.8.6 1 .7 1.4 1.5 2.3.7.8 1.3 1.2 2.7 1.2l-1-1.5a10 10 0 0 1-1.7-5c-.2-3.6.4-4.7 1.9-7.2.9.1 1.1.4 1.7.8l1.5.8c3.4 2 8.6 1.7 11.6.2v.2c0 .7-.2-.5 0 .2a24.1 24.1 0 0 0 11.3-4.8c1.1-.8 2.1-2.4 2.5-2.7.4 9.5 2.7 13.4 5.9 21l1.7 5 .2.9.3.7.1.2c0-2.4-.7-5 .8-6.9 1.8-2.2 3.8-.5 4.6 1.3 1.2 2.5 1.3 11.3-4 9.7-.4 1.9-.3 1.4 0 3.5l1.3 11.2c.6 4.6 1.4 11.1-.6 15 5.5-.5 5.3-10 5.6-13.3.4 2.4-.1 5.4-.3 7.8-.2 2.6-1.2 4.4-2.4 6 1 .3 2-.3 2.4-.8 2-2.4 2.2-4.5 3-7.6.2-1 0-.3-.3-.6-.3 1.6-.9 4.3-2.3 5-.3-1.3.6-5.7.3-9.9l-.1-1.6c-.1-1-.2-1-.5-1.4-.3 2.8 0 5-.7 7.9-.5 2-1.3 5-2.8 5.5-.4-.6 0-4 .1-5 .2-5.8-.8-12.8-.6-16.8.1-5.1 3.2-3.3 3.7-7.9.3-2.3.2-2.8.9-5 .3-1 .6-4.2-.3-5-.5 1.2-.2 3.4-1.2 4.3-.9-2.7-1-4.2-3.1-5.4-1.1-.6-1.9-.6-2.8-1.4-.7-.7-1.3-1.9-2.1-2.4-.4 1 .1 2.9.1 4.2-1.2-.7-1.9-4-2.3-5-.7-2-1.3-3.9-1.7-5.8-.8-4.4-.4-9.4 1.8-12.1 2.8-.5 4.4 3 5.3 5 .5 1 1 2.5 1.6 3.5 1 2 1.1 2.8 2.3 3.2.4-2.9 0-5.5-.8-8.2-.9-2.9-1.9-3.8-3-6 3.3 2.4 2.5 1 5.8 4.5l.3.3.3.2c-.2-3.6-1.7-4.7-2.5-7.4 1.4.3 4.8 4.4 5.8 6 .5.7 1 2 1.7 2.1.4-1.9 0-3.8-.7-5.4-.8-2.1-2-3-2.4-4 8.4 3.2 9.8 19.4 9.8 29.4 0 3.2 0 6 .4 9.3a158 158 0 0 1 1.7 18c0 1.4 0 3.1.4 4.4.2 1 1.4 2.7 1.2 3.4 0-.2.1 0-.3-.3-2.8-2.3-1.5-2.9-2.7-4.4.4 2.8 1.5 6.5 5.3 5.4-1.6-1-1.6-.3-2.5-2.4-1-2.5-.8-10.1-1-13.7-.5-6.1-1.3-12.1-1.5-18.3-.1-6.1-.2-12-1.8-18-1.4-5.6-2.6-9.4-6.4-13.2-1.3-.5-3.3-1.4-5.2-.8 0 1.1.5 1 1.5 1.6 2.2 1.4 1.5 1.2 2 2.2.5 1 1 1 1.6 3.3l-.7-.6c-1.3-1.4-.7-2.4-4-4-1.7-.8-6.2-2-7 .3.8.7 2.2 1 3 1.7v.1l.4.3c1 .8.5 0 1 1.3-2.2-.6-4-3.1-7-2.2 0 1.2 1 1.2 2 1.8 1.5 1 .3.6 1.6 2.4.7.8 2 3.5 2 4 0 1 .2.3-.4 1-.3-1.3-.8-2.4-1.4-3.4l-.8-1.3V32l-1.3-1.2-1.5-1c-1.7-1.1-3.3.1-4 1.8-.7-.6-.9.7-.3-1 .2-.5.3 0 .4-1-.6-.7-.6-.4-1.6-.7-5-2-6.5-1.8-12 .7 1.3-1.6 4-2.7 6.8-2.7 2.4 0 6.3 1.8 8 1.3 0-1.6-1.9-2.8-3.2-3.6-1-.5-.9 0-1.7-1 1.2.2 1.4.2 2.4.7 2.4 1 5.4 4.7 5.9.1.5-5-2.6-5-2.9-6.4 3.5-.2 5.8 5.2 8.1 4.6.3-1.1-1-2.5-1.6-3.1-1.5-1.5-2.1-1.4-2.7-2-1.3-.2-3-.9-4.4-1.1-8.3-1.3-17.4 0-23 6.2-2.5 2.8-3.4 2.3-4.6 3.5" clip-rule="evenodd"/><path fill="#B98D5E" fill-rule="evenodd" d="M137.3 38c1.5-.2 2.7-.8 4-1-.6 2-6.2 2.8-8.6 2.2-2-.6-7-2.7-6.6-4.5.7.1 2.1 2.4 6.6 3.3 1.5.3 3.2.3 4.6 0m2.5-17.3c.7-1.8 4.4-2.5 6.5-2.7 4.5-.5 10 1.3 10.3 3.3.2 1.1-2-.4-2.7-.7-1.9-.7-5.8-1.6-7.8-.4.8.4 3 0 4.2.2l2.8.8c.8.5.3 0 .6.7-2.8.2-6.4-1.6-10.5-.2-1 .3-1.6.9-2.8 1 .9-1.9 5-2.3 5.3-3.2-2.5-.5-4.2 1.3-5.9 1.2m-9.2 5.4c-2 .5-6.4 4-7.6 5-.8.8-2 2.4-2.7 3.6-.8 1.2-1.5 2.7-1.8 4.5.6-.4.2 0 .5-.6l.4-.8a4.8 4.8 0 0 1 3.7-2.6l-1.5 2c-2 3-1.8 6.6-2.6 7.3-.5-.4-.2-.5-.6-1.3 0 1.5.3 2.3.6 3.6.4.2.4.1.5.1.3-2.3.7-4.7 2.4-5.7-.3 1.2-.7 3.6-.6 5 0 1 .3 1.7.5 2.5.3 1 .4 1.5 1.2 2.1-.6-3.2-.3-7 1-9.4 3-5.5 7.6 3.6 15.7 0 4.4-2 4.5-4.5 6.1-4.7.6 1.3-.6 3.3-1 4.3 2-.1 8.1-5.7 9.2-8.3 1.3-2.8-2.5-3.7-5-3.4-3.3.3-6.3 2.3-7 1.7-1-1 1.4-3.7 5.2-4.5 3-.7 7.4.7 8.9.3-.3-2-4.2-2.5-5.5-3.2 1.6-1.4 5.4-.2 7 .8.8.5 1.3 1.1 2.5 1 1.8-3-1.9-9.3-10.5-8.8-3 .1-5.7.8-8 2-.7.4-6.5 3.7-5 5 1.2.6 3.5-.1 4 1.2-1.7.2-3.4 0-5.3.3s-3 .8-4.7 1" clip-rule="evenodd"/><path fill="#A31C23" fill-rule="evenodd" d="M165.4 121.6c1-.3 5.2.8 4.3 4.7-1.4.5-.6.2-2.4-2l-2-2.7m-18.8-5.2a76.5 76.5 0 0 1 16 5.4l1.2 1 1 1.2c1 1.3 2.7 4.5.5 6-3.1 2.2-11.3.8-14.2-.8-2.8-1.5-1.6-3.4-2.2-6.5-.4-1.9-1.2-5-2.3-6.3m-.5-11.6c.6.7.6.8 1.9 1l3.6.3c1.5.3 3 0 4.9-.5l1-.2c.6-.1.9 0 1.6-.4.6-.3 0 0 .4-.3l.5-.3c.7-.5 2.4-.7 3-.4l-.2 3c.4.3.2 0 0 0l-.3.1h-.1c-.1 1.4.2 2.2.5 3.3 1.1 4.3 3 4.4 2.7 7.3-2.1 1.8-4.5 1.1-7.3.3l-6.8-2.1c-2.4-.6-5-1-6-3-.6-1.4-1-6-.8-7.8.7.2 1.3.5 1.4-.3m3.7-9.6c-.6-1.8.8-3.3 1.8-2.4.8.8.1 2.7-1.8 2.4m.9-6.7c1-.5 3-.3.9 2.5l-1.2-.4c-.2-1 0-1.4.3-2.1m-8.6-5 1.1-.4c.8.6 2.3 5 6.9 5.8-.4 2.2-.7 1.4 1 2.6-3.5 2.9-.5 5.3-1.5 9.3-.4 1.3-2 2.2-3.4 2.2l-1.8-.4h-.1l-.8-.4c-.4-.3-.5-.6-1.2-1 1 3 4.4 2.6 5.5 3.2-.8 0-1.5.1-2.4-.1-1.1-.3-1-.7-2-1 .1 3 .2 7.3.8 10.1.2 1.6 1 2.5 1.5 3.8 1.6 3.8 2 9.5-.7 12.5-2.2 2.3-5 1.9-8.4 2 .3 1.2.2 1.2 1.4 1.4 5.6.8 11.4 1.5 17 1.8 6.9.3 14 .2 16.3-5 2.2-5-1-13.5-2.8-17.4-1-2.4-2.7-5-2.6-8 0-2 1.4-4.8 1.3-5.8v-.5c-.3-1.3.1-.3.4-1.8-1.4.8-1.7 1.6-4 1.2.3-.5.7-.6 1-1.4a8 8 0 0 0 .6-2c.3-1.6.3-13.3-1-13.7 0 3.5 1.1 9.3-.3 14a12 12 0 0 1-.7 1.8c-.4.8-.5.7-1 1.2.2 1.7.7 2.3-.5 3.6a7 7 0 0 1-3.5 1.7l-1.3.1a11 11 0 0 1-4-.2l-1.3-.4c-.6-.2-.3-1.6-.6-3.2-.8-5.5 1.2-2.3 1.6-5 .2-1-.4-1.8 0-2.9l.6-1 .6-1.3c.5-.8 2.8-1.2 5.6-4.7 2.3-2.9 1-2.3 2.6-4.5-2.4.4-1 0-2.4 2.8-2.5 5.4-11.2 6.4-14.2 2.4-.6-.8-.8-1.6-1.3-2.3-1.1 0-1.5.2-2 .9" clip-rule="evenodd"/><path fill="#413A30" fill-rule="evenodd" d="M103.7 168.7c-.5-1.5-.7-1.1.5-3.6 1-1.9 4-8.6 6-8.3.4 3.8-3.3 12.3-6.5 12m32.3-51.6c-1.3 0-3.9-.5-5-1-5-1.8 3.8-3.6 7.4-1.2 1 .8 1 1 .8 1.7-.8.5-2 .5-3.2.5m-6-3.9c-2.8 1.7-3.8 1.9-6 5.9-1.6 3.1-5 13.2-6.5 17.1-1 2.8-2 6.4-3.2 9 .7.4 0 .3.6 0 .2 0 .2-.3.3-1 .4-1.9 1.2-3.7 1.9-5.4l2-5.2.6-1.6c.4-1.1 3.1-9.1 3.8-9.6.4-.4 0-.2.6-.3 1.3 3.5-1.4 11.7-2.7 14.6-1 2.4-5.1 10-7.1 10.6.7-1.8.3-1.5-.1-1.8-1 4.7-3.2 7.8-5.3 10.9-1.1 1.5-2 3.2-3 5-1 1.4-2.4 4-3 5.4.4.4.5-.3 0 .8-.3.7-1 2.2-.1 2.8 4 1.2 6.8-4 8-6.7.4-1 .6-1.8 1.1-2.7.9-1.6.6-1 2-1.8 1.7-1 1.3-3.5 1.8-5.6l5.3-9.6c5.3-10.5 3.4-16.1 7.8-22 2.8-4 5.2.6 9.7 2 5.8 1.7 5.5-5.5 3-8.2-3.5-3.8-10.2-2.2-11-2.3z" clip-rule="evenodd"/><path fill="#D9AF85" fill-rule="evenodd" d="M171 38.6c1 .5 1.7 4.4 3.1 5.5 1-1.2.3-3.3.7-5a16 16 0 0 1 1.1 6.7c-.3-.6 0-.4-.6-1-.6 1.8-.5 2.5-.8 4-.2 1 0 .7-.5.8-.2-1-.1-1.4-.7-2.2-1 .5-.2.5-1.1 1-.3-.7-1.3-8.6-1.3-9.8m2.3 2c-1.1-.4-.8-1-1.8-3-.6-1.1-1.1-2.2-2.1-2.6-1.2 1.5 1.6 10-1.4 11.5-1.2-.5-1.5-3.7-2.6-6.2a46 46 0 0 0-1.3-3.1c-.4-.8-1.1-2.4-2-2.3-.3 2.4 1.5 7.9 2.3 10.2.7 2.1 2.7 7.6 4.5 8.3 1-.8.7-1.1 1.1-2.3 1.1.5 1.5 6.5 2.7 7.4.4-1.2.1-5.7.2-7.5 1.5.9 1.4 3.3 2.5 4.3.4-1.6-.2-3.6.9-5.1 0 0 .4-.1.6 1.2l.2 1.7.2 3.8c.1 2.4.4 5.2 1.4 6.7 1-.3 1.2-1.2 1.5-2.9l.5-4c.6-6.4.3-14-1.4-20.3-.2-.8-.6-2.6-1.4-3-.7 1.8.5 6.6-.3 8.7-.5-.7-2.2-5.7-4-8.4-.6-.7-.3-.6-1.1-.8z" clip-rule="evenodd"/><path fill="#CF2C27" fill-rule="evenodd" d="M146 104.8c0 .8-.7.5-1.4.3a22 22 0 0 0 .9 7.8c.9 2 3.5 2.4 5.9 3l6.8 2c2.8 1 5.2 1.6 7.3-.1.2-3-1.6-3-2.7-7.4-.3-1.1-.6-1.9-.5-3.2 0 0 0-.1.1 0l.2-.2c.3 0 .5.3.1 0l.2-3c-.6-.3-2.3 0-3 .4l-.5.3c-.3.2.2 0-.4.3-.7.4-1 .3-1.5.4l-1.1.2c-1.8.5-3.4.8-4.9.5l-3.6-.3c-1.3-.2-1.3-.3-1.9-1m18-24.3c0-.5 0-.5-.9-.8H162c-1.6 2.2-.3 1.6-2.6 4.5-2.8 3.5-5 4-5.6 4.7l-.6 1.2-.6 1.2c-.4 1 .2 1.8 0 2.9-.4 2.6-2.4-.6-1.6 4.9.3 1.6 0 3 .6 3.2l1.3.4c1.4.4 2.6.4 4 .2l1.3-.1a7 7 0 0 0 3.5-1.7c1.2-1.3.7-2 .5-3.5.5-.6.6-.5 1-1.3l.7-1.7c1.4-4.8.3-10.6.3-14.1" clip-rule="evenodd"/><path fill="#E4A26B" fill-rule="evenodd" d="m128 46.6.2-.3c1.9-1.9 2.8-.5 7.3-.4 5.1.2 7-1 8.6-1 1.3-.6 1.6-.9 3.3-.6-.8-.5-.8-.4-1.9-.3 2.7-.6 6.6-5.9 9.4 5 2.3 8.5 7 14.3 4.3 22.1-1.2 3.3-3.8 6-6.6 7.3-4.5 2.3-7 2.2-11.8 1.1.7.8 3.8 1 5 1.1 2 0 4-.8 5.6-.7 0-.1 0-.2.5-.4 2.2-1.3 4.3-1.9 6.8-4.8 1.4-1.7 4-5 5-7.6 1.3.4 1.8 1 3-.3-.6-.1-1.2.4-1.8-.3-.4-.5-.2-.5 0-.9.6-.8.7.5.7-1l-.1-1.6c-1.2-.7-2-2.5-.7-3.7h1l-.1-.1-.6-.4c-.6-.3-.5.1-.8-.5-.4-.8.5-1.3.9-1.6l-.8-.5c-.8.3-1 .5-1.3 1.4a7.6 7.6 0 0 0-.5 2.2c0 1.6.8 4-.5 4.4l-2.1-6.7c-3.7-9.3-4.8-9-6.1-20.7-1.7 1.6-2.8 2.8-5.3 4.1-2 1-4.3 2-6.7 2.5-1.4.2-2.8.2-4 .6-1.5.3-2.7.5-4.2.4-.9 0-3.4-.7-3.9-.6-1 .3-1.6 1.6-1.8 2.8" clip-rule="evenodd"/><path fill="#CF2C27" fill-rule="evenodd" d="M157.8 120.4c2.1.8 5.2 2.3 6 4.7-2.6 0-14-5.2-14-6.9 2 0 6 1.4 8 2.2m-11.3-4c1.1 1.2 1.9 4.4 2.3 6.3.6 3.1-.6 5 2.2 6.5 3 1.6 11.1 3 14.2.8 2.2-1.5.6-4.7-.5-6l-1-1.2-1.2-1c-.7-.5-2-1-2.9-1.4-2.5-1-10.7-4-13-4" clip-rule="evenodd"/><path fill="#413A30" fill-rule="evenodd" d="M129.5 141.8c.2.9.2 1.4.7 2 .2-1-.1-.1.3-.1l.1.1-.7-3c-.6-2.7-2.3-6.4-.9-8 3.2 0 5.7 10 6.4 13.3.6 2.8 2.8 15.2 1.2 17.5-1-.2-.3-1-1.1-.7l1.3 5.2c.7 2.8.5 3.9 1.9 4.1 2.5-5.3-.4-27.4-2.2-33.6-.9-3.1-3.6-13-7.1-11.5-2 1-2 5-1.6 7.3.3 2.4 1.6 4.9 2 7.4z" clip-rule="evenodd"/><path fill="#CF2C27" fill-rule="evenodd" d="M142 83.5c-1 .5-2.4 2.2-2.7 3.1.8 1.6 2.2 2 3 3.6-3.4 4.2-1.9 9.6 0 11 .6.4.7.7 1.1 1l.8.3h.1l1.8.5c1.5 0 3-.9 3.4-2.2 1-4-2-6.4 1.4-9.3-1.6-1.2-1.3-.4-1-2.6-4.5-.9-6-5.2-6.8-5.8z" clip-rule="evenodd"/><path fill="#95693D" fill-rule="evenodd" d="M175.8 70c1.3 5 1 13.6 0 18.8-.4 2.2-1.6 5.4-3 6-1-1.1 2.4-7.9.7-12.4-.5.6-.7 2.8-.5 3.7v.2l.2.5v.9c-.2 5.8-3 7.8-2.2 9.5 2.5 0 2.8-2.5 4.4-3-.4 1.4-3 3.6-3.2 4.2a8.4 8.4 0 0 0 5.5-3.8c3.7-5.7 2-7.8 2.5-12.8l.4 4.4-.2 4.6c-.1 3.5-1.6 5.1-2.7 7.2 1.8 0 2.9-.6 3.8-1.6.8-.8 1.4-2 1.8-3.3 1.7-5.3-1.6-8 0-9l-.5-2.3c-.8 3.4.3 5.2.2 8.2 0 2.6-1.4 5.2-3.1 6.1.2-1.2.7-2.2 1-3.5.6-3 .2-8-.1-11-.3-2.6-.7-4.9-.8-7.3 0-1.1-.3-2.4-.4-3.7-.3-1.9-.2-2.7-1.2-3.4 0 4.7 2.7 21.1-.4 23.9-.3-1.6.2-3.3.3-5 0-1.6 0-3.3-.2-5-.3-3-1.2-6-1.2-8.7-.1-3.1-1.2-10-1.8-13.5 0-.8-.2-1.2-.3-2-.3-2-.3-1.7-.8-2.2 0 3 1.7 11.9 1.8 15.2" clip-rule="evenodd"/><path fill="#585249" fill-rule="evenodd" d="M130.6 143.8c.2 1.6.8 3 1.2 4.7l1.2 5 1.1 4.8c.4 1.6 1.1 3.2 1.4 4.6.8-.3 0 .5 1 .7 1.7-2.3-.5-14.7-1-17.5-.8-3.3-3.3-13.2-6.5-13.4-1.4 1.7.3 5.4 1 8 .1 1.2.4 2 .6 3.1" clip-rule="evenodd"/><path fill="#683A18" fill-rule="evenodd" d="M175.2 24.4c-1.8-1.3-1.9-1-4.4-1.5 0-.4-.2-.8-.4-1.1l-.9-1a21 21 0 0 0-7-3.4c.7.7 1.3.6 2.8 2.1.6.6 2 2 1.6 3-2.3.7-4.6-4.7-8-4.5.2 1.5 3.3 1.3 2.8 6.4-.5 4.6-3.5 1-6-.1-1-.5-1.1-.5-2.3-.6.8.9.7.4 1.7 1 1.3.7 3.1 1.9 3.2 3.5-1.7.5-5.6-1.3-8-1.3-2.8 0-5.5 1.1-6.8 2.7 5.5-2.5 7-2.6 12-.7 1 .3 1 0 1.6.7 0 1-.2.5-.4 1-.6 1.7-.4.4.3 1 .7-1.7 2.3-3 4-1.8l1.5 1 1.2 1.2.1.1.8 1.3c.6 1 1.1 2.1 1.4 3.4.6-.7.3 0 .4-1 0-.5-1.3-3.2-2-4-1.3-1.8 0-1.4-1.6-2.4-1-.6-2-.6-2-1.8 3-1 4.8 1.6 7 2.2-.5-1.3 0-.5-1-1.3l-.3-.3h-.1V28c-.8-.6-2.2-1-3-1.7.8-2.2 5.3-1.1 7-.4 3.3 1.7 2.7 2.7 4 4.1l.7.6c-.5-2.3-1.1-2.3-1.6-3.3s.2-.8-2-2.2c-1-.7-1.5-.5-1.5-1.6 1.9-.6 3.9.3 5.2.8" clip-rule="evenodd"/><path fill="#E4A26B" fill-rule="evenodd" d="m116 79.6.2 1c.2 2.1 1.8 3.9 3 6.2.5 1 1.4 2.6 1.5 4 0 1-.2 1.8-1 1.8-1 0-.6-.7-1.8-1-.3 0-.2 0-.5-.3l-.2-.8c-1.6.3-1.2-.3-2.5-.6-.8.4-1.4.1-2.2 0l.6 1.4c.6-.3.8-.8 2-.6.6.2 1.2.6 1.7 1 1 .8 2 1.9 1.3 3.6 1.9-.1 2.2.3 3 1.3l1.4 2.3a39 39 0 0 0 3.2 4.8c.2-.8.2-.6-.4-1.3l-.7-1-.3-.8c-.9-1.3-3.6-4.7-3.3-6.9 1.6.2 5.2 3.3 6 4.2l1.4 1.6c2.8 3.3 1.3 1.8 2.7 3.9 1.5 2.3 1.8 7.3-3.1 2.6l-.3-.3c-.7-1-.9-2.2-2-2.1l2.2 3c.5.4 2 1.7 3.2 1.7 2 .1 4.3-3.4 5.2-4.6 6-8.2 2.6-5.8 3.9-10.5.4-1.6 1.1-2.1 1.6-3.3-1-.7-1.2-1.4-2.3-2-.3.7-.7 1.2-1.2 2-.3.6 0 .3-.6.7v.3c1-.4 1.3-1.2 2-.7 1.8 1.7-3.6 13.6-7 11.7-1-.8-.4-.8-.8-1.6-.5.4-.2.2-.4.5l-.3.4-.1.2-4.9-4.6a25.2 25.2 0 0 1-3.6-5.8c-1.4-3-.7-1.7-1-1.7 0 0 0 .5-.3-.3-1-2.4-5.2-7.3-4.4-9.3-.2-.5 0-.6-.9-.4z" clip-rule="evenodd"/><path fill="#F8CFA3" fill-rule="evenodd" d="m114.7 90-.2-.4-.3-.2c-.6-.7-.6-.8-.9-1.9-.2-1.2-.4-2.2-.4-3.5.4.7.4 1.4.6 2.3 0 .5.3 1.5.5 2 .5 1 1.7 1.5 2.6 2 .5-1.4-.7-2.9-1-3.9-.5-1.4.2-1.2.1-2 0-.3-.4-1.1-.5-2l.4.7.2.6.6 1c2.8 4.3-.5 3.3 1.5 7 1.2.2.8.9 1.7.9 1 0 1.1-.9 1-1.7 0-1.5-.9-3-1.4-4-1.2-2.4-2.8-4.2-3-6.3l-.2-1c-.7.5-.7 1.3-.6 2.4-1.4-.2-1.1-.4-2.3 0-1 .4-1.1.1-2 .4-.5.8-.3 1-.4 2a6 6 0 0 0-1.5.6c-.2 1.8 1.4 6.7 2.6 7.3 1.6-2.8-1.2-3-1-7.3 1.1 2.2.3 5 4 5" clip-rule="evenodd"/><path fill="#585249" fill-rule="evenodd" d="m114.3 145.3-.1.3c.4.3.8 0 0 1.8 2-.6 6.2-8.2 7.2-10.6 1.3-2.9 4-11 2.7-14.6-.6 0-.2 0-.6.3-.7.5-3.4 8.5-3.8 9.6l-.6 1.6-2 5.2c-.7 1.7-1.5 3.5-1.9 5.4 0 .7 0 1-.3 1-.6.3.1.4-.6 0" clip-rule="evenodd"/><path fill="#E4A26B" fill-rule="evenodd" d="M175.2 128.6c1.5-1 .9-1.1 1.6-2.6.7-1.6 1.5-.6 2.5-.8l-1.2-2-.5 1.1c-2.8-.3-5.2-9-5.5-12-.2-1.3-.3-3.5 1-4.5 2.4 1 2 8 3.5 9.8-.3-2.3-1-4.9-1.5-7.4L174 103l-.4.9c-.1.7.2 1.4-.3 2.6-2-.1-3-2.8-3.9-4.5-.5-1.1-.7-2.3.4-2.7 1-.3 2.5-.2 3.1 0l.7 3.5c.2-.4.1 0 .4-.3l-.6-3.7c-1-.1-1.7.3-2.5 0l1.4-.8-.2-.1c-.4-.2-1.8-.4-1.9-.7l-.1-.1c-.7 1.2-1 1-2.4 1.4-.1 1.4 2.8 14.3 3.4 16.1a93 93 0 0 0 2.6 7c.8 2 2.8 5 1.5 7.1" clip-rule="evenodd"/><path fill="#F8CFA3" fill-rule="evenodd" d="M175.2 128.6c-1 1.2-.9 1.7-1 3.6-.1 2.4-.4 2.4-.5 3-.2 1.3-.2.4.1.7.7.4 1.3-.3 1.6-.7 1.4-2.2-.8-4 2.8-4.6h.2c0-.3 1.7 1.1 2 2 .1 1.3 0 1.9 1.5 1.9l.1-.8.4-1c.6 2.3 0 2.2-.6 3.6 2.5-2.2 1.8-2.7 1.6-5.9 1.4 2.2 1 3-.1 5l.8-.9c.9-1.4.8-2.8.8-4.4.5.7.6 1.2.6 2.3.4-3.5-2.3-4.2-4.3-5.8-.8-.7-1.3-1-2-1.4-.9.2-1.7-.8-2.4.8-.7 1.5-.1 1.7-1.6 2.6m-49.5-25c1.1 0 1.3 1.1 2 2 .2.3 0 .2.3.4 4.9 4.7 4.6-.3 3-2.6-1.3-2 .2-.6-2.6-3.9L127 98c-.8-1-4.4-4-6-4.2-.3 2.2 2.4 5.6 3.3 6.9l.3.7c.3.7.3.5.7 1 .6.8.6.6.4 1.4" clip-rule="evenodd"/><path fill="#532D15" fill-rule="evenodd" d="m154.7 79.6.3.8c.6-.7.7-.6 1.6-.5.3.6.4.8 0 1.6l.7.1c1 0 1.5-.9 2-.8.4 0-.1-.5.4.2v-.2c0-1-.2-.6.2-1 1.5-1 3.8 0 4.6 0L163 69.4l-1.7 2.5-4.2 4.7c-2.5 2.4-2.3 1.2-2.5 3M136 83c.5-1 0-2.1 1.2-2.5 1.5 1.9 1.3 6-.3 8.8-.7 1-1.3 1.2-1.6 2-.6.9-.5 1.3-1.2 1.7 3.5-1 2.8-3.4 3.5-2.3.6-.4.3-.1.6-.8-.6-1 0-.2-.5-.3h-.1c.4-.3.5-1 .8-1.5 1-2.3-.5-1.3 2.5-4.2 2.3-2.2 3.5-1.8 7.1-1.4.5-.3.8-.5 1.5-.1V82l-.1-1.3 1-.3c1.8-.6 0 .6 1-.5-1.7-.1-3.7.8-5.7.7-1.2 0-4.3-.3-5-1-1.8-.2-4-1.8-5.6-2.4-.3.7 0 1.5.3 2.8.1.9.2 2.3.6 3" clip-rule="evenodd"/><path fill="#D9AF85" fill-rule="evenodd" d="M167.3 70.1c-.9 1.8 0 6.3.2 8.7 0 2.2-.2 7.9.5 9.3 1.8-2.1.5-8.8 1.5-11.8 2 1.5.8 9.3 2.2 10.3a56 56 0 0 0-1.3-15.4c-.5-2-.5-1.4-1-1.6v3c-1.1-.1-.8-1.9-2.1-2.5" clip-rule="evenodd"/><path fill="#A31C23" fill-rule="evenodd" d="m99 171.2 1-.1c0 3.6 3.9 2.5 6.4 2.4-.1 2-1.2 1.6-1.7 2.5 2-.4 4.4-2 5.4-3 3-2.6 4.5-7 6.2-10 1.4-2.5 1.7-2.9.8-6.2a30 30 0 0 1-6.2 12.4c-4.6 4.9-11.4 5-9.2-.9-.3.6-2 1.5-2.6 2.9" clip-rule="evenodd"/><path fill="#F8CFA3" fill-rule="evenodd" d="M137.8 91c-1 .9-2.2 3.1-3 4.4-.9 1.4-2.2 3.4-2.9 4.9.4.8-.2.8.7 1.6 3.5 2 9-10 7.2-11.7-.8-.5-1.2.3-2 .7m40.3 32.3-1.5-5.6c-1.4-1.8-1.1-8.8-3.5-9.8-1.3 1-1.2 3.2-1 4.6.3 2.9 2.7 11.6 5.5 12z" clip-rule="evenodd"/><path fill="#D9AF85" fill-rule="evenodd" d="M175.8 88.8c1-5.2 1.3-13.8 0-18.9-.9-1.6-1-6.3-2.7-7.2-.5.9 1.4 10.5 1.6 12.6.4 3.4.7 7 .6 10.4 0 1.3-.2 2.5.5 3.1m-36-68.1c1.7 0 3.4-1.7 5.9-1.2-.4.9-4.4 1.3-5.3 3.2 1.2-.1 1.8-.7 2.8-1 4.1-1.4 7.7.4 10.5.2-.3-.7.2-.2-.6-.7l-2.8-.8c-1.2-.2-3.4.2-4.2-.2 2-1.2 6-.3 7.8.4.7.3 2.9 1.8 2.7.7-.4-2-5.8-3.8-10.2-3.3-2.2.2-6 1-6.6 2.7" clip-rule="evenodd"/><path fill="#413A30" fill-rule="evenodd" d="m135.2 177.3.9.7c0 1.2-.4 2-.9 2.8l-.4.8c-.7 1.4-1.4 2.4-2.9 3-.3.3-.7.4-1 .4-1.6-.2 0-2.4.4-3l-.4.3-.5.6c.8.3.2.2-.5 1.1-2 2.9 2.1 2.8 3.7 2.3 3.6-1.2 6.4-6.8 4.4-10.1-1.4 0-1.8.8-2.8 1.1" clip-rule="evenodd"/><path fill="#585249" fill-rule="evenodd" d="M103.7 168.7c3.2.4 6.9-8.1 6.5-12-2-.2-5 6.5-6 8.4-1.2 2.5-1 2.1-.6 3.6" clip-rule="evenodd"/><path fill="#2C546E" fill-rule="evenodd" d="M147.6 56.5c-.9-.7-1.2-1-1.3-2.5-1.2 0-1.6.6-2 1.7v.6c-.3 1 .2.5-.5 1l.6 1.7.2.6c.3.8.2.5.5.7 1.2.2 1 1.4 3.2 1.1 1.7-.2 1.7-1 2.5-2 0-2 .8-2.8-.3-5.2-.6-1.1-1.6-2.4-3-2.8v.4l.4.4c2.8 2.4 2.7 3.6 2.2 7.3-3 .6-1.6-.7-1.6-2.6l-.3-.2a15 15 0 0 0-.6-.2" clip-rule="evenodd"/><path fill="#A31C23" fill-rule="evenodd" d="M127.8 186c-.4.9-.8 1-1.3 1.7l.8-.3c.7.6.6 1 1.7 1.4 3 1 11-2.6 6.7.8-.9.6-1.4.3-2.2 1.3 1.8-.3 3.6-1 4.8-1.9 2.1-1.5 3-5.2 4.8-8 .9-1.5 1.9-2.7 1.3-4.8-.4.3-1.2 3.4-2.2 5.4-1.6 3-5 6-8.9 6.3-4.2.4-4.6-1.6-5.5-1.8" clip-rule="evenodd"/><path fill="#EA3B2A" fill-rule="evenodd" d="M163.8 125c-.8-2.3-3.9-3.8-6-4.6-2-.8-6-2.1-8-2.2 0 1.7 11.4 7 14 6.9" clip-rule="evenodd"/><path fill="#1C1613" fill-rule="evenodd" d="m144.5 53 .3-.7c.4-.8 0-.2.4-.5 3-3.7 8 2 7.5 6.4-.1 2.2-1 4.4-3 4.8-2.3.4-3.8-1.4-4.6-2.7-.3-.2-.2.1-.5-.7l-.2-.6-.6-1.7c.4-1.3-.4-3 .7-4.2m5.4 11c2.4-2.7 2-1.5 4-2.5h-1.7c1.7-2.4.9-5.5 0-8 .1.6.3.5.6.7l1-.6h-1.3c.3-.8 0-.4.8-.8-.4-.5 0-.1-.6-.4-.3.3.4.3-.5.3-2.2-4.6-8.4-4.8-9.2.8-.2 2 .7 5.1 1.6 6.7.9 1.7 2.6 3.5 5.4 3z" clip-rule="evenodd"/><path fill="#F8CFA3" fill-rule="evenodd" d="M165.8 59.3c.4.3.2 0 .4.6-2.2-.6-1.7 1.1-1.4 1.9.5 1 .5.7 1.4.5-.6 1-.4-.2-.4 1.1 0 .7 0 .5-.2 1.1 0 1.6-.1.3-.7 1.1-.2.4-.4.4 0 1 .6.6 1.2 0 1.8.2 1.1-1.8 1.7-4.2 1.4-6.7-.2-2-1.6-4.7-3.7-4l.8.6c-.4.3-1.3.8-.9 1.6.3.6.2.2.8.5l.6.4.1.1m10.1-13.5a16 16 0 0 0-1.1-6.7c-.4 1.7.2 3.8-.7 5-1.4-1.1-2-5-3.2-5.5 0 1.2 1 9 1.3 9.7.9-.4.1-.4 1-.9.7.8.6 1.2.8 2.2.5-.1.3.2.5-.9.3-1.4.2-2 .8-4 .6.7.3.5.6 1.1" clip-rule="evenodd"/><path fill="#683A18" fill-rule="evenodd" d="M124.4 45c.5-.8.7-1.4 1.5-1.8.3.8-.7 4.5-.5 6.6l.5-1c.3-.9.4-2.5 1-3.5.3 2-.7 3.5 0 6.6 0 .8.3 1.6-.2 2.3l.4.6c.7-.4.3.6.6-1v-3l.3-.4.8-.8c1.8.5 1.5 1.5 3 1.7-.6-1.2-.6-1.5-1.5-2.2-1.2-.8-1.8-.2-2.7.2l.1 1-.2-.6-.2-1.5c0-3.4 1.6-4 2-4.7l-3.6-2c-.7 1.3-1 1.7-1.3 3.6" clip-rule="evenodd"/><path fill="#585249" fill-rule="evenodd" d="M136 117.2c1.2 0 2.4 0 3.2-.5.1-.7.3-1-.8-1.7-3.6-2.4-12.5-.6-7.3 1.3 1 .4 3.6.9 4.9.9" clip-rule="evenodd"/><path fill="#F8CFA3" fill-rule="evenodd" d="M174 103v-.6c-.3.2-.2 0-.4.3l-.7-3.4c-.6-.3-2.2-.4-3-.1-1.2.4-1 1.6-.5 2.7.9 1.7 2 4.4 3.9 4.5.5-1.2.2-1.9.3-2.6z" clip-rule="evenodd"/><path fill="#D9AF85" fill-rule="evenodd" d="M150 64v-.6c-2.8.4-4.5-1.4-5.4-3-.9-1.7-1.8-4.8-1.6-6.8.8-5.6 7-5.4 9.2-.8.9 0 .2 0 .5-.3-.4 0-.1-.3-1-1.4-.6-.7-1.2-1-1.8-1.6a4.2 4.2 0 0 0-4.6-.8l-.4.3h-.1c-.7.5-1.3 1-1.6 1.7-.6 1-1.3 6-.9 7.2.2.6 0 .2.4.5l.7.2c.2 2.6 2.4 5 5 5.5l.5.1h.1l-.3 1.2c.9-.6 1.3 0 1.2-1.3" clip-rule="evenodd"/><path fill="#CF2C27" fill-rule="evenodd" d="m98.4 172.4.5-.2c.1 2.5.9 2.2 1.9 3.3-.9.5-1.7-.3-2.2-.6 1.1 1.7 3.9 2.2 6 1 .6-.8 1.7-.5 1.8-2.4-2.5 0-6.4 1.2-6.4-2.4h-1c-.4.4-.4.5-.6 1.3" clip-rule="evenodd"/><path fill="#F8CFA3" fill-rule="evenodd" d="m154.2 86.4.7-.6a.9.9 0 0 0 .2-.4V85c-2.3-.4-5.4 2.3-7.6-1.8l-.4-.4-2.6-.2c1 3.6 5.2 5.6 9.7 3.9" clip-rule="evenodd"/><path fill="#585249" fill-rule="evenodd" d="M131.3 182c-.4.6-2 2.8-.4 3 .3 0 .7-.1 1-.3 1.5-.7 2.2-1.7 3-3.1l.3-.8c.5-.8.9-1.6.9-2.8l-.9-.7-1.1 1.3-1 1-1.8 2.4" clip-rule="evenodd"/><path fill="#CF2C27" fill-rule="evenodd" d="M126.5 187.7c-.4 0 0 0-.2.3 1 .6.5 1.4 2.3 2.1l1 .4c-.5.4-.2.4-1.4.4 1.3.9 4 .3 5.3 0 .8-1 1.3-.7 2.2-1.3 4.2-3.4-3.7.2-6.7-.8-1-.3-1-.8-1.7-1.4l-.8.3" clip-rule="evenodd"/><path fill="#E4A26B" fill-rule="evenodd" d="M156.5 81.5c-.3.1-.3.2-.6 0 0 1.5.4.8-1.5 2.5-.5.4-.2.2-.8.3-2.3.7-1.1.3-2.4.4-.7 0-.5.2-1.3.3l-.9-1-1-.6.2-.7h-1l.3.4c2.2 4.1 5.3 1.4 7.6 1.8v.5a.9.9 0 0 1-.2.4l-.7.6a7.9 7.9 0 0 0 3.7-2c.9-1 1.2-2 1.8-3.4-.5-.7 0-.2-.4-.2-.5 0-1 .7-2 .8h-.6l-.2-.1" clip-rule="evenodd"/><path fill="#F8CFA3" fill-rule="evenodd" d="M116 79.3c1-.2.7-.1 1 .4 0 1.1 1.2 3.5 1.8 4.4.4.8.8 1.2 1.3 1.9l1.1 1.7c-.5-2.6-2-5.1-3-7.3-1.2-2.8-1.7-6.5-2.7-7-1.3 1-.2 4.3.5 5.9" clip-rule="evenodd"/><path fill="#8B572C" fill-rule="evenodd" d="M124.4 45c-.3 1.9-.4 3.6.1 5.5.4 1.3 1.5 3.3 2.2 3.7.5-.7.3-1.5.1-2.3-.6-3 .4-4.5.2-6.6-.7 1-.8 2.6-1 3.5l-.6 1c-.2-2.1.8-5.8.5-6.6-.8.4-1 1-1.5 1.9" clip-rule="evenodd"/><path fill="#785539" fill-rule="evenodd" d="M136.1 83v4.5c-.1 1.7-.5 2.3-.7 3.8.3-.9 1-1 1.6-2.1 1.6-2.8 1.8-6.9.3-8.8-1.1.4-.7 1.5-1.2 2.5" clip-rule="evenodd"/><path fill="#D9AF85" fill-rule="evenodd" d="M141.3 37c-1.3.2-2.5.8-4 1a13 13 0 0 1-4.6 0c-4.5-1-5.9-3.2-6.6-3.3-.4 1.8 4.5 3.9 6.6 4.5 2.4.6 8-.1 8.6-2.1" clip-rule="evenodd"/><path fill="#C9CACA" fill-rule="evenodd" d="M155 80.4v.8c-1.3 1-.7 1.4-2.4 1.8v.5h-1.4c-1.1-.4-1.2-.1-1.6-1.2-.7-.4-1-.2-1.5 0v1.1l1 .6.8 1c.8 0 .6-.3 1.3-.3 1.3 0 0 .3 2.4-.4.6-.1.3.1.8-.3 1.9-1.7 1.4-1 1.5-2.4l.6-.1c.5-.8.4-1 .1-1.6-1-.1-1-.2-1.6.5" clip-rule="evenodd"/><path fill="#F6EFD6" fill-rule="evenodd" d="M128 54.8h.5l.4-.1h.6c2.6.5 2 5.6 1.9 7.4.6.1 1.2-.3 1.7-.5.3-2.3.1-4.3-.8-6.2-.5-1-.8-1.7-2-2-1.3-.1-1.7.7-2.2 1.4" clip-rule="evenodd"/><path fill="#470402" fill-rule="evenodd" d="M144.6 73.4c.9.5 1.8 0 2.8-.2-.7 1-2.4 1.7-4.3 1.6-2.2-.2-2.4-1.8-3.4-2.1l1.7-.6c2.3 0 5.2-.8 7.3-1.3-.4 2-.6 2.2-4.1 2.6m2.5-2.7c-1.1.6-6.7 1.3-8 1-1.2.8-2.7.8-4.3.4 1.5 1.6 3.8-1 7 3 1.6.2 2.5.7 4 0 1.2-.4 1.9-1.4 2.8-2.3l.5-1.7c.4-1.4 1.6-1.4.2-2.2.7 1.6-1 1.8-2.2 1.8" clip-rule="evenodd"/><path fill="#F8CFA3" fill-rule="evenodd" d="M113.1 91.3c.6 1.9 2.7 4.5 5 4 .7-1.7-.4-2.8-1.3-3.6-.5-.4-1.1-.8-1.7-1-1.2-.2-1.4.3-2 .6" clip-rule="evenodd"/><path fill="#D9AF85" fill-rule="evenodd" d="m118.5 39.2-.1 4c.4.8.1.9.6 1.3.8-.7.6-4.3 2.6-7.3l1.5-2c-1.8.3-3 1.3-3.7 2.6l-.4.8c-.3.5 0 .2-.5.6" clip-rule="evenodd"/><path fill="#F6EFD6" fill-rule="evenodd" d="M145.2 51.8c.3-.4 1.6-.6 2.4-.4 1.3.4 2.3 1.7 2.9 2.8 1.1 2.4.4 3.1.3 5.2l1.9-1.2c.5-4.3-4.4-10.1-7.5-6.4" clip-rule="evenodd"/><path fill="#CBBBAB" fill-rule="evenodd" d="M150.8 59.4c-.8 1-.8 1.8-2.5 2-2.3.3-2-.9-3.2-1.1.8 1.3 2.3 3.1 4.6 2.7 2-.4 2.9-2.6 3-4.8z" clip-rule="evenodd"/><path fill="#2E7087" fill-rule="evenodd" d="M128 54.8v.1l-.1.1-.1.2-.1.6.6-.5c.8-.4.2-.2 1-.3a4.1 4.1 0 0 1 1.3 2c.4 1 .5 2.4.2 3.4-.9 0-.6-.6-1.3-1l-.1.4a6 6 0 0 0-.1.6c0 .5.1 1.1-.2 1.4-2 1.6-1.2-.8-1.5-.1v.6c.6.5.9 1.3 1.9 1.3 1.3 0 1.1-.8 1.9-1.5.1-1.8.7-7-2-7.4h-.9z" clip-rule="evenodd"/><path fill="#64B6C6" fill-rule="evenodd" d="M144.5 53c-1.1 1.2-.3 3-.7 4.3.7-.5.2 0 .5-1v-.6c.4-1.1.8-1.6 2-1.7l.4-.9c1.9-.3 2.3 1.6 2 3.2.5.6.3.9 1 1.2a5 5 0 0 0-1.2-4.6c-.6-.5-1.2-1-2.2-1-.8.1-1.4.6-1.8 1.2" clip-rule="evenodd"/><path fill="#CF2C27" fill-rule="evenodd" d="M165.4 121.6c.3.8 1.5 2.3 1.9 2.8 1.8 2 1 2.4 2.4 2 1-4-3.2-5-4.3-4.8" clip-rule="evenodd"/><path fill="#E2E2E2" fill-rule="evenodd" d="M141.4 72.1c0 .5 0 .3.4.7l.7.4a4 4 0 0 0 2 .2c3.6-.4 3.8-.6 4.2-2.6-2 .5-5 1.4-7.3 1.3" clip-rule="evenodd"/><path fill="#2C546E" fill-rule="evenodd" d="m126.8 57.8.8 3.9c.3-.7-.4 1.7 1.5 0 .3-.2.2-.8.2-1.3a6 6 0 0 1 0-.6l.2-.4v-.3c-.5-.5-.6-.9-.7-1.7-.5-.9 0-.2-.6-.6-.8.3-.6 0-.8.8v-.2l-.3-.4c-.3.4-.2 0-.3.8" clip-rule="evenodd"/><path fill="#683A18" fill-rule="evenodd" d="M144 44.9c-.9 1-1.6 1.8-1.5 3.9 1-1.7 1.5-3.5 4-3.5 2.3 0 3.7 1.9 5 2.4-.5-1.6-2.4-2.9-4.1-3.4-1.7-.3-2 0-3.3.6" clip-rule="evenodd"/><path fill="#E4A26B" fill-rule="evenodd" d="m182 133.7-.1.8c-1.5 0-1.4-.6-1.5-2a1.3 1.3 0 0 0 0 .2l-.1.2c-.4 1.3 0 2.4-.7 3.4-.6 1-1.7 1.3-1.1 3.2 1.3 0 1.6-1.4 2.4-2.4.6-1 1.6-2 1.1-3.4" clip-rule="evenodd"/><path fill="#CBBBAB" fill-rule="evenodd" d="M131.4 62c-.8.8-.6 1.6-2 1.6-1 0-1.2-.8-1.7-1.3.3 1.3 1.5 3.4 3 3 1.4-.2 2.1-2.1 2.4-3.7-.5.2-1 .6-1.7.5" clip-rule="evenodd"/><path fill="#D9AF85" fill-rule="evenodd" d="m128 50.4-.1.7.3 2.2.4-.4c1.6-1.5 2.4-.8 3.8.5.1 0 .9.4 0-1-.2-.5-.5-.6-.8-.6l.2-.5c-1.5-.2-1.2-1.2-3-1.7z" clip-rule="evenodd"/><path fill="#E4A26B" fill-rule="evenodd" d="M151.4 79.9c-.8 1 1-.1-.8.5l-1.1.3.2 1.3v.3c.3 1 .4.8 1.5 1.2.3-1.4-.4 1.2-1-2.3 1.2-.3 2.4-1.2 3.7-.9.5 1.1-.9 2.2-1.7 2.6l.4.1c1.7-.4 1.1-.9 2.4-1.8v-.8l-.3-.8-.4-.8c-1 .3-1.8 1.2-2.9 1" clip-rule="evenodd"/><path fill="#388DA5" fill-rule="evenodd" d="M145.2 51.8c-.3.3 0-.3-.4.5l-.3.8c.4-.6 1-1 1.8-1.2 1 0 1.6.5 2.2 1a5 5 0 0 1 1.3 4.6c-.8-.3-.6-.6-1.1-1.2l-1 .2.5.2.3.2c0 2-1.3 3.2 1.6 2.6.5-3.7.6-5-2.2-7.3-.3-.2-.2 0-.3-.4v-.4c-.8-.2-2 0-2.4.4" clip-rule="evenodd"/><path fill="#B03133" fill-rule="evenodd" d="M144.6 73.4a4 4 0 0 1-2.1-.2l-.7-.4c-.4-.4-.3-.2-.4-.7l-1.7.6c1 .3 1.2 2 3.4 2 1.9.2 3.6-.4 4.3-1.5-1 .2-2 .7-2.8.2" clip-rule="evenodd"/><path fill="#371804" fill-rule="evenodd" d="M117 88.4c-1-1.6-1.6-2-1.3-3.8 1 .8 1.8 2.2 1.2 3.8m-2.2 1.5c1.3.3 1 .9 2.5.6 0 .4 0 .5.2.8.3.4.2.2.5.4-2-3.7 1.3-2.7-1.5-7l-.6-1-.2-.6-.4-.6c0 .8.5 1.6.5 2 .1.7-.6.5-.1 2 .3 1 1.5 2.4 1 3.7-.9-.4-2.1-.8-2.6-2l-.5-1.9c-.2-1-.2-1.6-.6-2.3 0 1.3.2 2.3.4 3.5.3 1 .3 1.2 1 1.9l.2.2.2.3" clip-rule="evenodd"/><path fill="#F8CFA3" fill-rule="evenodd" d="M151.2 83.5h1.3c.2-.4.2 0 .1-.5l-.4-.1c.8-.4 2.2-1.5 1.7-2.6-1.3-.3-2.5.6-3.7 1 .6 3.4 1.3.8 1 2.2" clip-rule="evenodd"/><path fill="#FDFDFE" fill-rule="evenodd" d="M146.3 54c0 1.5.4 1.8 1.3 2.5l1.1-.2c.3-1.6-.1-3.5-2-3.2z" clip-rule="evenodd"/><path fill="#64B6C6" fill-rule="evenodd" d="m127.7 55.8-.3 1.6v.2c.2-.7 0-.5.8-.8.7.4 0-.3.6.6l.3-1.2c.7-.3 1 .4 1.2 1.2.1 1 .1 1.8-.8 1.7v.3c.7.4.4 1 1.3 1 .3-1 .2-2.3-.2-3.5a4.1 4.1 0 0 0-1.2-1.9c-1 0-.3-.1-1 .3z" clip-rule="evenodd"/><path fill="#D76558" fill-rule="evenodd" d="M139.2 71.6c1.2.4 6.8-.3 7.9-1-2.2 0-4.3-.4-6.3.2-.8.3-1.1.3-1.6.8" clip-rule="evenodd"/><path fill="#D3632D" fill-rule="evenodd" d="M141.8 75c1.1 1 2 1.7 4.1 1 1.5-.5 2.1-1.6 2.7-3.2-.9 1-1.6 1.9-2.8 2.4-1.5.6-2.4 0-4-.2" clip-rule="evenodd"/><path fill="#785539" fill-rule="evenodd" d="m133 54.4-.6-1c-1.4-1.3-2.2-2-3.8-.5l-.4.4-.3-2.2c.2 1.6-.2 2 0 3.2l.6-.7c.5-.6 1.2-.8 2-.7.6 0 1.2.4 1.4.6l1 .8v.1" clip-rule="evenodd"/><path fill="#FDFDFE" fill-rule="evenodd" d="M128.8 57.4c0 .8.2 1.2.7 1.7.9 0 1-.7.8-1.7-.2-.8-.5-1.5-1.2-1.2z" clip-rule="evenodd"/><path fill="#F7F4EB" fill-rule="evenodd" d="M128.2 190.9c1.2 0 .9 0 1.4-.4l-1-.4c-1.8-.7-1.2-1.5-2.3-2-.1 1.6.3 2.5 2 2.8m-30-18.5c-.1 1.2-.1 1.5.3 2.5.5.3 1.3 1 2.2.6-1-1.1-1.8-.8-2-3.3z" clip-rule="evenodd"/><path fill="#470402" fill-rule="evenodd" d="M150.3 94.8c-.7-.7-.4-1.8.9-1.7.3 1-.2 1.5-1 1.7m-.5.4c2 .3 2.6-1.6 1.8-2.4-1-.9-2.4.6-1.8 2.4m1-4.7c-.1-1 0-1.6 1-1.8.6.7.3 1.6-1 1.8m-.1-2c-.3.7-.5 1.1-.3 2.1l1.2.4c2.2-2.8.1-3-.9-2.5" clip-rule="evenodd"/><path fill="#E4A26B" fill-rule="evenodd" d="M117 88.4c.5-1.6-.3-3-1.3-3.8-.3 1.9.4 2.2 1.2 3.8" clip-rule="evenodd"/><path fill="#371804" fill-rule="evenodd" d="M165.6 64.5c.2-.6.2-.4.2-1 0-1.4-.2-.3.4-1.2-1 .2-1 .4-1.4-.5-.3-.8-.8-2.5 1.4-2-.2-.4 0-.2-.4-.5h-1c-1.3 1.2-.5 3 .7 3.7zm-32 1.5c-.2 1.3.2 1.8 1 2.3-1.4-1.9-1.3-3 1.5-2.2-.6-1-.5-.3-.3-1.5l-.3.3c-1 .9-.4-.2-2 1" clip-rule="evenodd"/><path fill="#F1CB55" fill-rule="evenodd" d="M150.3 94.8c.7-.2 1.2-.6.9-1.7-1.3-.1-1.6 1-1 1.7m.4-4.3c1.4-.2 1.7-1 1-1.8-.8.2-1 .9-1 1.8" clip-rule="evenodd"/><path fill="#E31F25" fill-rule="evenodd" d="m35.4 48.8 156.1 156 12.8-12.8-156-156z" clip-rule="evenodd"/><path fill="#231F20" fill-rule="evenodd" d="M105 114.2c-2.4-.2-5.6.2-7.6 1-1.2.4-6 2.6-4.5 5 1.9 2.7 5-1.3 6.2-2.2 1.6-1.3 5.1-2.7 5.9-3.8m-75.6 51.3c3.4-4.1 5.5-6 7.7-12.8.8-2.4 7.8-13.7 9.4-15.6 1.9-2.1 4.7-3 5.5-6.3 1-.5.1.3 1.2-.9l.8-1.2 1.5-2.3 1.5-1.7c2.5-4.2 2.8-6 4.1-11.3 2.3-6.2 3.2-4.8 1-10.2-1-2.7.2-3 0-5.5-.3-2.5-1.4-1.9 0-5.6 1.7-4.5 2.7-4.9 4.5-6.3 1.2-.9 5.7-6.6 10.5-5.5-1 2.7-3.4 3.4-4.6 6.7 2.8.4 1.6-.2 4-.7 1.8-.5 2.6 0 4-.5 2-.7 4.6-3.4 7-2.5-.3 2.1-2.3 3.4-3.5 5.4 1 1.7 2.2 2 2.7 4.3.5 2.5-.6 3 2.3 4 1.9.7 4 1.9 5.6 1.7 1.7-.2 3-1.4 4.7-.1-.5 2-1.3 1.8-2.7 3.3.1 1.7.8 2.3.6 4.7-.7 9.8 5.2 5.1 9.2 7.1-.2 1.8-2.2 2.5-4.5 3.5 0 2.2.8 4.4-.5 6.8-1 1.7-3.7 2.2-7.7 6.9-1.3 1.6-2.7 2.2-3.8 3.5-1.4 1.5-1.7 2.5-3.4 4.2-4 3.8-8.5 6.5-11.8 9.7-3.2 3.1-4.2 4-6.8 8.2-2.1 3.4-1.2 8.2-4.5 12-1.4 1.7-2 1.6-3.4 4.1l-8.3 15.6a60 60 0 0 0-2 4.8 101 101 0 0 1-5.4-5.6c3.3-6.8 5-20.7 10.3-24 .5 1.6-2.1 5.9-3.3 8.8a59.7 59.7 0 0 0-3 10.4c4-.6 1.4-2.7 6.7-11 1.3.3.3.1 1.2.9 2.1-3.6 6.6-4.7 7-9.3-1.5 1.8-2.4 2.3-5.2 2 .8-1 4.8-4 6.4-7.7 1.9-4.3-.2-7.1 4.2-10.2.4 1.2 0 1.6-.4 2.6-.6 1.2-1 .4-.7 2.1 1.1-.7 4.6-4.5 5.6-5.5l12.2-10c3.2-3.7 1.4-3.2 5.6-5.5.2-1.5-.1-.5-.5-2.7l2-1.1c1.5-.3 3.3-1.5 4.9-2.6 2.1-1.5 3-2.2 2.6-5.2-3.1.4-2.7 4.4-7.7 2.3-2.4-4.5 2-6.3 5-7.8-2.6-1.6-4.8.7-7 2-4.7 2.9-3.6 3-3.2 7.3-2.2-1.4-.7-1.5-2.4-2.3-2.8 2.7-1.5 3.7-1.6 6.8-4.5-3.4-.1-7 3.3-11L88 115l-3-.8.2-1c5 .6 11.4-4 9.3-9.1-3.3 2.2-3.2 7.2-8.9 4.2-.4-2-.7-3.4 1.3-5.4.6-.6 3.2-2.4 3.7-3.2-3-1.4-3.5.4-7.4 3.7-5.3 4.5-1.2 5.8-2.3 7-6-1.2-1 6-.8 6.4-.4 0-.1.2-1-.1-4-1.5-2-6.6-.8-9 2.2-4.5 4.2-5.3 6.7-8.4-1.9 1.1-3.9 4.4-6.7 3.7.2-.2 11.3-9.3 4.3-12-1 3-2.3 7.1-5.9 5-3.4-1.9-.2-5.5 1-8-2.6.5-6.3 7-6.5 8.6-.2 2 .8 2.2 1.8 3.4l-1.4 1.3c-.6 1-.7 1.7-.4 2.6.4 1.4 2.3 2.2 3.3 3.2l-2.7-.3c-3.3-1.7-2.5-4.6-2-7.8-.9-6.2.8-3.6 2.3-8.4-1 1.5-1.3 2.7-3.2 3-2.2.3-2.4-.5-3.5-1.6-.7-.6.1-.3-1-.7-2.9 6.4.8 4.7 2 8l-2.3.2c-1.1 3.3 1.2 4.7 3 6.9-2 3.4-3.2 5.4-4.7 9.9l-1.6 6.4.9.5c-1 4-2.4 2.6-3.2 4.7l-2.3 2.8c-2.6 1.7-3.3 7.4-2.6 10.2.6 2.5 1.3.7.5 4-3-1.6-3.5-3.7-3.8-7-.9.5-.2-.2-1.2 1-2.9 3.4-4.7 7.6-2.5 11.8-1 2.1-1.1 1-2 4-.5 2.3-.4 2.5-1.7 4-1.1-2.3.5-5.5-1-8.3-4.9.9-5 18.3.2 20.3 1.3-1 2.9-3.8 4.3-5.2 1.7-1.6 3.9-3.4 5.8-4-1.3 2.7-4.2 4.3-6 6.9-1 1.2-1.7 2.6-2.3 4-2 4.4-1.4 3.5-3 3.5-.5-1.5.3-2.5-.9-3.9-1.1-1.4-3.9-1.4-5-5.5l-.4-3-.5-1.1c-1.5 3.4-2 6.3-1.7 8.6a101 101 0 0 1-3-5.5M37 178c2.6 1.5 5.7 1.5 6.8.5.7-.7 1.3-2.2 2.4-3-.9 6-2.9 7-6 6.8q-1.7-2.1-3.2-4.3M98 99c-4.3.2-11.7 3.2-11.4 8 3.5 2.6 3-.5 9.7-6.2zM86.1 84.3c-3.7.8-9.3 4.6-9.7 9.7 3.1 2.5 3.8.8 5-2.8 1.2-3.5 3.2-4.2 4.7-7M75.4 81c-2 .7-4 2-5.8 3.4-6.5 5.7-1.7 10 .5 7 .8-1.1.7-3 1.2-4.5.8-2.7 3-3.6 4.1-5.9" clip-rule="evenodd"/><path fill="#F69D34" fill-rule="evenodd" d="M78.8 130.7a6 6 0 0 0-1.2-3.6c-.9 1.2-1 2.7-2.3 4.4-3.3 4.2-8.2 8.5-9.2 10.6l1.2-.4zm-20.3-2.8c.8-2.1 2.2-.7 3.2-4.7l-.9-.5 1.6-6.4c1.5-4.5 2.7-6.5 4.6-9.9-1.7-2.2-4-3.6-2.9-6.9l2.3-.3c1.4.5.6.5 2 .3L70 99c-.6 3.2-1.4 6 2 7.8l2.6.3c-1-1-2.9-1.8-3.3-3.2-.3-1-.2-1.6.4-2.6L73 100c1.3 2.6 1.5 3.1 5.3 3 2.8.7 4.8-2.6 6.7-3.7-2.5 3-4.5 3.9-6.7 8.4-1.2 2.4-3.3 7.5.9 9 .8.3.5.1 1 0-.2-.4-5.3-7.5.7-6.3.2 2.7 1 3.5 4.1 3.8l3 .8-1.7 1.6c-3.4 4.1-7.8 7.7-3.3 11 .1-3-1.2-4 1.6-6.7 1.7.8.2.9 2.4 2.3.5 2.5 2 3.4 5.4 4l-2 1c.4 2.3.7 1.3.5 2.8-4.2 2.3-2.4 1.8-5.6 5.6l-12.2 10c-1 1-4.5 4.7-5.6 5.4-.2-1.7.1-1 .7-2 .4-1 .8-1.5.4-2.7-4.4 3-2.3 5.9-4.2 10.2-1.6 3.8-5.6 6.6-6.4 7.7 2.8.3 3.7-.2 5.2-2-.4 4.6-4.9 5.7-7 9.3-.9-.8 0-.6-1.2-1-5.3 8.4-2.8 10.5-6.7 11 .7-3.5 1.7-7 3-10.3 1.2-3 3.8-7.2 3.3-8.9-5.2 3.4-7 17.3-10.3 24.1a102 102 0 0 1-4.2-5.1c3.1.2 5.1-.7 6-6.8-1.1.8-1.7 2.3-2.4 3-1.1 1-4.2 1-6.8-.5a102 102 0 0 1-4.5-7c-.2-2.3.2-5.2 1.7-8.6l.5 1.2.4 2.9c1.1 4 3.9 4.1 5 5.5 1.2 1.4.4 2.4 1 3.9 1.5 0 .9.9 3-3.6.5-1.3 1.3-2.7 2.2-4 1.8-2.5 4.7-4.1 6-6.8-2 .6-4.1 2.4-5.8 4-1.4 1.4-3 4.2-4.3 5.2-5.2-2-5-19.4-.2-20.3 1.5 2.8-.1 6 1 8.3 1.3-1.5 1.2-1.7 1.8-4 .8-3 .9-1.9 2-4-2.3-4.2-.5-8.4 2.4-11.9 1-1.1.3-.4 1.2-1 .3 3.4.7 5.5 3.8 7.1.8-3.3.1-1.5-.5-4-.7-2.8 0-8.5 2.6-10.2zm8.3-10.7-4.6 10.6 1 .5c2-7 8.2-12 6.5-15.9-1.2 1-2.2 3.1-3 4.8m9 2.8-.3.2-.3.2-1 .8c-.9.6-1.5.9-2.2 1.8-1.2 1.5-1.9 3.6-2.9 5.5-2.1 4-5.8 6.7-7.2 9.8 1.6-.4 1.6-.6 2.7-1.8l2-2c1.5-1.7 2.3-2.4 3.7-4.2 4-5.3 5.5-6.3 6.3-11zm-12.2 29.7c-3.4-.2-2.6.9-3.8 3.5-1.2 2.8-2.2 1-3.1 3.7l4.3-.8zM57 147c-2 2.3-.3 6.6-6.5 7.2-3.3.2-2.3 2.1-2.7 3.6-.4 1.4-1.7 4-2.2 5.6 2.8-.5 1.9-2.2 3.4-4.5 2-2.8 6-3 8-6.4 1-1.5 1.5-4.4 0-5.5" clip-rule="evenodd"/><path fill="#fff" fill-rule="evenodd" d="M85 114.2c-3.2-.3-4-1-4.1-3.8 1-1.2-3-2.5 2.3-7 3.9-3.3 4.4-5 7.4-3.7-.5.8-3 2.6-3.7 3.2-2 2-1.7 3.3-1.3 5.4 5.7 3 5.6-2 9-4.2 2 5.1-4.5 9.7-9.4 9zM78.3 103c-3.8.1-4-.4-5.3-3-1-1.2-2-1.5-1.8-3.4.2-1.6 3.9-8.1 6.5-8.7-1.2 2.6-4.4 6.2-1 8.2 3.6 2 5-2.2 6-5.2 6.9 2.8-4.2 11.9-4.4 12.1m14 24.2c-3.2-.6-4.8-1.5-5.3-4-.4-4.3-1.5-4.4 3.2-7.3 2.2-1.3 4.4-3.6 7-2-3 1.5-7.4 3.3-5 7.8 5 2.1 4.6-1.9 7.7-2.3.3 3-.5 3.7-2.6 5.2a15.8 15.8 0 0 1-5 2.6" clip-rule="evenodd"/><path fill="#231F20" fill-rule="evenodd" d="M76.5 119.3c-.8 4.7-2.4 5.7-6.3 11-1.4 1.8-2.2 2.5-3.8 4.2l-2 2c-1 1.2-1 1.4-2.6 1.8 1.4-3.1 5-5.7 7.2-9.8 1-1.9 1.7-4 3-5.5.6-1 1.2-1.2 2-1.8.6-.3.6-.3 1.1-.8l.3-.2.2-.2zM57 146.9c1.5 1.1 1 4 0 5.5-2 3.4-6 3.6-8 6.4-1.5 2.3-.6 4-3.4 4.5.5-1.7 1.8-4.2 2.2-5.6.4-1.5-.6-3.4 2.7-3.6 6.2-.6 4.5-5 6.5-7.2" clip-rule="evenodd"/><path fill="#B5BEC1" fill-rule="evenodd" d="M96.3 100.8c-6.6 5.7-6.2 8.8-9.7 6.1-.3-4.7 7.1-7.7 11.4-7.8zm8.7 13.4c-.8 1-4.3 2.5-5.9 3.8-1.1 1-4.3 5-6.2 2.2-1.5-2.4 3.3-4.6 4.5-5 2-.8 5.2-1.2 7.6-1M75.4 80.9c-1 2.3-3.3 3.2-4.1 6-.5 1.4-.4 3.3-1.2 4.4-2.2 3-7-1.3-.5-7 1.8-1.5 3.7-2.7 5.8-3.4" clip-rule="evenodd"/><path fill="#fff" fill-rule="evenodd" d="m69.9 99-1.5.5c-1.4.2-.6.2-2-.3-1.2-3.2-4.9-1.5-2-7.9 1.1.4.3 0 1 .7 1 1 1.3 1.9 3.5 1.5 1.9-.2 2.1-1.4 3.2-2.9-1.5 4.8-3.2 2.2-2.2 8.4" clip-rule="evenodd"/><path fill="#B5BEC1" fill-rule="evenodd" d="M86.1 84.2c-1.5 2.7-3.5 3.4-4.7 6.9-1.2 3.6-1.9 5.3-5 2.8.4-5.1 6-8.9 9.7-9.7" clip-rule="evenodd"/><path fill="#231F20" fill-rule="evenodd" d="M67.3 141.7c-1 .5 0 0-1.2.4 1-2.1 6-6.4 9.2-10.6 1.3-1.7 1.4-3.2 2.3-4.4a6 6 0 0 1 1.2 3.6zm-.5-24.5c.7-1.7 1.7-3.7 2.9-4.8 1.7 3.8-4.5 8.8-6.5 15.9l-1-.5zm-3.3 32.5-2.6 6.4-4.3.8c1-2.8 1.9-.9 3.1-3.7 1.2-2.6.4-3.7 3.8-3.5" clip-rule="evenodd"/></svg>