<svg xmlns="http://www.w3.org/2000/svg" width="240" height="240" fill="none"><path fill="#fff" fill-rule="evenodd" d="M120 221.344c55.97 0 101.343-45.373 101.343-101.344S175.97 18.656 120 18.656 18.656 64.03 18.656 120 64.029 221.344 120 221.344" clip-rule="evenodd"/><path fill="#2B2B2A" fill-rule="evenodd" stroke="#2B2B2A" stroke-miterlimit="22.926" stroke-width=".756" d="M18.667 129.608h202.665q.012.667.011 1.335c0 1.243-.036 2.479-.091 3.709h-20.641v51.073a95 95 0 0 1-2.828 3.158v-54.231h-21.959v71.739a103 103 0 0 1-2.828 1.611v-73.35h-21.959v82.36q-1.405.405-2.827.772v-83.132h-21.959v86.509q-1.41.076-2.828.119v-86.628h-21.959v85.171q-1.42-.234-2.828-.505v-84.666H76.678v78.027c-.95-.401-1.895-.81-2.828-1.237v-76.79H51.89v63.228a97 97 0 0 1-2.828-2.388v-60.84H27.104v32.464a84 84 0 0 1-2.827-6.431v-26.033h-5.53a82 82 0 0 1-.091-3.709q0-.668.01-1.335Z" clip-rule="evenodd"/><path fill="#E31F25" fill-rule="evenodd" d="M120 240c66.274 0 120-53.726 120-120S186.274 0 120 0 0 53.726 0 120s53.726 120 120 120M54.293 42.849l143.835 141.703c14.501-17.531 23.216-40.024 23.216-64.552 0-55.97-45.373-101.344-101.344-101.344-25.072 0-48.013 9.11-65.707 24.193m128.747 156.5L39.719 58.152C26.514 75.264 18.656 96.713 18.656 120c0 55.971 45.374 101.344 101.344 101.344 23.83 0 45.736-8.229 63.04-21.995" clip-rule="evenodd"/><path fill="#1C1613" fill-rule="evenodd" d="M133.536 190.858c-1.395.314-4.086.907-5.318.044-1.623-.279-2.055-1.17-1.9-2.853.126-.377-.227-.332.213-.311.453-.799.864-.848 1.219-1.647.903.218 1.345 2.165 5.552 1.857 3.871-.283 7.334-3.292 8.929-6.381 1.011-1.957 1.765-5.045 2.194-5.409.574 2.141-.423 3.323-1.299 4.762-1.758 2.881-2.711 6.607-4.818 8.128-1.202.867-2.994 1.526-4.772 1.81m-28.848-14.903c-2.237 1.097-4.985.694-6.083-1.041-.41-1.023-.419-1.346-.225-2.525.235-.765.179-.841.7-1.231.529-1.379 2.299-2.243 2.581-2.824-2.183 5.935 4.688 5.75 9.204.872 1.935-2.091 5.763-8.435 6.215-12.366.951 3.286.658 3.707-.798 6.176-1.712 2.902-3.257 7.359-6.142 9.937-1.08.965-3.532 2.658-5.452 3.002m69.883-39.52c.991-.248.989-.879 1.433-1.322.556-.554 2.83-.921 3.676-1.452.06.8-1.76 3.914-1.712 5.374.029.895 1.082 2.137 2.751-.997 1.158-2.173 2.144-1.179 4.039-3.346 2.279-2.607 1.149-5.362-.797-6.694-5.971-4.083-5.218-3.753-7.402-12.486-1.234-4.935-2.175-11.887-2.808-17.134 2.877-.987 5.613-4.804 6.13-7.257.007 2.962-1.644 5.426-2.912 7.156 2.764.32 4.438-.75 5.55-2.458 1.274-1.957 1.611-3.916 1.736-6.527.512.403 1.386 1.207 2.467 1.35 1.533.201 2.113-.412 2.887-1v-.032c-1.848-.116-2.578-.609-3.202-2.035-.584-1.337-.756-2.96-.755-4.542.003-9.664-1.607-19.486-1.881-30.18-.198-7.745-1.976-30.13-12.486-30.24-.704-1.275-1.472-2.079-2.63-2.884-.866-.602-2.707-1.505-3.855-1.968-4.457-1.8-8.01-1.726-9.356-2.228h-6.222c-1.712.736-8.111.498-13.939 6.239-3.803 3.745-.357 1.255-5.768 4.278-4.251 2.374-8.191 5.341-10.36 9.775-1.982 4.052-1.609 11.23.83 14.023.47.538.938.84 1.432 1.253.981.818.528 1.224 2.264 2.877 1.871 1.781 2.393.678 3.701 1.378-.629.271-.149-.035-.467.035l-.637.22c.675.234.619-.008.896.578l-1.397.06 1.358.728.248.45.301-1.636c.011-.085.051-.516.089-.6.018-.042.058-.115.079-.154.02-.036.087-.096.106-.124.019-.03.078-.08.118-.119.55-.737.937-1.538 2.281-1.314 1.122.187 1.452.987 1.934 1.941.938 1.86 1.125 3.91.839 6.147-.327 1.586-.983 3.565-2.337 3.81-1.642.299-2.748-1.73-3.102-3.113l-.131-.563-.734-3.858c-.145 5.108.461 10.245 3.136 14.423 3.241 5.065 3.967 2.735 4.88 6.959.359 1.662.641 3.517.756 5.283.306 4.676-.152 6.182-2.32 8.835l-.229.307c1.274-.019 1.885-.473 2.841-.832l-4.833 7.844c-1.14-.604-4.907-4.58-5.534-5.398-2.733-3.557-3.538-7.296-5.064-11.243-1.192-3.083-1.899-3.494-3.207-7.74-.442-1.431-.471-3.705-2.179-3.21-1.523.897.487 5.836.416 6.31-.091.595-.484.797-.562 2.091-1.278-.105-.856-.182-1.961.193-2.331.79-2.202-.958-2.675 2.418-2.124.806-1.749 1.195-.825 4.43.48 1.675.863 4.063 2.702 4.161l.495-1.098c4.197 7.385 5.24 1.914 8.099 5.319.925 1.1 1.847 2.95 2.654 4.266.885 1.443 1.91 2.689 2.882 4.046 2.182 3.047 5.25 5.218 8.222 1.395.502-.646 1.02-1.138 1.521-1.84.528-.741.93-1.285 1.485-2.088l2.694-4.155c.923 1.514.797 2.203 2.15 3.807.786.933.515.902.66 3.041.217 3.193.298 6.151.832 9.24-5.767-1.231-7.506-2.625-13.921-1.28l.591.244c.78.132 7.454-1.422 10.976 2.35 2.489 2.664 2.746 9.916-3.004 8.147-4.519-1.389-6.861-5.906-9.754-2.003-4.391 5.924-2.462 11.499-7.701 22.008l-5.384 9.611c-.461 2.108-.024 4.62-1.78 5.593-1.351.749-1.109.252-1.964 1.834-.493.911-.74 1.696-1.146 2.643-1.153 2.693-4.001 7.918-7.972 6.76-.969-.653-.229-2.088.13-2.836.5-1.04.398-.394.016-.757-1.334.545-4.742 3.659-5.136 5.786-1.043 5.619 7.783 5.56 13.263-.161 2.668-2.786 4.2-7.256 6.089-10.225.822-1.292 1.078-2.621.679-4.397-.505-2.251-1.369-1.989-.192-3.832 3.181-4.974 7.642-12.446 10.106-17.648.812 1.18 1.077 4.025 1.786 5.355l.283-.001c-.419-2.524-1.679-5.02-2.06-7.398-.375-2.35-.444-6.359 1.608-7.286 3.49-1.576 6.259 8.354 7.135 11.441 1.783 6.284 4.705 28.347 2.186 33.657-1.361-.258-1.205-1.336-1.893-4.147-.449-1.83-.802-3.384-1.3-5.117-.307-1.488-.994-3.039-1.368-4.656-.403-1.744-.749-3.329-1.154-4.874-.484-1.849-.746-3.107-1.163-4.922-.385-1.675-1.028-3.052-1.207-4.688l-.157-.153c-.369.008-.093-.914-.246.184l4.763 18.85c2.099 7.558 3.171 9.146.206 13.626-.533.805-1.843 2.977-2.595 3.38-.402 1.154-1.283 1.434-1.713 2.644l.413-.313c.397-.593 1.337-1.842 1.842-2.4.37-.409.619-.57.967-1.013.465-.592.402-.623 1.141-1.27.932-.322 1.405-1.205 2.801-1.157 1.98 3.36-.798 8.872-4.474 10.094-1.527.509-5.645.59-3.622-2.275.621-.88 1.229-.76.474-1.088-.371.163-.259.146-.587.546l-1.696 2.107c-.437.483-.134-.034-.378.52-1.097.304-2.211 1.915-2.137 3.084.084 1.335 1.647 2.173 3.015 2.423 2.805.512 6.516-.508 8.81-1.629 1.522-.744 1.82-.909 2.749-2.391 1.006-1.606 2.282-4.911 3.571-6.931.926-1.452 1.312-2.084 1.167-4.239-.338-1.876-1.519-2.851-2.447-3.786-.944-.948-.713-4.13-.8-5.721-.426-7.76-1.169-21.565-3.2-28.715-.451-1.586-1.316-3.345-1.597-4.817l1.16.159c3.298.451 6.742.92 10.063 1.261 5.772.593 16.146 1.791 20.783-1.639 3.905-2.888 3.856-6.538 2.991-11.389-1.238-6.935-3.282-8.887-5.162-14.046-.45-1.235-.695-2.785-.423-4.223.163-.861.831-3.097 1.159-3.72 1.32 5.461 1.859 10.879 3.698 16.226.792 2.302 1.835 5.114 2.811 7.25.391.856 1.227 2.609 1.323 3.61.16 1.67-1.688 2.234-1.486 4.501.166 1.872-2.07 5.78.773 5.076m1.567-2.016c.129-1.054.13-2.184.649-2.98 1.093-.065 2.882.497 3.12 1.387-.581.804-2.412 1.384-3.769 1.593m-2.172-31.982.037.476c.369 2.405.705 4.91 1.13 7.326.434 2.466 1.137 5.025 1.489 7.375l1.458 5.551 1.193 2.004c.644.395 1.125.767 1.899 1.388 2.067 1.658 4.727 2.334 4.29 5.814-.001-1.037-.027-1.574-.572-2.254.055 1.559.092 3.016-.767 4.412l-.823.84c1.021-1.944 1.497-2.74.066-4.956.198 3.226.958 3.73-1.521 5.874.603-1.397 1.11-1.258.528-3.532l-.325.907c.483 1.476-.507 2.443-1.192 3.413-.726 1.026-1.021 2.396-2.359 2.417-.556-1.941.483-2.2 1.149-3.184.655-.969.278-2.107.656-3.385.017-.055.051-.135.066-.18a1.3 1.3 0 0 1 .07-.179c-.306-.855-1.951-2.233-2.01-2.031-.012.038-.095.012-.111.014l-.111.018c-3.642.64-1.445 2.435-2.814 4.627-.272.435-.94 1.139-1.546.735-.314-.364-.309.531-.143-.664.097-.697.393-.693.52-3.074.103-1.924.026-2.411 1.004-3.589 1.226-2.006-.752-5.151-1.551-7.063a93 93 0 0 1-2.602-7.009c-.592-1.807-3.472-14.7-3.375-16.084 1.496-.456 1.694-.281 2.375-1.443.058.034.133.033.164.118.096.26 1.429.519 1.85.666.051.018.136.04.19.083-.468.278-.704.457-1.364.8.831.376 1.546-.087 2.498.06zm-32.014-18.965c.581-.638.935-.833 2.067-.84.465.703.703 1.505 1.262 2.255 3.002 4.035 11.712 2.972 14.269-2.431 1.301-2.75-.049-2.312 2.346-2.77.607-.12.611-.131 1.249.054.853.248.772.301.908.763 1.302.422 1.3 12.109 1.064 13.746-.101.696-.316 1.5-.537 1.974-.374.805-.818.903-1.041 1.415 2.295.407 2.598-.478 3.961-1.195-.266 1.507-.734.44-.461 1.75.029.143.074-.163.107.46.055 1.017-1.297 3.772-1.378 5.845-.117 2.953 1.597 5.579 2.665 7.97 1.772 3.967 4.943 12.389 2.749 17.385-2.295 5.227-9.395 5.363-16.204 5.041-5.639-.267-11.474-.986-17.035-1.78-1.212-.173-1.151-.217-1.451-1.347 3.475-.198 6.179.265 8.384-2.08 2.775-2.95 2.365-8.708.743-12.49-.572-1.333-1.279-2.195-1.567-3.795-.508-2.834-.606-7.058-.703-10.079.883.316.807.667 1.949.974.908.244 1.623.019 2.372.074-1.026-.595-4.5-.121-5.421-3.08-1.813-1.474-3.389-6.915-.028-11.116-.702-1.563-2.145-2.019-2.937-3.575.357-.913 1.7-2.64 2.668-3.128m-14.337-34.13.36-2.747c.195-1.184.789-2.491 1.864-2.76.464-.118 3.011.472 3.891.533 1.497.105 2.665-.029 4.087-.4 1.317-.344 2.679-.334 4.099-.606 2.416-.461 4.774-1.38 6.714-2.436 2.461-1.338 3.599-2.534 5.248-4.173 1.362 11.657 2.464 11.484 6.1 20.706.456 1.157 1.881 6.337 2.144 6.746 1.285-.483.392-2.794.494-4.4a7.6 7.6 0 0 1 .487-2.172c.346-.908.491-1.138 1.345-1.441 2.051-.759 3.434 1.926 3.643 3.898.269 2.53-.263 4.932-1.403 6.668-1.153 1.39-1.663.698-2.998.363-.967 2.602-3.596 5.875-5.015 7.546-2.515 2.961-4.605 3.557-6.785 4.823-.415.241-.402.289-.465.371 1.058.091 1.858-.778 2.909-1.099l.353.791c.164-1.815-.032-.631 2.53-3.007l4.176-4.772c.276-.409 1.626-2.335 1.669-2.462l1.395 10.564c-.749-.157-3.042-1.094-4.585.001-.401.285-.167-.046-.133.939.001.043.02.135-.005.195-.61 1.365-.963 2.413-1.872 3.337-.834.847-2.131 1.626-3.68 2.007-4.515 1.77-8.727-.215-9.684-3.843l2.651.154 1.015.04-.015-.332c-3.632-.328-4.844-.806-7.151 1.432-2.977 2.887-1.472 1.902-2.51 4.161-.263.571-.438 1.224-.828 1.537h.124c.597.06-.069-.663.519.325.536-.728.933-1.214 1.152-2.003 1.148.705 1.346 1.394 2.345 2.058-.474 1.199-1.195 1.678-1.634 3.354-1.223 4.674 2.198 2.28-3.874 10.444-.904 1.216-3.252 4.714-5.224 4.644-1.139-.042-2.714-1.322-3.187-1.787-.36-.355-1.855-2.392-2.179-2.954l-.039.096c-.989-1.154-2.226-3.237-3.124-4.758-.576-.977-.855-1.447-1.504-2.296-.768-1.007-1.063-1.463-2.921-1.361-2.362.562-4.374-2.084-4.976-3.917l-.628-1.414c.807.061 1.431.382 2.211.003-3.657-.009-2.823-2.708-4.003-4.912-.098 4.336 2.724 4.502 1.079 7.305-1.211-.639-2.826-5.541-2.604-7.303.452-.255.919-.495 1.517-.649.088-.955-.104-1.203.305-2.026.939-.243 1.015.096 2.04-.275 1.238-.448.896-.283 2.3-.04-.052-1.128-.048-1.953.651-2.43l.016-.326c-.708-1.578-1.864-4.817-.511-5.967.942.559 1.5 4.242 2.767 7.045 1.004 2.22 2.39 4.767 2.97 7.377-.465-.538-.702-1.169-1.162-1.78-.473-.631-.862-1.098-1.302-1.835-.568-.953-1.694-3.32-1.839-4.4-.806 1.997 3.374 6.837 4.382 9.312.295.727.179.348.354.304.19-.048-.489-1.426.933 1.676.741 1.615 2.396 4.605 3.604 5.796l4.839 4.552c.042-.037.092-.164.106-.129l.293-.392c.236-.322-.059-.16.458-.572.637-1.515 1.985-3.504 2.836-4.84.824-1.296 2.087-3.534 3.001-4.483l-.061-.355c-.72-1.05.015 1.339-3.444 2.354.642-.476.519-.895 1.128-1.652.269-1.46.602-2.137.709-3.79.102-1.555-.075-3.058.029-4.568-.422-.6-.475-2.068-.635-2.948-.231-1.282-.528-2.11-.278-2.781-.461-.471-.972-.758-1.442-1.133-3.55-2.826-6.509-8.953-6.404-13.509.214 1.262 1.125 2.44 1.986 2.796l-.995.893c1.091-.252 1.702-.617 2.937-.266l.066-.162c.444-.739 1.376-.98 1.982-3.351.573-2.243.186-3.395.007-5.551l.582.972c-.05-1.536-.494-2.238-.951-3.463-.053-.041-.134-.172-.16-.126l-.862-.767c-.252-.199-.86-.622-1.352-.679-.87-.1-1.593.175-2.133.72l-.647.671c-.129-1.228.263-1.519.079-3.104l.091-.711-.205.413c-.113.402-.097.105-.138.654l.046 2.338c-.298 1.59.117.517-.543.954l-.413-.588c-.754-.362-1.783-2.37-2.187-3.75-.53-1.812-.423-3.605-.161-5.404.3-1.868.664-2.26 1.278-3.64l3.706 2.055c-.434.638-1.995 1.364-2.052 4.725l.167 1.542c.233.659.067.22.243.486zm-8.619-2.547c-.303-1.287-.555-2.089-.615-3.55l.072-4.02c.343-1.779 1.088-3.31 1.811-4.547.7-1.199 1.958-2.749 2.755-3.495 1.147-1.074 5.508-4.557 7.572-5.067 1.225-1.182 2.1-.673 4.63-3.508 5.62-6.295 14.704-7.504 22.932-6.225 1.523.237 3.135.898 4.41 1.05 1.615.366 5.705 2.206 6.942 3.457l.864.902c.231.308.348.689.474 1.125 2.472.49 2.519.208 4.363 1.483 3.836 3.834 5.015 7.606 6.433 13.153 1.541 6.03 1.614 11.9 1.773 18.008.162 6.218 1.026 12.223 1.44 18.346.242 3.59.065 11.208 1.095 13.66.876 2.085.873 1.411 2.441 2.483-3.778 1.073-4.915-2.611-5.291-5.483l.116-.422c-1.545.872 1.75 3.696.098 8.915-.425 1.346-1.037 2.535-1.787 3.336-.926.99-1.985 1.583-3.783 1.57 1.051-2.017 2.553-3.625 2.641-7.16.038-1.55.179-3.166.173-4.65-.004-.933-.412-4.211-.392-4.347-.459 4.959 1.241 7.079-2.433 12.807-.948 1.478-2.685 3.19-5.568 3.764.297-.573 2.821-2.744 3.21-4.235-1.592.597-1.861 3.083-4.386 3.038-.822-1.71 1.972-3.7 2.265-9.5.011-.226.024-.629-.012-.843l-.181-.544a.8.8 0 0 0-.085-.162l-.202 3.26c-.815 3.097-.88 5.231-2.946 7.595-.457.523-1.331 1.114-2.393.784 1.13-1.575 2.181-3.369 2.378-5.972.182-2.419.683-5.442.255-7.85-.297 3.394-.093 12.895-5.607 13.377 2.058-3.906 1.218-10.46.678-15.058l-1.332-11.168c-.297-2.085-.449-1.647.085-3.48 5.17 1.53 5.157-7.27 3.96-9.754-.844-1.751-2.817-3.433-4.621-1.226-1.517 1.857-.817 4.471-.785 6.851-.041-.059-.087-.223-.104-.187l-.32-.74c-.075-.225-.166-.65-.231-.895l-1.717-4.977c-3.131-7.621-5.427-11.498-5.883-21.015-.387.273-1.343 1.919-2.451 2.764-.96.732-1.954 1.445-3.193 2.156-1.758 1.009-5.669 2.428-8.1 2.596-.281-.695.013.5.018-.198l-.018-.236c-3.016 1.584-8.196 1.799-11.653-.157-.57-.322-.94-.475-1.449-.797-.622-.393-.889-.706-1.77-.8-1.429 2.446-2.028 3.558-1.865 7.14.083 1.82.616 3.619 1.604 5.085.467.692.679.739 1.08 1.487-1.359-.066-1.954-.433-2.683-1.222-.796-.86-.866-1.227-1.504-2.29-.781-1.304-.885-.1-2.01-1.794a9.6 9.6 0 0 1-1.198-2.618" clip-rule="evenodd"/><path fill="#F8CFA3" fill-rule="evenodd" d="M148.553 72.803c-.54 1.597-1.158 2.674-2.646 3.2-2.052.727-3.002.046-4.062-.967-3.236-3.88-5.515-1.356-7.032-2.974 1.63.424 3.053.44 4.375-.446.506-.468.858-.554 1.61-.784 1.966-.6 4.102-.206 6.256-.18 1.267.006 2.974-.182 2.292-1.716 1.36.773.198.793-.276 2.143a19 19 0 0 0-.517 1.724m-15.023-6.84c1.584-1.265.927-.192 2.007-1.086l.285-.302c-.234 1.203-.324.52.278 1.492-2.804-.833-2.854.363-1.459 2.234-.853-.49-1.277-1.041-1.111-2.338m19.148-13.437c.681.27.216-.084.607.408-.851.352-.463-.023-.819.711l1.282.013c-.571.462-.482.213-.925.651-.313-.204-.479-.075-.65-.662.891 2.494 1.686 5.597.015 8.014l1.706-.089c-2.055 1.004-1.643-.134-3.976 2.511.036 1.31-.327.676-1.246 1.335l.359-1.167c-.048-.022-.123-.038-.155-.046l-.451-.11c-2.644-.57-4.873-2.87-5.066-5.492l-.621-.21c-.469-.274-.19.109-.407-.446-.465-1.185.312-6.167.829-7.253.305-.639.931-1.199 1.593-1.637.042-.029.097-.064.141-.09l.447-.234c1.455-.646 3.309-.41 4.52.736.658.622 1.203.93 1.762 1.584.965 1.133.691 1.41 1.055 1.473m-5.287-8.214c1.711.525 3.613 1.755 4.138 3.391-1.359-.53-2.679-2.329-5.059-2.381-2.483-.056-3.029 1.755-3.922 3.479-.116-2.064.601-2.963 1.522-3.926-1.516-.066-3.459 1.211-8.544 1.052-4.487-.14-5.455-1.518-7.284.38l-.267.288-.36 2.748c.856-.485 1.524-1.058 2.665-.206.888.663.877 1.001 1.498 2.12l-.184.54c.289.052.614.113.868.576.791 1.44.071.959-.044 1.048l.549 1.011c.457 1.225.901 1.927.951 3.463l-.582-.972c.179 2.156.566 3.308-.007 5.55-.606 2.372-1.538 2.613-1.982 3.352l-.066.162c-1.235-.351-1.846.014-2.937.265l.995-.892c-.861-.357-1.772-1.534-1.986-2.796-.105 4.556 2.854 10.683 6.404 13.509.471.374.981.662 1.442 1.133 1.553.55 3.803 2.22 5.637 2.318 4.79 1.116 7.312 1.136 11.799-1.088 2.768-1.372 5.378-4.079 6.544-7.307 2.815-7.793-2.009-13.64-4.233-22.088-2.869-10.904-6.701-5.615-9.403-5.083 1.02-.045 1.05-.197 1.848.354" clip-rule="evenodd"/><path fill="#B98D5E" fill-rule="evenodd" d="M167.259 70.099c1.378.633.999 2.373 2.129 2.567l.063-3.067c.412.16.494-.325.936 1.56.756 3.227 2.114 13.244 1.344 15.427-1.431-.965-.295-8.78-2.227-10.24-1.022 2.911.331 9.606-1.514 11.734-.72-1.4-.402-7.088-.523-9.313-.128-2.327-1.052-6.906-.208-8.668m2.013-35.148c1.024.487 1.544 1.532 2.088 2.625 1.049 2.111.741 2.59 1.852 3.087l-.841-7.729c.849.16.567.044 1.073.786 1.837 2.694 3.549 7.724 4.097 8.405.766-2.08-.461-6.957.224-8.702.866.33 1.27 2.21 1.479 2.995 1.682 6.33 1.927 13.872 1.339 20.347a48 48 0 0 1-.523 3.963c-.301 1.707-.384 2.551-1.481 2.882-.967-1.543-1.27-4.334-1.36-6.679-.047-1.217-.086-2.527-.181-3.782-.039-.529-.115-1.287-.213-1.797-.241-1.249-.581-1.119-.625-1.15-1.099 1.525-.492 3.538-.852 5.12-1.148-1.062-1.048-3.438-2.522-4.33-.13 1.792.17 6.286-.201 7.514-1.229-.897-1.615-6.92-2.682-7.372-.493 1.146-.144 1.42-1.118 2.302-1.781-.71-3.777-6.222-4.51-8.362-.781-2.278-2.629-7.766-2.296-10.2.879-.07 1.582 1.57 1.936 2.286.489.99.89 1.976 1.355 3.121 1.043 2.57 1.366 5.745 2.621 6.268 2.941-1.595.216-10.034 1.341-11.598m3.499 54.443.202-3.26c-.154-.93-.003-3.152.546-3.708 1.634 4.496-1.755 11.245-.671 12.384 1.38-.566 2.556-3.856 2.956-5.982-.668-.607-.526-1.846-.503-3.123.062-3.43-.162-7.008-.56-10.402-.242-2.057-2.12-11.738-1.669-12.615 1.636.937 1.866 5.568 2.694 7.251-.059-3.375-1.793-12.297-1.799-15.218.573.516.531.166.826 2.148.13.867.216 1.222.344 2.072.518 3.473 1.612 10.335 1.716 13.495.09 2.737.901 5.622 1.224 8.724.168 1.615.294 3.356.223 4.994-.071 1.62-.606 3.325-.308 4.918 3.059-2.766.444-19.158.444-23.914.975.784.908 1.577 1.121 3.478.144 1.278.368 2.56.436 3.638.156 2.45.464 4.764.776 7.321.373 3.052.762 8.016.14 11.03-.26 1.263-.821 2.283-1.058 3.511 1.729-.932 3.099-3.538 3.161-6.183.068-2.943-1.045-4.787-.177-8.19l.378 2.382-.116.422c1.232 1.567-.14 2.104 2.738 4.459.403.329.242.052.251.297.202-.69-.964-2.484-1.198-3.384-.34-1.31-.358-3.08-.405-4.485a158 158 0 0 0-1.664-17.952c-.487-3.232-.451-6.054-.444-9.307.02-10.042-1.332-26.222-9.735-29.305.415.86 1.539 1.804 2.386 3.884.66 1.621 1.04 3.539.663 5.46-.732-.224-1.21-1.407-1.701-2.18-.994-1.566-4.419-5.614-5.763-5.943.754 2.645 2.263 3.813 2.5 7.426l-.312-.285c-.05-.047-.221-.215-.271-.267-3.327-3.402-2.5-2.09-5.912-4.409 1.18 2.12 2.204 3.035 3.052 5.915.807 2.735 1.215 5.317.772 8.194-1.15-.37-1.178-1.229-2.212-3.139-.569-1.055-1.166-2.458-1.639-3.537-.914-2.082-2.526-5.54-5.302-5.055-2.233 2.774-2.587 7.782-1.758 12.097.377 1.959.971 3.911 1.645 5.757.42 1.153 1.149 4.43 2.32 5.042.04-1.273-.533-3.132-.104-4.12.77.507 1.357 1.664 2.105 2.359.916.85 1.681.84 2.794 1.457 2.103 1.167 2.214 2.703 3.142 5.305.977-.853.704-3.021 1.121-4.272.951.793.59 4.023.286 5.041-.639 2.14-.56 2.665-.819 5.02-.495 4.52-3.588 2.716-3.77 7.873-.143 4.03.794 11.031.646 16.77-.026 1.027-.509 4.392-.142 5.027 1.493-.443 2.374-3.52 2.837-5.558.65-2.861.435-5.019.654-7.864.341.397.407.47.546 1.463.073.524.11 1.035.144 1.565.274 4.174-.638 8.555-.388 9.847 1.443-.695 2.026-3.347 2.323-4.95.369.318.483-.493.288.581" clip-rule="evenodd"/><path fill="#95693D" fill-rule="evenodd" d="M130.591 26.115c1.645-.264 2.856-.763 4.689-1.018 1.899-.264 3.59-.102 5.296-.266-.469-1.342-2.809-.633-3.954-1.209-1.486-1.367 4.285-4.668 4.907-4.997 2.33-1.23 5.16-1.88 8.075-2.043 8.642-.482 12.301 5.88 10.457 8.748-1.167.17-1.613-.453-2.374-.913-1.662-1.005-5.48-2.198-7.126-.84 1.304.71 5.262 1.144 5.541 3.191-1.454.407-5.807-.947-8.947-.285-3.742.79-6.209 3.505-5.12 4.47.698.617 3.682-1.346 6.891-1.67 2.595-.262 6.343.568 5.12 3.418-1.096 2.556-7.268 8.177-9.332 8.28.516-.965 1.728-2.978 1.093-4.252-1.561.197-1.742 2.614-6.154 4.608-8.009 3.621-12.678-5.408-15.586.048-1.328 2.493-1.649 6.196-1.116 9.412-.733-.597-.806-1.061-1.13-2.121-.245-.803-.448-1.532-.497-2.385-.083-1.452.242-3.94.55-5.121-1.716 1-2.061 3.405-2.343 5.725-.118.025-.179.143-.535-.1a9.6 9.6 0 0 0 1.199 2.618c1.124 1.695 1.228.49 2.009 1.793.638 1.064.708 1.43 1.504 2.29.729.79 1.325 1.156 2.683 1.223-.401-.748-.613-.795-1.08-1.487-.988-1.466-1.521-3.264-1.604-5.084-.163-3.583.437-4.695 1.865-7.142.881.095 1.148.408 1.77.801.509.322.879.475 1.449.797 3.457 1.955 8.637 1.741 11.653.156l.018.237c-.005.698-.298-.497-.018.198 2.432-.168 6.342-1.588 8.1-2.596 1.239-.71 2.233-1.424 3.193-2.156 1.108-.846 2.064-2.491 2.451-2.764.456 9.517 2.752 13.394 5.884 21.015l1.716 4.976c.065.247.157.67.231.896l.32.74c.017-.036.064.128.104.187-.032-2.38-.732-4.994.785-6.852 1.804-2.206 3.777-.524 4.621 1.227 1.197 2.484 1.21 11.283-3.96 9.753-.534 1.834-.382 1.396-.085 3.48l1.332 11.169c.54 4.598 1.381 11.152-.678 15.057 5.514-.481 5.31-9.982 5.607-13.376.428 2.407-.073 5.431-.255 7.85-.197 2.603-1.248 4.397-2.378 5.972 1.062.33 1.936-.26 2.394-.784 2.065-2.364 2.13-4.498 2.945-7.595.195-1.074.082-.264-.288-.58-.297 1.602-.879 4.254-2.323 4.948-.249-1.291.663-5.672.388-9.846-.034-.53-.07-1.041-.144-1.566-.139-.991-.205-1.065-.546-1.463-.219 2.846-.004 5.003-.654 7.865-.463 2.037-1.344 5.115-2.837 5.558-.367-.635.116-4 .143-5.027.148-5.739-.79-12.74-.647-16.77.182-5.157 3.275-3.353 3.771-7.874.258-2.355.18-2.879.818-5.02.304-1.017.665-4.247-.286-5.04-.416 1.25-.144 3.419-1.121 4.272-.928-2.602-1.038-4.139-3.142-5.306-1.112-.616-1.878-.605-2.794-1.456-.747-.695-1.335-1.853-2.105-2.358-.428.987.144 2.846.104 4.12-1.17-.613-1.899-3.89-2.32-5.043-.674-1.846-1.268-3.798-1.644-5.757-.83-4.315-.476-9.323 1.757-12.097 2.776-.485 4.389 2.972 5.302 5.055.474 1.08 1.07 2.482 1.64 3.537 1.033 1.91 1.061 2.769 2.211 3.139.443-2.878.035-5.459-.771-8.194-.849-2.88-1.872-3.795-3.053-5.915 3.413 2.32 2.585 1.007 5.912 4.409.051.051.221.22.271.267l.313.285c-.238-3.613-1.747-4.78-2.5-7.426 1.343.329 4.768 4.377 5.763 5.943.49.772.968 1.956 1.7 2.18.377-1.921-.003-3.839-.663-5.46-.846-2.08-1.97-3.023-2.386-3.884 8.403 3.082 9.755 19.262 9.735 29.304-.007 3.253-.043 6.075.444 9.308a158 158 0 0 1 1.664 17.952c.048 1.404.065 3.175.405 4.484.234.9 1.401 2.694 1.199 3.384-.01-.244.151.033-.251-.297-2.879-2.355-1.506-2.891-2.739-4.458.376 2.871 1.514 6.555 5.291 5.483-1.568-1.072-1.565-.398-2.442-2.484-1.029-2.45-.852-10.069-1.094-13.659-.414-6.123-1.278-12.128-1.44-18.346-.159-6.108-.232-11.978-1.774-18.009-1.417-5.546-2.596-9.318-6.432-13.152-1.343-.51-3.304-1.354-5.194-.797 0 1.127.499.944 1.484 1.563 2.246 1.415 1.497 1.213 2.02 2.248.485.958 1.038.997 1.566 3.314l-.721-.6c-1.22-1.39-.628-2.467-4-4.09-1.616-.778-6.133-1.876-6.96.332.799.738 2.163 1.082 2.911 1.694.023.018.07.066.089.084.019.017.06.066.077.082.078.074.174.179.313.288 1.002.792.528-.012.916 1.316-2.067-.644-3.943-3.151-6.923-2.233.027 1.204 1.012 1.204 1.976 1.833 1.548 1.008.3.612 1.683 2.354.616.776 2.031 3.556 1.979 4.1-.091.945.184.224-.394.874-.28-1.254-.851-2.367-1.441-3.373l-.776-1.27-.094-.125-1.223-1.221c-.627-.385-.808-.486-1.497-.947-1.702-1.138-3.324.084-4.017 1.796-.639-.67-.836.651-.252-1.111.144-.433.307.032.386-.9-.654-.665-.599-.37-1.593-.744-5.032-1.893-6.486-1.782-11.979.76 1.284-1.619 3.964-2.68 6.736-2.702 2.381-.019 6.338 1.804 7.994 1.318-.054-1.68-1.848-2.884-3.196-3.605-1.02-.545-.878-.06-1.669-.982 1.174.166 1.385.178 2.381.616 2.457 1.08 5.37 4.707 5.883.177.579-5.104-2.534-4.973-2.827-6.425 3.434-.226 5.768 5.15 8.096 4.532.288-1.092-1.013-2.439-1.64-3.055-1.487-1.461-2.1-1.363-2.737-2.067-1.275-.154-2.887-.815-4.41-1.051-8.228-1.28-17.312-.07-22.931 6.225-2.531 2.835-3.406 2.327-4.631 3.507" clip-rule="evenodd"/><path fill="#B98D5E" fill-rule="evenodd" d="M137.344 38.075c1.407-.24 2.67-.885 3.97-.986-.566 1.968-6.195 2.737-8.626 2.07-2.041-.562-7.017-2.611-6.624-4.433.737.08 2.168 2.325 6.644 3.285 1.469.316 3.213.306 4.636.064m2.48-17.413c.645-1.742 4.33-2.459 6.526-2.697 4.428-.48 9.882 1.382 10.226 3.301.206 1.147-2.024-.35-2.703-.63-1.864-.773-5.822-1.662-7.775-.41.785.407 3.01-.007 4.204.172l2.802.813c.8.51.257-.048.605.667-2.819.193-6.412-1.548-10.511-.21-1.027.336-1.641.889-2.815 1.068.888-1.916 4.924-2.378 5.316-3.27-2.522-.453-4.192 1.322-5.875 1.196m-9.233 5.454c-2.064.51-6.425 3.993-7.572 5.067-.797.746-2.055 2.297-2.755 3.495-.723 1.236-1.467 2.768-1.811 4.548.62-.443.204-.09.548-.644.003-.005.305-.592.393-.752.745-1.363 1.876-2.338 3.674-2.605-.373.622-.992 1.234-1.451 1.939-2.006 3.086-1.817 6.676-2.628 7.347-.468-.414-.18-.464-.608-1.266.06 1.462.312 2.264.615 3.55.356.243.417.125.535.1.282-2.32.627-4.724 2.343-5.725-.308 1.182-.632 3.669-.549 5.121.049.853.251 1.582.496 2.385.324 1.06.398 1.524 1.13 2.12-.533-3.215-.212-6.918 1.116-9.41 2.908-5.456 7.577 3.572 15.586-.049 4.412-1.994 4.593-4.411 6.154-4.608.635 1.274-.577 3.287-1.093 4.253 2.064-.103 8.236-5.725 9.332-8.28 1.223-2.851-2.525-3.681-5.12-3.419-3.209.325-6.193 2.287-6.891 1.67-1.089-.964 1.378-3.68 5.12-4.47 3.14-.662 7.494.692 8.947.285-.278-2.047-4.236-2.481-5.541-3.19 1.646-1.359 5.464-.166 7.126.839.761.46 1.207 1.082 2.375.913 1.843-2.868-1.816-9.23-10.458-8.748-2.915.162-5.745.812-8.075 2.044-.622.328-6.393 3.63-4.907 4.996 1.145.576 3.486-.133 3.954 1.21-1.705.163-3.397.002-5.295.265-1.834.255-3.045.755-4.69 1.019" clip-rule="evenodd"/><path fill="#A31C23" fill-rule="evenodd" d="M165.387 121.569c1.076-.229 5.237.871 4.333 4.776-1.41.467-.597.111-2.456-1.968-.39-.436-1.598-2-1.877-2.808m-18.854-5.132c2.41.058 10.597 3.018 13.108 3.961.9.339 2.184.88 2.82 1.369l1.234 1.074c.373.398.785.9 1.018 1.181 1.047 1.262 2.717 4.438.536 5.963-3.146 2.2-11.314.781-14.204-.784-2.829-1.532-1.635-3.364-2.272-6.469-.394-1.913-1.133-5.125-2.24-6.295m-.502-11.618c.583.705.583.753 1.865.939l3.635.374c1.485.241 3.043-.068 4.838-.504l1.082-.249c.527-.08.81.022 1.546-.387.566-.315.081-.052.427-.288l.43-.301c.759-.479 2.439-.701 3.069-.452l-.191 3.027c.344.291.182-.04-.093.058l-.235.077c-.015-.047-.102.022-.147.047-.095 1.342.219 2.098.512 3.229 1.13 4.354 2.965 4.394 2.742 7.361-2.127 1.791-4.544 1.1-7.293.226-2.41-.766-4.37-1.415-6.864-2.072-2.37-.623-4.973-1.064-5.885-3.048-.63-1.368-1.089-6.013-.828-7.721.669.156 1.268.469 1.39-.316m3.703-9.607c-.668-1.838.809-3.276 1.718-2.421.881.83.171 2.739-1.718 2.421m.867-6.742c1.046-.51 3.083-.253.898 2.541l-1.224-.379c-.16-.993.054-1.446.326-2.162m-8.648-4.998 1.173-.334c.729.528 2.238 4.892 6.848 5.775-.357 2.201-.702 1.413.933 2.603-3.456 2.868-.443 5.286-1.45 9.246-.348 1.367-1.904 2.258-3.383 2.201l-1.73-.393c-.053-.015-.116-.026-.168-.042l-.78-.325c-.391-.265-.538-.642-1.147-.912.921 2.959 4.395 2.485 5.421 3.08-.749-.055-1.464.17-2.372-.074-1.142-.307-1.066-.658-1.948-.975.096 3.022.194 7.245.702 10.08.288 1.6.996 2.462 1.567 3.795 1.622 3.782 2.032 9.54-.743 12.49-2.205 2.345-4.909 1.882-8.383 2.08.3 1.13.238 1.174 1.45 1.347 5.562.794 11.396 1.513 17.035 1.78 6.81.322 13.909.186 16.204-5.041 2.194-4.996-.977-13.418-2.749-17.385-1.068-2.391-2.782-5.017-2.665-7.97.082-2.073 1.433-4.828 1.378-5.846-.033-.622-.077-.316-.107-.46-.272-1.309.196-.242.462-1.75-1.364.718-1.666 1.603-3.962 1.196.224-.512.667-.61 1.041-1.415.221-.474.436-1.278.537-1.974.236-1.637.238-13.324-1.064-13.746.04 3.527 1.196 9.268-.209 14.074a12 12 0 0 1-.707 1.737c-.399.748-.565.706-.999 1.236.143 1.61.655 2.285-.521 3.518-.724.76-2.411 1.578-3.484 1.696l-1.299.137c-1.393.157-2.635.176-3.997-.153l-1.355-.41c-.62-.258-.328-1.668-.56-3.233-.815-5.473 1.187-2.271 1.578-4.936.162-1.11-.391-1.883 0-2.92l.618-1.13c.012-.025.547-1.194.561-1.214.534-.79 2.856-1.244 5.614-4.677 2.322-2.89 1.055-2.28 2.604-4.542-2.396.457-1.046.02-2.347 2.77-2.556 5.403-11.267 6.466-14.269 2.43-.558-.75-.796-1.551-1.261-2.255-1.133.008-1.487.203-2.067.84" clip-rule="evenodd"/><path fill="#413A30" fill-rule="evenodd" d="M103.65 168.725c-.411-1.499-.608-1.156.588-3.612.925-1.902 4.055-8.64 5.989-8.341.343 3.811-3.308 12.363-6.577 11.953m32.324-51.558c-1.32 0-3.831-.512-4.91-.894-5.144-1.824 3.718-3.7 7.315-1.236 1.099.752.957.978.863 1.658-.886.468-2.09.472-3.268.472m-6.033-3.839c-2.784 1.67-3.743 1.862-5.873 5.856-1.668 3.129-5.15 13.176-6.581 17.12-.997 2.749-1.948 6.428-3.154 8.986.686.411.003.262.519.098.287-.093.297-.423.397-1.054.302-1.899 1.181-3.702 1.827-5.474l1.981-5.166c.255-.645.395-1.105.604-1.635.439-1.107 3.182-9.059 3.855-9.605.417-.339-.028-.189.585-.272 1.264 3.554-1.424 11.748-2.697 14.665-1.021 2.339-5.124 9.951-7.144 10.562.7-1.788.353-1.522-.086-1.81-.937 4.689-3.157 7.762-5.318 10.885-1.061 1.533-1.976 3.236-3.049 5-.853 1.403-2.352 3.969-2.858 5.438.382.363.484-.283-.016.757-.359.748-1.098 2.183-.13 2.837 3.971 1.157 6.819-4.068 7.972-6.761.406-.947.653-1.732 1.146-2.643.855-1.582.613-1.085 1.964-1.834 1.756-.973 1.319-3.485 1.78-5.593l5.384-9.611c5.239-10.509 3.311-16.084 7.702-22.008 2.893-3.903 5.234.614 9.753 2.003 5.75 1.769 5.493-5.483 3.004-8.147-3.522-3.772-10.196-2.218-10.976-2.349z" clip-rule="evenodd"/><path fill="#D9AF85" fill-rule="evenodd" d="M170.93 38.608c1.1.476 1.755 4.344 3.21 5.459.881-1.201.278-3.292.631-4.968.595 1.487 1.499 4.844 1.163 6.748-.349-.675-.004-.441-.616-1.077-.586 1.86-.474 2.525-.805 3.976-.25 1.091-.022.735-.547.887-.194-.984-.109-1.44-.67-2.186-.999.44-.215.471-1.118.901-.31-.686-1.31-8.515-1.248-9.74m2.282 2.055c-1.111-.497-.802-.976-1.852-3.087-.543-1.093-1.063-2.138-2.087-2.625-1.125 1.564 1.599 10.002-1.341 11.598-1.255-.523-1.578-3.699-2.622-6.268-.465-1.145-.866-2.131-1.355-3.121-.353-.716-1.057-2.357-1.936-2.287-.333 2.435 1.516 7.922 2.296 10.2.734 2.14 2.729 7.653 4.511 8.363.973-.882.625-1.156 1.117-2.303 1.067.453 1.453 6.476 2.682 7.373.371-1.228.072-5.722.201-7.514 1.475.892 1.374 3.267 2.523 4.33.359-1.583-.248-3.595.852-5.12.044.031.383-.099.624 1.15.099.51.174 1.268.214 1.797.095 1.255.133 2.565.18 3.782.09 2.345.393 5.136 1.36 6.68 1.098-.332 1.181-1.176 1.481-2.883.227-1.285.401-2.609.524-3.964.588-6.474.342-14.016-1.34-20.346-.208-.785-.613-2.665-1.479-2.995-.685 1.745.542 6.622-.223 8.702-.548-.68-2.261-5.71-4.098-8.405-.505-.742-.224-.625-1.072-.786z" clip-rule="evenodd"/><path fill="#CF2C27" fill-rule="evenodd" d="M146.03 104.819c-.121.785-.721.472-1.39.316-.26 1.708.199 6.353.828 7.721.912 1.984 3.515 2.426 5.886 3.049 2.493.656 4.454 1.305 6.863 2.071 2.749.874 5.166 1.565 7.293-.226.223-2.967-1.611-3.007-2.741-7.361-.294-1.131-.607-1.887-.512-3.229.045-.025.132-.094.146-.047l.236-.076c.275-.099.436.232.093-.059l.191-3.027c-.631-.249-2.311-.027-3.069.452l-.43.301c-.347.236.139-.027-.427.288-.737.409-1.019.307-1.546.387l-1.083.249c-1.794.437-3.353.745-4.838.504l-3.635-.374c-1.282-.186-1.281-.234-1.865-.939M164.053 80.502c-.136-.46-.055-.514-.908-.762-.637-.185-.642-.174-1.248-.054-1.549 2.262-.282 1.652-2.604 4.542-2.759 3.433-5.08 3.888-5.615 4.677-.013.02-.548 1.189-.561 1.215l-.617 1.13c-.392 1.036.162 1.808 0 2.919-.391 2.665-2.393-.537-1.579 4.936.233 1.565-.059 2.975.56 3.233l1.356.41c1.362.329 2.604.31 3.996.153l1.3-.137c1.073-.118 2.76-.936 3.484-1.696 1.176-1.233.664-1.907.52-3.518.434-.53.601-.489.999-1.236.253-.474.584-1.315.708-1.737 1.405-4.806.249-10.547.209-14.075" clip-rule="evenodd"/><path fill="#E4A26B" fill-rule="evenodd" d="m127.976 46.595.266-.289c1.829-1.897 2.797-.519 7.284-.379 5.085.16 7.028-1.118 8.544-1.051 1.37-.601 1.607-.864 3.321-.563-.798-.552-.828-.4-1.847-.355 2.702-.532 6.533-5.82 9.402 5.083 2.224 8.449 7.048 14.295 4.233 22.089-1.165 3.228-3.776 5.934-6.544 7.306-4.487 2.224-7.009 2.204-11.798 1.088.696.813 3.749 1.052 4.968 1.09 1.951.062 4.034-.842 5.62-.753.063-.082.05-.13.465-.37 2.18-1.267 4.27-1.863 6.785-4.824 1.419-1.67 4.049-4.944 5.015-7.546 1.335.335 1.845 1.028 2.998-.363-.538-.086-1.169.438-1.74-.24-.473-.564-.242-.528-.01-.894.513-.809.635.466.626-1.082l-.093-1.52c-1.145-.705-1.944-2.497-.669-3.699l.999.009c-.041-.048-.112-.174-.138-.129l-.588-.385c-.609-.322-.46.094-.767-.542-.386-.798.505-1.32.865-1.54l-.725-.544c-.854.303-.999.534-1.345 1.441a7.6 7.6 0 0 0-.486 2.172c-.103 1.606.79 3.917-.495 4.4-.263-.409-1.687-5.588-2.144-6.746-3.635-9.222-4.738-9.049-6.1-20.706-1.649 1.64-2.787 2.835-5.248 4.173-1.94 1.056-4.298 1.975-6.713 2.436-1.421.272-2.783.263-4.1.606-1.421.371-2.59.505-4.086.4-.881-.061-3.427-.65-3.892-.534-1.075.27-1.669 1.577-1.863 2.761" clip-rule="evenodd"/><path fill="#CF2C27" fill-rule="evenodd" d="M157.778 120.423c2.158.818 5.18 2.293 6.002 4.652-2.61.074-13.967-5.15-14.069-6.871 2.137.067 6.023 1.444 8.067 2.219m-11.245-3.986c1.107 1.17 1.846 4.382 2.239 6.295.638 3.105-.556 4.937 2.273 6.469 2.89 1.565 11.058 2.984 14.204.784 2.181-1.525.511-4.701-.536-5.963-.234-.281-.645-.783-1.018-1.181l-1.235-1.074c-.636-.489-1.919-1.03-2.819-1.369-2.511-.943-10.698-3.903-13.108-3.961" clip-rule="evenodd"/><path fill="#413A30" fill-rule="evenodd" d="M129.544 141.8c.157.867.204 1.444.664 2.04.153-1.098-.123-.176.246-.184l.157.153c-.219-1.108-.461-1.951-.691-3.032-.577-2.716-2.334-6.415-.874-8.029 3.148.11 5.668 10.038 6.378 13.383.594 2.796 2.726 15.181 1.146 17.42-.995-.181-.304-.933-1.067-.601.498 1.732.851 3.286 1.3 5.116.688 2.811.532 3.889 1.893 4.147 2.519-5.31-.403-27.373-2.186-33.657-.876-3.087-3.645-13.017-7.135-11.44-2.052.926-1.983 4.935-1.608 7.285.381 2.378 1.641 4.874 2.06 7.398z" clip-rule="evenodd"/><path fill="#CF2C27" fill-rule="evenodd" d="M141.952 83.472c-.968.489-2.311 2.215-2.668 3.128.792 1.556 2.236 2.012 2.937 3.575-3.361 4.201-1.785 9.642.028 11.116.609.27.756.647 1.147.912l.779.325c.053.016.116.027.168.042l1.73.393c1.48.057 3.035-.834 3.383-2.201 1.007-3.96-2.005-6.378 1.451-9.246-1.635-1.19-1.29-.402-.933-2.603-4.61-.883-6.12-5.247-6.848-5.775z" clip-rule="evenodd"/><path fill="#95693D" fill-rule="evenodd" d="M175.767 69.94c1.298 5.064.979 13.635.037 18.888-.399 2.126-1.575 5.416-2.956 5.982-1.084-1.139 2.305-7.888.671-12.384-.548.556-.7 2.778-.546 3.708.036.05.07.121.085.162l.181.544c.036.214.023.617.012.843-.293 5.8-3.087 7.79-2.265 9.5 2.525.045 2.793-2.441 4.386-3.038-.389 1.491-2.913 3.662-3.21 4.235 2.883-.574 4.62-2.286 5.568-3.764 3.674-5.728 1.974-7.848 2.433-12.807-.02.136.388 3.414.392 4.347.006 1.483-.135 3.1-.174 4.65-.087 3.535-1.589 5.142-2.64 7.16 1.798.013 2.857-.58 3.783-1.57.75-.801 1.362-1.99 1.787-3.336 1.652-5.22-1.643-8.043-.098-8.915l-.378-2.382c-.868 3.403.245 5.247.177 8.19-.062 2.645-1.432 5.25-3.161 6.183.237-1.228.798-2.248 1.059-3.511.621-3.014.232-7.978-.14-11.03-.312-2.557-.621-4.87-.777-7.321-.068-1.078-.292-2.36-.435-3.638-.213-1.901-.147-2.694-1.122-3.478 0 4.756 2.615 21.148-.444 23.914-.298-1.594.238-3.299.308-4.918.072-1.638-.055-3.38-.223-4.994-.323-3.102-1.134-5.987-1.224-8.724-.103-3.16-1.197-10.022-1.716-13.495-.127-.85-.214-1.205-.343-2.072-.296-1.982-.254-1.632-.827-2.148.006 2.921 1.741 11.843 1.8 15.218" clip-rule="evenodd"/><path fill="#585249" fill-rule="evenodd" d="M130.612 143.809c.178 1.636.821 3.013 1.206 4.688.418 1.815.68 3.073 1.163 4.922.405 1.545.751 3.13 1.154 4.874.374 1.617 1.061 3.168 1.368 4.656.763-.331.072.421 1.067.602 1.581-2.239-.552-14.624-1.145-17.42-.711-3.345-3.231-13.273-6.379-13.383-1.459 1.614.297 5.313.875 8.029.229 1.081.471 1.924.691 3.032" clip-rule="evenodd"/><path fill="#683A18" fill-rule="evenodd" d="M175.206 24.4c-1.845-1.275-1.891-.992-4.363-1.483-.126-.436-.243-.817-.474-1.125l-.864-.902c-1.237-1.251-5.327-3.091-6.942-3.456.637.704 1.249.606 2.737 2.068.627.616 1.928 1.962 1.64 3.054-2.328.619-4.663-4.757-8.096-4.532.293 1.452 3.406 1.321 2.827 6.425-.513 4.53-3.426.904-5.883-.177-.996-.438-1.207-.45-2.381-.615.791.92.648.436 1.669.982 1.348.72 3.142 1.925 3.196 3.605-1.656.485-5.613-1.338-7.994-1.32-2.773.023-5.452 1.084-6.736 2.703 5.493-2.542 6.947-2.653 11.979-.76.994.374.938.08 1.593.745-.08.93-.242.466-.386.899-.585 1.763-.388.44.252 1.111.692-1.712 2.315-2.934 4.017-1.796.689.46.87.563 1.497.947l1.223 1.221c.026.036.067.088.094.124l.776 1.272c.59 1.005 1.161 2.118 1.441 3.372.578-.65.303.071.394-.874.052-.544-1.363-3.324-1.979-4.1-1.383-1.742-.135-1.346-1.683-2.354-.965-.629-1.949-.629-1.976-1.833 2.98-.918 4.856 1.589 6.923 2.233-.389-1.328.086-.523-.917-1.315-.138-.11-.234-.215-.313-.288-.016-.017-.058-.066-.076-.083-.02-.018-.067-.065-.089-.084-.749-.612-2.112-.956-2.911-1.694.827-2.207 5.344-1.11 6.96-.332 3.372 1.623 2.779 2.7 4 4.09l.721.6c-.528-2.317-1.081-2.355-1.566-3.314-.523-1.034.225-.833-2.02-2.247-.985-.62-1.484-.437-1.484-1.564 1.89-.557 3.851.286 5.194.798" clip-rule="evenodd"/><path fill="#E4A26B" fill-rule="evenodd" d="m116.006 79.607.231.953c.162 2.167 1.79 3.92 2.976 6.264.524 1.035 1.394 2.561 1.454 4.03.036.885-.161 1.71-1.043 1.73-.967.02-.503-.72-1.696-.923-.28-.143-.226.016-.49-.38-.182-.273-.149-.37-.239-.74-1.552.215-1.246-.318-2.478-.603-.779.38-1.404.058-2.211-.003l.628 1.414c.598-.365.794-.846 1.936-.602.619.132 1.261.588 1.697.973.936.827 2.008 1.866 1.343 3.546 1.858-.102 2.153.354 2.921 1.36.649.85.928 1.32 1.505 2.297.898 1.521 2.134 3.604 3.123 4.758.249-.802.225-.568-.325-1.291-.434-.568-.419-.415-.736-1.068-.123-.255-.192-.502-.351-.754-.811-1.278-3.533-4.7-3.272-6.841 1.617.185 5.212 3.252 5.993 4.124.532.594.94 1.09 1.438 1.68 2.766 3.279 1.254 1.8 2.641 3.827 1.571 2.295 1.816 7.364-3.052 2.65-.249-.242-.121-.084-.327-.352-.718-.937-.852-2.11-1.969-2.071.323.562 1.818 2.599 2.178 2.954.474.465 2.048 1.746 3.188 1.787 1.971.07 4.32-3.428 5.223-4.644 6.072-8.163 2.651-5.77 3.874-10.444.439-1.676 1.161-2.155 1.634-3.354-.999-.664-1.197-1.353-2.344-2.058-.22.79-.617 1.275-1.153 2.003-.314.672.037.348-.613.762l.062.355c.878-.418 1.234-1.227 2.002-.752 1.789 1.7-3.648 13.631-7.132 11.682-.969-.742-.351-.773-.708-1.607-.517.412-.221.25-.457.572l-.293.392c-.015-.035-.065.092-.107.129l-4.839-4.552c-1.207-1.19-2.863-4.181-3.604-5.796-1.422-3.102-.743-1.724-.933-1.676-.174.045-.059.423-.354-.304-1.008-2.475-5.187-7.315-4.382-9.313-.198-.547-.008-.58-.923-.439z" clip-rule="evenodd"/><path fill="#F8CFA3" fill-rule="evenodd" d="M114.721 89.938c-.141-.234-.044-.108-.27-.36-.041-.047-.18-.176-.226-.223-.625-.662-.651-.781-.891-1.823-.279-1.21-.424-2.189-.447-3.526.432.713.383 1.347.593 2.298.107.484.314 1.506.508 1.95.496 1.127 1.732 1.539 2.629 1.99.439-1.313-.669-2.806-1.032-3.825-.49-1.378.226-1.174.155-2-.029-.329-.445-1.162-.557-1.93.261.317.065-.038.388.59.108.211.166.416.271.636.182.382.336.595.583.976 2.821 4.356-.557 3.358 1.503 6.97 1.193.203.729.944 1.696.922.882-.019 1.079-.844 1.043-1.729-.06-1.469-.93-2.995-1.454-4.03-1.187-2.343-2.814-4.097-2.977-6.264l-.231-.953c-.698.478-.702 1.303-.65 2.43-1.404-.242-1.062-.406-2.3.041-1.025.371-1.101.032-2.04.275-.41.823-.217 1.07-.306 2.026-.597.154-1.065.394-1.516.65-.223 1.76 1.393 6.663 2.604 7.302 1.645-2.802-1.177-2.969-1.079-7.305 1.18 2.204.346 4.903 4.003 4.912" clip-rule="evenodd"/><path fill="#585249" fill-rule="evenodd" d="m114.333 145.29-.159.309c.439.288.786.022.086 1.81 2.02-.611 6.123-8.224 7.144-10.562 1.273-2.918 3.961-11.111 2.697-14.665-.613.082-.168-.067-.585.272-.673.546-3.416 8.497-3.855 9.605-.209.53-.349.99-.604 1.635l-1.981 5.166c-.646 1.772-1.525 3.575-1.827 5.474-.1.631-.11.961-.397 1.054-.516.164.167.313-.519-.098" clip-rule="evenodd"/><path fill="#E4A26B" fill-rule="evenodd" d="M175.227 128.6c1.441-.934.823-1.112 1.539-2.595.768-1.593 1.531-.567 2.507-.836l-1.193-2.004-.455 1.163c-2.842-.328-5.227-9.048-5.558-11.945-.163-1.427-.25-3.618 1.005-4.557 2.38 1.003 2.099 7.94 3.55 9.788-.353-2.35-1.055-4.909-1.489-7.375-.425-2.416-.761-4.922-1.13-7.326l-.381.892c-.121.72.164 1.443-.358 2.638-1.899-.167-2.959-2.876-3.826-4.573-.549-1.073-.771-2.256.372-2.674.927-.338 2.472-.178 3.128.06l.646 3.406c.183-.313.126-.048.382-.225l-.554-3.71c-.952-.146-1.667.317-2.498-.06.66-.342.896-.521 1.364-.8-.054-.042-.139-.064-.191-.082-.42-.147-1.753-.406-1.849-.666-.032-.085-.106-.084-.163-.118-.682 1.162-.88.987-2.376 1.443-.097 1.384 2.783 14.277 3.375 16.084a93 93 0 0 0 2.602 7.009c.799 1.912 2.777 5.057 1.551 7.063" clip-rule="evenodd"/><path fill="#F8CFA3" fill-rule="evenodd" d="M175.227 128.6c-.978 1.178-.902 1.665-1.004 3.589-.127 2.381-.423 2.377-.52 3.074-.166 1.195-.172.3.143.664.606.404 1.274-.3 1.545-.735 1.37-2.192-.828-3.987 2.815-4.627l.11-.018c.017-.003.1.025.111-.015.059-.201 1.705 1.176 2.011 2.032.064 1.351-.024 1.921 1.448 1.915l.162-.817.324-.907c.582 2.274.075 2.135-.527 3.532 2.479-2.144 1.719-2.648 1.521-5.874 1.43 2.216.954 3.011-.066 4.955l.823-.839c.859-1.396.822-2.853.767-4.412.544.68.571 1.217.572 2.255.437-3.481-2.223-4.157-4.291-5.815-.774-.621-1.254-.994-1.898-1.388-.976.269-1.739-.757-2.507.836-.716 1.483-.098 1.661-1.539 2.595M125.663 103.681l.04-.096c1.117-.04 1.251 1.134 1.969 2.071.206.268.078.11.327.352 4.868 4.714 4.623-.355 3.052-2.65-1.387-2.027.125-.548-2.641-3.826-.498-.59-.906-1.087-1.438-1.68-.781-.873-4.376-3.94-5.993-4.125-.261 2.14 2.461 5.563 3.272 6.841.159.252.228.499.351.754.317.653.302.5.736 1.068.55.723.574.489.325 1.291" clip-rule="evenodd"/><path fill="#532D15" fill-rule="evenodd" d="m154.687 79.553.302.814c.651-.62.701-.609 1.629-.511.234.64.41.86-.096 1.613.05.026.131 0 .156.062l.656.099c.96-.082 1.502-.888 1.975-.842.431.042-.139-.443.425.223.025-.06.007-.152.006-.195-.035-.986-.269-.654.133-.939 1.542-1.095 3.836-.158 4.584 0l-1.395-10.565c-.043.127-1.393 2.053-1.669 2.462l-4.176 4.772c-2.562 2.376-2.366 1.192-2.53 3.007M136.112 82.935c.495-1.02.066-2.132 1.203-2.496 1.461 1.856 1.294 5.976-.338 8.754-.641 1.09-1.256 1.25-1.603 2.1-.609.757-.486 1.176-1.128 1.652 3.459-1.015 2.724-3.404 3.444-2.354.65-.415.299-.09.613-.762-.587-.988.078-.264-.519-.324h-.124c.391-.314.565-.967.828-1.538 1.038-2.259-.467-1.275 2.51-4.161 2.307-2.238 3.519-1.76 7.151-1.432.437-.272.744-.452 1.474-.09.041-.079.071.055.06-.322l-.197-1.237c.332-.096.785-.19 1.08-.298 1.782-.65-.012.534.859-.566-1.586-.09-3.669.815-5.62.753-1.219-.038-4.272-.278-4.969-1.09-1.834-.097-4.084-1.768-5.637-2.318-.25.671.047 1.5.278 2.781.16.88.213 2.348.635 2.948" clip-rule="evenodd"/><path fill="#D9AF85" fill-rule="evenodd" d="M167.259 70.1c-.844 1.76.081 6.34.208 8.667.121 2.225-.197 7.913.523 9.313 1.846-2.128.492-8.823 1.515-11.734 1.931 1.46.796 9.275 2.226 10.24.77-2.183-.588-12.2-1.344-15.427-.442-1.885-.524-1.4-.936-1.56l-.062 3.068c-1.131-.195-.751-1.935-2.13-2.568" clip-rule="evenodd"/><path fill="#A31C23" fill-rule="evenodd" d="m99.08 171.158.907-.055c-.014 3.608 3.885 2.451 6.387 2.356-.109 1.955-1.185 1.636-1.686 2.495 1.92-.343 4.372-2.036 5.453-3.001 2.884-2.579 4.43-7.035 6.142-9.937 1.456-2.47 1.748-2.891.797-6.176-.452 3.931-4.28 10.275-6.215 12.366-4.515 4.878-11.387 5.063-9.204-.872-.282.581-2.052 1.445-2.581 2.824" clip-rule="evenodd"/><path fill="#F8CFA3" fill-rule="evenodd" d="M137.751 90.946c-.915.949-2.176 3.187-3.002 4.483-.851 1.336-2.198 3.325-2.835 4.84.357.834-.262.864.708 1.606 3.483 1.95 8.921-9.98 7.131-11.68-.768-.476-1.123.333-2.002.75M178.08 123.165l-1.458-5.551c-1.451-1.848-1.17-8.785-3.55-9.788-1.255.94-1.168 3.13-1.005 4.557.331 2.898 2.716 11.617 5.557 11.945z" clip-rule="evenodd"/><path fill="#D9AF85" fill-rule="evenodd" d="M175.804 88.828c.942-5.254 1.26-13.824-.038-18.889-.828-1.683-1.058-6.314-2.694-7.25-.451.876 1.427 10.557 1.668 12.614.399 3.394.623 6.971.561 10.402-.023 1.277-.166 2.516.503 3.123M139.824 20.662c1.683.126 3.353-1.65 5.875-1.197-.392.893-4.429 1.355-5.316 3.27 1.174-.178 1.788-.731 2.815-1.066 4.099-1.339 7.692.402 10.511.209-.348-.715.195-.158-.605-.667l-2.802-.813c-1.194-.179-3.419.234-4.204-.172 1.953-1.252 5.911-.363 7.775.41.679.28 2.909 1.777 2.703.63-.344-1.92-5.798-3.782-10.226-3.301-2.196.238-5.881.955-6.526 2.697" clip-rule="evenodd"/><path fill="#413A30" fill-rule="evenodd" d="m135.232 177.344.856.659c-.007 1.182-.382 1.962-.846 2.827l-.416.729c-.755 1.402-1.418 2.394-2.9 3.13-.338.168-.755.348-.998.319-1.674-.195-.04-2.371.354-2.981l-.413.313-.457.578c.755.328.147.208-.475 1.088-2.023 2.865 2.096 2.784 3.622 2.275 3.676-1.222 6.455-6.734 4.474-10.094-1.395-.047-1.869.835-2.801 1.157" clip-rule="evenodd"/><path fill="#585249" fill-rule="evenodd" d="M103.65 168.725c3.269.41 6.92-8.142 6.577-11.953-1.934-.299-5.064 6.44-5.989 8.341-1.196 2.456-.999 2.113-.588 3.612" clip-rule="evenodd"/><path fill="#2C546E" fill-rule="evenodd" d="M147.638 56.472c-.928-.651-1.262-1.018-1.362-2.498-1.206.097-1.572.589-1.882 1.723-.025.091-.074.377-.122.559-.295 1.126.182.496-.461 1.016.205.74.361 1.018.588 1.68.051.148.148.532.195.646.33.8.168.456.463.706 1.201.235.982 1.348 3.21 1.11 1.689-.181 1.712-.97 2.564-1.969.061-2.128.789-2.809-.34-5.227-.544-1.166-1.565-2.431-2.919-2.802l.004.426c.134.27.036.11.283.321 2.843 2.42 2.707 3.609 2.194 7.292-2.892.684-1.515-.623-1.566-2.578l-.302-.193a15 15 0 0 0-.547-.212" clip-rule="evenodd"/><path fill="#A31C23" fill-rule="evenodd" d="M127.75 186.091c-.355.799-.766.848-1.218 1.647.311-.181.583-.248.726-.307.7.616.657 1.04 1.696 1.386 3.037 1.013 10.995-2.616 6.732.736-.858.675-1.347.394-2.15 1.304 1.778-.283 3.571-.942 4.773-1.81 2.106-1.52 3.06-5.246 4.817-8.127.876-1.439 1.873-2.621 1.3-4.762-.43.364-1.184 3.452-2.195 5.409-1.595 3.089-5.057 6.098-8.928 6.381-4.208.308-4.649-1.639-5.553-1.857" clip-rule="evenodd"/><path fill="#EA3B2A" fill-rule="evenodd" d="M163.781 125.075c-.823-2.359-3.845-3.834-6.003-4.652-2.044-.775-5.93-2.152-8.067-2.219.102 1.721 11.459 6.945 14.07 6.871" clip-rule="evenodd"/><path fill="#1C1613" fill-rule="evenodd" d="M144.477 53.076c.177-.506.121-.432.319-.782.434-.765.062-.17.429-.505 3.055-3.718 7.981 2.102 7.441 6.43-.066 2.17-.894 4.377-2.957 4.771-2.356.45-3.79-1.359-4.652-2.686-.295-.25-.133.093-.463-.707-.047-.113-.144-.497-.195-.646-.227-.661-.383-.939-.588-1.68.396-1.272-.431-3.034.666-4.195m5.441 11.008c2.333-2.646 1.922-1.508 3.976-2.512l-1.705.09c1.67-2.418.875-5.521-.016-8.015.172.587.337.458.65.662.443-.438.354-.189.925-.65l-1.282-.014c.356-.734-.032-.36.819-.712-.39-.492.074-.137-.607-.407-.243.264.406.246-.517.25-2.116-4.596-8.336-4.748-9.115.857-.275 1.98.675 5.093 1.532 6.705.909 1.708 2.61 3.436 5.455 3.046z" clip-rule="evenodd"/><path fill="#F8CFA3" fill-rule="evenodd" d="M165.802 59.332c.369.264.187.051.44.561-2.228-.637-1.775 1.117-1.406 1.878.455.941.415.712 1.411.49-.662.955-.478-.127-.477 1.161 0 .705.072.47-.206 1.12.01 1.547-.113.273-.626 1.082-.232.366-.463.33.01.893.571.678 1.202.155 1.74.24 1.14-1.735 1.672-4.136 1.403-6.668-.209-1.97-1.592-4.656-3.643-3.897l.725.543c-.36.22-1.251.743-.865 1.541.307.636.158.22.767.542l.588.385c.026-.045.097.081.139.129M175.934 45.847c.336-1.904-.569-5.261-1.163-6.748-.353 1.676.25 3.767-.632 4.968-1.454-1.115-2.109-4.983-3.209-5.459-.062 1.225.938 9.054 1.248 9.74.902-.43.119-.462 1.117-.901.562.746.477 1.202.671 2.186.525-.152.297.204.546-.887.332-1.451.22-2.117.806-3.976.612.636.267.402.616 1.077" clip-rule="evenodd"/><path fill="#683A18" fill-rule="evenodd" d="M124.382 45.053c.562-.803.764-1.422 1.535-1.878.302.837-.752 4.516-.479 6.643l.501-.97c.285-.932.355-2.575 1.041-3.506.239 2.025-.74 3.506-.162 6.598.15.8.369 1.549-.088 2.267l.413.588c.66-.437.245.636.543-.954l-.046-2.338c.041-.549.025-.252.137-.654l.206-.413.777-.79c1.799.502 1.589 1.43 3.018 1.61-.621-1.118-.61-1.456-1.498-2.119-1.141-.852-1.809-.279-2.665.206l.109.878c-.176-.267-.01.172-.243-.486l-.167-1.542c.057-3.361 1.618-4.087 2.052-4.725l-3.706-2.055c-.614 1.38-.978 1.772-1.278 3.64" clip-rule="evenodd"/><path fill="#585249" fill-rule="evenodd" d="M135.974 117.167c1.178 0 2.382-.004 3.268-.472.094-.68.236-.906-.863-1.658-3.597-2.464-12.459-.588-7.315 1.236 1.079.382 3.59.894 4.91.894" clip-rule="evenodd"/><path fill="#F8CFA3" fill-rule="evenodd" d="m174.003 102.913-.037-.476c-.256.177-.199-.088-.382.225l-.646-3.406c-.656-.239-2.201-.398-3.129-.06-1.143.418-.92 1.601-.372 2.674.868 1.697 1.928 4.406 3.827 4.573.522-1.195.237-1.918.358-2.638z" clip-rule="evenodd"/><path fill="#D9AF85" fill-rule="evenodd" d="m149.918 64.084.115-.7c-2.845.39-4.546-1.338-5.455-3.046-.857-1.612-1.808-4.724-1.532-6.705.778-5.605 6.999-5.453 9.115-.856.923-.005.274.013.517-.251-.364-.064-.09-.34-1.055-1.473-.559-.654-1.104-.962-1.762-1.584-1.211-1.146-3.065-1.382-4.52-.736l-.447.233-.141.09c-.662.44-1.288 1-1.593 1.638-.517 1.086-1.294 6.068-.829 7.253.217.555-.062.172.407.446l.621.21c.193 2.623 2.422 4.921 5.066 5.492l.451.11c.032.008.106.024.155.047l-.359 1.166c.919-.659 1.282-.025 1.246-1.334" clip-rule="evenodd"/><path fill="#CF2C27" fill-rule="evenodd" d="m98.38 172.389.51-.211c.118 2.507.895 2.172 1.914 3.367-.866.425-1.655-.304-2.199-.631 1.099 1.735 3.846 2.138 6.083 1.041.5-.86 1.576-.54 1.686-2.495-2.502.094-6.401 1.251-6.387-2.357l-.908.055c-.52.39-.464.467-.699 1.231" clip-rule="evenodd"/><path fill="#F8CFA3" fill-rule="evenodd" d="m154.182 86.355.72-.534a.9.9 0 0 0 .203-.41c.08-.37.021-.329-.032-.492-2.252-.428-5.411 2.295-7.603-1.78l-.321-.473-2.651-.154c.957 3.628 5.169 5.612 9.684 3.843" clip-rule="evenodd"/><path fill="#585249" fill-rule="evenodd" d="M131.282 182.027c-.395.61-2.028 2.786-.355 2.981.243.029.66-.151.999-.319 1.482-.736 2.144-1.728 2.899-3.13l.417-.729c.463-.864.839-1.645.846-2.827l-.856-.659c-.739.647-.677.678-1.141 1.27-.348.443-.597.604-.967 1.013-.505.558-1.445 1.807-1.842 2.4" clip-rule="evenodd"/><path fill="#CF2C27" fill-rule="evenodd" d="M126.532 187.738c-.441-.021-.088-.066-.214.311 1.044.564.461 1.398 2.233 2.056l1.001.413c-.482.359-.196.346-1.334.384 1.232.863 3.923.27 5.318-.044.803-.911 1.291-.63 2.15-1.305 4.263-3.352-3.695.277-6.732-.735-1.04-.347-.996-.771-1.696-1.387-.143.059-.415.126-.726.307" clip-rule="evenodd"/><path fill="#E4A26B" fill-rule="evenodd" d="M156.522 81.469c-.357.147-.282.19-.576.108-.128 1.422.351.744-1.571 2.403-.521.45-.146.186-.754.367-2.351.699-1.131.295-2.448.348-.692.028-.43.216-1.295.275l-.858-.948c-.324-.242-.606-.38-.999-.574l.143-.741-1.015-.041.321.473c2.192 4.075 5.351 1.352 7.603 1.78.053.163.112.122.032.493a.9.9 0 0 1-.203.409l-.72.534c1.549-.38 2.846-1.16 3.68-2.007.909-.924 1.263-1.972 1.872-3.337-.564-.666.005-.181-.425-.223-.473-.046-1.015.76-1.975.842l-.657-.1c-.024-.06-.105-.035-.155-.061" clip-rule="evenodd"/><path fill="#F8CFA3" fill-rule="evenodd" d="M116.022 79.282c.915-.14.725-.109.923.439.145 1.08 1.271 3.448 1.839 4.401.44.737.829 1.204 1.303 1.835.459.611.696 1.242 1.161 1.78-.58-2.61-1.966-5.157-2.97-7.377-1.267-2.804-1.825-6.486-2.767-7.045-1.353 1.15-.197 4.39.511 5.967" clip-rule="evenodd"/><path fill="#8B572C" fill-rule="evenodd" d="M124.382 45.054c-.262 1.797-.37 3.59.161 5.403.404 1.38 1.432 3.388 2.187 3.75.457-.718.238-1.466.088-2.267-.578-3.092.401-4.573.162-6.598-.686.931-.756 2.574-1.041 3.506l-.501.97c-.273-2.127.781-5.806.479-6.643-.771.456-.973 1.076-1.535 1.879" clip-rule="evenodd"/><path fill="#785539" fill-rule="evenodd" d="M136.112 82.935c-.104 1.51.073 3.013-.029 4.567-.107 1.654-.44 2.332-.709 3.791.347-.85.962-1.01 1.603-2.1 1.632-2.778 1.799-6.898.338-8.754-1.137.364-.708 1.477-1.203 2.496" clip-rule="evenodd"/><path fill="#D9AF85" fill-rule="evenodd" d="M141.314 37.09c-1.3.1-2.563.746-3.97.985-1.423.242-3.167.252-4.636-.064-4.476-.96-5.908-3.206-6.644-3.285-.393 1.822 4.583 3.871 6.624 4.432 2.431.668 8.06-.1 8.626-2.069" clip-rule="evenodd"/><path fill="#C9CACA" fill-rule="evenodd" d="m154.989 80.367.026.869c-1.276.91-.764 1.371-2.416 1.771.101.417.144.133-.088.453l-1.325-.006c-1.114-.396-1.148-.101-1.563-1.17-.73-.362-1.037-.182-1.474.09l.015.333-.143.74c.393.195.674.333.999.574l.858.95c.865-.06.603-.248 1.295-.276 1.317-.053.097.35 2.448-.348.608-.18.233.083.754-.367 1.922-1.659 1.443-.981 1.571-2.403.294.081.219.038.576-.108.506-.753.33-.974.095-1.613-.927-.098-.977-.109-1.628.511" clip-rule="evenodd"/><path fill="#F6EFD6" fill-rule="evenodd" d="m128.076 54.794.405-.076c.071-.011.325-.058.404-.064.359-.028.083-.087.572.004 2.675.498 2.066 5.644 1.918 7.423.647.136 1.224-.272 1.755-.513.287-2.237.1-4.287-.839-6.147-.481-.954-.812-1.754-1.934-1.941-1.344-.224-1.731.577-2.281 1.314" clip-rule="evenodd"/><path fill="#470402" fill-rule="evenodd" d="M144.553 73.419c.897.513 1.801.029 2.876-.169-.724 1.03-2.435 1.675-4.31 1.53-2.173-.171-2.458-1.823-3.43-2.115.631-.202 1.253-.33 1.694-.547 2.302.045 5.252-.792 7.313-1.316-.387 2.036-.637 2.166-4.143 2.617m2.501-2.767c-1.085.696-6.613 1.328-7.866.964-1.322.886-2.745.87-4.375.446 1.517 1.618 3.796-.905 7.032 2.974 1.51.24 2.491.742 3.955.138 1.23-.507 1.901-1.462 2.753-2.37.149-.592.299-1.104.517-1.725.474-1.35 1.636-1.37.276-2.143.682 1.535-1.025 1.722-2.292 1.716" clip-rule="evenodd"/><path fill="#F8CFA3" fill-rule="evenodd" d="M113.138 91.349c.603 1.833 2.613 4.48 4.976 3.917.664-1.68-.407-2.719-1.343-3.546-.437-.385-1.078-.841-1.697-.973-1.143-.244-1.338.237-1.936.602" clip-rule="evenodd"/><path fill="#D9AF85" fill-rule="evenodd" d="m118.453 39.226-.072 4.02c.428.801.14.851.608 1.265.811-.67.622-4.261 2.628-7.347.459-.705 1.078-1.317 1.451-1.938-1.798.267-2.929 1.241-3.674 2.604-.088.16-.39.747-.393.752-.344.553.072.201-.548.644" clip-rule="evenodd"/><path fill="#F6EFD6" fill-rule="evenodd" d="M145.225 51.79c.318-.402 1.547-.594 2.347-.374 1.354.37 2.375 1.636 2.919 2.802 1.129 2.418.401 3.098.34 5.227l1.835-1.227c.539-4.327-4.386-10.147-7.441-6.429" clip-rule="evenodd"/><path fill="#CBBBAB" fill-rule="evenodd" d="M150.831 59.445c-.852 1-.875 1.787-2.563 1.968-2.229.239-2.01-.874-3.211-1.109.862 1.327 2.295 3.137 4.652 2.687 2.063-.394 2.891-2.602 2.957-4.773z" clip-rule="evenodd"/><path fill="#2E7087" fill-rule="evenodd" d="M128.076 54.794c-.04.039-.099.089-.118.119s-.086.088-.106.124c-.021.039-.061.112-.079.153-.038.085-.078.516-.089.6l.654-.501c.779-.413.113-.207 1.047-.282a4.14 4.14 0 0 1 1.257 1.939c.356 1.148.467 2.438.124 3.421-.833.11-.581-.558-1.244-.968l-.161.37a6 6 0 0 0-.064.623c-.004.503.105 1.134-.157 1.401-1.976 1.598-1.224-.753-1.58-.091l.131.563c.466.536.801 1.294 1.802 1.319 1.322.032 1.148-.806 1.882-1.503.147-1.779.757-6.924-1.918-7.423-.49-.09-.213-.032-.572-.004-.079.006-.333.053-.404.064z" clip-rule="evenodd"/><path fill="#64B6C6" fill-rule="evenodd" d="M144.477 53.076c-1.097 1.16-.27 2.923-.666 4.196.643-.52.166.11.461-1.016.048-.183.097-.468.122-.56.31-1.133.676-1.625 1.882-1.722l.425-.874c1.871-.31 2.313 1.643 1.994 3.207.521.578.32.845 1.084 1.2.472-1.764-.378-3.663-1.328-4.6-.544-.535-1.106-1.095-2.139-.975-.845.1-1.419.618-1.835 1.144" clip-rule="evenodd"/><path fill="#CF2C27" fill-rule="evenodd" d="M165.387 121.569c.279.808 1.487 2.372 1.877 2.808 1.859 2.079 1.046 2.435 2.456 1.967.903-3.904-3.257-5.004-4.333-4.775" clip-rule="evenodd"/><path fill="#E2E2E2" fill-rule="evenodd" d="M141.383 72.118c.096.475-.005.3.374.641.177.16.46.3.718.399.708.273 1.317.35 2.078.26 3.506-.45 3.756-.58 4.143-2.616-2.061.524-5.011 1.36-7.313 1.316" clip-rule="evenodd"/><path fill="#2C546E" fill-rule="evenodd" d="m126.826 57.844.734 3.858c.356-.662-.396 1.689 1.58.091.262-.267.153-.898.157-1.4a6 6 0 0 1 .064-.624l.161-.37-.053-.317c-.501-.51-.582-.848-.668-1.685-.55-.87.085-.226-.649-.566-.702.248-.572.063-.743.814l-.026-.219-.248-.45c-.351.375-.215.041-.309.868" clip-rule="evenodd"/><path fill="#683A18" fill-rule="evenodd" d="M144.07 44.876c-.922.962-1.638 1.861-1.522 3.925.893-1.724 1.439-3.534 3.922-3.48 2.38.054 3.699 1.852 5.059 2.382-.525-1.636-2.427-2.866-4.138-3.39-1.714-.301-1.951-.038-3.321.563" clip-rule="evenodd"/><path fill="#E4A26B" fill-rule="evenodd" d="m182.048 133.662-.162.818c-1.472.005-1.384-.565-1.448-1.916a1.3 1.3 0 0 0-.07.179c-.015.045-.049.125-.066.18-.378 1.278-.001 2.416-.656 3.385-.666.984-1.705 1.243-1.149 3.184 1.338-.021 1.633-1.391 2.359-2.417.685-.97 1.675-1.937 1.192-3.413" clip-rule="evenodd"/><path fill="#CBBBAB" fill-rule="evenodd" d="M131.375 62.081c-.734.697-.559 1.535-1.882 1.502-1.001-.024-1.336-.782-1.802-1.318.355 1.383 1.461 3.412 3.102 3.114 1.354-.246 2.01-2.225 2.337-3.81-.531.24-1.108.648-1.755.512" clip-rule="evenodd"/><path fill="#D9AF85" fill-rule="evenodd" d="m127.983 50.436-.09.71.305 2.133c.258-.228.153-.13.436-.386 1.601-1.452 2.404-.799 3.784.528.116-.089.836.393.045-1.048-.254-.463-.579-.524-.869-.576l.184-.54c-1.428-.18-1.219-1.11-3.018-1.611z" clip-rule="evenodd"/><path fill="#E4A26B" fill-rule="evenodd" d="M151.425 79.861c-.871 1.1.923-.085-.859.566-.295.107-.748.202-1.08.298l.197 1.237c.011.377-.019.243-.06.323.415 1.068.449.773 1.563 1.17.361-1.36-.356 1.233-.987-2.223 1.176-.344 2.396-1.195 3.654-.93.504 1.101-.826 2.185-1.686 2.574l.432.131c1.652-.4 1.14-.86 2.416-1.771l-.026-.869-.302-.814-.354-.79c-1.05.32-1.85 1.189-2.908 1.098" clip-rule="evenodd"/><path fill="#388DA5" fill-rule="evenodd" d="M145.225 51.79c-.367.335.005-.261-.429.504-.198.35-.143.276-.319.782.416-.526.99-1.044 1.835-1.144 1.033-.12 1.595.44 2.139.976.95.936 1.8 2.835 1.328 4.598-.764-.354-.563-.62-1.084-1.199l-1.058.165c.011.003.433.16.548.212l.302.192c.051 1.956-1.326 3.263 1.566 2.578.513-3.683.648-4.871-2.194-7.29-.247-.212-.149-.052-.283-.322l-.004-.426c-.8-.22-2.029-.028-2.347.373" clip-rule="evenodd"/><path fill="#B03133" fill-rule="evenodd" d="M144.553 73.419a4.06 4.06 0 0 1-2.078-.261c-.258-.1-.541-.24-.718-.399-.379-.34-.278-.166-.374-.641-.441.217-1.063.345-1.694.547.972.292 1.257 1.944 3.43 2.114 1.875.146 3.586-.5 4.31-1.529-1.075.198-1.979.682-2.876.169" clip-rule="evenodd"/><path fill="#371804" fill-rule="evenodd" d="M116.911 88.395c-.842-1.61-1.467-1.942-1.211-3.78 1.042.764 1.768 2.218 1.211 3.78m-2.19 1.543c1.232.285.926.818 2.478.602.09.372.057.468.239.741.264.396.209.237.49.38-2.06-3.612 1.318-2.614-1.503-6.97-.247-.381-.401-.594-.583-.976-.105-.22-.163-.425-.271-.636-.323-.628-.127-.273-.388-.59.112.768.528 1.601.556 1.93.071.826-.644.621-.154 2 .363 1.02 1.471 2.512 1.032 3.826-.897-.453-2.133-.864-2.629-1.992-.194-.443-.401-1.465-.508-1.949-.21-.95-.161-1.585-.593-2.298.023 1.337.168 2.315.447 3.526.24 1.042.265 1.161.891 1.823.046.047.185.176.226.222.226.253.129.127.27.36" clip-rule="evenodd"/><path fill="#F8CFA3" fill-rule="evenodd" d="m151.186 83.454 1.325.006c.232-.32.189-.036.088-.453l-.432-.131c.86-.389 2.191-1.473 1.686-2.574-1.258-.265-2.478.586-3.654.93.631 3.456 1.348.863.987 2.222" clip-rule="evenodd"/><path fill="#FDFDFE" fill-rule="evenodd" d="M146.276 53.974c.1 1.48.434 1.847 1.362 2.498l1.057-.164c.319-1.565-.123-3.518-1.994-3.208z" clip-rule="evenodd"/><path fill="#64B6C6" fill-rule="evenodd" d="m127.684 55.79-.301 1.636.027.22c.17-.752.04-.566.743-.815.734.34.098-.303.649.566l.263-1.191c.741-.29 1.033.418 1.188 1.23.178.931.151 1.736-.784 1.646l.053.317c.663.41.411 1.079 1.245.968.342-.983.231-2.273-.125-3.421a4.12 4.12 0 0 0-1.257-1.939c-.933.075-.268-.131-1.047.282z" clip-rule="evenodd"/><path fill="#D76558" fill-rule="evenodd" d="M139.188 71.616c1.253.364 6.78-.269 7.866-.965-2.154-.025-4.29-.42-6.256.181-.752.23-1.105.316-1.61.784" clip-rule="evenodd"/><path fill="#D3632D" fill-rule="evenodd" d="M141.845 75.036c1.06 1.013 2.01 1.694 4.062.967 1.488-.526 2.106-1.603 2.647-3.2-.853.908-1.524 1.864-2.754 2.371-1.464.604-2.445.103-3.955-.138" clip-rule="evenodd"/><path fill="#785539" fill-rule="evenodd" d="m132.967 54.432-.55-1.01c-1.379-1.328-2.183-1.98-3.784-.528-.282.255-.177.157-.436.385l-.305-2.132c.183 1.585-.208 1.876-.079 3.104l.647-.671c.54-.544 1.263-.819 2.132-.72.493.057 1.101.48 1.353.679l.862.767c.026-.045.106.085.16.126" clip-rule="evenodd"/><path fill="#FDFDFE" fill-rule="evenodd" d="M128.801 57.397c.086.837.167 1.175.668 1.685.935.09.961-.715.784-1.646-.155-.812-.447-1.52-1.188-1.23z" clip-rule="evenodd"/><path fill="#F7F4EB" fill-rule="evenodd" d="M128.218 190.902c1.138-.038.852-.025 1.334-.384l-1.001-.413c-1.772-.658-1.19-1.492-2.233-2.056-.155 1.683.277 2.574 1.9 2.853M98.38 172.389c-.194 1.179-.184 1.502.225 2.525.544.327 1.333 1.056 2.199.631-1.019-1.195-1.796-.86-1.914-3.367z" clip-rule="evenodd"/><path fill="#470402" fill-rule="evenodd" d="M150.277 94.838c-.628-.735-.386-1.848.894-1.724.351 1.044-.133 1.469-.894 1.724m-.544.374c1.89.318 2.6-1.591 1.719-2.42-.909-.856-2.386.582-1.719 2.42M150.641 90.505c-.048-.927.139-1.606.976-1.854.727.79.355 1.665-.976 1.854m-.04-2.034c-.272.715-.486 1.168-.326 2.162l1.224.378c2.185-2.794.148-3.05-.898-2.54" clip-rule="evenodd"/><path fill="#E4A26B" fill-rule="evenodd" d="M116.911 88.395c.558-1.562-.169-3.016-1.21-3.78-.257 1.838.368 2.17 1.21 3.78" clip-rule="evenodd"/><path fill="#371804" fill-rule="evenodd" d="M165.564 64.542c.278-.65.206-.415.206-1.12-.001-1.288-.185-.206.477-1.16-.996.221-.956.45-1.412-.491-.368-.761-.821-2.515 1.407-1.878-.253-.51-.072-.297-.441-.561l-.999-.009c-1.276 1.201-.476 2.994.668 3.7zM133.53 65.963c-.166 1.297.258 1.849 1.111 2.338-1.395-1.87-1.345-3.067 1.459-2.234-.602-.971-.512-.288-.277-1.492l-.285.302c-1.08.894-.424-.179-2.008 1.086" clip-rule="evenodd"/><path fill="#F1CB55" fill-rule="evenodd" d="M150.277 94.838c.76-.255 1.245-.68.894-1.724-1.28-.124-1.522.989-.894 1.724M150.641 90.505c1.331-.189 1.703-1.064.977-1.854-.837.248-1.025.927-.977 1.854" clip-rule="evenodd"/><path fill="#E31F25" fill-rule="evenodd" d="m35.404 48.762 156.091 156.091 12.82-12.82L48.224 35.942z" clip-rule="evenodd"/><path fill="#231F20" fill-rule="evenodd" d="M104.995 114.183c-2.386-.231-5.622.243-7.622 1.006-1.181.451-5.989 2.585-4.428 4.976 1.815 2.78 5.029-1.249 6.192-2.186 1.548-1.248 5.089-2.685 5.858-3.796m-75.578 51.299c3.378-4.098 5.491-6.057 7.705-12.831.785-2.398 7.773-13.688 9.383-15.526 1.868-2.132 4.669-3.036 5.538-6.279.907-.515.1.209 1.114-.93.195-.218.709-.985.85-1.196.594-.885 1.036-1.512 1.513-2.347l1.482-1.631c2.459-4.229 2.81-6.061 4.105-11.365 2.276-6.161 3.235-4.769 1.06-10.214-1.07-2.677.146-2.934-.114-5.506-.245-2.433-1.321-1.824.08-5.588 1.671-4.485 2.63-4.84 4.46-6.237 1.177-.9 5.74-6.632 10.458-5.492-.92 2.703-3.383 3.38-4.535 6.67 2.785.372 1.613-.201 3.947-.755 1.792-.423 2.605.072 4.084-.477 1.906-.707 4.516-3.39 6.888-2.479-.263 2.14-2.2 3.405-3.447 5.419 1.062 1.72 2.222 1.926 2.716 4.267.525 2.487-.584 2.934 2.297 4.009 1.866.697 4.024 1.875 5.61 1.694 1.703-.196 2.944-1.416 4.642-.101-.417 2.054-1.286 1.855-2.693 3.304.16 1.749.873 2.303.687 4.695-.762 9.829 5.149 5.121 9.123 7.146-.177 1.791-2.166 2.478-4.453 3.484-.027 2.141.824 4.362-.555 6.761-.99 1.724-3.708 2.193-7.657 6.895-1.354 1.613-2.658 2.218-3.821 3.501-1.378 1.52-1.663 2.551-3.374 4.191-4.053 3.881-8.511 6.568-11.803 9.764-3.184 3.09-4.217 3.915-6.847 8.183-2.108 3.424-1.172 8.205-4.43 11.978-1.476 1.709-1.999 1.64-3.397 4.145l-8.296 15.538c-.743 1.504-1.428 3.111-2.078 4.78a101 101 0 0 1-5.31-5.521c3.222-6.804 5.004-20.761 10.26-24.116.483 1.714-2.123 5.937-3.31 8.889-1.312 3.267-2.253 6.766-2.984 10.367 3.915-.576 1.346-2.644 6.659-11.018 1.301.345.372.149 1.26.927 2.067-3.556 6.605-4.633 6.996-9.314-1.499 1.874-2.437 2.3-5.226 2.048.765-1.083 4.757-3.937 6.42-7.743 1.873-4.283-.26-7.095 4.147-10.145.45 1.192.053 1.612-.403 2.581-.557 1.183-.882.439-.668 2.093 1.123-.718 4.552-4.478 5.641-5.487l12.114-9.952c3.229-3.713 1.416-3.287 5.685-5.567.166-1.503-.153-.494-.55-2.733l1.969-1.059c1.563-.329 3.316-1.523 4.93-2.629 2.146-1.47 2.922-2.202 2.627-5.182-3.118.42-2.726 4.434-7.67 2.356-2.494-4.513 1.94-6.3 4.965-7.848-2.632-1.64-4.858.715-6.963 1.991-4.754 2.881-3.615 2.987-3.242 7.31-2.25-1.428-.739-1.522-2.369-2.303-2.832 2.67-1.488 3.751-1.674 6.794-4.463-3.431-.101-6.956 3.346-11.068l1.67-1.624-2.942-.833.204-1.014c4.895.644 11.406-3.919 9.301-9.063-3.364 2.254-3.27 7.169-8.91 4.233-.4-2.078-.715-3.388 1.25-5.411.636-.655 3.198-2.405 3.71-3.181-2.958-1.419-3.492.323-7.408 3.655-5.263 4.477-1.22 5.812-2.323 7.002-5.95-1.14-.896 5.963-.737 6.364-.467.089-.163.228-.969-.056-4.127-1.452-2.024-6.592-.865-8.956 2.227-4.543 4.206-5.386 6.689-8.468-1.877 1.148-3.869 4.475-6.642 3.724.154-.196 11.25-9.27 4.275-12.076-.947 3.022-2.314 7.2-5.884 5.143-3.41-1.965-.23-5.58.976-8.147-2.643.565-6.308 7.127-6.48 8.663-.218 1.957.803 2.187 1.823 3.383l-1.493 1.369c-.568.952-.653 1.634-.366 2.564.433 1.401 2.313 2.234 3.34 3.243l-2.686-.356c-3.303-1.713-2.568-4.542-1.964-7.747-.937-6.28.679-3.676 2.271-8.396-1.134 1.488-1.355 2.632-3.206 2.9-2.244.325-2.47-.47-3.56-1.521-.688-.663.138-.364-.92-.678-2.966 6.366.712 4.67 1.965 7.885l-2.319.31c-1.145 3.226 1.151 4.676 2.915 6.864-1.916 3.38-3.17 5.372-4.659 9.889l-1.562 6.377.879.521c-.959 4-2.41 2.586-3.162 4.693l-2.368 2.791c-2.532 1.704-3.3 7.393-2.587 10.193.652 2.559 1.302.745.521 4.043-3.045-1.628-3.517-3.691-3.832-7.098-.816.545-.135-.136-1.113 1.02-2.938 3.467-4.79 7.676-2.526 11.912-1.012 2.086-1.12.879-1.936 3.964-.607 2.294-.48 2.454-1.747 3.956-1.136-2.25.433-5.472-1.05-8.295-4.843.897-4.98 18.292.256 20.289 1.233-.987 2.841-3.745 4.25-5.131 1.678-1.652 3.89-3.46 5.852-3.982-1.388 2.618-4.203 4.236-6.085 6.818-.898 1.233-1.614 2.656-2.225 3.99-2.027 4.428-1.423 3.522-2.995 3.554-.495-1.529.244-2.485-.887-3.862-1.162-1.413-3.913-1.477-5.023-5.581l-.458-2.873c-.226-.856-.124-.611-.45-1.221-1.512 3.445-1.962 6.287-1.73 8.592a101 101 0 0 1-2.97-5.475m7.45 12.485c2.667 1.516 5.729 1.543 6.849.49.677-.638 1.285-2.158 2.416-2.982-.899 6.1-2.885 7.011-6.074 6.811q-1.651-2.115-3.19-4.319m61.138-78.912c-4.307.19-11.672 3.119-11.359 7.883 3.493 2.635 3.023-.447 9.64-6.186zm-11.9-14.87c-3.66.836-9.309 4.586-9.668 9.7 3.06 2.521 3.716.783 4.948-2.815 1.2-3.504 3.167-4.131 4.72-6.885M75.43 80.947c-2.088.64-4.04 1.876-5.793 3.39-6.568 5.677-1.704 9.91.459 6.981.85-1.151.74-3.04 1.17-4.5.806-2.732 3.087-3.608 4.164-5.871" clip-rule="evenodd"/><path fill="#F69D34" fill-rule="evenodd" d="M78.772 130.656c-.112-1.305-.329-2.547-1.159-3.534-.88 1.146-1.003 2.708-2.329 4.4-3.278 4.185-8.168 8.465-9.169 10.588 1.172-.358.271.069 1.16-.45zm-20.252-2.778c.753-2.107 2.203-.693 3.162-4.693l-.879-.521 1.562-6.377c1.49-4.517 2.743-6.509 4.659-9.889-1.763-2.188-4.06-3.638-2.915-6.863l2.32-.311c1.38.462.555.456 2.009.295l1.44-.486c-.604 3.206-1.339 6.035 1.964 7.748l2.687.356c-1.028-1.009-2.908-1.842-3.341-3.244-.287-.929-.201-1.611.366-2.563l1.493-1.37c1.27 2.62 1.493 3.155 5.29 3.035 2.773.751 4.765-2.576 6.642-3.724-2.483 3.082-4.462 3.925-6.689 8.468-1.159 2.364-3.262 7.504.865 8.956.806.284.502.145.97.056-.16-.401-5.213-7.504.736-6.365.2 2.726.965 3.532 4.176 3.78l2.943.833-1.67 1.624c-3.448 4.112-7.81 7.637-3.346 11.068.185-3.043-1.159-4.124 1.673-6.794 1.63.781.12.875 2.37 2.303.518 2.511 2.063 3.36 5.352 4.002l-1.969 1.059c.397 2.239.716 1.229.55 2.733-4.268 2.28-2.456 1.854-5.684 5.567l-12.115 9.952c-1.09 1.009-4.518 4.769-5.64 5.487-.215-1.654.11-.91.667-2.093.456-.969.853-1.389.403-2.581-4.408 3.05-2.274 5.862-4.146 10.145-1.664 3.806-5.656 6.66-6.421 7.743 2.789.252 3.727-.174 5.226-2.048-.391 4.681-4.928 5.758-6.997 9.314-.887-.778.042-.582-1.26-.927-5.312 8.374-2.743 10.441-6.658 11.017.73-3.6 1.672-7.099 2.984-10.366 1.187-2.952 3.793-7.175 3.31-8.889-5.256 3.355-7.038 17.312-10.26 24.116a102 102 0 0 1-4.29-5.145c3.188.2 5.174-.711 6.073-6.811-1.131.824-1.74 2.344-2.416 2.982-1.12 1.053-4.182 1.026-6.849-.49a102 102 0 0 1-4.48-7.01c-.233-2.305.218-5.147 1.73-8.592.326.61.224.365.45 1.22l.458 2.874c1.11 4.104 3.861 4.168 5.023 5.581 1.131 1.377.392 2.332.887 3.862 1.572-.032.968.874 2.995-3.554.611-1.334 1.327-2.757 2.225-3.99 1.882-2.582 4.697-4.2 6.085-6.818-1.962.522-4.174 2.33-5.852 3.982-1.409 1.386-3.017 4.144-4.25 5.131-5.237-1.997-5.099-19.393-.256-20.289 1.483 2.823-.086 6.044 1.05 8.295 1.268-1.502 1.14-1.662 1.747-3.956.815-3.085.924-1.878 1.937-3.964-2.266-4.236-.413-8.445 2.525-11.913.978-1.155.297-.474 1.113-1.019.315 3.407.788 5.47 3.832 7.098.78-3.298.13-1.484-.521-4.043-.713-2.8.055-8.489 2.587-10.193zm8.234-10.727-4.583 10.658 1.01.462c2.042-7.055 8.26-12.062 6.52-15.846-1.244 1.068-2.16 3.12-2.947 4.726m8.883 2.84c-.079.065-.185.164-.265.231-.077.064-.178.162-.255.224-.521.425-.56.444-1.059.789-.838.579-1.427.849-2.147 1.732-1.22 1.494-1.866 3.679-2.88 5.565-2.178 4.057-5.797 6.629-7.266 9.765 1.658-.417 1.593-.607 2.727-1.777.8-.825 1.157-1.241 1.931-2.031 1.616-1.648 2.38-2.352 3.728-4.155 3.993-5.337 5.538-6.36 6.358-11.04zm-12.094 29.75c-3.43-.274-2.654.852-3.794 3.459-1.245 2.847-2.209.918-3.157 3.727l4.293-.793zm-6.637-2.875c-2.052 2.319-.317 6.649-6.534 7.189-3.31.288-2.282 2.171-2.673 3.656-.371 1.412-1.673 3.9-2.199 5.629 2.763-.563 1.9-2.23 3.432-4.538 1.88-2.834 5.897-3.023 7.975-6.435.902-1.483 1.447-4.35 0-5.501" clip-rule="evenodd"/><path fill="#fff" fill-rule="evenodd" d="M85.037 114.166c-3.211-.248-3.977-1.053-4.177-3.779 1.105-1.19-2.939-2.525 2.324-7.002 3.916-3.332 4.45-5.074 7.409-3.655-.513.776-3.075 2.526-3.71 3.181-1.966 2.023-1.65 3.333-1.251 5.411 5.64 2.936 5.546-1.979 8.91-4.233 2.105 5.144-4.406 9.707-9.3 9.063zM78.337 102.995c-3.797.12-4.02-.415-5.29-3.034-1.02-1.196-2.041-1.426-1.823-3.383.171-1.536 3.837-8.098 6.48-8.663-1.206 2.568-4.386 6.182-.976 8.147 3.57 2.056 4.937-2.121 5.884-5.143 6.975 2.805-4.12 11.88-4.275 12.076M92.36 127.202c-3.29-.642-4.834-1.491-5.354-4.002-.373-4.323-1.512-4.429 3.243-7.31 2.105-1.276 4.33-3.631 6.962-1.991-3.024 1.548-7.459 3.335-4.964 7.848 4.943 2.078 4.55-1.936 7.669-2.356.295 2.98-.481 3.712-2.626 5.182-1.615 1.106-3.368 2.3-4.93 2.629" clip-rule="evenodd"/><path fill="#231F20" fill-rule="evenodd" d="M76.509 119.294c-.82 4.68-2.365 5.703-6.358 11.04-1.349 1.803-2.112 2.507-3.728 4.155-.774.79-1.132 1.206-1.93 2.031-1.135 1.17-1.07 1.361-2.728 1.777 1.469-3.136 5.088-5.708 7.266-9.764 1.014-1.887 1.66-4.071 2.88-5.566.72-.883 1.309-1.153 2.147-1.732.5-.345.537-.364 1.059-.789.077-.062.178-.159.255-.224.08-.066.186-.166.265-.231zM56.906 146.866c1.448 1.151.903 4.018 0 5.501-2.077 3.412-6.095 3.601-7.974 6.435-1.531 2.308-.67 3.975-3.432 4.538.526-1.729 1.828-4.216 2.199-5.629.391-1.485-.638-3.368 2.673-3.655 6.217-.541 4.482-4.87 6.534-7.19" clip-rule="evenodd"/><path fill="#B5BEC1" fill-rule="evenodd" d="M96.285 100.752c-6.615 5.739-6.146 8.821-9.639 6.186-.313-4.764 7.052-7.694 11.359-7.883zM104.995 114.183c-.769 1.111-4.309 2.548-5.858 3.796-1.163.937-4.376 4.966-6.192 2.186-1.56-2.391 3.247-4.525 4.428-4.976 2-.763 5.236-1.237 7.622-1.006M75.43 80.947c-1.076 2.263-3.357 3.139-4.163 5.87-.43 1.462-.32 3.35-1.17 4.501-2.163 2.93-7.027-1.304-.46-6.98 1.754-1.515 3.706-2.75 5.794-3.391" clip-rule="evenodd"/><path fill="#fff" fill-rule="evenodd" d="m69.878 99.034-1.44.485c-1.454.161-.629.167-2.01-.295-1.253-3.214-4.931-1.519-1.964-7.885 1.057.314.23.015.919.678 1.09 1.051 1.316 1.846 3.56 1.52 1.851-.267 2.072-1.411 3.206-2.899-1.592 4.72-3.208 2.116-2.271 8.396" clip-rule="evenodd"/><path fill="#B5BEC1" fill-rule="evenodd" d="M86.104 84.185c-1.552 2.754-3.519 3.38-4.72 6.885-1.231 3.599-1.888 5.336-4.947 2.816.36-5.115 6.009-8.864 9.667-9.7" clip-rule="evenodd"/><path fill="#231F20" fill-rule="evenodd" d="M67.276 141.661c-.89.518.011.091-1.16.449 1-2.123 5.89-6.402 9.169-10.588 1.326-1.692 1.448-3.254 2.329-4.4.83.987 1.047 2.229 1.158 3.535zM66.753 117.151c.788-1.606 1.704-3.658 2.948-4.726 1.74 3.784-4.478 8.791-6.52 15.846l-1.01-.461zM63.543 149.741l-2.658 6.393-4.293.793c.948-2.809 1.912-.88 3.157-3.727 1.14-2.607.364-3.733 3.794-3.459" clip-rule="evenodd"/></svg>