<svg xmlns="http://www.w3.org/2000/svg" width="240" height="240" fill="none"><path fill="#E31F25" fill-rule="evenodd" d="M120 240a120 120 0 1 0 0-240 120 120 0 0 0 0 240" clip-rule="evenodd"/><path fill="#fff" fill-rule="evenodd" d="M120 222.6A101.3 101.3 0 1 0 120 20a101.3 101.3 0 0 0 0 202.7" clip-rule="evenodd"/><path fill="#F7E609" fill-rule="evenodd" d="M197.3 96.7c-.7.5-.4 1-.8 3.1-.6 3.5-1 14.8 2.8 17.1 2 1.2 5.5.3 7-.4-4.6-.4-7.6 2.6-9.1-6-.6-3.2 0-7.4.6-10.5.1-.5.3-1.2.2-1.9 0-1.3.2-1.1-.7-1.4m-3.6 16c.5-1.4-2.3-3.5.5-12 .8-2.6 4.2-8.8 2.2-11.3.5 5-2 7.4-3.2 11.5-.8 2.8-1.8 6.6-1 9.6l.6 1.3c.3.9.1.8.9.9m-2.3-20.6c-.8 4.6-4.3 4.5-4.3 18.1 0 4 1.8 7.3-.3 10.8-2.5 4-4.2 4.3-7.8 2.5 0 3.1 6 5 8.5 1 2-3.1 1.4-8.3.9-12-1.2-9.2 6.2-17.5 4.4-22.2-1.4.1-1.2.5-1.4 1.8m1.7-3.3c.5.5 1 .1 1.5-.3.9-1 .1-1 .1-1-1-1-2.7.4-1.6 1.3m-17 25.5 2.2-2.5c3.1-4.3 2.2-14.3 4.8-18.5l1.8-3c.9-1.5 1.4-1.2 1.4-3.2-4.4.3-6.6 7.5-7.3 11.7-.7 4.4-.5 10.3-2.5 14.2-1 1.9-.6 1-.4 1.3m12.4-29.2c-.2-.1.2-.4-.8 0-.5.2-1.3 1 0 1.8 1-.3 1.3-1 .8-1.8m-6.7 24.7c3.2-1.3.6-8.6 3.3-14.6 1-2.3 1.9-3.6 3.3-5.5.6-.8 5-4.3 2-4.9 1 1.6 0 2-1.1 2.8a25.8 25.8 0 0 0-5.2 7.9c-.8 1.9-1.4 4.9-1.4 7.2-.1 4.5-1.1 5.6-1.1 6.4 0 .7 0 .3.2.7m13-30c.8-.3.4 0 .8-.5l.4-.5.7-1c1.3-1.3 1.7-2.4 3-3.6.7-.5 1.1-.9 1.3-2-1.8.4-5.7 5-6.1 7.6m8-8.7-4.4 6.2c-1.2 2-3.2 4.8-3.2 7.6 1 .5 1.3.3 2.3 1.3a7 7 0 0 1 1.3 2.3c1.8 5-1.6 14.2 0 20.3.3 1.5 1.4 4 2.4 4.8 1.3.8 4 1.3 5.7 1.6 3.3.7 6 .1 8.9-.5a99 99 0 0 1-.9 3.3 17 17 0 0 0-5.2 1c-3.8 1.3-9.2 4.2-13.1 3.5-1-.1-3.4-1.1-4-1.7-.4-.6-.5-3.6-1-4.3-.7 1.7 1.7 8.7-4.8 11.3-3.6 1.4-6.2 1.3-9-1.3-1-1-1-1.6-1.7-2.5 1.1-1.2 2.5.1 1.6-5.5-1.7-1-5.1-.8-6.6.3-1.1 1-3 3-5.8 2.1.3-.4 0 .4 0 .5-2.5 1-6.7.8-9-.4-2.8-1.5-2.9-2.6-8.2-2.6-3.4 0-6.1 1-7 0-1-1-.1-.6-1.7-1.1-2.3-.7-4.1-4.3-3.1-7.4 2.9-1.3.6 3.8 4.7 7.2 2 1.5 8.5.1 11.2 0 7.4-.3 14.5 5.7 19.5-1 4.7-6.2 1-17.5 3.3-22 2.1-4.2 5.4-7.2 9.8-9.1 2.8-1.3 2.9-.5 5.6-.9.8-1.8 2-1.6 5-9.3.7-1.8.3-2.4.7-4 .5 0 3.5 2.1 6.5-.2z" clip-rule="evenodd"/><path fill="#E67527" fill-rule="evenodd" d="M146.6 121c3.8.6 12 6.7 22.5 1.3a24 24 0 0 1 8.4-2.8c-.7-1.8-3-1-4.4-.3l-7.8 3.5c-1.5.2-4 .2-5.5.2-4.5.2-5.3-1.3-8.5-2.8-2.2-1.1-1-1.2-4.5-1-1.8 0-3 .4-4.7.7 1.3.7 2.9.8 4.5 1.1m68.2-2a25.7 25.7 0 0 0-10.3 3.1c-1.7.2-3.2 1.2-5.4 1.4-3 .3-3.4-.3-5.6-1 2 3.8 13.4.4 14.6.3l2.8-.8c.9-.1 2-.1 2.6-.5h.5l-.3.8-2.4.5c-4.6.8-8.8 2.8-13.7 2.3-2-.1-2.7-.8-4-1.1-.3-.5.5-.2-.5-.4-.2-.4-.5-.8-.8-1-.7 2.7-1.5 4-3.3 5.3-2 1.2-4 1.7-6.7 1.8-4.1.2-6.3-4.4-7-4.9-.9.2-1.2.8-1.6 1.7-.4 1-.8 1.7-.8 2.6 1.4 1.6 3.4.9 5.8 1.5 2.2.5 4 1.1 6.3 1.2 2.3 0 4.5-.4 5.7-1.8.5-.5 1-1.6 1.4-2.3l1-1.8c-1 5.3-3.9 6.8-9 6.5-2.4 0-4.3-1-6.6-1.4-2.2-.4-4.8 0-5.8-1.9-.3-.8 2-4.4 2.5-4.8 1-1 4.3-.7 3-3.7-2.4-.8-9.3 3.3-12 4-5.1 1.5-9.7.6-14-1-2.3-1-3.4-1.6-6.2-2-4.6-.8-4-2-5-3-1.8-1.5-3.3-1-4-4.2-.6-2.4-1-5.7 1.7-5.7 1.2 1.6.8 3.1 1.6 4.8.5 1.3 1.5 3 2.7 3.5 2 1 8.2-.3 11-.5 4.3-.2 11.7 3.7 15.7 1.4 8.5-5 2.2-18.3 6-25 1.4-2.5 3.6-5 5.8-6.4 3.2-2 4.9-3 9.4-3 2.1-3 2-2 3.8-6.3.5-1 1.2-2.5 1.5-3.5.6-1.6-.2-3.2 1.2-4l.1.5v.1c.4.8 1.8 1 2.7 1 1 0 2.9-.5 2.9-1.7-1-.5-2 .6-3.6.7.4-.7 0-.2.5-.7 1.6-.3 2.4-1.2 4-.4.1.7.3 1.4-.2 2 0 2-6.7 9.6-6.8 13.3 6.3 3.5 4.3 10 3.4 16-.5 3.6-.6 6.5.6 9.7 1.3 3.3 2.7 3.6 6.4 4.3 4 .8 5.9.4 9.7-.4l-.2.7c-2.9.6-5.6 1.2-8.9.5-1.7-.3-4.4-.8-5.7-1.6-1-.7-2.1-3.3-2.5-4.8-1.5-6.1 1.9-15.2.1-20.3a7 7 0 0 0-1.3-2.3c-1-1-1.3-.8-2.3-1.4 0-2.7 2-5.4 3.2-7.5l4.3-6.2-.1-.5c-3 2.3-6 .3-6.5.1-.4 1.7 0 2.3-.7 4-3 7.8-4.2 7.5-5 9.4-2.7.4-2.8-.4-5.6.9-4.4 2-7.7 4.9-9.8 9.1-2.3 4.5 1.4 15.8-3.3 22-5 6.7-12 .7-19.5 1-2.7.1-9.3 1.5-11.2 0-4.1-3.4-1.8-8.5-4.7-7.2-1 3.1.8 6.7 3.1 7.4 1.6.5.7.2 1.7 1.1.9 1 3.6 0 7 0 5.3 0 5.4 1.1 8.2 2.6 2.3 1.2 6.5 1.4 9 .4 0-.1.3-1 0-.5 2.8 1 4.7-1.2 5.8-2 1.5-1.2 4.9-1.3 6.6-.4.9 5.6-.5 4.3-1.6 5.5.7.9.8 1.6 1.7 2.5 2.8 2.6 5.4 2.7 9 1.3 6.5-2.6 4.1-9.6 4.7-11.3.6.7.7 3.7 1.1 4.3.6.6 3 1.6 4 1.7 3.9.7 9.3-2.2 13-3.5 2-.7 3.8-1 5.3-1l-.2.8" clip-rule="evenodd"/><path fill="#FAE889" fill-rule="evenodd" d="M179 123.5c3.6 1.8 5.3 1.6 7.8-2.5 2.1-3.5.3-6.7.3-10.8 0-13.6 3.5-13.5 4.3-18 .2-1.4 0-1.8 1.4-1.9 1.8 4.7-5.6 13-4.4 22.2.5 3.7 1.1 8.9-.9 12-2.6 4-8.5 2.1-8.5-1m-3-9.2c0-.3-.5.6.5-1.3 2-3.9 1.8-9.8 2.5-14.2.7-4.2 3-11.4 7.3-11.7 0 2-.5 1.7-1.4 3.2-.5.9-1 2-1.8 3-2.6 4.2-1.7 14.2-4.8 18.5l-2.2 2.5" clip-rule="evenodd"/><path fill="#FDF4AB" fill-rule="evenodd" d="M177.5 119.5c-2 0-6.5 1.8-8.4 2.8-10.4 5.4-18.7-.7-22.5-1.4-1.6-.3-3.2-.4-4.5-1.1 1.6-.3 2.9-.7 4.7-.7 3.5-.2 2.3-.1 4.5 1 3.2 1.5 4 3 8.5 2.8 1.5 0 4 0 5.5-.2l7.8-3.5c1.3-.6 3.7-1.5 4.4.3m16.1 4.4c-.3 1 .1 1-.5 2l-1 1.7c-.3.7-1 1.8-1.4 2.3-1.2 1.4-3.4 1.9-5.7 1.8-2.3 0-4.1-.7-6.3-1.2-2.4-.6-4.4 0-5.8-1.5 0-.9.4-1.7.8-2.6.4-.9.7-1.5 1.7-1.7.6.5 2.8 5 6.9 5 1.5 1.4 5.8 1.2 7.4-.3 1-.9 3-4.6 3.4-6 1 .3.2 0 .5.5m20.4-2.5a11 11 0 0 1-.5 0l.7-.6-.2.6" clip-rule="evenodd"/><path fill="#E67527" fill-rule="evenodd" d="M181.8 109.8c-.2-.4-.2 0-.2-.7 0-.8 1-2 1-6.4.1-2.3.7-5.3 1.5-7.3a25.8 25.8 0 0 1 5.2-7.8c1-.9 2.1-1.2 1.2-2.8 2.9.6-1.5 4.1-2 4.9-1.5 2-2.4 3.2-3.4 5.5-2.7 6-.1 13.3-3.3 14.6" clip-rule="evenodd"/><path fill="#F9B847" fill-rule="evenodd" d="m214.2 120.8-.7.6c-.6.4-1.7.4-2.6.5l-2.8.8-.1-.1-3.5-.6a27.3 27.3 0 0 1 10.3-3.2l-.6 2" clip-rule="evenodd"/><path fill="#FAE889" fill-rule="evenodd" d="M197.2 110.4c1.5 8.7 4.5 5.7 9 6-1.4.8-4.9 1.7-6.9.5-3.7-2.3-3.4-13.6-2.8-17 .4-2.1.1-2.7.8-3.2 1 .3.7.1.7 1.4 0 .7 0 1.4-.2 1.9-.6 3.1-1.2 7.3-.6 10.4" clip-rule="evenodd"/><path fill="#E67527" fill-rule="evenodd" d="M193.7 112.7c-.8-.1-.6 0-1-.9l-.4-1.3c-.9-3 0-6.8.9-9.6 1.2-4.1 3.7-6.4 3.2-11.5 2 2.5-1.4 8.7-2.2 11.3-2.8 8.5 0 10.6-.5 12" clip-rule="evenodd"/><path fill="#F9B847" fill-rule="evenodd" d="M193.1 123.5c-.3 1.3-2.4 5-3.4 6-1.6 1.4-5.9 1.6-7.4.1 2.7 0 4.7-.6 6.7-1.8 1.8-1.2 2.6-2.6 3.3-5.4l.8 1" clip-rule="evenodd"/><path fill="#FDF4AB" fill-rule="evenodd" d="M208.1 122.7c-1.2 0-12.6 3.5-14.6-.4 2.2.8 2.6 1.4 5.6 1.1 2.2-.2 3.7-1.2 5.4-1.4l3.5.6.1.1" clip-rule="evenodd"/><path fill="#FAE889" fill-rule="evenodd" d="M194.9 79.8c.4-2.6 4.3-7.2 6.1-7.5-.2 1-.6 1.4-1.3 2-1.3 1-1.7 2.2-3 3.5l-.7 1-.4.5c-.4.4 0 .2-.7.5" clip-rule="evenodd"/><path fill="#F7E609" fill-rule="evenodd" d="M196.4 69.7c1.3-.5 1.4 0 2.6-.2-.5.5-.1 0-.5.7 1.7 0 2.7-1.2 3.6-.7 0 1.2-1.9 1.6-3 1.7-.8 0-2.2-.2-2.5-1v-.1z" clip-rule="evenodd"/><path fill="#FAE889" fill-rule="evenodd" d="M194.7 87.5s.8 0-.1 1c-.5.4-1 .8-1.5.3-1-1 .6-2.4 1.6-1.3m-6.2-2.4c.5.9.2 1.5-.8 1.8-1.3-.8-.5-1.6 0-1.9 1-.3.6 0 .8 0" clip-rule="evenodd"/><path fill="#fff" fill-rule="evenodd" d="m42.3 62.5 20.2-20.2 135.2 135.2-20.2 20.2z" clip-rule="evenodd"/><path fill="#E31F25" fill-rule="evenodd" d="m33 46.3 160.7 160.6 13.2-13.2L46.3 33.1z" clip-rule="evenodd"/><path fill="#2C140B" fill-rule="evenodd" d="M128 218.8a7.3 7.3 0 0 0-1.3-3.6c-6.7-.4-8.5 5.8-2.5 4.6 1.3-.2 2.8-.7 3.9-1m8.8-5c-2.4.9-4 1.6-3.1 4.6l-1.8.5-.3-.3c-.4-3.9.8-4.8 3.7-5.8-1-2.3.2-1-1.7-2.5a59 59 0 0 0-18.7-6.1c4.6-2 17.2 4 19.3 4.4l1.7-1.6c-4.2-6.2-23.2-7-30.8-5.3-5 1 0 0-3 2.3-7.3-1.7-2.6-.5-6.1 2.4-2-.8-1.5-.7-3-2.2l-3.2 1.7-2.4-1.6c-.8 2.6-3.6 3.9-4 6.2-.7.6-.2-.1-1 1l-.9 1.3-1 2c0 .2-.7 1-.8 1.6l-.1.3a90 90 0 0 1-2-.7 20.4 20.4 0 0 1 2.8-5.7c.9-1.2 1-1 1.8-2.1.5-.7 2.6-3.8 3-4.6 8.6-9.2 8.3-30-1-33.9-9.5-4-24.2 11-29 18-.8.8-1 1.4-2 2.7-1.3 1.5-1.3 1.4-1.6 3.5-1.2 1.2-1 1-1.2 2.8A6 6 0 0 0 49 199a92 92 0 0 1-1.3-1.2c1.4-3.8 4-8.5 6-11.1 4.2-6-.8-3.5 1.6-16.8.4-2.7 1.1-5.3 2.1-7.5 1.8-4 5.3-7.1 1-15.2-2-3.6-1.3-4.7-4.5-6.2l1.6-.6c-1-5.5-.6-11.2 2.7-14.5-1.2 5.3-2.7 10.7.4 16 1.3 6 5.8 11.5 10.5 14.4 11 6.6 22.8-3.9 30.6-9.9 4.4-3.3 8.6-7.6 15.3-10.1l3.7-1.3c.8-.5.6-.3 1.1-.9l-6.4-.2c-.7-1.7-.4-1 .8-2.8l-6.3.9v-3.4c-2.2.8-2.7 2-5.7 1.9l-2-4.4c-1.7 2.6-2.7 5.6-4.2 7.6-1.2 1.4-4.5 4-6.5 5.2-5.4 3.1-10.3 5.6-14.5 9.3-.9-1.3.2-.2 0-1.8-2-.7-2-.4-3.9.3l2.3-1.6c1-.9 0 .1 1-1.1-8.2-6-.3-18.8-9.3-23.4 3.3-1.7 5.7 3 6.2 7.6l.4 3c.4 1.6.2.8.6 1.4l4.1.3c-.9-9.3-4.5-10 1.3-16.2-3.9-1-8.2-3.6-11.4-4.3-.4 1-1 2-1.2 2.7 1 0 1-.2 1.4.8-10.5 3-13.9 8.2-17.6 13.4-2.5 3.5-.4 1.2-1 4-.3 1.3-1.4 2.3-2.3 3.5-1.3 1.6-1.7 2.5-2.6 4h2c-.2 1.7-3 7-4.2 10.6a80 80 0 0 0-2.7 12.1c-1.4 9-.8 15.6-.4 23.5a90 90 0 0 1-2.8-3.7c-.4-13.6 1.2-31.3 6.8-38.8-1.3-.8-1.7-.2-2.5-1.6 1-1.8 2.1-3 3.2-4.7 5.6-8.3-.9-2.5 7.2-13 9-11.8 13.5-6.4 15.5-14.1-5-2.8-12-8.4-14-13.7-9.5 2.9-12 3.2-20-1.6-13.4-8-16.6-23.5-8.4-33 5.1-5.8 11-5.6 19-3.6-2-9 .5-20.3 4.3-26.9 6.4-10.9 17.9-16 15-9.5 6.9-4.2 13-8.5 22.4-8.8 4.4 0 6.5.1 7.4 2.6-2 .9-4.3 1.2-5.8 2.8 2.1.5 20.6-.4 21.4 6.6-1.2.4-5-.5-7.4-.4l.3.3 2.6 1.5 2.4 1.4c4.8 3.1 8.1-.8 14.8 8.8 3 4.3 2.7 7.4 4.8 11.7 2.3 4.8 2.6 7.4 3.2 13.2 4.3 2 3.9 1.7 6.7 4.9 4.2-1.8 6.7.4 7.9 3.6.8 2.4.7 3.2 1.6 5.2 1.9 4.3 1 4 3 4.8l2.8 1c1.1.8 1.7 1.3 2.5 2.5 4.7 6.5 4.3 17.3 2.2 24.4-2.7 9.7-9.2 19.5-18.9 21.6 1 1 .2 0 1 .8s-.1-.4.8.9c.7.9.8 1.3 1 2.6-2.1 1.4-5.5 2-8.2 3.9-5.4 3.7-11 12.9-16.8 17.6-12.9 10.7-20.8-.4-25.3 1.6-2.3 1-6.9 2.2-8.7 3.2l1.4 5.8c5.3.1 4.5 2.2 9-.2 7.7-4 19.4-3.6 23.2 4.4 6 12.4-11.6 20.7-10.3 29.9 8-1.6 16.3-2.5 24.4-.6 6.2 1.5 13.6 5.4 15.4 11 1 2.8.4 3.3-.2 4.6l-3.2 1.1zm-35.7 4.6c1 1.2-1 .2 1.7 1.2.6.3 2.4.7 3.2.8.4-2.4 2.3-4 0-4.6-2-.5-4 1.7-5 2.6m1.9 3c-3.4-1-7-1.3-10.6-1.4a91 91 0 0 1-6.8-1.5c4.6-.3 9.1-.4 13.4.2 1.2-1.1 1.4-3 4.3-4 3.1-1.3 4.5-.3 5.8 1.8-.4 3.7-1.2 1.8-2 4.5 7-.4 3.8-6 1-7.6-3.8-2-8.5-1-12.8-.5a15 15 0 0 1 10.4-2.2c4.7.7 5.1 2.8 7.3 5 .5 4 .1 3.2 3.8 5.6l-2.2.2h-1.2a2 2 0 0 1-.3-.2l-.4.3a93 93 0 0 1-9.7-.2m34.8-9.6 1.9-1.2c-1.3-2.8-2-3.2-4.5-1.8.5 1.5 0 .8.9 1.9 1.2 1.5.6.6 1.7 1m-17.6 9.3c-.8-.4-1.2-1.3-1-2.8 1-4.5 3-3 5.7-5.2-9.5-5.7-17.1-3-19-6 10.6.6 20.6 1.3 24.4 11.3l-.1 1a93 93 0 0 1-10 1.7m-26.6-30.2c-.8 1.7-1.2 4.6-1.9 6.4-1 2.5-2 3-1.7 6 1.7 0 1.8-.5 3-1.4 1.5.5 1.2.5 2.4 1.7.4-1 .5-2 1-3.1l3 1c-.1-3.7.6-4.7 1.8-7.7 2.2-5 12.1-12 9.4-20.3-2.6-8-15.4-9.1-22.2-4.1l.8 1 .8.9a15 15 0 0 1 1.3 2c.9 1.6 1.3 3 1.8 5 1.1 4.9.2 8.2.5 12.6m-36.7-10c1 .4 0 .5 1 0 1.8-.8 9.3-11.4 20-13.6l-1.3-6.4c-9.9-.7-12.4-6.3-15.2-8.5.7 4.4 2.6 2-.3 6.5a34.3 34.3 0 0 0-4.2 22.1m21-51 .7 13.3c2.3-1.2 7-3.7 8.6-5.2l-9-7.7-.3-.3m-1.7 13.3.3-8.9-4.3.2c.1 3.3 1.8 7 4 8.7m34.8-2.7c-3.8 1.6-4.3 2.7-7.2 5-1.1 1-1.7 1.3-3.2 2.5l-3 2.8c-3 2.8-4.5 2.4-5.6 5a16.3 16.3 0 0 0 18.6-1c1.9-1.5 3.1-2.6 4.1-4.5 2.3-1.2 6.1-6.3 7.6-8.4 1.7-1.4 3.4-3.2 5.6-4.8 1.9-1.3 5.8-2.7 7.1-4-4-2.9-8.5-.9-13.4 0 1.4.8 1.2.6 1.3 2.3-2.5 1.9-9 1.8-12 5m-16.8-21.9c-12 1.4-12.5-3.6-16 .3-4.7 5.1-.8 8.6 3.2 12.3 1.4 1.3 5.7 4.4 7.8 5.3 2.7-1.5 5.6-4.5 7.2-7.3 2.4-4.4-1.1-4.9-2-10.1 0-.3-.1-.3-.2-.5m-67.7 49.6.4-5.3c.8-10.2.1-17.7-4.4-25.8a38.5 38.5 0 0 0-2.9-4.4l-.7-1v-3.3c5.2 6 9.4 14.7 10.1 23.2.5 5.4-.1 12.8-.6 20.6a88 88 0 0 1-2-4m34.5 39.5c.4-1 .7-2 1-3.4l1.8-3.2c.6-1.4.2-1.8 1.8-4.2 5.5-8.8 0-5.6 7-13.7-.7 1.7-2 3.3-2.3 5.5 1-1.7 3.8-4.7 5.6-5.6-.2 3-2.9 4.1-5.3 8.8-2 3.9-4.2 4.3-5.4 9.5-.7 2.7-2 4.7-2.3 7q0 .2-.2.3a89 89 0 0 1-1.7-1M147.3 105c-1.9-.3-2.6-.5-3 1.7-.6 2.2 1.6 1.8 3 1.8zm-2.1-6.6c-3-.5-3.2-1.4-4.7-2a7 7 0 0 0-.4 0H139c-1.1 4.4.5 6.6 5 6.7zm-42.1 2.4c1.3.9 5.3 2.4 5.1-.8 0-1-2.3-2.7-3.5-3.6-1.4 1.2-1.6 2.3-1.6 4.4m30.1-8.5c-1.1-.6 1 .5-.7-.3-2-1-3.8-2-5-1-2 4.7 6 9.5 6.8 2zm19.6 3c.1-4-.6-4.8-4-4.4.7 3 1 4.2 4 4.4m.5 1.6c-4.2.2-6-2.6-6.2-6.7l3-1.3c-.5-1.5-4.7-2-5.4.5-.9 3-.3.7.9 2.7a45.5 45.5 0 0 1 4 14.7c-.6 10.6-5.5 13.5-10.2 19 7.8-3.8 13.7-16.5 13.9-28.9m-55.7 15.7c-2 3.5-1.1 6.3.1 10 1.7.6 2.9.4 4 1.9 1.2 1.3 1.4 2.3 2 3.7 1.9-.8 3-1 4-2.6 2-.4 1-.5 2.8-.8.8 2.1.3 3-.4 4.8l7.3-1.6.2 2.4v.4l.1.3c15-.4 27-9.8 29.2-21.3l-3.1-.6-.8-.6c-2.2 4.6-6.9 9-13.3 10.6-1.1-.2-.2.3-.9-.4 4.8-2.4 12.6-9.6 13.9-13.9l-3-.6c-.4-2.7-5.1-3.8-1-10 1.7.2 4 1.9 6.2 2.9.2-3.8-2.2-7.3-6.3-5.5-3.8 1.8-4.7 17.6-17.7 21.2.2-1.7 1.6-2 3-3.2 2.2-1.6 7.6-7.8 8.6-11l-3.2-.5c-1.8-1.3-5.6-4.3-3-7.8 2.2-2.8 6 .4 8 .9-1-3.8-5-6.3-9-4-3.3 2-4 6.2-6 8.9-1.5 1.9-3 2-4.1 3.7-1.3 1.9-.9 11.2-9.2 13.4 1.2-2.5 5.1-4.6 6.1-10.4.9-4.9-2-10.6-6.7-7.5 1.7 2 7.3 3.7 2.5 7.6-2.5 1-3.4.3-5.6-.4-1.3 3.9-3.4 6.3-4.7 10m53-26c-1.5-2.4-1.7-3.6-5.3-3.6v3.2c2.7-.8 3.5-.3 5.3.4m-126-.7c2.1 4.8 9.2 9.7 16 10.9 4 .6 8.3 0 10.6-2.7 1.7-2 3.3-6.1 3.4-9.9 1.2-21.4-26.6-33.4-32.8-15-2 6-.2 15.3 2.8 16.7M111 72.7c-.8-3-1.6-3-1.6-3l-2.7 6.2a23 23 0 0 0 4.3-3.2m28.6-1.6c-.8-1.7-1.6-2.7-3.8-3 1.3 1.7 2.1 1.8 3.8 3m-8.9-4.3c-1.3-1-1.8-2-3.7-2.7 0 3.2-.3 2.8 3.7 2.7M96.1 44.4c-14.4-2.5-23.7 33.3-4.4 36 21.3 2.8 19.7-33.3 4.4-36m15 12c0 1.2.6 3.4-.2 4.2l-.4.3-.7.7-.1.5c-.5 3.1.4 1.3 1.1 1.7-.2 5.4-1 .4 2 7.4 4.8-1.9 5.9-3.2 12-4.5.2-6.3-.5-12.4-3.3-17.3-2.2-4-6-9-11.6-7.7-2.2 2.6-2.3 6.4-2.1 11 1.1.5 1 0 2.7 0zm-33.3-5.3c-3.7 4.5-2.4 19-2 25.4l-.4.2-2.9.7c-5.8 1.5-11.7 7.4-11.8 12-2.2 3.1-1.7 9.4 0 13.1 2.3 4.9 4 5.7 8.3 7.9a51 51 0 0 0 25.1 5.8l1.5-4.2c.8-2.7 2.6-5 3.7-7.3 1.4-2.8 1.5-5.5 2.6-8.1 1.1-2.4 3.2-4.6 7.4-3.6 4.3 1 5 6 5.3 5.2l.3.4c5.7-6.9 7.9-17.4 16.9-13.4 3 1.3 3.3 2.9 5 5.6.9-.4 1.6-.8 2.9-1.2l2.6-.8c.7-3 1-6.6-.1-9.7-3.4-9.6-15.5-12.7-22.1-8.9 1.2.6 5.7 1.4 8.2 5.9-.8-.5-10.5-8.5-16-1.2-1.7 2.4-.6 4-1.2 5.8-1.3-1.4-1-1.4-1.3-4.5-1.2.7-2.7 2.1-3.8 3-2.2 2-1.2 2.6-3.8 3.2-.9-2.6.2.8 0-2.1l-.1-.3c-8.9 7-30.5.4-21-26.5.8-1.3 1-2 1.9-3.4 3.2-5.1 10.6-10.7 17-6.7l5.7 5c0-3.9 1-8 4.4-9 4.1-1.2 6.7 1.8 9.4 3.4-4.5-11-14.6-15.7-15.2-6.2-.2 2.6.1 2.3 1.1 4.2l-3-1.4c2.4 2.9.3 2.2.2 2.4-2.2-4.2-10.5-5.7-16.4-3-5 2.5-8.5 9-8.4 12.3M56.3 88.5 52.1 96c1.5 2.2 4.2 5.1 6.2 6.8-.8-4.6-1.3-5.5-.9-10.7 2.9-9 5.8-14.8 16.8-16.3-.3-10.9-1.5-21 3.4-30.4 8-15.2 23-7 25-7 1.3-3.5-1-1.3 2.4-7.4-2-1-4.3-2.3-7-3.4L92 25.8c-1.6-.6-.7-.2-1.6-.9 4.6-.4 6 .1 9.6-1.9-3.5-.6-4.4-1.6-9.1-1.7-3 0-7.3.6-9.6-.7.4-2.2 2.2-3.2 4.1-4.4-7.9-.2-14.9 2.4-21.1 6.6-2 1.2-3.7 2.8-5.5 3.7-.4-.5-1-.1-.2-3.7-11.5 5.3-15.4 19.8-15.4 31.9 0 6.3.7 5.2 4 8 4.2 3.5 8 9.9 9.1 15.6 1 4.9 0 6.3-.1 10.2" clip-rule="evenodd"/><path fill="#A5624A" fill-rule="evenodd" d="M113.4 133.8c-1.8 1.4-4.4 3-6.9 4.4-3.7 2.2-3.6 4.8-12.3 10-6.8 4-14.5 9.7-25 5-4.3-2-8.4-9.4-10.6-11.4-3.1-5.3-1.6-10.7-.4-16-3.3 3.3-3.7 9-2.7 14.5l-1.6.6c3.2 1.5 2.5 2.6 4.4 6.2 4.4 8 1 11.2-.9 15.2-1 2.2-1.7 4.8-2.1 7.5-2.4 13.3 2.6 10.9-1.7 16.8a55.5 55.5 0 0 0-6 11.1 90 90 0 0 1-10-10.8c-.3-8-.9-14.6.5-23.5a80 80 0 0 1 2.7-12c1.2-3.7 4-9 4.1-10.8h-2c1-1.4 1.4-2.3 2.7-4 .9-1 2-2.1 2.3-3.5.6-2.7-1.5-.4 1-3.9 3.7-5.2 7.1-10.4 17.6-13.4-.5-1-.3-.7-1.4-.8l1.2-2.7c3.2.7 7.5 3.3 11.4 4.3-5.8 6.1-2.2 7-1.3 16.2l-4.1-.3c-.4-.6-.2.2-.6-1.4l-.4-3c-.5-4.6-2.9-9.3-6.2-7.6 9 4.6 1.1 17.4 9.3 23.4-1 1.2 0 .2-1 1l-2.3 1.7c1.9-.7 1.8-1 3.8-.3.3 1.6-.8.5.1 1.8 4.2-3.7 9-6.2 14.5-9.3 2-1.1 5.3-3.8 6.5-5.2 1.5-2 2.5-5 4.1-7.6l2.1 4.4c3 0 3.5-1 5.7-1.9v3.4l6.3-.9c-1.2 1.8-1.5 1-.8 2.8M57.4 92c-1.2-1.4-1.2-1.4-1.1-3.5 0-3.9 1.1-5.3.1-10.2-1.2-5.7-5-12-9-15.6-3.4-2.8-4.2-1.7-4.1-8 0-12 3.9-26.6 15.4-31.9-.9 3.6-.2 3.2.2 3.7 1.8-1 3.5-2.5 5.5-3.7a36.4 36.4 0 0 1 21.1-6.6c-2 1.2-3.7 2.2-4.1 4.4 2.3 1.3 6.6.6 9.6.7 4.7.1 5.6 1.1 9.1 1.7-3.6 2-5 1.5-9.6 2 .9.6 0 .2 1.6.8l5.9 1.7c2.7 1.1 5 2.5 7 3.4-3.5 6-1 3.9-2.4 7.4-2 0-17-8.2-25 7-5 9.4-3.7 19.5-3.4 30.4-11 1.5-14 7.3-16.8 16.3m-38.6 39.7.7 1a38.5 38.5 0 0 1 2.9 4.4c4.5 8 5.2 15.6 4.4 25.8l-.4 5.3a87.8 87.8 0 0 1-7.5-31 89 89 0 0 1-.1-5.5" clip-rule="evenodd"/><path fill="#F5C38B" fill-rule="evenodd" d="M126 81.3c-1.7-4.4-10.4-9.4-11.6-1.8 2.9-.8 3.2-2.3 6.4-.8 3.8 1.8 2.5 2.6 5.3 2.6M81 53.5C71.5 80.5 93.1 87 102 80v.3c.3 3-.8-.5.1 2 2.6-.5 1.6-1.2 3.8-3 1-1 2.6-2.4 3.8-3 .3 3 0 3 1.3 4.4.6-1.7-.5-3.4 1.2-5.8 5.5-7.3 15.2.7 16 1.2-2.5-4.5-7-5.3-8.2-5.9 6.6-3.8 18.7-.7 22 9 1.2 3 .9 6.6.2 9.6l-2.6.8c-1.3.4-2 .8-2.9 1.2-1.7-2.7-2-4.3-5-5.6-9-4-11.2 6.5-16.9 13.4l-.3-.4c-.2.8-1-4.2-5.3-5.2-4.2-1-6.3 1.2-7.4 3.6-1.1 2.6-1.2 5.3-2.6 8.1-1.1 2.3-2.9 4.6-3.7 7.3-8.2-1.8-21.3-1.2-30.3-12.6-2-2.4-4.7-6.7-4.6-10 .1-4.6 6-10.5 11.8-12l2.9-.7.4-.2c-.4-6.3-1.7-20.9 2-25.4 0 1.7 0 .9.4 1.5l.8-2v-1c1.7 2 1 .6 1.4 2.2.6 2.4-.6.6.6 1.7" clip-rule="evenodd"/><path fill="#A5624A" fill-rule="evenodd" d="M51.7 193.9c.3-2.1.3-2 1.5-3.5 1.2-1.3 1.3-1.9 2.2-2.7 4.7-7 19.4-22 29-18 9.2 4 9.5 24.7.9 34l-3 4.5c-.9 1-1 .9-1.8 2.1a25 25 0 0 0-1.1 1.9c-1.6.8-.3.8-2 .3-2 .6-3.8 1-5.4 1.2a92 92 0 0 1-9-4.7 17 17 0 0 1-.3-.5c.4-2.4 1.6-4.4 2.3-7.1 1.2-5.2 3.4-5.6 5.4-9.5 2.4-4.7 5.1-5.8 5.3-8.8-1.8.9-4.5 3.9-5.6 5.6.3-2.2 1.6-3.8 2.3-5.5-7 8-1.5 5-7 13.7-1.6 2.4-1.2 2.8-1.8 4.2l-1.9 3.2c-1.8.6-3.3.9-4.6 1a91 91 0 0 1-6.2-4.8c-.2-1.1-.4-2.4-.4-3.8.2-1.8 0-1.6 1.2-2.8" clip-rule="evenodd"/><path fill="#F5C38B" fill-rule="evenodd" d="m129.3 98.2-1.4 2.5-1.2 2c-3.8 5.5-3.2 3.4-6.5 7.5-1.3 1.6-2.6.6-2.7 3.6l3.4-.9c13-3.6 13.9-19.4 17.7-21.2 4-1.8 6.5 1.7 6.3 5.5-2.2-1-4.5-2.7-6.2-2.9-4.1 6.2.6 7.3 1 10l-1.2 2c-.6.8-.8 1.3-1.6 2.2l-5.4 5.8c-2.2 2.6-4.3 2.2-5.5 5l.4.2.4.2 2.9-.5c6.4-1.7 11-6 13.3-10.6l.8.6c.3 3-7.2 10.5-9.5 12.3-2.2 1.7-4.8 2.9-7.4 4.2-5.2 2.7-4.5 1.7-9.5 2.3l-7.3 1.6c.7-1.7 1.2-2.7.4-4.8-1.8.3-.9.4-2.8.8-2 0-4.8-3.3-6.4-4.6-3.2-2.8-2-5.7-3.7-8.4 1.3-3.7 3.4-6.1 4.7-10 2.2.7 3.1 1.5 5.6.4 4.8-3.9-.8-5.7-2.5-7.6 4.8-3 7.6 2.6 6.7 7.5-1 5.8-5 8-6 10.4 8.2-2.2 7.8-11.5 9.1-13.4 1-1.6 2.6-1.8 4-3.7 2.1-2.7 2.8-7 6.1-8.8 4-2.4 8 .1 9 3.9-2-.5-5.8-3.7-8-.9-2.6 3.5 1.2 6.5 3 7.8" clip-rule="evenodd"/><path fill="#FDFDFD" fill-rule="evenodd" d="M94.6 60.3v-5c-5.5 0-3.5 8.7-3.3 9.2.5 1.3-.4.3.8.8 2.4 0 .9-.9 2.2 2.2l.2.4.3.3c2.5-2.2 2.4-4.2 2.2-7.5-2 0-1 0-2.4-.4M96 44.4c15.3 2.7 16.9 38.8-4.4 36-19.3-2.7-10-38.5 4.4-36" clip-rule="evenodd"/><path fill="#F5C38B" fill-rule="evenodd" d="M131.7 218.6c-1.4.2-1 .6-1.4-.3-3.8-10-13.8-10.7-24.4-11.3 1.9 3 9.5.3 19 6-2.7 2.2-4.7.7-5.7 5.2l-1.1 1.2c-.7-2.3-1.9-2.3-5.1-3.6-2.2-2.3-2.6-4.4-7.3-5.1a15 15 0 0 0-10.4 2.2c4.3-.5 9-1.5 12.8.5 2.8 1.6 6 7.2-1 7.6.8-2.7 1.6-.8 2-4.5-1.3-2.1-2.7-3-5.8-1.9-3 1.1-3 3-4.3 4.1-4.3-.6-8.8-.5-13.4-.2a87 87 0 0 1-1.9-.5c0-.5.2-1 .3-1.4l-3.3-1.7 1-2 .8 2.4 3.5-.2c-.3-1.8-1.7-3.2-2.6-4.6.5-2.3 3.3-3.6 4.1-6.2l2.4 1.6c1.3-.7 2-1.2 3.3-1.7 1.4 1.5.8 1.4 2.9 2.2 3.5-2.9-1.2-4.1 6-2.4 3-2.2-2-1.2 3.1-2.3 7.6-1.7 26.6-.9 30.8 5.3l-1.7 1.6c-2.1-.5-14.7-6.5-19.3-4.4a59 59 0 0 1 18.7 6.1c2 1.5.8.2 1.7 2.5-3 1-4 1.9-3.7 5.8M33 84.6c.8 1.6.6 1.6 2.6 2.2.8.3 2.2.5 3 .5 1.8.5 2.4 1.3 5.2.7-1.7-1.5-3.9-.6-4-4a4.4 4.4 0 0 1 3-4.5c4.3.7 3.5 3.9 6.4 4.4 3.8-6.7-20-26.2-23.2-12.4-.7.9-.6.1-.7 1.7 0 2.1-.3-.9.8 2.3l.3 1c1.5 4.8 1.2 3.1 2.1 3.9 0-1.1-.4-7 1.1-7.1 3-.3-1.4-2.2.8.3-1.4 6 0 7.2 2.6 11m21.7-.4c0 .2-.2.2-.2.5L52.6 88c-5.6 9.8-19 4-24.5-.3-3-2.4-1.9-2-3.5-2-3-1.3-4.8-10.6-2.8-16.6 6.2-18.4 34-6.4 32.8 15" clip-rule="evenodd"/><path fill="#A5624A" fill-rule="evenodd" d="M101.2 193.7c-1-2 0-.1-1.4-1-2.4 1.4-3.7 1.3-6 .2l-.2-2c-.3-4.5.6-7.8-.5-12.7-.5-2-1-3.4-1.8-5a15 15 0 0 0-1.3-2l-.8-1c-.6-.6-.3-.2-.8-1 6.8-5 19.6-3.8 22.2 4.2 2.7 8.3-7.2 15.3-9.4 20.3" clip-rule="evenodd"/><path fill="#FDFDFD" fill-rule="evenodd" d="M110.8 63.8c.7-.7.2-.2 1-.8.3 2 .5 1.5 1.2 2.1 1.7-2.7 1-6 .3-9.2l-2.3.5-.5-3.7c-1.6 0-1.6.5-2.7 0-.2-4.6-.1-8.4 2.1-11 5.7-1.2 9.4 3.7 11.6 7.7 2.8 4.9 3.5 11 3.3 17.3-6.1 1.3-7.2 2.6-12 4.5-3-7-2.2-2-2-7.4" clip-rule="evenodd"/><path fill="#F4D5A7" fill-rule="evenodd" d="M92.4 220c3.5.1 7.2.4 10.6 1.4a92 92 0 0 1-10.6-1.4" clip-rule="evenodd"/><path fill="#F5C38B" fill-rule="evenodd" d="M57 180.9a34.3 34.3 0 0 1 4.1-22.1c3-4.5 1-2.1.3-6.5 2.8 2.2 5.3 7.8 15.2 8.5l1.3 6.4c-10.7 2.2-18.2 12.8-20 13.6-1 .5 0 .4-1 0" clip-rule="evenodd"/><path fill="#FDFDFD" fill-rule="evenodd" d="M94.1 118.6c0 .2.2.2.2.5.9 5.2 4.4 5.7 2 10a20.5 20.5 0 0 1-7.2 7.4c-2-.9-6.3-4-7.8-5.3-4-3.7-7.9-7.2-3.2-12.3 3.5-3.9 4 1.1 16-.3" clip-rule="evenodd"/><path fill="#F4D5A7" fill-rule="evenodd" d="M81 53.5c-1.2-1 0 .7-.6-1.7-.4-1.6.3-.3-1.4-2.3v1.1l-.8 2c-.4-.6-.4.2-.4-1.5-.1-3.3 3.3-9.8 8.4-12.2 5.9-2.8 14.2-1.3 16.4 2.9.1-.2 2.2.5-.2-2.4l3 1.4c-1-1.9-1.3-1.6-1.1-4.2.6-9.5 10.7-4.7 15.2 6.2-2.7-1.6-5.3-4.6-9.4-3.4-3.4 1-4.4 5.1-4.4 9l-5.8-5c-6.3-4-13.7 1.6-17 6.7-.9 1.5-1 2-1.9 3.4" clip-rule="evenodd"/><path fill="#E79569" fill-rule="evenodd" d="m95.6 112-1.5 4.2a51 51 0 0 1-25-5.8c-4.3-2.2-6-3-8.3-7.9-1.8-3.7-2.3-10-.1-13.2 0 3.4 2.7 7.7 4.6 10 9 11.5 22 10.9 30.3 12.7" clip-rule="evenodd"/><path fill="#834533" fill-rule="evenodd" d="M49 198.9a6 6 0 0 1 1.5-2.2c0 1.4.2 2.7.4 3.8a88 88 0 0 1-2-1.6m8.2 6.3c1.3 0 2.8-.3 4.6-1-.2 1.4-.5 2.5-.9 3.5a91 91 0 0 1-3.7-2.5m1.5-63.4c2.2 2 6.3 9.4 10.6 11.3 10.5 4.8 18.2-.9 25-5 8.7-5.1 8.6-7.7 12.3-10 2.5-1.4 5-3 7-4.3l6.3.2c-.5.6-.3.4-1.1.9l-3.7 1.3c-6.7 2.5-10.9 6.8-15.3 10.1-7.8 6-19.6 16.5-30.6 9.9a23.8 23.8 0 0 1-10.5-14.4" clip-rule="evenodd"/><path fill="#834533" fill-rule="evenodd" d="M122.3 142a34.2 34.2 0 0 1-7.6 8.4c-4 2.1-8.5 2.2-13.2 1.7l-2.1-.5-.5-.2-1.3-.5 3-2.8 3.2-2.4c3-2.4 3.4-3.5 7.2-5.1 1.1 2.5 8.1 2 11.3 1.4" clip-rule="evenodd"/><path fill="#2C140B" fill-rule="evenodd" d="M38.6 87.3c-.7-2-.6-3-1-4.7-.9-3.4-2.8-4.8 2.4-8.2 1.2-.7 1-.5 1.4-1-3.2-2.8-7-4.4-9.4.2-2.7 5.3 1.7 9.6 1 11-2.7-3.8-4.1-5-2.7-11 3.6-5.3-.6-.4 4-4.5-2-.6-3.7-1.1-5.6 0-3.5 2-.9 6.3-2.8 2.4 3.2-13.8 27 5.7 23.2 12.4-3-.5-2-3.7-6.4-4.4a4.4 4.4 0 0 0-3 4.5c.1 3.4 2.3 2.5 4 4-2.8.6-3.4-.2-5.1-.7" clip-rule="evenodd"/><path fill="#E79569" fill-rule="evenodd" d="M117.4 128c5-.6 4.3.4 9.5-2.3 2.6-1.3 5.2-2.5 7.4-4.2 2.3-1.8 9.8-9.3 9.5-12.3l3.1.6c-2.2 11.5-14.2 21-29.2 21.3v-.3l-.1-.4z" clip-rule="evenodd"/><path fill="#834533" fill-rule="evenodd" d="M77.4 212.5c1.7.5.4.5 2-.3-1 1.6-1.4 2.7-1.7 3.8a91 91 0 0 1-5.7-2.3c1.6-.2 3.4-.6 5.4-1.2m-14.9-3.8.2-.2.3.5c-.2 0-.3-.2-.5-.3" clip-rule="evenodd"/><path fill="#A5624A" fill-rule="evenodd" d="M122.3 142c-3.2.5-10.2 1.1-11.3-1.4 2.9-3.3 9.4-3.2 12-5.1-.2-1.7 0-1.5-1.4-2.4 5-.8 9.5-2.8 13.4 0-1.3 1.4-5.2 2.8-7 4-2.3 1.7-4 3.5-5.7 5" clip-rule="evenodd"/><path fill="#673728" fill-rule="evenodd" d="M114.7 150.4c-1 1.9-2.2 3-4.1 4.4a16.3 16.3 0 0 1-18.6 1c1-2.5 2.6-2.1 5.6-5l1.3.6.5.2 2.1.5c4.7.5 9.3.4 13.2-1.7" clip-rule="evenodd"/><path fill="#E79569" fill-rule="evenodd" d="M54.6 84.2c-.1 3.8-1.7 8-3.4 10-2.3 2.6-6.7 3.2-10.6 2.6-6.8-1.2-13.9-6.1-16-11 1.6 0 .5-.4 3.5 2C33.6 92 47 97.9 52.6 88l1.8-3.4c0-.3.1-.3.2-.5" clip-rule="evenodd"/><path fill="#E79569" fill-rule="evenodd" d="M38.6 87.3c-.9 0-2.3-.2-3.1-.5-2-.6-1.8-.6-2.6-2.1.8-1.5-3.6-5.8-.9-11 2.4-4.7 6.2-3.1 9.4-.3-.4.5-.2.3-1.4 1-5.2 3.4-3.3 4.8-2.4 8.2.4 1.7.3 2.7 1 4.7" clip-rule="evenodd"/><path fill="#EBB67A" fill-rule="evenodd" d="m150.2 89-3 1.2c.2 4.1 2 6.9 6 6.7 0 12.4-6 25.1-13.8 29 4.7-5.6 9.6-8.5 10.3-19.1.2-3.4-3-12.8-4.1-14.7-1.2-2-1.8.2-1-2.7.8-2.4 5-2 5.6-.5" clip-rule="evenodd"/><path fill="#834533" fill-rule="evenodd" d="M101.2 193.7c-1.2 3-2 4-1.8 7.7l-3-1c-.5 1.2-.6 2.2-1 3-1.2-1.1-.9-1-2.4-1.6-1.2 1-1.3 1.4-3 1.4-.3-3 .7-3.5 1.7-6 .7-1.8 1-4.7 2-6.4l.1 2.1c2.3 1.1 3.6 1.2 6-.2 1.4.9.4-1 1.4 1M77.9 130l.4.3 9 7.7c-1.6 1.5-6.4 4-8.7 5.2z" clip-rule="evenodd"/><path fill="#E79569" fill-rule="evenodd" d="m129.7 119.2-3 .5-.3-.2a4 4 0 0 1-.4-.1c1.2-2.9 3.3-2.5 5.5-5.1l5.4-5.8c.8-.9 1-1.4 1.6-2.3l1.3-1.9 2.9.6c-1.3 4.3-9 11.5-13.9 13.9.7.7-.2.2.9.4m-8.8-6.3-3.4 1c0-3 1.4-2.1 2.7-3.7 3.3-4.1 2.7-2 6.5-7.5l1.2-2 1.4-2.5 3.2.4c-1 3.3-6.4 9.5-8.6 11.1-1.4 1.1-2.8 1.5-3 3.2m-1.7 105.3c-.2 1.5.2 2.4 1 2.8a99 99 0 0 1-3.4.3c-3.7-2.4-3.3-1.6-3.8-5.5 3.2 1.3 4.4 1.3 5 3.6zm-11.5-92.6c-1 1.5-2.1 1.8-4 2.6-.6-1.4-.8-2.4-2-3.7-1.1-1.5-2.3-1.3-4-1.8-1.2-3.8-2-6.6 0-10 1.6 2.6.4 5.5 3.6 8.3 1.6 1.3 4.5 4.6 6.4 4.6m-77.4-52c-2.2-2.5 2.2-.6-.8-.3-1.5.1-1 6-1 7-1-.7-.7 1-2.2-3.9l-.3-.9c-1.1-3.2-.9-.2-.8-2.3.1-1.6 0-.8.7-1.7 2 3.9-.7-.4 2.8-2.4 1.9-1.1 3.6-.6 5.5 0-4.5 4.1-.3-.8-4 4.5" clip-rule="evenodd"/><path fill="#834533" fill-rule="evenodd" d="M57.4 92c-.4 5.2.1 6.1.9 10.7-2-1.7-4.7-4.6-6.2-6.8l4.2-7.4c-.1 2 0 2.1 1.1 3.5" clip-rule="evenodd"/><path fill="#E79569" fill-rule="evenodd" d="m131.7 218.6.3.2a88 88 0 0 1-1.8.5v-1c.6 1 .1.5 1.5.3" clip-rule="evenodd"/><path fill="#F4D5A7" fill-rule="evenodd" d="M134.3 93c-.8 7.4-8.8 2.7-6.7-2 1-1 3 0 4.9 1 1.7.8-.4-.3.7.3zm10.9 5.4-1.3 4.7c-4.4-.1-6-2.3-4.9-6.7h1.5c1.5.6 1.8 1.5 4.7 2M128 218.8c-1 .3-2.6.8-3.8 1-6.1 1.2-4.3-5 2.4-4.6.7 1 1.2 2 1.4 3.6" clip-rule="evenodd"/><path fill="#2C140B" fill-rule="evenodd" d="M126 81.3c-2.7 0-1.4-.8-5.3-2.6-3-1.5-3.4 0-6.3.8 1.2-7.6 9.9-2.6 11.7 1.8" clip-rule="evenodd"/><path fill="#834533" fill-rule="evenodd" d="m92.1 65.3-.3-5.5c1 1 .4 0 1.2 1.4 1 1.5-.5 1.4 1.7 2.5l-.1-3.4c1.3.4.4.3 2.4.4.2 3.3.3 5.3-2.2 7.5l-.3-.3-.2-.4c-1.3-3 .2-2.2-2.2-2.2" clip-rule="evenodd"/><path fill="#F5C38B" fill-rule="evenodd" d="M76.3 143.3a12.2 12.2 0 0 1-4.1-8.7l4.3-.2z" clip-rule="evenodd"/><path fill="#834533" fill-rule="evenodd" d="M110.8 63.8c-.7-.4-1.6 1.4-1.1-1.7l.1-.5.7-.7.4-.3c.8-.8.2-3 .1-4.2l2.3-.5c.7 3.1 1.4 6.5-.3 9.2-.7-.6-.9 0-1.1-2.1-1 .6-.4 0-1 .8" clip-rule="evenodd"/><path fill="#2C140B" fill-rule="evenodd" d="M94.6 60.3v3.4c-2.1-1-.7-1-1.6-2.5-.8-1.5-.1-.5-1.2-1.4l.3 5.5c-1.2-.5-.3.5-.8-.8-.2-.5-2.2-9.3 3.3-9.2z" clip-rule="evenodd"/><path fill="#F4D5A7" fill-rule="evenodd" d="M103 100.8c0-2 .3-3.2 1.7-4.4 1.2 1 3.4 2.6 3.5 3.6.2 3.2-3.8 1.7-5.1.8m3 119.6c-.8-.1-2.6-.5-3.2-.8-2.6-1-.7 0-1.7-1.2 1-.9 2.8-3.1 4.8-2.6 2.4.5.5 2.2 0 4.6m27.8-2c-1-3 .7-3.7 3-4.5l1.6 3.1a91 91 0 0 1-4.6 1.4" clip-rule="evenodd"/><path fill="#A5624A" fill-rule="evenodd" d="M73.3 203c-.9 2.1-2 2.4-4 1.9-2.4-4.8 2.6-5.8 4-1.8m-14.6-9.4c4-1.5 5.6 1.2 3.1 3.2-1.8 1.4-3.9-.3-3-3.2" clip-rule="evenodd"/><path fill="#F4D5A7" fill-rule="evenodd" d="M152.8 95.3c-3-.2-3.3-1.4-4-4.4 3.4-.4 4.1.4 4 4.4" clip-rule="evenodd"/><path fill="#E79569" fill-rule="evenodd" d="M81.6 212.8c.3-.5 0-.4.8-1.3.9-1.1.4-.4 1-1 .9 1.4 2.3 2.8 2.6 4.6l-3.5.2zm-1.9 3.9v-.3c.2-.7.8-1.4 1-1.5l3.3 1.7-.3 1.4a91 91 0 0 1-4-1.3" clip-rule="evenodd"/><path fill="#F5C38B" fill-rule="evenodd" d="M150.6 86.6c-1.8-.7-2.6-1.2-5.2-.4V83c3.5 0 3.7 1.2 5.2 3.6" clip-rule="evenodd"/><path fill="#F4D5A7" fill-rule="evenodd" d="M137.8 211.8c-1.1-.5-.5.4-1.7-1.1-.9-1-.4-.4-.9-2 2.5-1.3 3.2-.9 4.5 1.9z" clip-rule="evenodd"/><path fill="#E79569" fill-rule="evenodd" d="M111 72.7a23 23 0 0 1-4.3 3.2l2.7-6.2s.8 0 1.6 3" clip-rule="evenodd"/><path fill="#F4D5A7" fill-rule="evenodd" d="M147.3 105v3.5c-1.4 0-3.6.4-3-1.8.4-2.2 1.1-2 3-1.7m-16.6-38.2c-4 .1-3.6.5-3.7-2.7 2 .6 2.4 1.7 3.7 2.7" clip-rule="evenodd"/><path fill="#D9B897" fill-rule="evenodd" d="M139.6 71.1c-1.7-1.2-2.5-1.3-3.8-3 2.2.3 3 1.3 3.8 3" clip-rule="evenodd"/><path fill="#EB9A5D" d="M212.4 159.5a12 12 0 0 1-.7 3.2 8.6 8.6 0 0 1-1.2 2.2 14 14 0 0 1-1.7 1.8 6.1 6.1 0 0 1-1.9 1.2 16.7 16.7 0 0 1-14.5-1.2 12 12 0 0 1-4.2-4.2l-1-1.9v-.3a18.2 18.2 0 0 0 9-8.8c.6-.5 1.3-.8 2-1.1l2.2-1c-.4-.8-.7-1.5-1.3-2.1-.4-.5-.8-.8-1.4-1l-.4-.3-.2-1.8h.1c1.3.6 2.5 1.5 3.5 2.6l.3.4s0 .2.2.3l.6.8c.4.3.8.4 1.2.4h.6c.3-.2.7-.1 1-.1 3.1.3 6.5 2.5 7.5 6.5a13.3 13.3 0 0 1 .3 4.4m-1-.2c0-.1 0-.3-.2-.4l-.4.2c0 .2 0 .3.3.3l.3-.1m.3-2.3a.5.5 0 0 0-.4-.7c-.2 0-.5.1-.5.4a.5.5 0 0 0 .3.6.5.5 0 0 0 .6-.3m-2.6 4.2c.3-.7.5-1.4.6-2.2a7.4 7.4 0 0 0-.2-2.5c-.3-1.3-1-2.4-2-3.4-.6-.6-1.3-1-2-1.2l-.6-.3-.9-.2c-.4-.1-.6.2-.4.6l.4 1.3c.3 1.2.4 2.3.5 3.5a26.6 26.6 0 0 1-.2 5c0 .8-.2 1.7-.4 2.5a7 7 0 0 1 0 .3c-.2.2-.2.4-.3.7.2.2.5.2.7.1l1.7-.5c1-.3 1.8-1 2.4-2l.7-1.7m1.1-6.5c.3.1.6 0 .7-.4 0-.3-.1-.6-.4-.7a.6.6 0 0 0-.7.4.6.6 0 0 0 .4.7m-3.4 11.7a.3.3 0 0 0 .4-.2.3.3 0 0 0-.3-.4.3.3 0 0 0-.4.2.3.3 0 0 0 .3.4m2.3-13.6c.3 0 .5-.1.5-.3 0-.2 0-.4-.3-.5-.2 0-.4.1-.5.3 0 .2.1.4.3.5m-4.5 14.3c.2 0 .4 0 .6-.3 0-.3-.2-.4-.4-.4a.4.4 0 0 0-.4.3c0 .1 0 .3.2.4m2.9-15.5a.4.4 0 0 0 .4-.3.4.4 0 0 0-.2-.4.4.4 0 0 0-.5.3.4.4 0 0 0 .3.4m-.3-1a.4.4 0 0 0 .5-.3.4.4 0 0 0-.3-.4.4.4 0 0 0-.4.3.4.4 0 0 0 .2.4m-4.5 16.4c.1-.2 0-.7-.3-.8a.5.5 0 0 0-.5 0c-.2.1-.3.3-.2.5a.8.8 0 0 0 .5.5c.2 0 .4 0 .5-.2m-.5-1.7a.4.4 0 0 0 .6-.3.4.4 0 0 0-.3-.5.4.4 0 0 0-.5.3c-.1.2 0 .4.2.5m-.7-1.3c.4-1.5.8-3.1 1-4.7.2-2 .1-4-.2-6l-.3-.9a.6.6 0 0 0-.6-.4h-.3a8.2 8.2 0 0 0-3.6.8 13 13 0 0 0-6 6c-.1.5 0 1 .2 1.5a9.7 9.7 0 0 0 1.4 2 8 8 0 0 0 2.4 1.9c1.2.6 2.5.9 3.8 1 .6 0 1.2 0 1.8-.3l.4-.9m-1.8 3c.2 0 .5-.3.5-.5a.3.3 0 0 0-.2-.4h-.2l-.5.4a.3.3 0 0 0 0 .4c0 .2.2.2.4.2m3.7-16.5c.2.1.5 0 .5-.3s0-.5-.3-.6c-.2 0-.5.1-.5.4a.5.5 0 0 0 .3.5m-1.3.5c.2-.2.3-.4 0-.8-.3 0-.6-.2-.8.2v.3c.2.3.6.4.8.3m-4.3 15.5c.2-.1.4-.4.3-.7-.3-.2-.6-.1-.8 0-.2.2-.3.4-.2.7.2.2.5.2.7 0m3.8-16.8c.2 0 .4-.1.5-.3a.4.4 0 0 0-.4-.6c-.2 0-.4.1-.5.3a.5.5 0 0 0 .4.6m-1.6 1.7a.4.4 0 0 0 .3-.3.4.4 0 0 0-.2-.4.5.5 0 0 0-.4 0 .5.5 0 0 0-.1.4.4.4 0 0 0 .4.3m-3.5 14.3c0-.2 0-.4-.3-.4a1.2 1.2 0 0 0-.8.2.4.4 0 0 0-.2.4l.3.3c.3 0 .8-.2 1-.5m-2.3-.4.2-.2c0-.6 0-.8-.3-1.1-.2-.3-.3-.3-.6 0 0 .6.3 1.2.7 1.3m-1.9-1.8V162.7c0-.2-.2-.2-.4-.2l-.2.4v.5a.7.7 0 0 0 .1.3s.2.2.3.1a.5.5 0 0 0 .2-.2m-1.5-1.4c.2-.2.2-.5.2-.7v-.2h-.2c-.5 0-.6.2-.6.6 0 .2 0 .4.2.4l.4-.1"/><path fill="#FBBC7E" d="M211.2 159c.2 0 .2.2.2.3 0 .1-.2.2-.3.1-.2 0-.3 0-.3-.3l.4-.2m.1-2.6a.5.5 0 0 1 .4.7.5.5 0 0 1-.6.3.5.5 0 0 1-.3-.6c0-.3.3-.4.5-.4m-.4-2c-.1.3-.4.5-.7.4a.6.6 0 0 1-.4-.7.6.6 0 0 1 .7-.4c.3 0 .4.4.4.7m-3.7 11.9a.3.3 0 0 1-.4.2.3.3 0 0 1-.3-.4.3.3 0 0 1 .4-.2.3.3 0 0 1 .3.4m2.4-13.7a.4.4 0 0 1-.5.3c-.2 0-.3-.3-.3-.5s.3-.3.5-.3.4.3.3.5m-4.4 14.3c-.2.3-.4.4-.6.3-.2-.1-.3-.3-.2-.4a.4.4 0 0 1 .4-.3c.2 0 .3 0 .4.4m2.7-15.5a.4.4 0 0 1-.4.3.4.4 0 0 1-.3-.4.4.4 0 0 1 .5-.3.4.4 0 0 1 .2.4m-.2-1a.4.4 0 0 1-.5.3.4.4 0 0 1-.2-.4.4.4 0 0 1 .7.1m-5.3 15.9c.3.1.4.6.3.8 0 .2-.3.3-.5.2a.8.8 0 0 1-.5-.5c0-.2 0-.4.2-.5a.5.5 0 0 1 .5 0m.4-1.2a.4.4 0 0 1-.6.3.4.4 0 0 1-.2-.5.4.4 0 0 1 .5-.3.4.4 0 0 1 .3.5m-2.6 1.5c0 .2-.3.5-.5.6-.2 0-.4 0-.5-.2a.3.3 0 0 1 .1-.4l.5-.4h.1a.3.3 0 0 1 .3.4m3.7-16.2a.5.5 0 0 1-.5.3.5.5 0 0 1-.3-.5c0-.3.3-.4.5-.4.3.1.4.3.3.6m-1.8 0c.3.4.2.6 0 .8-.2.1-.6 0-.7-.3l-.1-.3c.2-.4.5-.3.8-.2m-4 15.6c.1.3 0 .6-.3.7-.2.2-.5.2-.7 0-.1-.3 0-.5.2-.6.2-.2.5-.3.8 0m4-16.5a.4.4 0 0 1-.5.3.5.5 0 0 1-.4-.6c0-.2.3-.3.5-.3.3.1.4.3.4.6m-1.8 1.7a.4.4 0 0 1-.3.3.4.4 0 0 1-.4-.3.5.5 0 0 1 0-.5.5.5 0 0 1 .5 0 .4.4 0 0 1 .2.5m-4 14.2c.2 0 .2.2.2.4-.2.3-.7.5-1 .5l-.3-.3a.4.4 0 0 1 .2-.4c.2-.2.5-.3.8-.2m-1.8-.2-.2.2c-.4 0-.7-.7-.7-1.3.3-.3.4-.3.6 0 .2.3.3.5.3 1.1m-2-1.8v.2a.5.5 0 0 1-.3.2l-.3-.1a.7.7 0 0 1 0-.3v-.5l.1-.4c.2 0 .3 0 .5.2v.7"/><path fill="#EB9A5D" d="M196.6 145c.2 1.9-.1 3.7-1 5.3-.8 1.9-2 3.7-3.3 5.2a15.7 15.7 0 0 1-4.6 3.5c-2.2 1-4.4 1.4-6.7 1.2l-2-.3a18.5 18.5 0 0 1-6.9-3.3c-1.2-.8-2-1.8-2.9-3a3.7 3.7 0 0 1-.5-.8c-.6-1.5-1-3-.9-4.7 0-.7.2-1.3.4-2a13.3 13.3 0 0 1 2.8-5.4c1-1.1 2.1-2 3.5-2.4 2.2-.8 4.4-.8 6.6.2.2 0 .4.2.6.4.3.3.7.5 1.2.6h.5l1-.4.3-.1.7-.4a11 11 0 0 1 4.9-.4 6.7 6.7 0 0 1 3 1.2c2 1.4 3 3.3 3.3 5.7m-2.5 4a6.5 6.5 0 0 0 .7-3.9 6 6 0 0 0-2.8-4.3c-1-.7-2.2-1-3.4-1.2a5 5 0 0 0-2.4.2c-.8.3-1.4.8-2 1.2l.7 1a24 24 0 0 1 3 4.6c.9 1.9 1.4 3.8 1.5 5.8 0 .2 0 .4.2.6h.5c1.8-1 3.1-2.3 4-4m-3 5.4c0-.2 0-.3-.3-.3h-.2c0 .3 0 .3.2.4l.2-.1m-1 .9c0-.2 0-.4-.2-.4s-.4 0-.4.2a.3.3 0 0 0 .2.4.3.3 0 0 0 .4-.2m2.7-15v-.5h-.3v.3c0 .1.1.2.3.1m-1-1a.3.3 0 0 0-.3-.3.3.3 0 0 0-.3.2.3.3 0 0 0 .2.4.3.3 0 0 0 .3-.2m-5 17.9c.5 0 .6-.2.6-.8l-.3-.4-.3.1a1.2 1.2 0 0 0-.2.8.3.3 0 0 0 .3.3m0-2.4c.4-.3.7-.8.7-1.3v-1.3c-.1-2.5-.9-4.7-2.3-6.7a9 9 0 0 0-2.4-2.4l-.6-.3a.6.6 0 0 0-.7.1 5 5 0 0 0-.7.6l-1 1.5c-1.3 1.6-2.1 3.5-2.7 5.5l-.9 3v.8c.3.4.6.7 1 .9.9.5 1.7.7 2.6 1 2.6.5 4.8 0 7-1.4m-1.4 2.1-.1-.3c-.2-.1-.3 0-.4 0l-.4.7.1.4h.4l.4-.8m-2.2.5c0-.2 0-.3-.2-.5-.4 0-.7.2-.9.5-.1.2-.3.3-.1.6h.3c.4 0 .7-.2.9-.6m-2.4.7a.4.4 0 0 0 0-.6c-.1-.2-.3-.4-.7-.5h-.1l-.2.3c0 .3.2.6.5.8a.4.4 0 0 0 .5 0m3-15c.2.1.5 0 .5-.3a.4.4 0 0 0-.2-.4c-.3-.1-.6 0-.6.3a.4.4 0 0 0 .2.4m0-2.6c0-.2-.1-.4-.4-.5-.2 0-.5 0-.5.3a.4.4 0 0 0 .3.5c.2 0 .5 0 .5-.3m-4.6 17.1c.1-.3 0-.6-.2-.8-.1-.2-.3-.3-.6 0 0 .2 0 .5.2.8.2.1.4.2.6 0m3.8-15.9c.2-.1.2-.4 0-.5l-.3-.2h-.2c-.3.1-.4.4-.3.6 0 .2.3.4.6.3a.9.9 0 0 0 .2-.2m-1.2-1.3c0-.2 0-.4-.3-.6-.4 0-.5.1-.6.4a.4.4 0 0 0 .4.5.5.5 0 0 0 .5-.3m-4.7 16.5c.2-.3 0-.7-.1-.9-.2 0-.3-.1-.4 0a.3.3 0 0 0-.2.2v.5c.2.3.4.3.7.2m3.4-15.1c.3-.3.2-.7-.1-.8a5.4 5.4 0 0 0-.9-.2h-.8c-.7-.2-1.3-.2-2 0a7 7 0 0 0-4 2.5l-.1.2-.7 1c-.7 1.6-1 3.3-.9 5a4 4 0 0 0 1 2.4l1.2 1.2.3.2c.2.1.3.2.5 0l.2-.6a14 14 0 0 1 .2-.7 23.4 23.4 0 0 1 5-9.1c.2-.4.6-.8 1-1a1 1 0 0 0 0-.1m-5.2 12.3a.4.4 0 0 0 .5-.3.4.4 0 0 0-.3-.5.4.4 0 0 0-.5.3.4.4 0 0 0 .3.5m-.3 1.6a.5.5 0 0 0 .2-.7.5.5 0 0 0-.8-.2c-.2.2-.4.4-.3.8.3.2.6.2.9 0m3.5-17a.4.4 0 0 0-.3-.5.4.4 0 0 0-.5.2.4.4 0 0 0 .3.5.4.4 0 0 0 .5-.3m-1.1 1c.1 0 .3 0 .4-.2a.4.4 0 0 0-.3-.5c-.2 0-.4.1-.5.3 0 .2.1.4.4.5m-4.6 14.6c0-.2 0-.4-.3-.4-.2 0-.4 0-.5.2 0 .2 0 .4.3.5.2 0 .4 0 .5-.3m3-14.7c0-.2 0-.4-.3-.5-.4 0-.5.2-.5.4a.4.4 0 0 0 .3.4c.2 0 .3 0 .5-.3m-4.6 13.1a.3.3 0 0 0-.2-.4.3.3 0 0 0-.4.2c-.1.2 0 .4.2.5a.3.3 0 0 0 .4-.3m3-12a.6.6 0 0 0-.5-.7c-.3-.1-.6 0-.6.4-.1.3 0 .6.3.7.3 0 .6-.1.7-.4m-2.7 2.2a.5.5 0 0 0 .6-.4c0-.2 0-.5-.3-.6a.5.5 0 0 0-.7.5.5.5 0 0 0 .4.5m-.9 2c.2 0 .2-.2.3-.5-.3-.1-.4-.2-.5 0a.3.3 0 0 0 0 .2c0 .2 0 .2.2.2"/><path fill="#FBBC7E" d="M191 161.5c0 .2 0 .5-.2.7-.1.1-.3.2-.4.1-.2 0-.3-.2-.2-.4 0-.4.1-.6.6-.7l.1.1.1.2"/><path fill="#EB9A5D" d="M193.4 143.5c.3.4.6 1.2.6 1.9l-1.3.2-1.4.5a3.8 3.8 0 0 0-1.2.7l-1 1-.8-1.7c1-1.4 3.2-2.5 5-2.6"/><path fill="#FBBC7E" d="M190.8 154.2c.2 0 .3.1.2.3l-.2.1c-.2-.1-.2-.1-.2-.3zm-1 .8.2.4a.3.3 0 0 1-.4.2.3.3 0 0 1-.2-.4c0-.2.2-.3.4-.2m2.9-15v.3l-.4-.1.1-.2h.3m-1.3-1a.3.3 0 0 1-.1.6.3.3 0 0 1-.2-.4.3.3 0 0 1 .3-.2m-4.2 17.5c0 .6-.1.7-.5.8a.3.3 0 0 1-.3-.3 1.2 1.2 0 0 1 .2-.8l.3-.1z"/><path fill="#EB9A5D" d="M186.6 153.7c0 .4-.3.6-.7.8-.2-1 0-3.7.4-4.6v.3c.3 1 .4 2 .4 3a4 4 0 0 1 0 .5"/><path fill="#FBBC7E" d="M185.2 156.7c.1 0 .2.2.1.3a5 5 0 0 1-.4.7c0 .1-.2.2-.4.1-.1-.1-.2-.3 0-.4l.3-.6c0-.2.2-.2.4-.1m-2.3.3c.3.2.3.3.2.5-.2.4-.5.6-1 .7h-.2c-.2-.4 0-.5.1-.7.2-.3.5-.5 1-.5m-2.3.6a.4.4 0 0 1 0 .6.4.4 0 0 1-.5 0 1 1 0 0 1-.5-.8l.2-.3h.1c.4 0 .6.3.7.5m3.5-14.7c0 .2-.3.4-.5.3a.4.4 0 0 1-.3-.4c0-.3.3-.4.6-.3.2 0 .3.2.2.4m-1-2.8c.3 0 .4.3.3.5 0 .2-.3.4-.5.3a.4.4 0 0 1-.3-.5c0-.2.3-.4.5-.3m-4.5 16.8c.3.2.3.5.2.8-.2.2-.4.1-.6 0-.3-.3-.3-.6-.2-.9.3-.2.5 0 .6.1m4-15.6c.2.1.2.4 0 .5a.9.9 0 0 1-.2.2c-.3 0-.6 0-.6-.3-.1-.2 0-.5.3-.6h.2c.1 0 .2 0 .3.2m-1.5-1.4c.3.2.4.4.3.6a.5.5 0 0 1-.5.3.4.4 0 0 1-.4-.5c0-.3.2-.4.6-.4m-4.5 16.2c.2.2.3.6.1 1-.3 0-.5 0-.6-.3l-.1-.5a.3.3 0 0 1 .2-.3l.4.1m-1.3-2.2a.4.4 0 0 1-.5.3.4.4 0 0 1-.3-.5.4.4 0 0 1 .5-.3c.2 0 .3.3.3.5m-.6 1.2a.5.5 0 0 1-.2.7c-.3.1-.6.1-.9-.1 0-.4 0-.6.3-.8a.5.5 0 0 1 .8.2m3-17a.4.4 0 0 1 .3.5.4.4 0 0 1-.5.3.4.4 0 0 1-.3-.5.4.4 0 0 1 .5-.2m-.4 1.2a.4.4 0 0 1-.4.3c-.3 0-.4-.3-.4-.5s.3-.3.5-.3a.4.4 0 0 1 .3.5m-5.3 14.5c.2 0 .3.2.3.4s-.3.3-.5.3-.4-.3-.3-.5c0-.2.3-.3.5-.2m3-14.8c.2.1.3.3.3.5-.2.3-.3.4-.5.3a.4.4 0 0 1-.3-.4c0-.2.1-.3.5-.4m-4.5 13.2a.3.3 0 0 1 .2.4.3.3 0 0 1-.4.3.3.3 0 0 1-.2-.5.3.3 0 0 1 .4-.2m2.7-12.3a.6.6 0 0 1 .4.7c0 .3-.4.5-.7.4-.3-.1-.4-.4-.3-.7 0-.3.3-.5.6-.4m-1.7 2.5a.5.5 0 0 1-.6.4.5.5 0 0 1-.4-.5.5.5 0 0 1 .7-.5c.2.1.4.3.3.6m-1.2 2c0 .2-.1.3-.3.3-.1 0-.2 0-.3-.2a.3.3 0 0 1 .1-.3l.5.1"/><path fill="#C35238" fill-opacity=".2" d="M207 166.5c-1.7 0-3.5.6-5.3.6-2 0-3.8-.1-5.6-.6-3.4-.8-6-3-7.5-5.9 1.6-.5 3-1.6 4-2.9.6-.7 1-1.6 1.6-2.4a.5.5 0 0 0 .5-.2l.9-1c1-1 2.3-1.4 3.5-2 .6-.4 0-1.2-.6-1l-2 1 .2-.7c.2-.7-.7-.9-1-.2a4.3 4.3 0 0 1-.4.8.4.4 0 0 0-.2.2c-2 2.7-4.2 6-7.6 6.8 2.3-1.1 4.5-3 6-5 .4-.4-.2-1-.7-.6-1.8 1.6-3.5 3.2-5.8 4.1-2.3.8-4.8 1.5-7.2 1-2.6-.5-5.3-2-7.3-3.7-1.9-1.8-3-4.4-3-7 .2-3.4 2.5-6.2 4.8-8.4.3-.2 0-.7-.3-.5-2.5 1.9-5 4.1-6 7.2-.8 3 .1 6.3 2 8.7 1.9 2.4 4.8 4.1 7.7 5 2.7 1 5.9.8 8.6-.2l.2-.1c-.1.2-.2.5 0 .7 1.5 4 4.5 7 8.7 8.2 2 .5 4.2.8 6.2.7 2 0 4.4-.3 6-1.4.6-.3.4-1.3-.3-1.2"/><path fill="#C35238" fill-opacity=".2" d="M203.4 156.7c-.2-1-.5-2-.6-3.1 0-.3-.5-.3-.5 0v2.8c0 1 0 2-.2 3.1l-.5 2.8c-.2.8-.6 1.8-.3 2.7.2.6 1 .6 1.2.1.5-.7.5-1.9.7-2.7l.4-2.9c0-1 0-1.9-.2-2.8m6.1-2.8c-.7-1-1.6-1.6-2.4-2.4-.3-.3-.7.2-.4.5.6.7 1.1 1.6 1.6 2.4.6 1 .9 1.9 1 3 0 2-1 3.7-1.2 5.6-.1.8.8 1.4 1.3.6 1.2-1.9 1.7-4.5 1.4-6.7a7 7 0 0 0-1.3-3m-13.4-7.3c.4-2-1.1-4.2-2.4-5.6a6 6 0 0 0-3.7-2l-1.4.1c-.2 0-.2.2 0 .2.8 0 1.8.7 2.5 1a5.8 5.8 0 0 1 1.7 1.7l.8 1.1a.6.6 0 0 0-.5.5v.2c-1.4 0-3 .9-3.6 2-.3.6.3 1 .7.6.8-.6 1.7-1.5 2.7-1.8 0 .4.1.7.3 1 .3.6 1 .4 1.2-.2l.1-.5c.2.5.4 1 .5 1.7 0 .6 1 .5 1.1 0m-13.2-4.4c-.2-.2-.6.2-.3.5a16 16 0 0 1 3.1 4.5c.8 1.7 1 3.6 1.8 5.2.3.7 1.3.3 1.3-.3 0-2-1-4-2-5.6a17 17 0 0 0-1.6-2.5 9.8 9.8 0 0 0-2.3-1.8m-5.5 5.8c.8-1.8 1.5-3.7 2.6-5.3.2-.3-.3-.7-.6-.4-1.4 1.5-2.4 3.4-3.4 5.2l-1.4 3c-.4 1-.9 2.1-.5 3.1.2.5.8.6 1.1.1.5-.8.6-1.9 1-2.8l1.2-3"/><path fill="#874636" d="M167.4 146.5c-.2.9-.4 1.8-.3 2.7 0 1.3.3 2.6.8 3.8l.5 1c.8 1.2 1.7 2.3 2.8 3.1a19.3 19.3 0 0 0 10.2 4c1.6.1 3.1 0 4.7-.5h.1l.2.4.6 1.3c1.2 2.3 2.9 4.2 5.2 5.5 1.9 1 3.9 1.7 6 2 1.3.1 2.7.2 4 0 1.8 0 3.5-.5 5.1-1.2a6.6 6.6 0 0 0 2-1.3 17 17 0 0 0 1.6-1.8c.8-1 1.2-2 1.6-3q.5-2 .5-4c0-1.6-.2-3.3-.8-4.8a9 9 0 0 0-2.7-4 8.9 8.9 0 0 0-4.8-1.9l-1.8.1-.3.1c-1.4-2.3-3.4-4-5.9-4.9l-.4-.9a8.3 8.3 0 0 0-2.6-3.2 7.7 7.7 0 0 0-4.5-1.7c-2 0-3.8.3-5.5 1.1l-.8.4-1.4-1a12 12 0 0 0-.4-.2c-2.4-1-4.8-.9-7.2.2a9.5 9.5 0 0 0-3.2 2.4 14.9 14.9 0 0 0-3.3 6.3m29.8-2.3c1.3.6 2.5 1.5 3.5 2.6l.3.4.1.3.7.8c.4.3.8.4 1.2.4h.6c.3-.2.7-.1 1-.1 3.1.3 6.5 2.5 7.5 6.5a13.4 13.4 0 0 1 .3 4.4 12 12 0 0 1-.7 3.2 8.6 8.6 0 0 1-1.2 2.2 14 14 0 0 1-1.7 1.8 6.1 6.1 0 0 1-1.9 1.2 16.7 16.7 0 0 1-14.5-1.2 12 12 0 0 1-4.2-4.2l-1-1.9v-.3a18.2 18.2 0 0 0 9-8.8c.6-.5 1.3-.8 2-1.1l2.2-1c-.4-.8-.7-1.5-1.3-2.1-.4-.5-.9-.8-1.4-1l-.4-.3-.2-1.8h.1m-.1 4.5.3-1.7h.2c.5.3 1 .7 1.3 1.1l.8 1.1v.1c-1.1.3-2.1.8-3 1.2h-.1l.5-1.8m-22.6-10.4c2.2-.8 4.4-.8 6.6.2.2 0 .4.2.6.4.3.3.7.6 1.2.6h.5l1-.4.3-.1.7-.4a11 11 0 0 1 4.9-.4 6.7 6.7 0 0 1 3 1.2c2 1.4 3 3.3 3.3 5.7.2 1.8-.1 3.6-1 5.2-.8 1.9-2 3.7-3.3 5.2a15.7 15.7 0 0 1-4.6 3.5c-2.2 1-4.4 1.4-6.7 1.2l-2-.3a18.5 18.5 0 0 1-6.9-3.3c-1.2-.8-2-1.8-2.9-3a3.7 3.7 0 0 1-.5-.8c-.6-1.5-1-3-.9-4.7 0-.7.2-1.3.4-2a13.3 13.3 0 0 1 2.8-5.4c1-1.1 2.1-2 3.5-2.4"/><path fill="#874636" d="m203.6 152 .4 1.3a21.6 21.6 0 0 1 .5 3.5 26.5 26.5 0 0 1-.2 5c0 .8-.2 1.7-.4 2.5v.3c-.2.2-.2.4-.3.7.2.2.5.2.7.1l1.7-.5c1-.3 1.8-1 2.4-2l.7-1.7c.3-.7.5-1.4.6-2.2a7.4 7.4 0 0 0-.2-2.5c-.3-1.3-1-2.4-2-3.4-.6-.6-1.3-1-2-1.2l-.6-.3-.9-.2c-.4-.1-.6.2-.4.6m2.2.8 1 .5c1.1.8 2 2 2.3 3.3v.4c.3 1 .2 2.1-.2 3.2-.2.7-.4 1.3-.8 2-.5.9-1.3 1.6-2.3 2l-1.4.6h-.3v-.3h.1c.7-2.6 1-5.2 1-7.9 0-1.2-.3-2.5-.5-3.7l-.1-.4c.5 0 .9.1 1.3.3m-13.8 4.9a8 8 0 0 0-.5 1c-.2.6-.2 1.1 0 1.6a9.7 9.7 0 0 0 3.9 3.9c1.2.6 2.5.9 3.8 1 .6 0 1.2 0 1.8-.3l.4-.9a35 35 0 0 0 1-4.7c.2-2 .1-4-.2-6l-.3-.9a.6.6 0 0 0-.6-.4h-.3a8.2 8.2 0 0 0-3.6.8 13 13 0 0 0-5.4 4.9m8.2-5.2h1l.3.7c.4 2.2.5 4.3.2 6.4-.1 1.5-.4 3-.7 4.3l-.2.6h-2.3c-.7-.2-1.4-.3-2-.6a7.1 7.1 0 0 1-2.6-1.6 9.8 9.8 0 0 1-1.6-2.1c-.3-.5-.3-.9 0-1.3.3-.8.8-1.6 1.4-2.3 1-1.2 2.2-2.2 3.6-3 1-.5 1.9-.8 2.9-1m-12.4-5.9c.9 1.9 1.4 3.8 1.5 5.8 0 .2 0 .4.2.6h.5c1.8-1 3.1-2.3 4-4a6.5 6.5 0 0 0 .7-3.9 6 6 0 0 0-2.8-4.3c-1-.7-2.2-1-3.4-1.2a5 5 0 0 0-2.4.2c-.8.3-1.4.8-2 1.2l.7 1a24 24 0 0 1 3 4.6m2.2 5.6c0-.6 0-1.2-.2-1.8l-.4-1.8c1-1.7 3-2.6 4.6-2.5.3 2-1.9 5.4-4 6.1m4-6.9-1.4.2-1.4.5a3.8 3.8 0 0 0-1.2.7l-1 1-.8-1.7c1-1.4 3.2-2.5 5-2.6.4.4.7 1.2.7 1.9m-5.4-5c1 .2 2 .6 3 1.1a5.8 5.8 0 0 1 1.4 1.4c-2.8.8-2.1.4-5 2.6-1-1.5-2-2.9-3.1-4.1 1.1-.7 2.3-1.1 3.7-1M176 153.7v.8c.3.4.6.7 1 .9.8.5 1.7.7 2.6 1 2.6.5 4.8 0 7-1.4.4-.3.7-.8.7-1.3v-1.3c-.1-2.5-.9-4.7-2.3-6.7a9 9 0 0 0-2.4-2.4l-.6-.3a.6.6 0 0 0-.7.1 5 5 0 0 0-.7.6l-1 1.5c-1.3 1.6-2.1 3.5-2.8 5.5l-.8 3m10.2-3.7v.3c.3 1 .4 2 .4 3a4 4 0 0 1 0 .5c-.1.4-.4.6-.8.8-.2-1 0-3.7.4-4.6m-9.8 3.8.9-2.6c.8-2.5 2-4.9 3.7-7l.8-.7.9.5a9.4 9.4 0 0 1 1.7 1.9c.5.8 1 1.6 1.3 2.5v.3a10 10 0 0 0-.7 3.1 25 25 0 0 0-.1 3.3l-.3.1c-1.7.8-3.5.9-5.4.3-.9-.2-1.7-.5-2.5-1 0-.2-.2-.2-.4-.3l.1-.4m-4.8-1.7 1.2 1.2.3.2c.2.1.3.2.5 0l.2-.6a14 14 0 0 1 .2-.7 23.4 23.4 0 0 1 5-9.1c.2-.4.6-.8 1-1a1 1 0 0 0 0-.1c.4-.3.3-.7 0-.8a5.5 5.5 0 0 0-.9-.2h-.8c-.7-.2-1.3-.2-2 0a7 7 0 0 0-4 2.5l-.1.2-.7 1c-.7 1.6-1 3.3-.9 5a4 4 0 0 0 1 2.4m.3-7 .6-1.2.2-.1a5.7 5.7 0 0 1 5.3-2.2l1 .3-.4.4a20.5 20.5 0 0 0-3.3 5c-.7 1.6-1.2 3.2-1.7 4.9l-.1.4v.2l-.1.2s-.2 0-.2-.2l-1-1.2c-.6-.8-1-1.7-1-2.6 0-1.4.2-2.7.7-4"/><path fill="#fff" d="M124.9 200.4c-.4.5-.5 1.1-.4 1.7.3 1 .8 1.6 1.6 2 .4.1.9.2 1.3 0l.2-.2.4.2.2.2.3.1c.6.3 1.5.3 2.2-.1.5-.3.7-.8.6-1.3-.1-.6-.5-1-1-1.2-.2 0-.3 0-.4-.2v-.3c.3-.6.2-1.1-.3-1.6a2.1 2.1 0 0 0-1.1-.5 1.5 1.5 0 0 0-.5 0 1 1 0 0 0-.1 0c-.2.1-.4.2-.6.5l.1.3h-.6a2.5 2.5 0 0 0-1-.2c-.4 0-.7.2-1 .6m.8 1.4v-.2a.4.4 0 0 1 .4 0c.4 0 .7 0 1 .3.2 0 .3.2.5.3l.3-.4-.4-.5-.6-.3c.3-.2.3-.1.4-.1.3 0 .5.2.7.4l.3.3h1.1v.3h-.3c-.4 0-.7 0-1 .4 0 0 0 .2-.2.3l-.4.4c0-.2-.2-.2-.2-.3-.2-.4-.5-.6-.8-.7l-.8-.2m-3.5-11a1.6 1.6 0 0 0-.6 2.2l.2.3c.7.7 1.5 1.2 2.4 1.4.5.2 1 .1 1.6 0 .2-.6.5-1.1 1.2-1.2l-.1-.4-.1-.5c0-.5 0-.9.5-1.1l.3-.2-.1-.6v-.6a2.7 2.7 0 0 0-1.1-.8 1.7 1.7 0 0 0-.6-.1c-.4 0-.7.2-.8.6v.8l-.1.5-.4-.1c-.2-.3-.5-.4-.8-.5-.5 0-1 0-1.5.2m1.6 2.1-.1-.2.2-.2.8-.1c.5 0 1 .1 1.3.4l.2.3-.1.2c-.7-.5-.9-.5-1.7-.4h-.6m12.4 13c-.4.7-.3 1.5.4 2.1.7.7 1.6 1 2.5.8l1-.2.5.1c.1.3.2.5.5.7l.6.3c.5.1 1 0 1.5-.2 0-.6 0-1.3.4-1.8-.6-.7-1-1.5-1-2.5-.5-.1-.8 0-1.1.2l-.6.6c0 .2-.2.3-.5.3l-.2-.4c-.5-.4-1-.5-1.6-.2-.2 0-.3.1-.4 0-.2-.1-.1-.3 0-.4.4-.3.9-.4 1.4-.3l.6.4.3.2.8-.9a3 3 0 0 0-.7-1l-.8-.7a.5.5 0 0 1 .5 0l.5.2c.4.4.7.7 1 1.4h.7l.4-.8.6-.9c0-.7-.3-1.5-.8-2.1a2 2 0 0 0-.8-.6.9.9 0 0 0-1 .1l-.4.5-.3.4-.5-.3a2.1 2.1 0 0 0-1.4-.2.8.8 0 0 0-.7.6v1.2l.6 1.2c0 .2.2.4 0 .7 0 .2-.2.2-.4.2-.8.1-1.2.6-1.6 1.3m20.3-1.3c-.2.7-.2 1.4.3 2 .3.2.3.3 0 .6-.2.4-.2.8.1 1.2.5.6 1.5 1 2.3.5a1 1 0 0 1 .1 0h.2l.3.3.5.3.6.1c.7.2 1.4.1 2-.3 1-.5 1.2-1.6.4-2.4-.1-.2-.3-.3-.2-.6l.3-.4c.3-.2.3-.5.1-.9-.3-1-1.7-1.8-2.7-1.7a3 3 0 0 0-.3 0h-.1a1.3 1.3 0 0 0-.7.4c0 .2.3.5 0 .7l-.3-.2a4.4 4.4 0 0 0-1.2-.5c-.8-.3-1.5.1-1.8 1m1.6 2.3v-.3l.4-.2a2 2 0 0 1 1.7.2l.2.1.3-.3a8 8 0 0 0-.8-.7l-.9-.6c.1-.2.3-.2.4-.1l.6.2c.3.3.7.6.9 1l.6-.4a.8.8 0 0 1 .6-.1c.2 0 .5.1.5.4v.1h-.2c-.5-.2-.6-.2-.9.2l-.7.9-.4.2-.2-.2c-.2-.3-.6-.4-1-.4h-.7c-.2.1-.3.2-.4 0m4.3-7.3v.1l1.5.8c.4.2.9.3 1.4.2l.4-.1c.3-.2.5-.5.4-.9l-.2-.4v-.3c0-.2.2-.3.3-.4.2-.2.5-.4.6-.8.1-.4 0-.7-.3-1l-.6-.3-.2-.1c-.4-.2-.4-.3-.3-.7l.3-.5v-.5c0-.3-.2-.6-.4-.8a1 1 0 0 0-1.3-.2 2 2 0 0 0-.8.7l-.1.7v.8h.2c.4 0 .7.3.8.7l.1.7v.3l.4.1c.3.1.5.4.6.7 0 .1.1.3 0 .4l-.2-.2c-.2-.4-.5-.6-.9-.5h-.5v-.5c.1-.3.2-.6 0-.9 0-.3-.2-.4-.6-.4l-.3 1.6c0 .6-.2 1.1-.3 1.7m-3.5 1v.2l1.3-.4v-.5l.3-2.2.4-3.3.2-2.3.4-5 .2-2.4.3-3 .2-4.6.3-4.7V170.2c-.5 1-1.3 1.3-2.2 1l-.1.4a43 43 0 0 1 0 4.5c-.2 2.8-.2 5.7-.3 8.5 0 2 0 4-.2 6l-.4 5.5-.4 4.4v.1m-4.2.2v1.4l1.6-.5.1-.6v-.2l.2-5 .2-3 .1-2.2.4-7v-3.4l.2-6V173l-1.2-.5-.6.9c0 2.1 0 4.2-.2 6.2a146 146 0 0 0-.3 8.1l-.2 6-.1 3.2-.2 3.9m-4.6 2.8v.4l2-.8v-.3l.2-6.3.1-3.3.2-3.3v-5.4q.2-2.8.2-5.7l.1-3 .1-1.1.1-.6c-.5.5-1 .7-1.7.7v1l-.2 5.6a305 305 0 0 1-.4 12.4l-.5 6.3-.2 3.4m-4.7-1v.2l.7.3.5-.1h.5v-.3c.5-1.4.8-2.8 1-4.3l.2-2.2.3-7.3.2-3.2.1-3.5.2-3 .2-3.6V174c-.4.4-1 .5-1.5.3v.1a950 950 0 0 0-.2 3l-.3 4a74 74 0 0 1-.4 4.8l-.3 3-.3 3.8v.6l-.4 4.5-.5 4.6M141 199v.6c.7-.2 1.3 0 1.8.5l.1-.3.3-2.5.3-3.6.3-3 .2-2.6.2-2.5.2-4 .4-7.6v-.4c-1.4-.5-1.7-1-1.6-2.2h-.3v1.3a775 775 0 0 0-.3 3.5l-.2 2.7-.4 4.7-.3 3.1-.2 4-.1 2-.1 3.3-.3 3m-4.8-.5v.8l1.2.8.9-.3v-.2l.1-4v-1.6c.2-3.3.2-6.7.3-10l.2-6 .1-2 .1-3.8V171h-.2l-1-.5c-.5-.3-.8-.6-.7-1.2v-.1l-.8-.4v1.6c.2 4.8 0 9.5 0 14.3V196.8l-.2 1.8m-6.7-32.8v.1l.5 5.4c.3 2 .4 4.1.5 6.2l.2 5 .2 2.9.2 2.5c0 1.3.2 2.5.3 3.7l.2 4.3v.6l2 1.3v-4.1l-.2-8.5a139 139 0 0 0-.4-6l-.5-5.4-.3-2.7-.2-2.3v-2l-.1-.1c-1 .1-1.7-.4-2.4-1m6.8.2c-.3.1-.5.4-.4.7 0 .9.4 1.5 1.2 2 .2 0 .5.1.6.4v.2a.6.6 0 0 0 .3.5c.4.3 1 .5 1.6.5.2 0 .5 0 .8-.3-.2-.4-.3-.9 0-1.3.2-.4.6-.6 1-.8v-1c-.4-.2-.6-.1-1 .2l-.3.5c-.3.1-.4 0-.6-.1-.5-.3-1-.4-1.6-.2h-.5c0-.3 0-.4.2-.5.7-.3 1.3-.4 2 0l.3.3.3-.3-.7-.8c-.2-.2-.6-.3-.8-.6.5-.1 1.2.3 1.9 1h.9c.2-.4.5-.8 1-1v-.1c-.2-.6-.6-1-1.2-1.2a.6.6 0 0 0-.5 0l-.4.2c-.3.2-.6.2-.9 0l-.4-.4a1.5 1.5 0 0 0-1.1-.3c-.4 0-.6.3-.7.6-.1.4 0 .8.1 1.2l.1.1c.2.3.2.3-.1.5h-.3a1 1 0 0 0-.8 0m-8.1-3.3-.2.2c.2.5.6.8 1 1.1l.2-.4c0-.7.5-1.2 1.2-1.3l.5-.2c.1-.4.2-.9.5-1.2l-.3-.8.2-.2c.6-.6.7-1 .2-1.6 0-.1.2-.2.3-.1l.3.3c.3.5.2 1-.1 1.5l-.1.1-.1.1v.2h.1a3.4 3.4 0 0 1 1.1-.3 2.2 2.2 0 0 1 1.6.3l.4.3c.4-.2.6-.7.5-1-.1-.7-.8-1.4-1.7-1.2h-.4c-.2 0-.2-.2-.2-.4l-.1-.4c-.2-.6-.7-.9-1.2-.8-1 .2-1.8.8-1.8 2v.3c0 .2 0 .4-.3.4h-.4a1.2 1.2 0 0 0-.9.1c-.3.2-.5.5-.3 1 .1.3.3.7.6 1l.2.3v.4l-.8.3"/><path fill="#F4EBDF" d="M126.4 194.3c-.2.4-.2.6 0 1 .5.5 1 .8 1.8.9.7 0 1.3-.2 2-.5.3-.2.5-.6.4-1v-1.9c-.4-.2-.8 0-1 .4l-.1.6v.3a.4.4 0 0 1-.4.3c-.4 0-.7-.4-1.2-.4h-.1l-.1.2-.1-.1v-.3l-.6.2-.6.3"/><path fill="#F4EBDF" d="M127.8 191.8c-.5 0-.7.3-.7.7v.3l.3.5.1.4c.3-.2.6-.2.8 0l.7.1.1-.2.1-.5c.2-.5.5-.7 1-.8h.4v-1.9c-.4-.5-.9-.9-1.5-1h-.2a2 2 0 0 0-.4 0c-.3 0-.5.2-.5.5 0 .4 0 .7.3 1a1.4 1.4 0 0 1 .2.4c.2.2 0 .5-.3.5h-.4m1.9-28.2c-.1.9.1 1.6 1 2l1 .5h.4l.2.4c.5.6 1 1 1.8 1 .4.2.8 0 1.2-.2l-.1-.6c0-.8.4-1.4 1.1-1.5h.5V164c0-.5.3-.8.8-1l.2-.1c-.4-.5-.8-.7-1.3-.5l-.4.2c-.2 0-.4 0-.5-.2a1 1 0 0 1 0-.2c-.3-.6-.7-1-1.2-1.3-.8-.6-1.7-.5-2.4 0-.2.3-.4.6-.4.9-.2.7-.2.7-.9.7-.6 0-1 .4-1 1m1.3.8-.1-.3.1-.2.6-.3c.6 0 1.1.1 1.7.5l.3.2.6-.6c-.3-.3-.6-.4-1-.5l-.3-.2-.2-.3h.7c.5.2 1 .5 1.3 1h.3c.3 0 .6.1.8.3v.3h-.2l-.5-.2c-.4 0-.7 0-.9.3l-.2.4-.2.2-.6-.2c-.6-.5-1.3-.8-2.2-.4"/><path fill="#D35454" d="m132.4 167.3.1 1.8.5 4.8.4 6.4.1 1.9.2 3 .2 3.7.2 3.7v5.5l1.7 1.1v-.2l.1-3 .2-7v-11.7l-.1-5.4v-3.3l-.6-.9-.3.2c-.4.3-1 .4-1.4.2a2.8 2.8 0 0 1-1-.5l-.3-.3"/><path fill="#F4EBDF" d="m133.7 156.2-.3.6.5 1 .8.1.9.5c.5 0 1 .1 1.3.7.2.2.3.5.2 1h-.2c-.2-.6-.4-1.1-1.1-1.3.1.4.2.8.1 1.1a1.6 1.6 0 0 1-.6 1l.9 1h.5v-.1c0-.3.2-.5.4-.6.3-.2.6-.2 1 0-.2-.9-.2-1.6.4-2.2a1 1 0 0 0-.8-1 2.6 2.6 0 0 0-.6-.1c-.6 0-.7-.2-.5-.8l.2-.4c.1-.5 0-.9-.4-1.2a1.5 1.5 0 0 0-1-.4 2.5 2.5 0 0 0-.4 0c-.6.2-1 .5-1.3 1"/><path fill="#fff" d="M138.2 155c-.5-.9-1.6-1-2.1-.2 1.3.7 1.4 1.5 1.1 2.5l1 .2-.3-.8v-1l.3-.8m-1 6.7s0 .2-.2.2c.7.2 1.1.6 1.4 1.2.6 0 1.1.5 1.6.9.2 0 .3-.2.5-.3l-.5-.7c-.2-.4-.3-.8 0-1.3 0-.3.2-.5.5-.7-.2-.2-.4-.2-.6-.2h-.7c0-.3.2-.3.3-.3.4 0 .8 0 1.2.2h.2l1 .1c.2-.3.4-.8.8-1v-.3a2.2 2.2 0 0 0-1-1.2c-.7-.3-1.3 0-1.4.7v.6h-.5a.7.7 0 0 0-.3-.3h-.6c-.2 0-.3.2-.4.4a1.7 1.7 0 0 0 0 1l.2.8c.1.2 0 .2-.2.4l-.4-.2a1 1 0 0 0-.9 0"/><path fill="#fff" d="m138.4 155.9.1.8.4-.3c.4-.3.7-.4 1.1 0 .2 0 .3.2.5.4.4-.1.9 0 1.3.3 0 0 .2 0 .2.3l-.3-.1c-.3-.1-.6-.3-.9-.2l-.4.2c-.2 0-.2 0-.3-.2a1.4 1.4 0 0 0-.6-.6c-.4 0-.6.3-.9.6.2.6.6 1 .7 1.7h.4l.2-.3c.2-.7 1-1.2 1.8-.7.3.1.6.4.9.7l.2.3V158c0-.7.4-1.1 1-1.3l.4-.2-.3-.3a2.2 2.2 0 0 0-.8-.6c-.3-.1-.6 0-.8.2l-.3.3-.4.3-.1-.2v-.2c-.1-.7-.6-1.1-1.2-1.3a1.9 1.9 0 0 0-.7 0 1.8 1.8 0 0 0-.6.3c-.4.2-.6.6-.6 1"/><path fill="#D35454" d="M138.7 198.7v1.3c.5 0 1 .2 1.4.6l.4-.5.2-1.7.2-4.5.3-4.3.2-2.8v-.6l.4-4v-2.4l.3-4.3.5-3.7v-.4c-.7-.1-1.3-.4-1.8-1l-1.2.6v.8l-.1 5.9-.2 4-.2 4.3a1550 1550 0 0 0-.3 9l-.1 3.7"/><path fill="#fff" d="M140.6 161.4c-.2.3-.2.6-.1 1l.1.4.4.6c1 .2 1.7.8 2 1.8h.4q.6 0 1.1.2c.8.4 1.2 1 1.2 2v.1h1.1l-.2-.6.2-.7-.2-.4c-.2-.3-.4-.7-.4-1.2 0-.4 0-.7.3-1a.6.6 0 0 0 .2-.2c.3-.7.2-1.3-.2-1.9a1 1 0 0 0-1-.4h-.7v-.4c0-.6-.5-1-1.1-.9a2.6 2.6 0 0 0-.4.1 1 1 0 0 0-.8 1v.3c0 .1 0 .3-.3.3l-.4-.2a1 1 0 0 0-1.2.1m1.8 1 .1-.4c.3-.2.6-.4 1-.4.7 0 1 .3 1.1 1v.2c.5.2.7.4.9.6a1 1 0 0 1-.4 1.5h-.4c0-.4.4-.6.4-1-.1-.2-.3-.4-.6-.5h-.2c-.2-.2-.3-.3-.3-.6l.1-.1c.1-.4 0-.7-.4-.8a.8.8 0 0 0-.8.3l-.3.3zm-1.8-9.1a2.6 2.6 0 0 0 0 1c.5.3.9.6 1.1 1.2l.2-.2c.4-.5.8-.6 1.4-.4l.8.5.2.1c.3-.7.7-1.2 1.5-1.3-.1-.6-.3-1-.8-1.3a2 2 0 0 0-.3-.2c-.4-.2-.7-.2-1 .1a3.3 3.3 0 0 0-.3.4c-.2.3-.7.3-.8-.1 0-.2-.1-.5-.3-.6a1.2 1.2 0 0 0-1 0c-.3.1-.6.4-.7.8"/><path fill="#F4EBDF" d="M141.7 168.4c-.8.3-1 .8-.5 1.5a2.1 2.1 0 0 0 1.1.8l1 .2c.1 0 .3 0 .5.2v.3c0 .6.3 1 .8 1.2.4.3 1.1.3 1.6 0l-.1-.6c-.1-.5 0-1 .1-1.6.2-.6.6-1 1.1-1l.7-.2v-.6c-.3-.3-.7-.5-1.1-.5a3.3 3.3 0 0 0-1.5.2c-.4.1-.6 0-.5-.4l.1-.3c.3-1-.2-1.6-.8-1.8a2 2 0 0 0-1.4 0 1 1 0 0 0-.8 1l.1.9v.5l-.4.2m.4 1 .1-.2h.4c.5 0 1 0 1.6.4l.2-.1-.3-.5-.4-.4c-.1-.1-.3-.2-.4-.5l.3.1 1.1 1c.3 0 .7-.2 1 0 .3 0 .6.1.8.5h-.1c-1-.5-1.4-.3-2 .5h-.5a3 3 0 0 0-1.5-.7h-.3m1 35c0 .7 0 1.4.5 2l.2.3h.1v-.2l.1-.2c.5-.4 1-.5 1.5-.3.5.1 1 .4 1.3.7l.3.4c0-.3.2-.5.3-.7l-.6-.7c-.4-.3-.8-.8-1.4-.8v-.3l.8.1 1.2 1 .3.3c.2-.2.4-.4.7-.3.3 0 .6.2.7.5h.3c.3-.6.2-1 0-1.5a3.2 3.2 0 0 0-.6-.8 2 2 0 0 0-1.3-.6 10 10 0 0 0-.9 0h-.2a.7.7 0 0 0-.5.2l-1.2-.3c-.9-.1-1.4.3-1.6 1.2"/><path fill="#D35454" d="M143.3 199.8v1c.3.7.4.7.5 1.9h1l.2-1.3.5-3.8.3-3.6v-.5c.2-1.2.2-2.5.3-3.7l.3-5.4.2-2.4.3-4.8.2-3.2-.6-.7-1.3.4V176.4l-.1 3c0 1-.2 1.9-.3 2.8l-.3 4.3-.2 1.7q0 1.6-.2 3l-.2 2.5a221 221 0 0 1-.3 3.3c0 1-.1 1.9-.3 2.8"/><path fill="#F4EBDF" d="M143.5 157.8v.6l.2 1h.2c.8 0 1.2.4 1.3 1.2h.3c1 0 1.6.7 1.8 1.6v1l-.1.1.6.1v-1c0-.5.2-.9.7-1.4l-.4-.7-.3-.8c-.5 0-.8.5-1.2.6-.2 0-.2-.1-.3-.2-.2-.6-.7-.8-1.2-1l-.4-.1c0-.2.1-.2.3-.2.5 0 .9.2 1.3.5l.3.4 1.2-.4.3-1.3c-.3-.4-.6-.8-1.1-1-.3.1-.4.2-.5.4l-.3.4-.3.3c-.4-.2-.4-.2-.5-.6a1.4 1.4 0 0 0-1.2-.4c-.5.1-.7.4-.7.9m.5 50.2c-.4.4-.4 1-.3 1.5.2.6.7 1.1 1.2 1.5.5.2 1 .2 1.4-.2l.3-.2h.2l.6.2h.5c.7 0 1.2-.2 1.8-.5l.8-1c.2-.7-.1-1.7-.8-2l-.1-.1c-.3-.2-.4-.3-.3-.6v-.2l-.2-.1-.1.1h-.2c-.4-.4-.7-.3-1 .1l-.2.7-.3.7v.1h-.4l-.2-.4a2.4 2.4 0 0 0-1-.8 1.7 1.7 0 0 0-1.5 0h-.3q0 .2.2.3c.2.4.2.6 0 .9m.6-51.8v.2l1.2.5.2-.3q.4-.3.8-.3v-.3c-.2 0-.3 0-.2-.2a.9.9 0 0 1 .2-.3c.3-.3.7-.4 1.2-.2l.1-.3c.2-.5.5-.6 1-.5l.4.2.5-.6a2 2 0 0 0-.6-1.2c-.4-.4-.8-.4-1.2-.1h-.2c-.2 0-.3 0-.4-.2-.1-.4-.5-.6-.8-.6a1 1 0 0 0-.2 0c-.4 0-.6.3-.6.7 0 .5 0 .9.3 1.3l.2.4c0 .2-.2.3-.4.4h-.2c-.5 0-.8.3-1 .7 0 .4 0 .4-.3.7"/><path fill="#fff" d="M146.6 170.5c-.2.7-.2 1.4.3 2 0 .3.2.5.3.6.4.5 1 .6 1.6.3l.3-.1c.3 0 .4.1.5.2l1.3.7c.5.2 1 .1 1.5-.2.3-.3.5-.6.5-1l-.3-.3c-.5-.6-.8-1.3-.9-2l.1-.9c.1-.3.2-.4.7-.7l-.2-.3-.3-1a1 1 0 0 0-.4-.8 2.3 2.3 0 0 0-1.1-.6c-.6 0-1 .1-1.4.5-.3.4-.5 1-.5 1.5v.7c0 .4-.2.6-.6.6h-.4c-.5 0-.8.3-1 .8m1.8 1.7c-.2 0-.3-.3-.1-.4a.5.5 0 0 1 .1-.1c.4-.3.9-.4 1.4-.3h.2l-.1-.4c-.4-.2-.8-.4-1.2-.3h-.2v-.2a.6.6 0 0 1 .3-.2h.6l.4.1.1-.5.2-.5a.7.7 0 0 1 .5-.3c.3 0 .5 0 .8.2h-.1l-.3.1c-.4 0-.6.1-.6.5v.7l.2 1.1c0 .2.2.3 0 .5-.1.1-.3 0-.4 0a1.9 1.9 0 0 0-1 0h-.8"/><path fill="#F4EBDF" d="m146.8 156 .1.3.6.2c.3 0 .5.3.7.5l.2.3.6-.4.5-.2a3 3 0 0 1 0-1.6c-.2-.1-.5-.3-.7-.2-.3.2-.1.7-.4.9-.3-.1-.5-.4-.9-.3l-.7.5"/><path fill="#fff" d="M147 164.1c-.3.4-.2.7-.1 1l.4.7.2.6-.3.4v.2c.2.4.4.7.8 1v-.3c.2-.7.6-1.3 1.2-1.7l.4-1-.4-.6.1-.2c.4 0 .6.4.8.6h.6l.3-.3a1 1 0 0 1 1-.1c.2 0 .2.1.3.2h-.6a.8.8 0 0 0-.5.3l-.1.4c-.1.1-.3 0-.4 0a.8.8 0 0 0-.8.2v.2c.8-.1 1.5.2 2.2.8l.5-.9.7-.8c0-.6-.2-1.2-.6-1.6-.2-.3-.4-.3-.7-.1-.2 0-.4.2-.5.3-.3 0-.4 0-.5-.3l-.1-.3c-.2-.5-.5-1-1-1.2a1.1 1.1 0 0 0-.6-.2 1 1 0 0 0-.9.7V163.9c0 .1 0 .2-.2.3-.4-.2-.9-.3-1.3 0"/><path fill="#D35454" d="M147.8 202.6v.3l.9.4.8.6v-.2l.3-5c0-1.4.2-2.8.3-4.1 0-1.5.2-3 .3-4.4l.1-3 .1-4.3v-4l.1-3.2.1-.9-1.3-.8v1.7a36 36 0 0 1-.2 3.6 32 32 0 0 0 0 4.5 38 38 0 0 1 0 4.2 76 76 0 0 1-.4 4.6l-.2 2-.2 3.4a28 28 0 0 1-.3 2.3l-.4 2.3"/><path fill="#fff" d="m148.5 158.5.1.8.2-.3c.8-1 2.2-.6 2.5.5l.4.2c.4.2.8.5 1 1 .2.2.2.6 0 .9 0 0 0 .2-.2.1.2-.8-.2-1.4-1-1.8l-.4.1c-.2 0-.3-.2-.3-.3l-.2-.4a1 1 0 0 0-1.5-.2 1.5 1.5 0 0 0-.4.7l.5 1a2.3 2.3 0 0 1 1.5.5c.4.4.7.8.9 1.4l.3-.2c.4-.1.8 0 1 .2.3.2.5.5.6.8l.3 1 1.3-.2v-.1a6 6 0 0 1-.8-1.6 3 3 0 0 1 .1-2.6.7.7 0 0 0 .1-.5 1.6 1.6 0 0 0-.5-.9.8.8 0 0 0-.8-.1l-.7.2h-.5l-.2-.2v-.2c-.2-.7-.6-1.1-1.2-1.3a2 2 0 0 0-1.2.2l-.2.1c-.4.3-.6.7-.7 1.2"/><path fill="#fff" d="M150.2 155c-.2.5-.2 1 0 1.6h.5l.8.4c.4.3.7.7.8 1.1l.8-.2-.1-.6a3.4 3.4 0 0 0-1-1.1l-.2-.2.1-.2c.4 0 .8.4 1.1.8l.5-.2v-.7a1.2 1.2 0 0 0 .1-.3c0-.3-.2-.6-.4-.8a2 2 0 0 0-1.6-.5c-.5 0-.9.1-1.2.5a1 1 0 0 0-.2.4"/><path fill="#fff" d="m150.4 152.3-.4.3.7 1.2h.2a3 3 0 0 1 1.6 0c.5.1.9.4 1.2.8l.2.7v.8h.2c.1-.3.1-.7.5-1l.9-.5a.9.9 0 0 0 0-.5 1.3 1.3 0 0 0-.1-.3c-.2-.5-.6-.7-1.2-.7l-.7.1c-.2 0-.3-.1-.4-.3a2 2 0 0 1 0-.3c0-.3-.2-.6-.5-.7a2 2 0 0 0-1.6 0 1.4 1.4 0 0 0-.6.4m1.6 18c0 .4 0 .8.3 1.2.3.5.7 1 1.3 1.2l.5.2c.5.1.9 0 1.2-.3 0-.2.2-.3.3-.4.2-.3.3-.3.6-.2l.7.2.6.2c1 .2 1.8-.5 1.7-1.6l-1-1h-.3l.1.3-.2.2-.3-.1c-.4-.4-.9-.4-1.4-.1a14 14 0 0 1-.5.3h-.5l-.2-.3a2 2 0 0 0-1-1.1l-.3-.2c-.1 0-.2 0-.2-.2l-.4.1c.1.2.2.4 0 .7l-.3.1c-.5.1-.7.4-.7.8"/><path fill="#D35454" d="M152.3 202.2v.9l1.9-.8v-7l.2-3.3.2-4.7c0-2.2 0-4.5.2-6.8l.1-5 .1-1.5v-.4c-.6.1-1 0-1.6-.3l-.1.9-.3 6-.1 7.6c0 2.3-.2 4.6-.3 6.8l-.2 5-.1 2.6"/><path fill="#fff" d="M153.1 166a2 2 0 0 0-.4 1.9l.3.8h.4l.4-.2c.7.2 1.2.7 1.6 1.3l1-.4a1.2 1.2 0 0 0-.2-1c-.2-.3-.4-.7-.8-.9-.1 0-.2-.1-.1-.3.1-.1.3 0 .4 0 .7.6 1.3 1.1 1.2 2v.1l1 .5h.3c-.4-.6-.6-1.3-.5-2.2a4.8 4.8 0 0 0-.8-1.6c-.5-.6-1.1-1-2-1a1.6 1.6 0 0 0-1 .4l-.8.7m.4-9.7-.5.2c.3.3.5.8.5 1.2l.7.3.5.5.3.7.7-.4c.1-.5 0-1-.1-1.3-.2-.4-.5-.6-.8-.7l-.8-.2-.5-.3"/><path fill="#F4EBDF" d="M155.7 159.4c-.9.6-1.2 1.4-1 2.4l.2.6.6 1.2v.1l.4.7a3.3 3.3 0 0 1 1.4 1c.4.5.7 1 .8 1.6l.7-.4-.2-.2a3.8 3.8 0 0 1-.5-1.6c0-1 .3-1.8 1-2.4l.7-.4-.2-.2a1.9 1.9 0 0 0-.8-.2c-.5 0-.7.1-.8.6l-.1.3c-.3.2-.6-.2-1 0s-.4.8-.7 1h-.3c0-.7.2-1 .8-1.5a1.8 1.8 0 0 0-.8-.7l-.2-.3c.5-.2 1 .2 1.4 1l.5.2.1-.3c.1-.5.4-.7.8-.7.5 0 1 0 1.4.3l.3.2v-.2c0-.3 0-.7-.2-1a1.2 1.2 0 0 0-.5-.5c-.3-.1-.6-.1-.8 0l-.5.5c-.3.3-.6.2-.7-.2v-.3a1 1 0 0 0-1-.8 1.3 1.3 0 0 0-.8.2"/><path fill="#fff" d="M155.2 155.6c-.2.1-.4.3-.4.6l.7.3c.3-.3.5-.5 1-.4.2.1.5.2.7.6h-.5c-.3-.2-.6-.2-.9 0 .4.6.7 1.3.5 2 .8 0 1.4.3 1.7 1 .4-.2.7-.4 1-.4a1 1 0 0 0 .2-.9c-.1-.3-.3-.5-.7-.6a27 27 0 0 0-.7 0c-.1 0-.3 0-.4-.2v-.5l.2-.6c0-.4-.1-.8-.4-1-.4-.3-.7-.4-1.1-.4-.4 0-.7.3-1 .5"/><path fill="#D35454" d="M156.5 201.3v.2a9 9 0 0 0 1.9-.6v-.4l.3-5.4.3-3.6c.3-3.6.3-7.3.3-11l.2-4 .1-4v-.3l-.5.5a2 2 0 0 1-.6.3l-.7.1v.4l-.1 5.2-.2 3.7-.3 6.5-.1 2.5-.2 4.3-.1 1.8-.3 3.5v.1z"/><path fill="#fff" d="M158.8 167.3c-.5.2-.7.7-.5 1.2l.3.7c.4.5.9 1 1.5 1.2.7.3 1.2.2 1.6-.5.2-.3.5-.4.9-.4h.7l.9-.3c.4-.2.6-.6.5-1.1-.1-.5-.3-.8-.6-1.2l-.3-.2c-.1-.2-.2-.3-.1-.6l.2-.2c.3-.2.4-.5.3-1a2 2 0 0 0-.6-.9 3.2 3.2 0 0 0-1-.7h-1c0 .2 0 .5-.3.5v-.2l-.4-.7c0-.2-.3-.3-.5-.3-.4 0-.8.2-1 .6-.5.6-.7 1.3-.4 2.1 0 .3.2.7.4 1l.1.3c0 .3 0 .5-.3.5l-.4.2m1.2-2-.2-.1c.2-.1.3-.2.4-.1l.4.2c.5.4.9 1 1 1.5v.3h.8v-.3a2 2 0 0 0-.3-1c0-.1-.2-.3-.1-.5.6.3.8.8.8 1.8l.4.3.5.4c.1.2 0 .4-.1.5h-.2v-.3l-.1-.1c-.5-.4-1.1-.7-1.9-.1-.2.1-.3.1-.4 0v-.4a.8.8 0 0 0 0-.7 6 6 0 0 0-.3-.8l-.7-.6"/><path fill="#D35454" d="M160.3 200v.1c.3 0 .8-.3 1-.5a1.8 1.8 0 0 0 .2-.5c0-.4.2-.7.3-1.1l.1-.3.5-2.8.3-2.1.3-2.8.3-3.6.1-1.7.3-7 .2-2.9.3-4v-.9l-1.4.2v.4a28 28 0 0 1-.2 3.5v.7l-.3 5c0 .8 0 1.8-.2 2.7l-.1 2.6-.3 3.3-.2 2.6-.6 4.3-.4 3.3-.2 1.4"/><path fill="#F4EBDF" d="m163.2 192.8-.1.7c.4-.2.8-.4 1.3-.4s.9.4 1.2.7c.2 0 .3-.1.5-.3-.4-.4-.7-.8-1.3-1 0-.2.1-.3.3-.2l.4.1.7.7.2.3h.7l.7.4a.6.6 0 0 1 .3.4l-.1.2c-.7-.5-1.4-.7-2.1-.2v1.6l1 .7 1-.4c.2 0 .4-.2.6-.4.8-.7.8-1.6.6-2.3a3 3 0 0 0 0-.3 2 2 0 0 0-.2-.2 1.9 1.9 0 0 0-1.1-1 1.4 1.4 0 0 0-1 .1l-.2.1q-.4.1-.6-.3v-.3a1.8 1.8 0 0 0-.7-1 .8.8 0 0 0-.9-.1l-.5.3-.5.4-.1.7z"/><path fill="#C35238" fill-opacity=".2" d="m157.4 167.1.3-2.1c0-.7 0-1.6-.3-2.3-.3-.5.5-1 .8-.4.5.8.6 1.8.6 2.7 0 .8.1 2-.5 2.6-.4.4-1 0-.9-.5m-2.1-4.3c.2 1-.2 2-1.2 2.5s-1.8-.9-.9-1.5c.7-.5-.1-1.7-.6-2.1-.3-.3-.3-1 0-1.2.9-.8 1.7-1.8 1.4-3-.3-.9 1-1.2 1.4-.4.5 1.2.1 3.2-1 4.2.4.4.7 1 .9 1.5"/><path fill="#C35238" fill-opacity=".2" d="M152 165.5a1.8 1.8 0 0 1-2.6.2c-.3-.3-.1-.8.3-1a4.5 4.5 0 0 1 1-.2h.1l.1-.2.1-.2v-.9c-.3-.9 1.1-1.3 1.3-.3.3.8.4 1.9-.2 2.6m-5.7-1.6.2.7c.1.6.2 1.3-.1 1.9a1.7 1.7 0 0 1-.8.7c.6 1.2 1.2 2.9.4 4-.3.3-.9.4-1.2 0-.3-.6-.3-1.3-.3-1.9 0-.7-.1-1.3-.5-2a.7.7 0 0 1 .2-.8 1 1 0 0 1 0-.6l.5-.4v-.1l-.1-1.1a7.8 7.8 0 0 0-1-2.2c-.4-.9.9-1.6 1.4-.8l.7 1.3c.4-.4.9-.6 1.1-1 .2-.4.2-1 .1-1.3l-.3-2.7a.8.8 0 0 1-.1-.9c.4-.8.8-1.5.8-2.4 0-1 1.4-1 1.4 0 0 1.1-.3 2.2-.8 3.2 0 1.2.9 2.4 1 3.6 0 1.3-1.1 3-2.6 2.8"/><path fill="#C35238" fill-opacity=".2" d="M163 199.1a1 1 0 0 1-.6-.8 20 20 0 0 1 0-1v.1c-.7 2.8-2.9 4.4-5.5 5.4l-2.6.7-.6.1a16 16 0 0 1-5 .1c-.8-.1-1.5-1-1.5-1.9.1-1.3.8-2.5 1.3-3.7a98 98 0 0 0 1.6-3.7 273.7 273.7 0 0 0 7.3-20.3 3 3 0 0 0-.3.1l-1.6.9a5.5 5.5 0 0 1-2.2.5 7 7 0 0 1-1 0l-.6-.2H151.1s.3-.1 0 0-.2 0-.5.3c-.7.4-1.2.8-2 1-1.3.4-2.6.1-4-.2a9.3 9.3 0 0 1-3.5-1.4c-1-.7-2-2-2.8-2.6-1.2-.8-2.4-1.5-3.7-2.1-1.3-.7-2.9-1.2-4-2-1-.7-1.4-1.7-1-2.7.4-1 1.6-1.7 2.6-1.3l3.6 1.7 3.3 1.7.8.6a1 1 0 0 1 0-.1c0-.7.5-1.3.5-2 0-.6-.3-1.4-1-1.8-.3-.2-.2-.7 0-.9a1 1 0 0 1-.2-.9c.2-1.4.8-2.9 2-3.7.3-.2.6-.3.8-.6l.1-1.2c.2-.9.7-1.6 1-2.4.3-.6 1.4-.2 1.2.5-.3.8-.8 1.6-.8 2.4 0 .8 0 1.4-.5 2-.4.6-1 .9-1.3 1.4l-.7 2.1a1 1 0 0 1-.5.6 3.6 3.6 0 0 1 1.4 2.2c.2 1 .1 2.7-1 3h-.1l1.4 1.2 1.2 1.2.3.3.1.1.3.1.2.2 1.5.4 1 .2h1c.6-.5 1.2-1 2-1.1l.8-.2a10 10 0 0 1-.3-1.8c0-.6.3-1.6 0-2.2-.2-.6.5-1.2.9-.7.5.6.5 1.3.6 2.1.1 1 .4 1.9.7 2.8l.6.1c.6 0 .8 0 1.3-.2l1.5-.6c-.6-1.4 0-3.3-1-4.6-.6-.7.3-1.7 1-1 .6.7 1 1.6 1.2 2.5.2.8.5 1.8.5 2.7h1c.2-1 1-1.4 1.6-1.4 0-1.2 0-2.4-.2-3.7-.2-.8 1.1-1.2 1.3-.3.3 1.5.6 3 .2 4.6v.1l.6-.2c.3-.7 1.1-1 1.8-.4.8.8.8 2.2.7 3.2l-.3 1.9v.4l-.1 1.5c-.2 1.9-.5 3.7-.6 5.6a530 530 0 0 0-.3 5.8l-.4 5.1.1-.7c.3-.9 1.6-.9 1.9 0a12 12 0 0 1-.2 7.8c-.4 1-1.9.3-1.8-.7m-4.2-5.1a45 45 0 0 1-1.2 4.1l.3-.2a5 5 0 0 0 .3-.4l.3-.4s0 .1 0 0l.2-.6c.3-1 .3-2 .4-3a8 8 0 0 1-.3.5"/><path fill="#C35238" fill-opacity=".2" d="M136.4 162.8c-.4-.3-.5-.8-.1-1.2l.7-.6c.3-.3.4-.8.4-1.2v-2.5c0-1 1.5-1 1.5 0 0 1.1.2 2.3 0 3.5-.1 1-1.2 3-2.5 2m22.7 43.6-1 .2a.7.7 0 0 1-.6-1.1c.6-1.2 2.4-.8 3.3-.1a.6.6 0 0 1 .2.3 6.8 6.8 0 0 1 1.6 0c.8.2.5 1.2-.2 1.3a5 5 0 0 0-1.2.3l-.5.2v.1c0 1-1.5 1.3-1.8.3-.1-.7 0-1.2.4-1.5a.7.7 0 0 0-.2 0m-11.2-1.1c1.5 0 2 2 1.7 3-.4 1.4-1.9 2.6-3.3 2.2-.7-.2-1-1.4-.2-1.7l.3-.2a.6.6 0 0 1-.2-.1c-.5-.5-1-.6-1.6-.8-.9-.2-.7-1.5.2-1.6 1.1 0 1.9.7 2.4 1.5.2.2.2.5 0 .6.3 0 .4-.2.5-.5.4-.7-.2-1-.4-1.7a.6.6 0 0 1 .6-.7m-9.5 1.4c.2-.5.7-.7 1.2-.6a8 8 0 0 1 3.3 1.3c.6.5 0 1.7-.7 1.2-1-.7-2.3-.2-3.4-.7-.4-.2-.6-.8-.4-1.2m3.3-1.5c-.8-.5-1.7-.7-2.6-.8-1-.2-.7-1.7.2-1.7a5 5 0 0 1 3.2 1c.9.7 0 2.1-.8 1.5m-15.4-2.9c0-.3.2-.5.4-.6 1-.4 2 .5 3 .2s1.5 1.3.4 1.7c-1.2.4-3.6.3-3.8-1.3m4.2-10.8c-.2 1.4 1 4-1 4.8-.4.1-1-.3-.9-.8 0-.6.3-1.2.4-2v-2c.2-.9 1.6-1 1.5 0m-3.8 2.3c-.2.4-.4.8-.8 1.2-.5.5-1.7 0-1.4-.9.3-.7.6-1.5 1.1-2.2.3-.4.8-.6 1.2-.3.4.2.6.8.4 1.2a6 6 0 0 0-.5 1"/><path fill="#874636" d="M126 193.2c-.7-.5-.9-.5-1.7-.4h-.6l-.1-.2c.1-.2.1-.2.3-.2l.7-.1c.5 0 1 .1 1.3.4l.2.3zm3 8.7c-.4 0-.7 0-1 .4 0 0 0 .2-.2.3l-.4.4c0-.2-.2-.2-.2-.3-.2-.4-.5-.6-.8-.7l-.8-.2v-.2a.4.4 0 0 1 .4 0c.4 0 .7 0 1 .3.2 0 .3.2.5.3l.3-.4-.4-.5-.6-.3c.3-.2.3-.1.4-.1.3 0 .5.2.7.4l.3.3h1.1v.3h-.3"/><path fill="#874636" d="M131.8 203.2c0 .7-.4 1.4-1.1 1.7-.9.4-1.7.3-2.6-.2a5 5 0 0 1-.3-.1v-.1h-.1a.3.3 0 0 0-.1 0c-.4.5-1 .5-1.5.4a2.8 2.8 0 0 1-1.7-1.4l-.5-1.3c-.1-.8 0-1.5.5-2.2.4-.5.9-.8 1.5-.7l1 .2c.3-.3.6-.4 1-.5.5-.2 1-.1 1.4.1.9.4 1.3 1.1 1.2 2.2h.1c.9.4 1.2 1 1.2 1.9m-1.5-1.4c-.2 0-.3 0-.4-.2v-.3c.3-.6.2-1.1-.3-1.6a2.1 2.1 0 0 0-1.1-.5 1.5 1.5 0 0 0-.5 0 1 1 0 0 0-.1 0c-.2.1-.4.2-.6.5l.1.3h-.6a2.5 2.5 0 0 0-1-.2c-.4 0-.7.2-1 .6-.3.5-.4 1.1-.3 1.7.3 1 .8 1.6 1.6 2 .4.1.9.2 1.3 0l.3-.2.3.2.2.2.3.1c.6.3 1.5.3 2.2-.1.4-.3.7-.8.6-1.3-.1-.6-.5-1-1-1.2m4-37.4c-.2.1-.2.2-.3.4l-.2.2-.6-.2c-.6-.5-1.3-.8-2.2-.4l-.1-.3.1-.2.6-.3c.6 0 1.2.1 1.7.5l.3.2.6-.6c-.3-.3-.6-.4-1-.5l-.3-.2-.2-.3h.7c.5.2 1 .5 1.3 1h.3c.3 0 .6.1.8.3v.3h-.2l-.5-.2c-.4 0-.7 0-.9.3m7.8-7zm3.7 11.7c.3.1.6.2.8.6h-.1c-1-.5-1.4-.3-2 .5h-.5a3 3 0 0 0-1.5-.7h-.3l.1-.3h.4c.5 0 1 0 1.6.4l.2-.1-.3-.5-.4-.4c-.1-.1-.3-.2-.4-.5l.3.1 1.1 1c.3 0 .7-.2 1 0m-1-6.7v.3l.8.6a1 1 0 0 1-.4 1.5h-.4c0-.4.4-.6.4-1-.1-.2-.3-.4-.6-.5h-.2c-.2-.2-.3-.3-.3-.6l.1-.1c.1-.4 0-.7-.4-.8a.8.8 0 0 0-.8.3l-.3.3-.2-.1a.4.4 0 0 1 .1-.4c.3-.2.6-.4 1-.4.7 0 1 .3 1.1 1m-.8 44 .2-.2c.5-.4 1-.5 1.5-.3.5.1 1 .4 1.3.7l.3.4.3-.7-.6-.7c-.4-.3-.8-.8-1.4-.8v-.3l.8.1 1.2 1 .3.3c.2-.2.4-.4.7-.3.3 0 .6.2.7.5l-.1.1h-.2c-.4-.4-.7-.3-1 .1l-.2.7-.3.7v.1h-.4l-.2-.4a2.4 2.4 0 0 0-1-.8 1.7 1.7 0 0 0-1.5 0h-.3zm7.5-37.2h-.3c-.4 0-.6.1-.6.5v.7l.2 1.1c0 .2.2.3 0 .5-.1.1-.3 0-.4 0a1.9 1.9 0 0 0-1 0h-.8c-.2 0-.3-.3-.1-.4a.5.5 0 0 1 .1-.1c.4-.3.9-.4 1.4-.3h.2l-.1-.4c-.4-.2-.8-.4-1.2-.3h-.2v-.2a.5.5 0 0 1 .3-.2h.6l.4.1.1-.5.2-.5a.7.7 0 0 1 .5-.3c.3 0 .5 0 .8.2h-.1m6.4 1-.1-.1c-.5-.4-1-.4-1.5-.1a14 14 0 0 1-.5.3h-.5l-.2-.3a2 2 0 0 0-1-1.1l-.3-.2c-.1 0-.2 0-.2-.2.2-.1.2-.1.4 0 .7.1 1.2.6 1.6 1.2l1-.4a1.2 1.2 0 0 0-.2-1c-.2-.3-.4-.7-.8-.9-.1 0-.2-.1-.1-.3.1-.1.3 0 .4 0 .7.6 1.3 1.1 1.2 2v.1l1 .5.1.3-.2.2m4.4 36c-.5-.3-.6-.3-.9 0l-.7 1-.4.2-.2-.2c-.2-.3-.6-.4-1-.4h-.7c-.2.1-.3.2-.4 0v-.3l.4-.2a2 2 0 0 1 1.7.2l.2.1.3-.3a8 8 0 0 0-.8-.7l-.9-.6c.1-.2.3-.2.4-.1l.6.2c.3.3.7.6.9 1l.6-.4a.8.8 0 0 1 .6-.1c.2 0 .5.1.5.4v.1h-.2"/><path fill="#874636" d="M163.7 209.5a2.5 2.5 0 0 1-.9.5c-1 .3-2 .2-3-.4a4 4 0 0 1-.3-.3h-.2l-.6.2c-.9.2-1.9-.2-2.4-1a1.6 1.6 0 0 1-.2-1.4v-.3c-.2-.3-.4-.6-.4-1a8 8 0 0 1 0-1c0-1.2 1.4-2.5 3-1.7l.7.4a2.6 2.6 0 0 1 .9-.6 2.2 2.2 0 0 1 1 0c1 .1 1.9.7 2.5 1.5l.2.3c.2.4.2.8 0 1.2l-.3.3.4.6a2 2 0 0 1-.4 2.7m-.7-3.3.3-.4c.3-.2.3-.5.1-.9-.3-1-1.7-1.8-2.7-1.7a3 3 0 0 0-.3 0h-.1a1.3 1.3 0 0 0-.7.4c0 .2.3.5 0 .7l-.3-.2a4.3 4.3 0 0 0-1.2-.5c-.8-.3-1.5.1-1.8 1-.1.6 0 1.3.4 1.8.3.3.3.4 0 .7-.2.4-.2.8.1 1.2.5.6 1.5 1 2.3.5a1 1 0 0 1 .1 0h.2l.3.3.5.3.6.1c.7.2 1.4.1 2-.3 1-.5 1.2-1.6.4-2.4-.1-.2-.3-.3-.2-.6m.6-37.9h-.2v-.3l-.1-.1c-.5-.4-1.1-.7-1.9-.1-.2.1-.3.1-.4 0v-.4a.8.8 0 0 0 0-.7 6 6 0 0 0-.3-.8l-.7-.6-.2-.1c.2-.1.3-.2.4-.1l.4.2c.5.4.9 1 1 1.5v.3h.8v-.3c0-.4 0-.7-.3-1 0-.1-.2-.3-.1-.5.6.3.8.8.8 1.8l.4.3.5.4c.1.2 0 .4-.1.5"/><path fill="#874636" d="M167.2 197.1c.2.9-.1 1.5-.8 2h-.2v.3l.1.3c.2.5 0 .9-.3 1.2a1.6 1.6 0 0 1-.9.4 2.6 2.6 0 0 1-1.6-.2l-1.4-.8-.3-.2-.2.2c-.4.2-.8.5-1.3.6l-2.6 1-3.7 1.4-3.7 1.5-.2.1a2.4 2.4 0 0 1-.1 1.8l.3.2c.5.5.8 1 .8 1.8s-.4 1.4-1 1.9c-.9.6-1.7.8-2.7.7a4 4 0 0 1-.4 0l-.2-.1c-.1.2-.3.4-.6.5a1.7 1.7 0 0 1-1.6 0 3 3 0 0 1-1.2-1.4l-.2-.3c-.4.3-1 .3-1.4.3-.7 0-1.1-.3-1.5-.7l-.3-.3h-.3a4.5 4.5 0 0 1-1.7 0c-.8 0-1.6-.4-2.2-1-.7-.8-.8-1.8-.3-2.7l.5-.8a2 2 0 0 1 1.3-.7h.2l-.1-.4-.5-.8c-.3-.6-.3-1.3 0-2l-3-1.8-2.9-1.7c-.3-.5-.2-1-.3-1.4l-.5.3-1.2.5c-1.3.2-2.4-.2-3.1-1.3l-.1-.1h-.2a3.5 3.5 0 0 1-2.2-.2 5.9 5.9 0 0 1-2-1.4 2.5 2.5 0 0 1-.5-.8 2 2 0 0 1 1.4-2.8 2.7 2.7 0 0 1 1.4 0h.4l.3.2v-.6c.1-.9.8-1.3 1.6-1.1.4 0 .8.3 1.1.5l.4.3c.3-.5.7-.6 1.3-.6h.2c.5.1.8.3 1.2.6 0 0 .1.2.3.1V187l-.1-1-.3-2.9-.3-2.6a50 50 0 0 1-.3-4.8 181 181 0 0 0-.1-5.3l-.3-4.5v-1.3l-.7-.4a2 2 0 0 1-.8-.8c-.3-.4-.1-1 .4-1.1l.4-.2-.2-.3-.6-1.2c-.1-.4 0-.8.3-1.2a1.7 1.7 0 0 1 1.2-.5h.4c.1-.8.4-1.5 1-2 .7-.4 1.4-.7 2.3-.4v-.1c.5-.9 1.2-1.4 2.1-1.5h.5l.5-.5c.7-.7 1.5-.8 2.3-.3l.6.5.7-.2h.4c0-1 .4-1.6 1.1-2 .8-.4 1.5-.4 2.2.2l.2-.2c.5-.3 1-.3 1.6 0l.3.2.2.1.2-.3c.1-.4.4-.7.9-.7.6-.1 1 0 1.4.4l.2.3c.5-.3 1-.2 1.4 0 .2-.6.6-1 1.2-1a3.3 3.3 0 0 1 2.3.3c.3.2.5.4.6.8v.3h.5c1 0 1.5.5 1.7 1.4v.4h.3c.4 0 .8.2 1.1.4.7.4 1 1 .9 1.9l-.1.4c.5 0 1 0 1.4.6.3.5.4 1 .1 1.5 1.1.6 1.4 1.6 1.2 2.7l.5.4.3.5h1.1l1.2.8c.3.3.5.7.6 1.1.1.5.1 1-.3 1.3v.2l.2.2c.4.3.6.7.8 1.1.2.7.2 1.4-.4 2l-.1.4v1c-.2 1.6-.2 3.2-.3 5v4.9l-.2 3.2-.2 2.5-.5 3.5v.4l.6-.4c.5-.4 1-.3 1.6 0l.8 1 .1.3h.3c1.2 0 2.1.7 2.5 1.5v.2l.1.1c.4 1.4 0 2.6-1.3 3.5l-.7.3zm-5 2.6 1.5.8c.4.2.9.3 1.4.2l.4-.1c.3-.2.5-.5.4-.9l-.2-.4v-.3l.3-.4c.2-.2.5-.4.6-.8.1-.4 0-.7-.3-1l-.6-.3-.2-.1c-.4-.2-.4-.3-.3-.7l.3-.5v-.5c0-.3-.2-.6-.4-.8a1 1 0 0 0-1.3-.2 2 2 0 0 0-.8.7l-.1.7v.8h.2c.4 0 .7.3.8.7l.1.7v.3l.4.1c.3.1.5.4.6.7 0 .1.1.3 0 .4l-.2-.2c-.2-.4-.5-.6-.9-.5h-.5v-.5c.1-.3.2-.6 0-.9 0-.3-.2-.4-.6-.4l-.3 1.6c0 .6-.2 1.1-.3 1.7v.1m-3.5 1v.1l1.3-.4v-.5l.3-2.2.4-3.3.2-2.3.4-5 .2-2.4.3-3 .2-4.6.3-4.7V170.2c-.5 1-1.3 1.3-2.2 1l-.1.4a43 43 0 0 1 0 4.5c-.2 2.8-.2 5.7-.3 8.5 0 2 0 4-.2 6l-.4 5.5-.4 4.4v.1zm-2.2.8a9 9 0 0 0 1.8-.6v-.4c0-1.8.3-3.6.4-5.4l.3-3.6c.3-3.6.3-7.3.3-11l.2-4 .1-4v-.3l-.5.5a2 2 0 0 1-.6.3l-.7.1v.4l-.1 5.2-.2 3.7-.3 6.5-.1 2.5-.2 4.3-.1 1.8-.3 3.5v.5m1.2-33.9a4.8 4.8 0 0 0-.8-1.6c-.5-.6-1.1-1-2-1a1.6 1.6 0 0 0-1 .4l-.8.7a2 2 0 0 0-.4 1.8l.3.8c.1.2.2.4 0 .7l-.3.1c-.5.1-.6.4-.7.8 0 .4 0 .8.3 1.2.3.5.7 1 1.3 1.2l.5.2c.5.1.9 0 1.2-.3 0-.2.2-.3.3-.4.2-.3.3-.3.6-.2l.7.2.6.2c1 .2 1.8-.5 1.7-1.6l-1-1c-.4-.6-.6-1.3-.5-2.2m-3.3-7.6a.7.7 0 0 0 .1-.5 1.6 1.6 0 0 0-.6-.9.8.8 0 0 0-.7-.1l-.7.2h-.5l-.2-.2v-.2c-.2-.7-.6-1.1-1.2-1.3a2 2 0 0 0-1.2.2l-.2.1c-.4.3-.6.7-.7 1.2l.1.8.2-.3c.8-1 2.2-.6 2.5.5l.4.2c.4.2.8.5 1 1 .2.2.2.6 0 .9 0 0 0 .2-.2.1.2-.8-.2-1.4-1-1.8l-.4.1c-.2 0-.3-.2-.3-.3l-.2-.4a1 1 0 0 0-1.5-.2 1.5 1.5 0 0 0-.4.7l.5 1a2.3 2.3 0 0 1 1.5.5c.4.4.7.8.9 1.4l.3-.2c.4-.1.8 0 1 .2.3.2.5.5.6.8l.3 1 1.3-.2v-.1c-.4-.5-.6-1-.8-1.6a3 3 0 0 1 .1-2.6m-.9-3.9v-.4a1.2 1.2 0 0 0 .1-.3c0-.3-.2-.6-.4-.8a2 2 0 0 0-1.6-.5c-.5 0-.9.1-1.2.5l-.2.4c-.2.5-.2 1 0 1.6h.5l.8.4c.4.3.7.7.8 1.1l.8-.2-.1-.6a3.4 3.4 0 0 0-1-1.1l-.2-.2.1-.2c.4 0 .8.4 1.1.8.3.3.5.8.5 1.2l.7.3.5.5.3.7.7-.4c.1-.5 0-1-.1-1.3-.2-.4-.5-.6-.8-.7l-.8-.2-.5-.3v-.3m-8.5 2.5a1.8 1.8 0 0 1 1.3.5l.3.4 1.2-.4.3-1.3c-.3-.4-.6-.8-1.1-1-.3.1-.4.2-.5.4l-.3.4-.3.3c-.4-.2-.4-.2-.5-.6a1.4 1.4 0 0 0-1.2-.4c-.5.1-.7.4-.7.9v.6l.2 1h.2c.8 0 1.2.4 1.3 1.2h.3c1 0 1.6.7 1.8 1.6v1l-.1.1.6.1v-1c0-.5.2-.9.7-1.4l-.4-.7-.3-.8c-.5 0-.8.5-1.2.6-.2 0-.2-.1-.3-.2-.2-.6-.7-.8-1.2-1l-.4-.1c0-.2.1-.2.3-.2m-6.5 3.2-.4-.2a1 1 0 0 0-.9 0s0 .2-.2.2c.7.2 1.1.6 1.4 1.2.6 0 1.1.5 1.6.9.2 0 .3-.2.5-.3l-.5-.7c-.2-.4-.3-.8 0-1.3 0-.3.2-.5.5-.7-.2-.2-.4-.2-.6-.2h-.7c0-.3.2-.3.3-.3.4 0 .8 0 1.2.2h.2l1 .1c.2-.3.4-.8.8-1v-.3a2.2 2.2 0 0 0-1-1.2c-.7-.3-1.3 0-1.4.7v.6h-.5a.7.7 0 0 0-.3-.3h-.6c-.2 0-.3.2-.4.4a1.7 1.7 0 0 0 0 1l.2.8c.1.2 0 .2-.2.4m-2.2 3.4h.5V164c0-.5.3-.8.8-1l.2-.1c-.4-.5-.8-.7-1.3-.5l-.4.2c-.2 0-.4 0-.5-.2a.7.7 0 0 1 0-.2c-.3-.6-.7-1-1.2-1.3-.8-.6-1.7-.5-2.4 0-.2.3-.4.6-.4.9-.2.7-.2.7-.9.7-.6 0-1 .4-1 1-.1.9.1 1.6 1 2l1 .5h.4l.2.4c.5.6 1 1 1.8 1 .4.2.8 0 1.2-.2l-.1-.6c0-.8.4-1.4 1.1-1.5m2.4 33.5v1.3c.5 0 1 .2 1.4.6l.4-.5.2-1.7.2-4.5.3-4.3.2-2.8v-.6l.4-4v-2.4l.3-4.3.5-3.7v-.4c-.7-.1-1.3-.4-1.8-1l-1.2.6v.8l-.1 5.9-.2 4-.2 4.3-.3 8.1v.8l-.1 3.8m11.1 0c0-1.4.2-2.8.3-4.1l.3-4.4.1-3 .1-4.3v-4l.1-3.2.1-.9-1.3-.8v1.7a37 37 0 0 1-.2 3.6 32 32 0 0 0 0 4.5 38 38 0 0 1 0 4.2 76 76 0 0 1-.4 4.6l-.2 2-.2 3.4a28 28 0 0 1-.3 2.3l-.4 2.3v.3l.9.4.8.6v-.2l.3-5m2-28.9c.1-.3.2-.4.7-.7l-.2-.3c-.1-.4-.3-.7-.3-1.1a1 1 0 0 0-.4-.7 2.3 2.3 0 0 0-1.1-.6c-.6 0-1 .1-1.4.5-.3.4-.5 1-.5 1.5v.7c0 .4-.2.6-.6.6h-.4c-.5 0-.8.3-1 .8-.2.7-.2 1.4.3 2 0 .3.2.5.3.6.4.5 1 .6 1.6.3l.3-.1.5.2a4.8 4.8 0 0 0 1.3.7c.5.2 1 .1 1.5-.2.3-.3.5-.6.5-1l-.3-.3c-.5-.6-.8-1.3-.9-2l.1-.9m-3.6-5.6c-.4-.2-.9-.3-1.3 0-.2.3-.1.6 0 .8l.4.8.2.6-.3.4v.2c.2.4.4.7.8 1v-.3c.2-.7.6-1.3 1.2-1.7l.4-1-.4-.6.1-.2c.4 0 .6.4.8.6h.6l.3-.3a1 1 0 0 1 1-.1c.2 0 .2.1.3.2h-.6a.8.8 0 0 0-.5.3l-.1.4c-.1.1-.3 0-.4 0a.8.8 0 0 0-.8.2v.2c.8-.1 1.5.2 2.2.8l.5-.9.7-.8c0-.6-.2-1.2-.6-1.6-.2-.3-.4-.3-.7-.1-.2 0-.4.2-.5.3-.3 0-.4 0-.5-.3l-.1-.3c-.2-.5-.5-1-1-1.2a1.1 1.1 0 0 0-.6-.2 1 1 0 0 0-.9.7V163.9c0 .1 0 .2-.2.3m-3.3 3.7.1-.3c.3-1-.2-1.6-.8-1.8a2 2 0 0 0-1.4 0 1 1 0 0 0-.8 1l.1.9v.5l-.4.2c-.8.3-1 .8-.5 1.5a2.1 2.1 0 0 0 1.1.8l1 .2c.1 0 .3 0 .5.2v.3c0 .6.3 1 .8 1.2.4.3 1.1.3 1.6 0l-.1-.6c-.1-.5 0-1 .1-1.6.2-.6.6-1 1.1-1l.7-.2v-.6c-.3-.4-.7-.5-1.1-.5a3.3 3.3 0 0 0-1.5.2c-.4.1-.6 0-.5-.4m3 30.5.2-2.2.3-7.3.2-3.2.1-3.5.2-3 .2-3.6V174c-.4.4-1 .5-1.5.3v.1l-.2 3-.3 4a74 74 0 0 1-.4 4.8 62 62 0 0 0-.3 3l-.3 3.8v.6l-.4 4.5-.5 4.6v.2l.7.3.5-.1h.5v-.3c.5-1.4.8-2.8 1-4.3m-2.4-.8.3-3.6v-.5c.2-1.2.2-2.5.3-3.7l.3-5.4.2-2.4.3-4.8.2-3.2-.6-.7-1.3.4V176.4l-.1 3c0 1-.2 1.9-.3 2.8l-.3 4.3-.2 1.7q0 1.6-.2 3l-.2 2.5a235 235 0 0 1-.3 3.3c0 1-.1 1.9-.3 2.8v1c.3.7.4.7.5 1.9h1l.2-1.3.5-3.8m-2-3.8.3-3 .2-2.6.2-2.5.2-4 .4-7.6v-.4c-1.4-.5-1.7-1-1.6-2.2h-.3v1.3a764 764 0 0 0-.3 3.5l-.2 2.7-.4 4.7-.3 3.1-.2 4-.1 2-.1 3.3-.3 3v.6c.7-.2 1.3 0 1.8.5l.1-.3.3-2.5.3-3.6m-4-23.6c.3 0 .6 0 .9-.3-.2-.4-.3-.9 0-1.3.2-.4.6-.6 1-.8v-1c-.4-.2-.6-.1-1 .2l-.3.5c-.3.1-.4 0-.6-.1-.5-.3-1-.4-1.6-.2h-.5c0-.3 0-.4.2-.5.7-.3 1.3-.4 2 0l.3.3.3-.3-.7-.8c-.2-.2-.6-.3-.8-.6.5-.1 1.2.3 1.9 1h.9c.2-.4.5-.8 1-1v-.1c-.2-.6-.6-1-1.2-1.2a.6.6 0 0 0-.5 0l-.4.2c-.3.2-.6.2-.9 0l-.4-.4a1.5 1.5 0 0 0-1.1-.3c-.4 0-.6.3-.7.6-.1.4 0 .8.1 1.2l.1.1c.2.3.2.3-.1.5h-.3a1 1 0 0 0-.8 0c-.3.1-.5.4-.4.7 0 .9.4 1.5 1.2 2 .2 0 .5.1.6.4v.2a.6.6 0 0 0 .3.5c.4.3 1 .5 1.6.5m3-9.3v.3c-.1.1-.2.3-.4.3l-.4-.2a1 1 0 0 0-1.2.1c-.2.3-.2.6-.1 1l.1.4.4.6c1 .2 1.7.8 2 1.8h.4q.6 0 1.1.2c.8.4 1.2 1 1.2 2v.1h1.1l-.2-.6.2-.7-.2-.4c-.2-.3-.4-.7-.4-1.2 0-.4 0-.7.3-1a.6.6 0 0 0 .2-.2c.3-.7.2-1.3-.2-1.9a1 1 0 0 0-1-.4h-.7v-.4c0-.6-.5-1-1.1-.9l-.4.1a1 1 0 0 0-.8 1m12 41.3 1.6-.5.1-.6v-.2l.2-5 .2-3 .1-2.2.4-7v-3.4l.2-6V173l-1.2-.5-.6.9c0 2.1 0 4.2-.2 6.2a148 148 0 0 0-.3 8.1l-.2 6-.1 3.2-.2 3.9a26 26 0 0 0 0 1.2zm-.3.1v-7l.2-3.3.2-4.7c0-2.2 0-4.5.2-6.8l.1-5 .1-1.5v-.4c-.6.1-1 0-1.6-.3l-.1.9-.3 6-.1 7.6c0 2.3-.2 4.6-.3 6.8l-.2 5-.1 2.6v.9zm-2.4 1v-.4c.2-2 .2-4.2.3-6.3l.1-3.3.2-3.3v-5.4q.2-2.8.2-5.7l.1-3 .1-1.2.1-.5c-.5.5-1 .7-1.7.7v1l-.2 5.6a305 305 0 0 1-.4 12.4l-.5 6.3-.2 3.4v.4l2-.8M144 208c-.4.4-.4 1-.3 1.5.2.6.7 1.1 1.2 1.5.5.2 1 .2 1.4-.2l.3-.2h.2l.6.2h.5c.7 0 1.2-.2 1.8-.5l.8-1c.2-.7-.1-1.7-.8-2l-.1-.1c-.3-.2-.4-.3-.3-.6v-.2l.2-.2c.2-.5.1-1-.1-1.4a3.2 3.2 0 0 0-.6-.8 2 2 0 0 0-1.3-.6 10 10 0 0 0-.9 0h-.2a.7.7 0 0 0-.5.2l-1.2-.3c-.9-.1-1.4.3-1.6 1.2 0 .7 0 1.4.5 2l.2.3.3.3c.2.4.2.6 0 .9m-6.6-5.6.5 1.2c.1.2.3.4.2.7-.1.2-.3.2-.5.2-.8.1-1.2.6-1.6 1.3-.4.7-.3 1.5.4 2.1.7.7 1.6 1 2.5.8l1-.2.5.1c0 .3.2.5.5.7l.6.3c.5.1 1 0 1.5-.2 0-.6 0-1.3.4-1.8-.6-.7-1-1.5-1-2.5-.5-.1-.8 0-1.2.2l-.5.6c0 .2-.2.3-.5.3l-.2-.4c-.5-.4-1-.5-1.6-.2-.2 0-.3.1-.4 0-.2-.1-.1-.3 0-.4.4-.3.9-.4 1.4-.3l.6.4.3.2.8-.9a3 3 0 0 0-.7-1l-.8-.7a.5.5 0 0 1 .5 0l.5.2c.4.4.7.7 1 1.4h.7l.4-.8.6-.9c0-.7-.3-1.5-.8-2.1a2 2 0 0 0-.8-.6.9.9 0 0 0-1 .1l-.4.5-.3.4-.5-.3a2.1 2.1 0 0 0-1.4-.2.8.8 0 0 0-.7.6v1.2m-.1-2.2.9-.3v-.2l.1-4v-1.6c.2-3.3.2-6.7.3-10l.2-6 .1-2 .1-3.8V171h-.2l-1-.5c-.5-.3-.8-.6-.7-1.2v-.1l-.8-.4v1.6c.1 4.8 0 9.5 0 14.3a188 188 0 0 0 0 3.8v8.3l-.2 1.8v.8zm-3.5-11.3.2 3.7v5.5l1.7 1.1v-.2l.1-3 .2-7v-11.7l-.1-5.4v-3.3l-.6-.9-.3.2c-.4.3-1 .4-1.4.2a2.8 2.8 0 0 1-1-.5l-.3-.3.1 1.8.5 4.8.4 6.4.1 1.9.2 3 .2 3.7m-7.4 6.3c.4.6 1 .9 1.7 1 .7 0 1.3-.2 2-.5.3-.2.5-.6.4-1v-1.9c-.4-.2-.8 0-1 .4l-.1.6v.3a.4.4 0 0 1-.4.3c-.4 0-.7-.4-1.2-.4h-.1l-.1.2-.1-.1v-.3l-.6.2-.6.3c-.2.4-.2.6 0 1m1-4.6v-.6a2.7 2.7 0 0 0-1.1-.8 1.7 1.7 0 0 0-.6-.1c-.4 0-.7.2-.8.6v.8l-.1.5-.4-.1c-.2-.3-.5-.4-.8-.5-.5 0-1 0-1.5.2a1.6 1.6 0 0 0-.6 2.3l.2.3c.7.7 1.5 1.2 2.4 1.4.5.1 1 .1 1.6 0 .2-.6.5-1.1 1.2-1.2l-.1-.4-.1-.5c0-.5 0-.9.5-1.1l.3-.2-.1-.6m1.7-1.3h-.2a2 2 0 0 0-.4 0c-.3 0-.5.2-.5.5 0 .4 0 .7.3 1a1.4 1.4 0 0 1 .2.4c.2.2 0 .5-.3.5h-.4c-.5 0-.7.3-.7.7v.3l.3.5.1.4c.3-.2.6-.2.8 0l.7.1.1-.2.1-.5c.2-.5.5-.7 1-.8h.4v-1.9c-.4-.5-.9-.9-1.5-1m.4-23.5.5 5.4c.3 2 .4 4.1.5 6.2l.2 5 .2 2.9.2 2.5c0 1.3.2 2.5.3 3.7l.2 4.3v.6l2 1.3v-4.1l-.2-8.5a139 139 0 0 0-.2-3 179 179 0 0 0-.2-3l-.5-5.4-.3-2.7-.2-2.3v-2l-.1-.1c-1 .1-1.7-.4-2.4-1v.2m3.7-7.9a2 2 0 0 0-.1-.4c-.2-.6-.7-.9-1.2-.8-1 .2-1.8.8-1.8 2v.3c0 .2 0 .4-.3.4h-.4a1.2 1.2 0 0 0-.9.1c-.3.2-.5.5-.3 1 .1.3.3.7.6 1l.2.3v.4l-.8.3-.2.2c.2.5.6.8 1 1.1l.2-.4c0-.7.5-1.2 1.2-1.3l.5-.2c.1-.4.2-.9.5-1.2l-.3-.8.2-.2c.6-.6.7-1 .2-1.6 0-.1.2-.2.3-.1l.3.3c.3.5.2 1-.1 1.5l-.1.1-.1.1v.2h.1a3.4 3.4 0 0 1 1.1-.3 2.2 2.2 0 0 1 1.6.3l.4.3c.4-.2.6-.7.5-1-.1-.7-.8-1.4-1.7-1.2h-.4c-.2 0-.2-.2-.2-.4m2.2-2.9a2.6 2.6 0 0 0-.4 0c-.6.2-1 .5-1.3 1l-.3.7.5 1 .8.1.9.5c.5 0 1 .1 1.3.7.2.2.3.5.2 1h-.2c-.2-.6-.4-1.1-1.1-1.3.1.4.2.8.1 1.1a1.6 1.6 0 0 1-.6 1l.9 1h.5v-.1c0-.3.2-.5.4-.6.3-.2.6-.2 1 0-.2-.9-.2-1.6.4-2.2a1 1 0 0 0-.8-1 2.6 2.6 0 0 0-.6-.1c-.6 0-.7-.2-.5-.8l.2-.4c.1-.5 0-.9-.4-1.2a1.5 1.5 0 0 0-1-.4m.7-.3c1.3.7 1.4 1.5 1.1 2.5l1 .2-.3-.8v-1l.3-.8c-.5-.8-1.6-.9-2.1 0m4.2-.3a1.8 1.8 0 0 0-.7 0l-.6.3a1.1 1.1 0 0 0-.6 1l.1.8.4-.3c.4-.3.7-.4 1.1 0 .2 0 .3.2.5.4.4-.1.9 0 1.3.3 0 0 .2 0 .2.3l-.3-.1c-.3-.1-.6-.3-.9-.2l-.4.2c-.2 0-.2 0-.3-.2a1.4 1.4 0 0 0-.6-.6c-.4 0-.6.3-.9.6.2.6.6 1 .7 1.7h.4l.2-.3c.2-.7 1-1.2 1.8-.7.3.1.6.4.9.7l.2.3V157.9c0-.7.4-1.1 1-1.4h.4l-.3-.4a2.2 2.2 0 0 0-.8-.6c-.3-.1-.6 0-.8.2l-.3.3-.4.3-.1-.2v-.2c-.1-.7-.6-1.1-1.2-1.3m4.7-1.7a2 2 0 0 0-.3-.2c-.4-.2-.7-.2-1 .1a3.3 3.3 0 0 0-.3.4c-.2.3-.7.3-.8-.1 0-.2-.1-.5-.3-.6a1.2 1.2 0 0 0-1 0c-.3.1-.6.4-.7.8a2.6 2.6 0 0 0 0 1c.5.3.9.6 1.1 1.2l.2-.2c.4-.5.8-.6 1.4-.4l.8.5.2.1c.3-.7.7-1.2 1.5-1.3-.1-.6-.3-1-.8-1.3m4.5 0c-.4-.4-.8-.4-1.2-.1h-.2l-.4-.2c-.1-.4-.5-.6-.8-.6a1 1 0 0 0-.2 0c-.4 0-.6.3-.6.7 0 .5 0 .9.3 1.3l.2.4c0 .2-.2.3-.4.4h-.2c-.5 0-.8.3-1 .7 0 .4 0 .4-.3.7v.2l1.2.5.2-.3q.4-.3.8-.3l.6.2c.3 0 .5.3.7.5l.2.3.6-.4.5-.2a3 3 0 0 1 0-1.6c-.2-.1-.5-.3-.7-.2-.3.2-.1.7-.4.9-.3-.1-.5-.4-.9-.3l-.7.5c-.1 0-.2 0-.1-.2a.9.9 0 0 1 .2-.3c.3-.3.7-.4 1.2-.2l.1-.3c.2-.5.5-.6 1-.5l.4.2.5-.6a2 2 0 0 0-.6-1.2m5.9 1c-.2-.6-.6-.8-1.2-.8l-.7.1c-.3 0-.4-.1-.4-.4a2 2 0 0 1 0-.2c0-.3-.2-.6-.5-.7a2 2 0 0 0-1.6 0 1.4 1.4 0 0 0-.6.4l-.4.3.6 1.2h.3a3 3 0 0 1 1.6 0c.5.1.9.4 1.2.8l.2.7v.8h.2c.1-.3.1-.7.5-1l.9-.5a.9.9 0 0 0 0-.5 1.4 1.4 0 0 0-.1-.3m3.8 4.6a.8.8 0 0 0-.7-.6 27 27 0 0 0-.7 0c-.1 0-.3 0-.4-.2v-.5l.2-.6c0-.4-.1-.8-.4-1-.4-.3-.7-.4-1.1-.4-.4 0-.6.3-1 .5-.1.1-.3.3-.3.6l.7.3c.3-.3.5-.5 1-.4.2.1.5.2.7.6h-.5c-.3-.2-.6-.2-.9 0 .4.6.7 1.2.5 2 .8 0 1.4.3 1.7 1 .4-.2.7-.4 1-.4a.9.9 0 0 0 .2-.9m.8 2.2a1.2 1.2 0 0 0-.5-.6c-.3-.1-.6-.1-.8 0l-.5.5c-.3.3-.6.2-.7-.2v-.3a1 1 0 0 0-1-.8 1.3 1.3 0 0 0-.8.2c-.9.6-1.2 1.4-1 2.4l.2.6.6 1.2v.1l.4.7a3.2 3.2 0 0 1 1.4 1c.4.5.7 1 .8 1.6l.7-.4-.2-.2a3.7 3.7 0 0 1-.5-1.6c0-1 .3-1.8 1-2.4l.7-.4-.2-.2a1.8 1.8 0 0 0-.8-.2c-.5 0-.7.1-.8.6l-.1.3c-.3.2-.6-.2-1 0s-.4.8-.7 1h-.3c0-.7.2-1 .8-1.5a1.8 1.8 0 0 0-.8-.7l-.2-.3c.5-.2 1 .2 1.4 1l.5.2.1-.3c.1-.5.4-.7.8-.7.5 0 1 0 1.4.3l.3.2v-.2c0-.3 0-.7-.2-1m4.7 7.6c-.1-.5-.3-.8-.6-1.2l-.3-.2c-.1-.2-.2-.3-.1-.6l.2-.2c.3-.2.4-.5.3-1a2 2 0 0 0-.5-.9 3.3 3.3 0 0 0-1.1-.7h-1c0 .2 0 .5-.3.5v-.2l-.4-.7c0-.2-.3-.3-.5-.3-.4 0-.8.2-1 .6-.5.6-.7 1.3-.4 2.1 0 .3.2.7.4 1l.1.3c0 .3 0 .5-.3.5l-.4.2c-.5.2-.7.7-.5 1.2l.3.7c.4.5.9 1 1.5 1.2.7.3 1.2.2 1.6-.5.2-.3.5-.4.9-.4h.7l.9-.3c.4-.2.6-.6.5-1.1m-1 9.6.2-2.9.3-4v-.9l-1.4.2v.4a28 28 0 0 1-.2 3.5v.7l-.3 4.9c0 1 0 1.9-.2 2.8l-.1 2.6-.3 3.3-.2 2.6-.6 4.3-.4 3.3-.2 1.4v.2c.3 0 .8-.3 1-.5a1.8 1.8 0 0 0 .2-.5c0-.4.2-.7.3-1.1l.1-.3.5-2.8.3-2.1.3-2.8.3-3.6.1-1.7.3-7m4.8 18c.8-.7.8-1.6.6-2.3a2.7 2.7 0 0 0-.2-.5 1.9 1.9 0 0 0-1.1-1 1.4 1.4 0 0 0-1 .1l-.2.1q-.4.1-.6-.3v-.3a1.8 1.8 0 0 0-.7-1 .8.8 0 0 0-.9-.1 3.5 3.5 0 0 0-1 .7l-.1.7-.1 1-.1.7c.4-.2.8-.4 1.3-.4s.9.4 1.2.7c.2 0 .3-.1.5-.3-.4-.4-.7-.8-1.3-1 0-.2.1-.3.3-.2l.4.1.7.7.2.3h.7l.7.4a.6.6 0 0 1 .3.4l-.1.2c-.7-.5-1.4-.7-2.1-.2v1.6l1 .7 1-.4c.2 0 .4-.2.6-.4"/></svg>