<svg xmlns="http://www.w3.org/2000/svg" width="240" height="240" fill="none"><path fill="#E31F25" fill-rule="evenodd" d="M120 240a120 120 0 1 0 0-240 120 120 0 0 0 0 240" clip-rule="evenodd"/><path fill="#fff" fill-rule="evenodd" d="M120 221.3a101.3 101.3 0 1 0 0-202.6 101.3 101.3 0 0 0 0 202.6" clip-rule="evenodd"/><path fill="#F8C6CF" d="m86.8 198.4.3.7c0 .4 6.4.3 7.3.4 2.6.2 5.3.3 8 .2 5.3 0 10.6-.4 16 0a246 246 0 0 1-6.7-28.5c0-.5-.2-1.1-.6-1.5-.4-.4-1-.5-1.7-.6-10.7-.7-21.9-.5-31.5-5.3 1.1.6.8 5 1 6.1.6 3.3 1.4 6.5 2.3 9.8a226 226 0 0 0 5.6 18.7"/><path fill="#C16F45" d="M116.4 189.3a216 216 0 0 1-.5-2.2l.6 2.2zm-31.6-1.2-1.2-3.7a207 207 0 0 0 1.2 3.7"/><path fill="#F6B0AD" d="M101.6 192.5a83 83 0 0 1-1.2 0c-4.9-.6-9.7-1.3-14.6-1.4a234 234 0 0 1-1.1-3.3l-1-3.4 6.6.8c3.4.2 6.8.2 10.2 0h1.6c4.3-.4 8.6-1 12.8-2.2l1 3.6.6 2.1-3.3.4c-4.3.3-8.5 0-12.9 0l1.3 3.4"/><path fill="#8C432D" d="M101 195.5c5 .2 10 .5 15-.5 1-.3 2-1 3-1.5 0 0 1.6 4 1.2 4.6-.3.4-.7.6-1 .8-5.2 2.7-11.1 2.7-16.8 2.6h-5l-7-.2c-1.1-.1-5.6.2-6-1.2-.5-1.6-1.1-3.4-1-5.2 1.1.2 2.5 0 3.7 0l4.7.3z"/><path fill="#F8D677" d="M118 199.1a.8.8 0 0 1-.1.3c-.7.7-1.9 1.2-2.5.2l-.4-1.1a23 23 0 0 1-.3-1.9c0-.8.2-1 .8-1.2l.8-.3H117.2c.3.2.4.5.5.9a15.7 15.7 0 0 1 .4 3.1m1.2 0c-.2-1.4-.3-2.8-.6-4.1-.2-1-.6-1.8-1.2-2.2a2 2 0 0 0-1.4-.3c-1 .1-2.3.7-3 1.6-.4.7-.3 1.5-.2 2.3l.5 3.4c.1.7.3 1.4.7 1.8.8.7 2.2.4 3 0 .7-.3 2.2-.7 2.3-1.7l-.1-.9"/><path fill="#749EC1" d="m85 194.8-.1.5c-.8 1.4-1 3-.4 4.6.3 1 1.2 2.1 2.5 2.3v1.4c0 .2 0 .4-.2.5h-.4c-2.6.1-4.3-.8-5.2-3-.4-1.1-.6-2.3-.8-3.4-.1-1-.3-2.2.2-3.1a.7.7 0 0 1 .2-.3.9.9 0 0 1 .4-.1c.7-.2 4-.7 3.9.6m8.5 8.8h-.4l-.2-.5c-.3-1-.1-2.3-.6-3.2l-.3-.7-.1-.7-.1-4.8c.3.1.7-.1.8-.5H94c.4 0 .9 0 1.2.4.4.5.4 1.4.4 2.2-.2 2.5-.1 5.2 1 7.2a7.6 7.6 0 0 1-3 .6m9.2-4.4-.5-4 .1-.4h.2a9.1 9.1 0 0 1 3.4-.3h.3v.4l.8 4.8c.1.5.2 1 .5 1.4l.5.7v1.5c0 .1 0 .2-.2.3h-.2l-2.2.2c-.5 0-1 0-1.4-.2-.3-.2-.5-.6-.6-.9-.4-1.1-.5-2.3-.7-3.5m14-8v1c.4-.2.8-.2 1 0 .6.7.7 2 1 2.8a18.3 18.3 0 0 1 .8 4.5h.1c.2 0 1.9 0 1.8-.2-.5-2.3-1-4.7-1.9-6.7 0-.3-.2-.5-.3-.8 0-.4 0-.8-.3-1.1-.4-.7-1-.4-1.6-.2-.2.2-.5.3-.6.6z"/><path fill="#3D415A" d="m89.5 211.3-.8-.2a40 40 0 0 1 3-6.3l.8.3a40 40 0 0 0-3 6.2m30.7 12.7-.1-4.3v-4.3l-.2-3.7V208l.3 3.7.3 3.7.1 4.3c0 1.5.5 1.5.4 2.8-.4 5.2-.9 3.2-.8 1.5m7.9-6-1-1.2a16 16 0 0 1-1.5-2.6 16.6 16.6 0 0 1-1-3l-.3-1.4.6 1.3 1.3 2.8 1.3 2.7.6 1.3"/><path fill="#4A5B77" d="M85 204.3a4 4 0 0 1-2.9-1.5 5 5 0 0 1-.3-.4 5 5 0 0 0 3.3 1.9m36.8-4.9a49 49 0 0 0-1.9-7.5l-.2-.5h.1c.1 0 .2 0 .3-.2a.4.4 0 0 1 .3 0c.2 0 .4 0 .6.4l.5 1.3.5 2.4.2 1v.6c0 .5-.3 1-.7 1l.3 1.5zm-10.3-4.5a88 88 0 0 1-5.7.3 58 58 0 0 1 0-.7c0-.1 0-.2-.2-.3h-.2a9.8 9.8 0 0 0-3.2.2h-.2v.8h-1.7l-5-.1c.1-.5 0-1-.4-1.3-.4-.2-.9-.2-1.4-.2H92c-.1.3-.5.4-.8.5h-.3v1h-.4l-5-.1h-1.6l.1-.2.2-.4c0-.7-1-.8-2.1-.7l-1.4.2a.9.9 0 0 0-.3.1.6.6 0 0 0-.2.2 2 2 0 0 0 0 .2c0-.2 0-.3.2-.4a1 1 0 0 1 .3-.1 9.6 9.6 0 0 1 1.4-.2c0-.1.2-.8.1-1.3 0-.2 0-.4-.2-.4v-.1c5.9-.2 11.7.6 17.5 1 3.4.3 6.9.5 10.3.2 2.4-.2 4.8-.5 7-1.2a4 4 0 0 1 .5 0l.8.1c.5.4.7 1 .8 1.5l-.3.2a2 2 0 0 0-.9-.9c-.3-.1-.8-.2-1.3-.1h-.1c-1 .1-2.5.5-3.2 1.2-.3.3-.4.6-.4 1h-1.1m8-3.7c-.2-.3-.1-.7-.8-1a2 2 0 0 0-.1 0c.6.1 1 .3 1 .6v.4m-3 .2v-.6a.5.5 0 0 0 0 .1v.5m.3-.8.6-.3-.5.2h-.1"/><path fill="#703B2A" d="M109.4 201.4a48 48 0 0 1-2.2.1l-.1-.2c-.3-.4-.4-1-.5-1.6a99 99 0 0 1-.6-4.1c1.8 0 3.6 0 5.3-.2h1.1a7 7 0 0 0 0 .9l.6 3.2c.1.5.2 1 .5 1.4a33 33 0 0 1-4 .5m-6.4.1a97 97 0 0 1-1 0h-5.7a13.3 13.3 0 0 1-.3-6.3l4.6.2h1.6l.4 3.8.4 2.3m13-1.8a1 1 0 0 1-1-.4 3 3 0 0 1-.4-1.1l-.3-1.7c-.1-.8.1-1 .7-1.2l.8-.3h.3l.2-.1h.4c.3.3.4.6.5 1l.4 2.5a1 1 0 0 1 0 .4.7.7 0 0 1-.3.3c-.3.3-.9.6-1.4.6m-23.3 1.7-2.7-.1c-.8 0-2.7 0-4.2-.2l-1-1.7a7.3 7.3 0 0 1 .2-4.6 17 17 0 0 1 1.5 0l4.8.2h.4v3.5c0 .3 0 .5.2.8 0 .2.2.4.4.6l.4 1.5m26.2-2.3v-.4c-.2-1.3-.3-2.6-.6-3.8a5.5 5.5 0 0 0-.3-1l.3-.1.2.7c.4 1.4.8 2.8.8 4.3z"/><path fill="#C5B164" d="M115.7 202c-.6 0-1.2 0-1.6-.4a1.6 1.6 0 0 1-.2-.2c-.3-.4-.4-1-.5-1.6a56 56 0 0 1-.5-3.4 8 8 0 0 1-.1-1c0-.4 0-.9.3-1.3.7-1 2-1.5 3-1.6h.2c.5 0 .9 0 1.2.3.4.2.7.6 1 1.2l.2 1c.3 1.3.4 2.7.6 4v.9c0 1-1.5 1.4-2.1 1.7a4.3 4.3 0 0 1-1.5.4m1-7a1 1 0 0 0-.1 0h-.3l-.8.4c-.6.2-.8.4-.8 1.2l.3 1.9.4 1.1c.3.5.7.6 1 .6.6 0 1.1-.4 1.5-.8a.8.8 0 0 0 .2-.3v-.4a15.7 15.7 0 0 0-.4-2.7c-.1-.4-.2-.7-.5-1a.7.7 0 0 0-.4 0"/><path fill="#5780A6" d="M86.5 204.2a8.9 8.9 0 0 1-1.4-.1 2 2 0 0 1-.2 0 4.4 4.4 0 0 1-3-1.6 7 7 0 0 1-.9-2.3l-.6-2.5a22 22 0 0 1 0-.5c-.1-.8-.1-1.7.1-2.5l.1-.1a.7.7 0 0 1 .2-.3.9.9 0 0 1 .4-.1l1.5-.3c1.1 0 2.4 0 2.4.9l-.2.5a5.6 5.6 0 0 0-.5 4.6 4 4 0 0 0 1 1.6c.5.3 1 .6 1.6.7v1.4c0 .2 0 .4-.2.5a.6.6 0 0 1-.3 0m7.6-.5a8 8 0 0 1-.5 0h-.4l-.2-.5c-.2-.6-.2-1.2-.2-1.8 0-.5-.2-1-.4-1.4l-.3-.7-.1-.7-.1-3.5v-1.3a.6.6 0 0 0 .2 0c.2 0 .5-.2.6-.5H94c.4 0 .9 0 1.2.4.3.3.4 1 .4 1.6v.6a16 16 0 0 0 .4 5.7 8 8 0 0 0 .6 1.5 7.6 7.6 0 0 1-2.4.6m13.5 0-2.2.2c-.5 0-1 0-1.4-.2-.3-.2-.5-.6-.6-.9a9.6 9.6 0 0 1-.3-1.3l-.4-2.2-.4-3.5V194.8h.2a9 9 0 0 1 3.4-.3h.3v.4l.2.8.6 4c.1.5.2 1 .5 1.4l.2.2c0 .2.2.3.3.5v1.5c0 .1 0 .2-.2.3a.4.4 0 0 1-.2 0m12.8-4h-.9l-.1-.4c0-1.5-.4-2.9-.8-4.2a11 11 0 0 1-.1-.7c-.2-.8-.3-1.6-.8-2-.1-.2-.4-.3-.6-.3l-.4.1v-.4a6 6 0 0 1 0-.5v-.1a.7.7 0 0 1 .1-.2l.3-.2.2-.2.8-.2c.3 0 .6 0 .8.3l.3 1.2.1.3.2.5c1 2 1.4 4.3 2 6.6l-.4.2-.7.2"/><path fill="#DA9D5D" d="m206.7 114-7.6-17.3c1.8 1.9 3.5 4 5 6.2l-.9-6.9c2.2 3 4.6 5.4 7.2 7.4a199 199 0 0 1-2.3-7.4 83 83 0 0 0 7.7 1.9c-1.4-3.5-3-6.8-4.9-9.7l3.5-.3a21.2 21.2 0 0 0-4-3.5 97 97 0 0 0 6.8-8l-12.3.3a313 313 0 0 0 3.6-12.2 193 193 0 0 1-6 6.8c-.2.3-1.5 1.3-1.6 1.8l.5-5.4a179 179 0 0 1-5.2 6.9c2.6-5.5 4.8-11.6 7.3-17.2a250 250 0 0 1-1 9.3 379 379 0 0 0 11.2-10.1l-5.7 17a158 158 0 0 0 17.1-.5c-3.2 4.3-7 7.5-10.7 10.6 3.4 3 10.6 8.5 10.6 8.5L214.8 91c3.2 6.1 6.7 11.9 10.4 17.2-4.9-2.2-9.7-4.4-14.5-7.4l3.3 11a97.7 97.7 0 0 1-9.1-10.8 105 105 0 0 1 1.8 13"/><path fill="#fff" d="M203.4 66.4a285 285 0 0 1 2.5-13c.3 0 .6.5.6 1l-.2 1.3zm8.4 47.2c0 .2.2.3.3.4.2.1.4-.2.5-.4a64 64 0 0 0-3.8-7.4 1430 1430 0 0 0 3 7.4m-51.4-5.2c-.2 0-.3.2-.4.3v.6l1.1 10.1a37 37 0 0 0 1.7 8.3l-1 .7c-.2.5-.2 1.3.2 1.7.6 1 1.7 1.2 2.8 1.4 3.4.5 6.8.3 10-.7l.7-.3c.2-.3.2-.6.2-.8.3-4.4-.2-8.7-.7-13a233 233 0 0 1-.7-8.7c-.1-1.2-12 .2-13.5.4a2.5 2.5 0 0 0-.4 0"/><path fill="#FDE7A7" d="M177.3 108a.3.3 0 0 0 .2 0V105.7c-.1-.3-.3-.8-.6-.8.3 0 .3-.4.4-.7v-1.5l-10.7 1.3c-3.7.5-7.3 1-11 1.2-.4 0 .4 2 .5 2.3h-.2q0 1 .3 1.9c0 .3.1.6.4.8.2.3.7.3 1.1.2 1.5 0 2.9-.3 4.4-.5l6-.8c3.1-.3 6-.5 9-1.1z"/><path fill="#CD8252" d="M156.7 108.1h.9l2.2-.5 3.1-.7 3.6-.6 3.6-.6 3.2-.4 2.3-.3h.8l-.8.3-2.2.7-3.1.8a74.4 74.4 0 0 1-10.5 1.5c-1.8 0-3-.2-3-.2"/><path fill="#FDE7A7" d="m153.6 86.5.5-.3a.5.5 0 0 1 .3 0 .5.5 0 0 1 .2 0c.6.4 1 1 1.7 1.4a545 545 0 0 1 10.6-5.7l.5-.1c.2 0 .4.2.5.3l1.7 1.8c-.2-.2-2.8 1.6-3 1.7l-3 1.5a313 313 0 0 1-11.3 6l-4.6 2.2.4-1c0-.4.2-.7.4-1a5.6 5.6 0 0 1 1.5-1.8v-.2l-.3-2.9z"/><path fill="#EBC186" d="M155.3 89.2c0-.4-.5-2.7-.3-3l.3.1.6.8.7.9-1.3 1.2m11.4-4.3a9 9 0 0 1 0-1.5c.1-.3.2-1.5.7-1.6l.4.1 1.7 1.6-2.8 1.4"/><path fill="#CD8252" d="m150.2 91.3 1.5-.8 3-1.7 3.3-1.6 1.4-.7-1.4.7-3.1 1.7-3.2 1.6z"/><path fill="#fff" d="m152.4 91 1.9-1.3 2-1.2 1-.7 1.2-.6 1.2-.6 1.2-.6a37 37 0 0 1 2-1l2.2-.7-1.8 1.2a57 57 0 0 1-2 1.2l-1.1.7-1.2.6-1.2.6-1.1.6-2.1 1a25 25 0 0 1-2.2.8m-.9-1.6.2-.5c.1-.3.4-.5.6-.7a1.4 1.4 0 0 1 1.3-.2l-.2.6c-.1.3-.3.5-.6.7-.3.2-.6.3-.8.2h-.5"/><path fill="#fff" d="M179 102.9a505 505 0 0 0-30 5.5c-1.3.3-2.6 0-3.6-.8-2.4-2-3.5-6.2-2.9-9.2.3-1.4 1.6-2 2.8-2.6a507 507 0 0 0 29-15.5L193.5 62a1.8 1.8 0 0 1 2.5 0c2.2 2 6.7 7.6 9.3 21.7 2.5 14 .5 21.4-.8 24.3a2 2 0 0 1-2.4 1.2z"/><path fill="#BC3A36" d="m166 105.3-8.4 1.5a590 590 0 0 0-8.6 1.8c-1.3.3-2.6 0-3.6-.8-2.4-2-3.4-6-2.8-8.9.3-1.4 1.5-2 2.7-2.6 5.8-2.8 10.5-5.2 17.1-8.7-.4.2-.7 1.6-.8 2l-.3 2.4c-.1 2.3.5 4.7 1.3 7 .5 1.1 1 2.3 1.6 3.3.2.4 1.6 3 1.9 3"/><path fill="#9F312D" d="m148.9 108.7.3-.1 1.7-.4-1.6.4a5 5 0 0 1-.4 0m5-1 1.2-.2-.6.1a31 31 0 0 0-.6.1m-5.7-6.2a18.7 18.7 0 0 1-5.8-.2 8.7 8.7 0 0 1 .2-2.5c.3-1.4 1.6-2 3-2.7a604 604 0 0 0 5.4-2.6 9.4 9.4 0 0 0-.4 1.5 6.7 6.7 0 0 0-.4 1.4 8.9 8.9 0 0 0 0 2.4l.6 2.3a17.5 17.5 0 0 1-2.6.4"/><path fill="#D7D3D5" d="M202.7 97.2a4 4 0 0 1-.3-.2c-.5-.5-.8-1.1-1-1.8a62 62 0 0 1-.6-3.5 20 20 0 0 0 1.8-.4 43 43 0 0 1 0 5.9m-6-16.2h-1.3l-2.1-.7-.6-.2-1.8-.2c-.3-3.8-.2-7.6.8-11.2.2-.2.4-.3.7-.3h.3c.8 0 1.5.5 2.1 1 3.3 3 5 6.8 6 10.8l-1.9.4v-.1c-.8.3-1.5.4-2.1.5"/><path fill="#BC3A36" d="M204.6 88.4c.3-1 .3-2.1.3-3a11.2 11.2 0 0 0-1.4-4.9c-1-1.7-3-1.2-5.1-.7-1.2.2-2.4.5-3.3.3-.6 0-4.5-2-4.4-.6.3 2.4.6 4.7 1.1 7 .6 2.8 1.2 5.6 2.1 8.3a.5.5 0 0 0 .1.2l.4.1c.8 0 1.2-.7 1.7-1.3l.8-1.2c.6-.6 1.4-1 2.2-1.3 1.5-.6 3.5-.6 4.8-1.7.4-.3.6-.7.7-1.2"/><path fill="#DE9592" d="M204.7 84.2a14.4 14.4 0 0 0-.9-3.2 2.6 2.6 0 0 0-.2-.4l.3.5c.4 1 .7 2 .8 3"/><path fill="#9F312D" d="M205 87.2v-.4c0-.3-.3-1.1-.2-1.4-.2.6-.8 1.1-1.3 1.5a6.4 6.4 0 0 1-1 .4 10.2 10.2 0 0 1-.7-4.3c0-.5.2-1.7.6-2.1a.6.6 0 0 1 .4-.2.6.6 0 0 1 .3 0 1 1 0 0 1 .3.2l.3.5c.5.9.8 1.9 1 2.9l.2.9v2"/><path fill="#56728F" d="M194 96.6h.3c-1.2-3.2-2-6.4-2.6-9.8a66 66 0 0 1-1-5.8c-.6-5.6-.4-11.3 1.8-16.5.2-.5.5-1.2.9-1.7a3.2 3.2 0 0 1 .6-.6l.6-.3c.3 0 .7 0 1 .5 2.2 2 6.7 7.5 9.1 21.4a85.3 85.3 0 0 1 1.2 11.4c0 3.5-.1 7-1.1 10.4l-.6 2-.5.7a1 1 0 0 1-.6.3c-.3 0-.6 0-1-.4a20.5 20.5 0 0 1-5.6-7 36 36 0 0 1-2.2-4.7zl-.2.1a36 36 0 0 0 2.2 4.8 21 21 0 0 0 5.8 7.1c.5.4 1 .5 1.4.5.3 0 .6-.2.8-.5.4-.3.7-.8.9-1.3l.4-1.5c1-3.5 1.2-7 1.2-10.6a64 64 0 0 0-.5-6.4 86 86 0 0 0-.7-5.1c-2.5-14-7-19.7-9.3-21.7-.5-.5-1-.7-1.4-.6a1.8 1.8 0 0 0-1 .4c-.7.6-1.3 1.7-1.6 2.5a33.4 33.4 0 0 0-1.8 16.8 66.3 66.3 0 0 0 3.6 15.6z"/><path fill="#BFC0C5" d="M170 131.7h-1q.3-.1.5-.4l-1.8-.5c-1.1-.3-2.4-.7-3.2-1.7.7-.4 1.7-.4 1.9-1.2v-.7c-1-3.5-1.7-7-1.7-10.4 0-.2 1.5-.6 1.6-.6a2 2 0 0 0-.5 1.6c0 .5.3 1 .8 1.4a2.3 2.3 0 0 1-.4-1.3c0 .3 0 .5.2.8.2.7 1 .9 1.7.9h-.1c-.8 0-1.3 1.5-1.2 2.2 0 .7 1 1.7 1.8 1.7a1 1 0 0 0 .2 0 1.5 1.5 0 0 0-.9.4 1 1 0 0 0 0 .1c-.3.3-.4.7-.4 1l.1.8c.3 1 1.2 1.7 2.1 1.7-.5.3-.6.9-.6 1.5v.4l.3.6c0 .2.1.4.3.5l.5.1 3.4.4h.5a19 19 0 0 1-.8.2c-1.1.3-2.2.4-3.4.5m-2.5-21.9a28 28 0 0 1-2.2-.2h.5l1.7.2m7.1-1.3v-.3.3z"/><path fill="#C1B381" d="M158 110.5H157.4v-.2c0-.5 0-1 .4-1.3l.8-.4 2.5-.7h-1.4l3-.3a218 218 0 0 0 3.8-.4 153 153 0 0 0 3.8-.5l3.3-.5 2.3-.5.9-.2-1 .1-2.3.2-3.3.4-3.8.4-3.8.5-3.3.5c-1 0-1.8.2-2.4.3h-.1c-.3 0-.6 0-.8-.2a8 8 0 0 1-.5-1l.9-.2 10-1.3 11-1.4v.7l-.1.5c0 .2-.1.4-.4.4a.4.4 0 0 1 .4.2l-4.2.9.3 1.6 4-.9a.4.4 0 0 1 .2.2v.5a.7.7 0 0 1-.2.3h-.2a46 46 0 0 1-3 .5.5.5 0 0 1 0-.1h-.5a19 19 0 0 1-.8.1h-.6a95.3 95.3 0 0 0-7.1.9h.4-.5a57 57 0 0 1-2.8 0l-3.1-.4h-.1l-1.1 1.3"/><path fill="#9C6244" d="m159.6 108.3-2.8-.2h-.1.2l2.3-.5 3.2-.6 3.8-.7 3.7-.6 3.3-.4 2.3-.3h1l-1 .3-2.2.7-3.3.8a82 82 0 0 1-3.7.7 112 112 0 0 1-3.8.5 57 57 0 0 1-2.9.3"/><path fill="#BFC0C5" d="M202.8 109.1a2 2 0 0 1-.7 0l-22.7-6.3-5 .8h-.1l-7.6 1.3c-.4 0-1.7-2.6-1.9-3a26 26 0 0 1-1.5-3.5 27 27 0 0 1-.6-1.5l2-.7a313 313 0 0 0 10.3-3.6l.3 1.2.6 1.6.6 1.4a16.6 16.6 0 0 0 1 2l.5.8-.3-.8a46 46 0 0 1-1-2.1c0-.5-.3-1-.4-1.5l-.6-1.6-.3-1.2.8-.2c1.6-.6 3.2-1.5 4.7-2.2 1.6-.7 3.2-1.5 4.5-2.7 2.5-2.3 3.7-5.7 4.7-9l.3 2.5a68.1 68.1 0 0 0 3.6 15.8 37 37 0 0 0 2.2 4.8c1.5 2.7 3.2 5.4 5.8 7.3q.4.3.9.4zm.5-.5c-.3 0-.6 0-1-.4-1.3-1-2.4-2.1-3.4-3.4l.6.1c.3 0 .5-.2.8-.4a5 5 0 0 0 1-2.5c.4-1.8.6-3.6.7-5.4.6.5 1.3.6 2 .6.8-.1 1.5-.6 2.1-1.3 0 3.3-.2 6.6-1.1 9.7l-.7 2-.4.7a1 1 0 0 1-.6.3m-45.3-2h.3l.4-.2zm1.2-.3zl.6-.1-.5.1zM202 90.6v-.1c.5-.2 1-.3 1.4-.6l-.2.2a7 7 0 0 1-1.2.5m2.5-1.6v-.3a1 1 0 0 0 .2-.2v-.1c.2-.4.2-1 .3-1.4v.9a2.3 2.3 0 0 1-.5 1"/><path fill="#91332F" d="M148.5 108.7a4 4 0 0 1-3-.9h-.1a10 10 0 0 1-2.8-5.5 15 15 0 0 1-.2-1.5v-.2c.2 2.7 1.3 5.5 3 7.1 1 .8 2 1.1 3.1 1zm2-.4a65 65 0 0 1 2.7-.6l-2.7.6m3.9-.9zm0 0-1.6-2.3-.9-1.8-1-2.5-.2-.4 5.5-2a154 154 0 0 0 5.8-1.8l.5 1.7 1.6 3.7c.2.4 1.6 3.1 2 3.2l-7 1.3-.6.1-.5.1-.4.1h-.3a408 408 0 0 0-1.9.5 27 27 0 0 0-1 .1"/><path fill="#7A2C29" d="M148.8 108.7c-1.1 0-2.3-.2-3.2-1a9.4 9.4 0 0 1-3.2-6.5 18.6 18.6 0 0 0 7 0 18 18 0 0 0 1.4-.3l.1.4c.7 1.8 1.7 3.3 2.5 4.5a7.3 7.3 0 0 0 1.2 1.2l.5.4-1.2.2-3 .6-1.7.4a6 6 0 0 1-.4 0m6.2-1.3a11 11 0 0 1-.3-.3 9 9 0 0 1-1-1.4 13 13 0 0 1-.3-.4l1.6 2.1"/><path fill="#A1A2AA" d="M199.9 105a1.2 1.2 0 0 1-.6-.1 33 33 0 0 1-2.4-3.7 35 35 0 0 1-2.3-4.7 41 41 0 0 1-.5-1.4h.3c.8-.1 1.2-.7 1.7-1.4l.9-1.2a7 7 0 0 1 2.3-1.2c1-.4 2.1-.5 3.2-.8a20 20 0 0 1-1.7.6l.6 3.4c.1.8.4 1.4 1 1.9l.2.2a33.4 33.4 0 0 1-.8 5.5 5 5 0 0 1-1.1 2.4l-.8.5m-6.8-25.4c-.8-.3-1.7-.5-2.2-.5a1 1 0 0 0-.2 0l1.8.2z"/><path fill="#91332F" d="M194.3 95.1a2 2 0 0 1-.2 0c-1-2.7-1.6-5.6-2.3-8.5a68 68 0 0 1-1-6 57 57 0 0 1 0-1.5 1 1 0 0 1 .1 0 6 6 0 0 1 2.1.4l2.2.7v3.6c.2.8.3 1.7.7 2.4.6 1 1.5 1.3 2.6 1.4l.5.8-.1-.3a5 5 0 0 1-.2-.5H199.6l2.6-.6.3.7c.3.5.7 1 1.2 1.2.1.2.3.2.5.2a.6.6 0 0 0 .5-.3l-.2.2a4 4 0 0 1-1 1l-1.5.5-3 .8c-.8.3-1.6.7-2.2 1.3-.4.3-.5.8-.8 1.2-.5.6-.9 1.2-1.7 1.3m1.2-1.1-.3-.4a6.7 6.7 0 0 1-.6-1l-.3-.5a12 12 0 0 0-.3-.5l-.3-.5v.6a3.5 3.5 0 0 0 .4 1.2l.4.5.5.4.5.2m2.8-3.7-.1.1a.4.4 0 0 0 0 .3.4.4 0 0 0 .4.2h.1v-.2a.5.5 0 0 0 0-.2.5.5 0 0 0-.2-.2h-.2m1.3 0-.2-.3a10 10 0 0 0-.4-.6 13 13 0 0 0-.5-.6l-.3-.3v.4a1.9 1.9 0 0 0 1 1.3l.4.2m-7.2-11-.4.5a4.1 4.1 0 0 0-.3 1.4v.8l.1.6.3.6v-.6a31.6 31.6 0 0 1 .3-3.4m12.4 9.1a7 7 0 0 0 .2-1.6v.2a6 6 0 0 1-.2 1.4z"/><path fill="#7A2C29" d="M204.1 89.5c-.1 0-.3 0-.5-.2-.5-.3-.9-.8-1.1-1.3a9 9 0 0 1-.4-.8l1.2-.5c.6-.4 1.3-1 1.5-1.8l.2 1.7v.4a8 8 0 0 1-.3 1.8 4 4 0 0 1-.1.4c-.1.2-.3.3-.5.3"/><path fill="#4B556D" d="M203.1 109q-.4 0-1-.3a20.8 20.8 0 0 1-5.9-7.2 35 35 0 0 1-2.3-4.7h.3l.3-.2a34.4 34.4 0 0 0 2.2 4.7l2.3 3.5c1 1.3 2.1 2.5 3.5 3.4l1 .4c.3 0 .5-.1.7-.3l.5-.7.7-2c1-3 1.2-6.3 1.2-9.6l.2-.2-.1 3.2a35 35 0 0 1-.5 4c-.3 1.6-.7 3.3-1.5 4.9-.3.6-.9 1-1.6 1.2M194 96.8c-1.2-3.1-2-6.4-2.7-9.7a63 63 0 0 1-1-5.9 47 47 0 0 1-.2-2.3l.1-.5.2 1.1h.3v.1q0 .8.2 1.5a62.8 62.8 0 0 0 3.1 14.2l.6 1.3-.3.1z"/><path fill="#B4BDC9" d="M174.7 93a19 19 0 0 1-.2-.7l-.4-1.9-.3-1.9-.1-1.9a22 22 0 0 1 0-1.7 20 20 0 0 1 .1-1.6v-.7l.2-.6.2-1 .2-.8-.1.9a11 11 0 0 0-.2 1 19 19 0 0 0 0 1.3v3.2l.1 1.9.3 1.8.4 1.9.1.6z"/><path fill="#8D9DAC" d="m177.4 100-.3-.7a27 27 0 0 1-.3-.9 23 23 0 0 1-.5-1.2l-.4-1.4a36 36 0 0 1-.5-1.6L175 93l.3-.2.3 1.2.4 1.7.4 1.4.7 2.2z"/><path fill="#B4BDC9" d="m178.8 89.4-.2-.3-.2-1.1a23 23 0 0 1-.3-1.6 28 28 0 0 1-.2-1.8 27.2 27.2 0 0 1 0-3.4l.1-1v-.4 1.5a51 51 0 0 0 .5 6.6l.2 1.1v.4m2-7-.2-1a9 9 0 0 1 0-1 11 11 0 0 1 0-1.2 10 10 0 0 1 .2-1 6.9 6.9 0 0 1 .7-1.8v.3l-.2.6a27 27 0 0 0-.5 4.2zm3.2-4.8-.2-.5a4.4 4.4 0 0 1 0-1.1c0-.4.2-.8.3-1 0-.3.2-.4.2-.4v.5l-.1 1-.2 1v.5"/><path fill="#A2312D" d="M155 107.2zm-4.7-6.3c-.8-2-1.1-3.9-.5-5.9v-.2c.2-.1.3-.3.3-.4l.1-.1-.2.6a7 7 0 0 0-.2 3.8c.1.7.4 1.4.7 2.1z"/><path fill="#892D2A" d="M150.1 101a11.7 11.7 0 0 1-.5-2.2 9.4 9.4 0 0 1 0-2.3c0-.6.2-1 .3-1.5-.4 2 0 4 .6 6h-.4"/><path fill="#7E2E29" d="M155 107.2v-.1zm-1.9-2.4a15 15 0 0 1-1.2-1.7 19 19 0 0 1-1.4-2.8l.2-.1.2.4c.3.9.8 1.7 1.2 2.5l1 1.7"/><path fill="#692A27" d="M155 107.2a7 7 0 0 1-.5-.4 8.2 8.2 0 0 1-1.5-1.3c-1-1.2-2.2-2.9-3-4.7l-.2-.4.5-.1a18 18 0 0 0 2.7 4.6l.4.4a9.4 9.4 0 0 0 1.6 1.8z"/><path fill="#BC3A36" d="m148.5 108.7-.5-.3a6 6 0 0 1-.5-.4 6 6 0 0 1-.6-.6 8 8 0 0 1-.7-.8l-.6-.9-.6-1-.5-1.1-.4-1.2-.2-1.1v-1.1a7 7 0 0 1 0-1v-.8a5.6 5.6 0 0 1 .3-1.2v3l.2 1c0 .4.1.7.3 1 0 .5.2.8.3 1.2l.5 1 .5 1.1.6 1 .6.7a10.3 10.3 0 0 0 1 1z"/><path fill="#932E2C" d="M198.6 87.9a7 7 0 0 1-.3 0 5 5 0 0 1-.2-.4c-.3-.7-.6-1.8-.8-2.9a7.5 7.5 0 0 1 0-1.6 5.5 5.5 0 0 1 .3-1.4l.5-1a5 5 0 0 1 .2-.2v.3c-.2.2-.3.6-.3 1a9 9 0 0 0 0 3.7l.1.7.3 1.3.2.5"/><path fill="#712B27" d="m199.5 90.8-.4-.1a2.2 2.2 0 0 1-.9-.7 1.9 1.9 0 0 1-.4-.8v-.5l.4.3a13.8 13.8 0 0 1 1.3 1.8"/><path fill="#E1B078" d="M210.7 98.5c-2.2-2.4-5.5-4.4-8.4-6.4l1.9 5.5c-.9-1.3-1.5-3-2.3-4.5a43 43 0 0 0-2.8-4.3h-.1c1.3.1 8 4.3 9.2 4.8-.6-1-5.5-8-5.3-8 1.2-.5 11-5.4 11.7-6.2-1.3.1-11 3.3-12.6 3.3l2.9-7.2c-1.7.3-6 5.7-7.8 7.2.2 0 1-2 1.2-2.3l1.1-3c.9-2 1.6-4.3 2.4-6.3 0 1.7-.1 3.3-.3 5a46.4 46.4 0 0 0 7-5.8q-2 4.1-3.7 8.3c0-.2.3-.3.8-.3h2a165.3 165.3 0 0 1 10.6-1 137 137 0 0 1-9 8c.4 0 2 1.9 2.2 2l1.8 2 3.9 4.3c-1.3-.8-2.8-.9-4.2-1.1a89 89 0 0 0-4.8-.8z"/><path fill="#712B27" d="m192.2 84.1-.2-.7a6 6 0 0 1-.1-.7 8 8 0 0 1 0-.9 6.3 6.3 0 0 1 .1-1.5l.3-.7v.8a51 51 0 0 0-.1 3v.7m3.2 10.2-.5-.2a2 2 0 0 1-.5-.4 2.8 2.8 0 0 1-.3-.5 3.4 3.4 0 0 1-.4-1.2v-.5l.3.4.2.5.3.5a5.9 5.9 0 0 0 1 1.4"/><path fill="#F8D677" d="M126.1 152v1a33 33 0 0 1-3.8 10.4 20 20 0 0 1-8.1 8.2c.3-.2.5-5.5.6-6.2a41.3 41.3 0 0 1 2-6.7c.7-2 1.9-4 3-5.8.9-1.7 2.2-4 1.9-6l4 .7c.6 0 .5 4 .4 4.5"/><path fill="#C36444" d="m117.2 170.3.6-.6-.6.6m8.7-16.2v-1l.2-.8c0-.5.2-4.3-.4-4.7.6.2.5 4.2.4 4.7v.9l-.2 1"/><path fill="#EFAD5D" d="M117.4 170.3a18 18 0 0 1-.3-1l.9.5-.6.5m8.5-16.1-3.7-1.7 1.2-2.4a3 3 0 0 1-.4.5c.7-1.1 1.5-2.1 2.5-3h.3v.1c.5.4.4 4.2.3 4.6v1l-.2.9"/><path fill="#F8C6CF" d="M165.2 134c-.8 1-1 3.2-1.4 4.5-.4 1.3-.8 2.6-1 4-.7 3-1 6.2-1.6 9.3l-5.3 26c-.2.8-.4 1.7-.9 2.3-1.2 1.6-3.6 1.5-5.5 1.2a94.8 94.8 0 0 1-35.6-13.8c-.2-.4 0-1 0-1.4a47.7 47.7 0 0 1 6.5-14.3l22.9 9.8c.2-6.2 3.6-11.9 6.4-17.5a112.4 112.4 0 0 0 6.2-15c.5-1.7 1-3.4 1-5.1 0-1.8-.4-3.5-.5-5.3-.2-3.3 1-6.8 3.2-9.3.1-.2 2.8.3 3.2.3a51 51 0 0 0 6.7.2c1 0 2.3 0 3-.4-.3 2-1.4 4-3.3 4.9-.5.3-6.8 1.7-6.8 1.3l1.4 11.6a.5.5 0 0 1 0 .2l-.3.3a1.7 1.7 0 0 0-.8 1.4 1.7 1.7 0 0 0 1 1.5c.1 0 0 .2.2.3 1 .4 2 .5 3 .6h2.5c-.5 0-1.8.8-2.3 1-.7.4-1.5.7-2 1.4"/><path fill="#C16F45" d="M124.7 174c-2.2-1-4.3-2.2-6.4-3.5a90 90 0 0 0 6.4 3.5m39.6-40.3.8-.5-.8.5m1.8-1c.4-.3 1-.7 1.5-.8h.3l-1.8.8"/><path fill="#94553C" d="M164.7 131c-.5 0-1-.1-1.4-.4l-.1-.1c.4.3.9.4 1.3.5zm-1.8-.7a1.4 1.4 0 0 1-.4-1.1c0 .3 0 .6.2.8q0 .2.2.3m-.3-1.7.4-.5h.1l-.5.5"/><path fill="#B7A8A3" d="M169.2 131.8c-.8-.2-1.7-.1-2.5-.2h-1.2l-2-.7a.4.4 0 0 0-.1-.2 2 2 0 0 1-.2-.1 2.3 2.3 0 0 1-.4-.5 1.9 1.9 0 0 1-.3-1c0-.3 0-.5.2-.8l.8-.6v-.1a.3.3 0 0 0 0-.1.5.5 0 0 0 0-.3l-1.4-12 .6.1c1.6-.1 5.8-1.1 6.3-1.4 1.9-1 3-3 3.4-5l-.3.1v-.1c-.3.2-.8.3-1.2.3h-1.6l-1.8.1H166l2.6-.4 6-.7a1 1 0 0 0 0 .2v.2l.1 1.3-.1-.1-.1 2.2-.1.6-.6.4-6.3 2.5c-.2 0-.5.1-.6.3l-.3.6-.2 1.2c0 .5.1 1 .4 1.4a2 2 0 0 1-.9-1.5 2 2 0 0 1 .6-1.6c-.1 0-1.7.4-1.7.6a43.5 43.5 0 0 0 1.8 11.4c-.2.8-1.3.8-2 1.2.8 1 2.1 1.4 3.4 1.7l1.9.5a3.2 3.2 0 0 1-.6.5"/><path fill="#B99D67" d="M165.6 110a20 20 0 0 1-.4-.2 39 39 0 0 1 5-1.1 36 36 0 0 1 2.4-.3h1.5c.2 0 .4 0 .5-.2a2 2 0 0 0 0 .3l-6.3.9-2.7.5"/><path fill="#C16F45" d="M156.4 118c-.1-1.8 0-3.7.6-5.3a14.7 14.7 0 0 0-.6 5.3"/><path fill="#F6B0AD" d="m125 174-.1-.1a93 93 0 0 1-7.6-4 19 19 0 0 1-.3-1.8 34 34 0 0 0 3-6.5v-.1l.4-1.3c.6-2 1.1-4.2 1.8-6.1l.6-1.3 20.8 9.1c.3-6.3 3.6-12 6.3-17.6A114 114 0 0 0 156 129a18 18 0 0 0 1.1-5.1 12 12 0 0 0 0-1l-.5-4.2v-.1a13.4 13.4 0 0 1 .8-5.4c.2-.6.5-1 .9-1.6a5.7 5.7 0 0 0 .6 4.2 39 39 0 0 1 3-3.4l2.7.7a10.2 10.2 0 0 0 3-.1c2-.4 4-1.3 4.7-3.6h.2c-.3 2-1.4 3.9-3.2 4.8a37.2 37.2 0 0 1-6.8 1.3l1.4 11.7v.3l-.3.2a1.8 1.8 0 0 0-.8 1.5 1.8 1.8 0 0 0 1 1.5l.2.3c.7.3 1.4.4 2 .5h1c.8.1 1.6 0 2.4.2a1.4 1.4 0 0 0-.3 0l-1.7.8a7 7 0 0 0-.6.3 6 6 0 0 0-.4.2 4 4 0 0 0-.7.5c-.4.3-.8.4-1.3.5a2 2 0 0 1-.2 0c-.8 0-1.5-.4-2.2-.8a19 19 0 0 0-2 3.3 185 185 0 0 0-7.7 16.4c-2.5 6.1-4.7 12.5-4.5 19.1a14.2 14.2 0 0 1-4-3.6l-1-1c-.5-.3-1-.4-1.6-.4a55.4 55.4 0 0 1-12.5-3.6A27.9 27.9 0 0 0 125 174m45.7-64.2a14 14 0 0 1-.5 0h-2.4a49 49 0 0 0 1.8 0h1.5a9 9 0 0 1-.4 0"/><path fill="#E2747B" d="M143.4 156.8v.6l-.1 1.4v2a36.8 36.8 0 0 0 .3 4.7c0 .3 0 .7.2 1l.1 1 .4 1.4.1.5-.2-.5a9 9 0 0 1-.2-.5 8 8 0 0 1-.3-.8 13 13 0 0 1-.2-1l-.3-1-.2-1.2v-1.2l-.1-1.2v-1.2c0-.8 0-1.5.2-2l.2-1.5.1-.5"/><path fill="#FDE7A7" d="m121.9 147.2 3.1.7c-4 3-4.7 8.7-6.2 13.5a33.4 33.4 0 0 1-5.4 10.3c-.8-6.6-7.4-10.7-10.6-16-1.6-2.9-3-6-4-9a51 51 0 0 1-1.1-5c-.2-.5-.4-4.4-.8-4.6a490 490 0 0 0 8.4 4.6 60.3 60.3 0 0 0 16.6 5.5"/><path fill="#EC9731" d="M122.3 153.1a15.8 15.8 0 0 1 .8-2.1l-.8 2.1"/><path fill="#F39551" d="m121.3 154.3.8-1.2h.1l-1 1.2"/><path fill="#C76F33" d="m106.7 141.7-.4-.3a430 430 0 0 1-2.9-1.6l3.3 1.9"/><path fill="#FACA48" d="M116.2 167.3a17 17 0 0 1 0-.5c-.2-1.5-.1-3 0-4.5.2-1.6.3-3 .2-4.2-.2-2.2-.9-4.1-2.9-6.2l-.6-.6c-3.4-3.6-7.2-8-11.6-11.3h.3a584 584 0 0 0 3.8 1.8 63 63 0 0 1 3.2 1.8c3.9 2.4 7.5 5.2 11.4 7.8.3.2.6.3 1 .3.6 0 1.2-.4 1.7-.7l.4-.4-1 1.8-.5 1.2-.7 1.8-1.2 4.1-.4 1.3v.1a32.3 32.3 0 0 1-3.1 6.4"/><path fill="#E31F25" fill-rule="evenodd" d="m32.5 46.3 160.6 160.6 13.2-13.2L45.7 33.1z" clip-rule="evenodd"/><path fill="#F8C6CF" d="m166.9 116 6.3-2.4c.2-.1.5-.2.6-.4l.1-.6v-2.2l3.3 2.3.7.6c.2.3.2.7.2 1l.3 3c0 .4 0 1-.2 1.3-.3.5-1 .7-1.5 1.1 1.6.9 2 3.4.7 4.7a3 3 0 0 1-.3 3.8l-.4.5.2.5c.3.7-.3 1.6-1 2-.7.2-1.6.2-2.4.1l-3.5-.3c-.2 0-.4 0-.6-.2a1 1 0 0 1-.3-.5c-.3-.8-.4-2 .4-2.5-1 0-2-.8-2.2-1.7-.3-1 0-2.1 1.2-2.4-1 .2-2-.9-2.1-1.7-.1-.6.5-2.2 1.4-2.2-.7 0-1.6-.2-1.8-.9-.3-.6-.1-1.3 0-2l.3-.6.6-.3"/><path fill="#BE5A42" d="m176.3 131.3.2-.2a1.3 1.3 0 0 0 .4-.4l-.4.5a.4.4 0 0 1-.2 0m.9-1.6"/><path fill="#F2939D" d="m175.2 131.3.8-.7c.2-.3.2-.8 0-1-.1-.3-.4-.4-.7-.5-1-.3-2.2-.5-3.4-.4a6 6 0 0 0-3 1 3 3 0 0 1 0-.3v-.9c.3-.6.9-.9 1.5-1 .8 0 1.6.2 2.2.3h3.4l.7-.1c.3-.1.5-.5.5-.8-.1-.5-.8-.6-1.3-.7l-7-.3h-.3c-.5 0-1.3.2-1.1.6-.2-.4-.3-.7-.3-1.1 0-.4.1-.8.4-1.1.3-.3.6-.4 1-.4a5 5 0 0 1 1 0c1.6.3 3.2.5 4.8.4a9.6 9.6 0 0 0 1.8-.3l.6-.4c.1-.1.2-.3.1-.6 0-1.5-1.7-2-3-2l-4.4.1h-.3c-1 .1-2.1.3-2.8 1a2.2 2.2 0 0 1 .9-2.1l.4-.2h.8l5.3-.5c1-.1 2.1-.3 2.7-1 .7-1 .2-2.5-.8-3.2-.2-.2-.5-.3-.8-.3a1.3 1.3 0 0 0-.2 0 2.9 2.9 0 0 0-.6.1l-5.7 1.9c-.6.2-1.2.4-1.6.8-.5.4-.8 1-.6 1.6-.5-.7-.4-1.4-.2-2.2 0-.3.1-.5.3-.7l.6-.3 6.3-2.4c.2-.1.5-.2.6-.4l.1-.6v-2.2l3.3 2.3.7.6c.2.3.2.7.2 1l.3 3c0 .5 0 1-.2 1.3-.3.5-1 .7-1.5 1.2a3 3 0 0 1 1.5 2.4c0 .8-.2 1.6-.8 2.2.3.4.5 1 .5 1.5a3 3 0 0 1-.8 2.3l-.4.5.2.5v.5c0 .4-.1.8-.4 1a1.9 1.9 0 0 1-.6.5 2.6 2.6 0 0 1-.4 0h-.1l-.2.1"/><path fill="#E2747B" d="M165.9 118.3v.1l.3.1.4.2h2.1l1.7-.3a22.5 22.5 0 0 1 3.4 0 13 13 0 0 1 1.5.3s-.6 0-1.5.1l-1.5.1-1.8.1-1.8.2-1.6-.1a3 3 0 0 1-.6-.2 1.8 1.8 0 0 1-.4-.3l-.2-.2zm.3 4.2.3.2 1 .4a8.6 8.6 0 0 0 1.5.2l1.8.1 1.8.1 1.6.1c.9 0 1.5.2 1.5.2l-1.5.2a18.6 18.6 0 0 1-3.5.1l-1.8-.2c-.6 0-1.1-.2-1.5-.4a3.3 3.3 0 0 1-1-.7l-.2-.3m1.3 4.1.3.3.9.4H171.6c1.1-.1 2.3 0 3.1.2l1.3.6h-1.4a41 41 0 0 0-3 0H170c-.5 0-1-.1-1.4-.3a2.2 2.2 0 0 1-.9-.8l-.2-.4"/><path fill="#F8D677" d="M113.6 151.3c-5-5.5-10.6-12.6-17.4-15.4-6-2.5-13.6-2.3-20-1.2-.6.1-1.2.3-1.6.8-.4.4-.4 1-.4 1.6a96.7 96.7 0 0 0 1.3 17.2c.9 5.4 2.7 10.5 3 16 .3 4.4.5 8.9-.9 13 0 .3 10.7 1.8 11.7 1.9 9.7.7 21-.2 30-4a16 16 0 0 0 3.8-2.5 12 12 0 0 1-5.2-6.4c-1.2-3-1.4-6.4-1-9.7.4-4.3.4-7.2-2.7-10.6a57 57 0 0 1-.6-.7"/><path fill="#DC633F" d="M95.3 157.2c-.3-2.4-.3-4.8-.4-7.2v-4.3c.7.3 1.4 1 2 1.9 1 1.6 1.3 3.8 1 5.7a5.6 5.6 0 0 1-2.6 4"/><path fill="#CD4B37" d="M77.4 183.8a1 1 0 0 1-.1 0l.2-.6v-.2l.2-.4.1-.2.1-.4.1-.2v-.2l.1-.2v-.2h.1v-.4h.1v-.4l.1-.2v-.4h.1v-.5l.1-.2v-.4l.1-.2v-.8l.1-.2a1 1 0 0 1 .1-.1c-.2 2.2-.6 4.3-1.5 6.4"/><path fill="#DC633F" d="M110.7 183.4a9 9 0 0 1-.8 0 8.9 8.9 0 0 1-2.6-1c0-.4.1-.9-.1-1.3-.3-.6-1-.8-1.7-.8h-.2l-.5.2a9 9 0 0 1-.8-1l.6-3.7c0-.9-.2-2-1-2.3a1 1 0 0 0-.4 0c-.5 0-1 .5-1.3.9-1-2.5-1.8-4.8-1.6-7.6v-1a6 6 0 0 1 2.5-.7c1.4-.1 2.7.2 3.8 1 2.4 1.7 3 5.4 1.7 7.9-.4 1-1 1.9-1.1 3h.2c.6 0 1.2-.5 1.8-.7h.3c.7 0 1.5.2 2 .7a4 4 0 0 1 1.1 2.3c.2 1 0 2.1-.7 2.8l-.9.8a2.1 2.1 0 0 0-.3.5"/><path fill="#CD4B37" d="M107.5 182.6a9.4 9.4 0 0 1-2.6-1.7l.5-.1a3 3 0 0 1 .2 0c.7-.1 1.5.1 1.8.6.2.4.2.8 0 1.2M104 180c-.9-1.2-1.4-2.5-1.9-3.9a65 65 0 0 0-.3-.6c.4-.5.9-.8 1.5-.9h.3c1 .2 1.1 1.3 1 2.1a13.5 13.5 0 0 1-.6 3.3"/><path fill="#DC633F" d="M118.6 174.4a4.8 4.8 0 0 1-3.2-1.8c-1.4-1.8-2.1-4-3.5-5.8-1.5-2-3.5-3.6-5.8-4.1-1.3-.3-2.6-.3-3.7-1-1-.6-1.5-1.8-1.7-2.9-.2-.7-.3-1.6.2-2.2.3-.4.7-.6 1.2-.8a5.5 5.5 0 0 1 3.2 0c-1.5-.5-3-1-4-2.2s-1.6-3-.6-4.1c.6-.9 1.6-1.2 2.6-1.3h.3c2.4 0 4.8 1.1 6.2 3a3.4 3.4 0 0 1 .5-2.6l.5-.4v.1h.1l.2.2.1.2.2.2.1.1.3.4.1.1h.1l.2.3v.1l.2.1v.1h.1v.1h.1v.1l.1.1.1.1v.1h.1l.1.1.1.2h.1v.1h.1v.1l.6.7h.1v.1h.1v.1h.1v.1l.1.1a1 1 0 0 0-.1 0c-.4 0-.7.3-.9.6v.7c.2.8.5 1.6.9 2.2a6.5 6.5 0 0 0-2.2-1.7 2.7 2.7 0 0 0-1.2-.2c-.5 0-1 .2-1.3.6-.5.7-.5 1.7 0 2.4.3.7 1 1.3 1.6 1.8a2.9 2.9 0 0 0-1-.1c-.5 0-.9.3-1 1-.2 1.4.9 2.8 2.2 2.9h1.2a3 3 0 0 1 2 1.3c.5.8.8 1.7 1.2 2.5l.1.4.8 1.4c.2 1.5.5 2.9 1 4.2V172.6l.1.1v.2h.1v.2l.1.1v.2h.1v.2h.1v.2l.1.2h.1v.2h.1v.2h.1v.1z"/><path fill="#CD4B37" d="m116.1 167.3-.7-1.3a15 15 0 0 1-.2-.4c-.3-.8-.5-1.6-1-2.3a2.8 2.8 0 0 0-2-1.2h-1a2.4 2.4 0 0 1-2-2.7c0-.6.4-.9 1-1 .2 0 .5 0 .8.2a6 6 0 0 1-1.6-1.7c-.3-.7-.4-1.6 0-2.2.4-.3.8-.5 1.3-.6a2.5 2.5 0 0 1 1.2.2 6 6 0 0 1 2 1.6 5.7 5.7 0 0 1-.8-2v-.7c.1-.3.4-.5.8-.5h.1l.3.3v.1l.2.2.2.3v.1h.1v.1h.1v.1l.2.2v.2l.1.2.1.1v.1h.1v.2l.1.1.2.3V155.6l.1.1v.2l.1.1v.2l.1.1V156.6l.1.2V157.1l.1.1v.7l.1.1v.2c.1 1.3 0 2.6-.1 4-.2 1.5-.2 3-.1 4.4V167z"/><path fill="#C76F33" d="M114.4 183.2a52 52 0 0 0 1.6-.6l-.5.2-1 .4M82 184.6a44.5 44.5 0 0 0-1.2-.2l1.2.2z"/><path fill="#F39551" d="m102.1 185.1-1.6.1a91 91 0 0 1-10.2 0l-6.7-.8 1.5.2 5.1.5 2.4.1a91 91 0 0 0 6.9 0 83 83 0 0 0 2.6-.1 78 78 0 0 0 4.5-.5 69 69 0 0 0 4-.6 58 58 0 0 0 4.4-1A67.4 67.4 0 0 1 102 185"/><path fill="#F4BB36" d="M109.7 183.5a2.7 2.7 0 0 1 .2-.8 8.8 8.8 0 0 0 5.8-1.6c.2 0 .3.4.2.6a.7.7 0 0 1-.2.2l-1.6.5a53 53 0 0 1-4.4 1.1m-18.3 1.3a87 87 0 0 1-2.4-.1L84 184c.8-.3 1.6-.6 2.2-1 .7-.5 1.3-1.3 1.4-2 .2-1.3-.6-2.4-1.5-3-1-.7-2.2-1-3.3-1.3 1-.4 1.3-1.7.8-2.6-.4-1-1.5-1.5-2.5-1.6a4 4 0 0 0-.6 0 6 6 0 0 0-1.8.4 83 83 0 0 0-.1-1.7c2.3.6 4.6 1 7 1.2.6 0 1.5-5.1 2.1-10a7.9 7.9 0 0 0 2.7 1.3 6 6 0 0 0 1.9.2c1 0 2-.5 2.5-1.4 1-1.4.1-3.3-.9-4.8l-.1-.3c0-.3.4-.5.6-.5l.6-.3v.7l.2 1c.4 2.1 1.2 4.3 2.9 5.6.7.5 1.5.9 1.8 1.6l.1.7c-1.4.7-2.8 2.3-3 3.8-.3 1.4.9 3.6-.1 4.8-.3.3-.7.4-1.1.5-.5 0-1 0-1.4-.2-.7-.3-1.5-.6-2.3-.6h-.2c-1 .2-1.6 1-1.8 1.8-.3.9-.2 1.8 0 2.7.3 2 1.1 3.9 1.4 5.8m-.9-38.7a3.3 3.3 0 0 1-1.6-.3v-1.1a17.2 17.2 0 0 0-.8-3.4l-.9-2a12 12 0 0 0-.9-1.4l1.3.8 1 .5 1 .4 1 .4 1 .2 1 .2 1.2.1h2l1.3 1.4.5.3-1.9 1.3c-.3.2-.7.4-.9.8-.2.3-.2.7-.2 1v.1a3.2 3.2 0 0 0-1.2-.1h-.3c-.7.1-1.4.6-2.1.7a3 3 0 0 1-.5 0"/><path fill="#D5552E" d="M92.3 163.8a4.9 4.9 0 0 1-1.7-.2 6.9 6.9 0 0 1-2.3-1.2l.5-4.3c.2.4.6.7 1 1 .2.1.6.3.9.2.5 0 .9-.4 1-.9.3-.4.3-1 .2-1.4a9.9 9.9 0 0 0-1.3-3.3h.8c.4 0 .8-.1 1.1-.4.5-.5.8-1.2.7-2 0-.5-.3-1-.6-1.4a3.6 3.6 0 0 0-3.1-1.3 28 28 0 0 0-.1-2.3c.4.2.9.3 1.4.3h.4l1.9-.8h.2a2.6 2.6 0 0 1 1.1.2v4c0 2.3.1 4.5.3 6.8a5 5 0 0 1-.5.2c-.2 0-.5.2-.5.5l.1.3c.8 1.4 1.6 3.2.8 4.7-.5.8-1.3 1.2-2.3 1.3m-7.7 20.5-1.7-.2-1.3-.2.7-.3c.7-.5 1.2-1.2 1.2-2a2 2 0 0 0-1.2-1.6 3 3 0 0 0-1.5-.3l-.6.1c.3-.4.3-.9.4-1.4 0-.6 0-1.2-.5-1.7-.2-.2-.6-.4-.9-.3a1 1 0 0 0-.4 0 49 49 0 0 0 0-4c.7-.2 1.3-.4 2-.4h.7c1 0 2.2.7 2.7 1.7s.1 2.4-.9 2.8c1.2.3 2.5.6 3.6 1.3 1 .7 1.8 2 1.6 3.2 0 .9-.7 1.7-1.4 2.2a9 9 0 0 1-2.5 1.1"/><path fill="#A1352D" d="m81.4 184.6-4.1-.7 4.2.6z"/><path fill="#C6422B" d="m81.5 184.6-4.2-.7c.8-2 1.1-4.2 1.2-6.4a1.1 1.1 0 0 1 .5-.1c.3 0 .7 0 1 .3.4.4.4 1 .4 1.7 0 .4-.1.9-.4 1.3l.6-.1c.6 0 1.1 0 1.6.2.7.3 1.2.9 1.3 1.6 0 .7-.6 1.4-1.3 1.8l-.7.4"/><path fill="#CF4433" d="M98.8 185.4a44.6 44.6 0 0 0 0 0m7-.7v-.1a34 34 0 0 0 4-1 34 34 0 0 1-4 1"/><path fill="#D5552E" d="M99.1 185.3a83 83 0 0 1-7 0c-.3-2-1-4-1.4-6-.2-.8-.3-1.8 0-2.6.2-.9.9-1.7 1.8-1.9a2 2 0 0 1 .2 0c.8 0 1.6.3 2.3.6l1.4.2c.4 0 .8-.2 1.1-.5 1-1.2-.1-3.4 0-4.9.3-1.6 1.8-3.1 3.2-3.9v.9c-.2 2.7.7 4.9 1.5 7.3a5.5 5.5 0 0 0-1 2.6c-.2.8-.2 1.8-.8 2.2l-.6.2c-.4 0-.8 0-1.2-.2-.4 0-.8-.2-1.2-.1a1.5 1.5 0 0 0-.4 0c-1 .4-1.2 1.7-.8 2.6.4.9 1.2 1.5 2 2.2.3.4.7.8 1 1.4m7.3-.7c0-.9.7-1.7 1-2.6.8.5 1.6.8 2.5 1h.8a2.7 2.7 0 0 0-.2.9 62 62 0 0 1-4.1.7m-2.8-3.6.6-1.8.8 1-1.4.8"/><path fill="#C6422B" d="M101.9 185.1a82 82 0 0 1-2.8.2c-.2-.5-.6-1-1-1.4-.7-.6-1.5-1.2-2-2.1-.4-.9-.1-2.1.8-2.5a1.5 1.5 0 0 1 .4 0h1.2l1.2.3.7-.2c.6-.5.6-1.4.8-2.2a5.3 5.3 0 0 1 1-2.6l.3.7c.5 1.4 1 2.8 1.8 4a15 15 0 0 1-.6 1.8 7 7 0 0 1 1.5-.8 9 9 0 0 0 2.4 1.8c-.3.8-1 1.7-1 2.6a76 76 0 0 1-4.7.4M91 159.6c-.4 0-.7 0-1-.3a3.8 3.8 0 0 1-1-1 296 296 0 0 0 .7-10.1 3.8 3.8 0 0 1 3.3 1.4c.3.4.6 1 .7 1.5 0 .8-.2 1.6-.8 2.1a2 2 0 0 1-1.2.5 2 2 0 0 1-.8-.1c.6 1.1 1.2 2.3 1.4 3.5 0 .5 0 1-.2 1.6-.2.5-.6.9-1 1z"/><path fill="#D5552E" d="M97.7 142.3a6 6 0 0 1-.4-.2 5.6 5.6 0 0 1-1.1-1.1l1-.1 1-.2 1-.3.8-.3h.3a16.7 16.7 0 0 1-2.6 2.2m-1.6-2h-3l-1.1-.1-1-.3-1-.2-1-.4-1-.4a14 14 0 0 1-1.2-.6 8 8 0 0 0-.3-.4l1 .4 1.3.5c2.2.7 4.6 1 7 1q0 .3.3.5"/><path fill="#56728F" d="m121.8 199 .5-.2-.4-1.2c.5 0 .8-.4 1-.9 0-.4-.1-.9-.3-1.3l-.6-2c0-.3-.2-.7-.5-1-.3-.3-.8-.4-1.1-.2l-.5.2c-.2 0-.1-.4-.1-.7 0-.6-.8-1.1-1.4-1s-1.3.4-1.8.8l.1.9a39.8 39.8 0 0 1-17 1c-5.6-.7-11.3-1.7-17-1.6-.3 0 .2.2-.1.2.5 0 .2 1.8.2 2l-1.4.2a.9.9 0 0 0-.3.1l-.2.4c-.5 1.8 0 3.6.4 5.3.2 1 .5 1.8 1.1 2.6a3 3 0 0 0 2.5 1.2c-1 2.4-2.6 4.4-4.3 6.4-1.7 2-2.6 3.4-4.1 5.5a87.4 87.4 0 0 0 57.3 8.7c-1.4-2.3-2.6-3.8-4-6 .4-.2.3-.9 0-1.3-1-2.4-2.2-4.8-3.7-7l-.5.3c-.9-1.9-1.8-3.7-2.4-5.7l-1.4-5.6"/><path fill="#F8C6CF" d="M65.5 199.5v.1c.6 3 1.2 6.1 1.2 9.2a90.5 90.5 0 0 1-16-14.3 147.3 147.3 0 0 1 18.4-51.1c3.4 2.2 11.8 6 12.3 10.7a296.4 296.4 0 0 1-15.6 43.1c-.2.4-.4.8-.4 1.3v1"/><path fill="#C16F45" d="M66.4 206.7a62 62 0 0 1 0 0M59 165.2c0-.3.2-.6.4-1.1l-.4 1.1"/><path fill="#E2747B" d="M57 192.8h.1l.6-.2a4.8 4.8 0 0 1 2 .4l1.3.6.6.4.6.5a9.5 9.5 0 0 1 2.1 2.6 11 11 0 0 1 1.3 3 13.2 13.2 0 0 1 .5 2.8v2.8-.8a44 44 0 0 0-.4-2 24 24 0 0 0-.7-2.6 15 15 0 0 0-.6-1.5 11 11 0 0 0-.7-1.4 9.4 9.4 0 0 0-.9-1.3l-1-1.1-.6-.5-.6-.5a8.6 8.6 0 0 0-1-.6 5 5 0 0 0-2-.6H57"/><path fill="#FDE7A7" d="M85.8 172.7A42.3 42.3 0 0 1 58.7 159c5.7-4.4 7.8-11.8 10.8-18 1.6-3.4 2.9-5.7 6.7-6.5 3.1-.7 6.7 0 9 2.3 2.3 2.1 3.5 5.2 3.9 8.3s0 6.2-.2 9.3c-.2 1.8-1.9 18.3-3.1 18.2"/><path fill="#F39551" d="M69.8 168.6a21 21 0 0 1-3-2.2 31 31 0 0 1-3.6-3.6 40.7 40.7 0 0 0 6.7 5.8"/><path fill="#C76F33" d="M60.8 161.9c-.8-.7-1.5-1.4-2.1-2.2 4-3.2 6.4-8.1 8.5-13-2 4.9-4.3 9.8-8.5 13l2 2.2z"/><path fill="#F1A423" d="M88.9 142a12 12 0 0 0-1.2-2c.5.6 1 1.2 1.2 2"/><path fill="#FACA48" d="M71 168.5a15 15 0 0 1-.3-.1 43.2 43.2 0 0 1-7.7-5l-1.4-1.2-.9-.8a42 42 0 0 1-2-2.1c4.1-3.1 6.4-7.8 8.5-12.5l1-2.2.3.2a3 3 0 0 0 1.7.3 6 6 0 0 0 .6 0c1.7-.3 3-1.2 4-2.5.4-.4.8-1 1-1.5 0 1 1.3 1.5 2.2 1.6h1.3c2-.2 4-1 5.4-2.4l.5-.6c.5-.5.8-1.1 1.2-1.8l.4.2L88 140v.1l.9 2v1.2c-.6 2.5-1.7 5.5-3.5 7.5a8.7 8.7 0 0 1-5.8 2.6h-.9c-1.7 0-3.6-.8-4.6-2.3a78.5 78.5 0 0 0-5 9c-.7 1.4-1.8 3.3-1.1 5 .2.5.6 1 1 1.5.6.7 1.2 1.5 2 2"/><path fill="#663629" d="M100.8 122.9c1-.6 2-1.1 3-1-.3 1.1-.7 2.4-.1 3.4s2 1.3 3 2c1 .8 1.4 2.2 1.2 3.5a3.3 3.3 0 0 1-2.3 2.6c1.7 1.3 1.2 4-.2 5.2-1 .7-2.1 1-3.3 1.3a6.1 6.1 0 0 1-6.6-2.8c-1.6-2.6-.9-5.5 0-8.2 1-2.6 3-4.7 5.3-6m9-9a5.8 5.8 0 0 1-3.7-.2c-.4-.2-.8-.4-1.1-.8-.7-.8-.6-2-.3-3.1a9 9 0 0 1 2-4.3l1.6-1.9c.4-.3 1.6-.8 1.8-1.1-.9 1.8-1.8 3.7-2 5.7-.3 2 .1 3.1 1.8 4.1.4.3.8.6.7 1 0 .4-.4.6-.7.7"/><path fill="#F8C6CF" d="M69.1 75.5a34 34 0 0 1 9.8-4A21 21 0 0 1 96.3 75c4 3 7 7.5 8 12.4.3 1.2.6 2.5 1.4 3.4 1.3 1.2 3.3 1.1 5 1 .2 1.9-.7 4-2.3 5h-.1v.2l.3.6c.5.6 1.4 1.1 2 .7l.7-.4c.2 0 .4.2.5.3 1.3 1.9 0 3.9-1.3 5.3-1 1.2-2.4 2.2-3.5 3.4a12.5 12.5 0 0 0-2 4.6c0 .5.7.9 1.2 1 1.3.5 2.7.7 4.1.6l.9-.1c.9-.2 2-.3 2.5.2.3.3.4.8.3 1.2l-.7 1c-.3.2-.7.5-1.1.5-.1 1.2.1 2.6.2 3.9 0 .5.1 1 0 1.6-.3 1.1-1.3 1.9-2.3 2.4-2 1.1-4 1.2-6.3 1.6-1.4.2-2.8.4-4 1-1.8.8-2.6 2.3-2.8 4.2a12 12 0 0 0 1.4 6.8c.5 1 1.3 1.9 2.3 2.2a18.5 18.5 0 0 1-11.6-.7c-1.6-.7-3.2-1.6-4.3-2.9l-.2-.3.1-.5c1-2 1.8-4 2.4-6.3.9-4 .4-8-1.5-11.7-.8-1.4-2-2.8-3.7-2.8-1.6.1-2.7 1.7-4.1 2.6a7 7 0 0 1-3.4.9c-10.5.3-17-11-17.2-20.2A23.8 23.8 0 0 1 63.6 80a27.8 27.8 0 0 1 5.5-4.5"/><path fill="#F6B0AD" d="M97 140.3a19 19 0 0 1-8.2-1.2 15 15 0 0 1-1.2-.5c1.4-1 2-2.8 1.6-4.4a5.3 5.3 0 0 0 2.6-.9 9 9 0 0 0 2.5 2c1 .6 2 1 3 1.3a6.8 6.8 0 0 1-.4-1.6 9.9 9.9 0 0 0 1 2.7c.6 1 1.3 1.8 2.4 2l-.4.1c-1 .3-2 .4-3 .5"/><path fill="#C16F45" d="M110 123.6c1-.5 2-1.3 2.3-2.4-.3 1-1.3 1.9-2.3 2.4m2.1-7v-.8a6 6 0 0 0 0 .8m-8.6-31a21 21 0 0 0-2.3-4.5h.1c1 1.4 1.9 3 2.2 4.5"/><path fill="#F6B0AD" d="m104.9 125-3.4-.1c-1.4 0-3-.2-4.3-.8-1-.3-2-1-2.9-1.5a5 5 0 0 0-4-2.6 3.8 3.8 0 0 0 1-.8c1.1-1.3 1.4-3.1.9-4.6-.9-2.3-3.4-3.4-5.7-3.8-1-.2-2-.2-3-.2-1.1.1-2.3.4-3.3 1.1-1.3 1-2.1 2.5-3.5 3.4-.8.6-1.8.9-2.8 1a6.7 6.7 0 0 1-1.8-.1 7.4 7.4 0 0 1-2.7-3 7.4 7.4 0 0 1-.3-5.8 9.4 9.4 0 0 0 2.3 3.7c.7.6 1.7 1 2.6.8.5 0 1-.2 1.4-.5-1-.5-2-1.3-2.6-2.3s-.6-2.4.1-3.4l.5-.3a.7.7 0 0 1 .2 0c.6 0 1 .7 1.3 1.3A5 5 0 0 0 78 109a5 5 0 0 0 1.6.1 5.1 5.1 0 0 0 2.5-.9c.6 0 1.2-.4 1.6-.9.2-.2.4-.6.4-1h.2c.4 0 .8-.2 1-.6q.2-.1.2-.3a6 6 0 0 0 0-6.2 8.9 8.9 0 0 0-5.3-3.7c-1.4-.5-3-.6-4.2-1.5a4.4 4.4 0 0 1-1.5-4.3 5.1 5.1 0 0 1 1-2.3 4 4 0 0 1 2.7-1.4h1.2a9.9 9.9 0 0 0 2.9-.7c.7-.3 1.3-.7 1.8-1.2 1.2-1.4.8-3.4.2-5 2.2 1.3 4.8 1.8 7.4 2l2.4-.1a35.4 35.4 0 0 0 7.1-1.3 22.2 22.2 0 0 1 2.3 4.6v.3c-4.8 0-9.9-.9-14.7-1.3-.4 1.7-1.5 3.3-3 4.4s-3 2-4.6 2.8c3.1.6 6 2.7 7.4 5.6 1.4 2.8 1.3 6.4-.2 9.2 2.3 0 4.5 1.5 5.3 3.6.8 1.9.5 4 .7 6 0 .3 0 .5.2.7.5.8 1.7.1 2.6.5.7.3.8 1.2.8 2s-.3 1.5 0 2.2c.4 1 1.7 1.5 2.8 1.6a18.4 18.4 0 0 0 8.8-1c.4 0 .8-.2 1-.6.2-.3.2-.7.2-1a15.2 15.2 0 0 0-.5-3.7h.1l1.6-.1a7 7 0 0 0 0 .8l.2 2.2v.8c.1.6.2 1.2 0 1.7-.3 1.1-1.2 2-2.2 2.5-1.7.9-3.4 1.1-5.2 1.4"/><path fill="#C94A2C" d="m87.6 138.9-1-.7-.1-.3 1.1 1z"/><path fill="#603227" d="M96.8 135a23 23 0 0 1-.2-1.9 24 24 0 0 1 0-2.1c0-1.4.2-2.5.7-3.4-.4.8-.6 1.7-.7 2.7-.1 1.6 0 3.2.2 4.7m2.6-7.5v-.2c1.5-1.5 3.1-1.9 4.8-2.2l.2-.1c-1.7.4-3.5 1-5 2.5"/><path fill="#EA988E" d="m88 138.8-1.4-.8h-.1c.8-2 1-4.1 1-6.2a15 15 0 0 0 4.8-1.7 7.5 7.5 0 0 0 2-1.6c.5-.7 1-1.5 1.1-2.3a5 5 0 0 0-.5-3.6c1 .6 1.8 1.2 2.8 1.6 1.4.5 3 .7 4.4.8h3.4l-1.3.2c-1.4.2-2.8.5-4.1 1.1h-.1a3.8 3.8 0 0 0-1.2 1c-1 .8-1.3 2-1.5 3.4a14 14 0 0 0 0 2.2l.3 2v.2l.5 1.5c-1.1-.4-2.2-.8-3.2-1.4-.8-.5-2-1.6-2.6-2.4a5.1 5.1 0 0 1-2.7 1 5 5 0 0 1-1.7 5"/><path fill="#fff" d="M107 107.5a4.6 4.6 0 0 0-.7.5c.3-.3.4-.8.6-1.2l1-1.4c1-1.1 2-2 3.2-3l.2 1.5c0 .5 0 1-.3 1.4l-1 .7c-1 .5-2.1.8-3 1.5m-1.3 4.3h-.2a7.4 7.4 0 0 0 3.3-.1c1-.3 1.9-1 2.9-.9.1.6.2 1.2.1 1.8-.8.3-1.6.5-2.5.4a8 8 0 0 1-1-.2c-1-.2-1.9-.4-2.6-1"/><path fill="#BB503C" d="M112.2 116h.3a3 3 0 0 1-.3 0m.5-.2a2.4 2.4 0 0 0 .7-.4 3 3 0 0 0 .2-.2 2.2 2.2 0 0 1-.9.6m1.3-1.3v-.1c.1-.4 0-1-.2-1.2a1 1 0 0 0-.2-.1c.2.1.4.3.5.7l-.1.7m-1.3-1.7a5 5 0 0 0-.5 0h.5m-1.1-11.3c.7-1.2 1-2.7.2-4a1 1 0 0 0-.4-.3c.4.2.6.6.7.9.3.7.3 1.5.1 2.2l-.6 1.2m-.8-4.1c.1-.2.2-.2.4-.3l-.4.3"/><path fill="#EF808B" d="M112 116h-1.3a7 7 0 0 1-.9 0 7.8 7.8 0 0 1-3.1-1 9 9 0 0 1-1.8-1.5c-.5-.5-.8-1.3-1.4-1.7-.2-.1.1-1.4.1-1.6l.4-1.6c.7-2.5 2-4.8 3.7-6.7l1.7-2c.6-.6 1-1.5 1.4-2.2a2 2 0 0 1 .2-.4l.4-.2a.5.5 0 0 1 .2 0 .9.9 0 0 1 .3.4c.8 1.3.5 2.8-.2 4a5 5 0 0 1-.4.4 21.2 21.2 0 0 0-4.3 4.5c-.2.4-.4 1-.7 1.3l.4-.4a22.5 22.5 0 0 0-1.3 3.3l-.1.7c0 1 1.3 1.3 2.3 1.5a19.5 19.5 0 0 0 2 .4h1q.6 0 1.1-.2h.3l.3-.2h.5c.3 0 .6 0 .9.2l.1.2c.3.3.4.7.3 1.1a2 2 0 0 1 0 .2l-.5.7a3 3 0 0 1-.2.2 2.2 2.2 0 0 1-.5.4 2 2 0 0 1-.2.1 1.1 1.1 0 0 1-.4 0 4.8 4.8 0 0 1-.4.1"/><path fill="#EEA6A8" d="M106.3 108c.3-.3.4-.8.6-1.2l1-1.4c1-1.1 2.1-2 3.3-3a8 8 0 0 1-1 .8 12 12 0 0 0-3.5 4.5l-.4.3"/><path fill="#D06448" d="M107.6 96.4v-.1m.9-.8a5.6 5.6 0 0 0 1-1.4v.1a5.1 5.1 0 0 1-1 1.2 1 1 0 0 1 0 .1"/><path fill="#F29CAE" d="M108.3 96.3a1.2 1.2 0 0 1-.4-.2 1.1 1.1 0 0 1-.4-.5 1.1 1.1 0 0 1 .2-1l.5.1c.6 0 1.1-.6 1.3-1 .2-.6.4-1.2.9-1.7v.5a4.6 4.6 0 0 1-.5 1.8 4.8 4.8 0 0 1-.8 1.2l-.7.6a.4.4 0 0 1-.1 0v.1a.3.3 0 0 0 0 .1m-11.1 8.2c-1.6.1-3-.2-4.4-1-.9-.6-1.6-1.6-1.7-2.6 0-1.6 1.4-2.8 2.8-3.5a14.2 14.2 0 0 1 5.2-1.5c1.3 0 2.6 0 3.8.3.5 0 1 .2 1.3.6l.3.7c.3 2-.9 3.9-2.4 5a9.1 9.1 0 0 1-5 2"/><path fill="#3D3847" d="M102 93c0 1-3.2.8-4 .6h-.2V93a5.5 5.5 0 0 0-2 0c.4-.6 1-.8 1.7-1 .8-.3 1.8-.5 2.7-.3.6 0 2 .4 1.9 1.2"/><path fill="#8C432D" d="M93.7 88.5c-1.2.2-2.4.8-3.4 1.6L89 91c-.5.3-1 .5-1.6.4.7-.5 1.2-1.3 1.7-2 1.1-1.5 2.5-2.8 4.3-3.4 1.7-.6 3.7-.5 5.2.5L98 86c1.4-.5 2.7.7 3.3 1.7.4.7 1 2 .3 2.6-.4.3-1 .1-1.4 0-2-1-4.1-2-6.4-1.8"/><path fill="#E2747B" d="m66.6 112.5.9 1.1c1.8 1.8 4.2 3 6.7 3.1-1.9-.6-3.5-2-4.3-3.7a7.6 7.6 0 0 1-.3-5.8 9.5 9.5 0 0 0 2.2 3.6c1 1 2.7 1.3 3.8.4-1-.6-2-1.4-2.5-2.4s-.6-2.4.1-3.3l.5-.4c.6-.2 1.1.7 1.4 1.3a5 5 0 0 0 3.2 2.6 4.8 4.8 0 0 0 3.9-.7c-3.3-1.7-3.8-6.4-5.8-9.3a8 8 0 0 0-2.8-2.6 5.5 5.5 0 0 0-4.7 0 8.1 8.1 0 0 0-4 4.4c-.7 1.8-1 4-.6 6 .3 2 1 4 2.3 5.7"/><path fill="#8C432D" d="M68.4 105.5v-.5c0-.4 0-.9.3-1.5a2.1 2.1 0 0 1 1.8-1.2 3 3 0 0 1 1.3.2c.4.1.8.4 1.1.6a16 16 0 0 1 1.9 1.6c.5.5 1 1.1 1.2 1.6.7 1 1 1.8 1 1.8l-.4-.4a24.4 24.4 0 0 0-4.1-4c-.6-.5-1.3-.8-2-.8a1.6 1.6 0 0 0-.8.2 1.9 1.9 0 0 0-.6.6 5 5 0 0 0-.6 1.3z"/><path fill="#8C432D" d="M73.6 106.3h-.3a1.7 1.7 0 0 0-.9 1v.6c-.1.4 0 .8.1 1.2a3.7 3.7 0 0 0 .7 1c.2.4.5.6.8.8a3.4 3.4 0 0 0 1 .5h-.3a2.5 2.5 0 0 1-.9-.2 3 3 0 0 1-1-.7 3.4 3.4 0 0 1-.5-.5 4 4 0 0 1-.4-.7c-.2-.5-.2-1-.2-1.5a2 2 0 0 1 .7-1.2l.9-.3h.3"/><path fill="#8C432D" d="m44.7 50.5-2.2.5-1 .3h-1.1c-11-.8-22.1 7-24.6 17.7l-.3 1.6a18.2 18.2 0 0 0 4.8 15 4.6 4.6 0 0 0-4.1 2.9c-.7 1.6-.4 3.6.6 5.1 1 1.6 2.5 2.7 4.2 3.3 3.5 1.4 7.7.8 10.7-1.5-.6.9 0 2.2.9 2.7 1 .5 2 .5 3.1.3 3.1-.5 6.1-1.8 8.5-3.8 2.5-2 3.8-4.6 5-7.6a31.7 31.7 0 0 0 0 14.8 20 20 0 0 0-11.3-.1c-4.7 1-8.8 2.8-12.1 6.3-3 3.1-4.7 7.3-4.5 11.6.1 5 2.8 9.8 7 12.7 3.8 2.7 9.3 3.5 13 0-1.6 1.5-1 5 .5 6.2 3.4 2.4 8.8.8 11.7-1.8a5.7 5.7 0 0 0-1.8 4.7c.5 4.8 5.9 5.7 9.7 4.3a17.1 17.1 0 0 0 5-3c-.2.2 1.3 1.1 1.4 1.2.8.4 1.5.4 2.4.3 2.3-.4 4-2 5-4 0 1 1.3 1.5 2.2 1.6 2.5.2 5-.7 6.7-2.4 2.2-2.2 2.8-5.4 2.8-8.3 1.6-.4 3.3-.8 4.7-1.6a6.3 6.3 0 0 0 3-3.8c.7-2.7-1.6-5.8-4.4-6 1.8-1 2.4-3.4 1.8-5.2-.9-2.4-3.4-3.4-5.6-3.8-2.1-.4-4.4-.3-6.2 1-1.3.8-2.1 2.3-3.4 3.2a6 6 0 0 1-4.8.9c-1.6-.4-3-1.4-4.2-2.5a11.7 11.7 0 0 1-3.4-8 9 9 0 0 1 1.3-5c1-1.4 2.4-2.5 4.1-2.9 2.8-.5 5.7 1.3 7 3.8.6 1.3.8 2.7 1.4 4 .5 1.3 1.4 2.5 2.7 3 1.3.4 3.1-.4 3.2-1.8.6 0 1.1-.4 1.4-.9 1.2-1.8 1.1-4.3 0-6.1s-3-3.1-5.2-3.7c-1.4-.4-3-.5-4.2-1.4a4.3 4.3 0 0 1-1.5-4.2c.4-2 2-3.8 4-3.7a9.7 9.7 0 0 0 3.7-.7c.7-.3 1.4-.7 1.9-1.3 1-1.3.7-3.3 0-4.9 2.3 1.3 4.8 1.9 7.4 2 2.5 0 5.1-.3 7.6-.9 2-.5 4-1 5.5-2.4 1.7-1.6 2.5-4 2-6.3a6.8 6.8 0 0 0-4.4-5c1.8-2.9-.4-6-3-7.6a11 11 0 0 0-6.2-1.3 13.6 13.6 0 0 0-7.7 3c-1.7 1.5-3 3.3-4.6 4.8a4 4 0 0 1-1.3.8c-.6.3-1.2.2-1.8.2-4.5 0-9 .8-13.1 2.8a18.7 18.7 0 0 0-8.4 6.8c.3-2.4 2.1-4.3 3.3-6.5a12.6 12.6 0 0 0 1.3-8.5c-.5-2.3-1.4-4.6-3.3-6.2-.2-.3-.7-.6-1-.7-.4 0-1 0-1.1.2a13.3 13.3 0 0 0-10.7-4.2"/><path fill="#B26342" d="M58.5 146.3c-3.5.2-7-1-7.4-4.3-.1-1.3.4-2.7 1.5-3.7-1 1-1.6 2.4-1.5 3.7.4 3.3 3.9 4.5 7.4 4.3a12.8 12.8 0 0 0 3-.6 20.1 20.1 0 0 0 5.4-2.7c-.2.1.6.6 1.1.9-.5-.3-1.3-.8-1.1-.9a20.1 20.1 0 0 1-5.5 2.7l-3 .6"/><path fill="#DAA239" d="M70 144.4c-.5 0-1 0-1.7-.3a4 4 0 0 1-.3-.2l.4.1c.5.3 1.1.4 1.7.3h.6a7 7 0 0 1-.6 0m9.4-2.4H78c-1 0-2.2-.5-2.1-1.5 0 1 1.2 1.4 2.2 1.5h1.3c2-.1 4-1 5.5-2.4l.5-.5a8 8 0 0 1-.5.6 9.2 9.2 0 0 1-5.5 2.3"/><path fill="#B26342" d="M46.3 140.9c-1.7.1-3.3-.2-4.6-1.2-1.5-1-2-4.3-.8-5.8-1.3 1.5-.7 4.7.8 5.8 1.3 1 3 1.3 4.6 1.1 2.5-.1 5-1.3 6.6-2.8l-.1.1c-1.7 1.5-4.1 2.6-6.5 2.8"/><path fill="#CB7568" d="M87 131.5c1.6-.2 3-.6 4.4-1.3a7 7 0 0 0 1.8-1.2 7 7 0 0 1-1.8 1.3 16 16 0 0 1-4.3 1.2"/><path fill="#B26342" d="M35.8 135.3c-2.7.2-5.5-.7-7.7-2.2a16 16 0 0 0 0 0c2.2 1.5 5 2.4 7.7 2.2 1.9-.1 3.7-.8 5.2-2.2h-.1a8.4 8.4 0 0 1-5.1 2.2"/><path fill="#D58A80" d="m90.4 119.7 1-.8a3.8 3.8 0 0 1-1 .8m-8.1-11c.6 0 1.2-.3 1.6-.7-.4.4-1 .7-1.6.8m2.2-1.8a1 1 0 0 1-.2 0h.2c.4 0 .8-.3 1-.6-.2.3-.6.6-1 .6"/><path fill="#B26342" d="M27.4 105.5a27.2 27.2 0 0 0 0 0"/><path fill="#D58A80" d="M76.5 88.1a4.1 4.1 0 0 1 3-1.1h.7c1-.1 1.9-.3 2.8-.6a11.3 11.3 0 0 1-3.6.6H79a4.1 4.1 0 0 0-2.6 1.1"/><path fill="#B26342" d="M101.2 81a8.1 8.1 0 0 0 3.4-2.6l.5-.8-.5.9a8 8 0 0 1-3.4 2.6"/><path fill="#D58A80" d="M94.1 82.6h-2.4c-2.5-.2-5.2-1.2-7.4-3.3v-.1a12.5 12.5 0 0 0 9.9 3.4 23 23 0 0 0 7-1.8 18 18 0 0 1-1.8.7c-1.7.6-3.5 1-5.3 1.1"/><path fill="#C55A5B" d="M82 108.8a2.8 2.8 0 0 1-1-.1c-1.4-.4-2.3-1.7-2.9-3s-.8-2.6-1.4-3.8A7 7 0 0 0 70 98a6 6 0 0 0-.6.1l.7-.1a7 7 0 0 1 6.5 3.8c.6 1.2 1 2.6 1.5 3.8.5 1.3 1.4 2.5 2.8 3h1.2a3 3 0 0 1-.2 0"/><path fill="#7A392A" d="M58.6 146.3c-3.3.2-6.6-1.1-7-4.9-.1-1.5.4-3 1.3-4.1l.5-.5-.1.1.1-.1a12 12 0 0 1-6.9 3c-1.7 0-3.4-.3-4.8-1.3-1.5-1-2-4.3-.8-6h.2v-.1a8.4 8.4 0 0 1-5.3 2.3c-2.6.2-5.5-.7-7.7-2.3a16.2 16.2 0 0 1-7-12.6c-.1-4 1.4-7.9 4-11l.6-.6a20 20 0 0 1 2.6-2.3c2.4-1.8 5.3-3 8.4-3.7h.8l.5-.1c-4 3.1-6 8.7-4.6 13.6.7 2.7 2.4 5.3 5.2 6.2a7 7 0 0 0 2.6.3 7.2 7.2 0 0 0 3.7-1.4 50 50 0 0 0 0 5.8c.4 4.3 2.7 6.9 7.1 7a19.2 19.2 0 0 0 8.8-2c-1.3 1.2-2.8 2.7-2.7 4.6.1 1.7 1.9 3.1 3.6 3a3 3 0 0 0 .6-.1c1.4-.5 2.4-1.7 3-3a18 18 0 0 0 2.1-8.8 8 8 0 0 1 3 3.2 6 6 0 0 0-1.5-6.8c-2.7-2.2-6.3-2.5-8.7-5.3a18.5 18.5 0 0 1-3.3-7c-.7-2.9.1-6.2 1.3-8.9.6-1.3 1.3-2.6 2.4-3.6 1-1 2.2-1.3 3.3-2-1.8-2.5-3.3-4.4-2.6-7.8.5-2.8 2.3-5.2 4.5-7l1-.8a18.4 18.4 0 0 1 9.8-3.4c.7-2.3 3.2-3.6 5.7-3.8h1.3c2.9.2 5.5 1.6 8.2 2.5 1.5.5 3.3.8 5 .7 2.6-.2 5-1.4 5.2-4.4 0-.6 0-1.3-.4-1.8-.3-.4-.8-.6-1.2-.9a7.6 7.6 0 0 0-5.1-.5c.5-1 1.6-1.8 2.6-2.6 1.5-1.2 2.3-2.9 1.5-4.7-1-2.4-3.8-4-6.4-3.9 2.4-.1 4.2 0 6.4 1.3 2.5 1.5 4.7 4.7 3 7.5 2.1.8 3.9 2.7 4.4 5 .4 2-.2 4-1.5 5.6l-.5.6c-1 1-2.3 1.5-3.7 1.9h-.1l-1.8.5c-1.7.4-3.4.7-5.2.8a23 23 0 0 1-2.4 0c-2.6 0-5.1-.6-7.3-1.9.6 1.7 1 3.6-.1 5-.5.6-1.2.9-1.9 1.2a9.8 9.8 0 0 1-3.6.6 4 4 0 0 0-.3 0c-1.1.1-2 .7-2.7 1.5a5 5 0 0 0-1.1 2.3c-.3 1.5.3 3.2 1.5 4.1 1.2 1 2.8 1 4.2 1.5 2 .6 4 1.8 5.2 3.6s1.2 4.4 0 6.2l-.2.2c-.2.3-.6.6-1 .6a1 1 0 0 1-.2 0 1.8 1.8 0 0 1-.4 1c-.4.5-1 .7-1.6.8a2.6 2.6 0 0 1-1.2 0c-1.3-.5-2.2-1.7-2.8-3s-.8-2.7-1.4-4a6.8 6.8 0 0 0-6.3-3.8 5 5 0 0 0-.6 0c-1.4.3-2.6 1.1-3.5 2.2l-.7.9a9 9 0 0 0-1.2 4.9c0 3 1.3 5.8 3.3 7.9a8.9 8.9 0 0 0 4.3 2.4c.6.2 1.3.2 2 .2 1 0 1.9-.4 2.7-1 1.3-.9 2.2-2.4 3.5-3.3 1-.7 2-1 3.2-1 1-.1 2 0 3 .1 2.2.4 4.7 1.4 5.5 3.7.6 1.5.3 3.3-.7 4.5l-1 .8c2.8.1 5.1 3.2 4.4 6-.2.7-.6 1.5-1.1 2a7.4 7.4 0 0 1-2 1.6c-1.4.9-3 1.3-4.6 1.6 0 2.8-.5 5.7-2.3 7.8a7 7 0 0 1-.5.5 8.8 8.8 0 0 1-5.4 2.4 8.4 8.4 0 0 1-1.3 0c-1 0-2.2-.6-2.1-1.6a10.4 10.4 0 0 1-1.1 1.6 6.8 6.8 0 0 1-4 2.4 6 6 0 0 1-.7 0c-.6.1-1.1 0-1.7-.3a5 5 0 0 1-.3-.2c-.5-.3-1.3-.8-1.1-1a17.2 17.2 0 0 1-5.1 3l-2.7.6"/><path fill="#B26342" d="M48.2 94.4c-.5-1.9.4-4.9.8-6.8a32 32 0 0 0-.8 6.8m8-18.1c.5-2.2 2.2-4 3.3-6l-2.4 4c-.4.7-.6 1.4-.8 2m-41-6.9c.7-3 2.3-7.3 4.9-9.4-2.3 2.7-4 5.9-4.9 9.4m40-14.6a13.5 13.5 0 0 0-10.4-4.2h-.4l1-.1c1.4-.1 3.3.4 4.4.9 2 .7 3.8 2 5.4 3.4"/><path fill="#7A392A" d="M34.9 98.6a4 4 0 0 1-2.3-.4c-.6-.3-1.1-1-1.2-1.7 0-.4.1-.7.3-1-1.7 1.3-3.8 2-6 2.2A11 11 0 0 1 21 97a8.6 8.6 0 0 1-4.2-3.3 6.3 6.3 0 0 1-1-2.9 5.3 5.3 0 0 1 .4-2.3 4.6 4.6 0 0 1 3.8-3h.3c-2.8-3.2-4.7-7-5-11a17 17 0 0 1 .2-3.8 20 20 0 0 1 .3-1.6c.8-3.5 2.5-6.7 4.8-9.3q.5-.5 1-.7A22.6 22.6 0 0 0 23.2 79a3.2 3.2 0 0 1 2.8-2.7h.4c2 0 3.4 2 4.2 4a29.4 29.4 0 0 1 1.8 5.1c.4 1.9.8 3.9 2.1 5.2a16.2 16.2 0 0 1 1.8-6c.5-1 1.3-2 2.3-2h.2c.8 0 1.4.7 2.2 1.1.6.4 1.4.5 2.1.4 1.2 0 2.4-.6 3.5-1.3 2.7-1.7 4.7-4.3 6.5-7 1.6-2.4 3-5 3.8-7.7a13 13 0 0 0-.4-8.5 4 4 0 0 1-1 2.8c-1-2.7-2.2-5.3-4-7.4-2.3-2-4-3.6-7-4.3a2.4 2.4 0 0 1 .3-.2h.4c3.9-.3 7.5 1.4 10.3 4.2l.6-.2h.5c.4.1.8.4 1 .7 1.9 1.6 2.8 3.9 3.3 6.2L61 63a12.7 12.7 0 0 1-1.5 7c-1 2-2.7 3.7-3.1 5.9l-.9 1.6a95 95 0 0 0-3 4.6c-.6.9-1 1.9-1.4 2.8-1.4 2.8-2 6-2.7 9 0-2.3.3-4.6.8-6.8a17 17 0 0 1-5 7.6 18 18 0 0 1-9.3 3.9"/><path fill="#663629" d="M47.8 96.6v-1a13 13 0 0 1-.2-1 11 11 0 0 1 0-1.3 20.5 20.5 0 0 1 .2-3.4l.4-2 .6-1.9.7-1.8.9-1.8a18.8 18.8 0 0 1 3.6-4.6l.7-.7-.6.8-.6.8-.8 1-.9 1.4-.8 1.6-.8 1.7-.7 1.9-.6 1.8-.4 1.9-.3 1.7a20 20 0 0 0-.2 1.6 28 28 0 0 0-.1 2.4zM55.1 54l.6.4.7.6.7.8.8 1 .8 1.3.6 1.5.4 1.5.2 1.6c.1.6 0 1 0 1.6v1.4a9 9 0 0 1-.4 1.3c0 .4-.2.8-.3 1a7 7 0 0 1-.4.8l-.3.7.2-.7.2-.8.2-1 .1-1.3v-2.9l-.2-1.5-.4-1.5-.6-1.4c-.2-.4-.3-.9-.6-1.3l-.6-1a11 11 0 0 0-.7-1 6 6 0 0 0-.5-.6 21 21 0 0 1-.5-.5M31 52.7l1.2-.5 1.5-.4a20 20 0 0 1 2-.5A24 24 0 0 1 38 51a17.1 17.1 0 0 1 7 .8l1.3.5 1.4.7 1.3.8.6.4.5.4 1 1c1.4 1.4 2.3 3 3 4.2l1.3 3.4.5 1.2-.6-1.2a55 55 0 0 0-1.6-3.2c-.7-1.2-1.7-2.7-3-4a11 11 0 0 0-1-.8l-.6-.5-.5-.4a10.4 10.4 0 0 0-1.3-.7l-1.2-.6-1.4-.6a30 30 0 0 0-1.3-.4 19 19 0 0 0-2.8-.4 23.8 23.8 0 0 0-7 .4l-1.4.4zM18.4 83l.5.8a31.8 31.8 0 0 0 2.4 3.4l.6.8s-.3 0-.7-.4c-.5-.2-1-.7-1.5-1.4a8 8 0 0 1-1-2.1l-.3-1.1m50.4-14.6.6-.2 1.8-.5a21.3 21.3 0 0 1 2.6-.4 27 27 0 0 1 3-.1c1 0 2 0 3 .2a24 24 0 0 1 2.4.5 19.4 19.4 0 0 1 2.3.7l-.6-.1-1.8-.3L81 68l-1.3-.1-1.4-.1a34 34 0 0 0-1.5 0h-2.9a41 41 0 0 0-4.3.5 25 25 0 0 1-.7 0m26.2.5 1.6-1c.9-.6 2.3-1.3 3.8-1.4a6 6 0 0 1 2.3.2 5 5 0 0 1 1.7 1l1 1c0 .4.2.6.2.6l-.4-.4a4.8 4.8 0 0 0-1-.8 6.2 6.2 0 0 0-1.7-.6 6.7 6.7 0 0 0-2-.1c-1.4 0-2.7.6-3.7 1l-1.8.5m-56 66.3.7-.5a39.3 39.3 0 0 0 2.7-2.4l.6-.5s0 .3-.3.8a4.7 4.7 0 0 1-2 2 4.8 4.8 0 0 1-.8.4l-.9.2m12 4.4.7-1a14.4 14.4 0 0 1 1.9-1.8 14 14 0 0 1 2.2-1.4 7.3 7.3 0 0 1 1-.5s-.3.4-.8.9a29 29 0 0 1-2 1.7 29 29 0 0 1-2 1.5l-1 .6m12.9 5.3.4-.2 1-.8c.7-.7 1.3-1.8 2-3a44 44 0 0 0 1.6-3.3l.6-1.5-.2 1.6a14 14 0 0 1-2.4 5.2l-1.3 1.3a4 4 0 0 1-1.6.7zm9.3-1.7.6-.8a14.5 14.5 0 0 0 1.8-3.8l.4-.9v1a6.5 6.5 0 0 1-.2 1l-.4 1.2a6.6 6.6 0 0 1-.7 1 4.7 4.7 0 0 1-.7.7 3.5 3.5 0 0 1-.5.5h-.3m13.2-6.1.2-1.5.1-1.5V132a6 6 0 0 1 0-1 3 3 0 0 1 .5-1.2 4.6 4.6 0 0 1 .7-.8 5.7 5.7 0 0 1 1-.8l-.2.3-.6.8-.3.5-.2.3-.2.4c-.1.4-.2 1-.1 1.5v1.8a9.7 9.7 0 0 1-.4 1.6l-.5 1.4"/><path fill="#fff" d="M117.6 104a87 87 0 0 1 6.4-8.4c.2-.3.5-.6.9-.5.4 0 .5.6.4 1 0 .3-.4.6-.6.9zm1.2 2a63 63 0 0 1 6.8-2.4l.8-.2h.4l.2.3c0 .3 0 .7-.2 1a.9.9 0 0 1-.3 0zm9.4 6.7c-2.7-1.3-5.6-2-8.2-3.6 3 .6 5.9 1.2 8.6 2.4l-.1 1-.1.2h-.2"/><path fill="#4A5B77" d="M117 225.8c.6-6.1.6-11.6.3-17.7l-18 1.3h-.1c-1.8.1-3.6.3-5 1.3a9.5 9.5 0 0 0-3 3.6c-1.2 2.3-1.5 4.1-2.3 6.6l-2.2-.8c.5-2 .6-3.2 1.3-5l-.7-.3c-.7 1.8-.9 3.1-1.4 5a74 74 0 0 1-9.4-4.3c1.4-2 2.4-3.5 4-5.4 1.7-2 3.4-4 4.3-6.4a7 7 0 0 0 1.3 0 .5.5 0 0 0 .2 0c.2-.2.2-.4.2-.5v-1.4c-.5 0-1-.3-1.4-.7 1.6.2 3.6.1 4.3.1l2.7.1.3 1.6c0 .1 0 .3.2.4h1.1a12.6 12.6 0 0 0 3-.6 6 6 0 0 1-.7-1.3h6.8c0 .4.1.9.3 1.3.1.3.2.6.5.8.4.3.9.3 1.3.2h2a.3.3 0 0 0 .2-.1l.1-.3v-1.5l-.2-.5a57 57 0 0 0 2.2 0 37 37 0 0 0 4.2-.6l.2.2c.4.3 1 .4 1.6.3a5.2 5.2 0 0 0 1.5-.3c.7-.3 2.1-.6 2.2-1.5a1.8 1.8 0 0 0 0-.4l.4-.2.1.3h.2a10.4 10.4 0 0 0 1.8-.1l1.3 5.6c.6 2 1.5 3.9 2.4 5.8l.5-.4c1.4 2.2 2.6 4.6 3.7 7l.2.5c0 .4 0 .7-.3.8l.9 1.4c.3.8.6 1.5 1.2 2l.2.3c-1.5.4-2.4 1.1-3.1 3-1.2.2-2.6.5-3.7.5l-3 .2.2-1.6v-7a208 208 0 0 0-.5-7l-.7-6a78 78 0 0 0-.3-2.4c0-.2 0-.5-.3-.6a.5.5 0 0 0-.3 0h-.3l-.8.5-1 .6-.4.3 1.5-.8.8-.3a1 1 0 0 1 .2 0 .3.3 0 0 1 .2 0l.1.3.2 2.4.5 6a219.1 219.1 0 0 1 .5 14l-.2 1.6h-1.3c.1-.7.3-.8.3-1.7l.2-4.2a88 88 0 0 0-.1-4.3c0-1.4-.2-2.7-.3-3.7l-.4-3.6V224l-.2 1.8h-2.2m11.8-7.7-.7-1.3-1.4-2.8-1.4-2.8a33 33 0 0 0-.6-1.3s0 .6.3 1.4a15.6 15.6 0 0 0 3.8 6.8M91 204.9a45 45 0 0 0-2.7 6.6l.7.3a44.3 44.3 0 0 1 2.7-6.6z"/><path fill="#454D67" d="m92.7 222.6.6-.6 1.6-1.6c2.6-2.5 2.4-2.4 5.1-4.7l1.3-1a27 27 0 0 0 2.7-2.7l.5-.7-.1.2-.3.6a9.4 9.4 0 0 1-1.4 1.8l-2.3 2.3c-2.5 2.4-2.5 2.2-5.2 4.5l-1.8 1.4zm1.1 1 3.7-2.9c3.4-2.8 2.8-2.4 5.2-4.6l1.7-1.5-.5-1v-.2c.3-.2.5-.7.3-1 .2.3.1.8-.2 1.1l.7 1.1v.2c-3.3 3.5-3.2 3.8-7 6.4a45 45 0 0 1-3.9 2.4"/><path fill="#E31F25" fill-rule="evenodd" d="M.4 108.6A122 122 0 0 0 0 119a120 120 0 0 0 205 84.8l-17.6-8.2A102 102 0 0 1 18 119v-2.3z" clip-rule="evenodd"/></svg>