<svg xmlns="http://www.w3.org/2000/svg" width="240" height="240" fill="none"><path fill="#E31F25" fill-rule="evenodd" d="M120 240c66.274 0 120-53.726 120-120S186.274 0 120 0 0 53.726 0 120s53.726 120 120 120" clip-rule="evenodd"/><path fill="#fff" fill-rule="evenodd" d="M120 221.344c55.971 0 101.344-45.373 101.344-101.344S175.971 18.656 120 18.656 18.656 64.029 18.656 120 64.03 221.344 120 221.344" clip-rule="evenodd"/><path fill="#F8C6CF" d="m86.78 198.368.27.771c.132.406 6.462.245 7.328.325 2.647.242 5.299.3 7.954.276 5.329-.05 10.664-.408 15.991-.031a246 246 0 0 1-6.596-28.477c-.094-.561-.208-1.162-.611-1.554-.436-.426-1.091-.492-1.693-.532-10.71-.702-21.895-.523-31.53-5.365 1.123.572.793 5.028 1.01 6.132.647 3.276 1.433 6.532 2.257 9.768a226 226 0 0 0 5.62 18.687"/><path fill="#C16F45" d="M116.437 189.33a216 216 0 0 1-.561-2.242q.304 1.119.633 2.23zm-31.681-1.201q-.594-1.86-1.146-3.733l.05.007a207 207 0 0 0 1.096 3.726"/><path fill="#F6B0AD" d="M101.582 192.533a83 83 0 0 1-1.23-.115c-4.833-.48-9.65-1.249-14.507-1.321a234 234 0 0 1-1.16-3.293q-.555-1.7-1.075-3.408c2.903.378 6.162.764 6.676.795 3.385.205 6.788.225 10.18.043q.81-.043 1.619-.103c4.345-.321 8.657-1.008 12.841-2.169q.46 1.851.989 3.686.269 1.027.548 2.051c-1.084.164-2.164.28-3.243.36-4.3.318-8.567.073-12.903.124q.675 1.661 1.265 3.35"/><path fill="#8C432D" d="M101.018 195.543c5.001.206 10.05.409 14.956-.584 1.045-.212 2.114-.964 3.094-1.43-.088.041 1.558 3.893 1.134 4.556-.258.405-.672.649-1.077.863-5.111 2.692-11.04 2.661-16.736 2.578l-4.992-.072c-2.302-.033-4.605-.067-6.905-.193-1.19-.066-5.726.223-6.126-1.152-.477-1.64-1.062-3.441-.975-5.178 1.13.206 2.51-.012 3.686.036l4.719.195z"/><path fill="#F8D677" d="M118.057 199.125a.8.8 0 0 1-.203.307c-.62.631-1.817 1.179-2.424.208-.208-.334-.304-.742-.384-1.142a23 23 0 0 1-.296-1.849c-.097-.821.168-1.021.766-1.266q.39-.16.789-.293c.093-.032.19-.062.287-.082.208-.043.418-.044.601.075.272.177.391.555.476.904.218.9.357 1.825.413 2.754.007.13.013.263-.025.384m1.231-.111c-.204-1.333-.247-2.717-.552-4.032-.239-1.034-.624-1.82-1.245-2.214-.365-.232-.812-.327-1.359-.256-1.028.133-2.38.642-3.033 1.632-.41.62-.346 1.5-.247 2.287q.216 1.719.539 3.417c.12.631.28 1.312.72 1.706.816.728 2.184.467 3.052.071.666-.303 2.119-.681 2.203-1.687.026-.307-.031-.617-.078-.924"/><path fill="#749EC1" d="M85.073 194.77c-.014.185-.116.354-.207.521-.778 1.411-.928 3.08-.413 4.566.382 1.101 1.281 2.188 2.565 2.312l-.02 1.427c-.002.172-.017.367-.165.478-.115.087-.277.094-.427.096-2.636.043-4.322-.855-5.225-3.126-.426-1.072-.587-2.214-.746-3.346-.147-1.049-.286-2.16.198-3.134a.7.7 0 0 1 .211-.28.9.9 0 0 1 .32-.128c.728-.183 4.005-.687 3.91.614M93.574 203.629c-.133.002-.276-.004-.388-.107-.112-.102-.17-.279-.211-.449-.253-1.04-.103-2.236-.552-3.16-.108-.224-.249-.423-.327-.666-.077-.242-.086-.509-.094-.768q-.076-2.385-.148-4.768c.34.1.71-.122.868-.522l1.217.007c.393.001.824.02 1.135.359.473.516.434 1.462.377 2.253-.179 2.46-.054 5.149 1.073 7.187a7.6 7.6 0 0 1-2.95.634M102.727 199.2l-.481-4.063c-.013-.106-.02-.224.052-.306.054-.061.139-.086.22-.108a9.1 9.1 0 0 1 3.366-.245c.1.012.208.029.283.092.09.077.109.201.124.315q.291 2.397.732 4.774c.095.51.201 1.035.506 1.466.151.214.352.406.429.652.053.165.045.342.037.514l-.049 1.01c-.005.108-.018.23-.11.298-.063.046-.149.053-.229.058l-2.198.141c-.495.031-1.038.051-1.431-.226-.293-.207-.445-.541-.563-.866-.406-1.127-.549-2.322-.688-3.506M116.713 191.186c-.02.262.025.922.002.928.356-.091.772-.162 1.051.154.545.617.651 1.873.874 2.694.369 1.353.696 2.775.74 4.202.004.133.017.29.106.363l.128.044c.182.024 1.891-.013 1.825-.31-.508-2.294-1.024-4.611-1.928-6.71-.102-.238-.21-.475-.276-.732-.101-.394-.108-.842-.313-1.166-.409-.646-1.096-.384-1.578-.108-.221.126-.501.263-.616.552z"/><path fill="#3D415A" d="m89.485 211.31-.758-.191a40 40 0 0 1 3.045-6.289l.71.29a40 40 0 0 0-2.997 6.19M120.156 223.988c-.015-1.368-.024-2.827-.054-4.286l-.086-4.286-.098-3.743-.076-2.652-.025-1.008s.206 1.452.4 3.646c.087 1.097.198 2.378.268 3.752.077 1.374.121 2.842.15 4.308.018 1.466.426 1.448.394 2.819-.475 5.187-.909 3.152-.873 1.45M128.061 217.922s-.399-.395-.895-1.078c-.501-.675-1.086-1.648-1.564-2.682a16.6 16.6 0 0 1-1.035-2.963c-.204-.837-.255-1.415-.255-1.415s.261.513.606 1.278l1.27 2.79 1.295 2.777c.358.761.578 1.293.578 1.293"/><path fill="#4A5B77" d="M85.073 204.273c-1.148.015-2.24-.597-2.956-1.431a5 5 0 0 1-.33-.429c.806 1.036 1.89 1.629 3.286 1.86M121.909 199.443c-.51-2.57-1.031-5.163-1.91-7.52-.065-.174-.132-.346-.189-.525a.2.2 0 0 0 .08.069q.029.01.055.009c.101-.008.188-.142.277-.228a.4.4 0 0 1 .246-.113c.223-.017.469.159.634.421.231.367.344.858.45 1.332l.529 2.364c.084.372.168.757.196 1.14q.019.244.001.485c-.042.537-.296 1.058-.651 1.084h-.009l.297 1.477zM111.562 194.949a88 88 0 0 1-5.618.217 58 58 0 0 1-.094-.695c-.012-.094-.029-.196-.114-.258-.07-.051-.171-.064-.266-.073a9.816 9.816 0 0 0-3.178.232c-.077.019-.157.04-.208.091-.07.068-.064.165-.052.252l.056.448-1.689-.017-4.909-.053c.044-.492-.012-.987-.459-1.278-.385-.251-.934-.249-1.437-.236l-1.555.041c-.173.251-.513.42-.861.445q-.136.011-.267-.009l.002.988-.43-.005-5.073-.055c-.475-.005-.982.021-1.495.047q.06-.109.125-.215c.084-.137.177-.277.19-.427.061-.675-1.108-.747-2.14-.671-.596.044-1.146.138-1.386.194a.9.9 0 0 0-.29.106.6.6 0 0 0-.193.231 2 2 0 0 0-.069.13c.047-.131.105-.268.232-.358a1 1 0 0 1 .347-.132 9.6 9.6 0 0 1 1.417-.224v-.004c-.007-.086.11-.76.078-1.215-.018-.245-.081-.427-.23-.416l-.027.004c.065-.013.087-.026.086-.039 0-.027-.105-.053-.106-.08 0-.013.022-.026.086-.04 5.853-.213 11.636.611 17.44 1.079 3.41.275 6.898.421 10.324.168 2.396-.178 4.763-.55 7.051-1.21a4 4 0 0 1 .443-.06c.297-.022.586.005.801.157.489.346.664.977.825 1.54l-.283.118c-.226-.379-.529-.669-.938-.841-.339-.143-.752-.204-1.251-.167l-.164.015c-1.077.121-2.502.52-3.209 1.25-.258.266-.35.592-.366.93q-.572.053-1.146.095M119.689 191.192l-.031-.033c-.27-.305-.206-.673-.85-.9a2 2 0 0 0-.135-.043c.642.122 1.074.315 1.091.563a.3.3 0 0 1-.007.081c-.028.094-.079.206-.072.303q0 .015.004.029M116.707 191.413l-.078-.466q.073-.079.148-.156a.5.5 0 0 0-.066.134l-.01.068c-.005.098 0 .27.006.42m.278-.821c.185-.16.381-.28.597-.296h.004l.045-.001c-.181.016-.367.114-.52.214q-.06.038-.126.083"/><path fill="#703B2A" d="M109.437 201.418a48 48 0 0 1-2.225.112q-.072-.103-.138-.211c-.279-.463-.381-1.024-.472-1.57a99 99 0 0 1-.61-4.195c1.784.023 3.566-.005 5.337-.136q.544-.04 1.087-.094a7 7 0 0 0 .069.945q.207 1.608.521 3.197c.099.5.225 1.033.527 1.408a33 33 0 0 1-4.096.544m-6.375.129a97 97 0 0 1-.939-.013l-5.104-.076-.572-.009c-.62-1.756-.639-3.783-.444-5.676.02-.189.039-.386.048-.584l4.669.195 1.606.065.417 3.757c.086.783.175 1.57.319 2.341m12.974-1.798c-.383.028-.747-.098-1.004-.487-.205-.312-.299-.693-.377-1.067q-.18-.859-.285-1.731c-.093-.768.17-.956.765-1.188q.389-.152.785-.278.14-.048.285-.078.083-.017.164-.023c.151-.011.3.009.433.09.269.165.386.519.469.846.213.841.347 1.707.399 2.577a1 1 0 0 1-.027.359.7.7 0 0 1-.202.288c-.353.34-.894.654-1.405.692m-23.382 1.62q-1.35-.038-2.696-.113c-.721-.04-2.643.047-4.175-.168-.418-.47-.728-1.095-.913-1.721a7.27 7.27 0 0 1 .173-4.559 17 17 0 0 1 1.42-.022q2.413.102 4.826.203l.409.017.078 3.503c.005.26.012.528.102.769.091.244.258.441.387.665.247.429.335.919.389 1.426m26.272-2.317q-.026-.197-.059-.392c-.197-1.248-.234-2.543-.532-3.774a5.5 5.5 0 0 0-.313-.95l.265-.147c.059.256.115.502.181.718.42 1.377.79 2.825.825 4.28l.003.072-.059.032z"/><path fill="#C5B164" d="M115.721 202.005c-.587.044-1.176-.064-1.61-.451a1.6 1.6 0 0 1-.184-.2c-.305-.402-.434-.972-.536-1.506a56 56 0 0 1-.54-3.417 8 8 0 0 1-.073-1.009c.004-.468.082-.918.321-1.278.653-.99 2.005-1.499 3.033-1.632q.078-.01.156-.016c.477-.035.874.062 1.203.272.397.251.697.663.925 1.197q.192.455.32 1.016c.305 1.316.348 2.699.553 4.033.021.139.044.279.06.418.02.168.032.338.017.506-.084 1.006-1.536 1.384-2.203 1.687a4.3 4.3 0 0 1-1.442.38m1.035-7.021a1 1 0 0 0-.164.023q-.147.033-.287.082-.399.133-.789.294c-.599.245-.863.445-.766 1.265q.11.933.296 1.85c.08.4.176.807.384 1.142.26.416.628.553 1.013.524.514-.038 1.057-.372 1.411-.732a.8.8 0 0 0 .203-.307c.038-.121.032-.254.025-.384a15.7 15.7 0 0 0-.413-2.754c-.085-.349-.204-.728-.476-.905a.7.7 0 0 0-.437-.098"/><path fill="#5780A6" d="M86.535 204.165a8.867 8.867 0 0 1-1.463-.065l.012-.031a2 2 0 0 1-.171.008c-1.243-.196-2.207-.703-2.923-1.592-.486-.683-.768-1.48-.981-2.275-.215-.805-.447-1.648-.58-2.497l-.003-.014a22 22 0 0 1-.066-.496c-.089-.829-.063-1.659.184-2.463q.038-.088.08-.176a.74.74 0 0 1 .212-.28.9.9 0 0 1 .32-.127c.267-.067.875-.177 1.535-.226 1.144-.085 2.441.014 2.38.84-.014.184-.116.354-.208.521a5.646 5.646 0 0 0-.414 4.565c.206.588.557 1.173 1.036 1.609.419.38.934.646 1.533.704l-.02 1.427c-.002.172-.017.367-.165.477a.55.55 0 0 1-.298.091M94.051 203.609a8 8 0 0 1-.477.02c-.133.001-.276-.005-.388-.108-.112-.101-.17-.279-.211-.448-.135-.555-.155-1.155-.213-1.734-.05-.505-.13-.995-.339-1.426-.109-.224-.249-.423-.327-.667-.077-.242-.086-.508-.094-.768l-.109-3.489-.04-1.278a.6.6 0 0 0 .21.022c.272-.02.532-.226.659-.544l1.217.007c.393.001.824.02 1.135.359.361.394.424 1.037.408 1.671q-.008.299-.031.582c-.137 1.883-.096 3.902.437 5.659a8 8 0 0 0 .636 1.528 7.6 7.6 0 0 1-2.473.614M107.633 203.655l-.026.002-2.198.141c-.495.031-1.038.051-1.431-.226-.293-.207-.445-.541-.563-.866a9.6 9.6 0 0 1-.363-1.314c-.151-.722-.239-1.459-.325-2.191l-.416-3.518-.065-.545c-.013-.106-.02-.225.053-.306.053-.062.138-.086.219-.108a9 9 0 0 1 3.366-.245c.1.012.208.028.283.091.09.077.109.201.124.315q.051.424.107.848.263 1.97.625 3.926c.095.511.201 1.036.506 1.466q.072.1.151.196c.113.143.225.287.278.456.053.165.045.342.037.514l-.049 1.011c-.005.107-.018.229-.11.297a.4.4 0 0 1-.203.056M120.438 199.552c-.385.028-.75.03-.829.019l-.129-.044c-.075-.06-.096-.178-.103-.293l-.003-.07c-.044-1.426-.373-2.849-.744-4.202a11 11 0 0 1-.16-.705c-.15-.722-.314-1.531-.721-1.988-.18-.201-.415-.245-.655-.227q-.181.016-.357.061l.016-.007-.065-.356a6 6 0 0 1-.002-.552l.015-.09a.7.7 0 0 1 .105-.176q.158-.14.323-.266.1-.058.194-.11c.238-.134.524-.266.803-.29.264.003.538.127.748.333q.023.031.043.063c.207.324.214.773.315 1.167l.011.042c.01.093.031.174.075.228.058.157.126.309.193.461.9 2.072 1.417 4.357 1.923 6.623l-.353.234.012.061c-.187.04-.425.067-.655.084"/><path fill="#DA9D5D" d="m206.716 113.924-7.625-17.268c1.759 1.91 3.491 3.966 5.069 6.276q-.464-3.457-.927-6.916c2.196 2.92 4.614 5.4 7.164 7.348a199 199 0 0 1-2.285-7.38 83 83 0 0 0 7.639 1.907c-1.382-3.487-3.005-6.762-4.825-9.738l3.449-.256c-1.273-1.382-2.631-2.544-4.039-3.456a97 97 0 0 0 6.903-7.967l-12.313.239a313 313 0 0 0 3.613-12.203 193 193 0 0 1-5.955 6.768c-.325.35-1.597 1.286-1.66 1.848q.305-2.693.481-5.437l.002-.038a179 179 0 0 1-5.252 6.935c2.675-5.467 4.846-11.564 7.357-17.236a250 250 0 0 1-.969 9.36 379 379 0 0 0 11.174-10.132l-5.732 17.036a158 158 0 0 0 17.15-.558c-3.187 4.373-6.988 7.522-10.758 10.638 3.417 2.922 10.594 8.543 10.594 8.543s-8.571-1.085-10.202-1.293c3.235 6.07 6.716 11.824 10.409 17.206-4.859-2.24-9.727-4.485-14.48-7.434l3.259 10.974c-3.167-3.253-6.2-6.876-9.06-10.822.876 4.289 1.487 8.67 1.819 13.056"/><path fill="#fff" d="M203.425 66.351a285 285 0 0 1 2.486-13.027c.333.07.576.569.612 1.038s-.081.917-.197 1.343zM211.819 113.633c.062.15.134.314.256.377.232.12.433-.188.549-.455a64 64 0 0 0-3.842-7.364 1430 1430 0 0 0 3.037 7.442M160.412 108.44c-.174.05-.328.133-.416.283-.095.165-.077.366-.056.553q.577 5.081 1.19 10.156c.337 2.794.688 5.611 1.65 8.264-.037-.102-.875.621-.948.752-.278.501-.188 1.241.136 1.695.617.865 1.782 1.186 2.865 1.362 3.333.542 6.811.288 10.03-.731.222-.071.454-.152.608-.321.189-.209.218-.505.235-.779.278-4.348-.199-8.7-.676-13.027-.322-2.876-.56-5.74-.774-8.609-.093-1.255-11.979.159-13.466.333a2.5 2.5 0 0 0-.378.069"/><path fill="#FDE7A7" d="M177.335 108.063a.3.3 0 0 0 .171-.125c.049-.08.044-.18.037-.273l-.131-1.82c-.027-.382-.163-.875-.547-.89.287-.016.377-.391.386-.677l.05-1.503c-3.572.427-7.119.86-10.682 1.33-3.698.486-7.368.96-11.089 1.166-.302.017.443 2.105.615 2.293-.063.054-.121.057-.194.062q-.028 0-.058.004.097.941.301 1.866c.063.284.144.584.357.782.296.276.752.272 1.157.252 1.481-.074 2.87-.303 4.344-.489 2.04-.256 4.07-.588 6.112-.829 3.033-.358 6.001-.498 9.02-1.11z"/><path fill="#CD8252" d="M156.706 108.139s.31-.044.851-.124c.54-.066 1.305-.242 2.223-.418l3.136-.681c1.151-.238 2.382-.444 3.612-.66l3.62-.55c1.158-.151 2.239-.295 3.165-.416.925-.136 1.704-.189 2.244-.264l.855-.082-.826.316c-.529.171-1.28.464-2.194.708s-1.979.555-3.128.801c-1.149.261-2.381.479-3.612.694-1.233.19-2.467.377-3.627.514-1.159.147-2.248.23-3.183.297-1.875.108-3.136-.135-3.136-.135"/><path fill="#FDE7A7" d="m153.598 86.454.518-.264a.5.5 0 0 1 .249-.076.5.5 0 0 1 .243.11c.597.418 1.085.95 1.684 1.365a545 545 0 0 1 10.641-5.662c.156-.081.326-.165.501-.139.179.028.317.166.439.296l1.696 1.796c-.132-.14-2.789 1.58-3.063 1.75-.906.56-1.945.983-2.891 1.51a313 313 0 0 1-11.315 6.01c-1.515.766-3.057 1.441-4.586 2.153.092-.042.269-.95.337-1.096.14-.3.299-.603.452-.9a5.6 5.6 0 0 1 1.484-1.809l.098-.114v-.124c-.035-.193-.487-2.812-.37-2.826z"/><path fill="#EBC186" d="M155.282 89.179c-.06-.352-.454-2.64-.253-2.942l.044-.03.003-.002c.067-.007.134.053.193.118.215.235.408.54.614.799.061.077.54.743.681.878l.028.031c-.436.394-.875.754-1.31 1.148M166.692 84.856a9 9 0 0 1 .089-1.432c.053-.347.148-1.537.663-1.652l.025-.004c.123-.014.235.066.324.14q.902.766 1.732 1.588-1.415.683-2.833 1.36"/><path fill="#CD8252" d="m150.239 91.264 1.415-.782 3.134-1.68 3.165-1.628 1.449-.722-1.414.782-3.135 1.679-3.165 1.629z"/><path fill="#fff" d="M152.449 91.006s.715-.558 1.841-1.293c.561-.372 1.224-.79 1.946-1.22.364-.21.731-.44 1.119-.652l1.169-.65 1.189-.62c.39-.209.788-.388 1.166-.575a37 37 0 0 1 2.114-.937c1.255-.517 2.136-.771 2.136-.771s-.728.541-1.866 1.258a57 57 0 0 1-1.96 1.193c-.365.207-.733.435-1.122.644l-1.169.646-1.185.621c-.39.209-.785.392-1.161.58-.758.37-1.474.699-2.099.963a25 25 0 0 1-2.118.813M151.523 89.448s.051-.273.19-.536c.132-.28.355-.544.614-.721.261-.174.558-.263.816-.246.251 0 .46.099.46.099s-.05.274-.189.538c-.132.28-.355.542-.615.719-.261.174-.558.26-.816.245-.251 0-.46-.098-.46-.098"/><path fill="#fff" d="M179.028 102.879a505 505 0 0 0-30.058 5.522c-1.253.269-2.588.006-3.567-.818-2.414-2.032-3.476-6.136-2.854-9.135.295-1.419 1.505-2.083 2.739-2.689a507 507 0 0 0 29.051-15.417l19.203-18.463a1.803 1.803 0 0 1 2.452-.053c2.25 2.023 6.754 7.671 9.262 21.768 2.499 14.044.541 21.358-.713 24.303a2.06 2.06 0 0 1-2.432 1.169z"/><path fill="#BC3A36" d="M166.06 105.255c-2.918.551-5.769 1.045-8.499 1.586a590 590 0 0 0-8.611 1.785c-1.243.265-2.567.011-3.537-.792-2.39-1.98-3.437-5.984-2.814-8.913.295-1.386 1.496-2.037 2.723-2.63 5.758-2.784 10.509-5.165 17.097-8.69-.371.198-.677 1.582-.784 1.994-.197.756-.254 1.582-.298 2.359-.137 2.383.447 4.783 1.281 7.02.432 1.159.956 2.285 1.559 3.368.19.343 1.579 2.97 1.883 2.913"/><path fill="#9F312D" d="m148.885 108.654-.066.007q.2-.025.396-.066.845-.177 1.69-.351-.783.172-1.559.335a5 5 0 0 1-.461.075m4.976-1.009q.611-.123 1.222-.243l.013.016-.564.115a31 31 0 0 0-.671.112m-5.635-6.21a18.7 18.7 0 0 1-5.811-.236 8.7 8.7 0 0 1 .18-2.495c.324-1.417 1.616-2.089 2.934-2.702a604 604 0 0 0 5.432-2.554l.005-.006.044-.02a9.4 9.4 0 0 0-.425 1.435 6.7 6.7 0 0 0-.366 1.463 8.9 8.9 0 0 0-.005 2.38c.093.742.29 1.504.553 2.252a17.5 17.5 0 0 1-2.541.483"/><path fill="#D7D3D5" d="M202.652 97.162a4 4 0 0 1-.225-.184c-.56-.5-.81-1.1-.96-1.811a62 62 0 0 1-.622-3.45 20 20 0 0 0 1.724-.465 43 43 0 0 1 .083 5.91m-5.994-16.173c-.498.058-.958.069-1.359 0-.272-.048-1.16-.38-2.099-.662l-.598-.218c-.149-.053-1.277-.211-1.818-.256-.307-3.759-.153-7.539.794-11.175.188-.149.423-.25.719-.285q.16-.019.346-.01c.807.04 1.506.523 2.094 1.046 3.249 2.89 4.947 6.747 5.967 10.784-.611.09-1.243.23-1.869.367l-.027.005.028-.08-.065.089c-.734.161-1.456.319-2.113.395"/><path fill="#BC3A36" d="M204.614 88.434c.3-.961.276-2.174.241-3.012a11.2 11.2 0 0 0-1.368-4.924c-.935-1.685-3.068-1.203-5.104-.732-1.203.279-2.373.553-3.242.375-.608-.125-4.564-1.996-4.399-.65.29 2.375.599 4.727 1.104 7.066.603 2.789 1.169 5.584 2.088 8.284a.5.5 0 0 0 .096.187c.082.084.207.089.32.09.895.003 1.257-.68 1.758-1.343.288-.38.466-.862.804-1.2.587-.585 1.386-.969 2.138-1.258 1.549-.594 3.553-.63 4.875-1.744.327-.275.545-.678.689-1.14"/><path fill="#DE9592" d="M204.741 84.181a14.4 14.4 0 0 0-.909-3.138 2.6 2.6 0 0 0-.256-.473c.11.15.201.338.283.524.421.95.712 2.008.882 3.087"/><path fill="#9F312D" d="M204.927 87.157q0-.173.004-.339c.008-.357-.228-1.157-.124-1.453-.232.663-.758 1.166-1.343 1.486a6.4 6.4 0 0 1-1.01.435 10.15 10.15 0 0 1-.691-4.298c.029-.462.197-1.638.641-2.119a.6.6 0 0 1 .368-.206.6.6 0 0 1 .307.054 1 1 0 0 1 .296.21q.174.186.312.438c.497.912.85 1.91 1.05 2.94q.076.433.115.868c.057.647.102 1.32.075 1.984"/><path fill="#56728F" d="m194.076 96.63.25-.096c-1.181-3.111-1.96-6.33-2.659-9.698a66 66 0 0 1-.957-5.814c-.648-5.6-.414-11.299 1.764-16.525.211-.51.521-1.147.898-1.656a3.2 3.2 0 0 1 .604-.637c.211-.16.424-.258.639-.282.303-.033.641.06 1.06.436 2.167 1.959 6.59 7.5 9.066 21.438.3 1.694.557 3.396.754 5.105.243 2.096.396 4.201.432 6.308.059 3.495-.174 7.06-1.124 10.414-.164.578-.365 1.315-.652 1.904-.142.293-.306.548-.485.726-.18.179-.363.28-.573.305-.252.03-.583-.052-1.022-.368-2.453-1.766-4.112-4.328-5.588-6.986a36 36 0 0 1-2.157-4.67zl-.25.096a36 36 0 0 0 2.189 4.74c1.487 2.675 3.183 5.315 5.744 7.161.502.363.968.515 1.396.465.353-.04.652-.219.89-.458.358-.362.606-.861.806-1.378.198-.517.345-1.055.467-1.486.971-3.428 1.204-7.045 1.144-10.57a64 64 0 0 0-.435-6.36 86 86 0 0 0-.759-5.138c-2.49-14.02-6.96-19.689-9.234-21.744-.49-.446-1.003-.628-1.481-.57a1.84 1.84 0 0 0-.9.387c-.793.61-1.336 1.715-1.673 2.514-2.226 5.345-2.456 11.14-1.802 16.794.229 1.98.566 3.942.965 5.862.701 3.38 1.485 6.627 2.683 9.78z"/><path fill="#BFC0C5" d="M169.938 131.721q-.511.038-1.022.059l.065-.04.028.004-.026-.005q.302-.183.557-.433l-1.816-.515c-1.162-.329-2.401-.709-3.175-1.664.638-.404 1.638-.444 1.829-1.19.065-.255.003-.524-.059-.78-.826-3.416-1.657-6.876-1.641-10.393.001-.197 1.519-.531 1.663-.555a2 2 0 0 0-.585 1.553c.042.573.344 1.122.802 1.452a2.3 2.3 0 0 1-.328-1.313c.002.261.039.517.128.762.252.691 1.037.893 1.696.923h-.002l-.06.003c-.821.06-1.32 1.55-1.236 2.184.099.758 1.052 1.764 1.889 1.702a1 1 0 0 0 .126-.018 1.5 1.5 0 0 0-.841.483 1 1 0 0 0-.074.071c-.279.297-.357.664-.33 1.04-.008.238.021.484.087.722.264.957 1.165 1.69 2.128 1.733-.504.278-.647.869-.601 1.482q.002.184.016.366l.029-.022c.042.232.106.459.184.667.066.175.143.356.285.472.163.132.382.157.59.177l3.343.317q.27.027.547.045a19 19 0 0 1-.85.234c-1.099.245-2.22.394-3.346.477M167.389 109.82a28 28 0 0 1-2.176-.171q.239-.047.478-.097.849.17 1.698.268m7.144-1.31q0-.138.011-.271l.011-.001.019.267z"/><path fill="#C1B381" d="m158.003 110.515-.363.022q-.101.006-.204.008a.2.2 0 0 1-.03-.026c-.044-.05-.044-.119-.043-.182.008-.492.046-1.044.459-1.383.225-.185.529-.275.823-.358l2.477-.708h-1.412l.014-.001c.881-.065 1.872-.144 2.919-.249a218 218 0 0 0 3.814-.411 153 153 0 0 0 3.804-.505c1.212-.174 2.338-.38 3.303-.543.966-.164 1.763-.347 2.323-.458l.876-.198-.898.076c-.568.06-1.385.118-2.357.226l-3.326.341-3.808.43c-1.295.161-2.591.317-3.803.487l-3.307.48c-.967.128-1.774.251-2.342.306l-.153.017c-.279-.005-.564-.03-.785-.169l-.019-.012a8 8 0 0 1-.42-1.076l.834-.118c3.231-.45 6.566-.874 9.965-1.343l-.005.001-.019-.001q5.524-.711 11.059-1.347l-.034.723q-.024.247-.043.495c-.047.194-.152.373-.359.388h-.005a.44.44 0 0 1 .333.163l-4.175.868.311 1.615q2.007-.392 4.003-.836a.44.44 0 0 1 .152.128l.033.457q.004.045.004.092a.7.7 0 0 1-.175.248l-.041.015-.153.036a46 46 0 0 1-3.058.456l-.011.001a.5.5 0 0 1 .039-.092c-.022.041-.207.067-.454.085a19 19 0 0 1-.849.036c-.274.006-.503.01-.575.015l-.004.001a95.343 95.343 0 0 0-7.119.858l.399.023-.463.062a57 57 0 0 1-2.882-.115c-.339-.021-2.457-.379-3.049-.335q-.114.007-.145.038-.577.604-1.056 1.269"/><path fill="#9C6244" d="m159.639 108.29-.014.001q-1.389-.097-2.779-.192-.07-.004-.143-.012l.151-.021c.561-.067 1.354-.245 2.307-.424l3.253-.689c1.194-.241 2.471-.45 3.747-.67 1.278-.19 2.556-.38 3.755-.56 1.2-.155 2.321-.301 3.282-.424.959-.139 1.767-.195 2.327-.271l.887-.084-.857.318c-.549.172-1.328.468-2.277.714-.948.246-2.053.561-3.246.81-1.191.263-2.469.484-3.746.703a112 112 0 0 1-3.762.524 57 57 0 0 1-2.885.277"/><path fill="#BFC0C5" d="M202.82 109.131c-.232.02-.471 0-.707-.065l-22.724-6.272q-2.47.378-4.937.783l-.148.022.001.002-.005.001q-3.817.626-7.621 1.314c-.332-.037-1.677-2.66-1.863-3.007a26 26 0 0 1-1.561-3.473 27 27 0 0 1-.523-1.583q1.017-.324 2.029-.658c3.424-1.129 6.818-2.347 10.202-3.594.115.396.239.782.356 1.16.191.568.387 1.112.599 1.617.209.506.406.985.61 1.415.192.438.388.828.571 1.17.178.343.334.642.474.882l.436.754-.349-.799a46 46 0 0 1-.872-2.12c-.179-.438-.348-.923-.527-1.434-.183-.51-.339-1.06-.527-1.62-.111-.387-.23-.78-.339-1.184l.756-.28c1.626-.6 3.202-1.43 4.792-2.152 1.587-.72 3.161-1.529 4.468-2.714 2.529-2.296 3.717-5.688 4.723-8.91q.083 1.186.221 2.368c.231 2.005.571 3.994.972 5.94.706 3.425 1.494 6.717 2.694 9.914a37 37 0 0 0 2.193 4.807c1.488 2.713 3.183 5.391 5.741 7.266q.474.347.904.444zm.466-.517c-.252.029-.582-.054-1.02-.375-1.308-.957-2.39-2.144-3.339-3.451.199.1.401.147.606.124.248-.029.5-.163.751-.431.611-.654.854-1.573 1.037-2.458.374-1.808.589-3.634.676-5.47.627.507 1.331.694 2.007.615.792-.092 1.546-.549 2.092-1.28.019 3.285-.24 6.612-1.111 9.755-.162.586-.361 1.332-.646 1.928-.142.297-.305.555-.482.735-.18.18-.362.283-.571.308m-45.297-2.047.286-.057.453-.091-.016.004zm1.259-.25zl.587-.113-.574.112zm42.625-15.707-.01-.12c.517-.146 1.016-.324 1.468-.576q-.131.085-.264.162c-.38.218-.782.39-1.194.534m2.49-1.63q.068-.118.125-.244a1 1 0 0 0 .088-.2l.043-.14.001-.003c.141-.435.215-.92.249-1.4-.003.305-.01.613-.047.897a2.34 2.34 0 0 1-.459 1.09"/><path fill="#91332F" d="M148.487 108.701c-1.068.124-2.162-.163-3.015-.877l-.071-.062c-1.421-1.279-2.382-3.316-2.811-5.423a15 15 0 0 1-.215-1.511l-.014-.188.092.023c.188 2.638 1.248 5.446 3.036 7.056.85.766 1.966 1.085 3.058.974zm2.002-.42a65 65 0 0 1 2.752-.592q-1.377.292-2.752.592m3.89-.832-.021-.033.04.029zm.026-.006-.092-.097c-.506-.779-1.041-1.519-1.54-2.289-.269-.515-.542-1.1-.832-1.708-.378-.815-.765-1.69-1.078-2.592q-.068-.187-.13-.376c1.84-.585 3.593-1.43 5.456-1.959a154 154 0 0 0 5.815-1.782q.245.848.536 1.673c.445 1.263.98 2.491 1.595 3.673.19.367 1.562 3.141 1.897 3.182h.013l.004-.001c-2.36.46-4.677.881-6.921 1.322l-.592.117-.006-.064q-.255.093-.518.169l-.457.093-.288.059a408 408 0 0 0-1.855.388 27 27 0 0 0-1.007.192"/><path fill="#7A2C29" d="M148.832 108.661c-1.172.121-2.361-.164-3.261-.876-1.89-1.494-2.984-4.132-3.146-6.622a18.6 18.6 0 0 0 7.01.06 18 18 0 0 0 1.34-.304q.069.195.142.389c.686 1.747 1.68 3.331 2.514 4.469a7.3 7.3 0 0 0 1.179 1.248c.213.175.377.286.463.343l.022.031-1.222.243c-.986.174-1.974.388-2.955.601q-.846.174-1.69.351a6 6 0 0 1-.396.067m6.193-1.358a11 11 0 0 1-.34-.348c-.283-.294-.629-.757-.998-1.337a13 13 0 0 1-.277-.456c.524.72 1.085 1.411 1.615 2.141"/><path fill="#A1A2AA" d="M199.897 104.975a1.17 1.17 0 0 1-.645-.12c-.875-1.143-1.643-2.379-2.366-3.637a35 35 0 0 1-2.267-4.74 41 41 0 0 1-.511-1.38q.038.003.075.002.108 0 .208-.013c.826-.096 1.209-.726 1.72-1.34.318-.38.516-.86.889-1.2.645-.588 1.518-.978 2.341-1.273.962-.346 2.083-.514 3.138-.8l.01.12a20 20 0 0 1-1.723.467q.265 1.75.627 3.485c.15.718.4 1.325.961 1.83q.111.1.225.186a33.4 33.4 0 0 1-.759 5.499c-.201.89-.466 1.815-1.121 2.476-.269.272-.538.407-.802.438m-6.785-25.423c-.827-.252-1.693-.464-2.211-.404a1 1 0 0 0-.194.041l-.01-.12c.542.046 1.669.207 1.818.261z"/><path fill="#91332F" d="M194.328 95.132a2 2 0 0 1-.27.01c-.931-2.759-1.599-5.602-2.208-8.557a68 68 0 0 1-.977-5.964 57 57 0 0 1-.156-1.535 1 1 0 0 1 .184-.04c.493-.058 1.319.162 2.108.42.715.286 1.42.563 2.182.749h-.002c-.12.013.028 3.297.064 3.56.112.843.234 1.708.649 2.447.551.979 1.539 1.317 2.561 1.355.298.561.57.859.57.859l-.153-.361a5 5 0 0 1-.179-.494q.37-.002.731-.046l.181-.023c.831-.117 1.732-.284 2.572-.559q.158.375.348.72c.276.502.645.963 1.127 1.263.184.114.367.16.533.141a.61.61 0 0 0 .462-.317q-.057.128-.126.247c-.28.376-.653.69-1.046.946-.458.255-.964.435-1.488.583-1.002.282-2.068.443-2.982.785-.78.293-1.609.68-2.219 1.269-.352.339-.538.822-.838 1.203-.483.615-.842 1.248-1.628 1.34m1.205-1.13s-.163-.17-.356-.418a6.7 6.7 0 0 1-.608-.95c-.108-.19-.192-.37-.287-.55a12 12 0 0 0-.261-.492c-.159-.291-.305-.478-.305-.478s-.019.236.028.572a3.5 3.5 0 0 0 .376 1.19c.119.21.249.4.403.56.151.16.315.288.467.375.305.181.543.192.543.192m2.787-3.75s-.079.059-.116.157a.4.4 0 0 0 .022.337.39.39 0 0 0 .371.189c.058-.007.099-.026.099-.026s.011-.102.013-.186a.5.5 0 0 0-.042-.236.46.46 0 0 0-.181-.156c-.074-.043-.166-.08-.166-.08m1.289.112s-.068-.16-.188-.348a10 10 0 0 0-.439-.646 13 13 0 0 0-.478-.614c-.141-.169-.268-.286-.268-.286s-.038.167.002.407c.033.24.149.544.335.802.19.257.441.457.655.56.211.108.381.124.381.124m-7.251-11.03s-.176.2-.342.557a4.1 4.1 0 0 0-.359 1.394c-.012.264-.013.528.016.774s.073.473.134.661c.112.383.255.606.255.606s.022-.27.034-.644c.012-.378.032-.868.069-1.356.036-.487.089-.974.132-1.35.044-.375.061-.643.061-.643m12.43 9.082a7 7 0 0 0 .256-1.623l-.002.203a6 6 0 0 1-.253 1.417z"/><path fill="#7A2C29" d="M204.135 89.497c-.166.019-.35-.033-.536-.158-.488-.328-.863-.83-1.145-1.375a9 9 0 0 1-.356-.781c.41-.14.806-.309 1.172-.512.68-.377 1.289-.968 1.557-1.75-.12.349.156 1.294.147 1.715q-.004.196-.004.4a8 8 0 0 1-.242 1.751 4 4 0 0 1-.131.37c-.11.203-.274.318-.462.34"/><path fill="#4B556D" d="M203.131 109.095q-.452-.091-.947-.431c-2.677-1.83-4.44-4.457-5.985-7.123a35 35 0 0 1-2.27-4.723l.263-.097.263-.097a34.4 34.4 0 0 0 2.236 4.653c.715 1.235 1.473 2.449 2.336 3.571.989 1.282 2.119 2.444 3.487 3.378.458.312.805.392 1.071.362.22-.027.413-.129.602-.309.189-.178.362-.434.513-.729.305-.59.521-1.327.695-1.906.941-3.107 1.239-6.39 1.245-9.63q.098-.123.188-.255c.029 1.082-.065 2.181-.14 3.26a35 35 0 0 1-.485 3.929c-.309 1.682-.751 3.362-1.459 4.938-.295.656-.915 1.095-1.613 1.209m-9.202-12.277c-1.238-3.145-2.042-6.386-2.758-9.758a63 63 0 0 1-.978-5.852 47 47 0 0 1-.213-2.334l.165-.49.162 1.147q-.002-.008.024-.01c.041-.005.135 0 .261.01l.009.117q.064.75.151 1.495c.226 1.956.565 3.9.969 5.805.611 2.875 1.283 5.64 2.229 8.322q.241.68.505 1.354l-.263.097z"/><path fill="#B4BDC9" d="M174.669 92.92a19 19 0 0 1-.154-.62c-.159-.614-.277-1.252-.409-1.886-.093-.642-.205-1.28-.262-1.917-.08-.634-.109-1.262-.149-1.869a22 22 0 0 1-.002-1.747 20 20 0 0 1 .106-1.555c.026-.238.043-.468.073-.685l.106-.61c.063-.383.123-.714.193-.978l.207-.837-.125.864a11 11 0 0 0-.117.993 19 19 0 0 0-.094 1.292c-.036.474-.037.99-.034 1.537-.006.546.044 1.123.062 1.717.048.595.086 1.21.175 1.831.065.623.184 1.249.285 1.877.122.624.226 1.253.374 1.86q.063.294.134.58z"/><path fill="#8D9DAC" d="m177.425 100.093-.322-.77a27 27 0 0 1-.353-.901 23 23 0 0 1-.429-1.191c-.154-.438-.305-.924-.465-1.438a36 36 0 0 1-.465-1.64c-.093-.383-.192-.774-.284-1.174l.285-.142c.088.407.184.805.273 1.196.148.567.274 1.123.417 1.64.14.519.272 1.01.41 1.454.264.897.495 1.64.668 2.154z"/><path fill="#B4BDC9" d="M178.761 89.448s-.045-.142-.116-.395c-.067-.253-.17-.621-.266-1.072a23 23 0 0 1-.283-1.559 28 28 0 0 1-.199-1.818c-.04-.62-.065-1.24-.063-1.814.004-.574.023-1.106.06-1.55.031-.448.081-.809.113-1.062.035-.25.059-.39.059-.39s.002.154-.001.418c-.006.263-.002.643.001 1.095.004.904.041 2.106.128 3.31.086 1.205.223 2.411.349 3.318.062.454.112.831.156 1.098.042.267.062.42.062.42M180.687 82.48s-.112-.387-.181-1.002a9 9 0 0 1-.061-1.047 11 11 0 0 1 .068-1.185 10 10 0 0 1 .209-1.135c.09-.35.19-.664.296-.917.203-.512.396-.792.396-.792l-.051.262-.136.677a27 27 0 0 0-.496 4.149zM183.864 77.615s-.075-.193-.122-.504a4.4 4.4 0 0 1-.026-1.13c.044-.4.146-.776.258-1.023.108-.251.219-.378.219-.378s-.004.215-.031.503c-.025.29-.064.659-.103 1.026-.041.367-.082.736-.119 1.021-.035.282-.076.485-.076.485"/><path fill="#A2312D" d="m155.067 107.187-.03-.014.009-.002.022.016zm-4.779-6.311c-.798-1.882-1.087-3.856-.489-5.866l.084-.169c.098-.188.191-.333.255-.43l.098-.15s-.098.219-.227.604c-.138.384-.264.94-.332 1.603-.074.663-.022 1.434.133 2.24.138.691.369 1.412.678 2.117z"/><path fill="#892D2A" d="M150.139 101.015a11.7 11.7 0 0 1-.523-2.208 9.4 9.4 0 0 1-.013-2.331c.065-.585.204-1.07.324-1.43-.378 1.99-.105 3.97.541 5.875q-.165.05-.329.094"/><path fill="#7E2E29" d="m155.061 107.187-.05-.027-.053-.069q.077.068.111.095zm-1.948-2.351a15 15 0 0 1-1.233-1.779 19 19 0 0 1-1.351-2.806l.185-.052q.072.189.151.375c.363.896.818 1.764 1.265 2.571.342.603.664 1.182.983 1.691"/><path fill="#692A27" d="M155.068 107.187a7 7 0 0 1-.576-.357 8.2 8.2 0 0 1-1.457-1.312c-1.027-1.202-2.245-2.879-3.07-4.736q-.09-.206-.171-.414l.456-.114c.383.963.878 1.905 1.445 2.82.393.633.847 1.218 1.327 1.785q.17.254.339.482c.453.614.878 1.103 1.228 1.412.178.162.323.285.422.365z"/><path fill="#BC3A36" d="m148.516 108.697-.468-.333a6 6 0 0 1-.511-.412 6 6 0 0 1-.625-.58 8 8 0 0 1-.67-.747c-.233-.271-.44-.582-.661-.9-.196-.33-.42-.663-.588-1.03-.192-.356-.336-.738-.498-1.114-.124-.388-.265-.772-.351-1.163-.113-.385-.159-.778-.226-1.152-.039-.378-.084-.744-.082-1.093a7 7 0 0 1 .026-.98c.012-.304.055-.58.101-.823.038-.244.077-.455.125-.626.087-.345.143-.538.143-.538l-.038.55c-.02.173-.026.385-.027.627q-.014.365.009.81c.003.296.035.614.067.95.025.337.101.686.152 1.05.078.359.152.731.262 1.101.089.375.232.742.356 1.114.149.364.282.734.461 1.079.16.353.349.686.526 1.013.202.312.373.63.577.906.199.28.384.548.578.78.184.24.363.451.528.634.161.187.306.349.439.472z"/><path fill="#932E2C" d="M198.588 87.893a7 7 0 0 1-.26 0 5 5 0 0 1-.19-.347c-.381-.751-.688-1.822-.822-2.916a7.5 7.5 0 0 1-.011-1.632 5.5 5.5 0 0 1 .337-1.404c.153-.4.342-.71.478-.921a5 5 0 0 1 .168-.234l.038-.008-.107.28c-.09.225-.18.556-.267.95-.173.787-.211 1.851-.079 2.903.024.261.066.532.108.789.045.26.082.516.134.761.097.491.207.946.325 1.33q.076.244.148.45"/><path fill="#712B27" d="M199.524 90.782s-.21-.016-.472-.13a2.2 2.2 0 0 1-.804-.603 1.9 1.9 0 0 1-.403-.874c-.046-.263.003-.446.003-.446s.157.126.329.309c.177.185.384.425.585.666.197.242.392.49.535.7.145.205.227.378.227.378"/><path fill="#E1B078" d="M210.689 98.477c-2.15-2.4-5.498-4.4-8.395-6.398.856 2.128 1.121 3.151 1.887 5.542-.87-1.338-1.495-3.112-2.315-4.546a43 43 0 0 0-2.774-4.25l-.137-.077c1.313.154 7.984 4.382 9.274 4.818-.665-.974-5.528-7.983-5.352-8.004 1.196-.47 10.968-5.346 11.768-6.187-1.377.16-11.091 3.334-12.679 3.324.592-1.261 2.494-5.916 2.923-7.198-1.731.332-5.965 5.7-7.795 7.195.167-.032 1.063-1.992 1.18-2.269.431-1.014.706-2.044 1.136-3.058.861-2.027 1.548-4.267 2.409-6.295-.04 1.698-.164 3.284-.314 4.947a46.4 46.4 0 0 0 6.908-5.753q-1.83 4.164-3.66 8.33c.077-.176.397-.267.801-.314.745-.086 1.774-.023 2.093-.06a165.27 165.27 0 0 1 10.506-.9 137 137 0 0 1-8.884 7.974q.008-.007.022-.01c.281-.032 1.895 1.889 2.067 2.07.629.661 1.269 1.302 1.888 1.98l3.857 4.221c-1.323-.714-2.814-.822-4.214-1.097a89 89 0 0 0-4.745-.797z"/><path fill="#712B27" d="M192.207 84.139s-.117-.26-.218-.697a6 6 0 0 1-.13-.753 8 8 0 0 1-.047-.876 6.3 6.3 0 0 1 .208-1.56c.11-.396.233-.615.233-.615s-.001.302-.017.723a51 51 0 0 0-.032 3.05c.008.423.003.728.003.728M195.44 94.254s-.234-.01-.534-.185a2 2 0 0 1-.458-.361 2.8 2.8 0 0 1-.395-.54 3.4 3.4 0 0 1-.367-1.152c-.045-.325-.026-.553-.026-.553s.143.18.299.462c.081.14.166.303.255.476.093.174.176.348.281.53a5.878 5.878 0 0 0 .945 1.323"/><path fill="#F8D677" d="M126.122 152.094q-.044.438-.111.872c-.558 3.584-1.962 7.22-3.683 10.386-1.887 3.469-4.693 6.471-8.174 8.264.325-.169.556-5.519.69-6.219a41.3 41.3 0 0 1 1.881-6.72c.766-2.051 1.93-3.891 2.985-5.793.941-1.697 2.337-3.979 1.982-6.02l4.032.703c.604.099.439 4.1.398 4.527"/><path fill="#C36444" d="m117.217 170.337-.012-.047q.317-.266.622-.548l.04.025q-.319.294-.65.57m8.645-16.188-.043-.019q.091-.485.164-.969.067-.447.109-.899c.039-.425.188-4.269-.344-4.646.582.197.427 4.232.387 4.667q-.042.454-.109.901-.073.482-.164.965"/><path fill="#EFAD5D" d="M117.362 170.326a18 18 0 0 1-.234-1.091q.421.274.849.546-.303.28-.615.545m8.51-16.125-3.664-1.691c.386-.832.808-1.648 1.221-2.455a3 3 0 0 1-.402.585c.638-1.139 1.426-2.163 2.438-3.004l.31.058.022.005c.527.377.383 4.214.344 4.638q-.041.451-.108.898-.07.483-.161.966"/><path fill="#F8C6CF" d="M165.162 133.965c-.724 1.074-.93 3.262-1.321 4.524-.41 1.319-.811 2.643-1.081 3.998-.615 3.086-.98 6.214-1.605 9.297l-5.26 25.958c-.17.841-.356 1.716-.891 2.395-1.208 1.536-3.562 1.43-5.509 1.116-12.298-1.987-24.175-6.417-34.706-12.945-.33-.205-.675-.428-.847-.772-.223-.442-.109-.969.016-1.447a47.7 47.7 0 0 1 6.411-14.275l22.884 9.774c.296-6.234 3.638-11.87 6.433-17.481a112.4 112.4 0 0 0 6.176-15.031c.548-1.668 1.06-3.373 1.09-5.124.031-1.762-.43-3.496-.535-5.255-.198-3.343.95-6.749 3.141-9.319.169-.199 2.83.332 3.213.363a51 51 0 0 0 6.759.109c.883-.044 2.226.096 3.022-.317-.369 1.955-1.475 3.914-3.318 4.845-.582.294-6.795 1.732-6.852 1.277l1.448 11.601a.5.5 0 0 1-.012.252c-.047.115-.17.178-.278.244a1.73 1.73 0 0 0-.813 1.488 1.72 1.72 0 0 0 .894 1.438c.182.097.13.203.313.296.907.458 1.96.524 2.98.582.835.047 1.671-.034 2.497.126-.495-.096-1.83.737-2.29.957-.697.331-1.517.671-1.959 1.326"/><path fill="#C16F45" d="M124.714 173.99c-2.204-.965-4.357-2.194-6.443-3.492l.024-.022a90 90 0 0 0 6.419 3.514m39.628-40.318c.218-.191.467-.348.725-.489-.243.158-.481.332-.725.489m1.714-.998c.419-.235 1.086-.633 1.566-.781l.281.001c-.57.33-1.23.53-1.847.78"/><path fill="#94553C" d="M164.693 131.058c-.486-.059-.966-.164-1.398-.419-.077-.046-.093-.093-.124-.142.398.286.893.432 1.363.529zm-1.75-.752a1.44 1.44 0 0 1-.479-1.121c.002.279.077.566.204.775q.12.195.275.346m-.328-1.713c.094-.187.227-.35.389-.463.049-.034.103-.067.143-.114l.025.081q-.003-.008-.013-.008c-.073.006-.412.342-.544.504"/><path fill="#B7A8A3" d="M169.186 131.777c-.826-.16-1.662-.079-2.496-.129-.31-.018-.622-.037-.932-.067l-.237-.041c-.7-.122-1.437-.31-2.026-.685a.4.4 0 0 0-.134-.118 2 2 0 0 1-.204-.133 2.3 2.3 0 0 1-.407-.455 1.87 1.87 0 0 1-.294-1.025c.013-.275.095-.547.232-.787.198-.217.708-.668.817-.676q.017-.002.021.01l-.037-.107a.3.3 0 0 0 .066-.099.5.5 0 0 0 .012-.26l-1.482-11.977c.01.087.235.107.598.081 1.592-.118 5.845-1.142 6.324-1.389 1.862-.958 2.976-2.979 3.346-4.996q-.107.056-.225.099.02-.063.037-.128c-.414.188-.86.282-1.314.334-.549.022-1.108-.004-1.552.017q-.89.044-1.784.056-.825-.022-1.649-.082c.865-.122 1.73-.241 2.597-.343 2.049-.243 4.068-.387 6.092-.639a1 1 0 0 0-.02.141l-.006.001.005.064q0 .077.011.156.048.663.103 1.326l-.193-.14-.063 2.224c-.007.209-.017.429-.13.603-.129.199-.362.296-.58.382l-6.329 2.479c-.199.079-.404.161-.553.315-.169.176-.243.421-.303.657l-.002.009-.002.005v.003l-.002.004-.002.007v.002c-.095.376-.17.769-.168 1.154-.02.47.091.945.343 1.342a2.01 2.01 0 0 1-.84-1.484 2.02 2.02 0 0 1 .617-1.589c-.151.025-1.747.37-1.749.571-.024 3.597.842 7.134 1.704 10.627.064.262.129.537.06.797-.202.764-1.254.807-1.925 1.221.812.976 2.113 1.361 3.334 1.696l1.908.523a3.2 3.2 0 0 1-.587.443"/><path fill="#B99D67" d="M165.649 109.949a20 20 0 0 1-.422-.113 39 39 0 0 1 4.897-1.133 36 36 0 0 1 2.472-.32h.004c.075-.006.315.013.603.029.287.017.621.029.886.01.258-.019.448-.069.466-.176a2 2 0 0 0-.028.246c-2.066.393-4.138.534-6.23.904-.885.156-1.768.351-2.648.553"/><path fill="#C16F45" d="M156.384 117.998c-.111-1.808.032-3.67.658-5.308a14.7 14.7 0 0 0-.658 5.308"/><path fill="#F6B0AD" d="m125.044 173.965-.191-.08a93 93 0 0 1-7.565-4.063 19 19 0 0 1-.243-1.711 34 34 0 0 0 2.919-6.548l.012-.039.003-.009.01-.029.011-.033.001-.005q.205-.641.392-1.286c.59-2.02 1.107-4.12 1.823-6.079q.266-.626.567-1.238l20.799 9.067c.285-6.288 3.589-11.97 6.351-17.626a114 114 0 0 0 6.101-15.155c.54-1.682 1.045-3.402 1.073-5.168a12 12 0 0 0-.033-1.039c-.101-1.361-.392-2.712-.492-4.076l-.012-.187a13.45 13.45 0 0 1 .798-5.384c.236-.542.53-1.061.892-1.547a5.74 5.74 0 0 0 .649 4.201 39 39 0 0 1 2.983-3.425l.003-.001c.1-.007 2.398.648 2.671.677a10.2 10.2 0 0 0 2.944-.12c2.164-.401 4.136-1.296 4.815-3.527q.116-.042.22-.097c-.362 1.971-1.456 3.946-3.281 4.883-.47.241-4.64 1.243-6.201 1.358-.356.027-.577.007-.586-.078l1.45 11.704c.01.085.02.175-.012.254a.3.3 0 0 1-.065.097c-.058.061-.138.104-.21.15a1.75 1.75 0 0 0-.804 1.5 1.75 1.75 0 0 0 .888 1.451.4.4 0 0 1 .131.115c.044.063.067.125.18.184.629.325 1.33.455 2.039.525.304.03.61.048.914.066.818.048 1.637-.031 2.447.125l-.001.001a.6.6 0 0 0-.108-.001 1.4 1.4 0 0 0-.263.052l-.013.005c-.494.148-1.18.547-1.611.782a7 7 0 0 0-.659.297 6 6 0 0 0-.359.212 4 4 0 0 0-.746.49c-.386.24-.789.438-1.249.472a2 2 0 0 1-.27.001c-.738-.064-1.502-.378-2.112-.792-.817.991-1.435 2.128-2.036 3.264a185 185 0 0 0-7.71 16.493c-2.486 6.084-4.677 12.479-4.49 19.048a14.2 14.2 0 0 1-4.08-3.554c-.28-.36-.55-.741-.929-.995-.463-.311-1.035-.399-1.586-.486a55.4 55.4 0 0 1-12.514-3.543 27.9 27.9 0 0 0-3.655 10.447m45.702-64.199a14 14 0 0 1-.547.029q-1.198.046-2.397.013a49 49 0 0 0 1.75-.055c.435-.021.983.004 1.521-.017a9 9 0 0 1-.327.03"/><path fill="#E2747B" d="M143.442 156.825s-.013.201-.047.547c-.037.348-.068.84-.1 1.434-.02.295-.028.619-.04.958-.016.339-.008.702-.017 1.071.006.745.028 1.538.085 2.331.058.791.149 1.579.254 2.314.064.362.11.721.178 1.052.065.332.124.648.191.934.127.576.242 1.058.338 1.385.093.329.142.524.142.524s-.079-.164-.209-.464a9 9 0 0 1-.221-.556 8 8 0 0 1-.261-.75 13 13 0 0 1-.263-.93c-.09-.332-.162-.696-.238-1.072-.063-.38-.142-.771-.185-1.177-.057-.405-.089-.819-.128-1.233-.02-.415-.048-.829-.05-1.237-.015-.407.005-.805.011-1.189.035-.766.094-1.472.184-2.056.078-.589.184-1.062.254-1.383.074-.322.122-.503.122-.503"/><path fill="#FDE7A7" d="M121.852 147.23q1.564.328 3.148.64c-3.954 3.09-4.673 8.696-6.21 13.51a33.4 33.4 0 0 1-5.409 10.293c-.795-6.566-7.369-10.663-10.541-16.028-1.676-2.835-2.98-5.886-3.952-9.038a51 51 0 0 1-1.23-4.846c-.122-.605-.348-4.416-.738-4.635a490 490 0 0 0 8.385 4.604c5.279 2.834 10.816 4.295 16.547 5.5"/><path fill="#EC9731" d="m122.279 153.132-.044-.026c.18-.565.38-1.109.61-1.626.116-.166.212-.341.282-.515-.287.712-.581 1.432-.848 2.167"/><path fill="#F39551" d="M121.271 154.258q.41-.567.868-1.116l.101.021c-.339.362-.665.727-.969 1.095"/><path fill="#C76F33" d="m106.7 141.662-.412-.228a430 430 0 0 1-2.873-1.624l.079-.014c1.078.606 2.151 1.223 3.206 1.866"/><path fill="#FACA48" d="M116.16 167.26a17 17 0 0 1-.045-.504c-.107-1.474-.053-2.966.106-4.437.171-1.584.28-2.97.183-4.258-.157-2.179-.895-4.073-2.901-6.157q-.285-.293-.57-.595c-3.472-3.654-7.278-8.054-11.606-11.331q.131-.019.261-.041a584 584 0 0 0 3.844 1.903 63 63 0 0 1 3.122 1.78c3.942 2.413 7.595 5.199 11.4 7.788.317.215.679.289 1.052.261.577-.043 1.177-.327 1.67-.706q.231-.177.423-.375c-.369.58-.694 1.189-.988 1.821q-.28.602-.527 1.229c-.27.592-.507 1.194-.695 1.811-.415 1.359-.794 2.732-1.223 4.09q-.198.63-.412 1.248l-.002.005-.011.032-.01.028-.003.009-.013.038a32.3 32.3 0 0 1-3.055 6.361"/><path fill="#E31F25" fill-rule="evenodd" d="m32.508 46.284 160.625 160.624 13.192-13.192L45.7 33.092z" clip-rule="evenodd"/><path fill="#F8C6CF" d="m166.88 116.007 6.337-2.456c.219-.085.453-.181.582-.377.113-.172.123-.39.13-.596l.066-2.196q1.602 1.141 3.204 2.281c.266.19.54.389.702.672.163.285.194.622.22.948l.246 2.964c.038.461.068.96-.181 1.352-.334.528-1.053.681-1.473 1.146 1.623.846 2 3.353.697 4.636.803 1.138.648 2.84-.347 3.821-.136.134-.293.271-.32.459-.026.19.093.367.164.546.295.737-.265 1.59-.996 1.913-.732.323-1.569.259-2.365.189l-3.517-.31c-.219-.02-.449-.044-.62-.177-.15-.117-.23-.299-.298-.476-.338-.869-.431-2.077.398-2.519-1.013-.04-1.958-.778-2.233-1.744-.281-.988.081-2.107 1.225-2.342-.909.187-2.008-.891-2.115-1.696-.088-.66.479-2.245 1.393-2.211-.697-.026-1.537-.224-1.802-.929-.231-.615-.121-1.301.044-1.938.061-.233.135-.475.305-.649.149-.152.354-.234.554-.311"/><path fill="#BE5A42" d="m176.288 131.252-.036.002q.127-.05.247-.13a1.3 1.3 0 0 0 .357-.388c-.094.161-.256.387-.388.474a.4.4 0 0 1-.18.042m.885-1.691"/><path fill="#F2939D" d="M175.164 131.334c.306-.213.621-.433.821-.747.2-.313.259-.745.041-1.046-.157-.216-.423-.325-.679-.411-.977-.326-2.221-.49-3.428-.401-1.117.083-2.203.383-3.015.972a3 3 0 0 1-.046-.347c-.002-.29.027-.579.126-.85.232-.635.8-.861 1.451-.909.743-.055 1.593.122 2.174.19 1.023.12 2.057.097 3.087.074q.171-.003.344-.014c.217-.016.431-.053.625-.145.298-.143.539-.455.488-.778-.083-.516-.754-.659-1.282-.683q-3.483-.156-6.968-.316c-.037-.001-.162 0-.324.012-.475.036-1.266.16-1.091.553-.15-.339-.291-.73-.318-1.112.017-.422.156-.823.428-1.125.262-.223.597-.318.954-.344a5 5 0 0 1 1.015.053c1.588.206 3.212.416 4.798.298a9.6 9.6 0 0 0 1.827-.304c.219-.06.449-.137.593-.311.135-.163.172-.389.164-.601-.065-1.532-1.748-2.093-3.037-2.06-1.46.038-2.919.078-4.378.137q-.178.007-.373.021c-.933.069-2.096.282-2.736.902a2.24 2.24 0 0 1 .875-2.041c.103-.077.263-.124.441-.154l.022.001-.02-.001c.124-.021.256-.034.384-.043q.106-.008.205-.013l.183-.012q.036-.002.07-.006l5.265-.501c.971-.093 2.061-.249 2.64-1.026.718-.965.197-2.433-.785-3.132-.233-.166-.498-.306-.786-.332a1.3 1.3 0 0 0-.196-.001 2.9 2.9 0 0 0-.656.157q-2.822.925-5.644 1.846c-.59.193-1.197.395-1.669.795-.473.4-.784 1.051-.6 1.638-.417-.725-.366-1.407-.159-2.21v-.003l.002-.006.001-.004.001-.003.002-.005.002-.009c.06-.233.134-.476.304-.65.15-.152.355-.234.556-.312l6.347-2.459c.219-.085.453-.181.583-.377.113-.173.123-.391.13-.597l.066-2.199 3.209 2.284c.267.19.541.389.703.672.163.286.194.623.221.95l.246 2.968.01.131c.031.424.035.867-.191 1.223-.335.529-1.055.682-1.476 1.148.889.463 1.405 1.424 1.476 2.409.06.817-.187 1.652-.778 2.233.302.428.468.934.506 1.453.064.864-.23 1.76-.853 2.374-.136.134-.294.271-.32.459a.4.4 0 0 0-.003.089c.012.158.107.307.166.459l.004.008v.002l.003.007h.001q.077.207.073.419c-.008.41-.234.8-.523 1.101a1.9 1.9 0 0 1-.555.378 2.6 2.6 0 0 1-.376.131l-.045.004-.098.006c-.103.008-.189.018-.225.043"/><path fill="#E2747B" d="m165.855 118.349.092.048c.061.027.142.087.261.127q.166.073.417.134c.167.038.36.063.57.079.425.027.93-.017 1.478-.087.549-.072 1.143-.168 1.773-.231.638-.038 1.233-.05 1.813-.038.573.01 1.108.041 1.563.085a13 13 0 0 1 1.504.212s-.616.072-1.525.134l-1.547.099c-.56.038-1.179.059-1.754.106-.582.045-1.189.133-1.776.158-.584.031-1.155.013-1.621-.1a3 3 0 0 1-.603-.207 1.8 1.8 0 0 1-.391-.252c-.106-.072-.144-.152-.191-.195zM166.163 122.534s.134.076.37.193c.229.117.576.256.996.365a8.6 8.6 0 0 0 1.492.194c.557.029 1.186.054 1.801.112.6.066 1.198.093 1.769.13.57.029 1.107.057 1.57.094.926.065 1.542.184 1.542.184s-.617.118-1.54.22c-.462.055-1.003.103-1.59.122-.583.024-1.217.005-1.842-.049-.606-.073-1.209-.107-1.797-.199-.585-.081-1.14-.231-1.572-.433a3.3 3.3 0 0 1-.927-.632c-.184-.183-.272-.301-.272-.301M167.515 126.641s.112.102.316.245c.196.14.498.306.871.392.374.09.82.097 1.313.062.492-.04 1.046-.102 1.603-.13 1.121-.048 2.258.081 3.082.336.826.242 1.32.569 1.32.569l-1.383-.062a41 41 0 0 0-2.975.047c-.545.008-1.09.057-1.633.024-.539-.028-1.068-.141-1.477-.367a2.2 2.2 0 0 1-.833-.748c-.149-.224-.204-.368-.204-.368"/><path fill="#F8D677" d="M113.617 151.341c-4.937-5.501-10.569-12.635-17.44-15.454-6.07-2.49-13.533-2.283-19.89-1.166-.638.112-1.335.274-1.722.791-.323.432-.349 1.008-.357 1.546a96.7 96.7 0 0 0 1.274 17.206c.889 5.401 2.671 10.543 3.024 16.001.284 4.403.487 8.929-.896 13.124-.066.199 10.674 1.712 11.655 1.784 9.708.707 21.014-.139 30.034-4.037 1.374-.594 2.629-1.478 3.774-2.428-2.449-1.271-4.246-3.864-5.206-6.366-1.176-3.064-1.333-6.434-1.013-9.7.428-4.361.423-7.271-2.681-10.685a57 57 0 0 1-.556-.616"/><path fill="#DC633F" d="M95.267 157.235c-.231-2.394-.276-4.805-.32-7.209l-.08-4.333c.774.329 1.478 1.064 1.977 1.911.962 1.631 1.375 3.776 1.008 5.704-.328 1.726-1.302 3.231-2.585 3.927"/><path fill="#CD4B37" d="M77.352 183.807a1 1 0 0 1-.084-.025q.129-.288.246-.578l.002-.005.077-.195v-.003q.076-.194.146-.389l.006-.017.063-.179.009-.025q.063-.183.122-.368l.012-.04.019-.059.03-.099.015-.047.015-.051.03-.099.025-.09.003-.009.028-.099.018-.063.01-.036.026-.099.02-.07.007-.029.026-.1.02-.077.005-.022.044-.179.001-.006.004-.014.023-.099.022-.093v-.007l.023-.1.022-.099.001-.002.02-.098.021-.1.003-.009.018-.091.02-.1.003-.016.016-.084.019-.1.004-.024.014-.076.018-.1.005-.032.012-.069.017-.1.007-.039.009-.061.016-.101.014-.088.002-.012.014-.101.008-.054.007-.046.014-.101.013-.1.013-.101.009-.07.004-.031.012-.101.01-.078.002-.022.011-.101.01-.086.001-.015.01-.101.01-.094v-.007l.01-.101.01-.101.009-.101.008-.101a1 1 0 0 1 .084-.041c-.172 2.179-.611 4.338-1.543 6.426"/><path fill="#DC633F" d="M110.675 183.444a9 9 0 0 1-.795-.109 8.9 8.9 0 0 1-2.619-.938c.125-.444.142-.879-.078-1.295-.312-.588-1.018-.847-1.676-.798q-.105.008-.206.025-.25.045-.488.134a9 9 0 0 1-.78-1l-.037-.056c.317-1.174.504-2.386.558-3.604.038-.902-.169-2.044-1.025-2.262a1 1 0 0 0-.334-.029c-.515.038-.992.445-1.325.887-.877-2.526-1.797-4.79-1.606-7.625.02-.303.05-.612.037-.914a6.015 6.015 0 0 1 2.537-.77c1.327-.098 2.684.232 3.782 1.002 2.371 1.661 3.032 5.37 1.73 7.9-.49.953-1.109 1.895-1.165 2.971q.106.008.208-.001c.625-.046 1.19-.479 1.813-.628q.165-.04.331-.051c.707-.053 1.43.247 1.954.745.606.578.961 1.393 1.105 2.227.174 1.011.018 2.15-.691 2.873-.273.278-.613.481-.874.77a2.1 2.1 0 0 0-.356.546"/><path fill="#CD4B37" d="M107.47 182.629a9.4 9.4 0 0 1-2.577-1.747q.253-.084.52-.128a3 3 0 0 1 .218-.025c.699-.051 1.446.178 1.77.714.23.379.207.778.069 1.186m-3.433-2.706c-.894-1.177-1.436-2.537-1.941-3.888a65 65 0 0 0-.261-.681c.359-.409.869-.787 1.416-.828q.175-.013.353.023c.906.191 1.114 1.236 1.064 2.063a13.5 13.5 0 0 1-.631 3.311"/><path fill="#DC633F" d="M118.558 174.445c-1.257-.234-2.266-.744-3.129-1.848-1.384-1.768-2.165-3.989-3.558-5.794-1.48-1.916-3.436-3.593-5.799-4.137-1.227-.284-2.572-.272-3.623-.962-.967-.635-1.502-1.762-1.769-2.887-.177-.747-.235-1.605.23-2.218.286-.377.729-.602 1.177-.756a5.529 5.529 0 0 1 3.193-.121c-1.461-.46-2.971-.988-4.033-2.089s-1.51-2.948-.591-4.172c.607-.811 1.65-1.163 2.672-1.238q.151-.011.299-.015c2.378-.054 4.75 1.13 6.13 3.063a3.42 3.42 0 0 1 .589-2.717c.112-.151.246-.299.417-.371l.042.048.041.047.042.048.041.047.124.142.042.047.11.126.013.016.206.235.025.028.016.019.041.047.041.046.286.327.041.047.059.067.022.025.041.047.162.185.015.017.025.029.041.046.04.046.081.092.04.046.012.013.029.033.04.045.04.046.04.046.04.045.04.046.009.01.031.035.041.046.04.045.039.045.04.046.04.045.006.006.034.039.04.045.04.045.04.045.075.084.004.005.003.004.037.041.04.045.079.089.039.044.04.045q.283.318.564.628l.006.007.007.008.007.007.006.008.007.008.007.007.047.053.007.007.013.015.007.008.006.007.007.008.007.008.006.007.004.005.003.002.006.008.007.008.006.007.007.008.033.037.006.007.007.008.026.03.006.007.007.008.006.007.007.008.006.007.013.015.006.007.006.008.007.007.006.008.007.007.006.008.087.104a1 1 0 0 0-.146.003c-.367.027-.716.214-.844.553-.09.235-.061.498-.016.747.139.767.425 1.508.837 2.171-.63-.682-1.287-1.384-2.145-1.74a2.66 2.66 0 0 0-1.201-.194c-.527.039-1.026.247-1.353.659-.513.649-.446 1.612-.06 2.342.387.731 1.037 1.281 1.67 1.812a2.9 2.9 0 0 0-.918-.107c-.543.04-.966.325-1.074 1.065-.198 1.34.906 2.728 2.258 2.839.376.032.756-.023 1.13.018.833.092 1.556.651 2.039 1.334.533.754.811 1.645 1.141 2.501q.073.19.152.38c.153.368.491.88.816 1.406.154 1.437.451 2.852.94 4.211l.008.021.046.126.004.011.051.136.011.029.012.03.011.03.012.03.012.03.012.03.012.03.012.03.012.03.024.06.012.03.013.029.012.031.013.03.012.029.013.031.013.03.013.03.012.029.014.031.013.029.013.031.013.029v.001l.013.029.013.03.014.03.014.03.013.03.014.03.014.03.013.029.001.001.013.03.014.03.014.03.014.029.001.001.014.029.014.03.028.059.001.001.058.118v.001l.015.03.015.03.015.029.014.029.001.001.015.03.015.03.016.029.014.029.001.001.015.03.016.029.015.03.015.028.001.001.016.03.031.059.015.028.001.001.032.059.016.03.016.027z"/><path fill="#CD4B37" d="M116.141 167.261c-.304-.485-.619-.957-.762-1.297a15 15 0 0 1-.141-.349c-.307-.79-.567-1.612-1.064-2.306-.45-.63-1.124-1.145-1.902-1.23-.35-.037-.705.014-1.055-.015-1.263-.102-2.292-1.381-2.107-2.617.102-.682.497-.946 1.004-.984.263-.019.558.022.857.099-.591-.49-1.197-.997-1.557-1.671-.361-.673-.422-1.561.057-2.16.305-.38.772-.573 1.264-.609a2.5 2.5 0 0 1 1.122.178c.801.328 1.414.974 2.001 1.603a5.7 5.7 0 0 1-.78-2.002c-.041-.229-.068-.472.016-.689.12-.312.446-.485.789-.511q.068-.005.136-.002.126.15.245.299l.004.005.113.144.002.003.107.142.002.003.003.003q.104.14.202.281l.014.02.083.122.008.012.016.024.06.092.019.029.008.012.003.005q.08.124.154.248l.016.025.011.019.068.117.004.007.001.002.008.014.07.124.005.009.073.135.007.014.063.122.008.016.005.009.066.136.004.007.057.121.013.028q.061.135.118.271l.003.007.008.02.039.098.012.028.006.016.046.122.006.015.042.116.008.021.005.015.041.121.003.011.001.001.002.006.042.133.003.01.036.119.015.053.006.02.024.085.015.059.008.027.019.075.003.011.021.086.004.019.014.06.002.007.019.086.001.003.012.057.016.079.008.035v.003l.016.083.003.014.013.071v.003l.016.087.007.043.007.045.014.088.003.018.003.021.013.098.005.034.001.006.011.088.008.059.003.031.01.089.001.004.006.067.002.018.009.091.006.073.003.033.006.075.004.057c.082 1.219-.011 2.529-.16 4.02-.141 1.435-.185 2.892-.078 4.331l.001.01.001.011.001.01v.011l.001.008v.002l.001.011.001.01.001.011.001.01v.011l.001.01.001.011.001.01v.011l.001.011.001.01.001.011.001.01v.005l.001.005.001.011v.011l.006.063.001.01.002.021v.01l.001.011.001.002v.008l.001.011.001.01.001.011z"/><path fill="#C76F33" d="m114.406 183.168-.013-.054a52 52 0 0 0 1.62-.499c-.144.106-.328.168-.504.222q-.55.17-1.103.331m-32.322 1.444c-2.566-.359-4.846-.708-4.815-.797v-.002c.313.104 1.8.339 3.614.6.385.056.785.112 1.19.169z"/><path fill="#F39551" d="M102.125 185.129q-.81.06-1.621.103a91 91 0 0 1-10.198-.031c-.516-.03-3.78-.407-6.687-.777l-.009-.028 1.454.182.06-.018.027-.008c2.405.295 4.672.553 5.094.578q1.17.067 2.367.108l.005.037a91 91 0 0 0 6.843-.029 83 83 0 0 0 2.671-.155 78 78 0 0 0 4.511-.464 69 69 0 0 0 3.99-.649l.005-.039a58 58 0 0 0 4.343-1.014l.012.049c-4.193 1.151-8.513 1.833-12.867 2.155"/><path fill="#F4BB36" d="M109.67 183.519a2.7 2.7 0 0 1 .223-.849 8.847 8.847 0 0 0 5.791-1.548c.248.049.314.405.173.613a.7.7 0 0 1-.14.148q-.79.269-1.596.511l-.062.019a53 53 0 0 1-4.389 1.106m-18.24 1.31a87 87 0 0 1-2.396-.142c-.429-.032-2.725-.341-5.163-.695.794-.26 1.592-.55 2.27-1.036.687-.492 1.247-1.215 1.364-2.049.163-1.161-.57-2.3-1.539-2.964-.968-.665-2.142-.949-3.286-1.22.941-.441 1.274-1.735.83-2.671-.443-.936-1.486-1.492-2.522-1.57a4 4 0 0 0-.626 0c-.613.045-1.217.217-1.794.452a83 83 0 0 0-.084-1.706c2.27.587 4.588.99 6.926 1.196h.021c.703-.052 1.547-5.121 2.19-9.942a7.9 7.9 0 0 0 2.63 1.221 6 6 0 0 0 1.91.184c1.055-.078 2.04-.483 2.58-1.363.9-1.474.058-3.369-.894-4.809-.072-.11-.148-.228-.145-.358.007-.287.349-.42.623-.504q.294-.09.575-.214.03.31.068.619.061.505.148 1.012c.37 2.155 1.14 4.306 2.873 5.586.67.495 1.507.895 1.799 1.673.075.2.106.409.115.622-1.389.778-2.837 2.301-3.077 3.863-.215 1.397.951 3.57-.06 4.756-.28.329-.68.476-1.112.508-.444.033-.924-.056-1.346-.196-.756-.253-1.525-.626-2.306-.568q-.12.009-.24.031c-.875.17-1.541.945-1.8 1.795-.257.852-.172 1.768-.005 2.641.378 1.97 1.161 3.884 1.474 5.848m-.893-38.749a3.3 3.3 0 0 1-1.59-.29q-.042-.55-.114-1.097a17.2 17.2 0 0 0-.775-3.344c-.135-.691-.495-1.325-.86-1.991a12 12 0 0 0-.896-1.446q.607.437 1.261.812l.961.493c.327.148.666.275 1 .414l1.026.348 1.053.267 1.07.189 1.082.112 1.086.032c.326-.006.652-.029.976-.047.361.51.815.969 1.3 1.35q.21.168.439.321-.884.705-1.846 1.297c-.344.211-.71.428-.903.781-.178.324-.182.711-.18 1.08v.054a3.2 3.2 0 0 0-1.214-.154q-.15.012-.303.038c-.746.136-1.412.559-2.153.719a3 3 0 0 1-.42.062"/><path fill="#D5552E" d="M92.33 163.764a4.9 4.9 0 0 1-1.7-.189 6.9 6.9 0 0 1-2.345-1.192c.178-1.517.338-3.009.469-4.299.273.384.603.716.99.958.288.179.615.309.942.285l.073-.008c.454-.067.83-.448 1.012-.901.18-.454.19-.971.127-1.463-.154-1.183-.702-2.262-1.255-3.3.246.09.508.124.766.105.408-.03.807-.193 1.121-.472.514-.455.787-1.21.697-1.926-.068-.536-.322-1.031-.651-1.442a3.64 3.64 0 0 0-3.122-1.337 28 28 0 0 0-.082-2.291c.442.221.933.323 1.415.288q.188-.014.373-.057c.658-.151 1.249-.555 1.912-.681q.135-.025.269-.036a2.6 2.6 0 0 1 1.08.156l.038 4.065c.02 2.255.042 4.517.267 6.762a5 5 0 0 1-.51.202c-.243.08-.547.207-.551.483-.002.126.066.24.131.346.854 1.394 1.614 3.227.821 4.644-.474.845-1.349 1.23-2.287 1.3M84.586 184.324c-.57-.081-1.148-.165-1.715-.247l-.056-.009-1.181-.175c.234-.091.461-.198.675-.331.69-.424 1.236-1.167 1.186-1.962-.045-.694-.547-1.311-1.184-1.612-.46-.217-.977-.285-1.488-.247q-.3.023-.591.09c.223-.425.311-.906.348-1.382.046-.618-.012-1.296-.437-1.752-.23-.247-.6-.372-.935-.347a.95.95 0 0 0-.382.107 49 49 0 0 0-.004-3.987c.63-.253 1.287-.438 1.956-.487q.339-.026.681-.001c1.129.082 2.265.677 2.746 1.68.483 1.004.118 2.393-.907 2.867 1.246.289 2.524.592 3.578 1.304 1.055.711 1.852 1.932 1.673 3.178-.128.894-.74 1.67-1.488 2.199-.74.522-1.61.834-2.475 1.114"/><path fill="#A1352D" d="M81.429 184.557c-2.088-.307-3.798-.582-4.157-.703l.014-.042c.401.126 2.135.404 4.233.712z"/><path fill="#C6422B" d="M81.468 184.554c-2.077-.267-3.793-.509-4.189-.622.785-2.091 1.143-4.259 1.27-6.451a1.1 1.1 0 0 1 .405-.104c.357-.027.747.09.99.323.447.432.503 1.079.449 1.668-.043.455-.14.914-.38 1.322q.31-.066.628-.091c.542-.04 1.09.021 1.576.224.674.282 1.201.867 1.243 1.528.047.759-.539 1.472-1.273 1.882q-.344.19-.719.321"/><path fill="#CF4433" d="M98.819 185.374c-2.286.019-4.56-.15-6.774-.473l-.009-.077c2.21.322 4.48.491 6.763.473q.011.038.02.077m7.065-.702.001-.077a34 34 0 0 0 3.902-1.013l-.002.079a34 34 0 0 1-3.901 1.011"/><path fill="#D5552E" d="M99.135 185.35a83 83 0 0 1-6.99-.03c-.317-2.001-1.11-3.951-1.492-5.958-.17-.889-.257-1.822.003-2.689.26-.866.933-1.655 1.819-1.827a2 2 0 0 1 .242-.032c.788-.059 1.566.322 2.33.58.427.143.912.234 1.361.201.437-.033.84-.183 1.124-.518 1.021-1.207-.159-3.421.058-4.843.241-1.592 1.704-3.142 3.107-3.934.012.29-.017.586-.037.876-.191 2.716.704 4.884 1.557 7.303l-.032.041a5.5 5.5 0 0 0-1.041 2.587c-.101.802-.098 1.764-.771 2.207-.19.124-.393.183-.607.199-.374.028-.777-.076-1.185-.179-.408-.104-.82-.207-1.21-.178a1.5 1.5 0 0 0-.42.091c-.91.349-1.118 1.624-.715 2.515.404.89 1.21 1.514 1.898 2.205.399.399.777.87 1.001 1.383m7.366-.645c.085-.859.73-1.735.97-2.572.8.427 1.664.733 2.556.895q.386.069.777.103a2.7 2.7 0 0 0-.225.865 62 62 0 0 1-4.078.709m-2.83-3.637q.363-.878.615-1.795l.037.054q.346.506.76.956c-.503.181-.963.486-1.412.785"/><path fill="#C6422B" d="M101.885 185.147a82 82 0 0 1-2.796.158c-.227-.505-.61-.967-1.015-1.359-.7-.679-1.518-1.29-1.927-2.165-.408-.875-.193-2.13.734-2.476a1.5 1.5 0 0 1 .427-.09c.398-.03.817.07 1.232.171.414.1.825.202 1.205.173.218-.016.425-.074.618-.197.686-.437.686-1.384.791-2.173a5.34 5.34 0 0 1 1.066-2.548l.033-.041.249.703c.482 1.392.999 2.794 1.845 4.009a15 15 0 0 1-.631 1.768c.457-.296.927-.597 1.439-.776a9 9 0 0 0 2.426 1.814c-.247.824-.906 1.687-.994 2.533a76 76 0 0 1-4.702.496M91.076 159.649c-.345.025-.69-.113-.994-.305a3.8 3.8 0 0 1-1.046-1.024c.201-2.017.338-3.572.38-4.072.173-2.017.346-4.047.35-6.073l.058-.004a3.83 3.83 0 0 1 3.239 1.435c.348.438.617.967.688 1.54.096.765-.19 1.57-.733 2.056a2 2 0 0 1-1.183.503c-.273.02-.55-.017-.809-.113.585 1.109 1.164 2.262 1.327 3.525.068.526.058 1.078-.132 1.562-.191.484-.588.89-1.068.961z"/><path fill="#D5552E" d="M97.71 142.328a6 6 0 0 1-.394-.258 5.6 5.6 0 0 1-1.162-1.089l.099-.005.971-.108.957-.183c.314-.081.629-.156.937-.247l.909-.316.256-.089a16.7 16.7 0 0 1-2.574 2.295M96.104 140.342c-.317.019-.637.041-.956.05l-1.065-.015-1.058-.081-1.047-.146-1.029-.21-1.002-.278c-.326-.112-.656-.214-.975-.334l-.936-.399a14 14 0 0 1-1.227-.661 8 8 0 0 0-.33-.369l1.043.418.004-.003c.41.176.833.334 1.26.477 2.193.731 4.57 1.074 6.949 1.025q.159.272.37.526"/><path fill="#56728F" d="M121.827 199.058q.22-.116.441-.229l-.331-1.199c.461-.027.809-.465.881-.91.073-.445-.062-.893-.196-1.323l-.596-1.917c-.119-.384-.248-.783-.53-1.075-.281-.291-.766-.438-1.115-.222-.138.086-.273.228-.431.19-.24-.056-.19-.394-.181-.636.025-.659-.732-1.132-1.406-1.085s-1.26.45-1.807.838l.193.891c-5.423 1.812-11.32 1.614-17.005.976-5.686-.636-11.356-1.693-17.08-1.528-.262.06.199.125-.063.186.459-.107.181 1.795.2 1.922q-.704.06-1.384.244a.9.9 0 0 0-.338.149c-.123.105-.177.265-.22.418-.484 1.726.013 3.587.437 5.279.228.908.543 1.818 1.14 2.549.597.729 1.522 1.256 2.479 1.186-.933 2.397-2.642 4.42-4.304 6.409-1.68 2.012-2.603 3.392-4.14 5.522 17.587 9.628 37.744 12.1 57.314 8.684-1.421-2.299-2.556-3.746-4.034-6.008.478-.178.348-.865.13-1.315-1.162-2.389-2.326-4.785-3.763-7.028l-.546.414c-.832-1.906-1.793-3.782-2.361-5.784-.524-1.851-.918-3.733-1.384-5.598"/><path fill="#F8C6CF" d="m65.477 199.547.012.06c.586 2.902 1.164 6.114 1.167 9.186a90.5 90.5 0 0 1-15.89-14.33c.783-5.044 1.895-10.002 3.114-14.653 3.344-12.761 8.568-25.031 15.227-36.417 3.365 2.179 11.773 6.049 12.269 10.712.066.638-.114 1.275-.295 1.891-4.21 14.038-9.035 27.948-15.297 41.25-.184.391-.373.791-.414 1.221-.036.361.035.723.107 1.08"/><path fill="#C16F45" d="M66.362 206.71c-.176-2.386-.6-4.799-1.026-7.026l-.012-.058a6.002 6.002 0 0 0 0-.009l.01.057c.428 2.231.852 4.647 1.028 7.036m-7.257-41.512c.04-.289.201-.606.396-1.108q-.2.553-.396 1.108"/><path fill="#E2747B" d="m56.937 192.76.194-.051c.127-.03.32-.07.567-.083a4.8 4.8 0 0 1 2.022.365c.4.161.812.355 1.234.63q.297.198.61.404c.208.145.41.325.62.492.404.354.806.731 1.158 1.167.36.427.69.894.979 1.381.29.486.538.996.746 1.509.219.51.382 1.032.517 1.537.149.504.24 1.002.323 1.473.084.47.134.919.172 1.333.078.827.072 1.519.077 2.001-.007.483-.02.757-.02.757l-.116-.747a44 44 0 0 0-.342-1.954 24 24 0 0 0-.69-2.688 15 15 0 0 0-.55-1.451 11 11 0 0 0-.726-1.417 9.4 9.4 0 0 0-.9-1.309c-.325-.41-.68-.793-1.04-1.133l-.55-.487-.577-.448a8.6 8.6 0 0 0-1.094-.688c-.715-.373-1.378-.556-1.856-.593-.475-.041-.758 0-.758 0"/><path fill="#FDE7A7" d="M85.794 172.661c-10.268-.936-20.14-5.878-27.141-13.583 5.78-4.353 7.843-11.786 10.885-18.067 1.584-3.271 2.858-5.587 6.616-6.438 3.158-.717 6.711.032 9.115 2.308 2.238 2.119 3.41 5.199 3.811 8.28s.1 6.204-.202 9.294c-.178 1.828-1.85 18.304-3.084 18.206"/><path fill="#F39551" d="M69.85 168.583a21 21 0 0 1-3.102-2.184 31 31 0 0 1-3.556-3.553l-.067-.076a40.7 40.7 0 0 0 6.726 5.813"/><path fill="#C76F33" d="M60.75 161.894c-.744-.687-1.454-1.409-2.051-2.212 4.03-3.21 6.381-8.106 8.489-12.991-2.06 4.9-4.314 9.761-8.476 12.99q.991 1.124 2.054 2.173z"/><path fill="#F1A423" d="M88.876 141.929a12 12 0 0 0-1.198-2.015c.514.672 1.022 1.31 1.198 2.015"/><path fill="#FACA48" d="M71.03 168.496a15 15 0 0 1-.355-.145 43.2 43.2 0 0 1-7.63-4.958c-.459-.404-.937-.801-1.416-1.203q-.453-.403-.894-.817l-.016-.016a42 42 0 0 1-2.05-2.071c4.177-3.103 6.45-7.759 8.528-12.453q.497-1.099.986-2.189c.149.099.264.168.302.187.567.285 1.1.361 1.7.316a6 6 0 0 0 .596-.076c1.694-.29 3.02-1.199 4.057-2.437.39-.461.738-.968 1.05-1.507-.001.968 1.17 1.477 2.14 1.558q.644.053 1.287.004c1.997-.147 3.943-1.009 5.373-2.417q.27-.266.507-.552c.47-.556.85-1.166 1.155-1.811l.413.2c.454.56.853 1.166 1.196 1.8l.05.093c.334.633.616 1.297.85 1.98.074.383.08.783-.022 1.216-.584 2.495-1.636 5.537-3.394 7.462-1.499 1.642-3.686 2.444-5.866 2.605q-.427.032-.85.031c-1.754-.001-3.646-.754-4.62-2.267a78.5 78.5 0 0 0-5.027 8.964c-.694 1.455-1.803 3.31-1.12 4.947.235.565.612 1.059.998 1.535.61.753 1.264 1.487 2.072 2.021"/><path fill="#663629" d="M100.807 122.856c.907-.564 1.928-1.054 2.97-.897-.321 1.087-.628 2.34-.08 3.325.615 1.108 1.988 1.324 2.947 2.089.963.769 1.471 2.167 1.247 3.437-.223 1.268-1.166 2.342-2.318 2.638 1.716 1.243 1.188 3.92-.197 5.112-.915.788-2.09 1.126-3.248 1.302-.785.118-1.585.172-2.373.053-1.67-.251-3.233-1.308-4.192-2.832-1.627-2.587-.966-5.518.017-8.178.975-2.636 3.005-4.665 5.227-6.049M109.865 113.973a5.78 5.78 0 0 1-3.72-.242c-.446-.184-.885-.434-1.191-.83-.653-.845-.534-2.084-.296-3.143.384-1.709.979-2.957 2.061-4.212.553-.641.96-1.358 1.599-1.922.349-.308 1.62-.79 1.792-1.135-.895 1.79-1.779 3.676-2.043 5.718-.263 2.031.14 3.128 1.843 4.141.363.215.793.532.733.97-.052.373-.438.562-.778.655"/><path fill="#F8C6CF" d="M69.11 75.522c2.986-1.87 6.314-3.232 9.74-4.094 6.036-1.52 12.583-.003 17.532 3.72 4.022 3.023 6.935 7.473 8.087 12.355.281 1.193.5 2.487 1.361 3.363 1.228 1.25 3.239 1.167 4.99.998.188 1.937-.747 3.944-2.354 5.058-.077.053-.092.05-.083.046.011-.006.067-.016.071.111.006.219.121.42.247.598.463.651 1.386 1.16 2.045.704.224-.156.42-.42.693-.398.196.015.344.178.455.339 1.266 1.832-.008 3.853-1.275 5.273-1.077 1.208-2.419 2.156-3.469 3.389-.904 1.062-1.499 2.667-1.941 3.98-.067.2-.132.408-.11.617.055.558.658.875 1.192 1.051 1.333.44 2.751.625 4.153.548.238-.013.537-.063.861-.113.892-.141 1.976-.297 2.511.255.281.29.352.738.251 1.128-.102.389-.356.725-.65 1.001-.311.294-.702.541-1.13.546-.132 1.235.162 2.615.254 3.853.038.553.075 1.115-.061 1.651-.28 1.096-1.235 1.894-2.236 2.432-2.016 1.085-4.135 1.21-6.359 1.529-1.381.198-2.788.405-4.04 1.021-1.753.863-2.537 2.301-2.696 4.178-.2 2.354.22 4.78 1.365 6.848.525.947 1.274 1.866 2.323 2.153a18.5 18.5 0 0 1-11.656-.683c-1.61-.649-3.157-1.553-4.277-2.874-.088-.103-.176-.217-.194-.351-.02-.144.044-.284.106-.415.962-2.036 1.828-4.129 2.335-6.32.919-3.976.483-8.078-1.47-11.688-.77-1.423-2.033-2.878-3.658-2.796-1.646.082-2.745 1.666-4.149 2.525-1 .612-2.192.859-3.366.901-10.462.379-16.918-10.958-17.2-20.146-.206-6.705 1.588-12.788 6.289-17.791a27.8 27.8 0 0 1 5.513-4.502"/><path fill="#F6B0AD" d="M96.905 140.283c-2.74.203-5.523-.183-8.064-1.141a15 15 0 0 1-1.258-.538c1.402-1.012 2.063-2.85 1.597-4.44l.1-.007a5.3 5.3 0 0 0 2.534-.861c.522.714 1.685 1.615 2.473 2.045.965.528 2.03.872 3.088 1.212a6.8 6.8 0 0 1-.46-1.54 9.9 9.9 0 0 0 1.078 2.73c.51.875 1.24 1.723 2.267 1.985q-.193.05-.39.097c-.973.232-1.967.384-2.966.458"/><path fill="#C16F45" d="M109.982 123.619c1.041-.534 2.035-1.325 2.329-2.407.144-.53.107-1.084.07-1.629.037.545.074 1.099-.07 1.629-.294 1.082-1.288 1.873-2.329 2.407m2.114-7.03q-.007-.378.029-.743l.018-.001a6 6 0 0 0-.047.744m-8.61-30.992a21 21 0 0 0-2.3-4.502l.158-.047c1.031 1.454 1.819 3.007 2.142 4.549"/><path fill="#F6B0AD" d="M104.9 124.965c-1.105.078-2.271-.003-3.358-.068-1.469-.088-2.955-.234-4.33-.754-.994-.374-1.93-.992-2.874-1.568-.822-1.426-2.298-2.497-3.956-2.579a3.8 3.8 0 0 0 .989-.842c1.041-1.219 1.348-3.064.796-4.56-.865-2.341-3.398-3.368-5.683-3.783-.957-.173-1.96-.258-2.933-.186-1.19.088-2.338.411-3.307 1.095-1.328.939-2.166 2.447-3.5 3.378-.837.583-1.831.9-2.851.975a6.7 6.7 0 0 1-1.816-.116 7.37 7.37 0 0 1-2.632-2.901 7.36 7.36 0 0 1-.298-5.811c.57 1.32 1.175 2.69 2.275 3.62.709.599 1.688.951 2.595.884.5-.037.98-.202 1.38-.524-1.036-.573-2.03-1.309-2.598-2.344s-.617-2.421.137-3.332c.128-.155.282-.297.475-.357a.7.7 0 0 1 .162-.031c.6-.045 1.022.732 1.32 1.32a5.08 5.08 0 0 0 3.233 2.589 5 5 0 0 0 1.6.137 5.1 5.1 0 0 0 2.486-.859l-.053-.027c.632-.102 1.23-.411 1.613-.873.239-.277.4-.611.441-.99q.09.01.18.004c.406-.03.769-.309 1.047-.644q.114-.132.209-.273c1.23-1.826 1.094-4.365-.041-6.25-1.137-1.883-3.134-3.145-5.259-3.74-1.457-.407-3.054-.559-4.253-1.479-1.261-.966-1.83-2.694-1.535-4.253a5.1 5.1 0 0 1 1.079-2.309c.679-.797 1.608-1.344 2.687-1.424q.156-.011.316-.01.415.004.83-.026a9.9 9.9 0 0 0 2.896-.662c.697-.275 1.38-.645 1.858-1.22q.028-.03.054-.064c1.091-1.354.735-3.34.092-4.96 2.22 1.308 4.816 1.9 7.395 1.986.81.027 1.619.006 2.426-.054 1.784-.132 3.557-.452 5.302-.853.604-.139 1.212-.291 1.809-.474a22.2 22.2 0 0 1 2.264 4.645q.031.15.055.3c-4.815.091-9.897-.892-14.703-1.346-.376 1.776-1.542 3.307-2.947 4.462s-3.047 1.979-4.674 2.793c3.145.575 5.963 2.708 7.361 5.573 1.4 2.866 1.344 6.392-.144 9.216 2.272-.008 4.475 1.476 5.312 3.579.752 1.888.44 4.009.648 6.029.026.249.064.51.211.713.531.735 1.757.093 2.587.462.693.307.874 1.207.812 1.96s-.267 1.536 0 2.241c.41 1.078 1.713 1.482 2.858 1.638a18.42 18.42 0 0 0 8.767-.945c.382-.14.785-.312 1.008-.653.199-.307.216-.695.212-1.061a15.2 15.2 0 0 0-.498-3.705l.098-.002c.344.028 1.413-.054 1.593-.065a7 7 0 0 0-.026.765c-.001.763.113 1.478.205 2.23q.053.436.085.854c.039.562.077 1.133-.061 1.678-.283 1.113-1.251 1.924-2.265 2.47-1.652.891-3.373 1.145-5.163 1.381"/><path fill="#C94A2C" d="m87.596 138.868-.93-.655q-.091-.158-.187-.314.539.53 1.12.966z"/><path fill="#603227" d="M96.842 135.028a23 23 0 0 1-.217-1.891 24 24 0 0 1-.062-2.148c.02-1.377.232-2.514.706-3.356-.373.717-.585 1.701-.66 2.706-.112 1.54.02 3.146.233 4.689M99.357 127.479q.063-.072.13-.142c1.412-1.505 3.055-1.901 4.668-2.277q.133-.03.265-.06l.004.024c-1.754.378-3.492.948-5.067 2.455"/><path fill="#EA988E" d="M87.947 138.842c-.465-.25-.916-.527-1.344-.836l-.122-.089c.822-1.886 1.07-4.049 1.051-6.116 1.65-.342 3.31-.777 4.761-1.652a7.5 7.5 0 0 0 1.963-1.688c.551-.671.969-1.445 1.173-2.3.292-1.227.038-2.518-.571-3.609.95.601 1.892 1.245 2.89 1.636 1.384.544 2.877.699 4.353.795 1.092.07 2.263.157 3.374.078-.425.057-.854.113-1.286.176-1.405.205-2.838.419-4.109 1.066q-.06.03-.116.06l-.002.001a3.8 3.8 0 0 0-1.187.873c-.883.886-1.318 2.06-1.43 3.469a14 14 0 0 0-.007 2.192c.047.647.14 1.29.277 1.921l.055.29c.103.522.24.966.434 1.468-1.1-.395-2.21-.795-3.217-1.404-.821-.496-2.036-1.531-2.584-2.349a5.14 5.14 0 0 1-2.73.969c.496 1.816-.177 3.905-1.626 5.049"/><path fill="#fff" d="M106.937 107.475a4.6 4.6 0 0 0-.618.554c.273-.294.411-.842.609-1.201.281-.512.648-.987 1.014-1.429.937-1.134 2.048-2.088 3.188-2.986-.007.492.098.978.131 1.47.033.491-.016 1.015-.291 1.406-.229.326-.584.518-.934.683-1.059.498-2.16.799-3.099 1.503M105.664 111.849l-.12-.089a7.4 7.4 0 0 0 3.262-.104c.967-.249 1.866-.938 2.896-.839.132.596.182 1.214.148 1.825-.822.287-1.688.433-2.551.357a8 8 0 0 1-1.055-.18c-.86-.198-1.812-.425-2.58-.97"/><path fill="#BB503C" d="m112.156 116.012.004-.032q.038 0 .074-.003.144-.011.282-.052a3 3 0 0 1-.36.087m.584-.174a2.4 2.4 0 0 0 .611-.429 3 3 0 0 0 .204-.208 2.198 2.198 0 0 1-.815.637m1.248-1.323q.028-.075.049-.153c.107-.408.032-.876-.263-1.179a1 1 0 0 0-.145-.123c.218.151.381.381.454.728.05.239.003.489-.095.727m-1.299-1.733a5 5 0 0 0-.477.003l.01-.004.211-.011q.13.003.256.012m-1.131-11.277c.759-1.245 1.124-2.67.199-4a.94.94 0 0 0-.31-.304c.318.15.549.596.654.87.26.686.305 1.486.122 2.197-.121.465-.36.874-.665 1.237m-.757-4.144c.108-.115.235-.2.39-.212h.023c-.154.012-.284.106-.413.212"/><path fill="#EF808B" d="M111.909 116.03q-.237.017-.474.025-.325.015-.64.022c-.062-.006-.099-.015-.103-.029l.008.03a7 7 0 0 1-.886-.044 7.8 7.8 0 0 1-3.111-1.114 9 9 0 0 1-1.792-1.441c-.504-.525-.86-1.306-1.437-1.711-.13-.092.122-1.341.153-1.531.093-.571.252-1.125.399-1.682.665-2.505 1.981-4.788 3.645-6.677.578-.656 1.172-1.301 1.761-1.946.557-.61.92-1.522 1.328-2.26a2 2 0 0 1 .215-.327c.119-.104.239-.198.381-.208h.039a.5.5 0 0 1 .178.052.9.9 0 0 1 .287.305c.864 1.333.534 2.756-.161 3.995a5 5 0 0 1-.392.442l.001-.026c-1.178.922-2.327 1.902-3.296 3.065-.379.454-.758.941-1.048 1.467-.205.369-.348.931-.63 1.232q.176-.187.364-.349a22.5 22.5 0 0 0-1.312 3.314c-.068.22-.134.45-.113.682.086.939 1.352 1.277 2.3 1.47.338.087.677.157 1.004.223.36.074.723.135 1.089.162q.45.031.897-.002.593-.046 1.172-.19.127-.026.249-.065.161-.045.321-.097l.002-.033.058-.025q.227-.013.441 0c.326.03.633.102.871.282q.072.055.135.124c.275.304.347.772.25 1.179a2 2 0 0 1-.045.153c-.095.25-.242.487-.396.683a3 3 0 0 1-.188.206 2.2 2.2 0 0 1-.563.425 2 2 0 0 1-.207.085 1.1 1.1 0 0 1-.329.054l-.003.032a4.78 4.78 0 0 1-.422.048"/><path fill="#EEA6A8" d="M106.319 108.029c.275-.294.413-.842.612-1.201.282-.512.651-.987 1.019-1.43.942-1.134 2.058-2.088 3.203-2.986v.025a8 8 0 0 1-.952.794c-1.502 1.089-2.657 2.699-3.528 4.457q-.182.158-.354.341"/><path fill="#D06448" d="M107.607 96.362c-.01-.053-.036-.064-.052-.063a1 1 0 0 0 .07-.042l.062-.043a.6.6 0 0 0-.08.148m.868-.813a5.6 5.6 0 0 0 1.018-1.43l-.045.094a5.1 5.1 0 0 1-.862 1.236 1 1 0 0 1-.111.1"/><path fill="#F29CAE" d="M108.315 96.31a1.2 1.2 0 0 1-.438-.239 1.15 1.15 0 0 1-.332-.466 1.11 1.11 0 0 1 .132-1.01l.04-.035.06.013c.126.066.244.154.387.173a.6.6 0 0 0 .123.003c.501-.037 1.018-.666 1.19-1.044.272-.597.461-1.242.906-1.755-.053.06.02.464.017.558a4.558 4.558 0 0 1-.451 1.814 4.8 4.8 0 0 1-.873 1.202c-.2.162-.523.351-.676.559l-.053.036a.4.4 0 0 1-.061.035c.015 0 .037.009.046.053a.3.3 0 0 0-.017.103M97.172 104.498c-1.53.113-3.061-.203-4.344-1.054-.892-.592-1.667-1.499-1.728-2.566-.09-1.58 1.358-2.81 2.778-3.515a14.2 14.2 0 0 1 5.24-1.424c1.261-.093 2.534-.02 3.774.226.478.095.988.238 1.287.622.163.21.244.473.293.734.367 1.925-.866 3.832-2.404 5.053a9.1 9.1 0 0 1-4.896 1.924"/><path fill="#3D3847" d="m102.054 92.992-.003.025c-.123.992-3.294.754-3.992.612-.086-.017-.177-.04-.237-.1-.12-.12-.057-.316.012-.469a5.5 5.5 0 0 0-2.064-.016c.402-.509 1.047-.791 1.684-.988.876-.27 1.809-.418 2.716-.29.656.09 1.959.399 1.884 1.225"/><path fill="#8C432D" d="M93.748 88.531c-1.26.18-2.422.79-3.419 1.562-.458.355-.89.748-1.394 1.038s-1.103.474-1.676.36c.766-.51 1.246-1.321 1.784-2.056 1.065-1.458 2.487-2.723 4.214-3.344 1.726-.62 3.778-.516 5.266.522l-.643-.644c1.382-.476 2.712.71 3.361 1.774.373.614.927 2.028.213 2.602-.375.301-.933.097-1.363-.117-1.984-.987-4.13-2.013-6.343-1.697"/><path fill="#E2747B" d="M66.555 112.475q.434.594.94 1.125c1.764 1.845 4.198 3.033 6.706 3.118-1.858-.57-3.467-1.962-4.334-3.751a7.6 7.6 0 0 1-.302-5.811c.554 1.322 1.143 2.693 2.209 3.625 1.066.933 2.76 1.272 3.843.37-1.002-.576-1.965-1.314-2.517-2.35s-.602-2.422.124-3.331c.124-.154.273-.297.459-.356.664-.211 1.121.652 1.436 1.293.624 1.269 1.796 2.24 3.132 2.596a4.79 4.79 0 0 0 3.95-.712c-3.338-1.737-3.756-6.347-5.825-9.255-.755-1.06-1.63-2.085-2.781-2.65-1.458-.718-3.218-.597-4.689.08-1.793.826-3.195 2.433-3.97 4.293-.774 1.861-.945 3.956-.665 5.963.289 2.071 1.065 4.083 2.284 5.753"/><path fill="#8C432D" d="M68.352 105.538s-.01-.199.01-.547c.034-.345.054-.856.314-1.443.128-.29.33-.605.653-.849.311-.25.744-.414 1.183-.434a3 3 0 0 1 1.295.215c.415.165.78.389 1.124.625.34.247.653.483.968.75.314.262.594.543.858.821.525.56.95 1.131 1.271 1.643.64 1.028.91 1.781.91 1.781l-.34-.433c-.209-.279-.532-.659-.917-1.107-.775-.9-1.882-1.989-3.19-2.877-.622-.457-1.293-.789-1.96-.79a1.63 1.63 0 0 0-.878.235 1.9 1.9 0 0 0-.602.608 5 5 0 0 0-.548 1.277z"/><path fill="#8C432D" d="M73.599 106.286s-.127.021-.313.105a1.67 1.67 0 0 0-.864.939c-.064.17-.09.343-.107.538-.017.383.058.799.233 1.193.083.215.169.39.282.581.11.183.225.359.354.519.258.317.544.579.827.762.284.181.552.302.75.365.199.066.32.098.32.098s-.122.023-.341.028a2.5 2.5 0 0 1-.904-.164 3 3 0 0 1-1.093-.718 3.4 3.4 0 0 1-.462-.571 4 4 0 0 1-.35-.665c-.19-.468-.28-1-.194-1.49.037-.24.127-.481.24-.675.111-.204.263-.365.415-.492.308-.259.64-.352.862-.371.227-.016.345.018.345.018"/><path fill="#8C432D" d="M44.697 50.535q-1.093.118-2.201.463c-.342.108-.681.23-1.036.278-.361.049-.728.019-1.092-.006-10.945-.738-22.07 6.94-24.598 17.775q-.181.78-.299 1.572c-.851 5.753 1.206 10.606 4.847 14.897-1.808-.027-3.501 1.263-4.154 2.945-.653 1.68-.336 3.648.623 5.176.958 1.527 2.5 2.634 4.184 3.291 3.51 1.37 7.725.771 10.715-1.523-.62.877-.056 2.192.886 2.71.941.517 2.092.444 3.155.274 3.086-.493 6.085-1.774 8.505-3.758 2.51-2.056 3.79-4.597 4.94-7.589a31.74 31.74 0 0 0 .075 14.799c-3.645-1.36-7.61-.973-11.338-.145-4.694 1.054-8.818 2.771-12.11 6.27-2.951 3.14-4.675 7.344-4.532 11.667.167 5.039 2.851 9.768 6.959 12.666 3.83 2.702 9.341 3.484 12.989.015-1.543 1.467-.936 5.052.622 6.175 3.406 2.452 8.812.86 11.657-1.752a5.67 5.67 0 0 0-1.783 4.641c.465 4.862 5.84 5.722 9.654 4.305a17.1 17.1 0 0 0 5.078-2.967c-.225.189 1.25 1.136 1.406 1.215.752.374 1.445.385 2.307.237 2.344-.4 3.987-1.97 5.134-3.959-.014.978 1.17 1.491 2.149 1.571 2.438.201 4.947-.704 6.693-2.415 2.21-2.163 2.78-5.34 2.758-8.304 1.626-.329 3.263-.745 4.695-1.582 1.432-.836 2.654-2.148 3.054-3.753.685-2.754-1.626-5.835-4.47-5.957 1.795-1.01 2.475-3.441 1.783-5.316-.851-2.303-3.343-3.315-5.592-3.722-2.091-.379-4.407-.331-6.141.894-1.307.924-2.132 2.408-3.445 3.324-1.36.948-3.148 1.181-4.764.809-1.615-.374-3.064-1.309-4.227-2.487a11.67 11.67 0 0 1-3.337-7.908c-.032-1.731.343-3.495 1.26-4.968.914-1.472 2.401-2.624 4.106-2.957 2.783-.544 5.69 1.255 6.932 3.794.614 1.255.884 2.65 1.415 3.944.532 1.293 1.424 2.555 2.757 2.987 1.332.434 3.086-.36 3.213-1.751.576.078 1.084-.383 1.408-.864 1.211-1.798 1.078-4.296-.04-6.15s-3.084-3.097-5.175-3.682c-1.434-.401-3.006-.55-4.186-1.456-1.24-.951-1.8-2.652-1.51-4.186.376-1.998 1.957-3.738 4.044-3.715a9.7 9.7 0 0 0 3.667-.678c.698-.276 1.383-.649 1.854-1.232 1.089-1.35.714-3.338.066-4.944 2.196 1.309 4.77 1.901 7.33 1.986 2.557.084 5.11-.32 7.604-.893 1.98-.455 4.012-1.06 5.516-2.422 1.72-1.558 2.523-4.054 2.036-6.316-.488-2.263-2.251-4.207-4.459-4.92 1.819-2.899-.374-6.099-2.95-7.618-1.868-1.1-4.103-1.495-6.267-1.346a13.6 13.6 0 0 0-7.702 3.09c-1.682 1.402-2.997 3.19-4.594 4.688-.382.359-.792.708-1.283.892-.578.217-1.213.188-1.83.174-4.493-.105-9.04.823-13.09 2.784-3.11 1.505-6.616 3.712-8.335 6.797.275-2.42 2.101-4.333 3.265-6.476a12.64 12.64 0 0 0 1.255-8.54c-.483-2.313-1.394-4.623-3.204-6.22-.297-.261-.726-.573-1.128-.654-.348-.07-.832-.013-1.055.173-2.898-2.846-6.676-4.586-10.67-4.148"/><path fill="#B26342" d="M58.458 146.285c-3.485.258-7.02-.909-7.355-4.258-.133-1.322.422-2.695 1.476-3.722-1.034 1.024-1.578 2.383-1.446 3.693.335 3.349 3.87 4.516 7.354 4.258a12.8 12.8 0 0 0 2.927-.561 20.1 20.1 0 0 0 5.479-2.707c-.18.127.636.613 1.137.882l-.019.035c-.5-.269-1.33-.76-1.148-.889a20.1 20.1 0 0 1-5.478 2.707c-.92.294-1.921.488-2.927.562"/><path fill="#DAA239" d="M70.084 144.372c-.615.045-1.163-.026-1.743-.302a4 4 0 0 1-.31-.181l.017-.037c.158.098.28.169.32.188.582.274 1.129.346 1.744.3q.293-.022.612-.076c1.725-.287 3.081-1.165 4.146-2.36-1.068 1.211-2.434 2.102-4.174 2.392a7 7 0 0 1-.612.076m9.382-2.432q-.66.05-1.321.001c-.995-.075-2.196-.567-2.19-1.512q.014-.023.027-.046c-.018.954 1.191 1.451 2.19 1.526q.661.049 1.322 0c2.051-.152 4.052-1 5.524-2.379q.262-.244.496-.508a8 8 0 0 1-.523.54c-1.474 1.378-3.474 2.226-5.525 2.378"/><path fill="#B26342" d="M46.269 140.876c-1.66.122-3.295-.199-4.617-1.156-1.446-1.046-2.043-4.306-.754-5.81-1.255 1.517-.657 4.74.78 5.78 1.322.956 2.957 1.277 4.617 1.154 2.459-.182 4.972-1.337 6.608-2.845l-.141.135c-1.637 1.457-4.091 2.564-6.493 2.742"/><path fill="#CB7568" d="M87.063 131.544v-.02c1.502-.274 3.014-.617 4.343-1.286a7 7 0 0 0 1.766-1.25 7 7 0 0 1-1.792 1.275c-1.32.666-2.823 1.008-4.317 1.281"/><path fill="#B26342" d="M35.754 135.343c-2.657.197-5.446-.71-7.664-2.26-4.07-2.845-6.728-7.49-6.891-12.443-.13-3.951 1.343-7.803 3.906-10.807-2.546 2.998-4.008 6.838-3.878 10.776.162 4.952 2.82 9.597 6.89 12.443 2.218 1.55 5.007 2.456 7.664 2.259 1.888-.14 3.709-.836 5.212-2.253l-.095.094c-1.49 1.375-3.285 2.053-5.144 2.191"/><path fill="#D58A80" d="m90.395 119.727-.027-.002c.39-.208.728-.479 1.011-.794a3.8 3.8 0 0 1-.984.796m-8.12-10.95-.042-.021c.64-.084 1.25-.372 1.647-.806-.381.436-.977.729-1.605.827m2.226-1.757a1 1 0 0 1-.178-.003l.003-.033q.102.012.202.005c.39-.029.742-.276 1.015-.578-.278.316-.639.579-1.042.609"/><path fill="#B26342" d="M27.416 105.454c2.693-1.891 6.002-3.401 9.163-3.834-3.373.816-6.456 1.977-9.163 3.834"/><path fill="#D58A80" d="M76.518 88.145a4.14 4.14 0 0 1 2.895-1.18q.396-.003.79-.032c.942-.07 1.876-.256 2.758-.552.652-.219 1.294-.508 1.753-.947-.46.453-1.114.75-1.78.973a11.3 11.3 0 0 1-3.547.583q-.151 0-.3.012a4.14 4.14 0 0 0-2.57 1.143"/><path fill="#B26342" d="m101.196 81.058-.014-.026c1.267-.549 2.469-1.325 3.423-2.61q.28-.379.524-.81-.254.457-.549.855c-.945 1.272-2.132 2.046-3.384 2.591"/><path fill="#D58A80" d="M94.14 82.633c-.802.059-1.608.059-2.415-.015-2.572-.237-5.182-1.256-7.447-3.362l-.028-.099c2.277 2.14 4.908 3.173 7.501 3.412.808.073 1.613.073 2.415.014 1.771-.132 3.524-.552 5.246-1.099.583-.186 1.169-.39 1.744-.64l.013.032a18 18 0 0 1-1.783.656c-1.722.549-3.475.97-5.247 1.1"/><path fill="#C55A5B" d="M81.985 108.778a2.8 2.8 0 0 1-1.011-.104c-1.38-.42-2.301-1.654-2.847-2.92s-.819-2.634-1.451-3.864c-1.184-2.302-3.85-3.976-6.532-3.777a6 6 0 0 0-.64.084c-1.42.267-2.695 1.051-3.637 2.097.945-1.062 2.231-1.858 3.664-2.128q.32-.06.641-.084c2.682-.199 5.348 1.474 6.532 3.777.633 1.229.907 2.596 1.452 3.863.546 1.266 1.466 2.501 2.846 2.92.322.098.669.131 1.011.105q.09-.007.177-.018l.044.021a3 3 0 0 1-.249.028"/><path fill="#7A392A" d="M58.565 146.276c-3.256.241-6.58-1.113-6.939-4.867-.141-1.468.35-2.983 1.303-4.115q.215-.25.459-.473l-.12.108q.073-.072.147-.139c-1.702 1.552-4.318 2.743-6.877 2.933-1.728.128-3.428-.202-4.802-1.184-1.495-1.069-2.115-4.384-.807-5.947q.075-.086.158-.166l-.068.064q.047-.05.096-.096c-1.52 1.435-3.36 2.14-5.268 2.281-2.685.199-5.504-.719-7.746-2.289-4.114-2.882-6.8-7.586-6.965-12.601-.131-3.987 1.345-7.875 3.918-10.911q.292-.34.602-.668a20 20 0 0 1 2.599-2.291c2.49-1.809 5.33-2.935 8.44-3.721q.397-.055.79-.085.261-.02.52-.026c-4.035 3.146-5.933 8.745-4.63 13.656.71 2.673 2.446 5.247 5.202 6.124.85.27 1.752.368 2.642.302a7.15 7.15 0 0 0 3.703-1.35 50 50 0 0 0 .047 5.764c.287 4.332 2.605 6.886 7.07 6.948a19.166 19.166 0 0 0 8.802-2.017c-1.352 1.28-2.81 2.807-2.712 4.654.093 1.739 1.87 3.144 3.59 3.016a3 3 0 0 0 .622-.115c1.386-.427 2.32-1.703 2.993-2.977a18 18 0 0 0 2.075-8.752 8.05 8.05 0 0 1 3.034 3.209c1.054-2.286.38-5.228-1.565-6.835-2.697-2.23-6.289-2.47-8.7-5.277-1.53-1.781-2.705-4.785-3.246-7.039-.69-2.875.083-6.219 1.247-8.868.58-1.322 1.349-2.607 2.38-3.635 1.018-1.015 2.233-1.264 3.333-2.006-1.78-2.463-3.255-4.433-2.627-7.74.53-2.796 2.326-5.24 4.531-7.07q.483-.4.992-.764a18.43 18.43 0 0 1 9.835-3.407c.664-2.335 3.164-3.638 5.661-3.823.444-.033.888-.03 1.322.007 2.873.255 5.497 1.634 8.234 2.531 1.442.473 3.28.775 5.001.647 2.578-.19 4.888-1.347 5.188-4.343.064-.642-.069-1.322-.47-1.83-.297-.377-.718-.637-1.152-.847a7.58 7.58 0 0 0-5.156-.515c.557-1.117 1.678-1.826 2.644-2.623 1.456-1.201 2.3-2.904 1.513-4.715-1.056-2.433-3.758-4.058-6.428-3.869 2.452-.174 4.191-.038 6.373 1.238 2.581 1.51 4.777 4.694 2.952 7.579 2.214.709 3.978 2.642 4.465 4.893.428 1.975-.14 4.129-1.449 5.674q-.263.309-.566.581c-1.026.924-2.299 1.498-3.633 1.914l-.15.046c-.577.174-1.163.32-1.745.453-1.72.394-3.468.707-5.227.838a23 23 0 0 1-2.392.054c-2.564-.083-5.143-.671-7.343-1.972q.015.03.025.063l-.051-.03c.647 1.597 1.022 3.575-.07 4.919l-.025.032c-.47.545-1.132.898-1.805 1.163a9.8 9.8 0 0 1-3.675.676 4 4 0 0 0-.31.01c-1.08.079-2.007.63-2.678 1.428a5 5 0 0 0-1.093 2.293c-.29 1.527.27 3.219 1.512 4.164 1.182.9 2.757 1.049 4.194 1.447 2.093.58 4.063 1.817 5.181 3.662s1.252 4.331.037 6.119q-.08.122-.178.236c-.27.314-.618.57-1.006.598a1 1 0 0 1-.2-.005l-.003.034-.024-.003a1.77 1.77 0 0 1-.412.973c-.393.451-.999.748-1.633.833a2.574 2.574 0 0 1-1.148-.092c-1.335-.43-2.228-1.686-2.76-2.972s-.8-2.675-1.416-3.923c-1.152-2.34-3.733-4.047-6.324-3.855a5 5 0 0 0-.619.082c-1.383.27-2.623 1.073-3.532 2.146q-.338.394-.612.832c-.918 1.465-1.295 3.222-1.264 4.944.052 2.915 1.274 5.792 3.34 7.868 1.165 1.17 2.615 2.101 4.234 2.471.64.146 1.305.198 1.962.149 1.005-.074 1.987-.385 2.812-.956 1.315-.911 2.142-2.39 3.452-3.309.956-.672 2.087-.988 3.26-1.075.961-.071 1.95.012 2.893.181 2.254.405 4.749 1.41 5.6 3.702.54 1.452.246 3.239-.76 4.435-.28.327-.614.608-1 .824l.026.001-.053.03c2.848.121 5.163 3.186 4.474 5.927-.199.792-.6 1.512-1.13 2.139a7.4 7.4 0 0 1-1.904 1.565c-1.435.833-3.075 1.249-4.705 1.576v.027l-.027.006c.02 2.707-.463 5.595-2.256 7.716a7 7 0 0 1-.484.517c-1.44 1.402-3.4 2.261-5.411 2.41a8.4 8.4 0 0 1-1.296-.004c-.98-.08-2.167-.589-2.153-1.562q-.012.023-.027.046v-.015a10.4 10.4 0 0 1-1.059 1.516c-1.04 1.216-2.367 2.107-4.059 2.395a6 6 0 0 1-.6.076c-.603.045-1.14-.03-1.71-.311a5 5 0 0 1-.315-.193l-.019-.013c-.472-.308-1.242-.863-1.075-1.003a17.2 17.2 0 0 1-5.09 2.956c-.856.317-1.79.519-2.73.588"/><path fill="#B26342" d="M48.208 94.448c-.479-1.928.393-4.902.84-6.805a32 32 0 0 0-.84 6.805m8.063-18.164c.471-2.177 2.11-3.972 3.19-5.961-.75 1.384-1.66 2.674-2.388 4.07-.327.626-.55 1.264-.802 1.891m-40.958-6.878c.683-2.936 2.293-7.291 4.857-9.417-2.32 2.69-4.036 5.888-4.857 9.417m39.948-14.573c-2.824-2.77-6.47-4.495-10.338-4.209q-.201.015-.403.037l-.022.003.02-.008c.283-.101.597-.16.928-.184 1.487-.11 3.338.464 4.486.892 2.004.744 3.808 1.977 5.33 3.47"/><path fill="#7A392A" d="M34.867 98.591c-.792.059-1.589-.006-2.275-.383-.63-.347-1.09-1.049-1.142-1.74-.026-.343.05-.683.256-.974-1.702 1.306-3.799 2.064-5.937 2.222a10.96 10.96 0 0 1-4.788-.697c-1.685-.659-3.229-1.769-4.188-3.299a6.3 6.3 0 0 1-.95-2.873 5.3 5.3 0 0 1 .327-2.314c.612-1.58 2.141-2.816 3.823-2.94q.167-.013.334-.01c-2.819-3.327-4.69-6.99-4.998-11.145a17 17 0 0 1 .146-3.784 20 20 0 0 1 .298-1.575c.814-3.49 2.516-6.654 4.816-9.315q.507-.422 1.063-.713c-2.449 6.462-2.3 14.108 1.42 19.932.167-1.419 1.46-2.604 2.876-2.71q.171-.01.344-.003c2.037.106 3.403 2.1 4.235 3.959a29.4 29.4 0 0 1 1.773 5.213c.437 1.835.763 3.838 2.104 5.168a16.2 16.2 0 0 1 1.829-6.07c.482-.903 1.237-1.859 2.222-1.931q.12-.01.242 0c.815.06 1.439.716 2.159 1.102.668.359 1.4.474 2.144.419 1.2-.09 2.43-.62 3.459-1.284 2.71-1.746 4.783-4.319 6.568-7 1.6-2.406 3.026-4.97 3.768-7.762.74-2.79.756-5.842-.393-8.49a3.92 3.92 0 0 1-1.093 2.767c-.932-2.647-2.127-5.244-3.933-7.394-2.276-1.958-3.937-3.614-7.008-4.28a2.4 2.4 0 0 1 .334-.151l.022-.004q.2-.021.4-.036c3.833-.284 7.446 1.422 10.245 4.162h.001l.016.016.016.016c.137-.114.37-.18.612-.198.153-.011.309-.003.444.024.403.081.832.394 1.13.656 1.811 1.6 2.723 3.915 3.207 6.232q.165.795.225 1.604a12.7 12.7 0 0 1-1.481 6.955l-.01.017c-1.07 1.968-2.695 3.743-3.162 5.897-.225.559-.473 1.108-.84 1.63a95 95 0 0 0-3.027 4.586c-.558.9-.94 1.875-1.399 2.82-1.36 2.814-2.048 5.896-2.725 8.946l-.003-.013c.037-2.264.314-4.526.833-6.731-1.151 2.997-2.432 5.544-4.943 7.604-2.423 1.988-5.423 3.27-8.513 3.765-.29.045-.586.085-.883.107"/><path fill="#663629" d="m47.84 96.579-.13-.902a13 13 0 0 1-.099-1.041 11 11 0 0 1-.049-1.363c-.01-.5.023-1.041.058-1.614.03-.574.107-1.176.196-1.797.116-.617.21-1.26.387-1.898.145-.647.36-1.284.554-1.93.243-.628.463-1.265.747-1.868.252-.615.581-1.185.872-1.748.321-.547.633-1.078.977-1.55.335-.477.654-.925.984-1.314.308-.406.626-.75.92-1.043.284-.302.536-.56.76-.755l.698-.62-.587.716c-.196.219-.41.503-.65.832q-.373.486-.79 1.11c-.292.404-.57.865-.859 1.354-.298.484-.553 1.026-.852 1.565-.266.556-.545 1.128-.789 1.726-.27.588-.473 1.21-.703 1.824-.195.624-.414 1.242-.563 1.868-.176.62-.309 1.239-.442 1.838-.1.604-.234 1.185-.305 1.743a20 20 0 0 0-.183 1.576 28 28 0 0 0-.134 2.38zM55.107 53.964s.224.163.602.462c.194.143.409.34.65.575.251.23.524.497.778.82.28.306.541.665.801 1.057.277.383.502.823.746 1.271.206.465.45.936.604 1.447.19.5.303 1.029.444 1.551.082.533.188 1.062.215 1.593.064.528.031 1.052.03 1.554-.04.505-.07.992-.162 1.447a9 9 0 0 1-.293 1.272c-.097.392-.23.74-.36 1.043-.12.308-.23.572-.345.782-.215.422-.348.656-.348.656s.069-.26.203-.704c.078-.218.141-.492.207-.806.075-.311.145-.664.2-1.052.074-.384.108-.804.15-1.247.051-.442.032-.912.053-1.394-.02-.483-.032-.98-.095-1.483-.033-.505-.147-1.008-.23-1.514-.125-.498-.223-1.005-.397-1.483-.143-.488-.336-.95-.513-1.402-.217-.434-.388-.876-.621-1.26-.221-.392-.429-.764-.66-1.087a11 11 0 0 0-.627-.881 6 6 0 0 0-.539-.655 21 21 0 0 1-.493-.562M30.874 52.685s.459-.175 1.268-.46c.412-.12.908-.291 1.489-.443a20 20 0 0 1 1.967-.447 24 24 0 0 1 2.373-.308c.847-.074 1.75-.102 2.68-.037.932.048 1.89.191 2.853.388.477.117.958.242 1.436.384.466.176.952.31 1.407.524.453.214.917.409 1.342.675.438.242.864.497 1.262.792.202.143.407.28.602.426l.56.468c.381.305.734.63 1.054.963 1.326 1.374 2.19 2.911 2.857 4.238.665 1.333 1.082 2.498 1.396 3.302l.459 1.276-.59-1.22a55 55 0 0 0-1.63-3.163c-.707-1.278-1.677-2.706-2.935-3.973a11 11 0 0 0-1.03-.91l-.545-.439c-.189-.138-.388-.263-.583-.397a10.4 10.4 0 0 0-1.218-.737c-.408-.248-.856-.423-1.29-.623-.43-.213-.892-.346-1.336-.523a30 30 0 0 0-1.37-.392 19 19 0 0 0-2.744-.421c-.9-.066-1.776-.096-2.607-.065-.832.016-1.618.095-2.34.182-.724.095-1.385.197-1.97.304-.586.1-1.088.228-1.508.314zM18.411 82.979s.23.351.537.85a31.78 31.78 0 0 0 2.385 3.39c.352.436.595.759.595.759s-.316-.058-.754-.336c-.44-.266-.99-.78-1.457-1.442a7.918 7.918 0 0 1-1.039-2.108c-.212-.647-.267-1.114-.267-1.114M68.766 68.378s.232-.082.644-.213c.418-.121 1.022-.3 1.767-.455.374-.077.78-.156 1.216-.22.434-.065.895-.131 1.375-.172a27 27 0 0 1 3.014-.124c1.024.02 2.043.096 2.977.229a24 24 0 0 1 2.487.484c.712.168 1.285.349 1.68.48.392.134.6.23.6.23l-.658-.135c-.416-.088-1.025-.177-1.755-.286l-1.18-.168c-.414-.06-.858-.104-1.314-.153-.458-.048-.936-.074-1.42-.109a34 34 0 0 0-1.474-.052c-.99-.022-1.986.008-2.92.059a41 41 0 0 0-4.353.487 25 25 0 0 1-.686.118M95.035 68.846s.566-.496 1.52-1.08c.946-.578 2.336-1.25 3.878-1.378.757-.053 1.559.027 2.243.253.696.216 1.3.57 1.747.952.453.378.741.79.903 1.089.167.299.228.483.228.483s-.124-.149-.357-.374a4.8 4.8 0 0 0-1.04-.78 6.2 6.2 0 0 0-1.659-.62 6.7 6.7 0 0 0-1.994-.127c-1.375.105-2.726.588-3.746.959-1.018.384-1.723.623-1.723.623M39.046 135.099s.269-.237.654-.542c.39-.31.89-.713 1.37-1.132.483-.416.947-.853 1.302-1.195.352-.343.618-.579.618-.579s-.042.341-.265.8c-.212.461-.627 1.023-1.152 1.482-.27.221-.552.43-.84.592a4.8 4.8 0 0 1-.822.374c-.504.18-.865.2-.865.2M50.914 139.48s.265-.426.747-.97a14.4 14.4 0 0 1 1.919-1.804 14 14 0 0 1 2.193-1.409 7.3 7.3 0 0 1 1.095-.466s-.32.382-.842.871a29 29 0 0 1-1.974 1.685 29 29 0 0 1-2.105 1.498c-.595.383-1.033.595-1.033.595M63.9 144.83s.17-.079.426-.243c.257-.164.6-.423.944-.783.7-.712 1.364-1.852 1.998-3.016a44 44 0 0 0 1.602-3.262l.677-1.529s-.017.665-.243 1.641c-.218.977-.677 2.254-1.33 3.455-.34.597-.691 1.18-1.098 1.702-.402.523-.848.977-1.296 1.299-.442.33-.877.52-1.186.618-.156.052-.28.077-.364.092zM73.221 143.088l.548-.806c.318-.476.692-1.122 1.012-1.802.323-.68.6-1.39.811-1.937.208-.545.375-.918.375-.918s.046.411-.02 1.017a6.5 6.5 0 0 1-.187 1.023c-.097.369-.242.75-.408 1.121a6.6 6.6 0 0 1-.617 1.016 4.7 4.7 0 0 1-.699.745 3.5 3.5 0 0 1-.578.416c-.148.083-.237.125-.237.125M86.405 136.852s.087-.603.183-1.484c.045-.442.088-.954.108-1.503.013-.273.01-.556.01-.842 0-.292-.021-.564-.038-.877a6 6 0 0 1 .026-.964c.04-.331.146-.645.274-.913.07-.137.134-.262.205-.366.077-.117.15-.221.227-.319.15-.2.306-.368.455-.513a5.7 5.7 0 0 1 1.065-.82l-.23.311c-.145.195-.355.47-.587.807q-.172.256-.349.557c-.057.1-.113.208-.163.312-.055.118-.108.229-.151.337-.18.455-.212.956-.17 1.552.01.289.024.619.017.92-.003.307-.034.606-.064.893a9.7 9.7 0 0 1-.298 1.53c-.243.871-.52 1.382-.52 1.382"/><path fill="#fff" d="M117.571 104.041a87 87 0 0 1 6.423-8.438c.235-.273.54-.57.886-.499.372.076.551.566.454.948-.098.381-.384.673-.657.944zM118.769 106.055a63 63 0 0 1 6.832-2.414q.398-.116.798-.228c.148-.042.326-.078.442.017.074.061.099.158.121.249.078.331.118.754-.183.936a.9.9 0 0 1-.311.095zM128.17 112.668c-2.653-1.312-5.57-2.06-8.126-3.551 2.913.575 5.852 1.159 8.57 2.355l-.16 1.075-.057.139c-.062.051-.154.016-.227-.018"/><path fill="#4A5B77" d="M117.083 225.776c.523-6.117.468-11.603.244-17.685l-17.936 1.298-.204.015c-1.761.131-3.59.316-5.058 1.279-1.305.856-2.162 2.225-2.899 3.59-1.257 2.334-1.482 4.139-2.295 6.602-.678-.24-1.563-.52-2.234-.775.502-1.93.553-3.193 1.29-5.048l-.67-.26c-.737 1.854-.893 3.126-1.398 5.055-3.376-1.236-6.38-2.67-9.464-4.309 1.48-2.069 2.486-3.524 4.099-5.483 1.635-1.987 3.318-4.008 4.243-6.401a7 7 0 0 0 1.278.073.45.45 0 0 0 .26-.086c.13-.106.14-.294.141-.46l.009-1.378c-.524-.06-.976-.321-1.345-.69 1.56.184 3.52.089 4.253.12q1.372.055 2.747.081c.058.528.069 1.075.222 1.58.047.154.115.315.25.405.137.092.313.094.478.089q.296-.008.59-.029a12.6 12.6 0 0 0 3.074-.622 6 6 0 0 1-.75-1.381l.584.003 5.201.028q.476.004.956.005c.086.433.194.859.338 1.277.109.317.249.641.518.844.36.271.856.254 1.308.226l2.008-.128.024-.002a.35.35 0 0 0 .186-.053c.083-.066.095-.184.099-.289l.04-.981c.007-.167.013-.339-.035-.499-.05-.165-.152-.305-.257-.444a57 57 0 0 0 2.269-.121 37 37 0 0 0 4.178-.528q.082.092.183.168c.434.325 1.029.41 1.624.366a5.2 5.2 0 0 0 1.464-.341c.678-.266 2.153-.606 2.25-1.465a1.8 1.8 0 0 0-.011-.431l.318-.149.061-.029c.007.106.029.215.118.27l.154.038c.094.008.53-.001.991-.035.276-.02.561-.05.787-.09.457 1.854.846 3.726 1.362 5.567.564 2.011 1.518 3.895 2.343 5.81l.541-.415c1.424 2.253 2.579 4.661 3.732 7.061.056.118.11.286.165.487.073.357.029.712-.292.833q.44.682.876 1.369c.266.794.632 1.537 1.192 1.899l.226.364c-1.475.477-2.428 1.145-3.118 3.122-1.15.129-2.59.36-3.675.44s-2.01.128-3.01.168c.063-.787.217-.808.228-1.646.029-2.234-.028-4.604-.104-6.978a208 208 0 0 0-.448-6.959c-.177-2.218-.433-4.281-.645-6.048a78 78 0 0 0-.334-2.408c-.029-.178-.097-.426-.321-.525a.54.54 0 0 0-.242-.038c-.125.009-.233.059-.325.095q-.436.2-.783.389c-.464.249-.806.484-1.037.643l-.348.251s.501-.334 1.448-.77q.355-.165.795-.331a1 1 0 0 1 .237-.058.3.3 0 0 1 .15.024c.103.049.143.189.161.357l.195 2.413c.154 1.77.273 3.839.426 6.052.148 2.215.27 4.578.352 6.943.108 2.363.197 4.733.199 6.944-.001.848-.13.878-.164 1.673q-.66.022-1.318.035c.072-.788.256-.843.303-1.739.079-1.361.116-2.816.131-4.27a88 88 0 0 0-.088-4.271c-.058-1.362-.174-2.631-.263-3.717-.203-2.172-.442-3.607-.442-3.607l.005.999.033 2.63.032 3.712.002 4.252c.001 1.447-.025 2.894-.042 4.251-.017.902-.14.972-.155 1.769q-1.134.018-2.261.008m11.775-7.707s-.238-.535-.627-1.298c-.382-.761-.894-1.774-1.405-2.787l-1.378-2.802a33 33 0 0 0-.658-1.282s.052.581.271 1.423c.21.843.604 1.937 1.118 2.976.519 1.038 1.155 2.013 1.703 2.691.54.684.976 1.079.976 1.079m-37.83-13.137a45 45 0 0 0-2.68 6.617l.687.211a44.3 44.3 0 0 1 2.64-6.512z"/><path fill="#454D67" d="m92.726 222.642.597-.628c.389-.388.927-.964 1.605-1.616 2.56-2.454 2.416-2.411 5.111-4.705.441-.386.879-.744 1.293-1.087.418-.339.786-.67 1.134-.985.683-.63 1.225-1.187 1.539-1.64.326-.442.476-.728.476-.728l-.083.216c-.058.139-.142.346-.28.591a9.4 9.4 0 0 1-1.384 1.861c-.65.696-1.445 1.462-2.299 2.263-2.579 2.435-2.547 2.26-5.255 4.527-.719.601-1.345 1.068-1.77 1.411zM93.847 223.61l3.62-2.899c3.429-2.824 2.81-2.458 5.242-4.594l1.644-1.482-.493-1.107-.04-.09.069-.037c.304-.166.484-.658.334-1.078.194.362.124.897-.185 1.183l.632 1.095.067.115-.096.103c-3.21 3.459-3.16 3.769-6.918 6.342a45 45 0 0 1-3.876 2.449"/><path fill="#E31F25" fill-rule="evenodd" d="M.448 108.553A122 122 0 0 0 0 119c0 66.274 53.726 120 120 120 33.179 0 63.214-13.466 84.936-35.23l-17.569-8.181C169.399 211.407 145.82 221 120 221c-56.333 0-102-45.667-102-102q0-1.135.025-2.263z" clip-rule="evenodd"/></svg>