<svg xmlns="http://www.w3.org/2000/svg" width="240" height="240" fill="none"><path fill="#E31F25" fill-rule="evenodd" d="M120 240c66.274 0 120-53.726 120-120S186.274 0 120 0 0 53.726 0 120s53.726 120 120 120" clip-rule="evenodd"/><path fill="#fff" fill-rule="evenodd" d="M119.873 221.344c55.971 0 101.344-45.374 101.344-101.344S175.844 18.656 119.873 18.656 18.529 64.03 18.529 120s45.373 101.344 101.344 101.344" clip-rule="evenodd"/><path fill="#fff" fill-rule="evenodd" d="M120 221.344c55.971 0 101.344-45.374 101.344-101.344S175.971 18.656 120 18.656 18.656 64.03 18.656 120 64.03 221.344 120 221.344" clip-rule="evenodd"/><path fill="#fff" fill-rule="evenodd" d="m42.134 62.5 20.239-20.239L197.611 177.5l-20.239 20.239z" clip-rule="evenodd"/><path fill="#fff" fill-rule="evenodd" d="M42.262 62.5 62.5 42.261 197.739 177.5 177.5 197.739z" clip-rule="evenodd"/><path fill="#544F41" d="M145.981 51.58c-2.398.642-3.896 2.28-5.952 3.673s-4.478 3.127-6.866 3.807c-.251 3.231 1.753 3.779 4.085 3.59l8.053-.652q.4-.032.799-.068c.544 1.284 1.101 2.122.906 2.4-.461.658-3.122.978-5.502 4.169-2.281-.983-7.174-3.337-9.031-3.63-4.998-.787-10.777-.568-14.469 2.89-2.099 1.966-3.275 4.795-4.133 7.54a6.65 6.65 0 0 0-.258 2.827c.125.942.976 2.202 1.898 2.433 1.017.151 2.258.469 3.007.002 1.552-.969 3.199-1.858 4.48-3.164a16 16 0 0 1 1.186-1.084c2.492 3.844 5.536 4.466 9.126 7.745-4.133 4.049-10.891 16.527-15.109 20.094-6.467 5.468-14.096 9.493-21.984 12.655-7.888 3.164-15.944 6.418-22.43 11.868a33.5 33.5 0 0 0-4.398 4.458c-2.285 1.071-4.346 1.765-6.69 2.6-4.82 1.717-8.3 1.695-13.379 2.311-6.727.815-11.692.199-18.432.89-1.22.126-2.945 2.413-2.61 3.593 5.722 2.906 26.484 5.838 33.94 6.335.435-.002 2.53-.645 2.97-.656q.038.713.134 1.422c.111.81.28 1.605.495 2.387-1.191 1.265-3.65 3.705-4.8 4.981-3.208 3.554-11.313 7.534-17.412 10.408a5 5 0 0 0-.654.305c-.288.133-.483.262-.604.392-.716.53-1.333 1.223-1.868 1.97-1.78 2.483-2.73 5.66-2.637 8.81.024.803.382 1.855 1.113 1.748-.624 1.054-.38 2.539.379 3.481.76.943 1.928 1.397 3.077 1.487 3.664.285 6.38-1.754 8.302-4.557.809-1.179 2.025-2.621 2.362-4.004 4.85 1.278 8.334.868 13.36.731-1.345 3.296-4.525 6.238-6.763 9.029-.558.695-.753 1.435-.915 2.218a13.57 13.57 0 0 0-1.172 7.729c.115.786.614 1.775 1.383 1.581-.55 1.109-.214 2.16.704 2.993.918.831 2.306 1.514 3.545 1.463 3.95-.164 5.785-3.108 7.528-6.091 1.147-1.962 2.41-5.406 2.169-7.703 4.46-3.128 9.312-6.39 13.38-10.013 2.083-1.855 4.143-3.825 5.952-5.965a60 60 0 0 0 4.991-.346c11.819-1.289 23.439-5.181 33.764-11.235 9.558 3.21 18.035 2.838 28.131 2.438.414-.208 1.558.881 3.182 1.335.993.277 3.073-.041 4.434-.244 3.296-.494 7.872-4.894 6.799-5.941 1.788-.703 1.475-3.372 1.413-3.894-.235-1.969-2.352-3.842-3.962-4.386-1.739-.609-7.533-.111-9.62 1.033-.763.418-1.679-.576-2.455-1.033 7.136-.745 11.276-2.371 18.044-4.782 2.096 1.245 5.208.534 6.518-.553 2.284-1.664 6.587-4.435 5.098-8.379.607-.355 1.283-1.834.946-3.015-.334-1.173-1.313-2.339-2.552-3.114-4.893-2.049-7.95.59-12.357 3.018-9.025-1.441-9.661-3.341-17.443-6.884.04-1.057.756-5.685 2.678-10.933 1.69-4.615 3.506-9.024 4.616-11.652q-.27.26-.581.526c7.332 2.6 17.515 3.753 25.663 2.799-.197 1.855-.617 3.735-1.121 5.604-.609 2.261-1.344 4.607-.801 6.695.544 2.086 2.829 3.817 5.655 3.292 1.487-.276 2.876-1.13 3.89-2.146s1.696-2.187 2.267-3.354c2.25-4.602 2.976-9.396 2.59-13.919 2.833-1.499 5.429-3.371 7.82-5.556 4.755-4.349 7.425-11.202 7.462-17.31 0-19.142-8.71-20.648-14.114-22.012-12.08-2.53-21.963 1.036-33.969 2.16-1.887-.796-3.515-1.277-4.708-1.984-2.303-1.365-4.487-3-6.753-4.448-1.583-1.011-3.258-1.943-4.961-2.614-2.209-.982-4.795-1.139-6.829-.594"/><path fill="#FFF9E9" d="M142.448 73.081c-6.199 9.008-16.364 23.215-22.563 32.224-1.842 2.676.241.254-.344 3.466-.409 2.256-.148 4.602.319 6.874.41 1.996.994 3.994 2.092 5.737 1.226 1.945 3.027 3.473 4.856 4.888 5.058 3.907 10.897 7.321 17.225 7.64.758.037 10.681-2.299 10.744-3.039.67-7.753 1.507-9.175 4.217-15.935 1.236-3.089 2.82-8.328 4.47-11.218a54 54 0 0 0 5.219-12.635c.886-3.263 1.469-6.677.997-10.061-1.085-7.785-10.755-21.724-19.713-16.103-3.221 2.02-5.408 5.095-7.519 8.162"/><path fill="#F2ECDF" d="M155.079 95.198c.06-.666.191-1.38.674-1.839.307-.29.718-.44 1.128-.533 2.212-.502 4.544.552 6.153 2.149.99.983 2.204 2.44 2.865 3.989a54 54 0 0 1-2.417 4.777c-1.142 1.998-2.25 5.115-3.234 7.871a2 2 0 0 1-.284-.204c-1.612-1.34-2.341-3.44-2.983-5.435-1.127-3.495-2.225-7.116-1.902-10.775"/><path fill="#DDD8CE" d="M173.305 152.667c.782.845 1.351 1.949 1.314 3.099-.038 1.15-.793 2.311-1.91 2.589.599.429.201 1.377-.286 1.931a12.6 12.6 0 0 1-7.451 4.092c-1.091.169-2.223.192-3.285-.11-2.986-.851-4.782-4.377-4.048-7.395.802-3.307 3.75-5.045 6.876-5.601 3.16-.561 6.296-1.302 8.79 1.395"/><path fill="#BCB8B1" d="M168.07 156.606c1.935-.744 4.284-.386 5.855.966.021.016-.638.601-.718.651-.297.182-.401.216-.665.031-.452-.317-.88-.647-1.37-.909-.946-.511-2.018-.832-3.102-.739"/><path fill="#DDD8CE" d="M142.998 138.772c2.235 1.782 4.099 3.978 6.168 5.95a40.5 40.5 0 0 0 14.477 8.859c1.009.354 2.048.675 2.929 1.281s1.597 1.563 1.613 2.631c.01.744-.316 1.454-.727 2.071a7.5 7.5 0 0 1-3.362 2.757c-1.505.62-3.164.728-4.788.792-10.866.431-21.931-.796-32.013-4.875-2.518-1.018-5.034-2.259-6.852-4.277s-2.817-4.969-1.889-7.521c.572-1.572 1.79-2.824 3.111-3.851 3.662-2.849 7.946-3.542 12.002-5.498 1.331-.642 2.292-1.39 3.843-1.147 1.992.314 3.943 1.596 5.488 2.828"/><path fill="#BF946D" d="M157.46 56.55c-3.387-2.163-7.219-3.947-10.798-3.342-.69.117-1.402.354-1.793.956-.672 1.034-.137 2.598.407 3.882q1.395 3.29 2.788 6.58c.262.62.535 1.256.98 1.749.575.639 1.365.96 2.13 1.141 1.785.424 3.567.223 5.292-.06 4.265-.698 8.502-1.835 12.413-3.566-.669-1.663-3.671-2.327-5.034-3.135-2.177-1.29-4.243-2.837-6.385-4.205"/><path fill="#FFF9E9" d="M154.793 121.023c.348 3.742.496 7.55-.262 11.283-1.807 8.889-8.546 16.35-16.046 22.014-11.598 8.758-25.666 14.352-40.04 15.92-7.13.779-14.748.463-20.531-3.32-3.36-2.198-5.853-5.414-7.898-8.802-1.73-2.867-3.201-5.951-3.659-9.284-1.048-7.631 3.475-15.428 9.673-20.636 6.2-5.209 13.9-8.32 21.44-11.343 7.539-3.023 15.237-6.148 21.418-11.374 4.101-3.468 7.385-7.74 11.315-11.389 2.54-2.358 7.713-6.92 11.52-6.461 3.223.39 4.803 4.743 6.034 7.171 4.118 8.105 6.187 17.143 7.036 26.221"/><path fill="#F2ECDF" d="M75.45 161.887c5.783 3.784 13.4 4.099 20.53 3.321 14.374-1.569 28.445-7.164 40.04-15.921 7.503-5.665 19.412-20.423 18.651-16.689-1.806 8.889-8.543 16.349-16.046 22.014-11.595 8.756-25.664 14.35-40.04 15.92-7.13.778-14.747.463-20.53-3.32-3.36-2.198-5.965-7.523-2.606-5.325"/><path fill="#FFF9E9" d="M186.805 131.416c.997.575 1.868 1.459 2.174 2.568.307 1.11-.066 2.442-1.049 3.039.699.231.602 1.256.301 1.93a12.6 12.6 0 0 1-5.894 6.126c-.991.486-2.064.845-3.168.873-3.105.077-5.868-2.755-6.069-5.853-.218-3.397 2.08-5.935 4.897-7.395 2.849-1.477 5.623-3.12 8.808-1.288"/><path fill="#F2E2D3" d="M182.98 136.736c1.624-1.286 3.975-1.645 5.876-.822.026.01-.429.764-.492.837-.228.261-.319.326-.624.227-.526-.168-1.034-.355-1.579-.461-1.055-.205-2.174-.194-3.181.219"/><path fill="#FFF9E9" d="M162.325 102.877c8.993 4.214 19.671 5.433 29.504 3.369 6.339-1.331 12.385-4.039 16.93-8.195s7.493-9.813 7.528-15.651c.017-2.775 2.449-16.03-8.338-20.546-1.797-.753-3.589-1.636-5.546-2.046-12.414-2.6-25.056 2.36-37.756 3.005-9.233.469-20.442-.548-24.014 9.048-2.68 7.2 4.14 16.933 9.199 22.141 3.508 3.613 7.757 6.654 12.493 8.875"/><path fill="#231F20" d="M207.843 61.66c-1.672-.691-3.341-1.496-5.14-1.928-3.504 2.241-6.941 6.69-7.501 9.941-.334 1.941.398 4.188 2.155 5.078 2.904 1.47 6.268-1.37 9.507-1.04 1.275.13 2.44.749 3.651 1.169 1.211.419 2.621.623 3.722-.034.939-.56 1.444-1.62 1.808-2.653-.812-4.113-2.951-8.362-8.202-10.533"/><path fill="#BF946D" d="M128.657 65.586c-.704-.093-1.458-.153-2.088.17-1.425.734-4.173 5.478-3.744 7.02 1.506 5.406 7.401 7.684 11.537 11.475 1.63 1.497 3.601 2.873 5.814 2.865 2.093-.007 4.038-1.31 5.218-3.04 1.181-1.73 1.688-3.835 1.9-5.92.428-4.266-1.149-6.618-4.932-8.25-4.402-1.9-8.921-3.687-13.705-4.32M156.251 68.782c-.542 1.35-.438 2.859-.518 4.314a16.7 16.7 0 0 1-1.704 6.48c-.563 1.133-1.271 2.247-1.391 3.506-.135 1.38.47 2.747 1.336 3.83 2.107 2.638 5.697 3.796 9.066 3.554 3.368-.24 6.538-1.719 9.363-3.568 1.18-.772 2.325-1.623 3.248-2.689.757-.875 1.351-1.88 1.88-2.91a30 30 0 0 0 2.544-6.949c.32-1.387.54-2.837.241-4.23-.3-1.392-1.211-2.724-2.558-3.183-1.132-.386-2.367-.118-3.539.116a61 61 0 0 1-8.668 1.102c-2.045.111-3.646-.129-5.496-.947-1.595-.705-3.037-.337-3.804 1.574"/><path fill="#fff" d="M171.673 79.575c-1.455 2.345-5.419 2.519-8.857.387-3.438-2.13-5.044-5.76-3.591-8.106 1.454-2.345 5.42-2.518 8.857-.387 3.438 2.132 5.045 5.76 3.591 8.106"/><path fill="#231F20" d="M167.609 71.295c1.696 1.501 2.132 3.777.976 5.084s-3.47 1.15-5.166-.351c-1.695-1.502-2.132-3.778-.975-5.085s3.47-1.15 5.165.352"/><path fill="#635E5A" d="M200.677 72.448c.166-.107.31-.246.42-.413.642-.973-.063-2.285.154-3.43.329-1.738 2.527-2.399 3.449-3.909.242-.396.39-.897.208-1.325-.539-1.27-1.613-1.074-2.721-.353-1.497.972-3.058 2.9-3.454 3.455-.703.988-1.323 2.101-1.373 3.313s.62 2.522 1.782 2.867c.51.152 1.097.08 1.535-.205"/><path fill="#231F20" d="M209.853 96.836s-5.246 2.719-13.37.85c-8.124-1.87-10.239-4.499-10.86-4.139s3.704 3.914 8.596 5.682c4.893 1.767 10.967 1.465 10.967 1.465s1.542-1.088 2.278-1.675c1.536-1.225 2.389-2.183 2.389-2.183"/><path fill="#F45C4D" d="M190.324 105.67c.182 2.636-.344 5.389-1.061 8.114-.539 2.053-1.189 4.184-.708 6.079s2.504 3.467 5.005 2.991c1.317-.25 2.546-1.027 3.444-1.95.898-.922 1.501-1.986 2.007-3.046 2.049-4.3 2.671-8.785 2.261-12.996-.229-2.349-.854-4.993-3.391-5.829-1.463-.482-3.639-.374-3.639-.374s-2.481-1.674-4.162-2.567c-1.215-.646-4.104-1.951-3.174-.952 3.208 3.447 3.323 9.151 3.418 10.53"/><path fill="#F78A7A" d="M192.78 109.922c.591-.404.837-1.034 1.006-1.612.608-2.076.768-4.167.469-6.138-.172-1.13-.642-2.994-1.836-3.596-.513-.259-.902-.238-1.171-.063-.555.36-.603 1.377-.192 1.954 1.268 1.783 1.822 3.975 1.579 6.244-.12 1.107-.413 2.306.145 3.211M191.575 116.293c.21-.136.365-.367.473-.573a8.2 8.2 0 0 0 .832-2.438c.167-1.003-.649-1.579-1.333-1.135-.236.153-.456.429-.615.851-.344.917-.457 1.856-.331 2.734.048.337.239.728.669.676a.7.7 0 0 0 .305-.115"/><path fill="#FFF9E9" d="M51.001 138.796c-6.43.779-12.94.611-19.383 1.272-1.166.119-2.711.79-2.392 1.918.198.704 1.034.974 1.75 1.131 11.178 2.476 22.546 4.428 33.996 4.376 6.998-.032 14.688-1.153 19.33-6.392 5.801-6.547-1.362-12.312-8.186-10.331-3.737 1.085-7.184 3.349-10.866 4.661a66.3 66.3 0 0 1-14.249 3.365"/><path fill="#F2ECDF" d="M133.975 151.791c-1.367-.651-2.64-1.641-3.492-3.002-.851-1.363-1.238-3.121-.841-4.687.571-2.243 2.677-3.691 4.782-3.769 2.106-.077 4.161 1.004 5.83 2.484 2.239 1.99 4.028 5.747 1.958 8.601-1.697 2.339-6.098 1.391-8.237.373"/><path fill="#FFF9E9" d="M153.731 127.181c2.664 1.035 5.099 2.575 7.662 3.841a40.5 40.5 0 0 0 16.458 4.145c1.068.038 2.155.036 3.177.351s1.991 1.015 2.324 2.031c.23.708.132 1.481-.077 2.194a7.5 7.5 0 0 1-2.388 3.634c-1.252 1.038-2.803 1.636-4.335 2.181-10.244 3.649-21.172 5.772-32.011 4.882-2.706-.222-5.478-.657-7.817-2.041-2.337-1.384-5.978-5.918-5.851-8.632.079-1.671 2.677-1.214 3.63-2.587 2.65-3.812 6.533-5.75 9.82-8.823 1.081-1.01 1.775-2.011 3.327-2.241 1.997-.296 4.241.347 6.081 1.065"/><path fill="#F2ECDF" d="M101.956 158.683c1.131 2.638 1.592 5.94-.194 8.188a5.07 5.07 0 0 1-3.631 1.88 5.07 5.07 0 0 1-3.82-1.457c-1.58-1.581-1.924-4.012-1.855-6.246a23 23 0 0 1 .558-4.387c.273-1.2.68-2.442 1.605-3.254 3.4-2.986 6.335 2.941 7.337 5.276"/><path fill="#FFF9E9" d="M98.73 161.585c-1.672 5.919-6.15 10.596-10.745 14.687a135 135 0 0 1-19.656 14.537c-1.934 1.175-4.571 2.259-6.277.771-1.097-.96-1.256-2.667-.787-4.048.466-1.38 1.436-2.522 2.35-3.661 3.563-4.442 6.64-9.622 6.902-15.31.158-3.417-.501-10.443-2.577-14.369-1.597-3.025 1.751-2.967 4.065-5.486 2.825-3.076 7.313-3.325 11.215-3.217 2.783.077 6.148-.303 8.877.256 6.448 1.321 8.178 10.477 6.633 15.84"/><path fill="#BF946D" d="M106.222 125.265c-.04 1.516-1.241 2.704-2 4.016a7.46 7.46 0 0 0-.707 5.711c.594 2.085 2.11 3.955 2.038 6.122-.037 1.108-.497 2.161-1.08 3.105-2.196 3.564-6.303 5.866-10.487 5.88-3.887.014-7.806-1.79-11.557-.768-1.066.291-2.09.806-3.194.852-2.92.117-4.99-3.249-4.657-6.156.33-2.906 2.263-5.339 4.12-7.598 2.472-3.007 5.099-5.877 7.594-8.861 1.677-2.006 3.157-4.5 5.342-6.009 3.55-2.45 14.761-2.697 14.588 3.706"/><path fill="#DDD8CE" d="M82.096 175.717c-10.553 1.399-21.489 2.361-31.673-.739-1.61-.49-3.39-1.277-3.888-2.885-.77-2.489-4.734-3.292-2.336-4.31 6.186-2.622 14.41-6.859 17.734-10.237 3.047-3.097 5.975-6.726 10.157-7.897 2.042-.571 4.219-.49 6.302-.106 7.742 1.421 14.779 7.75 15.51 15.586.71 7.605-5.472 9.748-11.806 10.588"/><path fill="#EDB68A" d="M146.223 53.01c-2.267.608-4.262 1.939-6.206 3.256-1.945 1.318-3.927 2.664-6.184 3.307-.073.944.701 1.788 1.59 2.114.889.327 1.869.254 2.813.178l7.615-.617c1.059-.086 2.128-.174 3.15-.465a8.16 8.16 0 0 0 3.516-2.065c4.482-4.478-2.734-6.661-6.294-5.708"/><path fill="#FFF9E9" d="M63.845 201.312c-1.15.048-2.358-.236-3.212-1.008-.852-.774-1.246-2.101-.735-3.131-.715.179-1.179-.74-1.285-1.47a12.6 12.6 0 0 1 1.709-8.327c.578-.942 1.294-1.818 2.213-2.431 2.581-1.723 6.431-.807 8.254 1.707 2.001 2.753 1.414 6.126-.187 8.866-1.62 2.771-3.087 5.641-6.757 5.794"/><path fill="#F2E2D3" d="M64.235 194.772c-.685 1.956-2.48 3.514-4.529 3.835-.024.003-.044-.876-.03-.97.054-.344.095-.446.408-.528.534-.139 1.062-.25 1.58-.453 1.001-.391 1.941-.998 2.571-1.884"/><path fill="#EDB68A" d="M132.608 65.678c-4.727-.745-10.1-.6-13.591 2.67-1.985 1.86-3.066 4.474-3.877 7.07-.267.857-.513 1.753-.395 2.643.119.89.692 1.78 1.564 1.998.811.203 1.643-.202 2.351-.645 1.467-.915 3.025-1.755 4.236-2.99 3.934-4.013 11.658-6.569 15.629-8.107 0 0-3.801-2.306-5.917-2.64"/><path fill="#DDD8CE" d="M43.66 184.193c-1.149-.082-2.318-.499-3.077-1.364-.76-.864-1.004-2.226-.38-3.193-.73.099-1.088-.866-1.112-1.603a12.6 12.6 0 0 1 2.637-8.083c.679-.87 1.49-1.661 2.47-2.167 2.762-1.422 6.484-.078 8.013 2.624 1.676 2.963.715 6.247-1.185 8.789-1.922 2.572-3.703 5.259-7.366 4.997"/><path fill="#BCB8B1" d="M44.785 177.739c-.902 1.866-2.86 3.212-4.932 3.301-.026 0 .053-.875.08-.968.09-.335.144-.432.463-.478.545-.077 1.084-.13 1.62-.272 1.04-.276 2.04-.773 2.769-1.583"/><path fill="#E31F25" fill-rule="evenodd" d="m33.092 46.283 160.625 160.625 13.192-13.192L46.284 33.092z" clip-rule="evenodd"/></svg>