<svg xmlns="http://www.w3.org/2000/svg" width="240" height="240" fill="none"><path fill="#E31F25" fill-rule="evenodd" d="M120 240a120 120 0 1 0 0-240 120 120 0 0 0 0 240" clip-rule="evenodd"/><path fill="#fff" fill-rule="evenodd" d="M119.9 221.3a101.3 101.3 0 1 0 0-202.6 101.3 101.3 0 0 0 0 202.6" clip-rule="evenodd"/><path fill="#fff" fill-rule="evenodd" d="M120 221.3a101.3 101.3 0 1 0 0-202.6 101.3 101.3 0 0 0 0 202.6" clip-rule="evenodd"/><path fill="#fff" fill-rule="evenodd" d="m42.1 62.5 20.3-20.2 135.2 135.2-20.2 20.2z" clip-rule="evenodd"/><path fill="#fff" fill-rule="evenodd" d="m42.3 62.5 20.2-20.2 135.2 135.2-20.2 20.2z" clip-rule="evenodd"/><path fill="#544F41" d="M146 51.6c-2.4.6-4 2.3-6 3.7s-4.4 3-6.8 3.8c-.3 3.2 1.7 3.7 4 3.6l8.1-.7h.8c.5 1.2 1.1 2 1 2.3-.6.7-3.2 1-5.6 4.2-2.3-1-7.2-3.3-9-3.6-5-.8-10.8-.6-14.5 2.9-2 2-3.3 4.8-4.1 7.5a6.7 6.7 0 0 0-.3 2.8c.1 1 1 2.2 2 2.5 1 .1 2.2.4 3 0 1.5-1 3.1-1.9 4.4-3.2a16 16 0 0 1 1.2-1c2.5 3.8 5.5 4.4 9.1 7.7-4.1 4-10.9 16.5-15.1 20a79.7 79.7 0 0 1-22 12.7c-7.9 3.2-16 6.4-22.4 11.9a33.5 33.5 0 0 0-4.4 4.4c-2.3 1.1-4.4 1.8-6.7 2.6-4.8 1.8-8.3 1.7-13.4 2.3-6.7.9-11.7.2-18.4 1-1.2 0-3 2.3-2.6 3.5 5.7 3 26.5 5.9 34 6.4.4 0 2.4-.7 2.9-.7l.1 1.4.5 2.4-4.8 5a66.3 66.3 0 0 1-17.4 10.4 5 5 0 0 0-.6.3 8.8 8.8 0 0 0-2.5 2.4 14.6 14.6 0 0 0-2.7 8.8c0 .8.4 1.8 1.2 1.7-.7 1-.4 2.6.3 3.5.8 1 2 1.4 3.1 1.5 3.7.3 6.4-1.8 8.3-4.6.8-1.1 2-2.6 2.4-4 4.8 1.3 8.3.9 13.3.8-1.3 3.3-4.5 6.2-6.7 9-.6.7-.8 1.4-1 2.2a13.6 13.6 0 0 0-1.1 7.7c.1.8.6 1.8 1.4 1.6-.6 1.1-.2 2.2.7 3 .9.8 2.3 1.5 3.5 1.5 4-.2 5.8-3.1 7.5-6.1 1.2-2 2.5-5.4 2.2-7.7 4.5-3.1 9.3-6.4 13.4-10a60 60 0 0 0 6-6 60 60 0 0 0 5-.3 85.5 85.5 0 0 0 33.7-11.3c9.6 3.2 18 2.9 28.1 2.5.4-.2 1.6.8 3.2 1.3 1 .3 3 0 4.4-.2 3.3-.5 8-5 6.8-6 1.8-.7 1.5-3.4 1.5-3.9-.3-2-2.4-3.8-4-4.4-1.7-.6-7.5 0-9.6 1-.8.5-1.7-.5-2.5-1 7.2-.7 11.3-2.3 18-4.7 2.2 1.2 5.3.5 6.6-.6 2.3-1.7 6.6-4.4 5-8.4.7-.3 1.4-1.8 1-3a5.8 5.8 0 0 0-2.5-3.1c-5-2-8 .6-12.4 3-9-1.4-9.6-3.3-17.4-6.9 0-1 .7-5.7 2.7-11 1.6-4.5 3.5-9 4.6-11.6l-.6.6a62 62 0 0 0 25.7 2.8c-.2 1.8-.7 3.7-1.2 5.6-.6 2.2-1.3 4.6-.8 6.7.6 2 2.9 3.8 5.7 3.3 1.5-.3 2.9-1.2 3.9-2.2s1.7-2.2 2.2-3.3c2.3-4.6 3-9.4 2.6-14 2.9-1.5 5.5-3.3 7.9-5.5a24.5 24.5 0 0 0 7.4-17.3c0-19.2-8.7-20.7-14.1-22-12-2.6-22 1-34 2.1-1.9-.8-3.5-1.3-4.7-2-2.3-1.3-4.5-3-6.7-4.4-1.6-1-3.3-2-5-2.6-2.2-1-4.8-1.2-6.8-.6"/><path fill="#FFF9E9" d="M142.4 73 120 105.4c-1.9 2.7.2.3-.4 3.5-.4 2.2-.1 4.6.4 6.8.4 2 1 4 2 5.8 1.3 2 3 3.5 5 4.9 5 3.9 10.8 7.3 17.1 7.6.8 0 10.7-2.3 10.8-3 .6-7.8 1.5-9.2 4.2-16 1.2-3 2.8-8.3 4.5-11.2a54 54 0 0 0 5.2-12.6c.9-3.3 1.5-6.7 1-10-1.1-7.9-10.8-21.8-19.7-16.2-3.3 2-5.4 5.1-7.6 8.2"/><path fill="#F2ECDF" d="M155 95.2c.1-.7.3-1.4.8-1.8.3-.3.7-.5 1-.6 2.3-.5 4.6.6 6.2 2.2 1 1 2.2 2.4 2.9 4a54 54 0 0 1-2.4 4.7c-1.2 2-2.3 5.2-3.3 8a2 2 0 0 1-.2-.3c-1.6-1.3-2.4-3.4-3-5.4a27.7 27.7 0 0 1-2-10.8"/><path fill="#DDD8CE" d="M173.3 152.7c.8.8 1.4 2 1.3 3 0 1.2-.8 2.4-1.9 2.7.6.4.2 1.3-.3 1.9a12.6 12.6 0 0 1-7.4 4c-1.1.2-2.3.3-3.3 0-3-.9-4.8-4.4-4-7.4.7-3.3 3.7-5 6.8-5.6 3.2-.6 6.3-1.3 8.8 1.4"/><path fill="#BCB8B1" d="M168 156.6a6 6 0 0 1 6 1l-.8.6c-.3.2-.4.2-.7 0l-1.3-.9c-1-.5-2-.8-3.1-.7"/><path fill="#DDD8CE" d="M143 138.8c2.2 1.8 4.1 4 6.2 6a40.5 40.5 0 0 0 14.4 8.8c1 .3 2 .7 3 1.3s1.6 1.5 1.6 2.6c0 .7-.3 1.4-.7 2a7.5 7.5 0 0 1-3.4 2.8 14 14 0 0 1-4.8.8c-10.9.4-22-.8-32-4.9-2.5-1-5-2.2-6.9-4.2s-2.8-5-1.8-7.6a9 9 0 0 1 3-3.8c3.7-2.9 8-3.6 12-5.5 1.4-.7 2.4-1.4 4-1.2 1.9.4 3.9 1.6 5.4 2.9"/><path fill="#BF946D" d="M157.5 56.5c-3.4-2.1-7.3-3.9-10.8-3.3-.7.1-1.4.4-1.8 1-.7 1-.2 2.6.4 3.8l2.8 6.6a6 6 0 0 0 1 1.8 4 4 0 0 0 2 1.1c1.9.4 3.6.2 5.4 0 4.2-.7 8.5-1.9 12.4-3.6-.7-1.7-3.7-2.3-5-3.1-2.2-1.3-4.3-2.9-6.4-4.2"/><path fill="#FFF9E9" d="M154.8 121c.3 3.8.5 7.6-.3 11.3a39.3 39.3 0 0 1-16 22 81.7 81.7 0 0 1-40 16c-7.2.7-14.8.4-20.6-3.4a26.6 26.6 0 0 1-7.9-8.8c-1.7-2.8-3.2-6-3.6-9.3-1-7.6 3.4-15.4 9.6-20.6a77.1 77.1 0 0 1 21.5-11.3c7.5-3 15.2-6.2 21.4-11.4 4-3.5 7.4-7.8 11.3-11.4 2.5-2.4 7.7-7 11.5-6.5 3.2.4 4.8 4.8 6 7.2a72.7 72.7 0 0 1 7 26.2"/><path fill="#F2ECDF" d="M75.5 161.9c5.7 3.8 13.4 4 20.5 3.3a81.8 81.8 0 0 0 40-16c7.5-5.6 19.4-20.3 18.7-16.6a39.2 39.2 0 0 1-16 22 81.8 81.8 0 0 1-40.1 16c-7.1.7-14.8.4-20.5-3.4-3.4-2.2-6-7.5-2.7-5.3"/><path fill="#FFF9E9" d="M186.8 131.4c1 .6 1.9 1.5 2.2 2.6.3 1 0 2.4-1 3 .6.3.5 1.3.2 2a12.6 12.6 0 0 1-5.9 6c-1 .6-2 1-3.1 1-3.1 0-5.9-2.8-6.1-5.9-.2-3.4 2-6 4.9-7.4 2.8-1.5 5.6-3.1 8.8-1.3"/><path fill="#F2E2D3" d="M183 136.7a6 6 0 0 1 5.9-.8l-.5.9c-.3.2-.4.3-.7.2l-1.5-.5c-1-.2-2.2-.2-3.2.2"/><path fill="#FFF9E9" d="M162.3 102.9c9 4.2 19.7 5.4 29.5 3.3 6.4-1.3 12.4-4 17-8.1s7.5-9.9 7.5-15.7c0-2.8 2.4-16-8.4-20.5-1.7-.8-3.5-1.7-5.5-2-12.4-2.7-25 2.3-37.8 3-9.2.4-20.4-.6-24 9-2.6 7.2 4.2 16.9 9.2 22.1 3.5 3.6 7.8 6.7 12.5 8.9"/><path fill="#231F20" d="M207.8 61.7c-1.6-.7-3.3-1.5-5.1-2a18 18 0 0 0-7.5 10c-.3 2 .4 4.2 2.2 5 2.9 1.5 6.2-1.3 9.5-1 1.2.1 2.4.8 3.6 1.2 1.2.4 2.6.6 3.7 0 1-.6 1.5-1.7 1.8-2.7-.8-4.1-3-8.4-8.2-10.5"/><path fill="#BF946D" d="M128.7 65.6c-.7-.1-1.5-.2-2.1.2-1.5.7-4.2 5.4-3.8 7 1.5 5.4 7.4 7.7 11.6 11.5 1.6 1.4 3.6 2.8 5.8 2.8 2 0 4-1.3 5.2-3 1.2-1.8 1.7-3.9 1.9-6 .4-4.2-1.2-6.6-5-8.2-4.3-1.9-8.9-3.7-13.6-4.3m27.6 3.2c-.6 1.3-.5 2.8-.6 4.3a16.7 16.7 0 0 1-1.7 6.5c-.5 1.1-1.2 2.2-1.4 3.5-.1 1.4.5 2.7 1.4 3.8 2 2.7 5.7 3.8 9 3.6a20 20 0 0 0 9.4-3.6c1.2-.8 2.3-1.6 3.3-2.7.7-.9 1.3-1.9 1.8-2.9a30 30 0 0 0 2.6-7c.3-1.3.5-2.8.2-4.2-.3-1.4-1.2-2.7-2.5-3.2-1.2-.3-2.4 0-3.6.2a61 61 0 0 1-8.6 1c-2 .2-3.7 0-5.5-.9-1.6-.7-3-.3-3.8 1.6"/><path fill="#fff" d="M171.7 79.6c-1.5 2.3-5.4 2.5-8.9.4-3.4-2.2-5-5.8-3.6-8.1 1.5-2.4 5.4-2.6 8.9-.4 3.4 2.1 5 5.7 3.6 8"/><path fill="#231F20" d="M167.6 71.3c1.7 1.5 2.1 3.8 1 5s-3.5 1.2-5.2-.3c-1.7-1.5-2.1-3.7-1-5s3.5-1.2 5.2.3"/><path fill="#635E5A" d="m200.7 72.4.4-.4c.6-1 0-2.3.2-3.4.3-1.7 2.5-2.4 3.4-3.9.2-.4.4-.9.2-1.3-.5-1.3-1.6-1.1-2.7-.4a16 16 0 0 0-3.5 3.5c-.7 1-1.3 2-1.3 3.3s.6 2.5 1.7 2.9c.6.1 1.1 0 1.6-.3"/><path fill="#231F20" d="M209.9 96.8s-5.3 2.8-13.4.9c-8.1-1.9-10.3-4.5-10.9-4.2s3.7 4 8.6 5.7c5 1.8 11 1.5 11 1.5l2.3-1.7c1.5-1.2 2.4-2.2 2.4-2.2"/><path fill="#F45C4D" d="M190.3 105.7c.2 2.6-.3 5.4-1 8-.6 2.1-1.2 4.3-.7 6.2s2.5 3.4 5 3c1.3-.3 2.5-1 3.4-2 .9-1 1.5-2 2-3 2-4.3 2.7-8.8 2.3-13-.3-2.4-.9-5-3.4-5.9-1.5-.4-3.7-.3-3.7-.3s-2.4-1.7-4.1-2.6c-1.2-.7-4.1-2-3.2-1 3.2 3.5 3.3 9.2 3.4 10.6"/><path fill="#F78A7A" d="M192.8 110c.6-.5.8-1.1 1-1.7.6-2 .8-4.2.5-6.1-.2-1.2-.7-3-1.9-3.6-.5-.3-.9-.3-1.2 0-.5.3-.6 1.3-.1 1.9a9 9 0 0 1 1.5 6.2c0 1.1-.4 2.3.2 3.2m-1.2 6.4c.2-.1.3-.4.4-.6a8.2 8.2 0 0 0 .9-2.4c.1-1-.7-1.6-1.4-1.2l-.6.9c-.3 1-.4 1.9-.3 2.7 0 .4.2.8.7.7a.7.7 0 0 0 .3-.1"/><path fill="#FFF9E9" d="M51 138.8c-6.4.8-13 .6-19.4 1.3-1.1 0-2.7.8-2.4 1.9.2.7 1 1 1.8 1.1 11.2 2.5 22.5 4.4 34 4.4 7 0 14.7-1.2 19.3-6.4 5.8-6.5-1.4-12.3-8.2-10.3-3.7 1-7.2 3.3-10.8 4.6a66.3 66.3 0 0 1-14.3 3.4"/><path fill="#F2ECDF" d="M134 151.8a8.2 8.2 0 0 1-3.5-3 6.2 6.2 0 0 1-.9-4.7 5.2 5.2 0 0 1 4.8-3.8c2.1 0 4.2 1 5.9 2.5 2.2 2 4 5.8 2 8.6-1.8 2.4-6.2 1.4-8.3.4"/><path fill="#FFF9E9" d="M153.7 127.2c2.7 1 5.1 2.6 7.7 3.8a40.5 40.5 0 0 0 16.5 4.2c1 0 2.1 0 3.1.3s2 1 2.4 2c.2.8 0 1.5-.1 2.2a7.5 7.5 0 0 1-2.4 3.7 14 14 0 0 1-4.3 2.2 77.2 77.2 0 0 1-32 4.8c-2.8-.2-5.5-.6-7.9-2-2.3-1.4-6-6-5.8-8.6 0-1.7 2.6-1.2 3.6-2.6 2.7-3.8 6.5-5.8 9.8-8.8 1.1-1 1.8-2 3.3-2.3 2-.3 4.3.4 6.1 1"/><path fill="#F2ECDF" d="M102 158.7c1 2.6 1.5 6-.2 8.2a5 5 0 0 1-3.7 1.9 5 5 0 0 1-3.8-1.5c-1.6-1.6-2-4-1.8-6.3a23 23 0 0 1 .5-4.3 6 6 0 0 1 1.6-3.3c3.4-3 6.4 3 7.4 5.3"/><path fill="#FFF9E9" d="M98.7 161.6c-1.6 5.9-6.1 10.6-10.7 14.7a135 135 0 0 1-19.7 14.5c-1.9 1.2-4.5 2.3-6.2.8-1.1-1-1.3-2.7-.8-4 .4-1.4 1.4-2.6 2.3-3.7 3.6-4.5 6.7-9.7 7-15.3a34 34 0 0 0-2.7-14.4c-1.6-3 1.8-3 4.1-5.5 2.8-3 7.3-3.3 11.2-3.2 2.8 0 6.2-.3 8.9.2 6.4 1.4 8.2 10.5 6.6 15.9"/><path fill="#BF946D" d="M106.2 125.3c0 1.5-1.2 2.7-2 4a7.5 7.5 0 0 0-.7 5.7c.6 2 2.1 4 2 6.1 0 1.1-.4 2.2-1 3.1a12.6 12.6 0 0 1-10.5 5.9c-3.9 0-7.8-1.8-11.6-.8-1 .3-2 .8-3.2.9-2.9.1-5-3.3-4.6-6.2.3-2.9 2.2-5.3 4.1-7.6l7.6-8.8c1.7-2 3.1-4.5 5.3-6 3.6-2.5 14.8-2.7 14.6 3.7"/><path fill="#DDD8CE" d="M82.1 175.7a75 75 0 0 1-31.7-.7c-1.6-.5-3.4-1.3-3.9-3-.7-2.4-4.7-3.2-2.3-4.2a67 67 0 0 0 17.7-10.3c3-3 6-6.7 10.2-7.9 2-.5 4.2-.4 6.3 0 7.7 1.4 14.8 7.7 15.5 15.5.7 7.6-5.5 9.8-11.8 10.6"/><path fill="#EDB68A" d="M146.2 53c-2.2.6-4.2 2-6.2 3.3-2 1.3-4 2.6-6.2 3.3 0 1 .7 1.8 1.6 2 1 .4 1.9.3 2.8.3l7.7-.7c1 0 2-.1 3.1-.4a8.2 8.2 0 0 0 3.5-2c4.5-4.6-2.7-6.7-6.3-5.8"/><path fill="#FFF9E9" d="M63.8 201.3c-1.1 0-2.3-.2-3.2-1-.8-.8-1.2-2.1-.7-3.1-.7.2-1.2-.8-1.3-1.5a12.6 12.6 0 0 1 1.7-8.3c.6-1 1.3-1.8 2.2-2.5 2.6-1.7 6.5-.8 8.3 1.8 2 2.7 1.4 6-.2 8.8-1.6 2.8-3 5.7-6.8 5.8"/><path fill="#F2E2D3" d="M64.2 194.8a6 6 0 0 1-4.5 3.8v-1c0-.3 0-.4.4-.5l1.6-.4c1-.4 1.9-1 2.5-2"/><path fill="#EDB68A" d="M132.6 65.7c-4.7-.8-10-.6-13.6 2.6a16 16 0 0 0-4.3 9.8c.2.9.7 1.7 1.6 2 .8.2 1.7-.2 2.4-.7 1.4-.9 3-1.7 4.2-3 4-4 11.7-6.5 15.6-8 0 0-3.8-2.4-5.9-2.7"/><path fill="#DDD8CE" d="M43.7 184.2c-1.2 0-2.4-.5-3.1-1.4-.8-.8-1-2.2-.4-3.2-.7.1-1-.8-1.1-1.6a12.6 12.6 0 0 1 2.6-8c.7-1 1.5-1.7 2.5-2.2 2.8-1.4 6.5-.1 8 2.6 1.7 3 .7 6.3-1.2 8.8-1.9 2.6-3.7 5.3-7.3 5"/><path fill="#BCB8B1" d="M44.8 177.7a6 6 0 0 1-5 3.3l.1-1c.1-.3.2-.4.5-.4l1.6-.3c1-.3 2-.8 2.8-1.6"/><path fill="#E31F25" fill-rule="evenodd" d="m33 46.3 160.7 160.6 13.2-13.2L46.3 33.1z" clip-rule="evenodd"/></svg>