<svg xmlns="http://www.w3.org/2000/svg" width="240" height="240" fill="none"><path fill="#E31F25" fill-rule="evenodd" d="M120 240c66.274 0 120-53.726 120-120S186.274 0 120 0 0 53.726 0 120s53.726 120 120 120" clip-rule="evenodd"/><path fill="#fff" fill-rule="evenodd" d="M120 221.344c55.971 0 101.344-45.373 101.344-101.344S175.971 18.656 120 18.656 18.656 64.03 18.656 120c0 55.971 45.374 101.344 101.344 101.344" clip-rule="evenodd"/><path fill="#2B2B2A" fill-rule="evenodd" d="M34.66 65.318a102 102 0 0 0-2.827 4.685v99.994a102 102 0 0 0 2.828 4.685zM59.447 38.73c-.957.714-1.898 1.449-2.828 2.196v158.149c.93.747 1.87 1.482 2.828 2.196zM84.234 25.156q-1.424.537-2.828 1.115v187.457a99 99 0 0 0 2.828 1.116zM109.02 19.25q-1.42.154-2.828.346v200.808q1.408.192 2.828.346zM130.979 220.75q1.42-.154 2.828-.346V19.596q-1.408-.192-2.828-.346zM155.766 214.844q1.424-.537 2.827-1.116V26.271a100 100 0 0 0-2.827-1.115zM180.553 201.271c.957-.714 1.897-1.449 2.828-2.196V40.925a102 102 0 0 0-2.828-2.195zM205.34 174.683a101 101 0 0 0 2.827-4.686V70.003a101 101 0 0 0-2.827-4.685z" clip-rule="evenodd"/><path fill="#EAB08A" fill-rule="evenodd" d="m124.114 161.6-11.281 3.151c-1.651.661-6.791 1.595-8.751 1.125-2.412-.505-2.823-1.384-3.601-2.905-1.189-2.326-.183-2.517.471-5.209-5.581-.532-10.23 1.087-14.508 3.668-2.636 1.59-3.122 3.342-4.067 6.897-2.177 8.197-3.765 26.945-.56 33.62.7 1.456 1.285 1.402.807 3.584a18.3 18.3 0 0 1-1.607 4.429c6.344.362 10.484.224 17.288 2.057 5.945 1.601 9.903 3.796 14.391 6.912-.795-2.904-1.787-4.644-3.778-6.711-2.595-2.695-5.302-3.808-6.357-4.892l-.42-.524c9.611 3.49 10.126 9.109 14.857 8.337 2.254-.368 3.254-.823 5.302-1.51l4.749-1.988c3.052-1.306 6.767-3.199 8.35-6.32 1.307-2.576.393-4.169.053-6.417.974-.957 1.931-1.782 2.789-2.963 1.906-2.627.792-3.106 2.015-3.813.048-1.792-.152-2.21-.797-3.541-1.749-3.607 2.981-3.399.277-11.342-1.012-2.969 1.967-6.078-1.593-10.741-.367-.481-.716-.799-1.108-1.409-.766-1.192-.221-.651-.634-1.734-.289 1.204.071 1.598-.449 3.365-.528 1.793-2.152 8.012-3.525 9.031 0-2.951-.994-4.486-1.915-6.161-.269-.489-.138-.419-.461-.992-.328-.585-1.002-1.246-1.589-1.722 1.72-.389 3.648 2.295 4.57 3.209 1.083-2.796 3.141-6.903 1.984-10.531-.278-.871-.735-1.118-.788-1.755-.055-.657-.762-.048.177-.464-.674-1.468-5.358-4.452-7.173-5.416-.466 2.89-.65 6.982-1.478 9.499-.629.086-.982.122-1.64.176M107.696 220.599a3 3 0 0 1-.585-.561l-8.378-3.152-7.022-1.688c-2.523-.414-4.978-.789-7.498-.812q-.674-.006-1.223-.015a100.7 100.7 0 0 0 24.706 6.228" clip-rule="evenodd"/><path fill="#FEFEFE" fill-rule="evenodd" d="M134.273 38.399c.307.28-.135.28.692.172 1.513-.202.633.016 1.129-.58-.549-1.34-.177-3.033.078-4.681l-1.004-.726.683-2.776c2.23-.319.552.728 2.574.63a75 75 0 0 0 3.595-5.907c.751-1.378-.024-2.04 1.336-2.841.733-.431 2.214-.59 3.419-.193 4.402 1.453 2.146 4.916 3.83 12.125.768-.113 1.277-.189 2.238.07-.089 2.823-1.448 1.63-2.787 4.892-.949 2.309-1.804 3.069-3.317 3.976 1.64.436 4.065-.303 3.987 2.855l2.945.39c.373-2.168 3.59-4.713 6.195-.825 1.287 1.922 3.031 1.214 2.192 4.37l2.444.697c.765-.84 1.157-1.579 2.875-1.154 1.344.332 2.211 1.363 2.192 2.363-.02 1.012-.277.765-.337 1.629-.051.748.25.546-.168 1.465-.125.276-.778 1.15-.984 1.362-.834.854-.429-.106-1.149 1.25l1.779 1.847c-.149 2.229-.783 4.246-.874 5.178-.186 1.887-.431.747.397 1.466.9-1.41 8.513-33.416 9.162-37.296l-19.087-4.605-42.45-10.242-8.997 37.285c.397-1.601 1.035-3.783 1.562-5.217 1.079-2.945 1.874-1.267 3.578-2.315.359-2.273-.467.09-.721-3.496-.069-.975-.062-.566-.202-1.57l.545-.528c1.027-1.374-.241-3.002 2.666-3.717 2.437-.599 4.285.476 4.267 2.928 1.444.014 1.917-.067 3.155.607.36-1.97.969-2.495 2.344-2.922 2.568-.797 2.519.408 4.018.83.634.178 6.511-1.705 6.2 3.204" clip-rule="evenodd"/><path fill="#02060F" fill-rule="evenodd" d="M179.929 38.407c-4.689-.976-.21-6.563 1.716-2.15-.269 1.446-.59 1.64-1.716 2.15m-73.021-25.009-.035.734c1.651-3.301 4.675-2.938 8.728-1.542l42.835 10.432 19.498 4.802-9.126 37.856c1.503.179 3.465.96 4.794.723 1.072-.19 2.487-1.158 3.143-2.387 1.348-2.526 1.865-7.102 3.102-9.748l-2.15 9.185c-.174 1.898-.454.529.277 1.425 2.643-9.583 5.2-20.234 7.34-29.98 2.051-9.335-11.265-7.34-15.636-9.96-.829-.498-.652-1.205-1.974-1.877-.987-.502-2.725-.826-3.844-1.094-3.458-.826-36.087-8.956-37.838-8.973-2.872-.027.499 1.65-6.52-.05-4.386-1.064-10.781-3.589-12.594.454" clip-rule="evenodd"/><path fill="#7A7A7B" fill-rule="evenodd" d="M128.16 105.924c-1.871-.824-2.448-.792-4.328-.741 2.822-10.85 7.3-25.134 10.59-36.677.26-.912.553-1.811.861-2.708.555-1.616.66-1.905.259-2.81-1.099.797-.972 1.42-1.342 2.847l-12.739 38.767c-.689.595-.555 1.331-1.034 2.285l.666-.342c.071-.04.284-.187.368-.228 1.119-.551.663-.347 1.965-.423l-12.166 38.06c1.937-.393 3.841-.211 5.948.236l9.13-37.827c1.82.372 3.013 1.152 4.175 2.209.09 1.909-3.419 26.19-4.001 30.024l-1.309 9.003c-.32.735-.115.368-.429.643l.257.796c.871.989 1.333 1.932 1.527 3.568.506-.456.052.712.54-.879 1.087-6.957 1.624-14.516 2.426-21.604.764-6.745 1.277-15.087 2.433-21.519 1.051-5.853 6.276-42.727 7.391-44.697l-.962-.017-7.488 43.675c-1.297-.864-1.306-1.103-2.738-1.641" clip-rule="evenodd"/><path fill="#C8C8C7" fill-rule="evenodd" d="M146.738 42.56c-.628.343-1.862.97-2.591 1.275-1.235.518-1.603.325-2.936.438 3.508.488 3.022-.987 5.312-1.227l-.652 2.983c1.269.294 2.88 1.249 3.268 2.128 1.894 1.3 3.788 2.788 3.664 5.094-.084 1.585-.852 2.522-1.093 4.232-.197 1.406-.12 2.625-.537 4.078 2.423.79 15.883 4.258 17.634 4.119l9.126-37.856-19.498-4.802-.127.53 19.086 4.605c-.648 3.88-8.262 35.886-9.162 37.296-.827-.719-.582.42-.397-1.466.092-.932.726-2.949.875-5.178l-1.779-1.847c.719-1.356.314-.396 1.148-1.25.206-.211.859-1.086.985-1.362.418-.919.116-.717.168-1.465.059-.864.317-.617.336-1.629.019-1-.848-2.031-2.192-2.363-1.718-.425-2.11.313-2.874 1.154l-2.444-.696c.838-3.157-.906-2.449-2.193-4.37-2.604-3.889-5.822-1.344-6.195.825l-2.945-.39c.078-3.16-2.347-2.42-3.987-2.856" clip-rule="evenodd"/><path fill="#62656A" fill-rule="evenodd" d="m106.908 13.398-.781.71c1.197.805.387-.201.493 1.163l-6.984 28.97c-.456 1.537-.56.912-.185 3.018.201 1.131-.124-.128.125.708.664 2.231 3.467 2.628 5.857 3.2 1.018.243 2.039.482 3.053.747 1.28.334 2.192.708 2.989.153l-5.226-1.253L115.6 12.59c-4.052-1.396-7.076-1.759-8.727 1.542z" clip-rule="evenodd"/><path fill="#E4E3E2" fill-rule="evenodd" d="m111.475 52.067 14.167-8.727c1.188-.99 1.557-1.136 2.752-1.869l5.107-3.103c.751-.201-.05-.317.772.03.311-4.908-5.566-3.025-6.2-3.203-1.499-.422-1.45-1.627-4.018-.83-1.375.427-1.984.951-2.344 2.922-1.238-.674-1.711-.593-3.155-.607.018-2.452-1.83-3.527-4.267-2.928-2.907.715-1.639 2.342-2.666 3.717l-.545.527c.14 1.005.133.596.203 1.57.254 3.587 1.08 1.224.72 3.497-1.704 1.047-2.498-.63-3.578 2.315-.526 1.434-1.165 3.616-1.562 5.217l8.997-37.286 42.45 10.243.128-.53-42.835-10.432-9.352 38.224z" clip-rule="evenodd"/><path fill="#4E4E4E" fill-rule="evenodd" d="m117.209 144.19.25.013c3.675.917 5.067 1.884 7.316 4.039.315-.275.109.092.429-.643l1.309-9.003c.582-3.834 4.091-28.115 4.001-30.024-1.162-1.056-2.355-1.837-4.175-2.209z" clip-rule="evenodd"/><path fill="#0B9DBE" fill-rule="evenodd" d="m126.113 55.562 13.042 3.129.315-.668c-.021-.367 1.681-1.924 2.154-2.2 5.865-3.407 2.149-1.255 5.166-5.112 1.97-2.518 2.849-.929 2.351-2.554-.389-.88-2-1.834-3.269-2.129-.95 1.806-2.747 1.463-4.847.931-2.009-.508-3.981-1.154-3.58-3.101l-.043-.043c-3.302-.519-6.108.135-7.653 2.409-1.613 2.373-2.957 6.334-3.636 9.338" clip-rule="evenodd"/><path fill="#3A3B44" fill-rule="evenodd" d="m133.405 62.462.397-1.647 7.022 1.716-.386 1.6.373-.39c.041-.047.125-.14.174-.199l.793-.953c1.878.447 13.502 3.454 14.894 3.386 1.922-.096 1.945-1.421 3.67-1.295 7.35.535 13.703 6.114 17.631.198-.731-.896-.451.473-.277-1.425l2.151-9.185c-1.238 2.646-1.755 7.222-3.103 9.748-.655 1.228-2.071 2.196-3.143 2.387-1.329.236-3.291-.544-4.794-.723-1.751.138-15.211-3.33-17.634-4.12l-.48-.108-11.54-2.762-13.041-3.128-14.638-3.495c-.796.554-1.708.18-2.989-.154-1.013-.264-2.034-.503-3.053-.747-2.389-.571-5.193-.968-5.856-3.2-.25-.835.076.424-.126-.707-.374-2.106-.27-1.481.185-3.018l6.985-28.97c-.107-1.365.703-.358-.494-1.163-1.002 5.852-4.802 19.987-6.562 27.247-.904 3.733-1.531 5.188.443 7.664 1.716 2.152 8.616 3.154 12.414 4.064 2.426.581 1.804.784 2.847 2.224 1.443 1.995 14.31 4.333 17.655 5.141l.394 1.746c.019.068.039.188.088.268" clip-rule="evenodd"/><path fill="#DA504E" fill-rule="evenodd" d="m112.834 164.751 11.281-3.15c.759-2.392 1.035-10.041.917-12.563l-.258-.795c-2.248-2.156-3.64-3.123-7.316-4.039l-4.977 19.436c.011 1.078-.551.386.353 1.111" clip-rule="evenodd"/><path fill="#C8C8C7" fill-rule="evenodd" d="M134.272 38.399c-.822-.348-.021-.232-.772-.03l-5.107 3.102c-1.194.733-1.563.879-2.752 1.87l-14.166 8.726 14.637 3.495c.679-3.003 2.023-6.965 3.636-9.338 1.545-2.274 4.351-2.928 7.653-2.41l.619-2.958c-1.026-.869-1.484-1.358-1.926-2.865-.496.595.384.378-1.13.58-.826.109-.385.108-.692-.172" clip-rule="evenodd"/><path fill="#E67C7C" fill-rule="evenodd" d="m111.26 143.954-7.178 21.922c1.96.47 7.1-.465 8.751-1.125-.904-.725-.342-.034-.353-1.112l4.978-19.436-.25-.014c-2.107-.446-4.011-.628-5.948-.235" clip-rule="evenodd"/><path fill="#ABA8A7" fill-rule="evenodd" d="m120.427 106.887-14.937 39.145c-.495 2.162-.261.489.379 1.322 1.544-2.183 2.857-2.905 5.391-3.4l12.166-38.059c-1.302.075-.845-.129-1.965.422-.083.041-.296.188-.367.228z" clip-rule="evenodd"/><path fill="#02060F" fill-rule="evenodd" d="m133.405 62.462 1.404.345 2.055.56-10.171 41.789 1.467.768c1.432.538 1.441.777 2.738 1.641l7.488-43.675.962.017 1.09.224.386-1.6-7.021-1.716z" clip-rule="evenodd"/><path fill="#111224" fill-rule="evenodd" d="M81.017 209.96c-1.807.676-3.526.185-4.753 1.484q3.3 1.582 6.726 2.928l1.222.015c2.521.023 4.976.397 7.499.811.713-.211.993-.231 1.517-.546 1.138-.685.492-.187 1.172-1.238l-4.513-.684c.434-.586.29-.53.608-.793 1.33-1.099 4.685-.004 7.026.62.693.185 1.467.368 2.088.634.078.033.153.079.223.111.061.028.137.079.193.106l4.799 2.007c-1.74 1.423-.82.793-3.615-.159-.965-.329-2.817-1.019-4.027-1.312l-.21.702c-.1 1.052.805.081-.06.655l1.82 1.586 8.378 3.151c1.428.635.967.655 2.404.382-.045-2.103 1.037-.488-.977-1.811-1.305-.857-1.2-.529-1.168-1.287 1.29-.727 1.877.249 3.226 1.164 1.319.895 2.465 1.7 3.616 2.69q.574.033 1.15.058l-2.664-2.305c-4.489-3.116-8.446-5.311-14.391-6.912-6.805-1.833-10.945-1.695-17.289-2.057" clip-rule="evenodd"/><path fill="#EAB08A" fill-rule="evenodd" d="M139.415 35.398c.232-.043.146-.106.729.064.087.025.606.236.713.277.742.278 1.36.514 2.086.839.553-.68-.053-.332.197-.023.022.028-.057.738.141.368.033-.063.026.185.072.264.567-1.064-.507-.528 1.255-.626l2.834-.193c1.318-.018.62-.23.916.345l1.131-.486c-2.071 3.939-5.71 4.636-9.135 2.188-1.587-1.134-1.148-.88-1.695-2.808.368-.472-.521-.69.756-.21m5.974-3.97c.652-.21.26-.079 1.049-.204.813.836 1.197 1.134 1.355 2.311l.07.687c-1.239-.187-2.127-.54-3.157-.588-2.457-.115-.41-.146-1.974-.426-.938-.168-1.535.535-2.173.924-1.315.804-1.234.343-2.434-.59-.036.442-.023 1.594-.043 1.69-.135.65-.572.801-1.994 1.7l.006 1.06c.442 1.506.901 1.995 1.927 2.864l-.619 2.959.042.043.783-2.642c1.167 1.059 1.572 2.348 2.985 3.057 1.333-.113 1.701.08 2.936-.438.729-.306 1.963-.932 2.591-1.275 1.513-.907 2.369-1.667 3.317-3.976 1.34-3.263 2.698-2.07 2.787-4.892-.961-.259-1.47-.183-2.238-.07-.795.023-1.073-3.436-1.202-4.667-1.634.036.229-.24-2.487-1.044l.637 1.967c-1.385 1.047-1.403-.228-2.164 1.55" clip-rule="evenodd"/><path fill="#F79593" fill-rule="evenodd" d="m105.489 146.031-4.536 11.731c-.654 2.692-1.66 2.882-.472 5.209.778 1.521 1.19 2.4 3.601 2.905l7.178-21.922c-2.534.495-3.847 1.217-5.391 3.4-.64-.833-.874.84-.38-1.323" clip-rule="evenodd"/><path fill="#DA956E" fill-rule="evenodd" d="m112.697 218.929 2.665 2.305.491.019c.611-2.306 1.881-2.932 3.955-3.363 1.664-1.558 4.864-2.668 7.169-4.235 6.52-4.433 11.363-4.509 9.815-12.745-.446-2.373.249-2.202 1.531-4.052 1.049-1.514 1.764-2.692 1.934-4.73-1.223.707-.109 1.186-2.015 3.813-.857 1.182-1.815 2.006-2.789 2.963.34 2.248 1.254 3.841-.053 6.417-1.583 3.121-5.298 5.014-8.35 6.32l-4.749 1.988c-2.048.687-3.048 1.142-5.302 1.51-4.73.772-5.246-4.847-14.856-8.337l.419.524c1.055 1.084 3.762 2.197 6.358 4.892 1.99 2.067 2.982 3.807 3.777 6.711" clip-rule="evenodd"/><path fill="#4E4E4E" fill-rule="evenodd" d="m121.462 104.602 12.739-38.767c.369-1.427.242-2.05 1.341-2.847.402.905.296 1.194-.259 2.81-.308.897-.6 1.796-.86 2.708-3.29 11.543-7.769 25.826-10.59 36.676 1.88-.05 2.457-.083 4.327.742l-1.466-.769 10.171-41.788-2.055-.56c-.26 3.111-5.344 16.863-6.637 20.763-1.59 4.8-6.175 16.835-6.711 21.032" clip-rule="evenodd"/><path fill="#E67C7C" fill-rule="evenodd" d="m119.406 221.337.4-3.447c-2.074.431-3.343 1.057-3.954 3.363q1.77.071 3.554.084" clip-rule="evenodd"/><path fill="#F0CAB1" fill-rule="evenodd" d="M140.253 32.238c.562-1.559 1.604-2.497 3.368-1.468L143 32.784zm-1.828-1.8c-2.022.098-.344-.949-2.574-.63l-.683 2.776 1.004.726c-.255 1.648-.627 3.341-.078 4.681l-.006-1.059c1.421-.899 1.858-1.05 1.994-1.7.02-.096.007-1.248.042-1.69 1.2.932 1.119 1.394 2.435.59.637-.39 1.235-1.092 2.173-.924 1.563.28-.483.311 1.974.426 1.029.048 1.918.4 3.156.588l-.07-.687c-.313.552.229.063-.363.279l-2.419-.606.379-1.78c.761-1.778.779-.503 2.164-1.55l-.638-1.967c2.716.805.853 1.08 2.487 1.044.134-.847.276-1.554-.23-2.152l-.44-.238c-2.028-.732-3.006-1.33-5.55-1.937-1.06.667-4.758 5.72-4.757 5.81" clip-rule="evenodd"/><path fill="#18ABD1" fill-rule="evenodd" d="M139.469 58.023c.972-.166 1.214-.803 2.963-1.266 4.195-1.108 7.46.358 8.261 4.695l.48.109c.417-1.453.34-2.672.538-4.078.24-1.71 1.009-2.647 1.093-4.232.123-2.306-1.77-3.794-3.664-5.094.499 1.625-.38.036-2.35 2.554-3.018 3.857.698 1.705-5.166 5.113-.474.275-2.176 1.832-2.155 2.2" clip-rule="evenodd"/><path fill="#DA956E" fill-rule="evenodd" d="M136.401 163.361c.725-2.297-.589-5.087-1.996-6.02-.939.416-.231-.193-.177.464.053.637.51.884.788 1.755 1.158 3.628-.901 7.735-1.984 10.532-.921-.915-2.849-3.599-4.569-3.21.586.476 1.26 1.137 1.589 1.722.322.573.192.503.461.992.921 1.675 1.915 3.21 1.915 6.161 1.372-1.019 2.996-7.238 3.524-9.031.52-1.767.16-2.161.449-3.365" clip-rule="evenodd"/><path fill="#62656A" fill-rule="evenodd" d="M138.425 30.438c-.001-.09 3.696-5.143 4.757-5.81 2.544.606 3.522 1.205 5.55 1.937l.44.237c.506.599.364 1.306.23 2.153.13 1.23.408 4.69 1.203 4.667-1.685-7.209.572-10.672-3.831-12.125-1.204-.397-2.686-.238-3.418.193-1.36.8-.585 1.463-1.336 2.84a75 75 0 0 1-3.595 5.908" clip-rule="evenodd"/><path fill="#DA956E" fill-rule="evenodd" d="m139.469 58.023-.315.667 11.54 2.762c-.801-4.337-4.067-5.803-8.261-4.695-1.75.463-1.991 1.1-2.964 1.266" clip-rule="evenodd"/><path fill="#26272A" fill-rule="evenodd" d="m91.71 215.198 7.023 1.688-1.82-1.586c.864-.573-.04.398.06-.655l.209-.702c1.21.294 3.062.984 4.028 1.313 2.794.951 1.874 1.582 3.614.158l-4.799-2.007c-.056-.026-.132-.077-.193-.106-.07-.032-.145-.077-.222-.111-.622-.265-1.396-.449-2.089-.633-2.341-.624-5.697-1.719-7.026-.62-.318.263-.174.206-.608.793l4.513.684c-.68 1.051-.034.553-1.172 1.238-.524.315-.803.335-1.517.546" clip-rule="evenodd"/><path fill="#DA956E" fill-rule="evenodd" d="M141.211 44.273c-1.412-.71-1.817-1.998-2.984-3.057l-.783 2.642c-.401 1.948 1.572 2.593 3.58 3.102 2.1.53 3.897.874 4.847-.931l.652-2.983c-2.289.24-1.803 1.715-5.312 1.227" clip-rule="evenodd"/><path fill="#26272A" fill-rule="evenodd" d="M107.11 220.038c.15.198.352.385.586.561q1.547.185 3.106.325.215-.015.45.04 1.473.127 2.959.212c-1.151-.991-2.297-1.796-3.616-2.69-1.349-.915-1.936-1.891-3.227-1.164-.031.758-.136.43 1.169 1.287 2.014 1.323.932-.292.977 1.811-1.437.273-.976.253-2.404-.382" clip-rule="evenodd"/><path fill="#E67C7C" fill-rule="evenodd" d="M124.114 161.6c.658-.054 1.011-.09 1.64-.176.828-2.517 1.012-6.609 1.478-9.499l-.134-.198c-.488 1.591-.034.423-.54.879-.193-1.636-.656-2.579-1.526-3.568.117 2.522-.159 10.171-.918 12.562" clip-rule="evenodd"/><path fill="#170707" fill-rule="evenodd" d="M148.358 36.713c-.42.54-.019.624-2.236.961-.736.112-2.363.229-2.77-.487-.045-.08-.039-.327-.072-.264-.197.37-.118-.34-.141-.368-.249-.309.357-.657-.197.023-.251.594-.241.414-.547.684-1.554-.346-2.535-.569-2.981-1.864-1.276-.481-.387-.263-.756.209.547 1.927.108 1.674 1.695 2.808 3.425 2.448 7.064 1.75 9.135-2.188z" clip-rule="evenodd"/><path fill="#02060F" fill-rule="evenodd" d="M111.253 220.964a1.5 1.5 0 0 0-.45-.04z" clip-rule="evenodd"/><path fill="#3A3B44" fill-rule="evenodd" d="m178.855 35.213 2.153.404-.387 2.142-2.161-.383zm1.074 3.194c1.126-.51 1.447-.704 1.716-2.15-1.927-4.413-6.405 1.174-1.716 2.15" clip-rule="evenodd"/><path fill="#CCE5E9" fill-rule="evenodd" d="m140.254 32.238 2.746.546.621-2.014c-1.763-1.03-2.805-.091-3.367 1.468" clip-rule="evenodd"/><path fill="#FEFEFE" fill-rule="evenodd" d="M143.353 37.187c.406.716 2.033.6 2.769.488 2.217-.337 1.816-.421 2.236-.962-.297-.575.402-.363-.917-.345l-2.834.193c-1.762.098-.687-.438-1.254.626" clip-rule="evenodd"/><path fill="#AFDFEB" fill-rule="evenodd" d="m178.461 37.376 2.16.383.387-2.142-2.152-.404z" clip-rule="evenodd"/><path fill="#CCE5E9" fill-rule="evenodd" d="M146.514 32.317c.314.486.142.103-.066.864l-.959-.288.219-1.024c.773.257.412-.161.806.448m-1.125-.888-.379 1.78 2.419.605c.591-.216.05.273.363-.279-.157-1.177-.542-1.475-1.354-2.311-.789.125-.397-.005-1.049.205" clip-rule="evenodd"/><path fill="#FEFEFE" fill-rule="evenodd" d="M142.942 36.578a34 34 0 0 0-2.086-.84c-.107-.04-.626-.251-.713-.276-.583-.17-.497-.107-.729-.064.446 1.295 1.427 1.518 2.981 1.864.305-.27.295-.09.547-.684" clip-rule="evenodd"/><path fill="#3193AA" fill-rule="evenodd" d="m145.488 32.893.96.288c.208-.761.38-.378.066-.864-.394-.609-.034-.19-.807-.448z" clip-rule="evenodd"/><path fill="#E31F25" fill-rule="evenodd" d="m33.092 46.284 160.625 160.624 13.192-13.191L46.284 33.092z" clip-rule="evenodd"/></svg>