<svg xmlns="http://www.w3.org/2000/svg" width="240" height="240" fill="none"><path fill="#E31F25" fill-rule="evenodd" d="M120 240a120 120 0 1 0 0-240 120 120 0 0 0 0 240" clip-rule="evenodd"/><path fill="#fff" fill-rule="evenodd" d="M119.9 221.3a101.3 101.3 0 1 0 0-202.6 101.3 101.3 0 0 0 0 202.6" clip-rule="evenodd"/><path fill="#453C3C" d="M164.3 41.4 37 138.6l-.3.5-.4 1-.4 1.4 1 2.4 2.6 2.5 2 4.8 4.2 2.5 2.5 3.4 2.4-.2h.7l127.5-96a36.5 36.5 0 0 0-14.5-19.5"/><path fill="#EEE" d="m118.8 77-81.4 62 4.6 6 81.4-61.8z"/><path fill="#DFDFE0" d="m42 145 8.8 11.7 81.4-62-8.8-11.5z"/><path fill="#EB7727" d="m164 42.8-45.2 34.3 4.6 6 46.2-35.8a15 15 0 0 0-5.6-4.5"/><path fill="#DD6E26" d="m123.4 83.2 8.8 11.5 45-34.2a47 47 0 0 0-7.6-13.2z"/><path fill="#F1CA52" d="m130.8 77.5 8.8 11.6 5.7-4.3-8.8-11.6z"/><path fill="#FDD659" d="m131.9 67.1-5.7 4.4 4.6 6 5.7-4.3z"/><path fill="#AEABA9" d="M50.9 150.1c0 .8.2 1.6.7 2.3.9 1.5.8 3.6-.6 4.3-1.3.7-3.4-.4-4.2-2-1-2.1-5.7-3.8-6.3-6.9-.2-1-.7-2.1-1.6-2.8-4.2-3-2.6-7.7.4-6 .8.4 1.7.5 2.4.3 1.1-.4 3 .3 4.2 3.7 1 2.9 5.1 2.7 5 7.1"/><path fill="#898989" d="M31.6 93.3c5.5.2 10.4 5.4 10.5 11 .2 4.7-2 7.4-2.5 12-.6 4.4 3.6 13.2 3.6 13.2s-8.4-6.1-9.4-11.6c-2.3-11.4 7.1-17.7-2.2-24.6"/><path fill="#6B6C6C" d="M20 71c9.9.3 18.5 9.6 18.8 19.6.3 8.4-3.5 13.3-4.6 21.5-1 8 6.6 23.7 6.6 23.7s-15-11-17-20.9c-4-20.3 12.9-31.7-3.8-44"/><path fill="#898989" d="M24 115.7a7.3 7.3 0 0 1 8.3 4.8c1 2.8.1 4.8.6 7.7.4 2.8 4.5 7.4 4.5 7.4s-6.1-2.2-7.8-5.4c-3.3-6.5 1.3-12-5.6-14.5"/><path fill="#E31F25" fill-rule="evenodd" d="M37 139.5c4.2 2.8 2.9-1.5 5.4 1.5 1.2 1.4 6 .6 3 5.5-.6 1-1-2.2-4.9-2.4-2-.1-3-3.8-2.6-3.8.5 0-.4-.5-.8-.8m6.4 9.4c.5-2.5 1.4.5 4 .9 2.8.3 0 3.4 2.3 5.1.1.1.5 2.7-1-.9-1-2.4-5.4-4-5.3-5" clip-rule="evenodd"/><path fill="#72241E" fill-rule="evenodd" d="M39 138.3c1.8.4 3.4.2 4.5.8 2 1.1 2 2.4 3 3.9.7 1.2 1.3 2.1 2.5 2.7.8.5-.3 0 1.7 1.7.5.4 1.4 2.4 1 3-.3.6 1.3 5.9 1.9 3 .3-1.8-2-.3-.2-3.4.7-1.1-2.3 1-1.3-1.3 1-2-2.3-2.2-1.8-3.9.3-1-1.7-.4-2-2-.5-1.4-4.7-5.6-6.5-4.5 0 .4-3.2-.1-2.7 0" clip-rule="evenodd"/><path fill="#B3B3B4" d="M179 100c2.7 1.1 4 4.3 3.3 7-.7 2.7-4.3 7.7-.5 13.7-.4-.6-2.9.3-3.4.5-11.8 5.1-3.7 22.6 7.1 20.6-4 3.2-6 5.9-3.7 10.7a8.9 8.9 0 0 0 9.6 5c-2.6.4-3.9 4-3 6.2a9 9 0 0 0 15.4 1.7c1 3.5 8.2 5 14 1.3 8.8-5.8 7.6-19.3-1.4-21.4 9.9-.9 8.3-19.5-9-17.3 3-2.4 3.3-7.5 1-10.7-4.5-6.6-18-7.2-20.6 2.4-3.8-9-1.5-8.7-2.8-14.2-1.3-5-4.4-4.8-6-5.4"/><path fill="#fff" d="M194.4 145.9c-6.7-.8-8-6-5.6-10.5.4-.8 1.4-2 1-1.7-5 3.2-3.6 11.8 2.7 12.8 1.9.3 2.5-.5 2-.6m16.8 12.3c4.2.9 7.5-6 5-11.8-1.6-3.5-3.7-3.8-3-3 3.8 4.4 3.6 9.7 1.3 12.6-2.3 2.8-4.6.1-4.2 1.7 1.3 6.5-9.7 9.8-12.7-.5-.2-.6-.3 1.8 1.5 4.2 4 5.6 12.5 2.8 12.1-3.2m-13.6-20.5c.4-2.2.6-5-.2-7.1-2-5-12.8-13.5-5.5-5.7 2 2.2 3.5 3.7 4.5 5.5 1.5 3 1 8.3 1.2 7.3m9.9-4.4c.8-3.5-.5-5.3-3.2-7.3-2.4-1.7-5.5-3-7.7-1.2-.5.5 1.4-.7 3.7 0 2.2.5 5 2.9 5.9 4.4 1.6 2.9-.6 6.3-.9 7.8-.2 1.2 1.5-.3 2.2-3.7m-26 3.2c-.7-.7-3.3-1.7-4.3-4-1.7-3.8 2.5-5.6 1-5-3.4 1-3 5.6.4 8.1 2 1.5 3.4 1.5 2.9 1m15.9 29c-3.7-1-3.8-1.5-5-3.9-.1-.3-.4.6.2 1.8 2 4 6.2 2.5 4.8 2.1m-9.2-12.7c-.6-.8-1.7-1.5-2-2.7-.6-2 1.2-2.7.7-2.5-1.4.6-2 2.4-.6 4.1 1.7 2.1 2.1 1.3 2 1m30.5-14.3c.7-1.8-2.2-6-5.7-6-1.5 0-1 .8-.7.8.1 0-.5-.3 0-.4.5-.1 1.6.3 2.2.5 3.7 1.7 3.8 6.4 4.2 5.1m-14.4-17.3c-.3-2.7-4-6.1-7.5-5-1.5.4-2 1.6-1.9 1.5 5.9-4.5 9.6 5.9 9.4 3.5m12.8 42.5a5 5 0 0 0 3-4.3c.1-1.8-.9-2.9-.8-2.5.6 4.4-1.6 6.4-5 6.6-.7 0 .5 1 2.8.2"/><path fill="#fff" d="M209 151.7c1.4-2.2.3-5.5-.3-6.3-.6-.8 0 2 .1 2.9.6 6.9-8.2 4.1-9 4-2.6-.3 6 4.2 9.2-.6"/><path fill="#727272" d="m162.2 128.7 3.2 3.6a4.9 4.9 0 0 1-.5 7l-4.9 4-9.5-11 4.9-4.1a4.9 4.9 0 0 1 6.8.5"/><path fill="#363878" d="m85.1 150.4 29.4 34.1a4 4 0 0 0 5.6.5l42-36.2a4 4 0 0 0 .4-5.5L133 109a4 4 0 0 0-5.6-.4l-42 36.2a4 4 0 0 0-.4 5.5"/><path fill="#DEE0ED" d="m138.9 120.7-43.2 37.2a.8.8 0 0 0 1 1.2L140 122a.8.8 0 0 0-1.1-1.2m-4.6-5.3-43.2 37.2a.8.8 0 0 0 1.1 1.2l43.2-37.2a.8.8 0 1 0-1-1.2"/><path fill="#727272" d="m145.8 106.6 9.5 11-8.5 7.4-9.6-11zm18-13.2 7.2 8.5 8.2-7a3 3 0 0 0 .3-4.4l-3.3-3.8a3 3 0 0 0-4.3-.3z"/><path fill="#363878" d="M140.7 111.3 150 122a5.1 5.1 0 0 0 7.2.5l16-13.7a5.1 5.1 0 0 0 .5-7.2l-9.2-10.7a5.1 5.1 0 0 0-7.2-.5l-16 13.7a5.1 5.1 0 0 0-.5 7.2"/><path fill="#727272" d="m113.6 168.4 5.3 6.1a3.3 3.3 0 0 0 4.6.3l29.3-25.2a3.3 3.3 0 0 0 .4-4.6l-5.2-6.1a3.3 3.3 0 0 0-4.7-.4L114 163.8a3.3 3.3 0 0 0-.4 4.6"/><path fill="#fff" d="M144 143.5c-3.1 2.7.9 7.4 4 4.7 3-2.6-1-7.3-4-4.7m-8.4 7.2c-3.1 2.7 1 7.4 4 4.7 3.1-2.6-1-7.3-4-4.7m-8.4 7.2c-3 2.7 1 7.4 4 4.7 3.1-2.6-.9-7.3-4-4.7m-8.3 7.2c-3.1 2.7.9 7.4 4 4.7 3-2.6-1-7.3-4-4.7m51-60.7-15 12.9a.8.8 0 0 0 1.1 1.2l15-12.9a.8.8 0 0 0-1-1.2m-5-5.8-15 13a.8.8 0 1 0 1 1.2l15-13a.8.8 0 0 0-1-1.2m-5-5.7-15 12.9a.8.8 0 0 0 1.1 1.2l15-12.9a.8.8 0 0 0-1-1.2"/><path fill="#7275A9" d="M102.9 165.1s12.2 14.5 13.7 15.6c1 .9 2.5 1 3.7.5h.5c.2.5-1.7 2.5-4.7.5a99 99 0 0 1-13.2-16.6m23.2-52c0-.2 1.6-1.8 2-2 2.6-2 5.4.8 5.7 1.8l-.1.4c-1.8-.1-2.4-4.1-6.5-.9l-1 .7"/><path fill="#fff" d="M155.1 132v-.2l1-.7c1-.9 2-1.7 3.7-.4 1 .8 3.3 3 3.7 4.5l.1.4c0 2-3.4-4.1-5.4-4.6-.5 0-3 1.2-3.1 1m13-39.8 1.4-1.3c2.3-1.9 3.2-2.7 4.4-3 1.8-.2 4.4 3.2 4.7 4.3.2.4 0 .5-.3.3-2-1-3-3.8-4.4-3.4-.7.1-5.7 3.4-5.8 3.1"/><path fill="#E31F25" fill-rule="evenodd" d="m32.9 42.8 160.6 160.7 13.2-13.2L46.1 29.6z" clip-rule="evenodd"/></svg>