<svg xmlns="http://www.w3.org/2000/svg" width="240" height="240" fill="none"><path fill="#E31F25" fill-rule="evenodd" d="M120 240c66.274 0 120-53.726 120-120S186.274 0 120 0 0 53.726 0 120s53.726 120 120 120" clip-rule="evenodd"/><path fill="#fff" fill-rule="evenodd" d="M120 221.344c55.971 0 101.344-45.374 101.344-101.344S175.971 18.656 120 18.656 18.656 64.029 18.656 120 64.03 221.344 120 221.344" clip-rule="evenodd"/><path fill="#fff" fill-rule="evenodd" d="m42.393 62.632 20.24-20.24 135.237 135.24-20.238 20.239z" clip-rule="evenodd"/><path fill="#373739" d="M157.569 178.871c-1.31 5.244-4.825 9.377-8.649 10.683-1.164.4-2.36.538-3.533.365-5.021-.742-7.702-6.891-5.992-13.735 1.712-6.845 7.168-11.791 12.188-11.049 2.76.408 4.82 2.459 5.818 5.366.819 2.366.933 5.298.168 8.37"/><path fill="#2C2B2A" d="M157.569 178.87c-1.118 4.478-3.844 8.146-6.997 9.936-1.219.691-2.862.485-3.845-.515-1.966-2.001-2.729-5.936-1.709-10.227 1.38-5.834 5.532-10.114 9.276-9.56.507.075.978.235 1.415.47 1.108.597 1.793 1.653 2.048 2.779.477 2.115.446 4.568-.188 7.117"/><path fill="#BFBDBD" d="M155.649 179.755c-1.513 4.245-4.594 7.106-6.882 6.39s-2.915-4.738-1.403-8.983c1.514-4.245 4.595-7.106 6.882-6.389 2.288.714 2.916 4.736 1.403 8.982"/><path fill="#373739" d="M80.47 183.885c-1.775 7.109-6.537 12.71-11.722 14.481-1.577.542-3.196.729-4.786.494-6.804-1.006-10.439-9.34-8.119-18.614 2.318-9.274 9.712-15.978 16.515-14.973 3.74.553 6.532 3.332 7.885 7.271 1.11 3.207 1.265 7.181.228 11.341"/><path fill="#2C2B2A" d="M80.47 183.886c-1.516 6.07-5.21 11.04-9.483 13.466-1.648.937-3.877.657-5.207-.699-2.666-2.711-3.7-8.043-2.319-13.859 1.87-7.904 7.497-13.705 12.571-12.954a5.8 5.8 0 0 1 1.916.635c1.502.809 2.433 2.24 2.777 3.767.647 2.865.606 6.19-.254 9.644"/><path fill="#BFBDBD" d="M77.867 185.086c-2.05 5.753-6.225 9.63-9.324 8.66-3.102-.971-3.952-6.421-1.901-12.174 2.05-5.752 6.226-9.63 9.326-8.66s3.95 6.421 1.9 12.174M102.087 98.47a2.3 2.3 0 0 1-.346-.077c-1.161-.347-1.82-1.462-1.471-2.493l18.112-53.523c2.527-7.466 10.423-12.484 19.204-12.204 1.225.042 2.193.951 2.191 2.037-.004 1.087-.989 1.936-2.202 1.897-6.854-.218-13.016 3.698-14.989 9.525l-18.113 53.524c-.313.929-1.337 1.47-2.386 1.314M96.669 95.906a2.6 2.6 0 0 1-.377-.086c-1.155-.362-1.796-1.485-1.431-2.51l19.5-54.856c1.115-3.14.39-6.607-1.942-9.274-3.703-4.239-4.851-4.847-4.97-4.904-1.085-.505-1.55-1.696-1.027-2.655.521-.958 1.81-1.344 2.903-.845.954.432 2.557 1.509 6.517 6.038 3.251 3.724 4.263 8.563 2.705 12.947l-19.5 54.856c-.326.914-1.342 1.442-2.378 1.29"/><path fill="#0F4728" d="m81.574 143.636-10.155 8.537 6.705 19.409c1.45 4.197 4.906 7.65 9.414 9.404l17.259 5.888-15.082-39.818z"/><path fill="#0F4728" d="M149.839 157.586c-4.006-3.866-10.961-3.054-13.43 1.567-2.36 4.414-6.967 7.482-12.399 8.256l-22.713 3.237-1.322 8.95 15.096-1.144c8.783-.664 26.305 3.732 33.157-1.077l12.257-14.473z"/><path fill="#0A743A" d="m166 167.447-13.758 9.647c-6.862 4.807-15.163 7.721-23.947 8.38l-20.598 1.573c-5.185.384-10.07-2.574-9.498-12.358l-1.798-5.081c-2.873-8.137-10.34-14.387-19.496-16.415-.388-.084-.761-.165-1.151-.236l-4.33-.786L92.71 93.896c.7-1.92 2.382-3.378 4.53-3.974a7.8 7.8 0 0 1 3.486-.12c1.734.31 3.324 1.18 4.447 2.51l-.002.013c4.122 4.909 5.535 11.19 3.788 16.99l-8.562 23.234c-3.64 9.886-3.822 20.641-.494 30.816l2.609 8.019c1.405 4.335 6.227 7.112 11.148 6.41l23.574-3.354c5.435-.771 10.04-3.848 12.397-8.262 1.62-3.041 5.191-4.431 8.57-3.932a8.85 8.85 0 0 1 4.867 2.373z"/><path fill="#009847" d="m100.726 89.802-23.82 63.391c-.389-.084-.762-.165-1.152-.236l-4.33-.786L92.71 93.896c.7-1.92 2.382-3.378 4.53-3.974a7.8 7.8 0 0 1 3.486-.12"/><path fill="#0A743A" d="m74.146 159.461 4.073 1.025c2.384.6 4.482 1.929 5.925 3.754l.856 1.084c2.63 3.329 2.642 7.723.034 10.909l-4.748 5.8c-1.48 1.807-4.738.689-4.609-1.582l.513-8.95c.153-2.673-2.014-5.071-4.979-5.51l-4.213-.622.282-1.915c.435-2.941 3.64-4.805 6.866-3.993"/><path fill="#0C582D" d="m144.168 27.527-2.532-1.858a1.8 1.8 0 0 0-.804-.33c-1.011-.15-1.956.575-2.11 1.618l-.148 1.004a11.5 11.5 0 0 0 .977 6.61c.519 1.087 1.682 1.676 2.84 1.438a2.66 2.66 0 0 0 1.825-1.409l.341-.669c.443-.868 1.339-1.388 2.285-1.324l14.153 1.432c1.145.08 2.203-.65 2.573-1.772.553-1.676-.641-3.407-2.354-3.41l-15.681-.88a2.3 2.3 0 0 1-1.365-.45M104.687 18.377l2.961-1.046c.278-.099.575-.127.866-.084 1.011.149 1.705 1.116 1.551 2.16l-.148 1.005a11.5 11.5 0 0 1-2.849 6.043c-.81.89-2.094 1.119-3.134.556a2.66 2.66 0 0 1-1.34-1.877l-.132-.739c-.173-.96-.882-1.716-1.805-1.928l-13.962-2.725c-1.118-.256-1.92-1.259-1.95-2.44-.044-1.765 1.6-3.076 3.24-2.583l15.265 3.694c.47.141.971.128 1.437-.036M85.347 134.196c1.249.388 2.593-.202 2.983-1.311l16.717-47.29c.39-1.107-.311-2.332-1.56-2.721-1.251-.387-2.593.202-2.985 1.31l-16.715 47.29c-.392 1.109.31 2.333 1.56 2.722"/><path fill="#E31F25" fill-rule="evenodd" d="m33.092 46.283 160.625 160.625 13.191-13.192L46.284 33.091z" clip-rule="evenodd"/><path fill="#D8BC14" d="m118.386 199.998 7.118 1.135-4.157 9.482-6.065-1.036c-2.366-2.936-1.416-7.334 1.947-9.006z"/><path fill="#7D6B2D" d="M113.993 206.274a5.87 5.87 0 0 0 1.289 3.305l6.065 1.036.951-2.171s-9.951-1.421-8.305-2.17"/><path fill="#373B36" d="M98.106 203.401c-.551 4.489-3.546 8.33-7.293 9.876a9.4 9.4 0 0 1-3.59.732c-5.292 0-8.997-4.751-8.276-10.608.722-5.859 5.596-10.609 10.89-10.609 2.91 0 5.347 1.442 6.82 3.719 1.207 1.854 1.771 4.261 1.45 6.89"/><path fill="#2C2B2A" d="M98.107 203.4c-.471 3.834-2.723 7.195-5.704 9.057-1.15.719-2.878.749-4.044.044-2.334-1.412-3.721-4.567-3.324-8.235.534-4.984 4.165-9.023 8.113-9.023q.801.002 1.53.214c1.235.357 2.103 1.146 2.538 2.045.814 1.687 1.158 3.717.89 5.898"/><path stroke="#774291" stroke-miterlimit="10" stroke-width=".481" d="M96.26 204.365c-.913 3.689-3.656 6.427-6.125 6.115-2.47-.312-3.73-3.555-2.817-7.244.914-3.69 3.657-6.428 6.126-6.115 2.47.311 3.73 3.555 2.817 7.244Z"/><path fill="#D8BC14" d="m99.794 199.82-14.828 6.971-3.513-.287-2.081-.172a2.65 2.65 0 0 1-2.434-2.643v-1.499c0-2.988 1.191-5.792 3.232-8.04a14.7 14.7 0 0 1 3.003-2.514c2.354-1.497 5.125-2.203 7.915-2.203 2.083 0 3.995.77 5.31 2.028a5.65 5.65 0 0 1 1.557 2.445z"/><path fill="#7D6B2D" d="m99.794 199.82-14.828 6.971-3.513-.287v-2.328c0-2.994 1.191-5.792 3.232-8.047 2.047-2.248 4.943-3.94 8.364-4.71h2.554c.269 0 .538.012.794.042a5.65 5.65 0 0 1 1.559 2.445z"/><path fill="#7D6B2D" d="m119.088 200.217-1.332.788-.592.354a5.933 5.933 0 0 0-2.365 7.576l.483.544c.501.568-4.216 2.321-4.216 2.321a24.4 24.4 0 0 1-10.624.758l-11.01-1.649a9.74 9.74 0 0 1-7.038-4.821l-1.161-2.034a2.62 2.62 0 0 1-.14-2.31 2.58 2.58 0 0 1 1.728-1.521l17.804-4.888 10.967 1.069a6.04 6.04 0 0 1 4.356 2.548l.256.367z"/><path fill="#64552A" d="M114.8 208.935a6 6 0 0 1-.329-.921c-1.19.719-3.599 1.616-3.599 1.616a24.4 24.4 0 0 1-10.625.758l-11.01-1.65a9.74 9.74 0 0 1-7.038-4.821l-1.158-2.029a2.62 2.62 0 0 0 .192 2.166l1.16 2.034a9.74 9.74 0 0 0 7.04 4.821l11.009 1.649c3.556.532 7.185.275 10.625-.758 0 0 4.716-1.753 4.215-2.321zM116.589 199.438a5.93 5.93 0 0 0-2.298 6.456 5.92 5.92 0 0 1 2.873-4.535l.592-.354 1.332-.788z"/><path fill="#D8BC14" d="m119.088 200.217-1.332.788-1.583-.284a13.1 13.1 0 0 0-5.574.204l-6.257 1.603a32 32 0 0 1-12.249.714c-3.516-.477-7.835-1.062-11-1.498a2.58 2.58 0 0 1 1.728-1.521l17.804-4.888 10.967 1.069a6.03 6.03 0 0 1 4.352 2.542l.26.372z"/><path fill="#7D6B2D" d="m154.622 201.121-5.071 12.403-3.721 9.109-17.803-4.326a11 11 0 0 1-6.379-4.331l-2.376-3.361a6.89 6.89 0 0 1 1.411-6.592 6.8 6.8 0 0 1 2.212-1.668l2.608-1.234 8.597-1.216a40.6 40.6 0 0 1 11.125-.043z"/><path fill="#64552A" d="m149.551 210.901-3.72 9.109-17.804-4.325a11 11 0 0 1-6.379-4.332l-2.376-3.36a7 7 0 0 1-.174-.728 6.9 6.9 0 0 0 .174 3.35l2.376 3.361a11 11 0 0 0 6.379 4.331l17.804 4.326 3.72-9.109 5.071-12.403-1.016-.136z"/><path fill="#D8BC14" d="m154.622 201.121-5.071 12.403-17.975-2.695a16.08 16.08 0 0 1-10.856-6.751l-.037-.055a6.8 6.8 0 0 1 2.211-1.668l2.609-1.234 8.597-1.216a40.6 40.6 0 0 1 11.125-.043z"/><path fill="#373B36" d="m90.981 199.979 9.727-2.903a3.1 3.1 0 0 1 1.305-.096l6.456.93c.681.099.716 1.068.044 1.216l-8.852 1.943q-.347.076-.704.071l-7.833-.127c-.604-.01-.721-.86-.143-1.034M126.63 205.523a1.053 1.053 0 0 1 .014-1.876c1.211-.609 3.899-1.328 4.797-1.808a4.73 4.73 0 0 1 2.494-.554l13.875 1.468-4.711 6.743-11.285-1.867a10.5 10.5 0 0 1-3.128-1.04z"/><path fill="#373B36" d="M165.861 213.238c-.648 6.234-4.162 11.566-8.558 13.713-1.338.654-2.761 1.016-4.212 1.016-6.212 0-10.558-6.596-9.712-14.729.847-8.135 6.567-14.73 12.778-14.73 3.415 0 6.274 2.002 8.003 5.164 1.416 2.574 2.078 5.916 1.701 9.566"/><path fill="#2C2B2A" d="M165.861 213.237c-.553 5.323-3.196 9.989-6.694 12.576-1.349.997-3.376 1.04-4.744.06-2.739-1.96-4.367-6.341-3.901-11.433.626-6.92 4.887-12.529 9.519-12.529.627 0 1.227.102 1.796.298 1.449.496 2.469 1.59 2.978 2.839.956 2.342 1.358 5.16 1.046 8.189"/><path fill="#BFBDBD" d="M163.695 214.577c-1.072 5.123-4.29 8.924-7.188 8.491s-4.378-4.937-3.306-10.059c1.073-5.123 4.291-8.924 7.188-8.491 2.898.434 4.378 4.937 3.306 10.059"/><path fill="#878683" d="M161.671 214.042c-.709 3.385-2.835 5.897-4.75 5.611s-2.893-3.262-2.184-6.648 2.835-5.897 4.75-5.611 2.893 3.263 2.184 6.648"/><path fill="#D8BC14" d="M166.75 204.114a5.534 5.534 0 0 1-2.662 6.244l-13.455 7.485-.19.104-5.955-.58a3.837 3.837 0 0 1-3.466-3.819v-1.992c0-4.154 1.393-8.04 3.794-11.168a18.4 18.4 0 0 1 4.331-4.061c2.496-1.675 5.475-2.483 8.481-2.483a8.3 8.3 0 0 1 5.92 2.474 8.35 8.35 0 0 1 2.133 3.734z"/><path fill="#7D6B2D" d="m164.576 210.087-13.944 7.756v-4.008c0-4.148 1.393-8.046 3.795-11.168a18.3 18.3 0 0 1 5.912-5.013c2.107-1.121 4.711.05 5.33 2.354l.011.044 1.211 4.602a4.814 4.814 0 0 1-2.315 5.433"/></svg>