<svg xmlns="http://www.w3.org/2000/svg" width="240" height="240" fill="none"><path fill="#E31F25" fill-rule="evenodd" d="M120 240a120 120 0 1 0 0-240 120 120 0 0 0 0 240" clip-rule="evenodd"/><path fill="#fff" fill-rule="evenodd" d="M120 221.3a101.3 101.3 0 1 0 0-202.6 101.3 101.3 0 0 0 0 202.6" clip-rule="evenodd"/><path fill="#2B2B2A" fill-rule="evenodd" d="M34.7 65.3a102 102 0 0 0-2.9 4.7v100a102 102 0 0 0 2.9 4.7zm24.7-26.6L56.6 41v158.2l2.8 2.2zm24.8-13.5-2.8 1v187.5a99 99 0 0 0 2.8 1.1zm24.8-6-2.8.4v200.8l2.8.3zm22 201.6 2.8-.4V19.6l-2.8-.3zm24.8-6 2.8-1V26.2a100 100 0 0 0-2.8-1.1zm24.8-13.5 2.8-2.2V40.9a102 102 0 0 0-2.8-2.2zm24.7-26.6a101 101 0 0 0 2.9-4.7V70a101 101 0 0 0-2.9-4.7z" clip-rule="evenodd"/><path fill="#EAB08A" fill-rule="evenodd" d="m124.1 161.6-11.3 3.2c-1.6.6-6.8 1.5-8.7 1-2.4-.4-2.8-1.3-3.6-2.8-1.2-2.4-.2-2.5.5-5.2a23 23 0 0 0-14.6 3.6c-2.6 1.6-3 3.4-4 7-2.2 8.1-3.8 26.9-.6 33.5.7 1.5 1.3 1.4.8 3.6A18.3 18.3 0 0 1 81 210c6.4.3 10.5.2 17.3 2 6 1.6 10 3.8 14.4 7-.8-3-1.8-4.7-3.8-6.8-2.6-2.7-5.3-3.8-6.3-4.9l-.5-.5c9.7 3.5 10.2 9.1 14.9 8.3 2.3-.3 3.3-.8 5.3-1.5l4.7-2c3.1-1.3 6.8-3.2 8.4-6.3 1.3-2.6.4-4.1 0-6.4 1-1 2-1.8 2.8-3 2-2.6.8-3 2-3.8.1-1.8-.1-2.2-.7-3.5-1.8-3.6 3-3.4.2-11.4-1-3 2-6-1.6-10.7-.3-.5-.7-.8-1-1.4-.8-1.2-.3-.7-.7-1.7-.3 1.2 0 1.6-.4 3.3-.6 1.8-2.2 8-3.6 9 0-2.9-1-4.4-1.9-6.1l-.4-1a7 7 0 0 0-1.6-1.7c1.7-.4 3.6 2.3 4.5 3.2 1.1-2.8 3.2-7 2-10.5-.3-1-.7-1.2-.8-1.8 0-.7-.7 0 .2-.5-.7-1.4-5.4-4.4-7.2-5.4-.4 3-.6 7-1.4 9.5l-1.7.2m-16.4 59a3 3 0 0 1-.6-.6l-8.4-3.1-7-1.7c-2.5-.4-5-.8-7.5-.8H83a100.7 100.7 0 0 0 24.7 6.2" clip-rule="evenodd"/><path fill="#FEFEFE" fill-rule="evenodd" d="M134.3 38.4c.3.3-.2.3.7.2 1.5-.2.6 0 1-.6-.5-1.3 0-3 .2-4.7l-1-.7.7-2.8c2.2-.3.5.7 2.5.6a75 75 0 0 0 3.6-5.9c.8-1.3 0-2 1.4-2.8.7-.4 2.2-.6 3.4-.2 4.4 1.4 2.1 5 3.8 12.1.8 0 1.3-.2 2.2 0 0 3-1.4 1.7-2.7 5-1 2.3-1.8 3-3.4 4 1.7.4 4.1-.3 4 2.8l3 .4c.3-2.2 3.6-4.7 6.2-.8 1.3 1.9 3 1.2 2.2 4.3l2.4.7c.8-.8 1.2-1.5 2.9-1.1 1.3.3 2.2 1.4 2.2 2.4s-.3.7-.4 1.6c0 .7.3.5-.1 1.4l-1 1.4c-.9.9-.4 0-1.2 1.3l1.8 1.8c-.1 2.2-.8 4.3-.9 5.2-.1 1.9-.4.7.4 1.5 1-1.5 8.5-33.5 9.2-37.3l-19-4.6-42.5-10.3-9 37.3 1.5-5.2c1.1-3 1.9-1.3 3.6-2.3.4-2.3-.5 0-.7-3.5 0-1 0-.6-.2-1.6l.5-.5c1-1.4-.2-3 2.7-3.7 2.4-.6 4.3.4 4.3 2.9 1.4 0 1.9 0 3.1.6.4-2 1-2.5 2.4-3 2.5-.7 2.5.5 4 .9.6.2 6.5-1.7 6.2 3.2" clip-rule="evenodd"/><path fill="#02060F" fill-rule="evenodd" d="M180 38.4c-4.8-1-.3-6.6 1.6-2.1-.2 1.4-.5 1.6-1.7 2.1m-73-25v.7c1.6-3.3 4.6-3 8.7-1.5L158.4 23l19.5 4.8-9 37.9c1.4.2 3.4 1 4.7.7a5 5 0 0 0 3.1-2.4c1.4-2.5 2-7 3.1-9.7l-2.1 9.2c-.2 1.9-.5.5.3 1.4 2.6-9.6 5.2-20.3 7.3-30 2-9.3-11.3-7.3-15.6-10-.9-.5-.7-1.2-2-1.8-1-.5-2.7-.9-3.8-1.1-3.5-.9-36.1-9-37.9-9-2.8 0 .5 1.6-6.5 0-4.4-1.1-10.8-3.6-12.6.4" clip-rule="evenodd"/><path fill="#7A7A7B" fill-rule="evenodd" d="M128.2 106c-2-.9-2.5-.9-4.4-.8 2.9-10.9 7.3-25.2 10.6-36.7l.9-2.7c.5-1.6.6-2 .2-2.8-1 .8-1 1.4-1.3 2.8l-12.7 38.8c-.7.6-.6 1.3-1 2.3l.6-.4.4-.2c1-.5.6-.3 2-.4l-12.2 38c1.9-.3 3.8-.2 6 .3l9-37.8c1.9.3 3 1.1 4.2 2.2.1 1.9-3.4 26.2-4 30l-1.3 9c-.3.7-.1.4-.4.6l.2.8c.9 1 1.4 2 1.6 3.6.5-.4 0 .7.5-.9 1-7 1.6-14.5 2.4-21.6.8-6.7 1.3-15 2.5-21.5 1-5.8 6.2-42.7 7.3-44.7h-1l-7.4 43.7c-1.3-.9-1.3-1.1-2.7-1.7" clip-rule="evenodd"/><path fill="#C8C8C7" fill-rule="evenodd" d="M146.7 42.6c-.6.3-1.8 1-2.6 1.2-1.2.6-1.6.4-2.9.5 3.5.5 3-1 5.3-1.3l-.6 3c1.2.3 2.9 1.3 3.2 2.2 2 1.3 3.8 2.7 3.7 5 0 1.6-.8 2.6-1 4.3-.3 1.4-.2 2.6-.6 4 2.4.9 15.9 4.3 17.6 4.2l9.1-37.9-19.5-4.8v.6l19 4.6c-.7 3.8-8.3 35.8-9.2 37.3-.8-.8-.5.4-.4-1.5.1-1 .8-3 1-5.2l-1.9-1.8c.8-1.4.3-.4 1.2-1.3l1-1.3c.4-1 0-.8.1-1.5 0-.9.3-.6.4-1.6 0-1-.9-2-2.2-2.4-1.7-.4-2.1.3-2.9 1.1l-2.4-.6c.8-3.2-1-2.5-2.2-4.4-2.6-4-5.9-1.4-6.2.8l-3-.4c.1-3.1-2.3-2.4-4-2.8" clip-rule="evenodd"/><path fill="#62656A" fill-rule="evenodd" d="m107 13.4-.9.7c1.2.8.4-.2.5 1.2l-7 29c-.4 1.5-.5.9-.1 3 .2 1-.2-.2 0 .7.7 2.2 3.5 2.6 6 3.2l3 .7c1.3.3 2.2.7 3 .2l-5.3-1.3 9.4-38.2c-4-1.4-7-1.8-8.7 1.5z" clip-rule="evenodd"/><path fill="#E4E3E2" fill-rule="evenodd" d="m111.5 52 14.1-8.7c1.2-1 1.6-1.1 2.8-1.8l5.1-3.1c.8-.2 0-.3.8 0 .3-5-5.6-3-6.2-3.2-1.5-.4-1.5-1.6-4-.8-1.4.4-2 1-2.4 2.9-1.2-.7-1.7-.6-3.1-.6 0-2.5-1.9-3.5-4.3-3-3 .8-1.6 2.4-2.7 3.8l-.5.5.2 1.6c.2 3.6 1 1.2.7 3.5-1.7 1-2.5-.7-3.6 2.3l-1.5 5.2 9-37.3 42.4 10.3.1-.6-42.8-10.4-9.4 38.2z" clip-rule="evenodd"/><path fill="#4E4E4E" fill-rule="evenodd" d="M117.2 144.2h.3c3.6 1 5 1.9 7.3 4 .3-.2 0 .1.4-.6l1.3-9c.6-3.8 4.1-28.1 4-30a8.3 8.3 0 0 0-4.2-2.2z" clip-rule="evenodd"/><path fill="#0B9DBE" fill-rule="evenodd" d="m126.1 55.6 13 3 .4-.6c0-.3 1.7-1.9 2.1-2.2 5.9-3.4 2.2-1.2 5.2-5 2-2.6 2.8-1 2.3-2.6-.3-1-2-1.9-3.2-2.2-1 1.8-2.8 1.5-4.9 1-2-.5-4-1.2-3.6-3.1-3.3-.6-6.1 0-7.7 2.3-1.6 2.4-3 6.4-3.6 9.4" clip-rule="evenodd"/><path fill="#3A3B44" fill-rule="evenodd" d="m133.4 62.5.4-1.7 7 1.7-.4 1.6.4-.4.2-.2.8-1c1.9.5 13.5 3.5 14.9 3.5 1.9-.1 2-1.4 3.6-1.3 7.4.5 13.7 6 17.7.2-.8-1-.5.5-.3-1.4l2.1-9.2c-1.2 2.6-1.7 7.2-3 9.7a5 5 0 0 1-3.2 2.4c-1.3.2-3.3-.5-4.8-.7-1.7.1-15.2-3.4-17.6-4.1l-.5-.1-11.5-2.8-13-3.1-14.7-3.5c-.8.5-1.7.1-3-.2l-3-.7c-2.5-.6-5.3-1-6-3.2-.2-.9.2.4 0-.7-.4-2.1-.3-1.5.1-3l7-29c0-1.4.7-.4-.5-1.2-1 5.9-4.8 20-6.5 27.3-1 3.7-1.6 5.1.4 7.6 1.7 2.2 8.6 3.2 12.4 4 2.4.7 1.8.9 2.9 2.3 1.4 2 14.3 4.3 17.6 5.1l.4 1.8.1.3" clip-rule="evenodd"/><path fill="#DA504E" fill-rule="evenodd" d="m112.8 164.8 11.3-3.2c.8-2.4 1-10 1-12.6l-.3-.8a13.4 13.4 0 0 0-7.3-4l-5 19.4c0 1.1-.6.4.3 1.2" clip-rule="evenodd"/><path fill="#C8C8C7" fill-rule="evenodd" d="M134.3 38.4c-.9-.3 0-.2-.8 0l-5.1 3c-1.2.8-1.6 1-2.8 2L111.5 52l14.6 3.5c.7-3 2-7 3.6-9.4 1.6-2.3 4.4-2.9 7.7-2.4l.6-3c-1-.8-1.5-1.3-2-2.8-.4.6.5.4-1 .6-.9 0-.4 0-.7-.2" clip-rule="evenodd"/><path fill="#E67C7C" fill-rule="evenodd" d="m111.3 144-7.2 21.9c2 .4 7-.5 8.7-1.1-.9-.8-.3 0-.3-1.2l5-19.4h-.3c-2.1-.5-4-.6-6-.2" clip-rule="evenodd"/><path fill="#ABA8A7" fill-rule="evenodd" d="m120.4 106.9-15 39.1c-.4 2.2-.2.5.5 1.4a7.3 7.3 0 0 1 5.4-3.4l12.1-38.1c-1.3 0-.8-.1-2 .4l-.3.2z" clip-rule="evenodd"/><path fill="#02060F" fill-rule="evenodd" d="m133.4 62.5 1.4.3 2 .6-10.1 41.8 1.5.7c1.4.6 1.4.8 2.7 1.7l7.5-43.7h1l1 .2.4-1.6-7-1.7z" clip-rule="evenodd"/><path fill="#111224" fill-rule="evenodd" d="M81 210c-1.8.6-3.5.1-4.7 1.4q3.3 1.6 6.7 3h1.2c2.5 0 5 .4 7.5.8.7-.2 1-.2 1.5-.5 1.2-.7.5-.2 1.2-1.3l-4.5-.7.6-.8c1.3-1 4.7 0 7 .7.7.1 1.5.3 2.1.6l.2.1.2.1 4.8 2c-1.7 1.4-.8.8-3.6-.1l-4-1.4-.2.7c-.1 1.1.8.1 0 .7l1.7 1.6 8.4 3.1c1.4.7 1 .7 2.4.4 0-2 1-.5-1-1.8-1.3-.8-1.2-.5-1.1-1.3 1.3-.7 1.8.3 3.2 1.2 1.3.9 2.5 1.7 3.6 2.7h1.2l-2.7-2.3a42.9 42.9 0 0 0-14.4-6.9c-6.8-1.8-11-1.7-17.3-2" clip-rule="evenodd"/><path fill="#EAB08A" fill-rule="evenodd" d="M139.4 35.4h.7l.8.3 2 .9c.6-.7 0-.4.2 0 0 0 0 .7.2.3v.3c.6-1-.5-.5 1.3-.6l2.8-.2c1.4 0 .7-.3 1 .3l1-.5c-2 4-5.6 4.7-9 2.2-1.6-1.1-1.2-.9-1.7-2.8.3-.5-.6-.7.7-.2m6-4 1-.2c.9.9 1.2 1.2 1.4 2.3v.7l-3-.6c-2.6 0-.5-.1-2-.4-1-.2-1.6.5-2.2 1-1.4.7-1.3.3-2.5-.7v1.7c-.2.7-.6.8-2 1.7v1c.4 1.6.9 2 2 3l-.7 3 .8-2.7c1.2 1 1.6 2.4 3 3 1.3 0 1.7.2 3-.4l2.5-1.2c1.6-1 2.4-1.7 3.4-4 1.3-3.3 2.7-2 2.7-5-1-.2-1.4 0-2.2 0-.8 0-1-3.4-1.2-4.6-1.6 0 .2-.3-2.5-1l.7 1.9c-1.4 1-1.4-.3-2.2 1.5" clip-rule="evenodd"/><path fill="#F79593" fill-rule="evenodd" d="m105.5 146-4.5 11.8c-.7 2.7-1.7 2.8-.5 5.2.8 1.5 1.2 2.4 3.6 2.9l7.2-22a7.3 7.3 0 0 0-5.4 3.5c-.7-.9-1 .8-.4-1.4" clip-rule="evenodd"/><path fill="#DA956E" fill-rule="evenodd" d="m112.7 219 2.7 2.2h.5c.6-2.3 1.8-2.9 4-3.3 1.6-1.6 4.8-2.7 7-4.2 6.6-4.5 11.4-4.6 9.9-12.8-.5-2.4.2-2.2 1.5-4 1-1.6 1.8-2.7 2-4.8-1.3.7-.2 1.2-2 3.8l-2.8 3c.3 2.3 1.2 3.8-.1 6.4-1.6 3.1-5.3 5-8.3 6.3l-4.8 2c-2 .7-3 1.2-5.3 1.5-4.7.8-5.2-4.8-14.9-8.3l.5.5c1 1.1 3.7 2.2 6.3 5 2 2 3 3.7 3.8 6.6" clip-rule="evenodd"/><path fill="#4E4E4E" fill-rule="evenodd" d="m121.5 104.6 12.7-38.8c.4-1.4.2-2 1.3-2.8.4.9.3 1.2-.2 2.8l-.9 2.7c-3.3 11.5-7.7 25.8-10.6 36.7 2 0 2.5-.1 4.4.7l-1.5-.7 10.2-41.8-2-.6c-.4 3.1-5.4 16.9-6.7 20.8-1.6 4.8-6.2 16.8-6.7 21" clip-rule="evenodd"/><path fill="#E67C7C" fill-rule="evenodd" d="m119.4 221.3.4-3.4c-2 .4-3.3 1-4 3.4h3.6" clip-rule="evenodd"/><path fill="#F0CAB1" fill-rule="evenodd" d="M140.3 32.2c.5-1.5 1.6-2.5 3.3-1.4l-.6 2zm-1.9-1.8c-2 .1-.3-1-2.5-.6l-.7 2.8 1 .7c-.3 1.7-.7 3.4-.1 4.7v-1c1.4-1 1.8-1.1 2-1.8v-1.7c1.2 1 1.1 1.4 2.5.6.6-.4 1.2-1 2.1-.9 1.6.3-.5.3 2 .4 1 0 2 .4 3.2.6l-.1-.7c-.3.6.2.1-.4.3l-2.4-.6.4-1.8c.7-1.7.8-.5 2.2-1.5l-.7-2c2.7.8.9 1 2.5 1 .1-.8.3-1.5-.2-2.1l-.5-.2c-2-.8-3-1.4-5.5-2-1 .7-4.8 5.7-4.8 5.8" clip-rule="evenodd"/><path fill="#18ABD1" fill-rule="evenodd" d="M139.5 58c1-.1 1.2-.8 3-1.2 4.1-1.2 7.4.3 8.2 4.7h.5c.4-1.4.3-2.6.5-4 .3-1.7 1-2.7 1.1-4.2.1-2.4-1.8-3.8-3.7-5.1.5 1.6-.3 0-2.3 2.5-3 3.9.7 1.7-5.2 5.1-.4.3-2.2 1.9-2.1 2.2" clip-rule="evenodd"/><path fill="#DA956E" fill-rule="evenodd" d="M136.4 163.4c.7-2.3-.6-5.1-2-6-1 .4-.2-.3-.2.4 0 .6.5.9.8 1.8 1.2 3.6-.9 7.7-2 10.5-.9-1-2.8-3.6-4.5-3.2a7 7 0 0 1 1.6 1.7l.4 1c1 1.7 2 3.2 2 6.2 1.3-1 3-7.3 3.5-9 .5-1.8.1-2.2.4-3.4" clip-rule="evenodd"/><path fill="#62656A" fill-rule="evenodd" d="M138.4 30.4s3.7-5.1 4.8-5.8c2.5.6 3.5 1.2 5.5 2l.5.2c.5.6.3 1.3.2 2.2.1 1.2.4 4.6 1.2 4.6-1.7-7.2.6-10.7-3.8-12.1a4.7 4.7 0 0 0-3.4.2c-1.4.8-.6 1.5-1.4 2.8a75 75 0 0 1-3.6 6" clip-rule="evenodd"/><path fill="#DA956E" fill-rule="evenodd" d="m139.5 58-.3.7 11.5 2.8c-.8-4.4-4-5.9-8.3-4.7-1.7.4-2 1-3 1.2" clip-rule="evenodd"/><path fill="#26272A" fill-rule="evenodd" d="m91.7 215.2 7 1.7-1.8-1.6c.9-.6 0 .4 0-.7l.3-.7c1.2.3 3 1 4 1.4 2.8 1 1.9 1.5 3.6.1l-4.8-2-.2-.1-.2-.1c-.6-.3-1.4-.5-2-.6-2.4-.7-5.8-1.8-7.1-.7l-.6.8 4.5.7c-.7 1 0 .6-1.2 1.3-.5.3-.8.3-1.5.5" clip-rule="evenodd"/><path fill="#DA956E" fill-rule="evenodd" d="M141.2 44.3c-1.4-.7-1.8-2-3-3l-.8 2.6c-.4 2 1.6 2.6 3.6 3 2.1.6 4 1 4.9-.9l.6-3c-2.3.3-1.8 1.8-5.3 1.3" clip-rule="evenodd"/><path fill="#26272A" fill-rule="evenodd" d="m107.1 220 .6.6 3.1.3h.5l3 .3a38 38 0 0 0-3.7-2.7c-1.4-1-2-2-3.2-1.2 0 .8-.2.5 1.1 1.3 2 1.3 1-.3 1 1.8-1.4.3-1 .3-2.4-.4" clip-rule="evenodd"/><path fill="#E67C7C" fill-rule="evenodd" d="M124.1 161.6c.7 0 1 0 1.7-.2.8-2.5 1-6.6 1.4-9.5l-.1-.2c-.5 1.6 0 .5-.5 1a5.9 5.9 0 0 0-1.6-3.7 60 60 0 0 1-.9 12.6" clip-rule="evenodd"/><path fill="#170707" fill-rule="evenodd" d="M148.4 36.7c-.5.6 0 .6-2.3 1-.7 0-2.3.2-2.7-.5l-.1-.3c-.2.4-.1-.3-.2-.3-.2-.4.4-.7-.2 0-.2.6-.2.4-.5.7-1.6-.4-2.5-.6-3-1.9-1.3-.5-.4-.3-.7.2.5 2 0 1.7 1.7 2.8 3.4 2.5 7 1.8 9-2.2z" clip-rule="evenodd"/><path fill="#02060F" fill-rule="evenodd" d="M111.3 221a1.5 1.5 0 0 0-.5 0z" clip-rule="evenodd"/><path fill="#3A3B44" fill-rule="evenodd" d="m178.9 35.2 2.1.4-.4 2.2-2.1-.4zm1 3.2c1.2-.5 1.5-.7 1.7-2.1-1.9-4.5-6.4 1.1-1.7 2.1" clip-rule="evenodd"/><path fill="#CCE5E9" fill-rule="evenodd" d="m140.3 32.2 2.7.6.6-2c-1.7-1-2.8-.1-3.3 1.4" clip-rule="evenodd"/><path fill="#FEFEFE" fill-rule="evenodd" d="M143.4 37.2c.4.7 2 .6 2.7.5 2.2-.4 1.8-.4 2.3-1-.3-.6.4-.4-1-.3l-2.8.2c-1.8 0-.7-.5-1.2.6" clip-rule="evenodd"/><path fill="#AFDFEB" fill-rule="evenodd" d="m178.5 37.4 2.1.4.4-2.2-2.1-.4z" clip-rule="evenodd"/><path fill="#CCE5E9" fill-rule="evenodd" d="M146.5 32.3c.3.5.2.1 0 .9l-1-.3.2-1c.8.2.4-.2.8.4m-1.1-.9-.4 1.8 2.4.6c.6-.2 0 .3.4-.3-.2-1.1-.5-1.4-1.4-2.3l-1 .2" clip-rule="evenodd"/><path fill="#FEFEFE" fill-rule="evenodd" d="M143 36.6a34 34 0 0 0-2.1-.9l-.8-.2c-.5-.2-.5-.1-.7-.1.5 1.3 1.4 1.5 3 1.9.3-.3.3-.1.5-.7" clip-rule="evenodd"/><path fill="#3193AA" fill-rule="evenodd" d="m145.5 32.9 1 .3c.2-.8.3-.4 0-.9-.4-.6 0-.2-.8-.4z" clip-rule="evenodd"/><path fill="#E31F25" fill-rule="evenodd" d="m33 46.3 160.7 160.6 13.2-13.2L46.3 33.1z" clip-rule="evenodd"/></svg>