<svg xmlns="http://www.w3.org/2000/svg" width="240" height="240" fill="none"><path fill="#E31F25" fill-rule="evenodd" d="M120 240a120 120 0 1 0 0-240 120 120 0 0 0 0 240" clip-rule="evenodd"/><path fill="#fff" fill-rule="evenodd" d="M120 221.3a101.3 101.3 0 1 0 0-202.6 101.3 101.3 0 0 0 0 202.6" clip-rule="evenodd"/><path fill="#fff" fill-rule="evenodd" d="m42.4 62.6 20.2-20.2L198 177.6 177.6 198z" clip-rule="evenodd"/><path fill="#373739" d="M157.6 178.9c-1.3 5.2-4.9 9.3-8.7 10.7-1.1.4-2.3.5-3.5.3-5-.7-7.7-6.9-6-13.7 1.7-6.9 7.2-11.8 12.2-11 2.7.3 4.8 2.4 5.8 5.3.8 2.4 1 5.3.2 8.4"/><path fill="#2C2B2A" d="M157.6 178.9a15.9 15.9 0 0 1-7 10c-1.2.6-2.9.4-3.9-.6-2-2-2.7-6-1.7-10.2 1.4-5.9 5.6-10.1 9.3-9.6.5 0 1 .2 1.4.5 1.1.6 1.8 1.6 2 2.8.5 2 .5 4.5-.1 7"/><path fill="#BFBDBD" d="M155.6 179.8c-1.5 4.2-4.5 7-6.8 6.3s-3-4.7-1.4-9c1.5-4.2 4.6-7 6.8-6.3 2.3.7 3 4.7 1.4 9"/><path fill="#373739" d="M80.5 183.9c-1.8 7-6.6 12.7-11.8 14.5-1.5.5-3.1.7-4.7.5-6.8-1-10.5-9.4-8.2-18.7 2.4-9.2 9.8-16 16.6-15 3.7.6 6.5 3.4 7.8 7.3 1.2 3.3 1.3 7.2.3 11.4"/><path fill="#2C2B2A" d="M80.5 183.9c-1.5 6-5.2 11-9.5 13.5-1.7.9-3.9.6-5.2-.7-2.7-2.8-3.7-8-2.3-14 1.8-7.8 7.5-13.6 12.5-12.9a5.8 5.8 0 0 1 2 .7c1.4.8 2.4 2.2 2.7 3.7a21 21 0 0 1-.2 9.7"/><path fill="#BFBDBD" d="M77.9 185c-2 5.8-6.3 9.7-9.4 8.7-3-1-4-6.4-1.9-12.1 2-5.8 6.3-9.7 9.4-8.7s4 6.4 1.9 12.2M102 98.5a2.3 2.3 0 0 1-.4-.1c-1.1-.4-1.8-1.5-1.4-2.5l18-53.5c2.6-7.5 10.5-12.5 19.3-12.2 1.2 0 2.2 1 2.2 2 0 1.1-1 2-2.2 2-6.9-.3-13 3.6-15 9.4l-18.1 53.6c-.3.9-1.4 1.4-2.4 1.3m-5.4-2.6a2.6 2.6 0 0 1-.4 0c-1.2-.4-1.8-1.6-1.4-2.6l19.5-54.8c1-3.2.4-6.7-2-9.3a23.2 23.2 0 0 0-5-5c-1-.4-1.5-1.6-1-2.6s1.8-1.3 3-.8c.9.4 2.5 1.5 6.4 6a13 13 0 0 1 2.7 13L99 94.6c-.3 1-1.3 1.5-2.3 1.3"/><path fill="#0F4728" d="m81.6 143.6-10.2 8.6 6.7 19.4c1.5 4.2 5 7.6 9.4 9.4l17.3 5.9-15-39.8z"/><path fill="#0F4728" d="M149.8 157.6c-4-3.9-11-3-13.4 1.6-2.4 4.4-7 7.4-12.4 8.2l-22.7 3.2-1.3 9 15-1.1c8.9-.7 26.4 3.7 33.2-1.1l12.3-14.5z"/><path fill="#0A743A" d="m166 167.4-13.8 9.7a48 48 0 0 1-23.9 8.4l-20.6 1.5c-5.2.4-10-2.5-9.5-12.3l-1.8-5a26.5 26.5 0 0 0-19.5-16.5l-1.1-.2-4.4-.8 21.3-58.3c.7-2 2.4-3.4 4.5-4a7.8 7.8 0 0 1 3.5-.1c1.8.3 3.3 1.2 4.5 2.5 4 5 5.5 11.2 3.8 17l-8.6 23.2a46.7 46.7 0 0 0-.5 30.9l2.6 8c1.4 4.3 6.2 7.1 11.2 6.4l23.5-3.4c5.5-.7 10-3.8 12.4-8.2 1.7-3 5.2-4.5 8.6-4a8.8 8.8 0 0 1 4.9 2.4z"/><path fill="#009847" d="M100.7 89.8 77 153.2l-1.1-.2-4.4-.8 21.3-58.3c.7-2 2.4-3.4 4.5-4a7.8 7.8 0 0 1 3.5-.1"/><path fill="#0A743A" d="m74.1 159.5 4.1 1c2.4.6 4.5 2 6 3.7l.8 1.1a8.6 8.6 0 0 1 0 11l-4.7 5.7c-1.5 1.8-4.8.7-4.6-1.5l.5-9c.1-2.7-2-5-5-5.5l-4.2-.6.3-2c.4-2.9 3.6-4.8 6.8-4"/><path fill="#0C582D" d="m144.2 27.5-2.6-1.8a1.8 1.8 0 0 0-.8-.4c-1-.1-2 .6-2 1.7l-.2 1a11.5 11.5 0 0 0 1 6.6c.5 1 1.6 1.6 2.8 1.4a2.7 2.7 0 0 0 1.8-1.4l.4-.7c.4-.8 1.3-1.4 2.2-1.3L161 34c1.1.1 2.2-.6 2.6-1.7.5-1.7-.7-3.4-2.4-3.4l-15.7-1a2.3 2.3 0 0 1-1.3-.4m-39.5-9.1 3-1c.2-.2.5-.2.8-.2 1 .2 1.7 1.2 1.6 2.2l-.2 1a11.5 11.5 0 0 1-2.8 6c-.8 1-2.1 1.2-3.2.6a2.7 2.7 0 0 1-1.3-1.9l-.1-.7c-.2-1-1-1.7-1.8-2l-14-2.7c-1.1-.2-2-1.2-2-2.4 0-1.8 1.6-3 3.3-2.6l15.2 3.7c.5.2 1 .1 1.5 0M85.3 134.2c1.3.4 2.6-.2 3-1.3L105 85.6c.4-1.1-.3-2.3-1.5-2.7-1.3-.4-2.6.2-3 1.3l-16.7 47.3c-.4 1 .3 2.3 1.5 2.7"/><path fill="#E31F25" fill-rule="evenodd" d="m33 46.3 160.7 160.6 13.2-13.2L46.3 33.1z" clip-rule="evenodd"/><path fill="#D8BC14" d="m118.4 200 7.1 1.1-4.2 9.5-6-1a6 6 0 0 1 2-9z"/><path fill="#7D6B2D" d="M114 206.3a5.9 5.9 0 0 0 1.3 3.3l6 1 1-2.2s-10-1.4-8.3-2.1"/><path fill="#373B36" d="M98.1 203.4c-.5 4.5-3.5 8.3-7.3 9.9a9.4 9.4 0 0 1-3.6.7c-5.3 0-9-4.7-8.3-10.6.8-5.9 5.6-10.6 11-10.6a8 8 0 0 1 6.8 3.7c1.2 1.9 1.7 4.3 1.4 6.9"/><path fill="#2C2B2A" d="M98.1 203.4c-.5 3.8-2.7 7.2-5.7 9-1.1.8-2.9.8-4 .1-2.4-1.4-3.8-4.6-3.4-8.2.6-5 4.2-9 8.1-9l1.6.2a4 4 0 0 1 2.5 2c.8 1.7 1.2 3.7 1 5.9"/><path stroke="#774291" stroke-miterlimit="10" stroke-width=".5" d="M96.3 204.4c-1 3.7-3.7 6.4-6.2 6-2.4-.2-3.7-3.5-2.8-7.2 1-3.7 3.7-6.4 6.1-6 2.5.2 3.8 3.5 2.9 7.2Z"/><path fill="#D8BC14" d="m99.8 199.8-14.8 7-3.5-.3-2.1-.2a2.6 2.6 0 0 1-2.5-2.6v-1.5c0-3 1.2-5.8 3.3-8a14.7 14.7 0 0 1 3-2.6c2.3-1.5 5.1-2.2 7.9-2.2 2 0 4 .8 5.3 2A5.7 5.7 0 0 1 98 194z"/><path fill="#7D6B2D" d="m99.8 199.8-14.8 7-3.5-.3v-2.3c0-3 1.1-5.8 3.2-8 2-2.3 5-4 8.3-4.8H96.4A5.7 5.7 0 0 1 98 194z"/><path fill="#7D6B2D" d="m119 200.2-1.2.8-.6.4a6 6 0 0 0-2.4 7.5l.5.6c.5.5-4.2 2.3-4.2 2.3a24.4 24.4 0 0 1-10.7.8l-11-1.7a9.7 9.7 0 0 1-7-4.8l-1.2-2a2.6 2.6 0 0 1-.1-2.4 2.6 2.6 0 0 1 1.7-1.5l17.8-4.9 11 1.1a6 6 0 0 1 4.3 2.6l.3.3z"/><path fill="#64552A" d="M114.8 209a6 6 0 0 1-.3-1c-1.2.7-3.6 1.6-3.6 1.6a24.4 24.4 0 0 1-10.7.8l-11-1.7a9.7 9.7 0 0 1-7-4.8l-1.2-2a2.6 2.6 0 0 0 .2 2.2l1.2 2a9.7 9.7 0 0 0 7 4.8l11 1.7c3.6.5 7.2.2 10.7-.8 0 0 4.7-1.8 4.2-2.3zm1.8-9.6a6 6 0 0 0-2.3 6.5 6 6 0 0 1 2.9-4.5l.6-.4 1.3-.8z"/><path fill="#D8BC14" d="m119 200.2-1.2.8-1.6-.3a13.1 13.1 0 0 0-5.6.2l-6.3 1.6a32 32 0 0 1-12.2.7l-11-1.5a2.6 2.6 0 0 1 1.7-1.5l17.8-4.9 11 1.1a6 6 0 0 1 4.3 2.5l.3.4z"/><path fill="#7D6B2D" d="m154.6 201.1-5 12.4-3.8 9.1-17.8-4.3a11 11 0 0 1-6.4-4.3l-2.3-3.4a6.9 6.9 0 0 1 1.4-6.6 6.8 6.8 0 0 1 2.2-1.6l2.6-1.3 8.6-1.2a40.6 40.6 0 0 1 11.1 0z"/><path fill="#64552A" d="m149.6 210.9-3.8 9.1-17.8-4.3a11 11 0 0 1-6.4-4.3l-2.3-3.4a7 7 0 0 1-.2-.7 6.9 6.9 0 0 0 .2 3.3l2.3 3.4a11 11 0 0 0 6.4 4.3l17.8 4.3 3.8-9 5-12.5-1-.1z"/><path fill="#D8BC14" d="m154.6 201.1-5 12.4-18-2.7a16 16 0 0 1-10.9-6.7 6.8 6.8 0 0 1 2.2-1.7l2.6-1.3 8.6-1.2a40.6 40.6 0 0 1 11.1 0z"/><path fill="#373B36" d="m91 200 9.7-3a3.1 3.1 0 0 1 1.3 0l6.5 1c.7 0 .7 1 0 1.1l-8.8 2H91c-.6-.1-.7-1-.1-1.1m35.6 5.5a1 1 0 0 1 0-1.9c1.3-.6 4-1.3 4.8-1.8a4.7 4.7 0 0 1 2.5-.5l14 1.5-4.8 6.7-11.3-1.9a10.5 10.5 0 0 1-3.1-1z"/><path fill="#373B36" d="M165.9 213.2c-.7 6.3-4.2 11.6-8.6 13.8-1.3.6-2.8 1-4.2 1-6.2 0-10.6-6.6-9.7-14.8.8-8.1 6.5-14.7 12.8-14.7 3.4 0 6.2 2 8 5.2 1.4 2.5 2 5.9 1.7 9.5"/><path fill="#2C2B2A" d="M165.9 213.2a18 18 0 0 1-6.7 12.6c-1.4 1-3.4 1-4.8 0-2.7-1.9-4.3-6.3-3.9-11.4.6-6.9 5-12.5 9.5-12.5.7 0 1.3.1 1.8.3a5 5 0 0 1 3 2.8c1 2.4 1.4 5.2 1 8.2"/><path fill="#BFBDBD" d="M163.7 214.6c-1 5.1-4.3 8.9-7.2 8.5s-4.4-5-3.3-10c1-5.2 4.3-9 7.2-8.6 2.9.5 4.4 5 3.3 10"/><path fill="#878683" d="M161.7 214c-.7 3.4-2.9 6-4.8 5.7s-2.9-3.3-2.2-6.7 2.9-5.9 4.8-5.6 2.9 3.3 2.2 6.6"/><path fill="#D8BC14" d="M166.8 204.1a5.5 5.5 0 0 1-2.7 6.3l-13.5 7.4-.2.1-6-.5a3.8 3.8 0 0 1-3.4-3.9v-2c0-4.1 1.4-8 3.8-11.1a18.4 18.4 0 0 1 4.3-4c2.5-1.7 5.5-2.6 8.5-2.6a8.3 8.3 0 0 1 6 2.5 8.3 8.3 0 0 1 2 3.8z"/><path fill="#7D6B2D" d="m164.6 210-14 7.8v-4c0-4.1 1.4-8 3.8-11.1a18.3 18.3 0 0 1 6-5c2-1.2 4.6 0 5.3 2.3l1.2 4.7a4.8 4.8 0 0 1-2.3 5.4"/></svg>