<svg xmlns="http://www.w3.org/2000/svg" width="240" height="240" fill="none"><path fill="#E31F25" fill-rule="evenodd" d="M120 240c66.274 0 120-53.726 120-120C240 53.725 186.274 0 120 0S0 53.725 0 120c0 66.274 53.726 120 120 120" clip-rule="evenodd"/><path fill="#fff" fill-rule="evenodd" d="M119.895 221.343c55.97 0 101.344-45.373 101.344-101.343S175.865 18.656 119.895 18.656C63.924 18.656 18.551 64.029 18.551 120s45.373 101.343 101.344 101.343" clip-rule="evenodd"/><path fill="#453C3C" d="m164.346 41.427-127.36 97.157-.313.534-.402 1.031-.355 1.369.97 2.35 2.585 2.571 1.988 4.749 4.217 2.465 2.502 3.422 2.389-.191.694.032 127.531-95.928c-2.108-6.638-7.339-15.508-14.446-19.562"/><path fill="#EEE" d="m118.809 77.09-81.423 61.914 4.624 6.077 81.423-61.915z"/><path fill="#DFDFE0" d="m42.01 145.08 8.803 11.575 81.419-61.916-8.799-11.573z"/><path fill="#EB7727" d="m164.004 42.811-45.195 34.28 4.623 6.075 46.119-35.886c-1.189-1.488-2.972-3.33-5.547-4.469"/><path fill="#DD6E26" d="m123.433 83.166 8.799 11.573 44.982-34.208c-1.206-3.799-4.092-8.68-7.663-13.251z"/><path fill="#F1CA52" d="m130.829 77.537 8.803 11.574 5.694-4.331-8.799-11.573z"/><path fill="#FDD659" d="m131.904 67.13-5.697 4.326 4.621 6.081 5.699-4.33z"/><path fill="#AEABA9" d="M50.862 150.136c-.026.777.286 1.563.728 2.29.907 1.498.778 3.613-.545 4.283-1.374.69-3.443-.457-4.248-2.067-1.05-2.091-5.729-3.764-6.286-6.821-.198-1.08-.703-2.163-1.619-2.827-4.21-3.037-2.568-7.743.45-6.022.757.432 1.622.556 2.32.306 1.153-.424 3.027.31 4.204 3.708.996 2.88 5.148 2.731 4.996 7.15"/><path fill="#898989" d="M31.59 93.274c5.542.234 10.382 5.435 10.538 10.98.13 4.712-1.965 7.453-2.566 12.031-.58 4.441 3.648 13.252 3.648 13.252s-8.364-6.137-9.455-11.684c-2.228-11.32 7.178-17.696-2.166-24.579"/><path fill="#6B6C6C" d="M19.959 70.912c9.92.419 18.583 9.727 18.861 19.65.233 8.434-3.517 13.34-4.592 21.534-1.038 7.947 6.528 23.716 6.528 23.716s-14.969-10.983-16.922-20.911c-3.987-20.26 12.846-31.671-3.875-43.99"/><path fill="#898989" d="M23.989 115.666c3.402-.834 7.252 1.468 8.322 4.803.908 2.834.12 4.865.561 7.746.43 2.795 4.544 7.394 4.544 7.394s-6.151-2.25-7.79-5.421c-3.342-6.472 1.239-11.994-5.637-14.522"/><path fill="#E31F25" fill-rule="evenodd" d="M37.084 139.52c4.085 2.804 2.809-1.502 5.318 1.474 1.18 1.4 5.91.573 3.051 5.463-.622 1.066-.972-2.192-4.913-2.398-2.07-.108-3.005-3.753-2.64-3.722.51.043-.371-.511-.816-.817M43.549 148.906c.404-2.534 1.361.487 4.038.857 2.737.378-.09 3.409 2.21 5.162.132.1.465 2.666-1.072-.917-1.016-2.367-5.352-4.004-5.176-5.102" clip-rule="evenodd"/><path fill="#72241E" fill-rule="evenodd" d="M39.08 138.29c1.762.451 3.366.175 4.466.803 2.014 1.148 1.934 2.442 2.865 3.869.783 1.199 1.43 2.182 2.55 2.774.862.456-.25-.015 1.724 1.624.486.403 1.406 2.486 1.098 2.989-.404.658 1.234 5.903 1.784 3.054.341-1.772-2.012-.327-.142-3.398.696-1.144-2.279.992-1.308-1.262.905-2.104-2.328-2.194-1.826-3.897.286-.968-1.657-.437-2.058-1.967-.388-1.482-4.597-5.725-6.462-4.552-.046.387-3.133-.151-2.692-.037" clip-rule="evenodd"/><path fill="#B3B3B4" d="M178.968 100.085c2.747 1.053 4.006 4.209 3.317 6.969-.656 2.631-4.235 7.692-.443 13.609-.392-.611-2.905.301-3.409.519-11.869 5.139-3.761 22.645 7.071 20.579-4.083 3.22-6.007 5.927-3.707 10.691 1.779 3.686 5.569 5.727 9.635 5.027-2.607.449-3.886 4.113-2.939 6.211 2.79 6.191 11.286 7.127 15.352 1.675.898 3.539 8.146 5.118 13.969 1.31 8.827-5.774 7.611-19.25-1.442-21.378 9.932-.901 8.33-19.453-9.032-17.306 3.134-2.423 3.386-7.46 1.119-10.707-4.584-6.565-18.15-7.167-20.614 2.438-3.886-9.114-1.545-8.772-2.885-14.175-1.24-5.003-4.371-4.84-5.992-5.462"/><path fill="#fff" d="M194.419 145.892c-6.722-.758-8.005-5.973-5.665-10.466.414-.795 1.458-2.044.971-1.73-4.941 3.19-3.523 11.852 2.742 12.83 1.926.301 2.548-.566 1.952-.634M211.33 158.232c4.186.838 7.507-6.065 4.935-11.864-1.534-3.461-3.697-3.791-3.013-3.005 3.841 4.417 3.621 9.707 1.317 12.599-2.278 2.86-4.534.159-4.202 1.774 1.328 6.46-9.622 9.759-12.666-.52-.192-.647-.334 1.794 1.453 4.228 4.104 5.587 12.516 2.799 12.176-3.212M197.71 137.706c.407-2.157.606-5.074-.192-7.128-1.942-4.99-12.86-13.518-5.549-5.661 1.988 2.138 3.559 3.653 4.495 5.52 1.531 3.054 1.054 8.269 1.246 7.269M207.601 133.337c.751-3.501-.531-5.339-3.171-7.292-2.387-1.765-5.525-2.995-7.731-1.199-.546.444 1.375-.733 3.684-.105 2.181.593 5.101 2.96 5.914 4.438 1.585 2.885-.601 6.365-.859 7.859-.2 1.157 1.444-.345 2.163-3.701M181.58 136.506c-.673-.744-3.278-1.676-4.29-3.965-1.681-3.806 2.525-5.609 1.01-5.125-3.43 1.089-2.938 5.71.397 8.217 1.996 1.5 3.415 1.46 2.883.873M197.473 165.632c-3.662-.947-3.772-1.558-4.9-3.897-.18-.373-.452.559.175 1.812 1.941 3.882 6.149 2.454 4.725 2.085M188.315 152.855c-.642-.783-1.71-1.485-2.056-2.632-.587-1.951 1.217-2.719.692-2.506-1.327.542-1.889 2.395-.519 4.112 1.654 2.069 2.1 1.29 1.883 1.026M218.923 138.533c.682-1.856-2.2-6.022-5.736-6.017-1.468.002-.927.815-.694.804.152-.006-.472-.292.077-.449.395-.066 1.529.29 2.095.548 3.77 1.722 3.786 6.401 4.258 5.114M204.456 121.199c-.277-2.659-3.937-6.136-7.472-5.023-1.463.46-2.044 1.625-1.867 1.49 5.847-4.475 9.587 5.898 9.339 3.533M217.274 163.742c1.515-.547 2.895-2.202 3.031-4.324.116-1.829-.873-2.916-.812-2.481.611 4.37-1.571 6.372-4.957 6.603-.768.052.427 1.037 2.738.202"/><path fill="#fff" d="M209.005 151.688c1.414-2.144.265-5.458-.327-6.275-.577-.794.051 1.895.14 2.87.626 6.886-8.207 4.161-9.012 4.065-2.574-.307 6.014 4.169 9.199-.66"/><path fill="#727272" d="m162.24 128.682 3.156 3.667a4.864 4.864 0 0 1-.513 6.86l-4.834 4.161-9.503-11.038 4.833-4.162a4.866 4.866 0 0 1 6.861.512"/><path fill="#363878" d="m85.144 150.434 29.365 34.11a3.96 3.96 0 0 0 5.582.417l41.957-36.121a3.96 3.96 0 0 0 .418-5.582l-29.366-34.11a3.96 3.96 0 0 0-5.582-.418l-41.957 36.121a3.96 3.96 0 0 0-.418 5.583"/><path fill="#DEE0ED" d="m138.892 120.698-43.188 37.181a.816.816 0 0 0 1.064 1.236l43.189-37.181a.816.816 0 0 0-1.065-1.236M134.332 115.4l-43.189 37.182a.816.816 0 0 0 1.064 1.236l43.189-37.182a.814.814 0 1 0-1.064-1.236"/><path fill="#727272" d="m145.768 106.631 9.503 11.038-8.52 7.336-9.503-11.039zM163.727 93.423l7.274 8.451 8.157-7.022a3.05 3.05 0 0 0 .322-4.304l-3.294-3.825a3.05 3.05 0 0 0-4.303-.322z"/><path fill="#363878" d="m140.713 111.333 9.157 10.637a5.133 5.133 0 0 0 7.238.541l15.934-13.719a5.13 5.13 0 0 0 .541-7.237l-9.158-10.637a5.13 5.13 0 0 0-7.237-.541l-15.934 13.718a5.133 5.133 0 0 0-.541 7.238"/><path fill="#727272" d="m113.646 168.411 5.24 6.086a3.266 3.266 0 0 0 4.607.345l29.356-25.273a3.266 3.266 0 0 0 .344-4.607l-5.24-6.087a3.265 3.265 0 0 0-4.607-.344l-29.356 25.272a3.267 3.267 0 0 0-.344 4.608"/><path fill="#fff" d="M143.948 143.549c-3.093 2.663.93 7.345 4.028 4.679 3.093-2.663-.931-7.345-4.028-4.679M135.587 150.747c-3.093 2.663.93 7.345 4.027 4.679 3.093-2.663-.93-7.345-4.027-4.679M127.225 157.947c-3.093 2.662.93 7.344 4.027 4.678 3.093-2.663-.93-7.345-4.027-4.678M118.864 165.145c-3.093 2.662.93 7.345 4.027 4.678 3.092-2.662-.93-7.345-4.027-4.678M169.925 104.364l-14.995 12.909a.816.816 0 0 0 1.065 1.236l14.994-12.909a.816.816 0 0 0-1.064-1.236M164.983 98.623l-14.995 12.909a.816.816 0 1 0 1.064 1.236l14.994-12.909a.816.816 0 0 0-1.063-1.236M160.04 92.882l-14.995 12.909a.816.816 0 0 0 1.064 1.236l14.995-12.91a.815.815 0 0 0-1.064-1.235"/><path fill="#7275A9" d="M102.899 165.112c-.017-.053 12.161 14.526 13.673 15.633 1.119.819 2.502.995 3.775.448.274-.119.425-.083.464.035.169.505-1.705 2.518-4.704.493-1.644-1.111-12.343-14.037-13.208-16.609M126.138 113.108c-.058-.173 1.526-1.796 1.88-2.044 2.725-1.911 5.453.877 5.785 1.872.07.21.034.34-.132.329-1.744-.107-2.375-4.076-6.447-.861-.766.604-1.063.775-1.086.704"/><path fill="#fff" d="M155.104 131.919q-.016-.044.036-.134c.019-.034.778-.547.956-.699 1.007-.864 1.988-1.728 3.654-.398.999.799 3.322 3.104 3.792 4.511q.076.229.083.422c.051 1.921-3.452-4.164-5.387-4.587-.574-.127-3.03 1.199-3.134.885M168.139 92.211c-.028-.083.358-.466 1.384-1.313 2.258-1.864 3.153-2.728 4.387-2.91 1.743-.256 4.353 3.093 4.738 4.248.112.337.036.487-.305.308-1.954-1.023-2.98-3.814-4.452-3.474-.661.152-5.657 3.426-5.752 3.141"/><path fill="#E31F25" fill-rule="evenodd" d="m32.894 42.835 160.625 160.624 13.192-13.191L46.086 29.643z" clip-rule="evenodd"/></svg>