<svg xmlns="http://www.w3.org/2000/svg" width="240" height="240" fill="none"><path fill="#E31F25" fill-rule="evenodd" d="M120 240a120 120 0 1 0 0-240 120 120 0 0 0 0 240" clip-rule="evenodd"/><path fill="#fff" fill-rule="evenodd" d="M120 221.3a101.3 101.3 0 1 0 0-202.6 101.3 101.3 0 0 0 0 202.6" clip-rule="evenodd"/><path fill="#FDCFBF" fill-rule="evenodd" d="M127 96.7c0 3.1 4.5 8.2 8 10.2a22 22 0 0 0 7 2.7c1.6.3 2.9.4 4.5.9 1 .3 3.2.8 4.3.3 5.2 0 7-.4 10.4-2.6 2-1.2 6-5.6 3-8.9-1.4-3-7-5-10.8-5.5-11.4-1.3-16.6 4.8-25.5 2.1-4.2-1.2-7.3-3.8-7.2-8.2 3.2.7 2.7 2.5 4.2 2.6.2-2.4-3.4-4-6.3-3.5a22 22 0 0 0-6.4 2c-1.5 1.7 3.4-.4 3.4-.4 1.2-.3 2.6-.8 4-.7.4 4.9 2.8 7.3 7.5 9M170.7 81c-.3.6-.5.9-.2 1.9.7 2.6-.3 2.4.6 3 .4.4 1 .5 1.5.2 1.3-.8.2-5-1.9-5.1m-17.6-.5-1.3-.3c-.3 1.2.5 2 1.9 2.1l-.1-1.1c.4.3.4.1.6.8.2.4.2.6.1 1v1.4c-3.3-1.2-11.2-2-11.5 2 .8 1.4 3.5 3 5.8 3.4 2.8.4 4.7-.5 6-2.5 0-1 1.6-2.8.5-5.7a5.5 5.5 0 0 0-3.8-3.3c-4.4-1-8.5 3.6-7.9 5.3 1-.2 1.5-1.6 2-2.2 2.3-2.7 6.5-3 7.7-.9m18.1 8.2c-3.4-2.6-11.4-3-12.2-1.5.7.7 2.8.6 4 .8 1.2.3 2.3.6 3.4 1.1 2.8 1.4 3 2.4 4.7 3.8.9-.3 1.6-1 2-1.6-.2-1-.5-1-.7-1.7 1.6-1.9 3.3-4.1 2-7.4-.7-2-2.9-4-4.9-5.3-7.3-4.4-12.2 4.1-11.6 5.7 1 0 .7-.1 1.2-1.1 1.8-4.1 5.8-6.5 10-3.7 8.4 5.4 3.4 11.3 2.1 10.9m-41.1-19.4c-1.2-.5-1.5.3-1.2 1.3 0 .3.7 1.3.9 1.6 3 5.3 4.9 2.5 2.8 0-.8-1-1.8-2.5-2.5-2.9m-16.3 7.9c-1 .2-2.3.6-3 1.3.3 1 1.3 1.5 2 2.1 1.3 1.1 1.1.8 2.6.3 4.5-1.6 9.9-1 14.4.3 1.4.4 5.5 2.3 6.4 1.9-.2-1.8-10.8-5.7-13.3-6.1-.5-.4-1.8-.4-2.6-.7-.5-1-.7-3.3-.8-4.6a9 9 0 0 1 1.1-5c4.1-1 10 1.2 12.9 5.8l1 2c.4 1 .2 1.6 1.1 1.8 1-1.3-2.6-6.2-3.4-7-4.1-4-13-5.5-16.5-1.2-2.5 3-2.1 5.1-2 9M176 65.8c.9-1.3-.8-7-1.4-8.4-2.2-4.9-5.5-2.3-5.8 0 1.6 0 2-.4 3.2.8 2.7 2.9 2.6 7.2 4 7.6m-47.5-14.5c.5-1 .1-8-5.5-3.7-1.1.8-5.1 5.2-5 7.3.9 0 .7 0 1.3-.7 5.5-6.8 7.5-2.5 9.2-2.9m49.3 1.6c.4 2.1 1.1 4 1.5 6.2a46.6 46.6 0 0 1-.5 21c-.1-1.6 1.8-9.7 1-15.3a35.7 35.7 0 0 0-3.4-11.8c-.8 1 .3 3.3.6 4.5l.8 4.4c1 5.6.8 15.1-.8 20.7-1 3.2-2.6 6-3.5 9.1.3.4-.7.5.6.3l-1 2c.6 1.4 1.7 2.4 2 4.4-1.4-.7-.3-.3-.9 0 .4 4.2-2.5 8.3-5.5 11-.7.7-2.3 2.1-2.5 3h1.4l-.6.5-.4.2-3.2 1.2a36.5 36.5 0 0 1-15.1.8c-1.7-.5-5.3-.9-9-2a64 64 0 0 1-21.9-10c-8-6.1-10.5-9.2-10.6-18 0-2.6 0-7.3.8-9.6.2-.8 1.4-2.7 1.9-3.6 3.5-7.6 5-22.6-.5-29.3.6-1 4.5-3 6.1-3.8a35.2 35.2 0 0 1 25-.8c9 3 14.9 9 20.7 15.4.7.8 1.4 2.4 2.3 2.2l.2-1.1c-.6-2.8-3-7.8-4.7-10l-2.3-3a40 40 0 0 1 17.3 8c1 .6 3.7 3.3 4.2 3.4" clip-rule="evenodd"/><path fill="#FE6501" fill-rule="evenodd" d="M190.9 40.5c.3 1.6 1.2 5.9.9 7.4a46.2 46.2 0 0 0-14-21.7c-1-1-6.4-5.2-7.7-4.8 0 1 0 .7.9 1.2 7.3 4.1 12.9 10.1 16.7 17.7 3.6 7.2 7.7 18.3 2.9 28.2A76.9 76.9 0 0 0 180 53.8a45.3 45.3 0 0 0-22.7-13.2c-2.3-.5-2-.2-3.2-1.5-.7-.7-1.6-1.8-2.7-2 0 1-.4.4 1.3 2 2.7 2.6 5.3 5.8 7.1 9 .6 1 1.7 3.3 1.9 4.6l-4.7-4.9a43 43 0 0 0-18.7-11.5c-5.5-1.5-12-1.6-17-.5-5.8 1.1-9 3.2-12.8 5.7-1-.6-2.4-2.7-3.8-2.6-.1 1 .7 1.2 1.5 1.8 5 4.2 6 11.6 5.4 18-.5 4.4-1.3 9.1-3 12.7A29.4 29.4 0 0 1 104 78c-.8.8-1.3 1.5-2 1.7-.4-3-2-8-5.6-8-.3-1.1-.4-4-.3-5.4 3.5-1.4 3.5-5.7 1.9-8.8 0-1.5-.5-2-.9-3 .4-4 3-10 5-12.8 2.6-3.6-1.9-12.2-1.9-12.2 1.7.4 4 3.4 4.2 3.6.9.6.5.2.6 0 .7-.5 2-6.6 2.4-8a41.8 41.8 0 0 1 10.6-17.3c.7-.7.7-1 1.5-1.2-.7 2.5-6.3 11.9-5.2 15.8 1 0 2.3-1.2 3.2-1.8l1.5-1 1.6-1a58 58 0 0 1 22.3-8.5c6.5.7 8-.7 17.4 2.3a46.8 46.8 0 0 1 28.8 25.2c.8 1.5.9 2.5 1.7 2.8" clip-rule="evenodd"/><path fill="#D50100" fill-rule="evenodd" d="M154.5 132.7c-.3.4-.4.6-1 .7-.7.2-4.2-.3-5.2-.4-2.4 0-3.7.3-5.7.5l-.1-.3a5 5 0 0 1 0-.5c.2-2.3 1.7-2.9 1.2-4-.6 0-.4-.6-1.4 1.5-2.4 5-1.2 12-2 16.9a20 20 0 0 1-8.3 13.7c-9.6 6.2-20.1 7.2-32.6.4 0-1.5 2.2-14.1 2.8-15.8 2.1-5.6 3.8-6.8 6-11 2.1-4 4.4-7.9 4.7-12.9.1-2.9-.5-4.6 2.3-5.6 1.9-.8 5.3.1 7.3.8 1.2.1 2.4 1 4 1.2 1.8.1 2.4-.5 3.6-.6 3.7.2 7.6 0 11.2-.6 1.2-.1 2.6-.2 3.3-.8l8 .5c2.2 5.4 3 9.2 2 16.3" clip-rule="evenodd"/><path fill="#FDCFBF" fill-rule="evenodd" d="M78.2 81.7c2 .3 4-5 2-5.6-.6 1.2.3 1.7-.6 3.4-.6 1-1.4 1-1.4 2.2M73.3 65c0-.7 0-.4.3-.7.8.2 1 .4 1.6.8 0 2.3-.8 4 .3 6.1.8 1.6 2.7 2.7 5.2 2.3 4.3-.5 4.4-6 3.8-9.8.4-4.2 7.4-10 12-8.1 1.5 1.3 0 4.1-1 5.2-2.2 2-6.1 4.3-7.6 7-.9 1.6-1.8 4.8-.8 6.1 1.4-.4-.4-.4 1.7-1 1-.3.8-.4 1.6-.9 3.6-2 7 5.2 4.7 8.7-2 3.1-4.3-1-7.7-.8-4.1.2-2.2 4-1.4 6.1a53 53 0 0 0 14.2 21.5c.7.4 2.8 1.6 3.1 2 1.2 6-.3 11-3.7 15.2-7-1.2-13.4-9.5-15.8-13.3a46.6 46.6 0 0 1-7.2-19.6c-.8-6.7.3-11.3 0-12.7-.9-5.7-8.5-2-9.4-17.9-.2-3 .7-10.2 3.5-10.6 1.2.4 1.5 1.6 1.7 3 .6 3.7-.6 5.7-.6 9 0 1.7.2 3.1 1.4 3.3zm107.3 44.1c1.4.6 5.7-2 5.3-6.5-.1-.9 0-.8-.7-1-.7.7.4 2.7-1.3 4.8-1.8 2.1-3 1.3-3.3 2.7m18-26.7c-1 4.6-11.8 8-11.4 14 1.4.7 2-.1 3-1 1.5-1.1-.2-1.8 3.2-2.8a6 6 0 0 1 4.8.4c1 3 1.6 5.3.2 9.1-1 2.7-3 5.1-6 4.7-2.8-1.5 1.3-6.3.3-9.1-.2-.8-.2-.8-1-1-.2 1.4.5 1.5.2 3.1-.2 1-.8 1.9-1 2.8-.9 2.5-.2 4 1.1 5.3-1.2 1.8-6 1-7.7.7l-.6 2c-.6.3-.2 0-.6.6.2 1.5-3.5 5.6-4.5 6.8-5 5.8-12.6 11.8-21.4 11-.3-4.6.3-6.5-1.5-11.5-.4-1.1-.1-.9 0-1v-.1a1 1 0 0 1 .2-.2c5.8-.5 11.6-1.5 15.9-5.6 3-2.8 5.4-8.5 4.2-12.9-.6-2-1.3-2.6-1.8-4 1.1-2.5 3-5.6 6.3-3.5 4.2 2.8-1.7 7.1.8 8.1 1-1 2-7.3 2.3-7.9 1.6-5 3.4-9.4 8.7-10.8 2.7-.8 5.8.5 6.2 2.8" clip-rule="evenodd"/><path fill="#6A8539" fill-rule="evenodd" d="m112.9 189-.7.2c.2-2.5 0-4.9-.5-7-.4-1.8-1.6-4.8-1.6-6 .8-.5 2.3-1 2.2-2-1-.4-1.6.7-2.7 1.2-5.2 2.2-8.8-1.5-10.1-.8 0 1.5 4.5 2.2 5.8 2.4l-1.3 3.3c-1.8 5-1.7 7.4-2.9 11.3a19.8 19.8 0 0 0-11.2-6.3l-.8-.6.4-6c.7-6.3 2.7-11.3 4.2-17 2.2.4 8.2 3.8 11 4.8a26.3 26.3 0 0 0 29.6-5.5c2-2 1.4-1.9 1.7-1.2a22.8 22.8 0 0 1-12.5 11.4c-1 .4-1.8.3-1.6 1.2 2 1 8.4-4.1 9.4-4.5-1.5 7.4-2.6 10.2-1.4 17.6-3.3 0-6.2.5-9.1 1.1-2.4.6-6.1 2.2-7.9 2.5" clip-rule="evenodd"/><path fill="#FDAB93" fill-rule="evenodd" d="m103.3 109.5 2.6.9c0 .8 1 2.6 1 6.2-.3 6.5-4.7 13-9.1 16.5-4.6-.7-11-5.5-13.6-8a46.9 46.9 0 0 1-12.7-26.6c-.8-7.5 1-13.2-.4-17.5.5-.3.9 0 1.4-.5-.3-.8-1.2-.7-2.1-1.2-.8-.4-1.2-.8-1.7-1.4-1-1-1.8-2.2-2.5-3.4a28.3 28.3 0 0 1-2.1-19.3c1.7-6.3 6-5.3 6.6-4.5-2.8.4-3.7 7.6-3.5 10.6.9 16 8.5 12.2 9.5 17.9.2 1.4-1 6-.1 12.7.9 7.7 3.8 14 7.2 19.6 2.4 3.8 8.8 12.1 15.8 13.3a18 18 0 0 0 3.7-15.3" clip-rule="evenodd"/><path fill="#B80000" fill-rule="evenodd" d="M119.5 111.1c-.2 2.8 1 3.8 2.4 5l.3.3s.1.2.2.1v.2c-2-.7-5.3-1.6-7.2-.8-2.8 1-2.2 2.7-2.3 5.6-.3 5-2.6 9-4.7 12.9-2.2 4.2-3.9 5.4-6 11-.6 1.7-2.9 14.3-2.8 15.8-3.4-2-5.8-3.8-7.8-6.4A20.2 20.2 0 0 1 87 146c-.6-3.7 1.3-3 5.5-7.9l1.6-1.9c.7-.9.7-1 2-1.3 4.1-.7 5.1.3 5.2-1.2l-2.5-.2c.6-.8 1.4-1.3 2.2-2.2 2.4-2.4 4-5 5.2-8.3 2.1-5.5 1.8-10-.2-14.5l5.3-.6c1 .2 2.8 1.2 4 1.7l4.1 1.5" clip-rule="evenodd"/><path fill="#A22403" fill-rule="evenodd" d="M179.4 54.6V54.3l-.1-.2-1.5-1.3c-.5-.1-3.3-2.8-4.2-3.5a40 40 0 0 0-17.3-7.9l2.3 3c1.7 2.2 4.1 7.2 4.7 10l-.2 1.1c-.9.2-1.6-1.4-2.3-2.2A48.6 48.6 0 0 0 140.1 38c-8.1-2.8-17.4-2.5-25 .8-1.6.7-5.5 2.8-6 3.8 5.4 6.7 4 21.7.4 29.3-.5.9-1.7 2.8-1.9 3.6-.4.2-3.4 4-4.9 5.4-.7-.5-.3-.1-.7-1 .8-.2 1.3-.9 2-1.7a29.3 29.3 0 0 0 4.6-6.7c1.7-3.6 2.5-8.3 3-12.6.6-6.5-.5-13.9-5.4-18-.8-.7-1.6-.9-1.5-1.9 1.4 0 2.8 2 3.8 2.6 3.8-2.5 7-4.6 12.8-5.7 5-1 11.5-1 17 .5A43 43 0 0 1 157 47.8l4.7 4.9c-.2-1.3-1.3-3.5-1.9-4.5a39.6 39.6 0 0 0-7.1-9.1c-1.7-1.6-1.3-1-1.3-2 1.1.2 2 1.3 2.7 2 1.3 1.3 1 1 3.2 1.5A45.3 45.3 0 0 1 180 53.8c2.3 2.6 5.6 6.6 7.4 9.5.5 1 2.6 4.6 3.2 5.2 4.8-9.9.7-21-2.9-28.2A41.4 41.4 0 0 0 171 22.6c-.8-.5-1-.2-.9-1.2 1.3-.4 6.7 3.9 7.7 4.8a47 47 0 0 1 10.8 13.6c.4 1 3.4 7.4 3.2 8 .3-1.4-.6-5.7-1-7.3a42.6 42.6 0 0 0-30.3-29.1C151.7 9 150 10.2 143 10.2a58 58 0 0 0-22.3 8.4l-1.6 1.1c-.6.4-1 .5-1.5 1-.9.6-2.2 1.9-3.2 1.8-1.1-4 4.5-13.3 5.2-15.8-.8.3-.8.5-1.5 1.2-5 4.9-8.3 10.4-10.6 17.2-.5 1.5-1.7 7.6-2.4 8.2-.1 0 .3.5-.6 0-.2-.3-2.5-3.3-4.2-3.7-.3-.6-.1-.4-1.4-1-.6-.4-.8-.5-1.5-.7 1.2 2 2.2 3.2 2.9 6.1.3 1.3 1 6.4.3 7.4-.8-.2-.5.1-.7-.8l-.1-1v-.2c-3 2.6-5.5 11.4-4.6 13.6l-.8-.3c.1-1 .3-1.3-.2-2.1 1-9 5.2-11.9 5.5-13 .5-1.4-1-5.4-1.5-6.5-1.7-3.6-3.4-3.7-3.4-5 2.2-.8 8 3.8 9.8 5.7 1-2.7 1.6-6.1 2.7-9A42 42 0 0 1 118.7 6l2.9-2.4.5.1c.2.8-2.9 6-3.8 8a29.2 29.2 0 0 0-3 9.3c.5-.2 4.9-3.2 5.8-3.7l6.2-3.4c15.2-7 32.6-7 46.6 2.4a40 40 0 0 1 18.8 29.3c.4 4.4-.2 3 .7 8.3a25.8 25.8 0 0 1-2.7 16.4c-.9-.3-1-1-1.5-1.9a72.2 72.2 0 0 0-9.8-13.8" clip-rule="evenodd"/><path fill="#FDAB93" fill-rule="evenodd" d="M101.7 85.2c.6 1-.2.6.9.8.8-1.6-.8-3.9.1-5.2 1.5-1.4 4.5-5.2 4.9-5.4-.8 2.3-.9 7-.8 9.5.1 9 2.5 12 10.6 18.2a64 64 0 0 0 21.8 10c3.8 1 7.4 1.4 9 1.9l-.8.1c-1.5.1-8.9-1-10.2-1.2-1.8-.3-9-2.4-10-2 0 1 .9 1 2 1.2.9.2 1.9.3 2.4.8-1 2.2-3 3.5-5.9 2.9-2.7-.7-4.7-2-5.2-4.4v-.7c.5-.3.6-.2.8-.8-1.7-1.5-18.3-3.8-20.8-19.5l-.4-1.7-.1-.2c-.8.3-.1 0-.5.5l-.3.5v.1c-2.3-.8-3.6-1.5-5-3-.7-.8-2.1-3-2-4.7 2.6.1 4-1 4.4-3.7a12 12 0 0 0-.1-3.6c-.3-1.2-.9-1.8-1-2.8.7 0 2-.3 2.3.4l-1.1-.2c.7 2.6 3.4 1.7 4 11.2 0 1.4 0 1.4.5 1.7.5-.3.2.4.5-.7" clip-rule="evenodd"/><path fill="#52662C" fill-rule="evenodd" d="m137 157.7-.4 1.1a3.6 3.6 0 0 1-.3.6l-.3.4c-.3-.7.3-.8-1.7 1.2-.8.7-1 1-2 1.7-8.7 6.4-17 7.8-27.6 3.8-2.8-1-8.8-4.4-11-4.8-1.5 5.7-3.5 10.7-4.2 17l-.4 6 .8.6c-5-1.1-7-2.1-12.3-1.6.6-1.4 1.5-2.5 2.2-4.1 3-7 2-11.4 2.8-16.2.6 1.2.1 3.7 1.3 4.2.8-.9-.1-3.7-.3-4.9-.4-3.5-.7-12.4 2.2-15l.6-.5c1 2.4 1.6 4.5 3.1 6.5a32.7 32.7 0 0 0 18.7 12.1 26 26 0 0 0 17-.6c2.3-.8 4.5-1.8 6.4-3 3.6-2.4 3.2-2.8 5.3-4.5" clip-rule="evenodd"/><path fill="#953615" fill-rule="evenodd" d="M95.2 53c1.2.6 1.2 1 2 1.5.4 1.1 1 1.6.9 3.1-.6 6.4-9.3 6-10.4 14.5 2.3 0 1.9-1.6 4.4-1.2 1.3.2 1.3.5 2.2.9 1 .5.9 0 2.2 0 3.6 0 5.2 5 5.5 8 .4.9 0 .5.7 1-1 1.3.7 3.6-.1 5.2-1-.2-.3.2-1-.8a23 23 0 0 0-.8-6.8c-.5-2-1.3-4.8-3-5.2-.3-.7-1.6-.4-2.3-.4.1 1 .7 1.6 1 2.8.2 1 .2 2.4 0 3.6-.3 2.6-1.7 3.8-4.3 3.7-.1 1.6 1.3 4 2 4.7 1.4 1.5 2.7 2.2 5 3v-.1l.3-.5c.4-.5-.3-.2.5-.5v.2l.5 1.7c2.5 15.7 19 18 20.8 19.5-.2.6-.3.5-.8.8v.7c-.4-.6-.4-.2-.3-1.1l-.7-.2-4.2-1.5c-1-.5-3-1.5-3.9-1.7-.4-.5-.6-.7-1.4-.6-.2-.8-2.2-1.8-3.6-3-3.8-3.6-5.4-7-6.8-12.5-9.6-3.4-7.4-8.3-9-9.8-1.1-1.2-3.6-1.6-4.7-.4-.6 1.4 1.5 5.5 2 6.7 2 4.2 4.3 8.6 6.9 12.2.6.9 3.6 4.7 4.8 5 .3 1 2 2 3 2.5 2.8 1.6 2.3.4 3.3 2.4l-2.6-.9-3-2A53 53 0 0 1 86 86.2c-.8-2-2.7-6 1.4-6.1 3.4-.2 5.6 3.9 7.7.8 2.3-3.5-1-10.8-4.7-8.7-.8.5-.5.6-1.6.9-2.2.6-.3.6-1.7 1-1-1.3 0-4.5.7-6 1.6-2.8 5.5-5 7.7-7.1 1-1 2.5-3.9 1-5.2-.6-2.8-5.8-3-8.6-.2a15.4 15.4 0 0 0-2.8 3.7c-1.2 2-1.5 2.8-.6 4.6.6 3.9.5 9.3-3.8 9.8-2.5.4-4.4-.7-5.2-2.3-1.1-2.1-.2-3.8-.3-6.1 0-.8-.3-.9 0-1.5 1.8.3.6 3.2.7 5.3 0 2.1.9 3 2.8 3.6 4.5.6 5.6-2.7 5.1-7a7 7 0 0 0-1.8-4.1c-.9-1-3-1.9-4.3-1-1.6.5-1.4 1.5-4.8 3.2 0 .6 0 .8.4 1.4l-.1 1c-1.2-.3-1.3-1.7-1.4-3.4 0-3.3 1.2-5.3.6-9-.2-1.4-.5-2.6-1.7-3-.7-.8-4.9-1.8-6.6 4.5-1.7 6-.7 14 2.1 19.3.7 1.2 1.5 2.5 2.5 3.4.5.6.9 1 1.7 1.4 1 .5 1.8.4 2 1.2-.4.6-.8.2-1.3.5 1.4 4.3-.4 10 .4 17.6a46.9 46.9 0 0 0 12.7 26.6c2.6 2.4 9 7.2 13.6 7.9l-.8.6a27 27 0 0 1-9.3-4.5c-1-.8-.4-.6-1-.3v-.2l-.2-.1-1-1a45.7 45.7 0 0 1-15-38.1c1-10.5-1.1-8.7-3.6-12.3-1.1-1.6-2-3-2.9-5.2-2.6-6.7-3.2-25 6.5-22.5 4.7 1.2 2.5 9.9 2.3 13 2 0 1.7-1.9 4.8-3 3-1.1 5 1.2 5.6 1.6a15 15 0 0 1 4-6.3 8.2 8.2 0 0 1 4.9-2.2l1.8-.1h.2l.1-1.9c.5.8.3 1.2.2 2zm116.6 54.4c1-.8 1.3-3 1-4.5-1.3-4.9-6.7-7.3-10.7-5.2V99a22 22 0 0 1-1.2 5.5c3.2.5 4 2.5 5.4 4 2.1 2.4 4.3.8 5.5-1.1m-32.4-52.8c-.2.3 1.3 6.3 1.5 7.5a49.5 49.5 0 0 1-4 26.8c2.7-.5 3.9.4 5.5 1.7.9-1.1 1.2-3.3 1.9-4.8 1.9-4 5.9-8 10.8-7.2 3.2.5 6 3.9 4.1 7.4-1.8 3.4-4.9 3.6-6.4 5.8 5.2-.7 7-.4 9.1 4.7 1.8 0 2.6-.7 5-.3a7.8 7.8 0 0 1 4 1.9c1.5 1.4 3.7 4.4 2.7 7.9-.7 2.5-3.6 5.6-6.5 4.3-2.5-1-2.5-4.4-6.6-4.9-1.1 1.3-1.4 2-2.8 2.8-1.7.9-1.2 1.5-2.4 3-1.9 2.2-4 2.6-7.7 2-1.7 1.5-4 7.1-5.5 9.5a30 30 0 0 1-27.6 13.4l.1-.7.4-.9c-.1.9-.2.6.9.7h1.6a28 28 0 0 0 23.8-13l5.1-9.3a19 19 0 0 1-3.3-1.6c.4-.6 0-.3.6-.6 2.2.9 4.3 2.1 7 2 2-.2 4-1.8 4.7-3.7-1.6 0-2.2-.3-3.4-1-1.3-1.3-2-2.8-1.2-5.3.3-1 .9-1.8 1-2.8.4-1.6-.3-1.7-.2-3 1 .1.9.1 1.1.9 1 2.8-3.1 7.6-.3 9 .3.6.3.7 1.1 1l1.5.2c2.5.1 4.5-2.4 5.3-4.7 1.5-4.2 1.1-8.5-2.1-10.2a6 6 0 0 0-4.8-.4c-3.4 1-1.7 1.7-3.2 2.8l-.5-.3c.5-3 3.2-5 5-6.2 1.4-.9 5.5-3.4 3.8-6.5-.4-2.3-3.4-3.6-6.2-2.8-5.3 1.4-7.1 5.9-8.7 10.8-.2.6-1.4 7-2.3 8-2.5-1 3.4-5.4-.8-8.2-3.3-2.1-5.1 1-6.3 3.5.5 1.4 1.2 2 1.8 4 1.2 4.4-1.2 10.1-4.2 13-4.3 4-10.1 5-16 5.5h-2v.5c-.5-.5-.3-.6-1.1-.4l-8.1-.5-6.2-.8c-1.9-.4-4-.9-5.8-1.1h-1c-.5-.6-1.5-.7-2.4-1-1-.2-2 0-2-1 1-.5 8.2 1.6 10 1.9 1.3.2 8.7 1.3 10.2 1.2l.9-.1c2.7 1 11.4.3 15.1-.8l3.2-1.2.4-.2c.7-.4.3-.2.6-.5 1 0 2.4-1.4 3.2-2 1-.8 1.8-2 2.5-3.2 1.2-1.9 3-6.5 1.7-8.8-.2-2-1.3-3-2-4.4l1.1-2a32 32 0 0 0 4.7-12 43 43 0 0 0 .5-20.9c-.4-2.2-1.1-4-1.5-6.2l1.5 1.3V54.4l.1.2" clip-rule="evenodd"/><path fill="#fff" fill-rule="evenodd" d="m66.7 208.6 3-2.5c3-1.7 8.6-.8 10.1-1.6 4.7 1.3 11.9 5 8.7 10.3-1 1.6-1.3 2-2.7 2.3a90.4 90.4 0 0 1-19-8.5" clip-rule="evenodd"/><path fill="#F18172" fill-rule="evenodd" d="M163.2 101.9c.8-2.2-2.2-4.1-3.2-3.3-.8.6.8 3.7 3.2 3.3m-6.7-5.2c0 1.2 1 1.7 1.6 1 .5-.8-.8-1.1-1.6-1m7.3 3.3c.6 3.5 1.4 3.6-2.9 7.2l-1.6 1c-.8.4-.1.2-.7.3a43 43 0 0 1-13.5-2.8c-3.5-1.5-6.9-4.1-7.4-7.6l6.8-1.5c1.7 1.1 3 2.3 4.3 3.5 2.4 2.2 2.6 3.6 3.9 3.5 0-2-6.8-7.3-8.2-8.3 2-.8 8.2-.8 11-.2 1.9.5 3.5 1 4.9 1.9 2.2 1.3 2.4 2.3 3.4 3" clip-rule="evenodd"/><path fill="#790202" fill-rule="evenodd" d="M110 107.3c.8-.1 1 .1 1.4.6l-5.3.6c2 4.6 2.3 9 .2 14.5-1.2 3.3-2.8 6-5.2 8.3-.8.9-1.6 1.4-2.2 2.2l2.5.2c0 1.5-1 .5-5.2 1.2-1.3.2-1.3.4-2 1.3l-1.6 2c-4.2 4.8-6.1 4.1-5.5 7.8.7 3.7 2.7 6.5 4.5 8.8 2 2.6 4.4 4.4 7.8 6.4 12.5 6.8 23 5.8 32.6-.4a20 20 0 0 0 8.3-13.7c.8-4.9-.4-12 2-17 1-2 .8-1.4 1.4-1.4.5 1.1-1 1.7-1.2 4-.8 1.2-.8 5-1 6.7 1.6.3 3 0 4.8.5 1.6.4 2.5 1.2 3.8 1.6 1.9-2.7 3.4-4.7 4.4-8.8 1.1-7 .3-11-1.8-16.3.8-.2.6 0 1 .4a25.5 25.5 0 0 1 1.3 17.7l-.4.9-.1.7c-2.2 4-1.3 2.8-4 6.6-2.6-.5-1.8-2.2-8.9-2.2-.3 2.5 0 4.7-.4 7.4-.4 2.4-1.2 4.3-2 6.5l-.6.7-.5.9-1.2 1.7c-2.1 1.7-1.7 2.1-5.3 4.5a28.8 28.8 0 0 1-6.5 3 26 26 0 0 1-16.9.6c-8.4-2.4-14-5.8-18.7-12-1.5-2-2.2-4.2-3.1-6.6l-.4-1.7c-.2-4.5 5.2-5.7 7.5-10-2.4-.3-3.9-.5-5.1-2-.9-1-2-3-1.6-4.6.5-.3-.2-.5.9.3a27 27 0 0 0 9.3 4.5l.8-.6c4.4-3.5 8.8-10 9-16.5.2-3.6-.9-5.4-.9-6.2-1-2-.5-.8-3.3-2.4-1-.6-2.7-1.5-3-2.5 2.3-.8 3.7-.5 5.2 1 1 1 .8 1 2.6.9.9 0 1.7-.3 2.6-.1" clip-rule="evenodd"/><path fill="#FDAB93" fill-rule="evenodd" d="M155 134.5c2-5.5 1-13.3-1.2-17.7v-.5h2a.8.8 0 0 0 0 .2l-.2.1c0 .1-.3-.1.1 1 1.8 5 1.2 6.9 1.5 11.6 8.8.7 16.3-5.3 21.4-11.1 1-1.2 4.7-5.3 4.5-6.8a19 19 0 0 0 3.3 1.6l-5.1 9.2a28 28 0 0 1-23.8 13l-1.6.1c-1.1 0-1 .2-1-.7" clip-rule="evenodd"/><path fill="#2C3617" fill-rule="evenodd" d="m86.4 147.2-.6.5c-3 2.6-2.6 11.5-2.2 15 .2 1.2 1 4 .3 4.9-1.2-.5-.7-3-1.3-4.2-.8 4.8.1 9.2-2.8 16.2-.7 1.6-1.6 2.7-2.2 4.1 5.3-.5 7.4.5 12.3 1.6 4.4.9 8.5 3.1 11.2 6.3 1.2-3.9 1.1-6.3 2.9-11.3l1.3-3.3c-1.3-.2-5.7-1-5.8-2.4 1.3-.7 5 3 10 .8 1.2-.5 1.9-1.6 2.8-1.3 0 1-1.4 1.6-2.2 2l-.2.1-.2.1-2.9.9c.1 2.3.6 4.8.8 7.2l.6 7.1 4.7-2.4c1.8-.3 5.5-1.9 7.9-2.5a46.7 46.7 0 0 1 9-1.1c-1.1-7.4 0-10.2 1.5-17.6-1 .4-7.4 5.5-9.4 4.5-.2-1 .5-.8 1.6-1.2a22.8 22.8 0 0 0 12.5-11.4c.2-.3 0 .3.3-.4l.3-.6.3-1.1 1.2-1.7.5-1 .6-.6c-2.5 9-5.7 9.1-7 14.1-.6 2-1 4-1.4 6-.5 2.9-.8 6.2-.3 9.1.1.8.5 1.8.5 2.5-.2 2.8-5.3 4.6-7.8 5.2l.2-1c2.2-.6 5.4-1.6 6.5-3.8-1.7-.2-4.2.2-5.8.5l-1 .1-3.2.8a86 86 0 0 0-3.2.9c-2.3.7-4 1.7-6 2.3-1.5 1.2-1.2 1.4-1.1 3.6-.4.4 0 .3-.8.3-2.2-.7-1.8-1.2-1.7-3.4a65 65 0 0 0-1.3-13.2c-1 2-1.7 4.6-2.3 7-2.4 9 .4 8.6-8.5 7.8v-.8c1.8-.2 3.4.7 5.3.1-.3-1.7-2.7-2.9-4.3-3.9l-.9-.4a65 65 0 0 0-10.4-3.3l-.9-.1c-5.4-.5-5.5 0-6.5 0 1 1.2 3.9 2.8 5.9 3.2l-.2 1c-2.7-.7-6.5-2.6-7.2-4.7.3-.8 1.8-2.5 2.5-3.7 3.8-7.2 2.6-15.2 3.7-21 .6-3.4.1-7.1 1.8-10.5 1.3-2.8 2.2-2.2 2.2-3.6z" clip-rule="evenodd"/><path fill="#fff" fill-rule="evenodd" d="M149.2 211.2c-.2 1.6-1 2.8-2.2 3.6a91 91 0 0 1-5.7 2.1l-2 .2c-4.3.4-11-1.4-15.3-2.4l-.1-.7c.3-1.6 3.5-3.6 4.5-4.4 2.8-2 5.1-2.3 5.6-2.9 1.5.1 2.2-.3 4.3.2 1.4.2 2.8.6 4 1 2.5.8 5.6 1.9 7 3.3" clip-rule="evenodd"/><path fill="#848485" fill-rule="evenodd" d="M92.1 218.9c2.1-1.5 5.3-4.3 4-6.6-2.5 2.6-1.9 2.7-6.7 4.7l-1.8.7a91 91 0 0 1-1.8-.6c1.4-.3 1.7-.7 2.7-2.3 3.2-5.2-4-9-8.7-10.3a28 28 0 0 0-13.2 0c-1.5.4-2.5.9-3.4 1.9l-.7-.5c.6-1 1.4-1.8 2.4-2 .2.1.8-.2 1.5-.4 5.7-1.6 9.7-.4 15 .3l4 2c2 1.2 4.7 3.4 4.9 6 .1 2.3-.9 2.8-1.4 4.3a9.8 9.8 0 0 0 6.8-5.4h.8l.1-1 .3-.6c-.8 3.5 2 4.3-1.3 8-.6.7-1.4 1.4-2.3 2a84 84 0 0 1-1.2-.2" clip-rule="evenodd"/><path fill="#fff" fill-rule="evenodd" d="M87.6 217.7a29 29 0 0 0 1.8-.7c4.8-2 4.2-2.1 6.7-4.7 1.3 2.3-1.9 5-4 6.6a91 91 0 0 1-4.5-1.2" clip-rule="evenodd"/><path fill="#D7D7E1" fill-rule="evenodd" d="M109 208.2c0 2.8.8 4.1 2.3 5.4 3.5 3.4 8.3 5.7 13.4 7a92 92 0 0 1-7.2.6 24 24 0 0 1-3.1-1.8c-3.8-2.5-6.7-5-6-9.8 0-.6.1-1.6.7-1.4" clip-rule="evenodd"/><path fill="#848485" fill-rule="evenodd" d="M109 208.2c-.5-.2-.5.8-.6 1.4-.7 4.7 2.2 7.3 6 9.8 1 .7 2 1.3 3.1 1.8l-1.8.1c-2-1.1-3.8-2.4-5.2-3.8-4.5-4.4-3-6-2.6-10.3.3.3.9.6 1.2 1l.9.3c0 3.6 2.5 5.3 5.2 7 2 1.3 6.9 3.7 9.2 4-1-1.5-2.3-2.8-1.7-5.3.8-2.3 2.4-3.3 3.8-4.4l2.4-1.7c.9-.5 1.7-.8 2.4-1.4h2.7c.5-.9.1-.3 0-.6-1.7-.2-3.9-.1-5-1.1 2.6.6 3.8 1 6.4.7 2-.2 4.4.5 6.4 1 3.5 1 7.6 2.7 9.5 5l.7 1-.9.4a6.3 6.3 0 0 0-1.9-1.9 18.1 18.1 0 0 0-6.8-3.3 44 44 0 0 0-4.1-1c-2-.5-2.8 0-4.3-.2-.5.6-2.8.9-5.6 3-1 .7-4.2 2.7-4.5 4.3l-.3.5c-.5 1.5.4 2.8 1.2 3.8 1 1.2 1.4 1.6 2.6 2l-2.7.3a29.8 29.8 0 0 1-13.4-7c-1.5-1.3-2.2-2.6-2.2-5.4" clip-rule="evenodd"/><path fill="#D7D7E1" fill-rule="evenodd" d="m123.9 214 .1.7c4.3 1 11 2.8 15.2 2.4a29 29 0 0 0 2-.2 90 90 0 0 1-13.8 3.3c-1.2-.3-1.6-.7-2.6-2-.8-1-1.7-2.2-1.2-3.7l.3-.5m23 .8c1.2-.8 2-2 2.3-3.6.6.4 1.4 1 2 1.9a91 91 0 0 1-4.2 1.7" clip-rule="evenodd"/><path fill="#663201" fill-rule="evenodd" d="M111.3 204.5c.8 0 2 .3 2.6 0h1c1 .2 1.7.6 2.6 0 1 .1 1.9 0 2.6-.4 1 .3 2.1-.6 3.5-.5 1.7.3 2.6.5 3.9 1l1.5.4c1.1 1 3.3.9 5 1.1.1.3.6-.3 0 .6h-2.7c-3.6-.2-5.5-2.7-9.1-1.8-1.4.4-2.8.7-4.4.8h-4.5c-.6 1 0 2.3.7 3.4 1.9 2.5 5.6 4.2 8.7 5.1-.6 2.5.7 3.8 1.7 5.2-2.3-.2-7.1-2.6-9.2-3.9-2.7-1.7-5.1-3.4-5.2-7l.2.1.2.2h.2c1 .5.7.2 1 .1 0-.8-.2-.7-1.2-1.2-3.5-1.8-6.4-5.3-2-7.3.9-.4.8 0 1.2-.8.3.7.3 1.8.4 2.8.2 1.8 0 1.4 1.3 2.1" clip-rule="evenodd"/><path fill="#ED5B4B" fill-rule="evenodd" d="m144.5 96.6-6.8 1.5c.5 3.5 4 6.1 7.4 7.6a43 43 0 0 0 13.5 2.8l-.8.4-.8.3-1.9.4c-4.2.8-9.5-.2-13.3-1.7-5-2-10-5.1-10.5-9.6v-.8c2.8 0 4.8-.2 7.3-.8 2.6-.6 3.7-1.9 5.9 0" clip-rule="evenodd"/><path fill="#824101" fill-rule="evenodd" d="M131.3 206.7c-.7.6-1.5 1-2.4 1.4l-2.4 1.7c-1.4 1-3 2.1-3.8 4.4-3.1-1-6.8-2.6-8.7-5-.8-1.2-1.3-2.4-.7-3.5h4.5c1.6-.1 3-.4 4.4-.8 3.6-.9 5.5 1.6 9.1 1.8m-35.6 4a9.8 9.8 0 0 1-6.8 5.4c.5-1.5 1.5-2 1.4-4.3-.2-2.6-2.9-4.8-5-6-.7-.5-3.7-1.8-4-2 1 0 .8-.2 1.4-.8 2.2.2 5.2 1.8 7.1 2.6 1 .5 2.3 1.2 3.5 1.3 1.3.1 2-.6 1.8-1.6-.1-1 .1-.2-.3-.6-.7.2-.2 0-.6.6-.2.4.2 0-.3.6-.9 0-1.3 0-2-.5.7-1 1.5-1.2 1.7-3.2.5.3 8.8 2 3.4 5.8l-2.3 1.6c.3.7-.2.7 1 .4z" clip-rule="evenodd"/><path fill="#FDCFBF" fill-rule="evenodd" d="M120.6 195.8c-1.1 1.2-2.6 1.2-4 3a8.4 8.4 0 0 0-1.8 5.7h-.9l-1.2-.3.7-13c1-.2 4.6-1.5 7-2 2.8-.7 1.8-.5 2.2-.1 0 2.3-1.4 4.6-2 6.7" clip-rule="evenodd"/><path fill="#B80000" fill-rule="evenodd" d="M142.5 132.7v.5l.1.3c2-.2 3.3-.6 5.7-.5 1 0 4.5.6 5.3.4.5 0 .6-.3 1-.7-1.1 4.1-2.6 6-4.5 8.8-1.3-.4-2.2-1.2-3.8-1.6-1.8-.4-3.2-.2-4.7-.5 0-1.7.1-5.5.9-6.7" clip-rule="evenodd"/><path fill="#953615" fill-rule="evenodd" d="M164.3 99.3c-.4.3-.3.2-.5.7-1-.7-1.2-1.7-3.4-3-1.4-.8-3-1.4-4.9-1.9a28 28 0 0 0-11 .2c1.3 1 8.3 6.3 8.2 8.3-1.3 0-1.5-1.3-4-3.5a34 34 0 0 0-4.2-3.5c-2.2-1.8-3.3-.5-6 .1-2.4.6-4.4.9-7.1.8l-.1.8-.6-1-.3.9a40 40 0 0 0-.4-.6c-.4-.4-.1-.2-.8-.4l-2.1-.5c-4.7-1.7-7-4.1-7.4-9-1.5-.1-3 .4-4.1.7 0 0-4.9 2-3.4.4.6-.8 5.5-2 6.4-2 3-.4 6.5 1 6.3 3.5-1.5-.1-1-2-4.2-2.6 0 4.4 3 7 7.2 8.2 9 2.7 14-3.4 25.5-2 3.7.4 9.4 2.3 10.9 5.4" clip-rule="evenodd"/><path fill="#FDCFBF" fill-rule="evenodd" d="m94.2 191.4-1.7 8c-1-.3-1.7-1.3-2.7-1.9-1-.7-2.1-1-3.2-1.5-.1-2.5.2-7 1.4-9.1 2.3-.2 5.3 1.8 6.6 3z" clip-rule="evenodd"/><path fill="#DE4402" fill-rule="evenodd" d="M100.3 29.6s4.5 8.6 1.9 12.2c-2 2.7-4.6 8.8-5 12.7-.7-.5-.8-.9-2-1.5-1-2.2 1.6-11 4.5-13.6v.2l.2 1c.2 1-.1.6.7.8.8-1 0-6-.3-7.4-.7-2.9-1.7-4.1-2.9-6.1l1.5.6c1.3.7 1 .5 1.4 1" clip-rule="evenodd"/><path fill="#FC9B5B" fill-rule="evenodd" d="M190.9 40.5c-.8-.3-1-1.3-1.7-2.8a46.8 46.8 0 0 0-28.8-25.2c-9.3-3-10.9-1.6-17.4-2.3 6.9 0 8.7-1.2 17.5 1.2 14.1 3.8 27 15 30.4 29.1" clip-rule="evenodd"/><path fill="#DE4402" fill-rule="evenodd" d="M96.5 71.8c-1.3 0-1.2.5-2.2 0-.8-.4-1-.7-2.2-1-2.5-.3-2.1 1.4-4.4 1.3 1.1-8.6 9.8-8 10.4-14.5 1.6 3.1 1.6 7.4-1.9 8.8-.1 1.4 0 4.3.3 5.4" clip-rule="evenodd"/><path fill="#351402" fill-rule="evenodd" d="M113.8 77.3c.7-.3.7-.1 1.4-.5 3-.2 4.3-.3 7.7.3 2.5.4 13.1 4.3 13.3 6-.9.5-5-1.4-6.4-1.8-4.5-1.3-9.9-1.9-14.4-.3-1.5.5-1.3.8-2.6-.3-.7-.6-1.7-1.2-2-2.1.7-.7 2-1 3-1.3" clip-rule="evenodd"/><path fill="#FDCFBF" fill-rule="evenodd" d="M211.8 107.4c-1.2-.1-2.5-2-4.2-3.4-1.5-1.1-3.7-2.4-5.6-1.9.1-1.1.4-2 0-3.1v-1.3c4-2 9.5.3 10.8 5.2.3 1.5 0 3.7-1 4.5m-133-34.8c-1.2-2-.4-3.9-.2-6.3.3-2.3-.6-3.8-1-5.7 1.3-1 3.5-.1 4.4.9a7 7 0 0 1 1.8 4c.5 4.4-.6 7.7-5 7.1" clip-rule="evenodd"/><path fill="#52662C" fill-rule="evenodd" d="m112.9 189-4.7 2.5-.6-7.1c-.2-2.4-.7-4.9-.8-7.2l3-.9h.1l.2-.1c0 1.2 1.2 4.2 1.6 6 .4 2.1.7 4.5.5 7z" clip-rule="evenodd"/><path fill="#FDAB93" fill-rule="evenodd" d="M154.5 87.4c-1.2 2-3 3-5.9 2.5-2.3-.4-5-2-5.8-3.4.3-4 8.2-3.2 11.5-2v-1.3c.3.4 0-.4.2.5l-.2 1.8c-.3.8-.4 1-1 1.4-1.5 1.6-2.2.8-2.3 2h1c.9-.1 1.7-1.1 2.5-1.5" clip-rule="evenodd"/><path fill="#fff" fill-rule="evenodd" d="M90.4 204.8c-1-.3-2.3-1-3.4-1.5l-3.7-1.3c-.3-1 0-2.2-.2-3.3-.2-1-.7-1.7-.4-2.6a15 15 0 0 1 7.7 3c.8.6 2.1 1.5 2.2 2.8 0 1.6-1 2.9-2.2 2.9" clip-rule="evenodd"/><path fill="#FBE5DA" fill-rule="evenodd" d="M178.8 80c0 2.7-3.2 10.1-4.7 11.9-1.3.2-.3 0-.6-.3 1-3.1 2.6-6 3.5-9.1 1.6-5.6 1.8-15.1.8-20.7a99 99 0 0 0-.8-4.4c-.3-1.2-1.4-3.5-.6-4.5 1.4 1 3.2 9.3 3.5 11.8.7 5.6-1.2 13.7-1 15.3" clip-rule="evenodd"/><path fill="#fff" fill-rule="evenodd" d="M123.6 203.6c-1.4-.1-2.5.8-3.5.5h-1c.9-2.7 2.5-5 4.6-6.6 1-.7 1.2-.8 2.6-.8 1.6.2 4.6 3.2 1.5 5.4-1 .7-.9.7-1.6 1.6-1.1 0-1.6-.4-2.6 0" clip-rule="evenodd"/><path fill="#D7D7E1" fill-rule="evenodd" d="M79.8 204.5c-1.5.8-7-.1-10 1.6-.8.5-2 1.4-3 2.5a90 90 0 0 1-3.6-2.2c.9-1 2-1.5 3.4-2 3.6-1 9.3-1 13.2 0" clip-rule="evenodd"/><path fill="#FDAB93" fill-rule="evenodd" d="M122.6 189c-.4-.3.6-.5-2.2.1-2.4.6-6 2-7 2.1l-.7 13 1.2.3c-.6.3-1.8 0-2.6 0a50 50 0 0 1-.6-13.4c2-.6 3.7-1.6 6-2.3a88 88 0 0 1 3.2-1c1-.2 2.4-.4 3.2-.7 0 .8-.1 1.5-.5 2m.3-112c-3.4-.6-4.6-.5-7.7-.3-1.3 0-.6-5 .3-6.7 1-2.1 2.8-3.1 5.1-3.4a9 9 0 0 0-1 5c0 1.4.2 3.6.7 4.7.8.3 2 .3 2.6.7" clip-rule="evenodd"/><path fill="#6F140C" fill-rule="evenodd" d="M150.8 110.8c-5.4-.5-9.2-1.6-13.6-4-2.7-1.5-7.3-5.4-6.8-8.6l.3-.9.6 1c.4 4.5 5.6 7.6 10.5 9.6 3.8 1.5 9.1 2.5 13.3 1.7.7 0 1.3-.2 1.9-.4l.8-.3.8-.4c.6 0-.1.1.7-.3l1.6-1c4.3-3.6 3.5-3.7 2.9-7.2.2-.5 0-.4.5-.7 2.8 3.3-1 7.7-3.1 9-3.5 2.1-5.2 2.5-10.4 2.5" clip-rule="evenodd"/><path fill="#4C2403" fill-rule="evenodd" d="m83.3 202 3.7 1.3c1 .5 2.3 1.2 3.4 1.5.5.4.8.5 1.5.6.7.6 1.1.5 2 .5.5-.5 0-.2.3-.6.4-.7 0-.4.6-.6.4.4.2-.4.3.6.2 1-.5 1.7-1.8 1.6-1.2 0-2.4-.8-3.5-1.3-1.9-.8-5-2.4-7-2.6-.7.6-.5.8-1.5.8-5.2-.7-9.2-2-15-.3-.6.2-1.2.5-1.4.3.8-.8 4.4-2 6.1-2.4 2.4-.6 5.3-1 7.9-.3h1z" clip-rule="evenodd"/><path fill="#FDAB93" fill-rule="evenodd" d="M211.8 107.4c-1.2 1.9-3.4 3.5-5.5 1-1.3-1.4-2.2-3.4-5.4-3.9A22 22 0 0 0 202 99c.4 1 .1 2 0 3.1 1.9-.5 4.1.8 5.6 2 1.7 1.2 3 3.2 4.2 3.3M95.1 188.2c0 1-.3 2.6-.9 3.2l.4-1.5c-1.3-1.2-4.3-3.2-6.6-3a22.2 22.2 0 0 0-1.4 9l-2.3-.6c.1-4-.4-6 .4-10.4 3.9 1 7 1.8 10.4 3.3m88.6-77.5.6-2c1.8.3 6.5 1.1 7.7-.7 1.2.7 1.8 1 3.4 1a5.7 5.7 0 0 1-4.6 3.6c-2.8.2-4.9-1-7.1-1.9" clip-rule="evenodd"/><path fill="#D7D7E1" fill-rule="evenodd" d="M120.1 204c-.7.6-1.7.6-2.6.5h-1.8c.4-5 2.6-7 6.6-8a8.3 8.3 0 0 1 1.8-.3c.7 0 1.6 0 2.2.5-1.4 0-1.6.1-2.6.8a13.1 13.1 0 0 0-4.6 6.6z" clip-rule="evenodd"/><path fill="#FDAB93" fill-rule="evenodd" d="M192.4 106.9c3 .4 5-2 6-4.7 1.4-3.8.8-6.2-.2-9.1 3.2 1.7 3.6 6 2.1 10.2-.8 2.3-2.8 4.8-5.3 4.7a4.6 4.6 0 0 1-1.5-.2c-.8-.3-.8-.4-1-1m-62-8.6c-.6 3.2 4 7 6.7 8.6 4.4 2.4 8.2 3.5 13.6 4-1.1.5-3.2 0-4.3-.3-1.6-.5-2.9-.6-4.5-.9a22 22 0 0 1-7-2.7c-3.5-2-8-7-8-10.2l2.2.5c.7.2.4 0 .8.4l.4.6" clip-rule="evenodd"/><path fill="#351402" fill-rule="evenodd" d="m171.2 88.8.5.5c.6.5.1 0 .7.4.2.6.5.8.7 1.7-.4.6-1.1 1.3-2 1.6-1.7-1.4-2-2.4-4.8-3.8-1-.5-2.1-.8-3.3-1-1.2-.3-3.3-.2-4-1 .8-1.3 8.8-1 12.2 1.6" clip-rule="evenodd"/><path fill="#953615" fill-rule="evenodd" d="M120.6 66.7c-2.3.3-4 1.3-5.1 3.3-1 1.8-1.6 6.9-.3 6.8-.7.4-.7.2-1.4.5-.2-4-.7-6.1 1.9-9.1 3.5-4.3 12.4-2.8 16.5 1.3.8.7 4.5 5.6 3.4 7-.9-.3-.7-1-1-1.8a12.7 12.7 0 0 0-14-8" clip-rule="evenodd"/><path fill="#FDAB93" fill-rule="evenodd" d="M78.8 72.6c-2-.6-3-1.5-3-3.6s1.2-5-.5-5.3c-.4.6-.2.7-.1 1.5-.6-.4-.8-.6-1.6-.8-.3.3-.3 0-.3.7-.4-.6-.4-.8-.4-1.4 3.4-1.7 3.2-2.7 4.8-3.1.3 2 1.2 3.4 1 5.7-.3 2.4-1.1 4.3 0 6.3m111.5 22.9c-1 .9-1.6 1.7-3 1-.4-6 10.3-9.4 11.3-14 1.7 3-2.4 5.6-3.9 6.5-1.7 1.1-4.4 3.2-5 6.2z" clip-rule="evenodd"/><path fill="#FBE5DA" fill-rule="evenodd" d="M167.6 112.3h-1.4c.2-.9 1.8-2.3 2.5-3 3-2.7 6-6.8 5.5-11 .6-.3-.5-.7.8 0 1.3 2.3-.5 7-1.7 8.8-.7 1.2-1.5 2.4-2.5 3.2-.8.6-2.2 2-3.2 2" clip-rule="evenodd"/><path fill="#FDAB93" fill-rule="evenodd" d="M96.5 55.7c-4.6-1.8-11.6 4-12 8-.9-1.7-.6-2.5.6-4.5a15.4 15.4 0 0 1 2.8-3.8c2.8-2.6 8-2.5 8.6.3" clip-rule="evenodd"/><path fill="#848485" fill-rule="evenodd" d="m127.5 204.5-3.9-.9c1-.3 1.5.1 2.6.1.7-.9.7-.9 1.6-1.6 3-2.2.1-5.2-1.5-5.4-.6-.5-1.5-.6-2.2-.5a8.3 8.3 0 0 0-1.8.3c-4 1-6.2 3-6.6 8h1.8c-1 .6-1.6.2-2.7 0-.1-2.1.5-4.3 1.7-5.7 1.5-1.8 3-1.8 4-3 .1 0-.2.5.7 0 .4-.2.3-.2.6-.6.4.5-.6.4 1 .2 1 0 1.4-.5 3.3 0 1.4.4 2.5 1.3 3.2 2.2.7 1 1.2 2.6.3 4.1-1 1.6-2.7 1.4-2.1 2.8" clip-rule="evenodd"/><path fill="#953615" fill-rule="evenodd" d="m172.4 89.7-.7-.4-.5-.5c1.3.4 6.3-5.5-2-10.9-4.3-2.8-8.3-.4-10.1 3.7-.5 1-.3 1-1.2 1-.6-1.5 4.3-10 11.6-5.6 2 1.2 4.2 3.4 5 5.3 1.2 3.3-.5 5.5-2.1 7.4" clip-rule="evenodd"/><path fill="#B80000" fill-rule="evenodd" d="M144.6 116c-.7.5-2 .6-3.3.7-3.6.5-7.5.8-11.2.6.8-.9 1.9-1.7 2.5-3.3 1.8.2 3.9.7 5.8 1l6.2 1" clip-rule="evenodd"/><path fill="#848485" fill-rule="evenodd" d="M86.6 196c1.1.6 2.1.8 3.2 1.5 1 .6 1.7 1.6 2.7 1.8.3.8.2.8.8.9.1 1.8.7.7 2 1.6l-1.5-.3c-.3.4-.1-.5-.2.7-.2 2-1 2.2-1.7 3.2-.7-.1-1-.2-1.5-.6 1.2 0 2.3-1.3 2.2-2.9 0-1.3-1.4-2.2-2.2-2.8a15 15 0 0 0-7.7-3c-1.8 0-3.2 0-4.1.9-.3 2 1.5 1.1 1.2 4.1h-1c.3-2.3-2.6-3-.7-5 1-1 3.4-1 5.2-1l1 .2z" clip-rule="evenodd"/><path fill="#4C2403" fill-rule="evenodd" d="M127.6 49.9c.2-5.5-5.2-1.6-6 .5 1-.4 1.4-.8 2.6-1 1.5-.2 2.2.1 3.4.5m1 1.3c-1.8.4-3.8-4-9.3 2.9-.6.7-.4.7-1.4.7 0-2 4-6.5 5.1-7.3 5.6-4.3 6 2.7 5.5 3.7m45.7 8.2c0-1.1-.5-2.2-1.1-3-.7-.8-1.6-1.5-2.6-.4l.1.1.1.1.3.2c3.2 1.8 1.9 2 3.2 3m1.8 6.3c-1.4-.4-1.3-4.7-4-7.6-1.1-1.2-1.6-.8-3.2-.8.3-2.3 3.6-4.9 5.8 0 .6 1.4 2.3 7 1.4 8.4" clip-rule="evenodd"/><path fill="#953615" fill-rule="evenodd" d="M219.2 97.1c.8.3.7.3.6 1.4l-.9 5.5c-.5 2.1-1.3 4.2-2.3 6-1.3 2.4-5.7 7.7-7.5 7.5-.2-1 .8-1.3 1.6-2a21 21 0 0 0 7.3-11.9c.3-1.1.7-6 1.2-6.5m-64.7-9.7c-.8.4-1.6 1.4-2.5 1.6l-1-.2c0-1 .8-.3 2.4-1.8.4-.6.6-.7 1-1.5l.1-1.8c-.1-.9 0-.1-.2-.5v-1c-.3-.8-.3-.6-.7-1-.2-.6.2-.2-.5-.6-1.2-2.2-5.4-1.8-7.7 1-.5.5-1 1.9-2 2-.6-1.6 3.5-6.2 8-5.2 1.9.4 3.2 2 3.7 3.3 1.1 3-.5 4.7-.6 5.7M73.1 40.5c-.5 1.9-8 1-12.7 9-.5 1-1.9 4.8-2.6 5-1.3-1.6 3.4-8 5.4-9.9 2-1.8 9.1-5 9.9-4" clip-rule="evenodd"/><path fill="#D7D7E1" fill-rule="evenodd" d="m83.3 202-3.5-.9c.3-3-1.5-2.2-1.2-4.1 1-1 2.3-1 4-.9-.2 1 .3 1.5.5 2.6.1 1.1 0 2.3.2 3.3" clip-rule="evenodd"/><path fill="#953615" fill-rule="evenodd" d="m224 106.2-.2 1.5-.3.5a8 8 0 0 0-.2.6 21.8 21.8 0 0 1-6.1 9.2c-1.2 1.1-2.1 2.2-3.2 1.9.2-1 3.2-2.9 5.6-6.2.9-1.2 1.7-2.6 2.3-4 1.3-3.1.8-4.1 2.1-3.5" clip-rule="evenodd"/><path fill="#790202" fill-rule="evenodd" d="M120.5 112.4c.5 2.4 2.5 3.7 5.2 4.4 2.9.6 5-.7 5.9-2.9l1 .1c-.6 1.6-1.7 2.4-2.5 3.3-1.2.1-1.8.7-3.7.6-1.5-.2-2.7-1-4-1.2v-.2l-.2-.1-.3-.3c-1.4-1.2-2.6-2.2-2.4-5l.7.2c-.1 1-.1.5.3 1.1" clip-rule="evenodd"/><path fill="#FDCFBF" fill-rule="evenodd" d="M101.7 85.2c-.3 1 0 .4-.5.7-.5-.3-.5-.3-.5-1.7-.6-9.5-3.3-8.6-4-11.2l1 .2c1.8.4 2.6 3.2 3.1 5.2.4 1.6 1.1 5.3.9 6.8" clip-rule="evenodd"/><path fill="#953615" fill-rule="evenodd" d="M191.8 75c.5-.8-.2-.4 1-.6C198 73 204 79 204.3 81c.3 2-2-1.2-2-1.3-5.5-6.5-9.3-3.5-10.6-4.8M54.3 48l.2-1.6c1.1-1.7 1.7-6.3 8.1-8.4.8-.3 1.3-.5 1.9 0-.5 1.1-.9.4-3.3 1.6-1 .5-2.1 1.4-2.9 2.1-3.8 3.8-2 7.2-4 6.2" clip-rule="evenodd"/><path fill="#FBE5DA" fill-rule="evenodd" d="M130 69.4c.8.4 1.8 2 2.6 2.9 2 2.5.2 5.3-2.8 0l-1-1.6c-.2-1 .1-1.8 1.3-1.3" clip-rule="evenodd"/><path fill="#3C4B21" fill-rule="evenodd" d="m83 189 .2-1c-2-.4-4.9-2-6-3.2 1.1 0 1.2-.5 6.6 0a29 29 0 0 0-.4 2.2c0 .8 0 1.5-.4 2m40.4 1.2.7-3.2c1.6-.3 4.1-.7 5.8-.5-1.1 2.2-4.3 3.2-6.5 3.7" clip-rule="evenodd"/><path fill="#4C2403" fill-rule="evenodd" d="M109.6 199.6c-.4.7-.3.4-1.2.8-4.4 2-1.5 5.5 2 7.3 1 .5 1.2.4 1.2 1.2-.3.1 0 .4-1 0l-.2-.1-.2-.2h-.2l-1-.4c-.2-.4-.8-.7-1.1-1-1.3-.8-3-2.6-2.6-4.7.3-1.8 2.6-3.3 4.2-3.4.3.3.3 0 .1.5M97 209l-.3.6-.1 1h-.8v-.7c-1.2.3-.7.3-1-.4L97 208c5.4-3.9-3-5.5-3.4-5.8 0-1.2-.1-.3.2-.7l1.4.3c2 .3 4 1.7 4.5 3.1.7 2.1-1.9 3.7-2.8 4.2" clip-rule="evenodd"/><path fill="#3C4B21" fill-rule="evenodd" d="m95 192.4 1-3.8c1.6 1 4 2.2 4.3 4-1.9.5-3.5-.4-5.2-.2" clip-rule="evenodd"/><path fill="#953615" fill-rule="evenodd" d="M111.3 204.5c-1.4-.7-1.1-.3-1.3-2.1-.1-1-.1-2.1-.4-2.8.2-.6.2-.2-.1-.5.3-1.1 0-2.5 0-3.7-.1-.2 0 0-.4-.3a4 4 0 0 0-.3-.1c.8 0 .4.1.8-.3 0-2.2-.4-2.4 1.1-3.6-.5 2.8 0 11 .6 13.4M96 188.6l-1 3.8v.8c-.7 1-1.5 5.6-1.7 7-.6-.1-.5-.1-.8-.9l1.7-7.9c.6-.6 1-2.3 1-3.2z" clip-rule="evenodd"/><path fill="#FBE5DA" fill-rule="evenodd" d="M170.7 81.1c2 0 3.2 4.3 1.9 5.1-.4.3-1.1.2-1.5-.1-.9-.7 0-.5-.6-3.1-.3-1-.1-1.3.2-1.9" clip-rule="evenodd"/><path fill="#953615" fill-rule="evenodd" d="m84.3 195.3-1-.1c0-1.4.1-5.3-.3-6.2.4-.5.3-1.2.4-2a29 29 0 0 1 .4-2.2l1 .1c-1 4.3-.4 6.5-.5 10.4" clip-rule="evenodd"/><path fill="#824101" fill-rule="evenodd" d="M127.6 49.9c-1.2-.4-2-.7-3.4-.5-1.2.2-1.7.6-2.6 1 .8-2 6.2-6 6-.5" clip-rule="evenodd"/><path fill="#953615" fill-rule="evenodd" d="M206.5 76.5c-1-.1-1.2-.9-1.7-1.5-2.5-3.2-5.5-2.4-6.3-3 .3-1.1 1.5-.8 2.7-.5 1 .2 1.9.7 2.6 1.2 1 .7 3 2.5 2.7 3.8m-26 32.7c.3-1.4 1.6-.6 3.4-2.7 1.7-2 .6-4 1.3-4.9.6.3.6.2.7 1.1.4 4.4-3.9 7-5.3 6.5m-57.2 81-.2 1.1-1.4 3.9c-.3.4-.2.4-.6.7-.9.4-.6 0-.6-.1.6-2.1 2-4.4 2-6.7.4-.5.4-1.2.5-2h1z" clip-rule="evenodd"/><path fill="#F9C2AD" fill-rule="evenodd" d="M163.2 101.9c-2.4.4-4-2.7-3.2-3.3 1-.8 4 1.1 3.2 3.3" clip-rule="evenodd"/><path fill="#953615" fill-rule="evenodd" d="M78.2 81.7c0-1.1.8-1.2 1.4-2.2 1-1.7 0-2.2.5-3.4 2.1.6.2 5.9-1.9 5.6" clip-rule="evenodd"/><path fill="#824101" fill-rule="evenodd" d="M174.2 59.4c-1.3-1 0-1.2-3.2-3l-.3-.2a1 1 0 0 1-.2-.2c1-1 2-.4 2.6.4.6.8 1 1.9 1.1 3" clip-rule="evenodd"/><path fill="#fff" fill-rule="evenodd" d="M153.6 81.3v1.1c-1.3 0-2.1-.9-1.8-2l1.3.2c.7.4.3 0 .5.7" clip-rule="evenodd"/><path fill="#F9C2AD" fill-rule="evenodd" d="M156.5 96.7c.8-.1 2.1.2 1.6 1-.5.7-1.6.2-1.6-1" clip-rule="evenodd"/><path fill="#2B2B2A" fill-rule="evenodd" stroke="#2B2B2A" stroke-miterlimit="22.9" stroke-width=".8" d="M18.7 120h202.6l-.1 5.7H18.8a103 103 0 0 1-.1-5.7Z" clip-rule="evenodd"/><path fill="#2B2B2A" fill-rule="evenodd" stroke="#2B2B2A" stroke-miterlimit="22.9" stroke-width=".8" d="M34.7 121.7v53a101 101 0 0 1-2.9-4.7v-48.3zm24.7 0v79.6a101 101 0 0 1-2.8-2.2v-77.4zm24.8 0v93.1l-2.8-1v-92.1zm24.8 0v99l-2.8-.3v-98.7zm24.8 0v98.7l-2.8.3v-99zm24.8 0v92l-2.8 1.1v-93.1zm24.8 0v77.4l-2.8 2.2v-79.6zm24.8 0V170a102 102 0 0 1-2.9 4.7v-53z" clip-rule="evenodd"/><path fill="#E31F25" fill-rule="evenodd" d="m33 46.3 160.7 160.6 13.2-13.2L46.3 33.1z" clip-rule="evenodd"/></svg>