<svg xmlns="http://www.w3.org/2000/svg" width="240" height="240" fill="none"><path fill="#E31F25" fill-rule="evenodd" d="M120 240c66.274 0 120-53.726 120-120S186.274 0 120 0 0 53.726 0 120s53.726 120 120 120" clip-rule="evenodd"/><path fill="#fff" fill-rule="evenodd" d="M120 221.344c55.971 0 101.344-45.374 101.344-101.344S175.971 18.656 120 18.656 18.656 64.03 18.656 120 64.03 221.344 120 221.344" clip-rule="evenodd"/><path fill="#2B2B2A" fill-rule="evenodd" d="M72.38 30.526q-1.556.828-3.08 1.708v175.532q1.524.88 3.08 1.708zM99.382 20.757c-1.033.214-2.058.448-3.08.692v197.102q1.532.37 3.08.692zM123.304 221.284q1.547-.052 3.081-.147V18.862q-1.534-.094-3.081-.147zM149.304 221.284q1.547-.052 3.081-.147V18.862q-1.535-.094-3.081-.147z" clip-rule="evenodd"/><path fill="#FACDB0" fill-rule="evenodd" d="M173.998 94.632c.811-.329 1.012-.25 1.872-.086.606.116.97.15 1.575.131l1.718-.209c3.962-.642 6.468-4.666 8.235-5.516.889 1.175.438.322.252 1.373 2.582.628 4.433 1.458 6.916 4.031.836.867.449.896 1.221 1.706.556.582 1.218 1.117 1.782 1.73.88.959 1.587 2.18 2.606 3.247.171-.317.428-2.006.492-2.396.124-.759.107-.462.066-1.21-.039-.7.047-.613.066-1.209.135-4.156-.028-1.992-.326-4.546-.275-2.359-1.345-5.59-3.274-7.137-3.029-2.43-.871.11-2.295-1.59-.774-.743-1.212-.133-1.21-1.303.79.157 2.337-.142 4.484 1.394 1.728 1.237 3.017 3.04 4.597 4.334.72-.59 2.177-2.477 2.514-3.263-.839-.97-1.106-1.727-1.91-2.7-3.564-4.315-4.049-4.696-8.444-8.706-1.79-1.633-6.598-3.828-8.817-4.556-1.106-.363-2.043-.48-2.949-.8-2.141 2.09-.781 1.832 1.155 3.524 2.633 2.299 7.584 7.67 5.778 11.454-.592-.607-.806-1.799-1.133-2.63-.391-.991-.781-1.681-1.311-2.656-3.104-5.72-9.146-8.661-15.196-8.275-3.676.234-7.264 1.017-10.677 1.882-5.057 1.284-9.185 3.788-10.409 9.648-.203.973-.378 1.833-.582 2.703-.76 3.227-.326 5.512-1.859 10.727-.579 1.97-.993 3.595-1.29 5.39-.205 1.249-.054 1.488-.016 2.67.117 3.638 1.547 4.886 3.758 7.94 1.381 1.907 3.508 3.386 5.263 4.236 1.093.53 1.809.841 2.694 1.23 3.015 1.328 2.61 1.841 3.767-.952.639-1.543 1.81-3.072 3.466-3.497 3.796-.973 7.015 1.561 7.912 3.711l.271 1.203c.009.04.016.1.027.138.238.844-.344-.247.13.332.949 1.159 3.499-3.185 3.07-6.81-.47-3.966-5.073-7.981-8.518-9.886-2.095-1.158-6.815-2.877-9.264-3.053-.415-.03-.5-.034-.923-.135l-.862-.398c.554-.64.888-.68 1.502-.691 1.478-.025 4.142.86 5.273 1.021.709-.572 1.736-1.257 1.154-2.118-.468-.692-.927-.864-1.483-1.156-.999-.525-5.213-3.814-5.061-5.1.622.146 1.142.847 1.784 1.33 2.281 1.716 3.342 2.03 5.331 3.128 1.716.946 1.804.833 3.532 1.45.6.215 1.115.439 1.788.632.729.208 1.124.06 1.758.29" clip-rule="evenodd"/><path fill="#242424" fill-rule="evenodd" d="M199.006 104.5c.717.603 1.318 3.096 1.508 3.913l.298 2.004c.573 3.76.519 5.904-.721 10.083-.984 3.314-2.029 5.476-4.622 8.129-1.428 1.46-2.386 2.268-4.021 2.778-1.158.361-3.146.748-4.08.207-.791.195-1.166-.05-1.941-.319-.252-.087-.124-.055-.414-.139-.842-.244-.698-.034-1.356-.773.656-.88.709-.255 1.793-1.162 3.457-2.889 5.039-6.744 6.593-10.627l1.2-4.296c.951-5.58 1.178-11.304-3.463-16.838 1.108-1.328 4.183.135 5.485 1.335 1.055.972 2.491 2.869 3.209 4.181.345.631.537.76.532 1.524m-9.536-3.989c2.074 1.357 2.406 8.789 1.926 11.275-1.178 6.106-3.009 11.214-7.93 16.039-1.513 1.484-4.812 3.852-6.746 4.924-.686.38-1.403.471-2.121.71-1.319.838-3.669.443-5.203-.106-1.906-.683-3.505-2.21-5.059-3.994.726-.652 4.245-1.829 6.853-4.465 2.893-2.925 1.573-3.802 4.801-4.808.349-.108.771-.264 1.014-.438.595-.426 1.711-1.667 2.248-2.249 1.619-1.758 2.489-5.719 1.912-7.972-1.114-4.352-2.159-3.034-1.413-5.645.299-1.048.163-2.288.142-3.469l-.001-.248c-.004-.034-.009-.089-.017-.122l-.309-.652c-1.317-2.425-1.8-2.442 1.781-3.574 3.993-1.26 8.275 3.673 8.122 4.794m-25.556 15.874c.421-.925.659-2.029 1.45-2.911 2.399-2.676 4.907-1.789 7.162.386.92.888 1.205 1.615.902 2.904-.489 2.079-5.178 1.751-6.725 1.259l-.282-.094c-.045-.015-.096-.035-.139-.05-.043-.013-.094-.034-.136-.047-1.049-.331-1.157-.1-2.232-1.447m2.086 9.162c-.938 1.31-5.603 2.96-7.002 3.097-2.337.23-6.019-.652-7.052-2.127-.675-.139-1.246-.825-1.73-1.315-1.311-1.326-2.524-2.889-3.186-4.722.843-.944 2.481-1.594 3.536-2.383 3.588-2.686 2.396-2.902 5.552-.977 1.689 1.031 4.413 2.344 6.245 2.932.67.214 1.397.409 2.153.645a8.4 8.4 0 0 0 2.002.34l4.016.722c-.917 1.247-3.304 3.778-4.534 3.788m10.494-23.588c-.604-.436-1.55-1.878-2.287-2.631-.744-.76-2.203-1.748-2.484-2.629.601-.194 1.81.095 2.415.148 1.623.142 2.485.067 2.78 2.987.06.591.218 1.475-.424 2.125m18.41-19.008c2.33-.151 4.951 3.8 5.944 4.889 3.109 3.406 4.432 7.901 4.215 12.476-.148 3.099-2.204 7.268-3.275 5.777-.092-.128-.134-.34-.185-.496-1.534-4.704-5.859-11.137-10.892-10.558-2.869.33-1.195 1.13-3.499-.615-.517-.392-.85-.489-1.348-.892.041-.95.131-.917.663-1.9.932-1.72.612-1.477.495-1.83-3.44 2.132-4.145 5.136-9.699 5.226-.882.014-2.375.03-3.326-.396-.633-.229-1.028-.08-1.757-.29-.673-.192-1.188-.416-1.788-.63-1.728-.618-1.816-.505-3.532-1.451-1.989-1.097-3.05-1.412-5.332-3.128-.641-.483-1.161-1.184-1.783-1.33-.152 1.286 4.062 4.575 5.061 5.1.556.292 1.015.464 1.483 1.156.582.862-.445 1.547-1.154 2.119-1.132-.162-3.795-1.047-5.273-1.022-.614.01-.948.051-1.503.691l.863.398c.423.101.507.105.923.135 2.449.176 7.168 1.895 9.264 3.053 3.445 1.905 8.048 5.92 8.518 9.887.429 3.624-2.121 7.968-3.07 6.809-.474-.579.108.512-.13-.332-.011-.038-.018-.098-.027-.138l-.271-1.202c-.897-2.151-4.117-4.685-7.912-3.712-1.656.425-2.827 1.954-3.467 3.497-1.156 2.793-.751 2.28-3.766.952-.885-.389-1.601-.7-2.694-1.229-1.755-.851-3.882-2.33-5.263-4.237-2.211-3.054-3.641-4.302-3.758-7.94-.038-1.182-.19-1.42.016-2.67.297-1.795.711-3.42 1.29-5.39 1.533-5.215 1.099-7.5 1.859-10.727.204-.87.379-1.73.582-2.703 1.223-5.86 5.351-8.364 10.409-9.648 3.413-.865 7.001-1.648 10.676-1.882 6.051-.386 12.093 2.555 15.197 8.275.53.975.919 1.665 1.311 2.656.327.832.541 2.023 1.133 2.63 1.806-3.784-3.146-9.155-5.778-11.454-1.936-1.692-3.296-1.433-1.155-3.525.906.32 1.843.438 2.949.8 2.219.73 7.027 2.924 8.817 4.557 4.395 4.01 4.88 4.391 8.444 8.706.804.973 1.071 1.73 1.91 2.7-.337.786-1.794 2.674-2.514 3.263-1.58-1.294-2.869-3.097-4.598-4.334-2.146-1.536-3.694-1.237-4.483-1.394-.002 1.17.436.56 1.21 1.303m-10.217-28.046c1.665-2.777 3.45-5.381 5.378-8.115a98 98 0 0 0-1.801-1.682l-6.226 9.867c-1.203 1.98-4.354 6.521-5.193 8.578-.973 2.386-.439 1.475-.782 2.843l-4.459-.02c-.414-.03-.571-.056-1.032.013l-.133.022-.134.027-.271.054c-.219.046-.265.058-.535.116-.843.183-1.305.232-2.146.358-6.203.929-13.408 2.726-16.591 8.658-.844 1.573-1.292 2.776-1.705 4.312-.432 1.61-.469 2.814-.825 4.312-.236 1-.003 1.431-.438 2.266-.653 1.253-4.064 5.505-5.106 6.588-2.551 2.652-5.789 6.177-8.488 8.315-5.534 4.385-11.754 11.412-16.306 16.69-.691.802-.997 1.476-1.712 2.276-1.164 1.299-2.874 3.047-4.241 4.045-1.945 1.42-4.861 3.554-6.329 5.475-.727.95-1.566 3.18-1.744 4.324-.461 2.964.897 6.612 2.654 8.616 3.768 4.298 7.582 4.997 13.001 2.976.877-.328 3.545-1.556 4.204-2.08 2.917-2.317 5.818-4.825 8.467-7.857 1.148-1.313.833-.916 1.291-2.131.235-.622.619-1.428.793-2.163l.362-2.148c.198-1.064 5.022-4.189 5.954-4.777 2.871-1.813 4.119-4.135 5.03-2.197.526 1.121 1.399 2.54 2.276 3.478 2.383 2.55 2.393 2.32 4.718 3.865 2.29 1.522 6.777 1.294 9.089.597 2.735 2.51 5.428 5.923 10.289 5.76 3.288-.111 6.2-1.236 8.904-3.246 1.903-1.412.824-.709 2.954.242 2.724 1.216 5.852 1.263 8.704.334.316-.103.594-.191.918-.299 1.68-.557 1.806-1.835 2.43-1.296l3.113-3.217c-.166-.46-.149-.189.085-.682.375-.79 2.371-2.792 3.374-6.896.897-3.674 1.633-8.419.584-12.196 3.098-2.803 4.05-4.328 4.188-8.895.022-.686.124-1.6.068-2.285-.095-1.173-.478-3.391-.896-4.52-.329-.892-.707-1.373-.543-2.18l.844.106c.897.163 1.197.273 2.123-.219.557-.295 3.358-2.952 6.326-5.81q-.432-1.178-.893-2.344l-4.583 4.318c-2.495 2.46-2.337 1.873-4.08 1.242-1.331-.481-1.408-.827.716-2.65.694.115.544.384 1.198.107l-.287-1.718-2.964-4.368c-3.365-4.45-9.318-10.193-14.452-12.561-1.569-.724-7.128-2.65-8.887-1.705l.725 1.123c-.21.485-.333.92-.913 1.281-1.074-.819-1.636-1.423-2.259-2.434zm-39.638 42.82c.097.47.066.123.04.614-.007.132-.06.374-.091.553-.684 3.88 0 7.269 2.331 10.643 1.117 1.615 2.267 2.363 3.494 3.836l-16.226 12.515c-.843-.742-.724-1.05-1.395-1.893-.549-.689-.935-1.211-1.548-1.921-1.179-1.365-1.797-2.374-3.345-3.327-.051.129-.197.447-.231.584.998.538 1.199 1.309 1.687 2.011.659.949 1.153 1.172 1.168 2.049 2.188 2.462 1.651 6.181.57 8.937-1.222 3.118-4.909 6.123-7.561 8.279-1.693 1.376-4.627 2.924-6.446 3.415-2.017.544-4.727.597-6.533-.255-1.449-.684-3.354-2.942-3.407-3.798-2.21-2.289-2.218-8.85 3.261-11.853 2.206-1.208 7.638-6.373 9.084-8.495.512-.749.275-.741.96-1.531 2.171-2.503 4.394-5.399 7.031-7.461 1.002-.783 2.093-2.109 3.081-3.007.977-.887 2.085-1.699 2.95-2.479 4.191-3.774 8.102-8.224 12.173-12.11l-.68 3.558c-.142.59-.046.572-.367 1.137" clip-rule="evenodd"/><path fill="#fff" fill-rule="evenodd" d="M212.489 78.52c-1.055-.345-2.034-1.011-2.651-1.996-.959-1.53-1.005-3.088-.494-4.39a101.7 101.7 0 0 0-19.279-25.344c-1.928 2.734-3.713 5.338-5.378 8.115l-6.194 10.493c.623 1.011 1.185 1.615 2.259 2.434.58-.362.703-.796.913-1.281l-.725-1.123c1.759-.946 7.318.98 8.887 1.705 5.134 2.368 11.087 8.11 14.452 12.561l2.964 4.368.287 1.718c-.654.277-.504.008-1.198-.107-2.124 1.823-2.047 2.169-.716 2.65 1.743.63 1.585 1.217 4.08-1.242l4.583-4.318a101 101 0 0 0-1.79-4.242" clip-rule="evenodd"/><path fill="#FACDB0" fill-rule="evenodd" d="M107.556 139.967c.884.856 3.043 3.462 4.21 3.655.421.07 1.247.109 1.003-.021 3.532-3.794 12.48-10.756 14.855-14.853.669-1.153 1.564-2.011 2.39-3.923.323-.751.48-.836.919-1.436-.015-.877-.509-1.1-1.168-2.049-.488-.701-.689-1.473-1.687-2.011l-.508-.742c1.911-1.116 2.925 2.308 4.705 3.403 1.177-1.308 3.681-2.502 6.191-5.055.975-.991 4.2-4.258 4.913-5.553.686-1.247-.343-.145.116-3.905.083-.678.03-.994.051-1.609l1.01-6.446c.316-1.73-.261-.887.493-1.696.321-.565.225-.546.367-1.136l.681-3.56c-4.072 3.887-7.982 8.337-12.174 12.111-.865.78-1.973 1.592-2.95 2.479-.988.898-2.079 2.224-3.081 3.007-2.637 2.062-4.86 4.958-7.031 7.461-.685.79-.448.782-.96 1.531-1.446 2.122-6.878 7.287-9.084 8.496-5.479 3.002-5.471 9.563-3.261 11.852M174.599 133.459c.718-.239 1.435-.331 2.12-.71 1.935-1.072 5.234-3.44 6.747-4.925 4.921-4.824 6.752-9.932 7.93-16.038.48-2.486.148-9.918-1.926-11.276-1.312-.984-.642-.685-2.015-.89l-3.755-.847c-.526-.156-.386-.147-.927-.346l-1.027-.195c-.37 1.017.258 5.409.338 6.865.095 1.732 1.017.994 1.465 4.017.04.27.024.085.093.412.059.279.056.33.105.65.227 1.487.415.488.048 1.549-.285.819-.116.189-.223.843-.444 2.709-1.112 2.68-1.664 3.655-.393.696-.044.616-.753 1.443-.917 1.071-3.44 3.794-4.436 4.18l.022-.275c-1.882 1.64-3.597 3.667-5.364 5.104-2.34 1.902-2.125 1.868-3.958 3.533-.754.685-.391.236-1.074.648 2.809 3.632 7.248 2.356 8.254 2.603" clip-rule="evenodd"/><path fill="#FACDB0" fill-rule="evenodd" d="M187.368 131.614c.934.541 2.922.154 4.081-.207 1.634-.51 2.592-1.318 4.02-2.778 2.593-2.653 3.638-4.815 4.622-8.129 1.241-4.179 1.294-6.323.721-10.083l-.298-2.004c-.19-.817-.791-3.31-1.507-3.913-.763-.677-1.467-2.514-2.161-3.264-.741-.799-.921-.5-1.607-.76-1.138-.43-.662-.843-1.83-.237.274.663.687 1.363.821 1.997.511 2.407 1.214 2.866 1.185 5.727-.012 1.135.264 2.681.11 3.876l-.981 5.113c-.005.038-.009.094-.015.131l-.845 2.365c-.55 1.024-.085 1.153-.765 1.981l-6.609 9.769c.818.342.244-.087 1.058.416" clip-rule="evenodd"/><path fill="#F5A98B" fill-rule="evenodd" d="M130.933 123.389c-.44.6-.596.685-.92 1.436-.825 1.912-1.72 2.77-2.389 3.923-2.375 4.097-11.323 11.059-14.855 14.853.244.13-.582.091-1.003.021-1.167-.193-3.326-2.799-4.21-3.655.053.856 1.958 3.114 3.407 3.798 1.805.852 4.516.799 6.533.255 1.819-.491 4.753-2.039 6.446-3.415 2.652-2.156 6.339-5.161 7.561-8.278 1.081-2.757 1.618-6.476-.57-8.938M128.078 119.329c.034-.137.18-.455.231-.584 1.548.953 2.166 1.962 3.345 3.327.613.71.999 1.232 1.548 1.921.671.843.552 1.151 1.395 1.893l16.227-12.515c-1.228-1.473-2.378-2.221-3.495-3.836-2.331-3.374-3.015-6.763-2.331-10.643.031-.18.084-.421.091-.553.026-.492.057-.144-.04-.613-.754.81-.177-.035-.493 1.696l-1.01 6.446c-.021.615.032.931-.051 1.609-.459 3.76.57 2.658-.116 3.905-.713 1.295-3.938 4.562-4.913 5.553-2.51 2.553-5.014 3.747-6.191 5.055-1.781-1.095-2.794-4.519-4.705-3.403zM194.904 82.951c1.424 1.7-.734-.84 2.295 1.59 1.929 1.547 2.999 4.778 3.274 7.138.298 2.553.461.39.326 4.545-.019.596-.105.509-.066 1.208.041.75.058.453-.066 1.211-.064.39-.321 2.079-.492 2.397-1.019-1.067-1.726-2.289-2.606-3.248-.564-.613-1.226-1.148-1.782-1.73-.772-.81-.385-.84-1.221-1.706-2.482-2.573-4.334-3.403-6.916-4.031.186-1.05.637-.198-.252-1.372-1.767.849-4.273 4.873-8.235 5.515l-1.718.21a6.3 6.3 0 0 1-1.575-.132c-.86-.165-1.061-.243-1.872.086.95.426 2.443.41 3.326.396 5.553-.09 6.258-3.094 9.698-5.227.117.355.437.11-.494 1.83-.533.984-.623.95-.663 1.9.497.404.83.501 1.347.893 2.305 1.745.63.944 3.499.615 5.034-.579 9.358 5.854 10.892 10.558.051.156.094.368.185.496 1.072 1.491 3.127-2.678 3.275-5.777.217-4.575-1.106-9.07-4.215-12.476-.993-1.089-3.614-5.04-5.944-4.889" clip-rule="evenodd"/><path fill="#F5A98B" fill-rule="evenodd" d="M174.599 133.459c-1.006-.246-5.445 1.029-8.254-2.603.683-.412.32.037 1.074-.648 1.833-1.665 1.618-1.631 3.958-3.533 1.767-1.437 3.482-3.464 5.364-5.104l-.021.275c.996-.386 3.518-3.109 4.435-4.18.709-.827.36-.747.753-1.443.552-.975 1.22-.946 1.664-3.655.107-.654-.061-.024.223-.843.367-1.06.179-.062-.048-1.549-.049-.32-.046-.371-.105-.65-.069-.326-.053-.142-.093-.412-.448-3.022-1.37-2.285-1.465-4.016-.08-1.457-.708-5.849-.338-6.866l1.027.195c.541.2.401.19.927.346l3.755.848c1.373.204.703-.095 2.015.89.153-1.121-4.129-6.055-8.122-4.794-3.581 1.132-3.098 1.149-1.781 3.574l.309.652c.008.033.013.088.017.122l.001.248c.021 1.181.157 2.421-.142 3.469-.746 2.612.299 1.293 1.413 5.645.577 2.253-.293 6.214-1.912 7.972-.537.582-1.653 1.823-2.248 2.249-.243.174-.665.33-1.014.438-3.228 1.006-1.908 1.883-4.801 4.808-2.608 2.636-6.127 3.813-6.853 4.465 1.554 1.784 3.153 3.311 5.059 3.994 1.534.549 3.884.944 5.203.106" clip-rule="evenodd"/><path fill="#FACDB0" fill-rule="evenodd" d="M151.946 126.517c1.033 1.475 4.715 2.357 7.052 2.127 1.398-.137 6.064-1.787 7.002-3.097l.903-.98c-.669-.451-4.889-1.883-5.73-2.105l-.403-.076c-.037-.006-.093-.008-.13-.014-1.181-.182-.892-.468-1.747-.789-.621-.233-.46.022-1.177-.288-.727-.315-1.757-1.28-2.34-1.382-.333-.058-.122-.055-.557.047l-2.407 1.034c-1.536.678-.321-.264-2.656.935l-1.311.532c.691.809.874 1.363 1.429 1.998.643.736 1.442 1.368 2.072 2.058" clip-rule="evenodd"/><path fill="#F5A98B" fill-rule="evenodd" d="M151.946 126.517c-.63-.69-1.429-1.322-2.072-2.058-.555-.635-.738-1.189-1.429-1.998l1.311-.532c2.335-1.199 1.12-.257 2.656-.935l2.407-1.034c.435-.102.224-.105.557-.047.583.102 1.613 1.067 2.34 1.382.717.31.556.055 1.178.288.854.321.565.607 1.746.789.037.006.093.008.13.014l.403.076c.841.222 5.061 1.654 5.73 2.105l-.903.98c1.23-.01 3.617-2.541 4.534-3.788l-4.016-.722a8.4 8.4 0 0 1-2.003-.34c-.755-.236-1.482-.431-2.152-.645-1.833-.588-4.556-1.901-6.245-2.932-3.156-1.925-1.964-1.709-5.553.977-1.055.789-2.692 1.439-3.535 2.383.662 1.833 1.875 3.396 3.186 4.722.483.49 1.055 1.176 1.73 1.315M187.368 131.614c-.814-.503-.241-.074-1.058-.416l6.609-9.769c.68-.827.214-.957.765-1.981l.845-2.365c.006-.037.009-.093.015-.13l.981-5.114c.153-1.195-.122-2.741-.111-3.876.029-2.861-.673-3.32-1.184-5.727-.135-.634-.547-1.334-.822-1.997 1.168-.606.693-.193 1.831.237.686.26.866-.039 1.606.76.695.75 1.399 2.587 2.161 3.264.005-.764-.187-.893-.533-1.524-.718-1.312-2.153-3.21-3.208-4.181-1.302-1.2-4.377-2.663-5.485-1.335 4.64 5.534 4.414 11.258 3.462 16.838l-1.2 4.296c-1.553 3.883-3.136 7.738-6.592 10.627-1.084.907-1.138.282-1.793 1.162.658.739.513.529 1.356.773.29.084.161.052.413.139.776.269 1.151.514 1.942.319" clip-rule="evenodd"/><path fill="#FACDB0" fill-rule="evenodd" d="M163.914 116.385c1.075 1.346 1.183 1.116 2.232 1.447.042.013.093.033.136.047.043.015.094.035.139.05l.282.094c1.547.492 6.236.82 6.725-1.259.303-1.289.018-2.016-.902-2.904-2.255-2.175-4.763-3.062-7.162-.386-.791.882-1.028 1.986-1.45 2.911" clip-rule="evenodd"/><path fill="#383836" fill-rule="evenodd" d="M209.344 72.134c-.511 1.302-.466 2.86.493 4.39.618.985 1.596 1.651 2.651 1.997a99 99 0 0 0-1.156-2.485c-.465-.488-.63-.946-.686-1.391q-.634-1.266-1.302-2.51" clip-rule="evenodd"/><path fill="#E8E8E5" fill-rule="evenodd" d="M210.646 74.645c.056.445.221.903.686 1.391q-.338-.7-.686-1.391" clip-rule="evenodd"/><path fill="#D89C86" fill-rule="evenodd" d="M176.494 101.959c.642-.65.484-1.534.424-2.125-.295-2.92-1.157-2.845-2.781-2.987-.604-.053-1.813-.342-2.414-.148.281.881 1.74 1.868 2.484 2.629.736.752 1.683 2.195 2.287 2.631" clip-rule="evenodd"/><path fill="#2B2B2A" fill-rule="evenodd" d="M177.309 203.587q1.56-1.071 3.081-2.198V38.61a104 104 0 0 0-3.081-2.197zM204.312 176.243a102 102 0 0 0 3.08-4.912V68.668a102 102 0 0 0-3.08-4.911z" clip-rule="evenodd"/><path fill="#E31F25" fill-rule="evenodd" d="m33.091 46.284 160.625 160.624 13.192-13.192L46.283 33.092z" clip-rule="evenodd"/><path fill="#42230E" fill-rule="evenodd" d="M79.933 192.876c-1.21-1.769-2.646-3.105-4.229-4.535-.72-.65-1.38-1.378-2.13-1.928-.956-.7-1.463-.659-2.43-1.52-4.879-1.907-10.422-4.656-16.265-5.46-6.136-.845-12.592-1.149-18.509-2.186a102 102 0 0 0 22.078 23.261c.94-1.691 1.412-2.912 2.153-3.968 3.057 1.234 6.081 6.888 7.855 10.727.374.221.746.446 1.123.663.757-1.076 1.284-2.247 2.279-3.521 1.925-2.467 8.032-9.158 8.075-11.533M18.92 112.672a23 23 0 0 0 2.21-1.13c-.138-.34.498-.376-1.097.293-.451.189-.703.319-1.088.48zm1.703-12.614c3.522-.228 7.672 1.377 10.575 3.882-2.11 1.847-3.97 3.879-4.352 5.957 1.034-1.906 2.043-3.601 4.254-5.272.993-.751 2.261-1.476 3.405-2.024 1.042-.498 2.527-1.274 3.152-.289l.433-1.068.548.588c.496-1.24.196-3.29.268-4.643.06-1.167.397-3.549.676-4.304l-.949.81c-.702-1.104-.22-.97-1.118-1.016-.584 2.487-2.995 5.654-5.655 7.731-1.355-6.587-2.875-10.337-7.64-13.594a101 101 0 0 0-3.597 13.242" clip-rule="evenodd"/><path fill="#7A411C" fill-rule="evenodd" d="M26.07 81.889c1.808 1.038 4.512 2.026 6.103 5.88 1.004 2.43.396 2.535.077 3.103-1.585-1.521-4.022-3.157-5.924-4.45-.404-.276-.962-.664-1.586-1.077q-.266.734-.522 1.47c4.766 3.258 6.285 7.008 7.64 13.595 2.661-2.077 5.072-5.244 5.655-7.731.898.047.417-.088 1.119 1.015l.949-.81c.919-.452.402-.057.062-.615-.34-1.172.06-2.05.553-3.023-.864-1.552-3.21-3.767-4.543-4.343-.355 2.203-1.337 6.945-2.487 8.249-.134-.942.063-1.103.131-1.856.563-6.185-4.694-9.16-7.066-9.796q-.08.194-.16.389m47.992 128.467c.482-.682.98-1.354 1.478-2.015 1.53-2.029 3.153-4.685 4.096-6.732.449-.974.948-2.614 1.222-3.581.662-2.327-.113-2.305 1.16-3.393l-2.085-1.759c-.044 2.375-6.15 9.066-8.076 11.533-.994 1.274-1.522 2.445-2.279 3.521a102 102 0 0 0 4.484 2.426m-5.606-3.089c-1.774-3.839-4.798-9.493-7.856-10.727-.74 1.056-1.212 2.277-2.152 3.968a102 102 0 0 0 10.008 6.759" clip-rule="evenodd"/><path fill="#231C23" fill-rule="evenodd" d="m102.838 209.755 2.768.05c3.697-.432 5.955-.212 9.974-2.219l5.771-3.442 1.725-1.642c2.023 5.605-2.358 9.477-2.866 10.236-1.019 1.522 1.029 4.1-3.228 8.01-.941-5.272-1.483-4.922-4.177-7.545-1.491-1.45-.451-1.334-1.939-2.862-1.762-.34-1.118.014-2.885.726-.92.37-1.64.177-2.925.277-4.454.9-7.542 3.076-9.64 6.991l.071.017c.455-.848 1.04-1.644 1.801-2.465 2.197-2.368 6.327-4.592 9.129-4.225l.948-.074c-.49 2.396-1.541 3.691 1.927 4.504 2.368-1.259 1.605-1.348 2.941-2.962 2.923 2.809 4.819 5.361 4.283 8.148q.93.03 1.864.045c3.642-4.767 2.557-6.179 3.017-7.498.339-.972 1.788-2.226 2.385-3.512 1.868-4.018.67-7.255.93-8.32.345-1.411 2.611-2.753 3.157-7.47.308-2.663.207-1.662 2.368-3.785 1.026-1.009 1.93-2.23 2.654-3.415 1.558-2.547 2.237-4.82 2.121-7.757-.386-9.821-9.959-9.805-11.924-10.991.081-4.874 1.393-9.923-1.917-15.854-1.472-2.639-4.039-5.627-6.562-4.301-2.411 1.266-1.414 4.38-.979 6.962-3.491 2.271-3.92 1.908-5.818 5.364-1.351 2.458-2.004 8.497-10.25 1.038-5.61-5.074-11.054-12.956-13.458-19.934-1.243-3.606-2.988-11.075-2.085-13.965 3.125 1.937 16.468 10.159 15.746 1.296-.64-7.855-11.8-14.888-13.375-16.61.51-1.028.806-2.11 1.317-3.273 2.342-5.328 2.805-6.431 7.284-4.154 2.111 1.073 4.003 2.357 6.06 3.844 1.901 1.376 3.968 3.118 5.983 4.139 1.758.889 5.42 1.61 6.588-1.247.87-2.13-.88-5.477-2.309-7.843-4.76-7.88-6.035-7.58-11.155-12.079l.241-.75c.663-1.88 1.408-3.043 1.3-5.304-.12-2.557-1.494-4.596-3.646-5.724-4.802-2.518-8.133 1.437-10.823-2.895-1.327-2.137 8.64-5.11 9.773-5.646-4.776 1.984-3.098-.206-10.873 4.82l-1.948-1.812c4.778-4.243 7.25-5.912 13.079-9.281-6.628 2.019-10.9 7.021-13.974 8.778l-1.375-1.167 3.409-4.566c-1.893 1.314-2.651 3.117-4.035 4.264.935-2.529 1.886-4.693.62-8.031-2.959-7.808-12.726-10.58-22.189-7.546-6.243 2.002-12.105 6.343-15.243 11.2-3.104 4.804-4.09 9.358-1.045 15.835-.715.89-.797 1.484-1.394 2.354-1.541-.917-3.12-3.407-5.065-3.44-1.024.996-.805 1.459-.701 2.65a1.4 1.4 0 0 1-.265-.159l-.717-.557c-1.276-1.231-1.473-2.244-4.514-3.873a26 26 0 0 0-1.982-.946q-.285.666-.56 1.338c2.372.637 7.629 3.611 7.066 9.796-.068.753-.265.913-.13 1.856 1.15-1.304 2.13-6.046 2.486-8.249 1.332.575 3.68 2.79 4.543 4.343-.494.973-.894 1.851-.553 3.023 1.042-3.296 1.235-4.136 2.749-7.059-.296-2.694-2.476-3.407-2.492-7.45l.01-.753c.02-1.622.906-5.083 1.674-6.507 1.947-3.608 2.938-4.613 6.259-7.446 4.154-3.544 9.393-5.216 13.605-6.221 3.1-.739 4.96-.311 7.5.427 1.597.464 3.083.044 4.175 1.878.514.971.495.724 1.473 1.41 1.813 1.273 3.339 3.098 3.923 5.326.18.687.224 1.32.232 1.97l-1.454 5.265-.148.274c-.04.073-.114.184-.154.284 1.434-.444.389-.552 1.946.414 1.97 1.885 5.014 4.027 7.313 6.078 2.262 2.018 5.005-.808 8.456 1.188-2.266-.216-5.641 2.292-7.399 2.229-1.127-.04-1.726-.798-3.476-.733-1.716.063-2.34.557-3.913 1.058l-1.138-2.1c-.166-.07-4.878-4.177-5.083-4.455-1.47.813-2.828 2.28-4.467 3.19-1.642.912-3.6 1.751-4.96 2.986 1.527.179 4.426-2.446 5.347-2.571 1.729.428 4.513 2.011 6.177 3.79l1.468 1.73c-2.376 2.236-2.56 4.924-2.861 7.562-.214 1.877-3.062 4.177-5.218 6.897-7.368 9.295-11.866 18.467-13.59 29.872-.634 4.202-.87 12.273.573 17.322.444-1.226.228-5.456.43-7.264.293-2.625.753-4.343.975-6.839l.907-.291c-.71-1.231-.34-1.713-.009-2.894.31-1.107.491-1.853.899-2.938.64-1.707 1.053-4.199 2.36-5.691-.133-2.919 7.803-15.145 10.655-18.689 4.091-5.084 12.084-13.47 19.146-15.983.05.043.078.077.121.157.432.797.324.865.148 1.959-.18 1.12-.226 1.55-.699 2.68l.416.511c1.566-1.142 4.14-.634 5.53-.02 1.695.746 3.313 2.08 4.911 3.631 3.204 3.113 5.937 7.203 8.07 11.402.678 1.597 1.063 2.607.299 3.948-2.876 3.075-7.926-1.883-10.542-3.775-2.337-1.691-4.923-3.538-7.573-4.522-1.103-.409-1.84-.312-2.452-.962-1.422.133-1.588.635-3.136.827-.978.12-1.824.291-2.978.78.9 1.432.525 2.247-1.262 2.928-.022.104-.057.167.002.316l.447 2.155-.364 1.151-1.382 1.398c2.954 2.189 5.323 3.249 8.554 6.334 2.828 2.7 6.184 6.314 6.945 10.315.94 5.888-5.7 2.525-7.892 1.456-1.575-.769-2.81-1.632-4.684-2.585-1.63-.829-3.282-1.427-5.055-2.374-.773.78-.627-.216-.493 2.911.104 2.432.985 8.495.762 9.29.904 1.729 1.41 4.618 2.172 6.658a85 85 0 0 0 2.898 6.849c1.225 2.569 7.241 12.85 7.416 14.268l1.09.352c-.284-1.38-.271-.909.097-1.997-.4-.701-.26-.199-.16-.974 1.704-1.215 2.595-.22 4.076 1.073 1.164 1.016 2.294 2.274 3.357 3.731 1.781-.576 3.092-.455 5.311-1.35 2.013-.879 1.514-.165 2.31-2.118.376-.923.765-1.836 1.336-2.831 1.432-2.496 3.008-3.556 6.022-4.687-.433-1.154-.763-2.802-.901-3.973-.187-1.579-.207-2.422 1.662-3.255 6.06 2.45 6.568 11.144 6.142 16.848-.028.383-.029.774-.091 1.226-.152 1.111.081.668-.37 1.016.454 2.404-.146 1.428-.915 3.76-.57 1.73-.517 1.745-1.462 3.501-4.354 8.089-16.395 11.655-21.747 10.333-2.815.545-11.06-1.993-13.519-4.244-1.73-.225-7.735-4.162-9.646-6.092-.965-.429-2.086-1.412-2.738-2.431-1.168-.336-2.199-1.646-3.203-2.565-.365.682-.986-.019.098 1.182 9.23 9.01 16.933 17.276 30.576 19.09 5.77.767 12.268-.376 18.687-4.233 3.074-1.847 5.629-4.066 6.963-6.849 1.525-3.182.423-5.445-1.698-9.457 11.532.774 13.536 11.981 6.22 19.464-3.286 3.362-5.538 3.647-9.172 5.72l-.322.259 3.606-1.29 3.3-1.735c.642 9.424-17.89 23.435-33.843 12.215-2.654-1.866-8.504-7.184-10.59-10.098l-.17-.177c-1.273 1.088-.498 1.066-1.16 3.393-.274.967-.773 2.607-1.222 3.581-.943 2.047-2.567 4.703-4.096 6.732a84 84 0 0 0-1.478 2.015q.19.095.38.189c3.766-5.895 4.433-3.373 7.579-14.971.427.162.203.01.744.412.002.003.59.516.62.546 4.332 4.294 7.492 8.263 13.784 11.171 2.07.956 3.635.977 5.669 2.052m7.03 11.086c-.719-.798-.684-.763-1.865-.508-.424.092-.496.168-.65.226q1.253.156 2.515.282" clip-rule="evenodd"/><path fill="#F3A141" fill-rule="evenodd" d="M26.332 155.553c.222-3.025 2.612-7.172 3.97-10.032 2.538-5.351 1.726-2.678 2.409-2.498-.673 1.03-.927 2.076-1.169 3.311l-1.942 9.585c-.51-.924-.384-2.508-1.05-4.101-1.087 1.105-1.547 2.552-2.218 3.735m13.311-63.284c.34.558.857.163-.062.616-.28.755-.615 3.137-.676 4.304-.072 1.353.228 3.403-.268 4.643 1.093 2.388.881 8.92 2.245 11.244.82 2.063 1.115 8.944.731 10.521-.2.824-.068.551-.527.88.145 1.163-.297 3.016-.64 4.199l-2.465 7.179c-.263.796-.562.881-.814 1.743-.335 1.145.162.422-.447 1.834-1.325 3.068-1.21 4.879-2.823 9.015-.43 1.101-.542 3.814-1.194 5.386-.42-2.768.244-7.943.819-10.146l2.726-9.375c-.039-.125.027-.184.033-.277-2.11 1.937-8.299 11.676-9.704 14.903-.185.424-1.856 4.698-2.005 4.884l-.17-.126a101 101 0 0 0 6.12 13.915c2.49-.898.262-.133 2.468-.359.939-.096.265-.35 1.71-.1 2.502.433 5.258.283 7.353-.815 3.13-1.639 1.605-.157 4.121-.779 3.089-.763 4.974-.251 8.463-2.145l1.22.78 1.712-.987 1.348 1.32c.066.052.177.122.232.164s.151.119.238.158l-1.06-2.079c.874.366 1.002.834 1.565 1.783l.406-1.072c-6.813-10.788-7.332-18.765-7.497-29.277-.082-5.244 1.012-22.889-3.408-27.926l-.555.171c-.595-.008-.356-.194-1.166.649-1.55 1.612-2.673 2.007-4.535 2.747-1.165.463-.004.122-1.062.945-.379-1.003-1.332-6.812-1.021-7.796-1.38-3.24.181-9.758.628-12.642.243-1.57-.34-.672.907-1.65.485-1.418-.289-2.349.885-3.966-.476-.062.243-1.06-1.082.475-1.514 2.923-1.707 3.763-2.749 7.059m-20.815 21.812c.834-.471 1.518-1.034 1.97-1.715.42-.635.174-.252.33-.823a23 23 0 0 1-2.209 1.129q-.05.703-.09 1.409" clip-rule="evenodd"/><path fill="#FEFEFE" fill-rule="evenodd" d="M59.736 105.169c-.48-2.284.228-1.141 1.231-3.251.728-1.532.081-1.624 1.59-2.766.175 2.278-.542 1.212-1.501 3.017-1.092 2.056.52 1.223-1.32 3m3.952-8.186c.204-.579.78-.944 1.457-1.05.036.61.515.393-.223 1.021-1.395 1.188-.764.162-1.234.029m-21.1-8.282c.843 2.322 1.177 3.95 2.231 6.422.746 1.75 2.526 4.51 2.426 6.098.797.896.934 1.357 1.448 2.503.354.793.76 1.711.7 2.554 4.42 5.036 3.326 22.681 3.408 27.926.164 10.511.684 18.488 7.496 29.276 4.372 7.114 10.408 13.115 15.628 19.167 14.846 14.144 19.874 13.761 37.685 13.991 2.021.026 4.465-1.395 6.427-1.177 3.634-2.073 5.886-2.358 9.172-5.719 7.316-7.484 5.312-18.691-6.22-19.464 2.121 4.011 3.223 6.274 1.698 9.456-1.334 2.784-3.889 5.002-6.963 6.849-6.419 3.857-12.917 5-18.687 4.233-13.643-1.814-21.346-10.08-30.576-19.09-.816-1.63-2.769-3.548-4.013-5.061-3.044-3.705-5.727-8.043-7.113-12.663-.31-1.031-1.3-5.242-1.165-5.878-1.443-5.049-1.207-13.12-.572-17.322 1.723-11.405 6.22-20.576 13.59-29.872 2.155-2.72 5.003-5.02 5.217-6.897.3-2.637.486-5.326 2.861-7.562l-1.468-1.73c-1.222-.08-.558-.322-2.012.693-2.098 1.467-1.332 1.274-4.767 3.196-2.799 1.568-3.674 1.164-6.134 3.4-1.582 3.209-2.385 1.852-2.924 3.745-.35 1.227.392.925-.44 2.325-.522.877-1.052 1.01-1.597 1.752-1.44 1.963-.606 3.342-1.115 4.364-.413.833-1.549 1.499-1.525 3.782l.016-4.196c.195-1.024 1.404-2.553 1.674-3.944.425-2.196-.367-2.011 1.66-3.924 1.519-1.434 1.57-2.788 2.537-3.622-.103-1.071.382.01-.31-.687-.553-.558-3.585-.236-4.184-.081-.757 1.415-1.375 1.115-2.092 2.279-.653 1.056-.049 1.233-.886 2.482-2.68 3.998.552 2.94-1.987 5.321-.953-2.573.145-.297.935-5.626.218-1.474.743-1.056 1.589-2.26.722-1.027.363-1.357 1.086-2.246-1.038-.683-.004-.086-.814-.454l-2.074-.607c-2.73-.798-5.55-2.23-7.516-4.512l-1.444-1.186c-1.174 1.617-.4 2.548-.886 3.966" clip-rule="evenodd"/><path fill="#E2903A" fill-rule="evenodd" d="M36.37 177.248c5.917 1.036 12.373 1.34 18.51 2.185 5.842.804 11.385 3.553 16.265 5.46 1.384-1.296.465.087 2.643-.428 1.153-.273 1.697-.963 2.137-1.818-5.22-6.052-11.256-12.053-15.627-19.167l-.406 1.072c-.563-.949-.69-1.416-1.565-1.783l1.06 2.079c-.087-.039-.183-.116-.238-.158s-.166-.112-.232-.164l-1.348-1.319-1.712.986-1.22-.78c-3.489 1.894-5.374 1.382-8.463 2.145-2.516.622-.992-.86-4.121.779-2.095 1.098-4.85 1.248-7.353.815-1.445-.249-.771.004-1.71.1-2.206.226.023-.539-2.469.359a101 101 0 0 0 5.85 9.637" clip-rule="evenodd"/><path fill="#404042" fill-rule="evenodd" d="M57.9 61.364c4.538-4.713 12.21-.612 7.418 4.026-4.538 4.391-12.139.878-7.418-4.026M42.392 85.21c1.325-1.535.606-.537 1.081-.475l1.445 1.186c2.016.01 7.076 2.324 13.093-.02-.433-.115-.31-.116-.915-.131-.927-.024-2.53.374-5.247.36-5.504-.029-10.727-2.19-10.385-9.076.053-1.077.417-2.02.338-2.9.04.013.068.032.096.077 1.537 2.56 2.596 5.723 9.213 5.665 3.884-.034 8.287-1.152 12.472-3.392 4.554-2.438 8.167-5.066 9.462-9.027 1.944-5.944-2.308-8.205-4.921-9.934 1.93.196 3.24.834 4.999 1.596-1.092-1.835-2.578-1.415-4.175-1.879-2.54-.738-4.4-1.166-7.5-.427-4.212 1.005-9.451 2.678-13.605 6.22-3.321 2.834-4.312 3.84-6.259 7.447-.768 1.424-1.655 4.885-1.675 6.507l-.01.753c.017 4.043 2.197 4.756 2.493 7.45" clip-rule="evenodd"/><path fill="#BC6B2D" fill-rule="evenodd" d="M71.145 184.893c.966.862 1.472.82 2.43 1.521.748.549 1.41 1.277 2.13 1.927 1.582 1.43 3.017 2.766 4.228 4.535l2.084 1.759.17.177c-.892-1.674-.377-.51-.137-1.188 4.605 4.839 14.016 10.489 20.085 12.025 5.761 1.459 13.743-1.768 18.08-6.12 1.261-1.265 3.145-3.369 3.106-5.099l-3.606 1.29.321-.259c-1.961-.218-4.406 1.202-6.426 1.177-17.81-.23-22.839.153-37.685-13.991-.44.855-.984 1.545-2.138 1.818-2.177.515-1.259-.868-2.643.428" clip-rule="evenodd"/><path fill="#000" fill-rule="evenodd" d="M58.011 85.901c1.819-.476 4.557-1.146 6.264-2.379 1.359-1.235 3.317-2.074 4.96-2.985 1.638-.91 2.996-2.378 4.466-3.191 1.065-.535 2.984-2.653 3.295-3.68.04-.1.113-.21.153-.282l.149-.275 1.453-5.265c-.007-.65-.051-1.283-.231-1.97-.585-2.228-2.11-4.053-3.923-5.326-.978-.686-.96-.439-1.474-1.41-1.758-.76-3.068-1.399-4.999-1.594 2.613 1.728 6.865 3.99 4.922 9.933-1.296 3.961-4.909 6.59-9.463 9.027-4.185 2.24-8.588 3.358-12.471 3.392-6.617.058-7.677-3.106-9.214-5.665a.16.16 0 0 0-.096-.076c.08.879-.285 1.822-.338 2.899-.342 6.887 4.881 9.047 10.385 9.076 2.718.014 4.32-.384 5.247-.36.606.015.483.016.915.131" clip-rule="evenodd"/><path fill="#FEFEFE" fill-rule="evenodd" d="M66.785 115.281c2.642 4.683 9.574 6.495 14.583 8.508 7.572 3.043 11.98 7.607 15.22 4.959-.76-4.001-4.116-7.615-6.944-10.315-3.231-3.085-5.6-4.145-8.554-6.334-.972-.2-2.667-1.134-3.734-1.583-1.47-.618-2.53-.976-4.133-.995-3.742-.045-6.222 3.386-6.438 5.76" clip-rule="evenodd"/><path fill="#CF3938" fill-rule="evenodd" d="M65.947 122.873c.434 1.29.315 2.208.245 3.163 1.4.412 1.98 1.705 2.796 3.141 3.529 6.208 2.846 5.632 4.898 11.732-1.427.205 1.609.066-.551-.141-.79-.076-.335-.261-.575.272-.84 1.853.838 2.347-.705 3.981-.413.437-.65.494-1.089.935-.732.735-.808.969-.822 1.947l.533 9.603c1.905-.788 2.992.338 4.781.023.073-1.825.767.274.83-2.774l-.1-2.256c-.04-1.033-.138-2.265-.123-3.241.029-1.813.502-1.027-.357-3.036 2.244-1.596 2.388-3.151 1.372-5.485 1.612-.795.129-.657 1.556.207-.406-.83-.611-1.052-.306-2.19l.337-.981c.142-.208-.372-.881.559-.327.223-.795-.658-6.859-.762-9.29-.134-3.127-.28-2.131.493-2.911-2.216-.688-4.365-1.588-6.414-2.301-2.41-.837-4.252-1.251-6.551-2.162-.5 1.062-.075.822-.045 2.091" clip-rule="evenodd"/><path fill="#EC7468" fill-rule="evenodd" d="M79.433 166.444c1.607 2.079 5.232 3.532 7.231 4.395-1.608-.449-2.147-.478-3.929-1.362-1.032-.513-3.114-1.59-3.549-2.157l-.468.641c-.116-.064-.2.212-.264.341-.638-1.08-.256-.668-.348-.291-.403 1.652.06-1.519.067.788-3.013 1.428-1.591 1.232-3.183 2.501-.99.791-3.151 1.609-3.424 1.809.652 1.019 1.774 2.002 2.738 2.431 1.552.161 1.305.412 2.46.803 4.679 1.581 10.184 2.392 15.237 1.398l2.778-.213c.33-3.395-1.186-8.09-1.977-11.955l-1.09-.352c-2.18.081-4.617-2.321-6.803-2.541-.527.445-.004.279-.109.948-.007.045-.036.176-.044.215-.01.058-.103.342-.135.449-.755.192-.685.035-.913.041-2.49.055-4.305 2.054-4.275 2.111" clip-rule="evenodd"/><path fill="#F9CC96" fill-rule="evenodd" d="M18.944 112.315c.385-.161.637-.291 1.087-.48 1.596-.669.96-.633 1.097-.292-.156.571.09.188-.33.823-.452.681-1.136 1.244-1.97 1.715q-.034.617-.06 1.235l4.613-2.156c.347-2.25.174-2.779 1.1-4.678 1.186-2.431 2.201-2.468 3.517-4.268-1.547-1.456-4.843-2.9-7.675-2.608a102 102 0 0 0-1.379 10.709" clip-rule="evenodd"/><path fill="#A15625" fill-rule="evenodd" d="m24.401 153.696.171.126c.149-.186 1.82-4.46 2.005-4.884 1.405-3.227 7.593-12.966 9.703-14.903-.005.093-.07.152-.032.277l-2.726 9.375c-.575 2.204-1.238 7.378-.82 10.147.653-1.572.766-4.286 1.195-5.387 1.613-4.136 1.498-5.947 2.823-9.015.61-1.412.112-.689.447-1.834.252-.862.551-.946.814-1.743l2.465-7.179c.343-1.183.785-3.036.64-4.199l-6.527 7.969c-.672.929-1.278 1.569-1.875 2.444-1.205 1.77-2.31 3.776-3.283 5.497l-1.58 3.248c-.027.062-.064.152-.092.214l-1.217 2.187c-.207-1.595-.314-.532.273-1.987l1.923-4.373c.675-1.333 1.932-4.342 3.204-5.336-.589-.29.62-.415-1.068-.129-2.011.341-1.956 3.531-5.676 5.297l.508 6.324c-.684-.366-.276 1.264-.706-.809-.64 1.533.275 2.699.35 4.303-.73-.332-.62-.176-.845-.94-1.032-.084.212.47-1.226-.439a7 7 0 0 1-.877-.68 101 101 0 0 0 2.03 6.429m-5.734-32.858c.72-1.152 1.518-2.229 2.2-2.997 5.461-6.154 9.366-6.224 15.29-6.416 1.813.191 1.853-.151.876-1.882l.317 1.277c-2.347-.608-5.549-.618-8.624.558-1.257.297-.721.725-2.126.542l.29-2.054c-1.438 2.444.134 1.685-2.284 3.395-2.293 1.622-4.31 3.542-5.94 5.701-.003.346-.01.691-.01 1.038 0 .28.009.559.01.838" clip-rule="evenodd"/><path fill="#D17D35" fill-rule="evenodd" d="M95.417 218.334c2.097-3.914 5.186-6.09 9.639-6.99-.061-1.004-.282-.61.55-1.54l-2.768-.049c-2.3 2.221-10.01-.414-13.055-1.922-1.194-.59-2.84-1.793-3.926-2.249-.658 1.906-1.585 3.295-3.176 5.182-.39.462-1.448 1.493-2.432 2.48 4.872 2.08 9.94 3.786 15.168 5.088" clip-rule="evenodd"/><path fill="#FEFEFE" fill-rule="evenodd" d="M110.03 107.855c-2.133-4.199-4.866-8.29-8.07-11.402-1.598-1.552-3.216-2.885-4.912-3.632-1.39-.613-3.963-1.12-5.53.021l-3.666 1.997c2.305 3.476 18.193 18.31 21.414 15.014.593-.606.206-.19.461-.926l.22-.798c.019-.065.044-.187.083-.274" clip-rule="evenodd"/><path fill="#E2903A" fill-rule="evenodd" d="M20.324 101.606c2.831-.292 6.128 1.152 7.674 2.608-1.315 1.8-2.33 1.837-3.516 4.268-.927 1.899-.754 2.428-1.1 4.678l-4.615 2.156q-.081 1.815-.101 3.646c1.63-2.16 3.647-4.08 5.94-5.701 2.418-1.71.846-.951 2.283-3.395l-.289 2.054c1.405.183.869-.245 2.126-.542l-.736-.245c1.274-2.292 1.306-4.903 5.687-6.933 2.987-1.385 2.622-.468 2.752-.286l1.227-1.601c-.625-.986-2.11-.21-3.152.289-1.144.547-2.412 1.273-3.405 2.023-2.211 1.671-3.22 3.366-4.254 5.273.383-2.079 2.241-4.111 4.352-5.958-2.903-2.505-7.053-4.11-10.575-3.881q-.155.771-.299 1.547" clip-rule="evenodd"/><path fill="#A15625" fill-rule="evenodd" d="M80.249 213.247c.984-.988 2.043-2.019 2.432-2.481 1.59-1.886 2.518-3.276 3.176-5.182 1.086.456 2.732 1.659 3.926 2.249 3.045 1.508 10.755 4.143 13.055 1.922-2.034-1.075-3.598-1.096-5.669-2.052-6.292-2.908-9.452-6.877-13.784-11.171-.03-.03-.618-.543-.62-.546-.541-.402-.317-.25-.744-.412-3.146 11.598-3.813 9.076-7.578 14.971q2.853 1.44 5.806 2.702" clip-rule="evenodd"/><path fill="#D17D35" fill-rule="evenodd" d="M25.168 139.507c3.72-1.765 3.665-4.955 5.677-5.296 1.687-.286.478-.161 1.067.129-1.271.994-2.528 4.003-3.204 5.336l-1.923 4.373c-.587 1.455-.48.392-.272 1.987l1.216-2.187c.028-.062.065-.152.092-.214l1.58-3.248c.973-1.721 2.078-3.727 3.283-5.497.597-.875 1.203-1.515 1.875-2.444l6.527-7.969c.46-.329.327-.056.527-.88.384-1.577.088-8.458-.731-10.521l-1.05.512c.271.584.404 1.394.377 1.753-.093 1.177.222-.143-.198.381l-7.246 7.958a4 4 0 0 1-.203.194l-4.911 4.569c-1.953 2.079-2.895 8.271-2.483 11.064" clip-rule="evenodd"/><path fill="#E64141" fill-rule="evenodd" d="m75.459 157.53 5.99 2.372c2.17 1.049 8.834 4.146 10.263 5.319-.175-1.418-6.191-11.698-7.416-14.268a85 85 0 0 1-2.898-6.849c-.762-2.04-1.268-4.929-2.172-6.658-.931-.554-.417.119-.56.327l-.336.981c-.305 1.138-.1 1.36.306 2.191-1.427-.865.056-1.003-1.555-.208 1.015 2.334.871 3.889-1.373 5.485.86 2.009.386 1.223.357 3.036-.015.976.083 2.208.122 3.242l.102 2.255c-.064 3.048-.758.95-.83 2.775" clip-rule="evenodd"/><path fill="#CBD4DA" fill-rule="evenodd" d="M92.802 165.573c.791 3.865 2.307 8.56 1.976 11.955.432 2.484-.208 4.969 1.941 7.54l.75.808c5.352 1.322 17.393-2.244 21.747-10.333.945-1.756.892-1.771 1.462-3.501.769-2.332 1.369-1.356.915-3.76l-1.7 1.309c-1.547-1.916-.493-4.595-.361-6.418.137-1.873.193-3.688-1.245-5.301a5 5 0 0 0-.704-.618l-.865-.428 1.162 2.336c.442 2.284-.131 5.401-.511 7.1-.123.549-.732 2.558-1.098 3.154-1.341 2.181-2.851-.22-2.651 1.91.856-.463.904-.525 1.614-.039 1.087.743 4.264 3.591 1.231 4.59-.898-2.178-2.711-3.188-2.884-4.507l-1.332.81c1.514 1.785 3.699 2.883 3.49 5.614-2.494 2.036-3.936-1.696-5.43-4-.634.434-.28.299-1.047.332 1.303 1.691 5.238 6.216 1.145 6.28-.394-.395-2.478-4.568-2.749-5.259-1.262.58-.182.29-1.619.53 4.686 3.704 1.657 7.198.193 6.589-.845-.573-.591-1.685-.787-3.118-.245-1.782-.99-2.496.26-3.508l-1.179-.073c-.103-.088-.199.008-.287.007l-.694-1.527a3 3 0 0 0-.009.35c.003.095-.008.224-.001.339l.867 3.757c1.01 6.088-5.126 7.008-7.26 1.622-1.697-4.283-1.043-9.269-4.243-16.539-.368 1.088-.38.617-.097 1.997" clip-rule="evenodd"/><path fill="#36110E" fill-rule="evenodd" d="M56.17 148.124c-.134.636.856 4.847 1.165 5.878 1.387 4.62 4.07 8.958 7.113 12.663 1.245 1.513 3.197 3.431 4.013 5.061-1.084-1.201-.462-.5-.098-1.182l-.554-.77c-2.242-1.508-6.358-6.965-7.534-10.072.897-.191 1.91-.317 2.694-.303 1.17.021 1.8.386 2.685.258.027-.391-2.282-.692-3.196-.698l-2.31.435c-.982-1.548-1.206-2.771-1.776-4.504 1.538-.879 3.397-3.583 3.911-4.93l.178-.672c.51-2.089 1.26-1.769 2.164-3.359l.664-1.768c.656-1.212 1.818-1.989-.078-5.933l1.101-.407c-.86-2.882-.89-3.259-2.821-6.244l-.477.273c-.636.601-.832 2.054-2.307 2.131-1.373.274-1.062.171-2.225-.251l-.906.291c-.223 2.497-.682 4.214-.975 6.839-.202 1.808.014 6.038-.43 7.264" clip-rule="evenodd"/><path fill="#F3A141" fill-rule="evenodd" d="M82.188 194.812c2.086 2.914 7.936 8.232 10.59 10.098 15.953 11.22 34.485-2.791 33.843-12.215l-3.3 1.735c.04 1.73-1.845 3.834-3.106 5.099-4.337 4.352-12.319 7.579-18.08 6.12-6.069-1.536-15.48-7.186-20.085-12.025-.24.678-.755-.486.138 1.188" clip-rule="evenodd"/><path fill="#8F2728" fill-rule="evenodd" d="m63.994 128.038 1.675-.028c1.24 1.746 3.118 4.183 3.333 6.129.12 1.028.01.147-.27.923l-.266.665c-.271 1.214.458 1.722.01 3.414-.407 1.54-.401-.609-.28 1.659.036.653.179.949.33 1.779.472 2.596-.784.554-.513 4.746.307 4.762-2.488 6.696-3.12 7.777l-2.435 3.857c.914.006 3.223.307 3.196.698h1.158c1.13-1.189 3.263-1.159 4.77-1.146 2.276.018 3.49.272 5.471.974 3.091.636 1.252.285 3.885 1.201l3.97 1.994c2.186.22 4.624 2.622 6.804 2.541-1.43-1.173-8.094-4.271-10.263-5.319l-5.99-2.373c-1.79.315-2.877-.811-4.782-.023l-.533-9.603c.014-.978.09-1.211.822-1.947.439-.44.676-.498 1.09-.935 1.542-1.634-.135-2.128.703-3.981.24-.533-.214-.348.576-.272 2.16.207-.876.346.551.141-2.052-6.1-1.37-5.524-4.898-11.732-.817-1.436-1.396-2.729-2.796-3.141l-.308.084c-.06.527.329.315-.518 1.148-.481.473-.795.508-1.372.77" clip-rule="evenodd"/><path fill="#B7B7B9" fill-rule="evenodd" d="m55.322 91.493.95-.72.405.77c.6-.154 3.631-.476 4.184.081.692.698.207-.383.31.688.434-.31.204-.32.75-.421 1.002-.187.168-.325.964.138 2.46-2.235 3.336-1.832 6.134-3.399 3.435-1.922 2.67-1.73 4.767-3.196 1.454-1.015.79-.773 2.012-.693-1.664-1.779-4.448-3.362-6.177-3.79-.92.125-3.82 2.75-5.346 2.572-1.707 1.232-4.445 1.902-6.264 2.378-6.017 2.344-11.077.03-13.093.02 1.966 2.282 4.786 3.714 7.516 4.512l2.074.607c.81.368-.223-.23.814.453" clip-rule="evenodd"/><path fill="#111224" fill-rule="evenodd" d="m37.656 102.313-1.227 1.601c-.115 1.481-.341 3.508.604 5.629.977 1.731.937 2.073-.876 1.881-7.097 1.591-9.818 5.167-12.578 11.984l-1.48 5.333c.132 3.183-.375 5.687.076 9.453.32 2.665 1.099 7.649 2.3 10.192.225.764.115.608.846.94-.076-1.604-.99-2.77-.351-4.303-1.47-3.346-.713-14.754.574-18.635.786-2.367 2.33-5.601 4.71-8.062 1.957-2.025 7.27-5.113 9.579-4.738l1.049-.512c-1.364-2.324-1.152-8.856-2.245-11.244l-.548-.587z" clip-rule="evenodd"/><path fill="#EC7468" fill-rule="evenodd" d="m61.733 122.207.885-.512 2.318-.644 1.011 1.823c-.03-1.27-.454-1.03.045-2.092-.349-.969-.23-1.669-.122-2.614.153-1.339.112-1.827.915-2.887.216-2.374 2.696-5.805 6.438-5.76 1.603.02 2.663.377 4.133.995 1.067.449 2.762 1.383 3.734 1.583l1.381-1.398-1.917 1.146-6.846-2.727c-.116-1.615-.201-1.655.604-2.805 1.807-2.516 5.898-.572 7.154 1.203 1.025.688.92.64 1.369 2.032l-.447-2.155c-.059-.149-.024-.212-.002-.315-1.498.042-1.745-.82-3.212-1.547-2.201-1.093-1.717.08-3.265-1.319.524-.96.306-.865 1.202-1.809.79-.92 1.686-1.152 2.81-1.045-.35-.237-.265-.175-.67-.828 1.23-2.794 8.656-6.163 11.852-8.2.473-1.13.52-1.561.7-2.681.175-1.094.283-1.162-.148-1.96a.5.5 0 0 0-.122-.156c-7.062 2.513-15.054 10.899-19.145 15.983-2.853 3.544-10.789 15.77-10.655 18.689" clip-rule="evenodd"/><path fill="#F9CC96" fill-rule="evenodd" d="M105.638 220.326c-.487-1.669-1.369-3.182-1.276-4.732.072-1.209.603-2.9 2.055-3.932-2.801-.367-6.931 1.857-9.128 4.225-.761.821-1.347 1.617-1.801 2.465 3.321.825 6.708 1.485 10.15 1.974" clip-rule="evenodd"/><path fill="#FEFEFE" fill-rule="evenodd" d="M92.9 163.576c3.198 7.27 2.545 12.255 4.241 16.539 2.134 5.386 8.271 4.466 7.261-1.622l-.867-3.757c-.007-.115.003-.244.001-.339a3 3 0 0 1 .009-.35l-.547-1.389-.104-.326-2.722-4.926c-1.062-1.457-2.193-2.715-3.357-3.731-1.481-1.293-2.372-2.288-4.076-1.073-.1.775-.24.273.16.974" clip-rule="evenodd"/><path fill="#6E191C" fill-rule="evenodd" d="m62.224 129.426.79 2.423.477-.272c1.93 2.985 1.962 3.362 2.821 6.244l-1.101.407c1.896 3.944.734 4.721.078 5.933l-.665 1.768c-.903 1.59-1.654 1.269-2.163 3.359l-.178.672c-.514 1.347-2.373 4.051-3.911 4.93.57 1.733.794 2.956 1.775 4.504l2.31-.435 2.437-3.857c.631-1.081 3.426-3.015 3.12-7.777-.271-4.192.984-2.15.512-4.746-.15-.83-.293-1.126-.329-1.779-.122-2.268-.128-.119.28-1.659.447-1.692-.282-2.2-.011-3.414l.266-.665c.28-.776.39.105.27-.923-.215-1.946-2.093-4.383-3.333-6.129l-1.675.028c-.977.075-.735.152-1.561-.236z" clip-rule="evenodd"/><path fill="#E64141" fill-rule="evenodd" d="m67.81 169.774-.568-1.15c3.946-1.158 1.972-1.168 5.532-3.174l-.168-1.451c-.002-.061-.013-.182.004-.272 1.143 1.26.439.534 1.183 1.854-.11-.539-.169-1.165-.25-1.691 1.695 1.599 3.765 1.951 5.643 3.43.435.568 2.517 1.644 3.55 2.157 1.781.884 2.32.913 3.928 1.362-2-.863-5.624-2.316-7.23-4.395-1.278-.176-5.263-3.229-5.543-3.85l2.712-2.435c.357-.358.694.11.45-.673-1.98-.703-3.195-.957-5.47-.975-1.507-.013-3.64-.043-4.77 1.146h-1.159c-.886.128-1.516-.237-2.685-.258-.783-.014-1.797.112-2.694.303 1.176 3.107 5.292 8.564 7.534 10.072" clip-rule="evenodd"/><path fill="#F3A141" fill-rule="evenodd" d="M24.97 145.023c.43 2.073.022.443.706.808l-.508-6.324c-.413-2.793.53-8.985 2.482-11.064l4.912-4.569c.074-.065.135-.126.203-.194l7.245-7.958c.42-.524.106.796.198-.381.028-.359-.105-1.168-.376-1.753-2.308-.375-7.622 2.713-9.579 4.738-2.379 2.461-3.923 5.695-4.709 8.062-1.288 3.881-2.043 15.289-.575 18.635" clip-rule="evenodd"/><path fill="#F6B567" fill-rule="evenodd" d="M19.102 129.487c.278-.407.557-.776 1.493-1.093 1.424-.189.153-.255 1.505.347l1.479-5.333c2.76-6.817 5.48-10.393 12.578-11.983-5.923.192-9.829.262-15.29 6.416-.681.768-1.479 1.845-2.2 2.997q.038 4.373.435 8.649" clip-rule="evenodd"/><path fill="#E85954" fill-rule="evenodd" d="m102.998 172.658.547 1.389.694 1.527c.088.001.184-.095.287-.007l1.179.073c.303-.162.199-.619.334.037 1.437-.24.356.05 1.619-.53-.034-.303-.352-.326.363-.93 1.147-.968.819-.426 1.241-.091.767-.033.413.102 1.046-.332-.002-1.077.024-1.194 1.257-1.994l.684.38 1.332-.81.039-.044c-.2-2.13 1.31.271 2.651-1.91.366-.596.974-2.605 1.098-3.154.38-1.699.953-4.816.511-7.1-.433.346-.919.692-1.275 1.06-2.247 2.327-.765.731-3.058 2.618-1.479 1.218-2.656 2.242-4.142 3.188-1.299.827-.163.373-1.188 1.452-.805.848-1.282.67-2.116 1.704-.336.417-.777 1.326-1.172 1.873-.696.963-.783 1.117-1.931 1.601" clip-rule="evenodd"/><path fill="#F3A141" fill-rule="evenodd" d="M22.372 147.267c.316.28.613.512.877.68 1.438.908.194.354 1.226.439-1.201-2.543-1.98-7.527-2.3-10.192-.45-3.766.056-6.27-.076-9.454-1.352-.602-.08-.535-1.505-.346-.935.317-1.215.686-1.492 1.093a101 101 0 0 0 3.27 17.78" clip-rule="evenodd"/><path fill="#CBD4DA" fill-rule="evenodd" d="M105.056 211.344c1.285-.1 2.005.093 2.925-.277 1.767-.712 1.124-1.066 2.885-.726 1.488 1.528.449 1.412 1.939 2.862 2.694 2.623 3.237 2.273 4.177 7.545 4.257-3.91 2.209-6.488 3.228-8.01.508-.759 4.889-4.631 2.866-10.236l-1.725 1.642c.877 2.321.107 5.26-2.69 6.358-1.362-1.448-.92-2.246-.784-3.808l-2.297.892c-4.019 2.007-6.277 1.786-9.974 2.218-.832.93-.612.536-.55 1.54M65.992 120.782c2.3.911 4.142 1.325 6.551 2.162 2.049.713 4.198 1.613 6.414 2.301 1.773.947 3.425 1.545 5.055 2.374 1.874.952 3.109 1.816 4.684 2.585 2.193 1.069 8.832 4.432 7.893-1.456-3.24 2.648-7.65-1.916-15.222-4.959-5.008-2.013-11.94-3.825-14.583-8.508-.802 1.06-.761 1.548-.914 2.887-.108.945-.227 1.645.122 2.614" clip-rule="evenodd"/><path fill="#FEFEFE" fill-rule="evenodd" d="m115.151 156.42 1.567.406.865.428c.209.149.54.433.704.618 1.438 1.613 1.382 3.427 1.245 5.301-.132 1.823-1.186 4.502.361 6.418l1.7-1.309c.451-.348.218.095.37-1.016.062-.452.063-.843.091-1.226.426-5.704-.082-14.398-6.142-16.848-1.869.833-1.849 1.676-1.662 3.255.139 1.171.468 2.819.901 3.973" clip-rule="evenodd"/><path fill="#A15625" fill-rule="evenodd" d="M24.74 85.345c.624.413 1.182.801 1.587 1.076 1.901 1.294 4.338 2.93 5.923 4.451.319-.567.927-.672-.077-3.103-1.59-3.854-4.295-4.842-6.102-5.88a101 101 0 0 0-1.331 3.456" clip-rule="evenodd"/><path fill="#E64141" fill-rule="evenodd" d="M83.95 181.632c1.846-.243 1.206.086 2.753.417l2.829.352c1.699.222 4.228.004 5.784.236l1.403 2.431c-2.15-2.571-1.509-5.056-1.94-7.54l-2.778.213c-5.053.993-10.558.183-15.237-1.398-1.155-.391-.908-.642-2.46-.803 1.912 1.93 7.915 5.867 9.646 6.092" clip-rule="evenodd"/><path fill="#FEFEFE" fill-rule="evenodd" d="M57.9 61.364c-4.72 4.904 2.88 8.417 7.418 4.026 4.792-4.638-2.88-8.739-7.417-4.026M78.785 81.801l1.137 2.1c1.573-.501 2.197-.995 3.913-1.058 1.75-.065 2.35.692 3.476.733 1.758.063 5.133-2.445 7.4-2.23-3.452-1.995-6.195.831-8.457-1.187-2.298-2.051-5.342-4.193-7.312-6.078-.936 1.459.295 1.732-.027 4.041-.28 2.004-1.008 1.416-.13 3.68" clip-rule="evenodd"/><path fill="#E64141" fill-rule="evenodd" d="m105.483 166.056.918-.183c-.017.161-.099.211-.072.317.173.684-3.036 5.535-3.435 6.142l.104.326c1.148-.484 1.235-.638 1.931-1.601.395-.547.836-1.456 1.172-1.873.834-1.034 1.311-.856 2.116-1.704 1.026-1.079-.111-.625 1.188-1.452 1.486-.946 2.663-1.97 4.142-3.188 2.293-1.888.811-.291 3.058-2.618.356-.368.842-.714 1.275-1.061l-1.161-2.335-1.568-.406c-3.014 1.131-4.59 2.191-6.022 4.687-.571.995-.959 1.908-1.336 2.83-.795 1.954-.297 1.24-2.31 2.119" clip-rule="evenodd"/><path fill="#CBD4DA" fill-rule="evenodd" d="M89.762 102.544c.612.65 1.35.553 2.452.962 2.65.984 5.237 2.831 7.573 4.521 2.616 1.893 7.667 6.85 10.542 3.776.764-1.342.38-2.351-.299-3.948-.039.087-.063.209-.082.274l-.221.798c-.254.736.132.32-.46.926-3.222 3.296-19.11-11.538-21.415-15.014l-.915.789c.334-.097-.357-.416.611.168 3.039 1.835 2.052 6.12 2.214 6.748" clip-rule="evenodd"/><path fill="#F7C17D" fill-rule="evenodd" d="m41.054 102.993.937 1.487.325-1.308c.413-.066 4.195-1.205 4.113-2.904l.816.953c.1-1.588-1.68-4.348-2.426-6.098-1.053-2.472-1.388-4.1-2.23-6.422-1.247.978-.664.08-.907 1.65-.447 2.884-2.009 9.402-.628 12.642" clip-rule="evenodd"/><path fill="#E85954" fill-rule="evenodd" d="m67.81 169.774.553.77c1.004.919 2.035 2.229 3.203 2.565.273-.2 2.434-1.018 3.424-1.809 1.591-1.269.17-1.073 3.182-2.501-.005-2.307-.47.863-.066-.788.091-.377-.29-.789.348.291.063-.129.147-.405.264-.341l.468-.641c-1.879-1.479-3.948-1.831-5.643-3.43.08.526.14 1.152.25 1.691-.745-1.32-.04-.594-1.183-1.854-.017.09-.006.211-.004.272l.168 1.451c-3.56 2.006-1.587 2.016-5.532 3.174z" clip-rule="evenodd"/><path fill="#F6B567" fill-rule="evenodd" d="M49.393 106.277c.06-.842-.346-1.76-.7-2.553-.513-1.146-.651-1.607-1.448-2.503l-.816-.953c.082 1.699-3.7 2.839-4.113 2.904l-.325 1.308-.937-1.487c-.31.984.642 6.793 1.02 7.796 1.059-.823-.102-.482 1.063-.945 1.862-.74 2.985-1.135 4.535-2.747.81-.843.571-.657 1.166-.649z" clip-rule="evenodd"/><path fill="#FEFEFE" fill-rule="evenodd" d="M107.354 220.559c.153-.058.225-.135.65-.226 1.18-.255 1.145-.29 1.864.508.394.039.79.07 1.186.105 3.602-.755 2.957-3.781 1.064-5.063-1.334-.904-.551-.244-1.174-.127-.115.023-.478.15-.601.176l-1.051.16c-3.468-.813-2.417-2.108-1.926-4.504l-.949.074c-1.452 1.033-1.983 2.723-2.056 3.932-.092 1.55.789 3.063 1.277 4.732.571.081 1.142.162 1.716.233" clip-rule="evenodd"/><path fill="#F7C17D" fill-rule="evenodd" d="M28.726 111.378c3.075-1.177 6.277-1.166 8.624-.558l-.318-1.277c-.944-2.121-.718-4.148-.603-5.629-.13-.182.234-1.099-2.752.286-4.382 2.03-4.413 4.641-5.688 6.933z" clip-rule="evenodd"/><path fill="#E85954" fill-rule="evenodd" d="M79.433 166.444c-.03-.056 1.784-2.056 4.275-2.111.228-.006.157.151.913-.041.032-.107.125-.391.135-.449.008-.039.037-.17.044-.215.105-.669-.418-.503.109-.948l-3.971-1.993c-2.633-.917-.794-.565-3.884-1.201.243.783-.094.315-.45.673l-2.713 2.435c.28.621 4.265 3.674 5.542 3.85" clip-rule="evenodd"/><path fill="#C7C7C8" fill-rule="evenodd" d="M84.422 96.784c.287-.167 1.054-.46 1.627-.389 1.697.208 3.522 3.516 2.338 5.096-1.505.038-1.26-.059-1.92-1.754-.655-1.684-.855-1.862-2.045-2.953m1.405 4.276c-1.478 2.045-4.294-.243-5.609-1.552 1.404-.585 1.976-1.16 3.243-.805 1.182.33 1.9 1.079 2.366 2.357m-5.905.3c.955.818.004.101.95.553.253.121.982.418 1.084.48.719.437 1.131 1.127 1.692 1.758 1.154-.489 2-.659 2.978-.78 1.548-.191 1.714-.694 3.136-.826-.162-.629.825-4.914-2.214-6.748-.968-.584-.278-.266-.611-.169l.915-.789 3.667-1.997-.416-.51c-3.196 2.037-10.622 5.406-11.852 8.2.405.653.32.591.67.828" clip-rule="evenodd"/><path fill="#CBD4DA" fill-rule="evenodd" d="m109.292 216.092 1.051-.16c.124-.026.486-.153.601-.176.623-.117-.16-.777 1.174.127 1.893 1.282 2.538 4.308-1.064 5.063q2.712.236 5.462.331c.537-2.786-1.36-5.338-4.283-8.147-1.335 1.614-.573 1.703-2.941 2.962" clip-rule="evenodd"/><path fill="#8F2728" fill-rule="evenodd" d="m97.469 185.876-.75-.808-1.403-2.431c-1.556-.232-4.085-.014-5.784-.236l-2.829-.352c-1.547-.331-.907-.66-2.753-.417 2.46 2.252 10.704 4.789 13.519 4.244" clip-rule="evenodd"/><path fill="#CBD4DA" fill-rule="evenodd" d="M58.483 133.73c1.162.422.851.525 2.224.251-2.15-1.975-1.43-5.076.524-5.96l.993 1.405.209-1.624c.826.388.584.311 1.561.236.578-.262.891-.297 1.372-.77.847-.832.458-.621.518-1.148-3.122 1.68-3.903-1.687-3.873-2.629.025-.822.066-.561.21-.974l.397-.822-.885.512c-1.307 1.492-1.72 3.984-2.361 5.691-.407 1.085-.589 1.831-.899 2.938-.33 1.181-.7 1.663.01 2.894" clip-rule="evenodd"/><path fill="#BC6B2D" fill-rule="evenodd" d="M26.332 155.553c.672-1.183 1.131-2.629 2.218-3.734.666 1.592.54 3.176 1.05 4.1l1.942-9.584c.242-1.236.496-2.281 1.169-3.312-.683-.18.13-2.853-2.41 2.498-1.357 2.86-3.747 7.007-3.969 10.032" clip-rule="evenodd"/><path fill="#B7B7B9" fill-rule="evenodd" d="M73.701 77.346c.205.278 4.917 4.386 5.083 4.455-.877-2.263-.149-1.675.131-3.678.322-2.31-.91-2.583.026-4.042-1.557-.966-.512-.858-1.945-.414-.311 1.026-2.23 3.144-3.295 3.679" clip-rule="evenodd"/><path fill="#FEFEFE" fill-rule="evenodd" d="M74.312 106.315c1.166 2.145 5.776 3.874 7.562 2.499l-.408-1.296c-1.256-1.775-5.347-3.719-7.154-1.203" clip-rule="evenodd"/><path fill="#CBD4DA" fill-rule="evenodd" d="m82.47 110.701.365-1.151c-.449-1.392-.344-1.344-1.369-2.032l.408 1.296c-1.786 1.375-6.396-.353-7.563-2.499-.805 1.15-.72 1.19-.604 2.805l6.847 2.727z" clip-rule="evenodd"/><path fill="#FEFEFE" fill-rule="evenodd" d="M110.309 173.794c1.494 2.304 2.936 6.036 5.43 4 .209-2.731-1.976-3.829-3.49-5.614l-.684-.38c-1.233.8-1.259.917-1.256 1.994" clip-rule="evenodd"/><path fill="#231C23" fill-rule="evenodd" d="M62.885 92.03c-.796-.464.038-.326-.965-.14-.545.102-.315.111-.749.422-.967.834-1.018 2.188-2.537 3.622-2.027 1.913-1.235 1.728-1.66 3.924-.27 1.391-1.48 2.92-1.674 3.944l-.016 4.196c-.023-2.283 1.112-2.949 1.526-3.782.508-1.022-.326-2.401 1.114-4.364.545-.742 1.075-.875 1.596-1.752.833-1.4.09-1.098.44-2.325.54-1.893 1.343-.537 2.925-3.746" clip-rule="evenodd"/><path fill="#EC7468" fill-rule="evenodd" d="M102.894 172.332c.399-.607 3.608-5.458 3.435-6.142-.027-.106.055-.156.072-.317l-.918.183c-2.219.894-3.529.774-5.311 1.35z" clip-rule="evenodd"/><path fill="#FEFEFE" fill-rule="evenodd" d="m65.884 126.12.308-.084c.07-.955.189-1.873-.245-3.163l-1.011-1.822-2.319.644-.396.822c-.144.413-.185.152-.21.974-.03.942.75 4.309 3.873 2.629" clip-rule="evenodd"/><path fill="#BB6E6C" fill-rule="evenodd" d="m121.352 204.144-5.771 3.442 2.296-.892c-.136 1.562-.578 2.36.784 3.808 2.797-1.098 3.567-4.037 2.691-6.358" clip-rule="evenodd"/><path fill="#FEFEFE" fill-rule="evenodd" d="M106.039 175.677c-.135-.656-.031-.199-.334-.037-1.25 1.012-.505 1.726-.26 3.508.196 1.433-.058 2.545.787 3.118 1.464.609 4.493-2.885-.193-6.589M107.658 175.147c.27.691 2.355 4.864 2.749 5.258 4.093-.063.158-4.588-1.145-6.279-.422-.336-.094-.877-1.241.091-.716.604-.397.627-.363.93M83.648 104.151c-.56-.631-.973-1.321-1.692-1.758-.102-.062-.83-.359-1.083-.48-.946-.452.004.265-.951-.553-1.125-.107-2.022.125-2.811 1.045 1.58 2.184 5.106 4.227 6.537 1.746M60.707 133.981c1.475-.077 1.67-1.53 2.307-2.132l-.79-2.423-.993-1.405c-1.954.884-2.673 3.985-.524 5.96" clip-rule="evenodd"/><path fill="#CBD4DA" fill-rule="evenodd" d="M82.386 107.08c1.787-.682 2.161-1.497 1.262-2.929-1.432 2.481-4.957.438-6.537-1.746-.897.944-.678.849-1.202 1.808 1.548 1.4 1.063.227 3.265 1.319 1.466.728 1.714 1.59 3.212 1.548" clip-rule="evenodd"/><path fill="#FEFEFE" fill-rule="evenodd" d="M80.218 99.507c1.316 1.31 4.13 3.598 5.61 1.553-.467-1.279-1.185-2.026-2.367-2.358-1.267-.355-1.839.22-3.243.805M86.05 96.395c-.574-.07-1.341.222-1.629.388 1.19 1.091 1.391 1.27 2.046 2.954.66 1.695.415 1.792 1.92 1.754 1.183-1.58-.641-4.888-2.338-5.096M113.581 171.37c.173 1.318 1.986 2.329 2.884 4.507 3.033-.999-.144-3.847-1.231-4.59-.71-.486-.758-.424-1.615.039z" clip-rule="evenodd"/><path fill="#231C23" fill-rule="evenodd" d="m56.677 91.544-.404-.77-.95.72c-.723.889-.365 1.219-1.087 2.246-.845 1.204-1.37.786-1.589 2.26-.79 5.329-1.887 3.053-.934 5.626 2.538-2.382-.694-1.323 1.986-5.321.837-1.249.234-1.426.886-2.482.718-1.164 1.336-.864 2.092-2.28" clip-rule="evenodd"/><path fill="#404042" fill-rule="evenodd" d="M59.736 105.169c1.84-1.777.228-.945 1.32-3 .96-1.805 1.677-.74 1.502-3.017-1.51 1.142-.862 1.234-1.59 2.766-1.004 2.11-1.711.967-1.232 3.251" clip-rule="evenodd"/><path fill="#231C23" fill-rule="evenodd" d="M63.688 96.983c.47.133-.161 1.158 1.234-.03.738-.627.259-.411.223-1.02-.676.106-1.253.471-1.457 1.05" clip-rule="evenodd"/><circle cx="120" cy="120" r="110.5" stroke="#E31F25" stroke-width="19"/></svg>