<svg xmlns="http://www.w3.org/2000/svg" width="240" height="240" fill="none"><path fill="#E31F25" fill-rule="evenodd" d="M120 240c66.274 0 120-53.726 120-120S186.274 0 120 0 0 53.726 0 120s53.726 120 120 120" clip-rule="evenodd"/><path fill="#fff" fill-rule="evenodd" d="M120 221.344c55.971 0 101.344-45.373 101.344-101.344S175.971 18.656 120 18.656 18.656 64.03 18.656 120 64.03 221.344 120 221.344" clip-rule="evenodd"/><path fill="#FDCFBF" fill-rule="evenodd" d="M127.085 96.683c-.003 3.165 4.408 8.198 7.847 10.255 2.074 1.24 4.432 2.141 7.083 2.668 1.589.316 2.871.425 4.455.886 1.123.326 3.195.797 4.353.354 5.203-.089 6.888-.446 10.333-2.6 2.059-1.287 5.976-5.617 3.121-8.921-1.51-3.111-7.139-5.037-10.879-5.484-11.409-1.366-16.558 4.762-25.522 2.076-4.223-1.265-7.245-3.852-7.178-8.202 3.179.677 2.739 2.463 4.199 2.58.168-2.44-3.353-3.904-6.309-3.539-.875.108-5.759 1.273-6.406 2.029-1.46 1.704 3.377-.364 3.382-.365 1.194-.359 2.675-.854 4.113-.704.357 4.835 2.713 7.25 7.408 8.967m43.636-15.587c-.359.603-.49.877-.221 1.895.685 2.598-.268 2.384.562 3.095.397.34 1.129.379 1.513.132 1.34-.867.215-5.085-1.854-5.122m-17.648-.46-1.298-.306c-.297 1.21.532 2.007 1.89 2.098l-.066-1.165c.352.309.39.172.647.852.146.386.141.594.084 1.055l.018 1.331c-3.36-1.176-11.226-1.937-11.538 1.983.829 1.396 3.478 2.994 5.803 3.38 2.799.465 4.711-.487 5.907-2.49.061-.993 1.722-2.742.572-5.702-.516-1.325-1.834-2.823-3.751-3.265-4.4-1.014-8.563 3.602-7.895 5.25.954-.16 1.421-1.558 1.923-2.145 2.35-2.75 6.493-3.09 7.704-.876m18.175 8.116c-3.465-2.57-11.465-2.88-12.223-1.457.67.685 2.763.601 3.959.846 1.194.243 2.33.59 3.366 1.08 2.82 1.33 3.06 2.336 4.778 3.773.85-.304 1.554-1 2.015-1.636-.196-.894-.519-1.025-.791-1.65 1.671-1.903 3.323-4.142 2.065-7.402-.751-1.944-2.899-4.067-4.868-5.268-7.341-4.477-12.277 4.107-11.6 5.641.883.004.675-.126 1.114-1.106 1.835-4.108 5.824-6.437 10.127-3.666 8.343 5.374 3.304 11.246 2.058 10.845M130.072 69.44c-1.13-.524-1.491.28-1.192 1.298.066.225.704 1.23.909 1.596 2.975 5.286 4.896 2.506 2.769-.056-.747-.9-1.743-2.493-2.486-2.838m-16.312 7.819c-1.051.274-2.258.645-2.973 1.338.269.938 1.343 1.503 2.036 2.117 1.247 1.103 1.073.805 2.608.27 4.467-1.56 9.837-.945 14.369.358 1.409.405 5.54 2.253 6.43 1.845-.193-1.789-10.784-5.647-13.291-6.086-.57-.447-1.794-.448-2.592-.728-.533-1.025-.757-3.268-.808-4.62-.091-2.363.256-3.155 1.102-5.043 4.108-.994 10.042 1.285 12.846 5.878.372.608.722 1.299 1.021 2.078.352.917.226 1.492 1.126 1.765 1.059-1.378-2.653-6.272-3.386-6.979-4.159-4.007-13.028-5.521-16.561-1.295-2.537 3.036-2.098 5.139-1.927 9.102m62.276-11.51c.866-1.356-.849-7.045-1.448-8.413-2.151-4.908-5.439-2.322-5.814-.081 1.586.095 2.102-.312 3.201.835 2.756 2.876 2.606 7.191 4.061 7.659M128.517 51.23c.503-1.072.105-8.001-5.493-3.758-1.143.866-5.158 5.272-5.099 7.342.931.01.77-.053 1.339-.752 5.535-6.809 7.557-2.491 9.253-2.832m49.272 1.616c.381 2.06 1.12 3.938 1.553 6.165.427 2.199.773 4.145.908 6.45.15 2.539.015 12.924-1.41 14.529-.185-1.637 1.739-9.686 1.035-15.25-.317-2.51-2.097-10.774-3.46-11.808-.802.957.298 3.31.552 4.448.32 1.426.603 2.944.858 4.402.983 5.622.803 15.15-.826 20.722-.93 3.182-2.581 5.97-3.513 9.132.34.359-.646.425.634.244l-1.044 2.017c.643 1.43 1.725 2.364 1.939 4.436-1.349-.71-.254-.293-.773-.106.407 4.243-2.591 8.417-5.526 11.139-.727.674-2.28 2.038-2.522 2.907l1.419.028c-.336.338.057.066-.572.476-.385.25-.063.056-.45.234l-3.191 1.149c-3.681 1.101-12.386 1.902-15.145.831-1.697-.474-5.294-.866-9.028-1.901-7.946-2.204-15.567-5.267-21.79-10.008-8.126-6.188-10.527-9.263-10.673-18.157-.041-2.531-.013-7.266.841-9.56.156-.73 1.42-2.684 1.855-3.608 3.562-7.57 5.015-22.51-.437-29.253.612-1.034 4.478-3.088 6.122-3.808 7.598-3.33 16.846-3.56 24.915-.823 9.063 3.075 14.936 8.952 20.754 15.436.7.78 1.421 2.355 2.318 2.218l.128-1.17c-.539-2.796-2.937-7.778-4.697-9.933-.788-.966-1.472-1.99-2.221-3.01 5.424.398 13.016 4.708 17.255 7.912.93.703 3.715 3.377 4.192 3.52" clip-rule="evenodd"/><path fill="#FE6501" fill-rule="evenodd" d="M190.881 40.518c.355 1.536 1.227 5.85.881 7.359.216-.643-2.718-7.11-3.204-8.051-1.358-2.634-3.052-5.43-4.702-7.437-1.801-2.19-3.589-4.12-6.044-6.217-1.035-.884-6.391-5.166-7.705-4.735-.037.949.077.703.877 1.157 7.317 4.148 12.909 10.141 16.716 17.675 3.631 7.186 7.654 18.342 2.892 28.273-.631-.606-2.656-4.266-3.229-5.21-1.786-2.941-5.05-6.93-7.348-9.508-5.368-6.017-14.392-11.536-22.748-13.256-2.251-.463-1.917-.133-3.213-1.486-.686-.714-1.52-1.79-2.635-1.976-.062 1.086-.374.41 1.276 1.992 2.733 2.622 5.309 5.803 7.113 9.064.559 1.012 1.68 3.238 1.854 4.537l-4.625-4.877c-5.136-5.02-11.21-9.473-18.701-11.487-5.572-1.498-11.968-1.625-17.062-.577-5.73 1.18-8.927 3.196-12.807 5.715-.957-.616-2.331-2.645-3.735-2.566-.139 1.03.639 1.152 1.445 1.835 4.934 4.181 6.021 11.519 5.374 18.029-.431 4.33-1.21 9.04-2.961 12.605a29.4 29.4 0 0 1-4.524 6.706c-.738.822-1.254 1.485-2.048 1.73-.287-3.09-1.962-8.02-5.563-7.975-.231-1.183-.398-4.082-.242-5.47 3.523-1.339 3.514-5.67 1.846-8.719.108-1.58-.493-2.049-.842-3.104.405-3.945 2.983-10.027 4.978-12.781 2.606-3.596-1.862-12.18-1.855-12.21 1.672.42 3.932 3.495 4.194 3.67.866.575.457.134.611.066.609-.63 1.886-6.736 2.369-8.183 2.267-6.785 5.6-12.34 10.558-17.209.69-.678.741-.908 1.555-1.183-.773 2.46-6.33 11.85-5.224 15.768.98.095 2.317-1.166 3.172-1.81.577-.434.941-.565 1.527-.94.62-.397 1.041-.736 1.613-1.094 6.393-4.002 14.616-7.492 22.287-8.453 6.545.715 8.08-.666 17.375 2.355 13.973 4.54 22.338 12.7 28.82 25.176.757 1.457.865 2.44 1.684 2.801" clip-rule="evenodd"/><path fill="#D50100" fill-rule="evenodd" d="M154.541 132.733c-.307.366-.472.593-.975.692-.782.153-4.315-.354-5.307-.403-2.321-.114-3.691.298-5.66.519l-.12-.332a5 5 0 0 1 .012-.493c.252-2.299 1.713-2.919 1.239-4.024-.584.056-.425-.573-1.406 1.459-2.402 4.972-1.271 12.088-1.989 16.923-.967 6.514-4.719 11.434-8.357 13.765-9.535 6.111-20.082 7.209-32.55.386-.084-1.511 2.195-14.122 2.811-15.789 2.081-5.64 3.772-6.857 5.979-11.065 2.08-3.966 4.43-7.844 4.671-12.844.139-2.904-.452-4.65 2.267-5.67 1.929-.723 5.324.152 7.335.794 1.216.185 2.364 1.036 3.951 1.202 1.865.196 2.476-.434 3.629-.53 3.707.22 7.656-.097 11.274-.578 1.171-.155 2.52-.211 3.217-.827l8.11.523c2.176 5.353 2.977 9.182 1.869 16.292" clip-rule="evenodd"/><path fill="#FDCFBF" fill-rule="evenodd" d="M78.212 81.67c2.05.324 4.03-5.008 1.911-5.577-.536 1.214.426 1.665-.498 3.36-.598 1.098-1.442 1.104-1.413 2.217m-4.867-16.587c-.041-.726-.093-.351.218-.707.797.179 1.075.464 1.617.782.097 2.335-.797 4.035.303 6.16.8 1.545 2.686 2.637 5.247 2.307 4.259-.55 4.37-5.957 3.723-9.86.42-4.154 7.418-9.903 12.09-8.066 1.502 1.323.04 4.11-1.05 5.162-2.18 2.106-6.119 4.345-7.641 7.121-.815 1.486-1.725 4.677-.782 6.015 1.462-.427-.419-.415 1.712-1.021 1.108-.316.816-.424 1.596-.87 3.664-2.095 7.025 5.157 4.718 8.657-2.07 3.139-4.294-.926-7.687-.78-4.14.178-2.24 4.085-1.385 6.16 3.019 7.318 7.81 16.635 14.201 21.412.647.483 2.779 1.682 3.101 1.977 1.15 6.093-.334 11.04-3.712 15.286-7.03-1.179-13.399-9.48-15.83-13.356-3.43-5.47-6.322-11.846-7.23-19.569-.784-6.676.324-11.336.097-12.716-.932-5.681-8.57-1.948-9.495-17.862-.176-3.021.73-10.199 3.516-10.576 1.189.341 1.546 1.593 1.757 2.91.6 3.752-.612 5.73-.587 9.035.013 1.68.112 3.117 1.35 3.331zM180.589 109.21c1.413.569 5.724-2.08 5.298-6.499-.087-.899-.055-.814-.654-1.077-.779.786.33 2.816-1.366 4.863-1.749 2.111-3.044 1.346-3.278 2.713m17.939-26.695c-.997 4.593-11.753 7.917-11.3 13.916 1.41.763 1.965-.07 3.002-.954 1.447-1.078-.276-1.754 3.14-2.767 1.553-.461 3.309-.52 4.823.393 1.023 2.938 1.577 5.265.164 9.107-.978 2.658-2.91 5.12-5.929 4.649-2.832-1.444 1.302-6.258.294-9.089-.263-.739-.198-.74-1.095-.93-.09 1.36.569 1.505.253 3.098-.196.994-.777 1.85-1.063 2.753-.79 2.501-.158 4.041 1.207 5.306-1.243 1.834-5.964.966-7.678.699l-.644 2.028c-.575.261-.172-.069-.615.607.234 1.438-3.466 5.583-4.492 6.765-5.066 5.836-12.632 11.772-21.437 11.078-.221-4.697.357-6.606-1.444-11.546-.419-1.149-.139-.93-.086-1.032.02-.039.088-.11.108-.141a1 1 0 0 1 .127-.14c5.827-.556 11.646-1.558 15.93-5.586 2.973-2.797 5.372-8.545 4.176-12.9-.534-1.941-1.221-2.628-1.766-4.008 1.146-2.569 2.995-5.644 6.295-3.5 4.222 2.745-1.727 7.116.775 8.098.96-.978 2.101-7.338 2.289-7.908 1.628-4.928 3.413-9.378 8.69-10.842 2.798-.776 5.84.524 6.276 2.846" clip-rule="evenodd"/><path fill="#6A8539" fill-rule="evenodd" d="m112.897 189.059-.662.134c.136-2.447-.102-4.884-.539-7.046-.357-1.768-1.59-4.701-1.603-5.979.854-.42 2.295-1.047 2.202-2.023-.901-.304-1.584.734-2.706 1.225-5.152 2.254-8.83-1.46-10.124-.797.118 1.482 4.574 2.225 5.829 2.458-.253.953-.955 2.254-1.333 3.308-1.76 4.915-1.697 7.368-2.831 11.284-2.746-3.187-6.822-5.461-11.26-6.291l-.766-.602c.219-2.031.163-3.958.386-5.97.706-6.377 2.746-11.358 4.252-17.079 2.114.423 8.204 3.775 10.94 4.81 10.691 4.041 18.93 2.629 27.652-3.838.923-.684 1.212-.947 1.971-1.699 2.002-1.982 1.423-1.82 1.681-1.129-1.756 4.615-7.573 9.746-12.451 11.377-1.12.374-1.823.274-1.668 1.214 2.057.95 8.46-4.144 9.406-4.49-1.496 7.394-2.592 10.162-1.391 17.558-3.242.1-6.21.502-9.087 1.16-2.426.553-6.116 2.155-7.898 2.415" clip-rule="evenodd"/><path fill="#FDAB93" fill-rule="evenodd" d="m103.326 109.532 2.602.84c-.024.842 1.037 2.677.902 6.253-.243 6.504-4.621 12.947-9.077 16.433-4.6-.638-10.932-5.473-13.528-7.878-3.518-3.258-6.103-7.302-8.304-11.836-1.956-4.026-3.799-9.427-4.378-14.793-.813-7.541.972-13.225-.465-17.546.543-.337.907.085 1.4-.503-.315-.8-1.129-.665-2.125-1.22-.751-.42-1.109-.742-1.7-1.359-.906-.942-1.76-2.218-2.43-3.455-2.85-5.259-3.773-13.221-2.125-19.265 1.717-6.3 5.913-5.337 6.574-4.464-2.786.377-3.692 7.555-3.516 10.576.926 15.914 8.563 12.181 9.495 17.862.226 1.38-.882 6.04-.097 12.716.908 7.723 3.8 14.099 7.23 19.569 2.43 3.875 8.8 12.176 15.83 13.356 3.377-4.246 4.862-9.193 3.712-15.286" clip-rule="evenodd"/><path fill="#B80000" fill-rule="evenodd" d="M119.497 111.106c-.187 2.797 1.005 3.837 2.452 5.026l.274.242c.032.029.102.177.134.136.032-.043.094.09.134.141-2.011-.642-5.406-1.517-7.335-.794-2.719 1.02-2.128 2.766-2.267 5.67-.241 5-2.592 8.878-4.671 12.844-2.207 4.208-3.898 5.425-5.979 11.064-.616 1.668-2.896 14.279-2.811 15.79-3.39-1.99-5.83-3.793-7.839-6.395-1.781-2.308-3.81-5.109-4.475-8.848-.65-3.641 1.277-2.962 5.446-7.85.554-.65 1.09-1.259 1.607-1.924.69-.887.778-1.081 2.05-1.302 4.103-.709 5.127.31 5.209-1.159l-2.548-.245c.598-.776 1.374-1.349 2.187-2.159 2.436-2.429 4.008-5.056 5.268-8.379 2.062-5.437 1.732-9.876-.186-14.424l5.294-.679c.946.217 2.797 1.237 3.868 1.7 1.306.564 2.755 1.085 4.188 1.545" clip-rule="evenodd"/><path fill="#A22403" fill-rule="evenodd" d="M179.429 54.568c-.025-.053-.037-.205-.055-.166-.018.035-.044-.13-.058-.152-.013-.02-.048-.103-.065-.126l-1.462-1.278c-.477-.143-3.261-2.817-4.192-3.52-4.239-3.204-11.831-7.514-17.255-7.913.749 1.021 1.433 2.045 2.222 3.01 1.759 2.156 4.158 7.138 4.696 9.934l-.128 1.17c-.896.137-1.618-1.439-2.318-2.218-5.818-6.484-11.691-12.361-20.753-15.436-8.069-2.737-17.318-2.507-24.916.823-1.643.72-5.509 2.774-6.122 3.808 5.452 6.742 4 21.683.437 29.253-.435.924-1.698 2.878-1.855 3.609-.382.253-3.381 4.007-4.91 5.446-.651-.487-.326-.129-.676-1 .794-.245 1.31-.908 2.048-1.73a29.3 29.3 0 0 0 4.524-6.706c1.751-3.565 2.53-8.275 2.961-12.605.647-6.51-.44-13.848-5.374-18.03-.806-.682-1.584-.803-1.445-1.834 1.404-.08 2.778 1.95 3.735 2.566 3.88-2.519 7.077-4.536 12.807-5.715 5.094-1.048 11.49-.922 17.062.576 7.491 2.015 13.565 6.467 18.701 11.488l4.625 4.877c-.174-1.3-1.295-3.525-1.854-4.538-1.804-3.26-4.38-6.44-7.113-9.063-1.65-1.582-1.338-.906-1.276-1.992 1.115.185 1.949 1.261 2.635 1.976 1.296 1.353.962 1.023 3.213 1.486 8.356 1.72 17.38 7.239 22.748 13.256 2.298 2.577 5.562 6.567 7.348 9.507.573.945 2.598 4.605 3.229 5.211 4.762-9.931.739-21.087-2.892-28.273-3.807-7.534-9.399-13.527-16.716-17.675-.8-.454-.914-.209-.877-1.157 1.314-.43 6.67 3.85 7.705 4.735 2.455 2.097 4.243 4.027 6.044 6.217 1.65 2.007 3.344 4.803 4.702 7.437.486.94 3.419 7.408 3.204 8.05.346-1.507-.526-5.822-.881-7.359-3.348-14.043-16.283-25.311-30.345-29.135-8.882-2.416-10.671-1.221-17.534-1.197-7.671.961-15.894 4.45-22.287 8.453-.572.357-.993.697-1.613 1.094-.586.375-.95.506-1.527.94-.855.644-2.192 1.905-3.172 1.81-1.106-3.919 4.451-13.308 5.224-15.768-.814.275-.865.505-1.555 1.183-4.958 4.87-8.291 10.424-10.558 17.209-.483 1.447-1.76 7.553-2.369 8.183-.154.068.255.51-.611-.066-.262-.175-2.522-3.25-4.194-3.67-.356-.537-.185-.385-1.43-1.033-.589-.305-.835-.446-1.516-.626 1.235 1.958 2.162 3.206 2.876 6.11.324 1.314 1.119 6.349.323 7.428-.83-.2-.515.09-.682-.823l-.146-.97c.002-.102-.03-.132-.057-.193-2.91 2.586-5.443 11.306-4.509 13.582l-.796-.337c.142-.916.283-1.32-.173-2.089.986-8.997 5.147-11.899 5.48-12.947.467-1.469-.937-5.422-1.5-6.565-1.745-3.551-3.376-3.67-3.398-4.966 2.14-.819 8 3.78 9.806 5.656 1.054-2.708 1.572-6.095 2.707-9.026 2.372-6.125 6.399-12.654 11.363-16.734.932-.766 2.076-1.642 2.863-2.392l.545.075c.197.847-2.886 6.027-3.803 8.009-1.133 2.45-2.788 6.246-2.962 9.263.505-.13 4.84-3.127 5.788-3.687 2.035-1.203 3.914-2.254 6.227-3.34 15.186-7.133 32.503-7.017 46.55 2.37 10.353 6.92 17.556 16.883 18.806 29.325.437 4.34-.2 2.867.706 8.236.468 2.778.515 5.777-.017 8.766-.398 2.23-1.52 6.239-2.706 7.663-.846-.286-.994-1.05-1.448-1.879-1.914-3.5-5.635-9.306-8.25-12.076-.406-.43-1.222-1.302-1.559-1.785" clip-rule="evenodd"/><path fill="#FDAB93" fill-rule="evenodd" d="M101.656 85.232c.623.927-.139.597.913.742.824-1.528-.793-3.866.126-5.162 1.528-1.44 4.527-5.193 4.909-5.446-.854 2.293-.881 7.028-.84 9.56.146 8.893 2.546 11.968 10.672 18.157 6.224 4.74 13.845 7.803 21.79 10.007 3.735 1.035 7.331 1.427 9.029 1.901l-.811.156c-1.575.097-8.944-1.008-10.252-1.246-1.747-.319-8.932-2.366-9.929-1.989.021 1.009.842.922 1.936 1.18.886.209 1.901.311 2.355.836-.91 2.123-2.978 3.517-5.839 2.825-2.708-.654-4.717-1.967-5.212-4.347l-.037-.736c.532-.252.642-.158.854-.798-1.748-1.465-18.339-3.816-20.789-19.437l-.437-1.754c-.005-.086-.062-.105-.1-.15-.794.293-.107-.059-.534.491l-.242.433c-.004-.032-.031.105-.067.144-2.209-.835-3.536-1.531-4.888-2.96-.767-.812-2.189-3.113-2.04-4.754 2.541.124 3.987-1.047 4.338-3.696.152-1.148.119-2.542-.088-3.6-.226-1.152-.829-1.803-.923-2.778.629-.05 1.956-.343 2.209.413l-1.077-.23c.702 2.58 3.395 1.743 3.981 11.204.087 1.392.015 1.377.529 1.678.481-.245.161.385.464-.644" clip-rule="evenodd"/><path fill="#52662C" fill-rule="evenodd" d="M136.909 157.683c-.087.397-.174.797-.316 1.156a3.6 3.6 0 0 1-.25.514c-.431.713-.1.196-.358.472-.258-.691.321-.853-1.681 1.129-.759.752-1.048 1.015-1.971 1.699-8.721 6.467-16.961 7.88-27.652 3.838-2.736-1.035-8.826-4.387-10.94-4.81-1.506 5.722-3.546 10.702-4.252 17.079-.223 2.012-.167 3.939-.385 5.97l.766.603c-4.91-1.165-6.934-2.146-12.3-1.612.607-1.43 1.554-2.514 2.23-4.127 2.946-7.035 1.997-11.43 2.805-16.18.616 1.213.12 3.677 1.307 4.162.751-.876-.123-3.638-.263-4.869-.405-3.546-.78-12.412 2.11-15.009.532-.478.183-.187.638-.452.943 2.381 1.633 4.5 3.136 6.498 4.716 6.263 10.31 9.633 18.712 12.086 6.388 1.866 11.419 1.253 16.88-.616 2.349-.804 4.609-1.782 6.463-3.006 3.631-2.401 3.186-2.781 5.321-4.525" clip-rule="evenodd"/><path fill="#953615" fill-rule="evenodd" d="M95.199 53.028c1.224.615 1.25.96 2.018 1.516.349 1.055.95 1.524.842 3.104-.568 6.4-9.23 5.892-10.382 14.43 2.311.106 1.926-1.583 4.458-1.207 1.224.181 1.313.527 2.124.913 1.074.512.916.041 2.195.053 3.602-.046 5.276 4.886 5.564 7.975.35.871.025.513.676 1-.918 1.296.698 3.634-.126 5.162-1.052-.145-.29.185-.913-.742.28-1.564-.439-5.273-.849-6.824-.531-2.011-1.347-4.784-3.048-5.184-.253-.756-1.58-.463-2.208-.413.094.975.697 1.626.922 2.778.207 1.058.24 2.452.089 3.6-.352 2.65-1.798 3.82-4.339 3.696-.148 1.64 1.273 3.942 2.04 4.754 1.352 1.429 2.68 2.125 4.888 2.96.036-.04.063-.176.068-.144l.242-.433c.426-.55-.261-.198.533-.492.039.046.096.065.101.151l.436 1.754c2.45 15.621 19.042 17.972 20.79 19.437-.213.64-.323.546-.855.798l.038.736c-.403-.558-.408-.161-.333-1.113l-.673-.187c-1.433-.46-2.883-.981-4.188-1.545-1.071-.463-2.922-1.482-3.868-1.7-.412-.457-.614-.701-1.429-.603-.198-.797-2.163-1.713-3.564-2.988-3.894-3.542-5.438-6.933-6.859-12.509-9.546-3.332-7.378-8.251-8.917-9.756-1.22-1.193-3.718-1.56-4.734-.384-.624 1.334 1.499 5.489 2.044 6.702 1.855 4.128 4.231 8.582 6.774 12.179.621.877 3.629 4.733 4.851 4.965.29 1.059 2.011 1.947 2.997 2.517 2.802 1.621 2.295.434 3.323 2.388l-2.602-.84c-.322-.295-2.454-1.494-3.101-1.977-6.392-4.777-11.183-14.094-14.201-21.412-.856-2.075-2.756-5.982 1.385-6.16 3.393-.146 5.617 3.919 7.686.78 2.307-3.5-1.053-10.752-4.717-8.657-.78.446-.488.554-1.597.87-2.13.606-.25.594-1.711 1.021-.943-1.338-.034-4.53.781-6.015 1.523-2.776 5.46-5.015 7.642-7.121 1.09-1.052 2.552-3.84 1.05-5.162-.688-2.803-5.8-2.921-8.616-.249a15.4 15.4 0 0 0-2.873 3.735c-1.103 2.013-1.427 2.805-.601 4.58.647 3.903.536 9.31-3.724 9.86-2.56.33-4.447-.762-5.246-2.306-1.1-2.126-.207-3.826-.303-6.16-.043-.807-.237-.82.092-1.414 1.712.303.55 3.122.581 5.28.03 2.073.94 3.013 2.897 3.582 4.425.62 5.594-2.74 5.083-7.027-.199-1.661-.755-3.029-1.785-4.116-.933-.986-3.101-1.849-4.383-.878-1.61.459-1.342 1.405-4.717 3.07-.011.678-.082.86.397 1.427l-.152.932c-1.24-.214-1.339-1.651-1.352-3.331-.024-3.305 1.188-5.283.588-9.036-.211-1.316-.569-2.568-1.757-2.909-.66-.873-4.857-1.835-6.574 4.464-1.648 6.044-.724 14.006 2.125 19.265.67 1.237 1.524 2.513 2.43 3.455.591.617.948.94 1.7 1.358.996.556 1.81.421 2.126 1.221-.493.588-.858.166-1.401.503 1.438 4.321-.348 10.005.465 17.546.579 5.366 2.422 10.767 4.378 14.793 2.201 4.534 4.786 8.578 8.304 11.836 2.596 2.405 8.928 7.24 13.528 7.878-.375.341-.488.381-.783.66-2.173-.112-7.296-2.983-9.284-4.47-1.078-.807-.37-.681-.928-.37l-.118-.149-.117-.145-.966-.953c-10.596-9.259-16.453-23.867-15.088-38.147 1.003-10.491-1.118-8.662-3.605-12.244-1.108-1.597-1.975-3.065-2.815-5.204-2.651-6.746-3.217-24.974 6.423-22.564 4.761 1.19 2.494 9.9 2.304 12.96 1.981.161 1.733-1.813 4.78-2.944 2.97-1.103 4.951 1.251 5.677 1.62 1.009-2.713 2.235-4.728 3.998-6.303.782-.699 1.715-1.389 2.929-1.789.61-.2 1.281-.342 1.938-.397l1.77-.14c.044-.072.131-.024.196-.047l.167-1.83c.456.77.315 1.174.173 2.09zM211.796 107.404c1.048-.817 1.334-3.032.971-4.464-1.242-4.891-6.685-7.3-10.67-5.274l-.063 1.316c-.214 2.402-.425 3.269-1.097 5.516 3.12.491 4.026 2.539 5.325 3.978 2.155 2.389 4.311.803 5.534-1.072m-32.367-52.836c-.228.339 1.282 6.321 1.443 7.568.36 2.792.524 5.662.386 8.658-.354 7.703-1.754 11.478-4.268 18.091 2.579-.483 3.767.443 5.361 1.711.925-1.117 1.21-3.3 1.928-4.788 1.903-3.946 5.88-8.085 10.855-7.222 3.203.555 5.935 3.883 4.106 7.366-1.817 3.46-4.938 3.676-6.445 5.845 5.218-.692 6.914-.358 9.137 4.7 1.779-.02 2.596-.684 4.919-.317a7.8 7.8 0 0 1 3.981 1.902c1.617 1.436 3.781 4.46 2.812 7.893-.722 2.556-3.603 5.608-6.581 4.335-2.44-1.044-2.463-4.364-6.558-4.905-1.109 1.292-1.375 2.032-2.759 2.747-1.793.924-1.225 1.5-2.435 2.956-1.89 2.272-3.934 2.662-7.743 2.181-1.619 1.436-4.023 7.044-5.501 9.364-5.793 9.099-15.726 13.89-27.608 13.439.025-.095.147-.708.153-.729l.348-.859c-.089.901-.176.646.94.708.25.015 1.189-.068 1.56-.087 10.058-.51 18.321-4.348 23.803-12.984l5.183-9.267c-1.226-.439-2.493-1.006-3.358-1.543.443-.676.04-.347.615-.607 2.212.841 4.255 2.099 7.049 1.885 1.998-.154 3.999-1.728 4.641-3.59-1.557-.079-2.206-.304-3.368-1.023-1.365-1.264-1.997-2.804-1.207-5.305.286-.903.867-1.759 1.064-2.753.315-1.593-.344-1.738-.254-3.098.897.19.832.191 1.095.93 1.008 2.831-3.126 7.645-.294 9.088.288.507.32.6 1.102.892.451.17.974.27 1.458.284 2.494.069 4.517-2.477 5.351-4.78 1.488-4.106 1.1-8.503-2.146-10.151-1.514-.913-3.27-.854-4.823-.393-3.416 1.013-1.692 1.69-3.14 2.767l-.555-.262c.51-3.014 3.215-5.068 4.968-6.2 1.418-.916 5.52-3.455 3.885-6.5-.436-2.322-3.478-3.622-6.276-2.846-5.277 1.464-7.062 5.914-8.69 10.841-.188.57-1.329 6.93-2.289 7.909-2.502-.982 3.447-5.353-.775-8.098-3.3-2.145-5.149.93-6.295 3.5.545 1.38 1.232 2.067 1.766 4.008 1.196 4.355-1.202 10.103-4.176 12.9-4.283 4.028-10.103 5.029-15.93 5.586l-2.035.028-.06.426c-.495-.456-.28-.538-1.096-.328l-8.11-.523c-2.053-.304-4.076-.489-6.14-.845-1.919-.331-3.992-.866-5.869-1.069l-1-.076c-.453-.525-1.468-.627-2.354-.836-1.095-.258-1.916-.171-1.936-1.18.997-.377 8.181 1.67 9.929 1.989 1.307.238 8.676 1.342 10.251 1.246l.811-.156c2.759 1.071 11.464.27 15.145-.831l3.191-1.149c.387-.178.065.016.45-.234.629-.41.236-.138.572-.476.989-.084 2.389-1.352 3.22-2.034.941-.773 1.724-2.016 2.46-3.189 1.169-1.862 3.022-6.51 1.722-8.746-.214-2.071-1.296-3.006-1.939-4.435l1.044-2.017c1.528-1.758 4.685-9.215 4.72-11.89 1.425-1.605 1.56-11.99 1.41-14.53-.135-2.304-.481-4.25-.908-6.45-.433-2.226-1.172-4.103-1.553-6.164l1.462 1.278c.016.022.052.106.064.126.015.023.041.187.059.151.018-.038.029.114.055.166" clip-rule="evenodd"/><path fill="#fff" fill-rule="evenodd" d="M66.74 208.575c1.111-1.103 2.277-1.985 3.035-2.439 2.978-1.785 8.515-.796 10.022-1.685 4.67 1.301 11.882 5.124 8.73 10.312-1.005 1.653-1.377 2.036-2.684 2.384a90.4 90.4 0 0 1-19.104-8.572" clip-rule="evenodd"/><path fill="#F18172" fill-rule="evenodd" d="M163.242 101.896c.712-2.198-2.266-4.11-3.285-3.286-.743.6.859 3.732 3.285 3.286m-6.717-5.15c-.037 1.15 1.068 1.683 1.527.993.546-.821-.787-1.135-1.527-.994m7.266 3.22c.627 3.493 1.437 3.674-2.849 7.191l-1.63 1.087c-.811.373-.121.206-.759.222-4.461-.331-9.574-1.015-13.476-2.735-3.472-1.529-6.859-4.164-7.341-7.667l6.766-1.43c1.672 1.113 3.025 2.301 4.281 3.462 2.372 2.191 2.575 3.584 3.917 3.493.084-1.953-6.849-7.308-8.188-8.299 2.058-.82 8.222-.77 11.032-.143 1.828.407 3.443 1.014 4.854 1.838 2.226 1.3 2.377 2.31 3.393 2.982" clip-rule="evenodd"/><path fill="#790202" fill-rule="evenodd" d="M110.012 107.258c.815-.098 1.017.146 1.429.603l-5.294.679c1.918 4.548 2.248 8.987.186 14.424-1.26 3.323-2.831 5.95-5.268 8.379-.813.81-1.589 1.383-2.187 2.159l2.548.246c-.081 1.468-1.106.449-5.209 1.159-1.272.22-1.36.414-2.05 1.301-.517.665-1.053 1.274-1.607 1.924-4.168 4.888-6.095 4.209-5.446 7.85.666 3.739 2.694 6.541 4.475 8.848 2.009 2.602 4.449 4.405 7.839 6.395 12.468 6.823 23.015 5.725 32.55-.386 3.638-2.331 7.39-7.251 8.357-13.765.718-4.835-.413-11.951 1.988-16.923.982-2.032.823-1.403 1.407-1.459.474 1.105-.987 1.725-1.239 4.024-.788 1.148-.806 5.019-.916 6.705 1.491.297 2.909.034 4.711.484 1.629.407 2.559 1.19 3.845 1.596 1.823-2.712 3.35-4.701 4.41-8.768 1.108-7.11.307-10.939-1.869-16.291.816-.21.601-.129 1.096.328 2.14 4.409 3.238 12.205 1.191 17.734l-.348.859c-.006.021-.128.634-.153.729-2.122 4.02-1.252 2.771-4.051 6.584-2.539-.445-1.704-2.189-8.777-2.156-.284 2.44.007 4.631-.457 7.366-.411 2.427-1.215 4.295-1.949 6.489l-.623.693c-.142.211-.313.572-.528.905-.422.656-.805 1.005-1.164 1.71-2.135 1.744-1.69 2.124-5.321 4.525-1.854 1.224-4.114 2.202-6.463 3.006-5.461 1.869-10.493 2.482-16.88.616-8.402-2.453-13.997-5.823-18.712-12.086-1.503-1.998-2.193-4.117-3.136-6.498l-.36-1.766c-.287-4.461 5.193-5.685 7.414-10.049-2.355-.202-3.82-.47-5.087-1.984-.857-1.025-1.953-3.024-1.607-4.569.557-.311-.15-.436.929.37 1.987 1.487 7.11 4.359 9.283 4.471.295-.28.408-.32.783-.661 4.456-3.486 8.834-9.929 9.078-16.433.134-3.576-.927-5.411-.902-6.253-1.029-1.954-.522-.767-3.324-2.388-.986-.57-2.708-1.458-2.996-2.517 2.244-.74 3.72-.434 5.18 1.079.919.953.766.896 2.563.818.953-.042 1.783-.234 2.661-.106" clip-rule="evenodd"/><path fill="#FDAB93" fill-rule="evenodd" d="M154.961 134.504c2.046-5.529.949-13.325-1.191-17.734l.059-.427 2.035-.028a.8.8 0 0 0-.127.14c-.019.031-.088.102-.108.141-.052.102-.333-.117.086 1.032 1.801 4.94 1.224 6.849 1.444 11.546 8.806.694 16.371-5.242 21.437-11.078 1.026-1.183 4.726-5.327 4.492-6.765.866.537 2.133 1.104 3.358 1.543l-5.183 9.267c-5.481 8.636-13.745 12.474-23.802 12.984-.371.019-1.311.102-1.561.087-1.116-.062-1.028.193-.939-.708" clip-rule="evenodd"/><path fill="#2C3617" fill-rule="evenodd" d="M86.398 147.246c-.455.265-.107-.026-.639.452-2.89 2.596-2.514 11.462-2.11 15.009.14 1.23 1.015 3.992.263 4.869-1.186-.485-.69-2.949-1.307-4.162-.808 4.75.141 9.145-2.805 16.18-.676 1.613-1.623 2.697-2.23 4.127 5.367-.534 7.39.447 12.3 1.611 4.438.83 8.514 3.105 11.26 6.292 1.134-3.917 1.071-6.37 2.831-11.285.378-1.054 1.08-2.355 1.333-3.308-1.255-.233-5.712-.976-5.83-2.458 1.294-.663 4.972 3.051 10.124.797 1.122-.49 1.806-1.529 2.707-1.224.093.975-1.349 1.602-2.203 2.022-.062.024-.14.059-.184.078l-.181.076-2.928.883c.143 2.329.607 4.825.837 7.191l.558 7.111 4.703-2.448c1.782-.259 5.472-1.862 7.897-2.415a46.7 46.7 0 0 1 9.087-1.16c-1.2-7.396-.105-10.164 1.392-17.558-.947.347-7.35 5.44-9.407 4.49-.155-.94.549-.839 1.669-1.214 4.877-1.631 10.694-6.762 12.45-11.377.259-.276-.072.24.358-.472.096-.16.181-.338.251-.514.142-.359.229-.759.315-1.156.36-.705.743-1.054 1.165-1.71.214-.333.386-.694.528-.905l.622-.693c-2.514 9.062-5.744 9.164-7.087 14.149-.529 1.962-.993 3.962-1.321 5.966-.471 2.875-.807 6.26-.335 9.119.125.754.567 1.83.526 2.508-.168 2.781-5.3 4.568-7.769 5.228l.14-1.108c2.219-.537 5.414-1.577 6.513-3.742-1.649-.149-4.169.187-5.764.526l-1.064.094c-.809.3-2.219.524-3.173.776a86 86 0 0 0-3.169.913c-2.312.709-4.037 1.665-5.974 2.334-1.564 1.12-1.231 1.313-1.178 3.593-.392.365-.013.257-.73.223-2.266-.68-1.882-1.2-1.788-3.352.067-1.524-.44-11.807-1.258-13.16-1.004 1.999-1.737 4.573-2.336 6.909-2.34 9.112.489 8.645-8.463 7.874l.097-.845c1.72-.21 3.333.711 5.208.147-.305-1.714-2.733-2.92-4.263-3.925l-.917-.428c-3.49-1.48-6.525-2.278-10.378-3.236l-.935-.175c-5.413-.491-5.467.103-6.513.046 1.022 1.217 3.907 2.814 5.865 3.154l-.172 1.04c-2.639-.721-6.518-2.626-7.155-4.712.3-.798 1.774-2.442 2.453-3.723 3.775-7.123 2.618-15.129 3.71-20.912.649-3.439.155-7.157 1.77-10.594 1.317-2.8 2.19-2.19 2.274-3.582z" clip-rule="evenodd"/><path fill="#fff" fill-rule="evenodd" d="M149.229 211.221c-.254 1.59-1.087 2.758-2.243 3.619a91 91 0 0 1-5.697 2.063c-.693.109-1.383.187-2.049.244-4.208.363-10.951-1.409-15.234-2.463l-.117-.674c.331-1.65 3.526-3.651 4.532-4.394 2.798-2.063 5.113-2.334 5.542-2.877 1.552.075 2.248-.311 4.34.114 1.385.281 2.78.685 4.074 1.081 2.412.738 5.474 1.859 6.852 3.287" clip-rule="evenodd"/><path fill="#848485" fill-rule="evenodd" d="M92.096 218.872c2.149-1.502 5.348-4.284 3.965-6.577-2.5 2.561-1.85 2.724-6.66 4.696q-.899.369-1.831.679a91 91 0 0 1-1.727-.523c1.307-.348 1.68-.731 2.684-2.384 3.153-5.188-4.06-9.011-8.73-10.312-3.863-1.054-9.606-1.058-13.151-.02-1.537.45-2.571.939-3.402 1.95-.26-.171-.521-.339-.78-.513.681-.877 1.486-1.718 2.437-2.046.22.211.819-.125 1.46-.306 5.754-1.629 9.77-.412 14.956.244.306.257 3.262 1.531 4.053 2.001 2.034 1.209 4.765 3.457 4.907 6.045.126 2.291-.828 2.843-1.377 4.298 2.71-.757 5.453-2.346 6.765-5.452l.799.017c.035-.34.058-.697.16-1.014.146-.449.079-.266.323-.518-.821 3.477 1.956 4.281-1.325 7.987-.622.702-1.415 1.394-2.278 2.035a84 84 0 0 1-1.248-.287" clip-rule="evenodd"/><path fill="#fff" fill-rule="evenodd" d="M87.57 217.67a29 29 0 0 0 1.83-.679c4.81-1.972 4.16-2.135 6.66-4.697 1.384 2.294-1.815 5.076-3.965 6.578a91 91 0 0 1-4.526-1.202" clip-rule="evenodd"/><path fill="#D7D7E1" fill-rule="evenodd" d="M109.079 208.167c-.004 2.848.77 4.132 2.175 5.48 3.547 3.402 8.322 5.682 13.449 6.969a92 92 0 0 1-7.157.617 24 24 0 0 1-3.175-1.795c-3.762-2.562-6.709-5.125-5.976-9.829.097-.624.135-1.583.684-1.442" clip-rule="evenodd"/><path fill="#848485" fill-rule="evenodd" d="M109.079 208.167c-.548-.141-.587.817-.684 1.442-.733 4.704 2.214 7.267 5.976 9.829.939.64 2.008 1.24 3.175 1.795q-.903.043-1.811.069c-2.005-1.107-3.794-2.38-5.261-3.808-4.492-4.371-2.987-6.027-2.58-10.314.313.275.867.598 1.185.987l.924.345c.061 3.629 2.543 5.312 5.219 7.006 2.032 1.287 6.844 3.657 9.213 3.887-1.049-1.361-2.314-2.667-1.73-5.177.792-2.311 2.351-3.351 3.818-4.431.742-.546 1.579-1.185 2.398-1.671.835-.496 1.67-.781 2.398-1.411l2.644.024c.587-.927.153-.295.028-.613-1.682-.243-3.862-.167-4.996-1.125 2.558.587 3.838.922 6.403.678 2.006-.19 4.363.494 6.361 1.039 3.534.966 7.627 2.711 9.587 5.061.291.349.467.623.612.89q-.415.197-.833.388c-.527-.788-1.286-1.483-1.896-1.836-1.378-1.428-4.44-2.549-6.852-3.286-1.294-.396-2.689-.801-4.074-1.082-2.092-.425-2.788-.039-4.34-.114-.429.544-2.744.814-5.542 2.877-1.006.743-4.201 2.744-4.532 4.394-.162.21-.092-.049-.278.533-.473 1.481.345 2.719 1.163 3.724.982 1.205 1.431 1.636 2.638 1.961q-1.348.214-2.709.388c-5.127-1.287-9.902-3.567-13.449-6.97-1.405-1.347-2.179-2.632-2.175-5.479" clip-rule="evenodd"/><path fill="#D7D7E1" fill-rule="evenodd" d="m123.889 214.011.117.674c4.283 1.053 11.026 2.826 15.234 2.462a29 29 0 0 0 2.049-.244 90 90 0 0 1-13.877 3.325c-1.207-.325-1.656-.756-2.638-1.961-.818-1.005-1.636-2.243-1.163-3.723.186-.583.116-.324.278-.533m23.096.829c1.157-.861 1.99-2.029 2.244-3.619.61.353 1.369 1.048 1.896 1.836a91 91 0 0 1-4.14 1.783" clip-rule="evenodd"/><path fill="#663201" fill-rule="evenodd" d="M111.292 204.497c.814-.015 2.057.291 2.638-.02l.878.043c1.086.203 1.765.541 2.664-.01.962.118 1.92.083 2.651-.448.981.308 2.076-.605 3.503-.417 1.668.209 2.59.493 3.853.874l1.516.482c1.133.958 3.314.882 4.996 1.125.125.318.559-.314-.028.613l-2.644-.024c-3.599-.247-5.475-2.714-9.128-1.768-1.43.37-2.753.651-4.37.756-1.45.093-3.321-.121-4.564.027-.528 1.056-.045 2.293.752 3.383 1.851 2.532 5.593 4.179 8.696 5.115-.584 2.51.681 3.816 1.73 5.177-2.369-.23-7.181-2.6-9.213-3.887-2.676-1.694-5.158-3.377-5.22-7.006.062.042.133.1.184.13s.123.087.184.119c.059.031.119.075.183.104.963.427.753.18 1.033.043-.027-.852-.186-.673-1.137-1.171-3.548-1.859-6.422-5.387-2.043-7.315.867-.383.813-.112 1.224-.867.267.708.251 1.859.351 2.806.192 1.801-.062 1.476 1.311 2.136" clip-rule="evenodd"/><path fill="#ED5B4B" fill-rule="evenodd" d="m144.503 96.634-6.767 1.43c.482 3.503 3.869 6.138 7.341 7.668 3.902 1.719 9.015 2.404 13.476 2.734l-.753.461c-.266.114-.559.186-.805.259-.61.181-1.188.332-1.899.461-4.162.762-9.481-.273-13.336-1.791-4.867-1.915-10.017-5.088-10.478-9.537l.076-.816c2.723.09 4.779-.155 7.209-.78 2.593-.665 3.729-1.909 5.936-.089" clip-rule="evenodd"/><path fill="#824101" fill-rule="evenodd" d="M131.318 206.715c-.727.63-1.562.915-2.398 1.411-.819.486-1.655 1.125-2.397 1.671-1.467 1.081-3.026 2.121-3.818 4.431-3.104-.936-6.845-2.583-8.697-5.115-.797-1.089-1.28-2.327-.751-3.383 1.243-.148 3.113.066 4.564-.027 1.616-.105 2.94-.386 4.37-.756 3.653-.946 5.529 1.522 9.127 1.768M95.666 210.652c-1.313 3.106-4.056 4.695-6.765 5.452.549-1.455 1.502-2.008 1.377-4.298-.142-2.588-2.874-4.836-4.907-6.045-.791-.471-3.747-1.744-4.054-2.001 1.022.025.763-.195 1.425-.766 2.146.245 5.187 1.766 7.097 2.646 1.026.472 2.302 1.168 3.495 1.26 1.315.102 1.935-.645 1.802-1.579-.151-1.056.074-.227-.341-.656-.685.256-.196-.045-.6.655-.204.351.184.046-.272.626-.88.004-1.336.014-1.986-.523.69-1.03 1.418-1.252 1.62-3.242.52.3 8.868 1.945 3.48 5.794l-2.373 1.614c.316.674-.124.666 1.032.433z" clip-rule="evenodd"/><path fill="#FDCFBF" fill-rule="evenodd" d="M120.578 195.772c-1.08 1.207-2.598 1.261-4.05 2.995-1.226 1.464-1.84 3.623-1.719 5.753l-.879-.043-1.215-.28.725-12.984c.92-.173 4.552-1.509 7.008-2.084 2.707-.634 1.8-.413 2.139-.054-.043 2.278-1.429 4.58-2.009 6.697" clip-rule="evenodd"/><path fill="#B80000" fill-rule="evenodd" d="M142.492 132.716c-.009.076-.021.45-.012.493l.12.332c1.969-.221 3.339-.633 5.66-.519.992.049 4.525.556 5.307.403.503-.099.668-.326.975-.692-1.06 4.067-2.587 6.056-4.41 8.768-1.286-.406-2.216-1.189-3.845-1.596-1.802-.45-3.22-.187-4.711-.484.11-1.686.128-5.557.916-6.705" clip-rule="evenodd"/><path fill="#953615" fill-rule="evenodd" d="M164.276 99.324c-.412.308-.309.143-.485.642-1.016-.671-1.168-1.681-3.393-2.98-1.411-.825-3.027-1.432-4.854-1.84-2.811-.627-8.975-.676-11.032.144 1.338.991 8.272 6.345 8.187 8.299-1.342.091-1.545-1.302-3.916-3.493-1.257-1.16-2.61-2.349-4.281-3.462-2.206-1.82-3.342-.576-5.935.09-2.43.623-4.487.87-7.209.779l-.076.816-.547-.98-.322.862a40 40 0 0 0-.406-.616c-.456-.412-.116-.205-.842-.399-.643-.172-1.379-.309-2.081-.503-4.695-1.717-7.051-4.132-7.408-8.967-1.438-.15-2.919.345-4.113.704-.004.001-4.842 2.068-3.382.365.647-.756 5.531-1.92 6.406-2.029 2.956-.365 6.477 1.098 6.309 3.538-1.46-.116-1.02-1.903-4.199-2.58-.067 4.352 2.955 6.938 7.178 8.203 8.964 2.686 14.113-3.442 25.522-2.076 3.74.447 9.37 2.373 10.879 5.483" clip-rule="evenodd"/><path fill="#FDCFBF" fill-rule="evenodd" d="m94.21 191.416-1.667 7.921c-1.057-.273-1.764-1.206-2.754-1.822-1.079-.671-2.09-.957-3.206-1.555-.096-2.441.243-6.968 1.39-9.075 2.323-.15 5.321 1.78 6.668 3.023z" clip-rule="evenodd"/><path fill="#DE4402" fill-rule="evenodd" d="M100.341 29.553c-.007.03 4.46 8.614 1.855 12.21-1.995 2.754-4.573 8.836-4.978 12.781-.767-.555-.794-.9-2.018-1.516-.934-2.276 1.6-10.996 4.509-13.582.027.061.06.091.057.193l.146.97c.167.912-.147.624.682.823.796-1.08.001-6.114-.323-7.427-.715-2.905-1.641-4.153-2.876-6.111.68.18.927.32 1.515.627 1.246.647 1.074.495 1.431 1.032" clip-rule="evenodd"/><path fill="#FC9B5B" fill-rule="evenodd" d="M190.881 40.518c-.819-.361-.927-1.345-1.684-2.802-6.482-12.476-14.848-20.636-28.82-25.176-9.296-3.021-10.83-1.64-17.375-2.355 6.862-.024 8.651-1.219 17.534 1.197 14.062 3.824 26.997 15.092 30.345 29.136" clip-rule="evenodd"/><path fill="#DE4402" fill-rule="evenodd" d="M96.455 71.837c-1.28-.011-1.121.459-2.195-.053-.81-.386-.9-.732-2.124-.913-2.532-.376-2.147 1.313-4.458 1.208 1.152-8.539 9.814-8.03 10.382-14.43 1.668 3.048 1.676 7.38-1.846 8.719-.156 1.387.01 4.286.241 5.47" clip-rule="evenodd"/><path fill="#351402" fill-rule="evenodd" d="M113.761 77.259c.769-.305.783-.086 1.397-.426 3.128-.28 4.386-.303 7.781.268 2.507.44 13.098 4.297 13.291 6.086-.89.408-5.021-1.44-6.43-1.845-4.532-1.303-9.902-1.918-14.369-.359-1.535.536-1.361.834-2.608-.27-.693-.612-1.767-1.178-2.036-2.115.715-.694 1.923-1.064 2.974-1.34" clip-rule="evenodd"/><path fill="#FDCFBF" fill-rule="evenodd" d="M211.795 107.404c-1.164-.139-2.544-2.071-4.224-3.368-1.47-1.134-3.67-2.452-5.584-1.891.138-1.194.403-2.138.045-3.163l.063-1.316c3.986-2.026 9.429.383 10.67 5.274.363 1.432.078 3.647-.97 4.464M78.75 72.607c-1.152-1.977-.366-3.892-.103-6.324.25-2.33-.638-3.758-.982-5.697 1.282-.971 3.45-.108 4.383.877 1.03 1.088 1.586 2.455 1.784 4.117.511 4.286-.657 7.646-5.082 7.027" clip-rule="evenodd"/><path fill="#52662C" fill-rule="evenodd" d="m112.897 189.059-4.703 2.448-.558-7.111c-.23-2.366-.695-4.862-.837-7.191l2.928-.884.181-.075c.044-.019.122-.054.184-.078.013 1.278 1.247 4.211 1.604 5.979.436 2.162.675 4.599.539 7.046z" clip-rule="evenodd"/><path fill="#FDAB93" fill-rule="evenodd" d="M154.52 87.375c-1.196 2.002-3.108 2.954-5.907 2.49-2.325-.386-4.974-1.985-5.802-3.381.312-3.92 8.177-3.16 11.537-1.982l-.017-1.332c.228.409.049-.324.201.567l-.223 1.733c-.277.805-.458.97-.952 1.48-1.535 1.585-2.288.787-2.381 1.886l1.037.134c.841-.21 1.64-1.174 2.507-1.595" clip-rule="evenodd"/><path fill="#fff" fill-rule="evenodd" d="M90.425 204.772c-1.095-.314-2.346-1.016-3.419-1.45-1.256-.506-2.468-.865-3.668-1.305-.326-1.05-.104-2.218-.257-3.28-.162-1.117-.635-1.728-.392-2.633 2.997.191 5.74 1.558 7.7 3.013.844.628 2.126 1.473 2.204 2.824.093 1.606-.997 2.825-2.168 2.831" clip-rule="evenodd"/><path fill="#FBE5DA" fill-rule="evenodd" d="M178.84 79.99c-.035 2.675-3.192 10.132-4.721 11.89-1.28.18-.294.115-.633-.244.931-3.161 2.582-5.95 3.512-9.132 1.629-5.573 1.81-15.1.827-20.722a99 99 0 0 0-.858-4.402c-.255-1.137-1.355-3.491-.552-4.448 1.362 1.034 3.142 9.299 3.459 11.807.704 5.565-1.22 13.614-1.034 15.25" clip-rule="evenodd"/><path fill="#fff" fill-rule="evenodd" d="M123.627 203.644c-1.427-.187-2.522.726-3.503.418l-1.012.054c.87-2.733 2.492-5.052 4.607-6.612.95-.7 1.139-.843 2.533-.843 1.695.208 4.619 3.191 1.569 5.443-.938.692-.883.729-1.611 1.625-1.144-.022-1.608-.46-2.583-.085" clip-rule="evenodd"/><path fill="#D7D7E1" fill-rule="evenodd" d="M79.797 204.451c-1.507.89-7.044-.099-10.022 1.685-.758.454-1.924 1.336-3.036 2.439a90 90 0 0 1-3.495-2.194c.83-1.011 1.865-1.5 3.401-1.95 3.546-1.038 9.289-1.034 13.152.02" clip-rule="evenodd"/><path fill="#FDAB93" fill-rule="evenodd" d="M122.587 189.075c-.339-.36.568-.58-2.139.054-2.456.574-6.088 1.911-7.009 2.084l-.724 12.984 1.215.28c-.581.311-1.824.005-2.638.02-.589-2.365-1.136-10.639-.544-13.359 1.936-.669 3.661-1.625 5.974-2.335a88 88 0 0 1 3.168-.912c.954-.252 2.365-.477 3.173-.776-.032.804-.094 1.464-.476 1.96M122.938 77.1c-3.395-.57-4.653-.547-7.78-.267-1.215.04-.573-5.023.337-6.783 1.062-2.053 2.761-3.073 5.146-3.34-.846 1.888-1.193 2.68-1.103 5.043.052 1.352.276 3.594.808 4.62.798.28 2.023.281 2.592.728" clip-rule="evenodd"/><path fill="#6F140C" fill-rule="evenodd" d="M150.824 110.846c-5.446-.578-9.21-1.611-13.577-4.041-2.772-1.543-7.375-5.418-6.833-8.604l.322-.862.547.98c.461 4.449 5.611 7.622 10.478 9.537 3.854 1.517 9.174 2.553 13.336 1.791.71-.13 1.288-.28 1.898-.461.246-.073.54-.146.806-.26l.752-.46c.638-.016-.052.151.76-.222l1.63-1.087c4.286-3.516 3.475-3.698 2.849-7.19.176-.5.073-.335.485-.642 2.855 3.304-1.062 7.634-3.121 8.921-3.445 2.154-5.13 2.511-10.332 2.6" clip-rule="evenodd"/><path fill="#4C2403" fill-rule="evenodd" d="M83.339 202.016c1.2.441 2.412.8 3.668 1.306 1.073.434 2.324 1.136 3.419 1.45.43.432.795.491 1.51.651.65.537 1.107.527 1.987.523.455-.58.068-.275.271-.626.405-.7-.084-.399.6-.654.416.428.19-.4.341.655.134.934-.487 1.681-1.802 1.579-1.193-.092-2.468-.788-3.495-1.26-1.909-.88-4.95-2.401-7.096-2.646-.662.572-.403.791-1.425.766-5.186-.656-9.202-1.873-14.956-.244-.64.181-1.24.517-1.46.306.763-.832 4.407-2.099 6.13-2.47 2.355-.507 5.224-.869 7.85-.298l.967.069z" clip-rule="evenodd"/><path fill="#FDAB93" fill-rule="evenodd" d="M211.795 107.404c-1.223 1.875-3.379 3.461-5.534 1.072-1.299-1.439-2.205-3.487-5.325-3.978.672-2.247.883-3.114 1.097-5.516.357 1.025.092 1.969-.046 3.163 1.915-.561 4.114.757 5.584 1.891 1.68 1.297 3.06 3.229 4.224 3.368M95.119 188.174c.039.955-.347 2.664-.909 3.242l.432-1.508c-1.347-1.243-4.345-3.173-6.669-3.023-1.146 2.107-1.486 6.634-1.39 9.075l-2.324-.701c.147-3.903-.38-6.021.482-10.321 3.853.959 6.888 1.756 10.378 3.236M183.702 110.724l.645-2.029c1.713.268 6.435 1.136 7.677-.699 1.163.719 1.812.944 3.369 1.023-.643 1.862-2.644 3.436-4.642 3.59-2.794.214-4.837-1.044-7.049-1.885" clip-rule="evenodd"/><path fill="#D7D7E1" fill-rule="evenodd" d="M120.123 204.062c-.731.531-1.689.566-2.651.448l-1.777-.006c.42-5.02 2.555-6.911 6.643-8.032a8.3 8.3 0 0 1 1.771-.298c.702-.029 1.628.015 2.142.487-1.394 0-1.583.143-2.533.844-2.115 1.559-3.737 3.878-4.607 6.611z" clip-rule="evenodd"/><path fill="#FDAB93" fill-rule="evenodd" d="M192.429 106.858c3.019.472 4.95-1.99 5.928-4.649 1.414-3.841.86-6.168-.163-9.106 3.246 1.648 3.634 6.045 2.146 10.151-.835 2.303-2.858 4.849-5.351 4.78a4.6 4.6 0 0 1-1.459-.284c-.781-.292-.813-.385-1.101-.892M130.413 98.201c-.542 3.186 4.061 7.061 6.833 8.604 4.367 2.431 8.132 3.463 13.577 4.041-1.158.443-3.231-.027-4.354-.354-1.584-.461-2.866-.57-4.455-.886-2.65-.527-5.009-1.428-7.083-2.668-3.439-2.057-7.849-7.09-7.847-10.255.702.194 1.438.331 2.081.503.726.194.386-.013.842.399.012.01.402.61.406.616" clip-rule="evenodd"/><path fill="#351402" fill-rule="evenodd" d="M171.247 88.752c.324.461-.062.048.49.53.577.502.064.051.614.426.272.625.595.756.791 1.65-.461.635-1.165 1.332-2.015 1.636-1.718-1.437-1.958-2.443-4.778-3.774-1.036-.489-2.172-.836-3.366-1.08-1.196-.244-3.289-.16-3.96-.846.759-1.422 8.759-1.112 12.224 1.458" clip-rule="evenodd"/><path fill="#953615" fill-rule="evenodd" d="M120.641 66.71c-2.386.267-4.085 1.287-5.146 3.34-.911 1.76-1.552 6.823-.338 6.783-.614.34-.628.12-1.397.426-.171-3.963-.611-6.066 1.926-9.102 3.533-4.226 12.403-2.713 16.561 1.295.733.707 4.445 5.601 3.387 6.98-.9-.274-.775-.849-1.127-1.766-.299-.78-.648-1.47-1.02-2.079-2.805-4.592-8.739-6.871-12.846-5.877" clip-rule="evenodd"/><path fill="#FDAB93" fill-rule="evenodd" d="M78.75 72.607c-1.957-.57-2.868-1.509-2.897-3.582-.032-2.158 1.13-4.977-.582-5.28-.329.593-.134.607-.092 1.413-.542-.318-.82-.603-1.617-.783-.31.356-.26-.018-.218.708-.478-.568-.408-.75-.396-1.428 3.374-1.664 3.107-2.61 4.717-3.07.344 1.94 1.232 3.367.981 5.698-.262 2.433-1.048 4.347.104 6.324M190.23 95.477c-1.036.884-1.591 1.717-3.001.954-.453-6 10.302-9.323 11.299-13.916 1.636 3.045-2.467 5.584-3.885 6.5-1.753 1.132-4.458 3.187-4.968 6.2z" clip-rule="evenodd"/><path fill="#FBE5DA" fill-rule="evenodd" d="m167.612 112.301-1.419-.028c.242-.869 1.795-2.233 2.522-2.907 2.935-2.722 5.933-6.896 5.526-11.139.519-.187-.576-.605.773.105 1.3 2.236-.553 6.884-1.722 8.746-.736 1.173-1.519 2.416-2.46 3.189-.831.682-2.231 1.95-3.22 2.034" clip-rule="evenodd"/><path fill="#FDAB93" fill-rule="evenodd" d="M96.541 55.699c-4.671-1.837-11.67 3.912-12.09 8.066-.825-1.775-.501-2.567.603-4.58a15.4 15.4 0 0 1 2.872-3.735c2.817-2.672 7.928-2.554 8.615.249" clip-rule="evenodd"/><path fill="#848485" fill-rule="evenodd" d="M127.479 204.519c-1.263-.381-2.185-.665-3.853-.874.974-.376 1.439.062 2.583.085.728-.897.673-.933 1.611-1.625 3.05-2.253.126-5.235-1.569-5.444-.515-.472-1.44-.516-2.142-.487a8.3 8.3 0 0 0-1.771.298c-4.088 1.121-6.223 3.012-6.643 8.032l1.777.006c-.899.551-1.578.214-2.664.01-.121-2.13.493-4.289 1.72-5.753 1.451-1.734 2.969-1.788 4.049-2.995.067.054-.264.551.628.084.424-.223.287-.267.609-.678.372.516-.597.402.907.259.993-.094 1.489-.501 3.41.006 1.361.358 2.516 1.264 3.128 2.119.729 1.018 1.234 2.683.327 4.184-.923 1.528-2.688 1.371-2.107 2.773" clip-rule="evenodd"/><path fill="#953615" fill-rule="evenodd" d="M172.352 89.708c-.55-.375-.037.076-.614-.427-.552-.48-.166-.068-.49-.53 1.246.402 6.284-5.47-2.058-10.844-4.303-2.771-8.292-.442-10.127 3.666-.439.98-.231 1.11-1.114 1.106-.677-1.534 4.259-10.119 11.6-5.641 1.969 1.2 4.116 3.324 4.868 5.268 1.258 3.26-.394 5.499-2.065 7.402" clip-rule="evenodd"/><path fill="#B80000" fill-rule="evenodd" d="M144.563 115.918c-.697.616-2.046.672-3.218.827-3.617.48-7.566.798-11.274.578.793-.889 1.881-1.688 2.482-3.319 1.878.203 3.951.738 5.869 1.069 2.065.356 4.088.541 6.141.845" clip-rule="evenodd"/><path fill="#848485" fill-rule="evenodd" d="M86.583 195.96c1.117.598 2.128.884 3.207 1.555.989.616 1.697 1.549 2.753 1.822.215.765.14.731.772.86.096 1.802.7.658 1.927 1.644l-1.407-.305c-.362.407-.163-.496-.28.646-.201 1.989-.928 2.211-1.62 3.241-.715-.159-1.08-.219-1.51-.651 1.17-.006 2.26-1.225 2.168-2.831-.078-1.351-1.36-2.196-2.205-2.824-1.96-1.455-4.702-2.822-7.699-3.013-1.777-.017-3.14-.017-4.131.869-.26 1.947 1.524 1.126 1.289 4.15l-.967-.069c.172-2.271-2.652-3.036-.82-4.929 1.012-1.045 3.397-1.011 5.278-.96l.92.094z" clip-rule="evenodd"/><path fill="#4C2403" fill-rule="evenodd" d="M127.648 49.896c.174-5.478-5.199-1.58-6.066.486.93-.37 1.435-.797 2.651-.982 1.444-.22 2.12.118 3.415.496m.869 1.334c-1.696.34-3.718-3.977-9.253 2.832-.569.7-.409.761-1.34.752-.058-2.07 3.957-6.476 5.1-7.342 5.598-4.243 5.995 2.686 5.493 3.758M174.235 59.422c-.064-1.155-.582-2.253-1.161-2.98-.659-.828-1.604-1.525-2.556-.429.033.04.083.093.108.113s.085.084.118.108c.524.376-.42-.211.286.181 3.147 1.75 1.822 2.01 3.205 3.007m1.8 6.327c-1.454-.468-1.305-4.782-4.061-7.66-1.098-1.146-1.615-.739-3.201-.834.375-2.24 3.664-4.827 5.814.08.599 1.37 2.314 7.058 1.448 8.414" clip-rule="evenodd"/><path fill="#953615" fill-rule="evenodd" d="M219.229 97.105c.769.282.624.266.559 1.345l-.88 5.543c-.537 2.132-1.315 4.211-2.27 5.985-1.301 2.418-5.718 7.706-7.521 7.531-.221-1.086.808-1.288 1.587-1.937 3.864-3.219 6.077-6.864 7.308-11.954.274-1.134.7-5.989 1.217-6.513M154.519 87.375c-.867.42-1.666 1.384-2.507 1.595l-1.037-.134c.093-1.1.846-.302 2.381-1.886.494-.51.675-.675.952-1.48l.224-1.733c-.153-.891.026-.158-.202-.567.057-.46.061-.669-.085-1.055-.256-.68-.294-.543-.647-.852-.207-.705.158-.252-.526-.627-1.211-2.214-5.354-1.874-7.704.876-.502.587-.969 1.985-1.923 2.145-.668-1.648 3.495-6.264 7.896-5.25 1.916.442 3.235 1.94 3.751 3.265 1.15 2.96-.511 4.709-.573 5.703M73.1 40.52c-.542 1.884-7.99.904-12.667 9.032-.507.88-1.901 4.752-2.668 5.013-1.275-1.667 3.4-8.056 5.458-9.938 1.966-1.798 9.095-5.059 9.876-4.107" clip-rule="evenodd"/><path fill="#D7D7E1" fill-rule="evenodd" d="m83.338 202.017-3.49-.894c.234-3.024-1.55-2.202-1.29-4.15.992-.886 2.354-.886 4.131-.869-.242.905.23 1.516.392 2.633.154 1.062-.069 2.23.257 3.28" clip-rule="evenodd"/><path fill="#953615" fill-rule="evenodd" d="m224 106.216-.205 1.484-.313.524a8 8 0 0 0-.229.539c-1.008 2.591-1.718 4.061-3.504 6.377-.853 1.105-1.585 1.86-2.549 2.819-1.198 1.189-2.136 2.23-3.16 1.928.199-1.081 3.21-2.844 5.6-6.217.853-1.205 1.644-2.54 2.26-4.02 1.282-3.078.778-4.073 2.1-3.434" clip-rule="evenodd"/><path fill="#790202" fill-rule="evenodd" d="M120.503 112.406c.494 2.38 2.504 3.692 5.212 4.347 2.861.691 4.929-.702 5.839-2.825l.999.076c-.601 1.631-1.69 2.43-2.482 3.319-1.153.095-1.764.725-3.629.53-1.587-.166-2.735-1.017-3.951-1.202-.039-.051-.101-.184-.134-.141-.031.041-.101-.107-.134-.136l-.273-.242c-1.448-1.189-2.639-2.229-2.452-5.026l.673.187c-.076.952-.071.555.332 1.113" clip-rule="evenodd"/><path fill="#FDCFBF" fill-rule="evenodd" d="M101.655 85.231c-.303 1.03.017.4-.464.645-.514-.302-.442-.286-.528-1.679-.586-9.46-3.28-8.623-3.981-11.203l1.076.23c1.701.4 2.517 3.172 3.048 5.183.41 1.551 1.129 5.261.849 6.824" clip-rule="evenodd"/><path fill="#953615" fill-rule="evenodd" d="M191.799 74.93c.481-.685-.228-.316.917-.576 5.408-1.225 11.365 4.725 11.642 6.657.293 2.039-1.887-1.245-1.982-1.358-5.442-6.48-9.3-3.43-10.577-4.723M54.288 47.835l.215-1.56c1.12-1.71 1.743-6.262 8.096-8.39.823-.276 1.262-.499 1.897.048-.476 1.108-.898.33-3.316 1.58-.955.495-2.112 1.35-2.876 2.116-3.789 3.806-2.094 7.13-4.016 6.206" clip-rule="evenodd"/><path fill="#FBE5DA" fill-rule="evenodd" d="M130.071 69.44c.743.345 1.739 1.937 2.486 2.838 2.127 2.562.206 5.342-2.769.055-.205-.364-.843-1.37-.909-1.595-.299-1.019.062-1.822 1.192-1.298" clip-rule="evenodd"/><path fill="#3C4B21" fill-rule="evenodd" d="m82.987 189.003.172-1.04c-1.959-.34-4.844-1.937-5.866-3.154 1.046.057 1.1-.537 6.513-.047a29 29 0 0 0-.373 2.204c-.096.811-.024 1.517-.446 2.037M123.378 190.237l.75-3.216c1.594-.34 4.114-.675 5.763-.526-1.099 2.164-4.293 3.205-6.513 3.742" clip-rule="evenodd"/><path fill="#4C2403" fill-rule="evenodd" d="M109.63 199.556c-.411.754-.357.484-1.224.866-4.379 1.929-1.504 5.457 2.043 7.315.952.498 1.11.319 1.137 1.171-.28.138-.07.385-1.033-.043-.063-.029-.124-.073-.183-.103-.061-.033-.134-.091-.184-.12-.05-.03-.121-.088-.183-.13l-.924-.345c-.318-.389-.872-.712-1.185-.986-1.283-.787-2.91-2.592-2.582-4.686.288-1.839 2.566-3.274 4.149-3.362.331.24.36-.102.169.423M96.948 209.138c-.245.251-.177.068-.323.517-.103.317-.126.674-.16 1.014l-.8-.017.031-.63c-1.156.234-.716.242-1.032-.432l2.373-1.614c5.388-3.849-2.96-5.495-3.48-5.794.116-1.142-.083-.239.279-.646l1.407.305c1.983.213 3.992 1.661 4.44 3.061.672 2.103-1.856 3.703-2.735 4.236" clip-rule="evenodd"/><path fill="#3C4B21" fill-rule="evenodd" d="m95.09 192.38.947-3.778c1.53 1.005 3.957 2.211 4.262 3.925-1.875.564-3.488-.357-5.208-.147" clip-rule="evenodd"/><path fill="#953615" fill-rule="evenodd" d="M111.293 204.498c-1.373-.661-1.119-.336-1.311-2.137-.1-.946-.085-2.098-.351-2.805.19-.525.161-.183-.17-.423.365-1.168.121-2.518.095-3.709-.205-.18-.054-.08-.427-.335a4 4 0 0 0-.289-.135c.717.034.337.142.73-.223-.053-2.28-.386-2.473 1.178-3.593-.591 2.721-.044 10.994.545 13.36M96.037 188.602l-.946 3.778-.096.845c-.652.987-1.46 5.53-1.68 6.972-.632-.13-.556-.095-.771-.86l1.666-7.921c.562-.579.948-2.287.91-3.242z" clip-rule="evenodd"/><path fill="#FBE5DA" fill-rule="evenodd" d="M170.72 81.096c2.069.036 3.195 4.255 1.854 5.121-.384.248-1.116.21-1.513-.13-.829-.712.124-.498-.562-3.096-.268-1.018-.137-1.292.221-1.895" clip-rule="evenodd"/><path fill="#953615" fill-rule="evenodd" d="m84.26 195.259-.922-.094c-.05-1.322.066-5.304-.352-6.161.422-.521.35-1.227.447-2.037a29 29 0 0 1 .373-2.204l.935.176c-.863 4.299-.335 6.417-.482 10.32" clip-rule="evenodd"/><path fill="#824101" fill-rule="evenodd" d="M127.648 49.896c-1.295-.378-1.971-.717-3.415-.496-1.216.185-1.721.612-2.651.982.867-2.066 6.24-5.964 6.066-.486" clip-rule="evenodd"/><path fill="#953615" fill-rule="evenodd" d="M206.517 76.478c-1.073-.098-1.237-.833-1.742-1.493-2.442-3.192-5.494-2.43-6.29-3.073.291-1.039 1.564-.71 2.732-.437 1.034.24 1.876.694 2.575 1.196.982.706 2.916 2.533 2.725 3.807M180.589 109.21c.234-1.367 1.529-.602 3.278-2.713 1.696-2.047.587-4.077 1.366-4.863.599.262.567.177.654 1.076.426 4.42-3.885 7.069-5.298 6.5M123.378 190.237l-.14 1.108-1.423 3.833c-.322.411-.186.455-.61.678-.892.467-.561-.03-.627-.084.58-2.117 1.966-4.419 2.009-6.697.382-.496.444-1.155.476-1.96l1.064-.094z" clip-rule="evenodd"/><path fill="#F9C2AD" fill-rule="evenodd" d="M163.241 101.896c-2.426.447-4.028-2.685-3.284-3.286 1.019-.824 3.997 1.088 3.284 3.286" clip-rule="evenodd"/><path fill="#953615" fill-rule="evenodd" d="M78.21 81.67c-.028-1.113.816-1.12 1.414-2.218.923-1.694-.038-2.145.498-3.36 2.12.57.14 5.902-1.911 5.578" clip-rule="evenodd"/><path fill="#824101" fill-rule="evenodd" d="M174.235 59.422c-1.383-.997-.058-1.258-3.205-3.007-.706-.392.238.195-.286-.181-.033-.024-.093-.088-.118-.108a1 1 0 0 1-.108-.113c.952-1.097 1.897-.4 2.556.428.579.728 1.097 1.826 1.161 2.98" clip-rule="evenodd"/><path fill="#fff" fill-rule="evenodd" d="m153.599 81.263.065 1.165c-1.358-.09-2.187-.889-1.89-2.098l1.298.306c.684.375.319-.078.527.627" clip-rule="evenodd"/><path fill="#F9C2AD" fill-rule="evenodd" d="M156.524 96.745c.741-.141 2.074.173 1.528.994-.46.69-1.564.157-1.528-.994" clip-rule="evenodd"/><path fill="#2B2B2A" fill-rule="evenodd" stroke="#2B2B2A" stroke-miterlimit="22.926" stroke-width=".756" d="M18.656 120h202.688c0 1.898-.057 3.783-.16 5.656H18.816c-.103-1.873-.16-3.758-.16-5.656Z" clip-rule="evenodd"/><path fill="#2B2B2A" fill-rule="evenodd" stroke="#2B2B2A" stroke-miterlimit="22.926" stroke-width=".756" d="M34.66 121.7v52.982a101 101 0 0 1-2.827-4.685V121.7zM59.447 121.7v79.571a101 101 0 0 1-2.828-2.196V121.7zM84.234 121.7v93.144q-1.424-.537-2.828-1.115V121.7zM109.02 121.7v99.05q-1.42-.154-2.828-.346V121.7zM133.807 121.7v98.704q-1.407.192-2.828.346V121.7zM158.593 121.7v92.029q-1.403.578-2.827 1.115V121.7zM183.38 121.7v77.375c-.93.747-1.871 1.482-2.827 2.196V121.7zM208.167 121.7v48.297a102 102 0 0 1-2.828 4.685V121.7z" clip-rule="evenodd"/><path fill="#E31F25" fill-rule="evenodd" d="m33.092 46.284 160.625 160.625 13.192-13.192L46.284 33.092z" clip-rule="evenodd"/></svg>