<svg xmlns="http://www.w3.org/2000/svg" width="44" height="48" fill="none"><path fill="#D9E9DF" d="m23.593 38.588.232-1.474a14.655 14.655 0 0 1 13.513-12.342l.635-.042a20 20 0 0 1 3.9.122l1.548.199a.066.066 0 0 1 .057.067c-.25 11.155-8.885 20.358-19.995 21.391a.066.066 0 0 1-.073-.06l-.004-.058c-.174-2.434-.13-4.879.133-7.305zM23.165 9.542l.29 1.463a14.655 14.655 0 0 0 13.998 11.79l.635.017a20 20 0 0 0 3.893-.278l1.538-.261a.066.066 0 0 0 .055-.07C42.877 11.069 33.879 2.22 22.737 1.632a.066.066 0 0 0-.07.064l-.002.057c-.077 2.44.066 4.88.426 7.294zM20.364 9.457l-.233 1.474A14.655 14.655 0 0 1 6.613 23.267l-.635.041a20 20 0 0 1-3.9-.123l-1.548-.2a.066.066 0 0 1-.057-.067C.728 11.763 9.368 2.564 20.478 1.535a.066.066 0 0 1 .072.062l.005.057c.173 2.434.127 4.879-.136 7.305zM20.78 38.542l-.285-1.465A14.655 14.655 0 0 0 6.55 25.225l-.636-.019a20 20 0 0 0-3.894.261l-1.539.255a.066.066 0 0 0-.055.068c.649 11.14 9.607 20.028 20.747 20.665a.066.066 0 0 0 .07-.064l.002-.057a41 41 0 0 0-.394-7.296z"/></svg>