<svg xmlns="http://www.w3.org/2000/svg" fill="none" viewBox="0 0 90 121"><path fill="#FFACD4" d="m31.48 77.893 2.495-2.696a6.05 6.05 0 0 0 1.605-4.356c-.04-.97.156-1.936.568-2.816l.188-.399a7.86 7.86 0 0 1 4.2-3.96l.728-.291a9.9 9.9 0 0 1 3.233-.694l5.803-.247a5.48 5.48 0 0 0 3.995-1.985l1.818-2.198a14.1 14.1 0 0 1 4.914-3.793l1.419-.66a15.62 15.62 0 0 1 13.759.288l.367.19a17.24 17.24 0 0 0 7.471 1.92l2.036.052a11.25 11.25 0 0 1 9.13 5.104l5.453 8.37a37.6 37.6 0 0 1 3.636 7.147l2.022 5.307c.681 1.79.949 3.733.788 5.64-.364 4.293-2.9 8.158-6.715 10.157a12.6 12.6 0 0 1-5.311 1.428l-5.203.222-3.083.399a21.19 21.19 0 0 0-14.672 8.911l-1.418 2.037a21.7 21.7 0 0 1-2.595 3.074l-.724.711a18.6 18.6 0 0 1-10.443 5.153l-.087.012a17.674 17.674 0 0 1-14.616-4.667l-2.328-2.204a26.4 26.4 0 0 1-4.18-5.09l-4.832-7.666-1.897-3.597a16.22 16.22 0 0 1-.337-14.457l.26-.554a14.9 14.9 0 0 1 2.553-3.792M78.137 48.742l1.567 1.522a7.28 7.28 0 0 0 9.431.61l2.123-1.587a4.47 4.47 0 0 0 .343-6.88l-1.287-1.179a7.8 7.8 0 0 1-1.792-2.44l-1.038-2.218-1.807-2.868a15.72 15.72 0 0 0-9.828-6.949l-.505-.114a3.174 3.174 0 0 0-3.268 2.158l-.924 2.77a6.9 6.9 0 0 0-.16 3.816l.562 2.307a15.1 15.1 0 0 0 2.126 4.834l2.945 4.404c.439.656.946 1.264 1.512 1.814M70.014 17.94l2.372 3.313a1.894 1.894 0 0 1-2.52 2.724l-2.156-1.303a6.4 6.4 0 0 1-1.32-1.06l-3.766-3.96-2.725-2.743a.22.22 0 0 1 .196-.37l6.5 1.22a5.44 5.44 0 0 1 3.419 2.18M47.224 24.953l.684-2.96a3.38 3.38 0 0 1 5.63-1.683l6.349 6.066 4.903 5.764a16.4 16.4 0 0 1 2.919 5.01l.895 2.45a6.08 6.08 0 0 1-2.3 7.122l-.584.396a7.68 7.68 0 0 1-6.005 1.134l-.084-.02a7.9 7.9 0 0 1-3.25-1.586l-1.59-1.3a16.6 16.6 0 0 1-4.644-6.079l-.66-1.476a23.4 23.4 0 0 1-1.776-6.095l-.596-4a7.4 7.4 0 0 1 .11-2.743M46.552 10.735l.282 3.871A2.399 2.399 0 0 1 42.3 15.86l-2.773-5.5a10.15 10.15 0 0 0-2.975-3.552l-5.531-4.147c-.343-.257-.092-.798.325-.704l8.902 2.014a8.2 8.2 0 0 1 2.424.976l.526.318a6.99 6.99 0 0 1 3.354 5.47M31.05 43.632l-1.093-2.45a29.2 29.2 0 0 1-2.352-15.19c.22-1.959 2.265-3.17 4.08-2.399l1.532.652a26.1 26.1 0 0 1 12.61 11.353l3.072 5.537 1.692 3.21a6.998 6.998 0 0 1-3.708 9.807l-.071.026a7.15 7.15 0 0 1-5.18-.041l-1.39-.554a11 11 0 0 1-3.996-2.736l-1.476-1.589a20.6 20.6 0 0 1-3.72-5.626M14.041 38.547l.817-1.335a2.256 2.256 0 0 1 2.628-.965l2.934.963a13.1 13.1 0 0 1 5.883 3.952l1.694 1.991a22.4 22.4 0 0 1 2.747 4.059l2.513 4.765c.567 1.076 1 2.218 1.287 3.4l.833 3.42a4.8 4.8 0 0 1-5.053 5.92l-.55-.044a5.6 5.6 0 0 1-2.065-.58l-3.943-1.988a18.4 18.4 0 0 1-2.918-1.832l-.557-.428a14.48 14.48 0 0 1-5.255-8.061l-.553-2.267-.879-3.612a12 12 0 0 1-.303-1.927l-.133-1.833a6.05 6.05 0 0 1 .873-3.598M7.51 68.3l.367-2.305a5.934 5.934 0 0 1 7.17-4.855 5.97 5.97 0 0 1 3.72 2.638l4.332 7.806 2.57 5.76a6.02 6.02 0 0 1 .154 4.526l-.41 1.12a3.78 3.78 0 0 1-5.987 1.588l-5.28-4.45a17.4 17.4 0 0 1-2.537-2.644L9 74.115A7.55 7.55 0 0 1 7.51 68.3M2.48 43.614l2.23-3.645c.173-.282.608-.139.58.19l-.395 4.657a8.78 8.78 0 0 0 1.61 5.85l1.032 1.442c.287.4.494.852.61 1.33l.134.548a2.939 2.939 0 0 1-5.454 2.067l-.61-1.158a6.3 6.3 0 0 1-.55-1.45l-.442-1.817a10.56 10.56 0 0 1 1.255-8.014M6.004 18.669l2.3-5.553a.299.299 0 0 1 .565.044l.34 1.393.441 3.442a12.2 12.2 0 0 0 2.804 6.343 12.2 12.2 0 0 1 1.757 2.733l.996 2.131.787 1.684a2.782 2.782 0 0 1-3.134 3.893l-.814-.184a4.46 4.46 0 0 1-2.181-1.208l-1.031-1.038a9.5 9.5 0 0 1-1.988-2.947l-.787-1.837a11.46 11.46 0 0 1-.055-8.896M16.72 5.474 15 .964c-.15-.397.313-.742.649-.484a42 42 0 0 1 5.217 4.748l3.082 3.319 3.729 4.812c.637.822.913 1.868.764 2.897l-.041.285a3.41 3.41 0 0 1-5.449 2.217l-1.282-.984a6.8 6.8 0 0 1-2.107-2.71l-.724-1.69a14 14 0 0 1-.725-2.173z"/></svg>