<svg xmlns="http://www.w3.org/2000/svg" width="67" height="64" fill="none"><path fill="#FFACD4" d="m52.123 48.492-2.727-.045a4.5 4.5 0 0 1-3.161-1.373c-.5-.52-1.12-.91-1.803-1.14l-.31-.104a5.84 5.84 0 0 0-4.28.222l-.53.242a7.3 7.3 0 0 0-2.031 1.38l-3.11 2.987a4.08 4.08 0 0 1-3.115 1.125l-2.112-.151a10.46 10.46 0 0 0-4.557.69l-1.082.424A11.6 11.6 0 0 0 16.4 60.28l-.087.294a12.8 12.8 0 0 1-2.803 4.994l-1.016 1.12a8.35 8.35 0 0 0-1.945 7.518l1.694 7.22a28 28 0 0 0 1.97 5.62l1.812 3.807a9.55 9.55 0 0 0 2.623 3.317c2.49 2.006 5.865 2.629 8.895 1.607a9.36 9.36 0 0 0 3.492-2.119l2.788-2.678 1.796-1.45a15.74 15.74 0 0 1 12.31-3.302l1.82.284c.986.154 1.984.216 2.982.185l.752-.024a13.8 13.8 0 0 0 8.124-2.961l.05-.04a13.12 13.12 0 0 0 4.994-10.239l.012-2.38a19.6 19.6 0 0 0-.587-4.855l-1.635-6.526-.958-2.864a12.05 12.05 0 0 0-7.586-7.597l-.43-.145a11 11 0 0 0-3.345-.575M12.541 58.576l.013 1.622a5.406 5.406 0 0 1-4.512 5.374l-1.94.325a3.32 3.32 0 0 1-3.869-3.346l.028-1.295a5.8 5.8 0 0 0-.39-2.214l-.658-1.694-.612-2.442a11.67 11.67 0 0 1 1.313-8.84l.198-.33a2.356 2.356 0 0 1 2.834-.646l1.961.925a5.1 5.1 0 0 1 2.13 1.873l.95 1.485a11.2 11.2 0 0 1 1.504 3.62l.852 3.84c.127.573.194 1.157.198 1.743M.178 38.413l.561 2.973a1.406 1.406 0 0 0 2.754.045l.407-1.825c.092-.411.128-.832.108-1.252L3.816 34.3l-.075-2.87a.163.163 0 0 0-.299-.085l-2.68 4.115a4.04 4.04 0 0 0-.584 2.952M15.633 29.78l-1.939-1.15a2.51 2.51 0 0 0-3.791 2.157l-.002 6.52.578 5.588c.149 1.438.552 2.84 1.191 4.137l.856 1.738a4.52 4.52 0 0 0 5.002 2.418l.512-.11a5.7 5.7 0 0 0 3.69-2.64l.032-.055a5.85 5.85 0 0 0 .816-2.559l.118-1.52a12.3 12.3 0 0 0-.88-5.611l-.454-1.111a17.4 17.4 0 0 0-2.359-4.08l-1.84-2.372c-.422-.542-.94-1-1.53-1.35M8.348 22.125l1.933 2.138a1.78 1.78 0 0 0 3-1.79l-1.53-4.31a7.5 7.5 0 0 1-.38-3.419l.612-5.096c.038-.316-.381-.46-.545-.187l-3.486 5.81a6 6 0 0 0-.72 1.803l-.099.445a5.19 5.19 0 0 0 1.215 4.606M33.956 30.684l-.754-1.844a21.7 21.7 0 0 0-6.945-9.056c-1.164-.887-2.864-.41-3.38.959L22.44 21.9a19.37 19.37 0 0 0-.376 12.592l1.395 4.49.854 2.554a5.195 5.195 0 0 0 7.166 3.041l.051-.024a5.3 5.3 0 0 0 2.635-2.8l.416-1.032a8.2 8.2 0 0 0 .582-3.548l-.096-1.607a15.3 15.3 0 0 0-1.111-4.883M39.953 18.946l-1.135-.246a1.675 1.675 0 0 0-1.866.915l-.989 2.069a9.7 9.7 0 0 0-.897 5.185l.2 1.93c.125 1.21.383 2.403.769 3.557l1.268 3.793c.286.856.677 1.674 1.164 2.435l1.408 2.202a3.564 3.564 0 0 0 5.77.326l.258-.318c.338-.416.592-.894.748-1.406l.956-3.137c.25-.817.422-1.656.514-2.505l.057-.519a10.75 10.75 0 0 0-1.63-6.956l-.934-1.46-1.487-2.324a9 9 0 0 0-.88-1.152l-.914-1.012a4.5 4.5 0 0 0-2.38-1.377M59.272 30.706l-1.425-.986a4.406 4.406 0 0 0-6.777 4.707l1.967 6.33 1.773 4.334a4.47 4.47 0 0 0 2.35 2.405l.811.354a2.807 2.807 0 0 0 3.924-2.398l.32-5.117a13 13 0 0 0-.117-2.718l-.469-3.129a5.6 5.6 0 0 0-2.357-3.782M48.604 15.34l-3.1-.672c-.24-.052-.387.255-.195.409l2.701 2.177a6.5 6.5 0 0 1 2.314 3.865l.244 1.294c.068.359.204.702.401 1.01l.226.353a2.182 2.182 0 0 0 3.907-1.867l-.308-.921a4.7 4.7 0 0 0-.497-1.04l-.748-1.169a7.84 7.84 0 0 0-4.945-3.438M33.409 4.435l-4.16-1.615a.222.222 0 0 0-.267.326l.574.897 1.62 2.003a9.05 9.05 0 0 1 1.966 4.759c.083.803.273 1.592.566 2.345l.632 1.628.5 1.286a2.066 2.066 0 0 0 3.697.315l.32-.531c.323-.54.486-1.161.47-1.79l-.028-1.086a7 7 0 0 0-.562-2.579l-.582-1.365a8.5 8.5 0 0 0-4.746-4.593M20.83 3.416 19.29.179c-.134-.284-.557-.212-.592.1a31 31 0 0 0-.128 5.236l.2 3.357.67 4.47a2.85 2.85 0 0 0 1.162 1.897l.174.123a2.53 2.53 0 0 0 3.985-1.786l.13-1.193a5.04 5.04 0 0 0-.373-2.52l-.535-1.256a10 10 0 0 0-.795-1.505z"/></svg>