<svg xmlns="http://www.w3.org/2000/svg" fill="none" viewBox="0 0 91 113"><path fill="#FFACD4" d="m70.606 66.544-3.699-.06a6.1 6.1 0 0 1-4.288-1.863 6.1 6.1 0 0 0-2.445-1.546l-.42-.141a7.91 7.91 0 0 0-5.806.301l-.72.328a9.9 9.9 0 0 0-2.754 1.87l-4.218 4.053a5.53 5.53 0 0 1-4.225 1.526l-2.864-.205a14.2 14.2 0 0 0-6.181.937l-1.468.574a15.73 15.73 0 0 0-9.364 10.216l-.117.399a17.4 17.4 0 0 1-3.802 6.774l-1.378 1.519a11.32 11.32 0 0 0-2.64 10.197l2.3 9.793a38 38 0 0 0 2.672 7.621l2.456 5.165a12.9 12.9 0 0 0 3.558 4.498c3.377 2.722 7.956 3.567 12.066 2.18a12.7 12.7 0 0 0 4.735-2.873l3.782-3.633 2.435-1.966a21.36 21.36 0 0 1 16.696-4.479l2.47.385c1.338.209 2.691.293 4.044.25l1.021-.031a18.73 18.73 0 0 0 11.018-4.017l.07-.055a17.803 17.803 0 0 0 6.773-13.887l.015-3.228a26.6 26.6 0 0 0-.796-6.585l-2.218-8.852-1.298-3.883a16.34 16.34 0 0 0-10.29-10.306l-.584-.196a15 15 0 0 0-4.536-.78M16.92 80.221l.016 2.2a7.33 7.33 0 0 1-6.119 7.289l-2.632.442a4.503 4.503 0 0 1-5.247-4.539l.038-1.757a7.8 7.8 0 0 0-.529-3.002l-.893-2.298-.83-3.312a15.83 15.83 0 0 1 1.781-11.99l.268-.447a3.196 3.196 0 0 1 3.845-.876l2.66 1.254a6.95 6.95 0 0 1 2.889 2.54l1.288 2.014a15.2 15.2 0 0 1 2.04 4.91l1.156 5.21c.172.775.262 1.567.268 2.362M.15 52.874l.761 4.032a1.907 1.907 0 0 0 3.736.061l.552-2.476a6.4 6.4 0 0 0 .146-1.698l-.26-5.497-.102-3.892a.22.22 0 0 0-.405-.115l-3.635 5.58a5.48 5.48 0 0 0-.793 4.005M21.113 41.165l-2.63-1.562a3.405 3.405 0 0 0-5.143 2.927l-.002 8.843.784 7.58a16.6 16.6 0 0 0 1.616 5.61l1.16 2.358a6.124 6.124 0 0 0 6.785 3.28l.694-.149a7.74 7.74 0 0 0 5.004-3.582l.045-.074a7.9 7.9 0 0 0 1.107-3.47l.16-2.062c.2-2.595-.208-5.201-1.193-7.61l-.617-1.508a23.6 23.6 0 0 0-3.2-5.535l-2.497-3.216a7.4 7.4 0 0 0-2.073-1.83M11.232 30.782l2.621 2.9a2.415 2.415 0 0 0 4.068-2.429l-2.074-5.845a10.2 10.2 0 0 1-.515-4.638l.83-6.912c.051-.428-.517-.622-.739-.253l-4.728 7.88a8.2 8.2 0 0 0-.976 2.446l-.135.604a7.03 7.03 0 0 0 1.648 6.247M45.965 42.39l-1.023-2.501a29.44 29.44 0 0 0-9.42-12.283c-1.579-1.202-3.883-.555-4.584 1.301l-.593 1.57a26.28 26.28 0 0 0-.51 17.078l1.892 6.09 1.159 3.465a7.047 7.047 0 0 0 9.72 4.125l.068-.033a7.2 7.2 0 0 0 3.574-3.8l.565-1.397c.617-1.526.887-3.17.789-4.813l-.13-2.18a20.8 20.8 0 0 0-1.508-6.622M54.1 26.47l-1.54-.334a2.27 2.27 0 0 0-2.531 1.24l-1.341 2.807a13.17 13.17 0 0 0-1.217 7.033l.27 2.618c.17 1.641.52 3.259 1.043 4.824l1.72 5.145c.389 1.161.919 2.27 1.579 3.302l1.91 2.987a4.834 4.834 0 0 0 7.826.442l.35-.431a5.6 5.6 0 0 0 1.015-1.907l1.297-4.255c.338-1.108.571-2.246.697-3.398l.076-.703a14.58 14.58 0 0 0-2.211-9.435l-1.266-1.98-2.017-3.153a12 12 0 0 0-1.192-1.562l-1.241-1.372a6.1 6.1 0 0 0-3.228-1.868M80.302 42.42l-1.933-1.337a5.976 5.976 0 0 0-8.523 1.841 6.01 6.01 0 0 0-.669 4.543l2.668 8.585 2.404 5.88a6.06 6.06 0 0 0 3.188 3.261l1.1.48a3.807 3.807 0 0 0 5.322-3.252l.435-6.94a17.5 17.5 0 0 0-.16-3.687l-.635-4.243a7.6 7.6 0 0 0-3.197-5.131M65.833 21.58l-4.205-.912c-.326-.07-.524.345-.265.554l3.664 2.953a8.84 8.84 0 0 1 3.139 5.241l.33 1.756c.093.487.277.952.544 1.37l.307.479a2.96 2.96 0 0 0 5.299-2.532l-.418-1.25a6.4 6.4 0 0 0-.674-1.41l-1.014-1.585a10.64 10.64 0 0 0-6.707-4.664M45.223 6.787l-5.642-2.19a.3.3 0 0 0-.363.442l.779 1.217 2.198 2.717a12.27 12.27 0 0 1 2.666 6.455c.113 1.09.37 2.159.767 3.18l.858 2.208.678 1.745a2.802 2.802 0 0 0 5.015.427l.432-.72c.44-.733.661-1.575.639-2.429l-.039-1.472a9.6 9.6 0 0 0-.761-3.498l-.79-1.851a11.53 11.53 0 0 0-6.437-6.23M28.162 5.406l-2.088-4.39c-.184-.386-.757-.289-.804.136a42.3 42.3 0 0 0-.174 7.101l.271 4.553.908 6.063a3.86 3.86 0 0 0 1.578 2.572l.235.168a3.433 3.433 0 0 0 5.406-2.423l.176-1.618a6.83 6.83 0 0 0-.507-3.42l-.726-1.702a14 14 0 0 0-1.077-2.04z"/></svg>