<svg xmlns="http://www.w3.org/2000/svg" fill="none" viewBox="0 0 10 160"><path fill="#fff" fill-rule="evenodd" d="M1.126 160a8.42 8.42 0 0 0 8.374-8.42.53.53 0 0 0-.238-.44l-3.237-2.121c-2.314-1.516-2.427-4.868-.22-6.537l1.51-1.142a2 2 0 0 0-.052-3.229l-1.658-1.169c-2.17-1.532-2.272-4.715-.204-6.383l2.226-1.795a2 2 0 0 0 .046-3.075l-2.625-2.249a4 4 0 0 1 .19-6.229l2.078-1.57a2 2 0 0 0-.053-3.23l-1.79-1.262c-2.13-1.503-2.276-4.61-.296-6.306l2.436-2.087a2 2 0 0 0-.095-3.114l-2.32-1.754a4 4 0 0 1-.222-6.203l2.766-2.418a2 2 0 0 0-.03-3.038L5 83.955a4 4 0 0 1 .06-6.178l2.669-2.152a2 2 0 0 0 .128-3.001L4.782 69.68a4 4 0 0 1 .46-6.158l2.219-1.565a2 2 0 0 0 .19-3.116l-2.4-2.177c-1.983-1.798-1.673-5 .618-6.385l1.334-.807a2 2 0 0 0 .309-3.193l-2.26-2.05c-1.984-1.799-1.674-5 .617-6.385l1.265-.765a2 2 0 0 0 .266-3.23l-2.08-1.783c-2.024-1.733-1.82-4.923.41-6.383l1.395-.914a2 2 0 0 0 .11-3.269L5.36 20.084a4 4 0 0 1-.098-6.305l4.003-3.227c.148-.12.234-.3.234-.49C9.5 4.694 5.296.307 0 .016V0h10.5v160z" clip-rule="evenodd"/></svg>