<svg width="29" height="310" viewBox="0 0 29 310" fill="none" xmlns="http://www.w3.org/2000/svg">
<path fill-rule="evenodd" clip-rule="evenodd" d="M29 0H0V0.999218H6.12327C16.8818 0.999218 25.6034 9.72076 25.6034 20.4793C25.6034 20.8191 25.4614 21.1435 25.2117 21.3739L15.0164 30.7854C13.2631 32.404 13.3077 35.1877 15.112 36.7492L23.7273 44.2051C24.6919 45.0398 24.639 46.552 23.6186 47.3174L15.454 53.4411C13.4942 54.911 13.3042 57.7813 15.0532 59.4967L23.8756 68.1499C24.7721 69.0291 24.646 70.5073 23.6136 71.2221L15.5939 76.7744C13.5673 78.1776 13.2797 81.0621 14.9895 82.8377L23.9728 92.1669C24.8276 93.0547 24.6839 94.4969 23.6705 95.1985L15.5939 100.79C13.5673 102.193 13.2797 105.078 14.9895 106.853L24.0898 116.304C24.9035 117.149 24.8185 118.51 23.9058 119.247L15.0328 126.414C13.2407 127.862 13.0386 130.52 14.5911 132.222L24.2634 142.825C25.0047 143.637 24.9507 144.896 24.1425 145.642L14.8496 154.22C13.1569 155.783 13.1305 158.449 14.792 160.044L24.1324 169.016C24.9401 169.791 24.9535 171.079 24.162 171.872L14.7645 181.28C13.1239 182.923 13.2215 185.612 14.977 187.131L23.9622 194.907C24.8461 195.672 24.8884 197.029 24.0538 197.847L14.9348 206.792C13.2271 208.466 13.3615 211.256 15.2223 212.759L23.7427 219.641C24.7122 220.424 24.7372 221.894 23.7948 222.709L15.0106 230.311C13.2428 231.841 13.1582 234.554 14.8273 236.192L24.1028 245.289C24.9192 246.09 24.8993 247.411 24.059 248.187L15.1309 256.428C13.3375 258.084 13.432 260.945 15.3307 262.479L23.7427 269.274C24.7122 270.057 24.7372 271.526 23.7948 272.342L15.4804 279.537C13.5513 281.207 13.657 284.231 15.6979 285.762L25.1959 292.886C25.4524 293.078 25.6034 293.38 25.6034 293.701C25.6034 302.609 18.4575 309.849 9.58494 310H29V0Z" fill="#fff"/>
</svg>
