<svg xmlns="http://www.w3.org/2000/svg" fill="none" viewBox="0 0 34 159"><path fill="#fff" fill-rule="evenodd" d="M33.77.49c-.24 1.52-.25 1.64-1.03 3.52a17.037 17.037 0 0 1-9.21 9.21c-1.75.73-3.62 1.15-5.51 1.26v2.51h-2v-2.51c-1.89-.11-3.75-.54-5.51-1.26A17.037 17.037 0 0 1 1.3 4.01C.55 2.19.5 2.02.16.63.11.44.06.24 0 0h33.85c-.03.18-.05.34-.08.48zm.08 159.02c-.03-.18-.05-.34-.08-.48-.24-1.52-.25-1.64-1.03-3.52-.85-2.06-2.11-3.94-3.69-5.51a16.9 16.9 0 0 0-5.52-3.68c-2.06-.85-4.27-1.29-6.51-1.29h1v-2.98h-2v2.98h1c-2.23 0-4.44.44-6.51 1.29-2.06.85-3.94 2.11-5.52 3.68a17.1 17.1 0 0 0-3.69 5.51c-.75 1.82-.8 1.99-1.14 3.38-.05.19-.1.39-.16.63h33.85zM16.03 22.94v5.95h2v-5.95zm0 11.91v5.95h2v-5.95zm0 11.91v5.95h2v-5.95zm0 11.91v5.95h2v-5.95zm0 11.91v5.95h2v-5.95zm0 11.91v5.95h2v-5.95zm0 11.91v5.95h2V94.4zm0 11.91v5.96h2v-5.96zm0 11.91v5.95h2v-5.95zm0 11.91v5.95h2v-5.95z" clip-rule="evenodd"/></svg>