<svg width="34" height="160" viewBox="0 0 34 160" fill="none" xmlns="http://www.w3.org/2000/svg">
<path fill-rule="evenodd" clip-rule="evenodd" d="M33.77 0.489998C33.53 2.01 33.52 2.13 32.74 4.01C31.89 6.07 30.63 7.95 29.05 9.53C27.47 11.11 25.6 12.36 23.53 13.22C21.78 13.95 19.91 14.37 18.02 14.48V16.99H16.02V14.48C14.13 14.37 12.27 13.94 10.51 13.22C8.45 12.37 6.57 11.11 4.99 9.53C3.41 7.95 2.16 6.08 1.3 4.01C0.55 2.19 0.5 2.02 0.16 0.629997C0.11 0.439997 0.06 0.24 0 0H33.85C33.82 0.18 33.8 0.339996 33.77 0.479996V0.489998ZM33.85 159.51C33.82 159.33 33.8 159.17 33.77 159.03C33.53 157.51 33.52 157.39 32.74 155.51C31.89 153.45 30.63 151.57 29.05 150C27.47 148.42 25.6 147.17 23.53 146.32C21.47 145.47 19.26 145.03 17.02 145.03H18.02V142.05H16.02V145.03H17.02C14.79 145.03 12.58 145.47 10.51 146.32C8.45 147.17 6.57 148.43 4.99 150C3.41 151.58 2.16 153.45 1.3 155.51C0.55 157.33 0.5 157.5 0.16 158.89C0.11 159.08 0.06 159.28 0 159.52H33.85V159.51ZM16.03 22.94V28.89H18.03V22.94H16.03ZM16.03 34.85V40.8H18.03V34.85H16.03ZM16.03 46.76V52.71H18.03V46.76H16.03ZM16.03 58.67V64.62H18.03V58.67H16.03ZM16.03 70.58V76.53H18.03V70.58H16.03ZM16.03 82.49V88.44H18.03V82.49H16.03ZM16.03 94.4V100.35H18.03V94.4H16.03ZM16.03 106.31V112.27H18.03V106.31H16.03ZM16.03 118.22V124.17H18.03V118.22H16.03ZM16.03 130.13V136.08H18.03V130.13H16.03Z" fill="white"/>
</svg>
