<svg width="137" height="87" viewBox="0 0 137 87" fill="none" xmlns="http://www.w3.org/2000/svg">
<path d="M56.0385 74.5963L50.7503 74.1556C50.6602 74.1481 50.6255 74.0344 50.6961 73.9779L53 72.1348L54.9497 70.9649C55.285 70.7637 55.4723 70.3856 55.4291 69.997L55 66.1348L54.1772 60.7868C54.084 60.1811 54.5527 59.6348 55.1656 59.6348H57.0689C57.5935 59.6348 58.029 60.0402 58.0663 60.5635L58.5 66.6348L58.9163 69.1325C58.9689 69.4481 59.1693 69.7194 59.4555 69.8625L61.9052 71.0874C61.9682 71.1189 62.0277 71.1569 62.0827 71.2009L64.2774 72.9567C64.3512 73.0157 64.3095 73.1348 64.2149 73.1348H60.8198C60.3431 73.1348 59.9327 73.4712 59.8392 73.9387L59.0453 77.9084C59.0281 77.9943 58.9167 78.0182 58.8658 77.9469L56.7692 75.0116C56.5984 74.7726 56.3312 74.6207 56.0385 74.5963Z" fill="#FFAF2A" stroke="black"/>
<path d="M102.038 73.5963L96.7503 73.1556C96.6602 73.1481 96.6255 73.0344 96.6961 72.9779L99 71.1348L100.95 69.9649C101.285 69.7637 101.472 69.3856 101.429 68.997L101 65.1348L100.177 59.7868C100.084 59.1811 100.553 58.6348 101.166 58.6348H103.069C103.594 58.6348 104.029 59.0402 104.066 59.5635L104.5 65.6348L104.916 68.1325C104.969 68.4481 105.169 68.7194 105.455 68.8625L107.905 70.0874C107.968 70.1189 108.028 70.1569 108.083 70.2009L110.277 71.9567C110.351 72.0157 110.309 72.1348 110.215 72.1348H106.82C106.343 72.1348 105.933 72.4712 105.839 72.9387L105.045 76.9084C105.028 76.9943 104.917 77.0182 104.866 76.9469L102.769 74.0116C102.598 73.7726 102.331 73.6207 102.038 73.5963Z" fill="#FFAF2A" stroke="black"/>
<path d="M24.0385 73.0963L18.7503 72.6556C18.6602 72.6481 18.6255 72.5344 18.6961 72.4779L21 70.6348L22.9497 69.4649C23.285 69.2637 23.4723 68.8856 23.4291 68.497L23 64.6348L22.1772 59.2868C22.084 58.6811 22.5527 58.1348 23.1656 58.1348H25.0689C25.5935 58.1348 26.029 58.5402 26.0663 59.0635L26.5 65.1348L26.9163 67.6325C26.9689 67.9481 27.1693 68.2194 27.4555 68.3625L29.9052 69.5874C29.9682 69.6189 30.0277 69.6569 30.0827 69.7009L32.2774 71.4567C32.3512 71.5157 32.3095 71.6348 32.2149 71.6348H28.8198C28.3431 71.6348 27.9327 71.9712 27.8392 72.4387L27.0453 76.4084C27.0281 76.4943 26.9167 76.5182 26.8658 76.4469L24.7692 73.5116C24.5984 73.2726 24.3312 73.1207 24.0385 73.0963Z" fill="#FFAF2A" stroke="black"/>
<path d="M69.416 69.8785L68.5531 62.1125C68.5195 61.8105 68.625 61.5097 68.8399 61.2949L70.0078 60.1269C70.6044 59.5304 71.626 59.8951 71.71 60.7345L72.4452 68.0863C72.4793 68.4277 72.6861 68.7278 72.993 68.8813L77.2249 70.9972C77.3116 71.0406 77.2922 71.1694 77.1967 71.1853L75.0939 71.5358C74.7285 71.5967 74.4267 71.8545 74.3096 72.2059L73.0621 75.9485C73.0363 76.026 72.9334 76.0415 72.8859 75.975L70.8333 73.1013C70.6268 72.8124 70.2827 72.6545 69.929 72.6867L65.3511 73.1029C65.2507 73.112 65.2014 72.9837 65.282 72.9233L66.8942 71.7141C66.9644 71.6614 67.0413 71.6182 67.1228 71.5856L68.7935 70.9174C69.2109 70.7504 69.4656 70.3253 69.416 69.8785Z" fill="#FFAF2A" stroke="black"/>
<path d="M115.416 68.8785L114.553 61.1125C114.52 60.8105 114.625 60.5097 114.84 60.2949L116.008 59.1269C116.604 58.5304 117.626 58.8951 117.71 59.7345L118.445 67.0863C118.479 67.4277 118.686 67.7278 118.993 67.8813L123.225 69.9972C123.312 70.0406 123.292 70.1694 123.197 70.1853L121.094 70.5358C120.729 70.5967 120.427 70.8545 120.31 71.2059L119.062 74.9485C119.036 75.026 118.933 75.0415 118.886 74.975L116.833 72.1013C116.627 71.8124 116.283 71.6545 115.929 71.6867L111.351 72.1029C111.251 72.112 111.201 71.9837 111.282 71.9233L112.894 70.7141C112.964 70.6614 113.041 70.6182 113.123 70.5856L114.793 69.9174C115.211 69.7504 115.466 69.3253 115.416 68.8785Z" fill="#FFAF2A" stroke="black"/>
<path d="M35.4627 42.7551L37.5135 43.0115C38.1629 43.0926 38.8223 43.0273 39.4432 42.8204C39.8127 42.6972 40.1642 42.5253 40.4884 42.3092L41.5 41.6348L42.2071 41.1398C45.064 39.14 48.0842 37.3844 51.2357 35.8916C54.4062 34.3897 57.6983 33.1593 61.0766 32.2133L68.5 30.1348L73.4663 28.3611C74.7217 27.9127 75.6359 26.8196 75.855 25.5047L75.9987 24.6423C76.332 22.643 76.4514 20.6138 76.355 18.5892L76.1139 13.5262C76.0392 11.9582 76.3687 10.3974 77.0707 8.9934C77.6825 7.76985 78.5605 6.69884 79.6403 5.85899L79.7909 5.74181C81.5467 4.37619 83.7076 3.63477 85.932 3.63477H86.7471C88.5526 3.63477 90.3282 4.09489 91.9065 4.97169L92.8821 5.5137C93.6181 5.92261 94.2539 6.49024 94.7433 7.17541C95.8414 8.7127 96.1021 10.6957 95.4388 12.4646L94.6663 14.5246C93.9099 16.5417 92.5101 18.2535 90.6833 19.3952L90.5395 19.4851C89.8489 19.9167 89.1096 20.2649 88.3371 20.5224L86.5 21.1348C85.6862 21.406 85.2686 22.3064 85.5872 23.1028L86 24.1348C86.6657 25.7991 87.2061 27.5109 87.6167 29.2558L89 35.1348L89.5123 37.9524C89.8362 39.7336 89.9347 41.5484 89.8058 43.3541C89.6039 46.1803 88.8479 48.939 87.5808 51.4732L87.4508 51.7332C86.1648 54.3052 84.3495 56.5761 82.1239 58.397C80.7143 59.5503 79.1566 60.5096 77.4923 61.2493L76.0549 61.8882C72.7096 63.3749 69.1346 64.2783 65.4847 64.559L62.2663 64.8066C59.4365 65.0243 56.5901 64.838 53.8129 64.2533C50.2997 63.5136 46.9398 62.1538 43.7446 60.5166C42.9757 60.1226 42.3372 59.8034 42.0004 59.635L42 59.6348C41.2845 59.277 39.3333 57.3014 38.5 56.1348L35.0929 50.5983C34.6997 49.9592 34.3998 49.2672 34.2023 48.5433L33.3029 45.2454C33.1156 44.5586 33.3106 43.8241 33.814 43.3208C34.2468 42.8879 34.8553 42.6792 35.4627 42.7551Z" fill="white" stroke="black"/>
<path d="M81.4627 41.7551L83.5135 42.0115C84.1629 42.0926 84.8223 42.0273 85.4432 41.8204C85.8127 41.6972 86.1642 41.5253 86.4884 41.3092L86.8624 41.0599C87.2864 40.7772 87.6815 40.4533 88.0419 40.0929L88.9393 39.1955C90.6334 37.5014 92.6106 36.1165 94.7817 35.1033L95.9584 34.5542C97.9789 33.6113 100.105 32.9138 102.291 32.4765L111.5 30.6348L112.257 30.4456C114.391 29.9119 116.378 28.9032 118.068 27.4945C118.346 27.2629 118.528 26.9365 118.579 26.5785L118.585 26.5364C118.859 24.6185 118.777 22.6665 118.341 20.7787L117.704 18.017C117.568 17.43 117.381 16.8563 117.143 16.3026C116.396 14.559 116.153 12.6409 116.441 10.766L116.559 10.0016C116.848 8.12159 117.613 6.34665 118.781 4.84519L118.862 4.74042C119.937 3.35806 121.337 2.26261 122.938 1.55136L123.057 1.49836C124.338 0.92897 125.724 0.634766 127.126 0.634766H127.434C129.111 0.634766 130.754 1.10605 132.176 1.99487L132.72 2.33496C133.561 2.86068 134.266 3.57822 134.776 4.42878C135.253 5.22293 135.548 6.11266 135.64 7.0342L135.781 8.44856C135.926 9.89515 135.82 11.3559 135.467 12.7663L134.5 16.6348L133 22.1348C132.349 24.7397 132.505 27.4812 133.448 29.9953L134.329 32.3457C134.775 33.536 135.114 34.7639 135.342 36.0147L135.512 36.9524C135.836 38.7336 135.935 40.5484 135.806 42.3541C135.604 45.1803 134.848 47.939 133.581 50.4732L133.451 50.7332C132.165 53.3052 130.349 55.5761 128.124 57.397C126.714 58.5503 125.157 59.5096 123.492 60.2493L122.055 60.8882C118.71 62.3749 115.135 63.2783 111.485 63.559L108.266 63.8066C105.437 64.0243 102.59 63.838 99.8129 63.2533C96.2997 62.5136 92.9398 61.1538 89.7446 59.5166C88.9757 59.1226 88.3372 58.8034 88.0004 58.635L88 58.6348C87.2845 58.277 85.3333 56.3014 84.5 55.1348L81.0929 49.5983C80.6997 48.9592 80.3998 48.2672 80.2023 47.5433L79.3029 44.2454C79.1156 43.5586 79.3106 42.8241 79.814 42.3208C80.2468 41.8879 80.8553 41.6792 81.4627 41.7551Z" fill="white" stroke="black"/>
<path d="M127.055 14.9315L126.661 15.1939C126.252 15.4665 125.729 15.4991 125.289 15.2793L125.159 15.2144C125.055 15.162 124.939 15.1348 124.822 15.1348H124.414C123.892 15.1348 123.631 15.7657 124 16.1347L124 16.1348L125.853 16.8761C126.261 17.0391 126.721 17.0022 127.097 16.7764L127.913 16.2871C128.418 15.984 128.435 15.2582 127.945 14.9315C127.676 14.7518 127.324 14.7518 127.055 14.9315Z" fill="#FFAF2A" stroke="black"/>
<path d="M129.484 15.8926L129.553 15.8584C129.827 15.7213 130 15.4412 130 15.1348C130 14.8283 129.827 14.5482 129.553 14.4112L129 14.1348L128.839 14.0519C128.459 13.8561 128.161 13.5308 128 13.1348L127.793 12.7202C127.603 12.3402 127.295 12.0321 126.915 11.8421L126.825 11.7971C126.611 11.6903 126.376 11.6348 126.137 11.6348H125.924C125.652 11.6348 125.392 11.7425 125.2 11.9344C125.069 12.0655 124.976 12.2298 124.931 12.4097L124.7 13.333C124.573 13.8419 124.23 14.2698 123.761 14.5044L123.616 14.5767C123.539 14.6151 123.469 14.6658 123.408 14.7267C123.164 14.9704 123.104 15.3427 123.258 15.651L123.269 15.6731C123.411 15.9561 123.7 16.1348 124.016 16.1348H124.099C124.356 16.1348 124.602 16.0327 124.784 15.851L124.859 15.7755C124.952 15.6823 125.03 15.5747 125.089 15.4567L125.176 15.282C125.375 14.8853 125.78 14.6348 126.224 14.6348C126.405 14.6348 126.585 14.6771 126.747 14.7584L127.5 15.1348L128.25 15.6348L128.55 15.8344C128.828 16.0202 129.185 16.0424 129.484 15.8926Z" fill="#FFAF2A" stroke="black"/>
<path d="M77.5 40.1348V40.1348C76.693 39.8658 75.8286 40.3448 75.629 41.1718L73.8377 48.593C73.1053 51.6269 70.0111 53.456 67 52.6348V52.6348" stroke="black" stroke-linecap="round"/>
<path d="M123.5 39.1348V39.1348C122.693 38.8658 121.829 39.3448 121.629 40.1718L119.838 47.593C119.105 50.6269 116.011 52.456 113 51.6348V51.6348" stroke="black" stroke-linecap="round"/>
<path d="M67.5 47.1348L66.7448 49.8534C65.8768 52.9783 62.2362 54.376 59.5 52.6348V52.6348" stroke="black" stroke-linecap="round"/>
<path d="M113.5 46.1348L112.745 48.8534C111.877 51.9783 108.236 53.376 105.5 51.6348V51.6348" stroke="black" stroke-linecap="round"/>
<path d="M60.5 49.1348L59.9482 50.9281C59.178 53.4312 56.3932 54.6984 54 53.6348V53.6348" stroke="black" stroke-linecap="round"/>
<path d="M106.5 48.1348L105.948 49.9281C105.178 52.4312 102.393 53.6984 100 52.6348V52.6348" stroke="black" stroke-linecap="round"/>
<path d="M93.1283 15.2631L93.6464 15.7812C93.8417 15.9765 93.8417 16.2931 93.6464 16.4883C93.5527 16.5821 93.4255 16.6348 93.2929 16.6348H92.8536C92.6272 16.6348 92.4101 16.7247 92.25 16.8848C92.0899 17.0448 92 17.2619 92 17.4883V17.6547C92 18.2307 92.3916 18.7344 92.9536 18.8606C93.5787 19.001 94.2466 19.1348 94.5 19.1348H94.9692C95.6538 19.1348 96.3358 19.2187 97 19.3848C97.6642 19.5508 98.3462 19.6348 99.0308 19.6348H99.8559C100.283 19.6348 100.706 19.566 101.111 19.4311L101.756 19.2159C101.917 19.1626 102.062 19.0726 102.182 18.9533C102.385 18.7493 102.5 18.4727 102.5 18.1844V18.1348C102.5 17.8146 102.373 17.5076 102.146 17.2812L101.901 17.0355C101.639 16.7733 101.31 16.5873 100.95 16.4973L100.27 16.3271C99.7603 16.1998 99.2768 15.9859 98.84 15.6948L98.75 15.6348C98.2549 15.3047 97.8301 14.8799 97.5 14.3848L97.3978 14.2315C97.1352 13.8376 96.7972 13.4996 96.4033 13.237L96.0472 12.9996C95.6904 12.7617 95.2712 12.6348 94.8424 12.6348H94.5322C93.8996 12.6348 93.3213 12.9922 93.0384 13.558L92.8974 13.84C92.6601 14.3146 92.7531 14.8878 93.1283 15.2631Z" fill="#FFAF2A" stroke="black"/>
<path d="M88.8604 11.565L88.809 11.5393C88.3622 11.3159 87.8189 11.497 87.5955 11.9438C87.5327 12.0694 87.5 12.2079 87.5 12.3483V12.6348V13.4906C87.5 13.5861 87.5154 13.6809 87.5456 13.7715L87.5528 13.7931C87.7583 14.4095 88.5406 14.5942 89 14.1348C89.3201 13.8146 89.5 13.3804 89.5 12.9277V12.6428C89.5 12.3175 89.3708 12.0055 89.1407 11.7755L89.1104 11.7451C89.0373 11.672 88.9529 11.6112 88.8604 11.565Z" fill="black" stroke="black" stroke-width="0.8"/>
<path d="M37.416 68.3785L36.5531 60.6125C36.5195 60.3105 36.625 60.0097 36.8399 59.7949L38.0078 58.6269C38.6044 58.0304 39.626 58.3951 39.71 59.2345L40.4452 66.5863C40.4793 66.9277 40.6861 67.2278 40.993 67.3813L45.2249 69.4972C45.3116 69.5406 45.2922 69.6694 45.1967 69.6853L43.0939 70.0358C42.7285 70.0967 42.4267 70.3545 42.3096 70.7059L41.0621 74.4485C41.0363 74.526 40.9334 74.5415 40.8859 74.475L38.8333 71.6013C38.6268 71.3124 38.2827 71.1545 37.929 71.1867L33.3511 71.6029C33.2507 71.612 33.2014 71.4837 33.282 71.4233L34.8942 70.2141C34.9644 70.1614 35.0413 70.1182 35.1228 70.0856L36.7935 69.4174C37.2109 69.2504 37.4656 68.8253 37.416 68.3785Z" fill="#FFAF2A" stroke="black"/>
<path d="M3.46268 41.2551L5.5135 41.5115C6.16292 41.5926 6.82227 41.5273 7.44316 41.3204C7.81274 41.1972 8.16424 41.0253 8.48838 40.8092L9.5 40.1348L10.2071 39.6398C13.064 37.64 16.0842 35.8844 19.2357 34.3916C22.4062 32.8897 25.6983 31.6593 29.0766 30.7133L36.5 28.6348L41.4663 26.8611C42.7217 26.4127 43.6359 25.3196 43.855 24.0047L43.9987 23.1423C44.332 21.143 44.4514 19.1138 44.355 17.0892L44.1139 12.0262C44.0392 10.4582 44.3687 8.8974 45.0707 7.4934C45.6825 6.26985 46.5605 5.19884 47.6403 4.35899L47.7909 4.24181C49.5467 2.87619 51.7076 2.13477 53.932 2.13477H54.7471C56.5526 2.13477 58.3282 2.59489 59.9065 3.47169L60.8821 4.0137C61.6181 4.42261 62.2539 4.99024 62.7433 5.67541C63.8414 7.2127 64.1021 9.19574 63.4388 10.9646L62.6663 13.0246C61.9099 15.0417 60.5101 16.7535 58.6833 17.8952L58.5395 17.9851C57.8489 18.4167 57.1096 18.7649 56.3371 19.0224L54.5 19.6348C53.6862 19.906 53.2686 20.8064 53.5872 21.6028L54 22.6348C54.6657 24.2991 55.2061 26.0109 55.6167 27.7558L57 33.6348L57.5123 36.4524C57.8362 38.2336 57.9347 40.0484 57.8058 41.8541C57.6039 44.6803 56.8479 47.439 55.5808 49.9732L55.4508 50.2332C54.1648 52.8052 52.3495 55.0761 50.1239 56.897C48.7143 58.0503 47.1566 59.0096 45.4923 59.7493L44.0549 60.3882C40.7096 61.8749 37.1346 62.7783 33.4847 63.059L30.2663 63.3066C27.4365 63.5243 24.5901 63.338 21.8129 62.7533C18.2997 62.0136 14.9398 60.6538 11.7446 59.0166C10.9757 58.6226 10.3372 58.3034 10.0004 58.135L10 58.1348C9.28446 57.777 7.33333 55.8014 6.5 54.6348L3.09293 49.0983C2.69966 48.4592 2.39976 47.7672 2.20232 47.0433L1.30289 43.7454C1.11559 43.0586 1.31064 42.3241 1.81399 41.8208C2.24683 41.3879 2.85527 41.1792 3.46268 41.2551Z" fill="white" stroke="black"/>
<path d="M45.5 38.6348V38.6348C44.693 38.3658 43.8286 38.8448 43.629 39.6718L41.8377 47.093C41.1053 50.1269 38.0111 51.956 35 51.1348V51.1348" stroke="black" stroke-linecap="round"/>
<path d="M35.5 45.6348L34.7448 48.3534C33.8768 51.4783 30.2362 52.876 27.5 51.1348V51.1348" stroke="black" stroke-linecap="round"/>
<path d="M28.5 47.6348L27.9482 49.4281C27.178 51.9312 24.3932 53.1984 22 52.1348V52.1348" stroke="black" stroke-linecap="round"/>
<path d="M61.1283 13.7631L61.6464 14.2812C61.8417 14.4765 61.8417 14.7931 61.6464 14.9883C61.5527 15.0821 61.4255 15.1348 61.2929 15.1348H60.8536C60.6272 15.1348 60.4101 15.2247 60.25 15.3848C60.0899 15.5448 60 15.7619 60 15.9883V16.1547C60 16.7307 60.3916 17.2344 60.9536 17.3606C61.5787 17.501 62.2466 17.6348 62.5 17.6348H62.9692C63.6538 17.6348 64.3358 17.7187 65 17.8848C65.6642 18.0508 66.3462 18.1348 67.0308 18.1348H67.8559C68.2825 18.1348 68.7063 18.066 69.1111 17.9311L69.7565 17.7159C69.9166 17.6626 70.0621 17.5726 70.1815 17.4533C70.3854 17.2493 70.5 16.9727 70.5 16.6844V16.6348C70.5 16.3146 70.3728 16.0076 70.1464 15.7812L69.9007 15.5355C69.6385 15.2733 69.31 15.0873 68.9502 14.9973L68.2695 14.8271C67.7603 14.6998 67.2768 14.4859 66.84 14.1948L66.75 14.1348C66.2549 13.8047 65.8301 13.3799 65.5 12.8848L65.3978 12.7315C65.1352 12.3376 64.7972 11.9996 64.4033 11.737L64.0472 11.4996C63.6904 11.2617 63.2712 11.1348 62.8424 11.1348H62.5322C61.8996 11.1348 61.3213 11.4922 61.0384 12.058L60.8974 12.34C60.6601 12.8146 60.7531 13.3878 61.1283 13.7631Z" fill="#FFAF2A" stroke="black"/>
<path d="M56.8604 10.065L56.809 10.0393C56.3622 9.81587 55.8189 9.99697 55.5955 10.4438C55.5327 10.5694 55.5 10.7079 55.5 10.8483V11.1348V11.9906C55.5 12.0861 55.5154 12.1809 55.5456 12.2715L55.5528 12.2931C55.7583 12.9095 56.5406 13.0942 57 12.6348C57.3201 12.3146 57.5 11.8804 57.5 11.4277V11.1428C57.5 10.8175 57.3708 10.5055 57.1407 10.2755L57.1104 10.2451C57.0373 10.172 56.9529 10.1112 56.8604 10.065Z" fill="black" stroke="black" stroke-width="0.8"/>
<path d="M128.684 9.301C128.724 9.29597 128.859 9.19089 128.957 9.30101C129.146 9.40838 129.189 9.85537 129.189 10.0773C129.189 10.2219 129.207 10.4031 129.155 10.5384C129.087 10.7167 128.85 10.7596 128.692 10.6744C128.452 10.545 128.44 10.1375 128.411 9.90185C128.39 9.73377 128.412 9.57601 128.506 9.44077C128.54 9.3919 128.62 9.30889 128.684 9.301Z" stroke="black" stroke-linecap="round"/>
<path d="M122.604 9.74892C122.644 9.75346 122.8 9.68302 122.869 9.81293C123.028 9.96165 122.966 10.4063 122.914 10.6221C122.88 10.7626 122.855 10.943 122.773 11.0623C122.664 11.2196 122.424 11.206 122.29 11.0861C122.087 10.9042 122.171 10.5053 122.198 10.2693C122.217 10.1009 122.275 9.95278 122.398 9.84321C122.442 9.80362 122.54 9.74182 122.604 9.74892Z" stroke="black" stroke-linecap="round"/>
</svg>
