<svg xmlns="http://www.w3.org/2000/svg" width="64" height="79" fill="none"><g clip-path="url(#a)"><path fill="#ADADAD" stroke="#000" stroke-width=".8" d="m42.4 68.585-.9-1.2 3-1.5 2 .5v2c0 .299.191.564.474.658l1.026.342 1.314.438q.186.063.362.15l.239.12c.38.19.688.498.878.878l.045.09a1.54 1.54 0 0 1-.288 1.775l-.05.05c-.32.32-.754.5-1.207.5h-.37c-.28 0-.558-.046-.824-.134L47 72.885l-.158-.053a2.29 2.29 0 0 0-2.342.553l-.5.5-.306.307a1.69 1.69 0 0 1-1.949.316l-.067-.034a1.2 1.2 0 0 1-.319-.23l-.005-.005a1.2 1.2 0 0 1-.354-.854c0-.329.077-.653.224-.947l.011-.023a2.23 2.23 0 0 1 .758-.858l.591-.394a.93.93 0 0 0 .416-.778 3 3 0 0 0-.6-1.8ZM30 72.038v-4.1530000000000005h4v4.5a.5.5 0 0 0 .5.5c.662 0 1.32.107 1.949.316l.365.122q.186.063.362.15l.239.12a1.96 1.96 0 0 1 1.085 1.756v.13a1.72 1.72 0 0 1-1.175 1.632l-.403.134c-.28.093-.572.14-.867.14h-.166a3.8 3.8 0 0 1-1.684-.397L34 76.885l-.205-.102a3.77 3.77 0 0 0-2.875-.204l-.675.225q-.245.081-.476.197l-.282.14c-.32.16-.673.244-1.031.244h-.249c-.453 0-.887-.18-1.207-.5l-.134-.134a1.494 1.494 0 0 1 .695-2.506l.89-.222A2.045 2.045 0 0 0 30 72.038Z"/><path fill="#FFF164" stroke="#000" stroke-width=".8" d="M54.265 15.884h-.38a.96.96 0 0 1-.423-.098.96.96 0 0 0-1.252.379l-2.117 3.653a5.48 5.48 0 0 0 1.346 7.045l.956.755q.346.271.75.448l2.778 1.213a1.106 1.106 0 0 0 1.54-1.149l-.287-2.312a4.6 4.6 0 0 1 .216-2.069l.554-1.455.57-2.045.224-.907a13 13 0 0 0 .33-1.966l.062-.67a1.7 1.7 0 0 0-.083-.7l-.072-.209a1.39 1.39 0 0 0-1.322-.94h-.034a3.45 3.45 0 0 0-1.788.514l-.207.127c-.41.252-.88.386-1.361.386Z"/><path fill="#FFF164" d="m54.5 21.136-.443 1.995a.28.28 0 0 1-.315.215L41.27 21.427a.24.24 0 0 1-.195-.304l.543-1.901A10 10 0 0 0 42 16.496v-.51c0-.73-.117-1.453-.348-2.144l-.14-.421a1 1 0 0 0-.029-.069l-.536-1.072c-.111-.223-.447-.144-.447.106v-1.034a9.76 9.76 0 0 0-1.286-4.841l-.054-.096a10.4 10.4 0 0 0-3.075-3.37l-.585-.41-.864-.215a.18.18 0 1 1 .152-.319l.712.534 1 .25 3.213 1.205q.787.296 1.508.728l.906.544a4.53 4.53 0 0 1 2.063 2.784l.189.754q.12.486.121.985v1.293a.5.5 0 0 0 .854.354l.146-.146c.331-.332.607-.714.816-1.133l.091-.182c.39-.78.593-1.64.593-2.51V5.4c0-.007.007-.01.012-.007a7.4 7.4 0 0 1 2.67 3.881l.318 1.11.46 1.378c.016.05.082.059.111.015l.33-.494a4.06 4.06 0 0 1 1.565-1.381.04.04 0 0 1 .053.016l.385.673A14.8 14.8 0 0 1 54.5 21.136"/><path stroke="#000" stroke-width=".8" d="m35.5 2.635.585.41a10.4 10.4 0 0 1 3.075 3.37l.054.096a9.76 9.76 0 0 1 1.286 4.84v1.034c0-.249.336-.328.447-.105l.536 1.072q.017.033.029.069l.14.421c.23.691.348 1.415.348 2.143v.51c0 .923-.129 1.84-.382 2.727l-.543 1.901a.24.24 0 0 0 .194.304l12.473 1.919a.28.28 0 0 0 .315-.215l.443-1.995a14.8 14.8 0 0 0-1.596-10.544l-.385-.673a.04.04 0 0 0-.053-.016 4.06 4.06 0 0 0-1.565 1.38l-.33.495a.063.063 0 0 1-.112-.015L50 10.386l-.317-1.11a7.4 7.4 0 0 0-2.671-3.882A.007.007 0 0 0 47 5.4v2.16c0 .872-.203 1.731-.593 2.51l-.09.183c-.21.419-.486.801-.817 1.133l-.146.146a.5.5 0 0 1-.854-.354V9.885q0-.5-.121-.985l-.189-.754a4.53 4.53 0 0 0-2.063-2.784l-.906-.544a9 9 0 0 0-1.508-.728L36.5 2.885zm0 0-.864-.215a.18.18 0 1 1 .152-.319z"/><path fill="#fff" stroke="#000" stroke-width=".8" d="m37.225 20.66-1.176 1.177c-.262.26.008.696.358.58l4.119-1.374a1 1 0 0 0 .632-.632l.342-1.026c.331-.993.5-2.034.5-3.08v-.42a8.5 8.5 0 0 0-.894-3.789l-.606-1.21v2.763c0 1.47-.342 2.921-1 4.236a18 18 0 0 1-2.275 2.775Z"/><path fill="#757575" stroke="#000" stroke-opacity=".9" d="m39.76 32.7-.05-.012a2.94 2.94 0 0 0-2.268.358l-1.574.984a3.33 3.33 0 0 0-1.546 2.459l-.123 1.1a2.07 2.07 0 0 0 2.055 2.296h.496c.498 0 .994-.061 1.477-.182l.461-.115a4.8 4.8 0 0 0 1.508-.667l.207-.138c.394-.263.732-.6.995-.995l.06-.09a3.23 3.23 0 0 0 .376-2.81l-.128-.386a2.76 2.76 0 0 0-1.947-1.802Z"/><path fill="#ADADAD" stroke="#000" stroke-opacity=".9" d="m38.497 29.883.415.415a2.01 2.01 0 0 1 .187 2.623l-.835 1.113a6 6 0 0 1-.575.662l-1.207 1.207a4.2 4.2 0 0 0-1.105 3.99l.009.035q.114.457.325.88l.574 1.148a.16.16 0 0 1-.214.215l-.571-.285-.583-.35A7.7 7.7 0 0 1 32 38.386l-.37-.74a5.97 5.97 0 0 1-.514-3.84l.19-.95a5.7 5.7 0 0 1 .703-1.82l.358-.595a3.654 3.654 0 0 1 4.49-1.513l.49.197c.431.172.822.43 1.15.758Z"/><path fill="#fff" d="M33.5 27.885V25.53a3.97 3.97 0 0 1 1.163-2.806l.106-.106q.232-.231.493-.428L37 20.885a10.4 10.4 0 0 1 3.249-1.437l.251-.063c1.328-.332 2.692-.5 4.062-.5h1.348a8.86 8.86 0 0 1 3.96.935l1.13.565 1.5 1 1.715 1.03a7.43 7.43 0 0 1 2.824 3.05l.156.311q.305.61.52 1.255l.285.854.107.322a7.65 7.65 0 0 1 .244 3.922L58 33.885l-.29 1.163a7 7 0 0 0 .15 3.916l.14.421.5 2c.968.323 1.788.981 2.313 1.856l.39.65q.297.495.5 1.034l.871 2.325a6.69 6.69 0 0 1-.052 4.83l-.115.287a8.3 8.3 0 0 1-1.065 1.895l-.318.424q-.524.7-1.142 1.317L58.5 57.385l-2 2-2.5 2-.983 1.311a12.1 12.1 0 0 1-4.276 3.569l-2.241 1.12-3.5 1.5-3 1-2.5.5-2.5.5-.832.278a2.05 2.05 0 0 0-1.059.808l-.054.082c-.347.52-.93.832-1.555.832h-.359a2.76 2.76 0 0 1-2.292-1.227l-.41-.615a2.98 2.98 0 0 0-1.756-1.237L25 69.386a44.5 44.5 0 0 0-5.828 2.413l-.172.086-2.5 1.5-3 1.5a16.7 16.7 0 0 1-4.193 1.439L9 76.385l-1.947.487a.447.447 0 0 1-.553-.432v-.055l-2.5 1-1.84.46q-.16.04-.324.04H.905a.405.405 0 0 1-.362-.585L1 76.385c.66-.99 1.51-1.84 2.5-2.5l1.5-1 2-1.5 2-1.5.303-.227a30 30 0 0 0 3.197-2.773 14.3 14.3 0 0 0 1.784-2.176l.216-.324-.486-.194a16.4 16.4 0 0 1-3.75-2.108l-.054-.04a.13.13 0 0 1 .042-.23l1.208-.345A8.2 8.2 0 0 0 15 59.385l.938-.938a23.7 23.7 0 0 0 3.562-4.562l2.5-4a38 38 0 0 1 3.366-4.74l.634-.76.721-.961a9 9 0 0 1 1.817-1.818l.085-.063a8.3 8.3 0 0 1 1.895-1.065l1.16-.464c.213-.085.44-.129.67-.129.421 0 .83-.148 1.154-.418l.564-.47a3.83 3.83 0 0 0 1.224-4.027l-1.508-5.125a7 7 0 0 1-.282-1.96"/><path stroke="#000" stroke-linecap="round" stroke-width=".8" d="m58.5 41.385-.5-2-.14-.42a7 7 0 0 1-.15-3.917l.29-1.163.351-1.756a7.66 7.66 0 0 0-.244-3.922L58 27.885l-.285-.854a9.6 9.6 0 0 0-.52-1.255l-.156-.312a7.43 7.43 0 0 0-2.824-3.05L52.5 21.386l-1.5-1-1.13-.565a8.85 8.85 0 0 0-3.96-.935h-1.348c-1.37 0-2.734.168-4.062.5l-.251.063c-1.157.29-2.256.776-3.249 1.437l-1.738 1.304q-.263.196-.493.428l-.106.106a3.97 3.97 0 0 0-1.163 2.806v2.356c0 .663.095 1.323.282 1.96l1.508 5.125a3.83 3.83 0 0 1-1.224 4.027l-.565.47c-.324.27-.732.418-1.154.418-.23 0-.456.044-.67.13l-1.16.463a8.3 8.3 0 0 0-1.894 1.065l-.085.063a9 9 0 0 0-1.817 1.818l-.721.961-.634.76A38 38 0 0 0 22 49.886l-2.5 4a23.7 23.7 0 0 1-3.562 4.562l-.938.938a8.2 8.2 0 0 1-3.54 2.083l-1.208.345a.13.13 0 0 0-.042.23l.054.04a16.4 16.4 0 0 0 3.75 2.108l.486.194m44-23v5.682a15.9 15.9 0 0 1-1.14 5.918l-.36.9-1 2.5-1 2.5-1 2.5m4.5-20c.968.323 1.788.981 2.313 1.856l.39.65q.297.495.5 1.034l.871 2.325a6.69 6.69 0 0 1-.052 4.83l-.115.287a8.3 8.3 0 0 1-1.065 1.895l-.318.424q-.524.7-1.142 1.317L58.5 57.385l-2 2-2.5 2m-39.5 3-.216.324a14.3 14.3 0 0 1-1.784 2.176 30 30 0 0 1-3.197 2.773L9 69.885l-2 1.5-2 1.5-1.5 1c-.99.66-1.84 1.51-2.5 2.5l-.457.915a.405.405 0 0 0 .362.585h.93q.166 0 .325-.04l1.84-.46 2.5-1m8-12 4 .5h4m31.5-3.5-.983 1.311a12.1 12.1 0 0 1-4.276 3.569l-2.241 1.12-3.5 1.5-3 1-2.5.5-2.5.5-.832.278a2.05 2.05 0 0 0-1.059.808l-.054.082c-.347.52-.93.832-1.555.832h-.359a2.76 2.76 0 0 1-2.292-1.227l-.41-.615a2.98 2.98 0 0 0-1.756-1.237L25 69.386m0 0a44.5 44.5 0 0 0-5.828 2.413l-.172.086-2.5 1.5-3 1.5a16.7 16.7 0 0 1-4.193 1.439L9 76.385l-1.947.487a.447.447 0 0 1-.553-.432v-.055m18.5-7-5.337-1.83M6.5 76.385l3.5-2 4.5-3 3.5-2.5 1.663-1.33m0 0 .837-.67 2-2m0 0 5-.5 4.5-1 2.185-.82a16.8 16.8 0 0 0 5.994-3.859l1.321-1.32.966-1.208a9.3 9.3 0 0 0 1.558-2.863l.042-.128a8.5 8.5 0 0 0 .434-2.674v-.031a8.3 8.3 0 0 0-1.658-4.974L42 44.385l-1-1.5"/><path fill="#757575" stroke="#000" stroke-opacity=".9" stroke-width=".8" d="m39.76 32.7-.05-.012a2.94 2.94 0 0 0-2.268.358l-1.574.984a3.33 3.33 0 0 0-1.546 2.459l-.123 1.1a2.07 2.07 0 0 0 2.055 2.296h.496c.498 0 .994-.061 1.477-.182l.461-.115a4.8 4.8 0 0 0 1.508-.667l.207-.138c.394-.263.732-.6.995-.995l.06-.09a3.23 3.23 0 0 0 .376-2.81l-.128-.386a2.76 2.76 0 0 0-1.947-1.802Z"/><path fill="#ADADAD" stroke="#000" stroke-opacity=".9" stroke-width=".8" d="m38.497 29.883.415.415a2.01 2.01 0 0 1 .187 2.623l-.835 1.113a6 6 0 0 1-.575.662l-1.207 1.207a4.2 4.2 0 0 0-1.105 3.99l.009.035q.114.457.325.88l.574 1.148a.16.16 0 0 1-.214.215l-.571-.285-.583-.35A7.7 7.7 0 0 1 32 38.386l-.37-.74a5.97 5.97 0 0 1-.514-3.84l.19-.95a5.7 5.7 0 0 1 .703-1.82l.358-.595a3.654 3.654 0 0 1 4.49-1.513l.49.197c.431.172.822.43 1.15.758Z"/><path stroke="#000" stroke-linecap="round" stroke-width=".6" d="m21.985 55.97-.776 1.422-.922 1.735-.22.535a.88.88 0 0 0 .173.941c.169.18.406.283.654.283h.55q.202 0 .4-.037l.198-.037a4.3 4.3 0 0 0 1.636-.675l1.174-.798q.311-.211.586-.469l.904-.846c.023-.021.06.001.05.03l-.287.61c-.07.146-.105.217-.105.378 0 .168.035.425.138.557.087.112.212.236.362.286l.212.012q.183 0 .357-.059l.338-.115a3.3 3.3 0 0 0 .51-.225l.458-.251.587-.404q.36-.247.67-.554l.587-.584.728-.844.68-.747.873-1.229M43.5 29.885v0a2.91 2.91 0 0 1 3.907-1.754l.593.254"/></g><defs><clipPath id="a"><path fill="#fff" d="M0 .885h64v78H0z"/></clipPath></defs></svg>