<svg xmlns="http://www.w3.org/2000/svg" width="151" height="23" fill="none"><g clip-path="url(#a)"><path fill="#EE3F58" d="M98.562.53H86.208q-.206 0-.206.199c-.343 5.369-1.373 11.202-2.883 15.908v.199c.069.066.138.066.206.066h4.256c.068 0 .206-.066.206-.133 1.166-3.645 2.127-8.418 2.47-12.46h4.05v12.394q0 .2.206.199h4.05q.205 0 .205-.199V.795c0-.132-.068-.265-.206-.265m52.233 0h-4.05q-.206 0-.206.199v12.329c-.892.265-1.784.33-2.745.33-2.677 0-3.295-.794-3.295-4.241V.795q0-.198-.206-.199h-4.049q-.206 0-.206.2v8.881c0 5.568 1.922 7.755 6.932 7.755 2.814 0 6.04-.729 7.893-1.392.069 0 .138-.132.138-.199V.795c0-.132-.069-.265-.206-.265M65.342.596h-4.118c-.137 0-.206.067-.206.133-.617 2.452-1.922 6.562-3.706 10.87L53.194.663c0-.067-.138-.133-.206-.133H48.87c-.069 0-.138.066-.206.066q-.104.1 0 .2L54.84 17.1c-.618 1.26-1.235 2.32-1.785 3.314-.411.729-.823 1.458-1.235 2.254-.069.066 0 .132 0 .198.069.067.137.133.206.133h4.461c.069 0 .138-.066.206-.133.755-1.392 1.716-3.38 2.608-5.369 2.609-5.965 4.736-11.533 6.315-16.636 0-.067 0-.133-.069-.2-.068-.066-.137-.066-.206-.066m14.689 12.528c0-.067-.069-.133-.138-.133h-.206c-.96.332-2.814.663-4.118.663-2.814 0-4.118-.73-4.118-4.905 0-3.314.412-4.905 4.118-4.905 1.03 0 2.06.133 3.295.53.137 0 .206 0 .274-.132.48-.862 1.03-1.856 1.648-3.182V.862c0-.067-.069-.133-.138-.133-1.647-.53-3.637-.795-5.353-.795-5.903 0-8.511 2.65-8.511 8.683 0 6.098 2.608 8.815 8.51 8.815 1.442 0 4.393-.331 5.766-.861.137-.067.137-.133.137-.266zM118.398.596h-4.118c-.068 0-.206.067-.206.133-.617 2.452-1.922 6.562-3.706 10.87L106.25.663c0-.067-.138-.133-.206-.133h-4.118c-.069 0-.138.066-.206.066q-.104.1 0 .2l6.177 16.305c-.618 1.26-1.235 2.253-1.785 3.314-.411.729-.823 1.458-1.235 2.254-.069.066 0 .132 0 .198.069.067.137.133.206.133h4.461c.069 0 .138-.066.206-.133.755-1.392 1.716-3.38 2.608-5.369 2.609-5.965 4.736-11.533 6.246-16.636 0-.067 0-.133-.068-.2 0-.066-.069-.066-.138-.066m15.1-.066h-11.942q-.207 0-.206.199v15.974q0 .2.206.199h4.049q.206 0 .206-.199V4.375h6.246c.069 0 .206-.067.206-.133.48-1.06.961-2.254 1.441-3.38v-.2c-.068-.066-.137-.132-.206-.132"/><path fill="#fff" d="M21.483 13.787c-2.677 0-3.5-.73-3.5-5.038 0-4.64.892-5.037 3.5-5.037s3.57.398 3.57 5.037c0 4.375-.893 5.038-3.57 5.038m0-13.72c-5.834 0-8.099 2.385-8.099 8.616 0 6.297 2.265 8.75 8.1 8.75 5.833 0 8.167-2.453 8.167-8.75 0-6.164-2.334-8.617-8.168-8.617m24.229 13.057c0-.066-.069-.133-.138-.133h-.205c-.961.332-2.815.663-4.118.663-2.815 0-4.119-.729-4.119-4.905 0-3.314.412-4.905 4.119-4.905 1.029 0 2.059.133 3.294.53.069 0 .206 0 .274-.132.481-.862 1.03-1.856 1.648-3.181v-.2c0-.066-.069-.132-.137-.132C44.75.265 42.76 0 41.045 0c-5.903 0-8.511 2.651-8.511 8.683 0 6.098 2.608 8.816 8.51 8.816 1.442 0 4.393-.332 5.766-.862.137-.066.137-.133.137-.265zM12.149.53H.206C.069.53 0 .663 0 .795V16.77q0 .198.206.198h4.05q.205 0 .205-.198V4.375h6.246c.069 0 .137-.067.206-.133.48-1.06.961-2.254 1.441-3.38v-.2C12.287.598 12.218.53 12.15.53"/></g><defs><clipPath id="a"><path fill="#fff" d="M0 0h151v23H0z"/></clipPath></defs></svg>